ISO-10303-21;
HEADER;
/* Generated by software containing ST-Developer
 * from STEP Tools, Inc. (www.steptools.com) 
 */

FILE_DESCRIPTION(
/* description */ (''),
/* implementation_level */ '2;1');

FILE_NAME(
/* name */ 'C:\\Users\\eyome\\OneDrive\\Documents\\Inventor\\N_IK\\ef.
STEP',
/* time_stamp */ '2025-11-27T14:41:45+03:00',
/* author */ ('eyome'),
/* organization */ (''),
/* preprocessor_version */ 'ST-DEVELOPER v18.1',
/* originating_system */ 'Autodesk Inventor 2021',
/* authorisation */ '');

FILE_SCHEMA (('AUTOMOTIVE_DESIGN { 1 0 10303 214 3 1 1 }'));
ENDSEC;

DATA;
#10=MECHANICAL_DESIGN_GEOMETRIC_PRESENTATION_REPRESENTATION('',(#13),#336);
#11=SHAPE_REPRESENTATION_RELATIONSHIP('SRR','None',#343,#12);
#12=ADVANCED_BREP_SHAPE_REPRESENTATION('',(#14),#335);
#13=STYLED_ITEM('',(#352),#14);
#14=MANIFOLD_SOLID_BREP('Solid1',#162);
#15=ELLIPSE('',#190,2.12132034355965,1.5);
#16=ELLIPSE('',#191,1.62358830043859,1.5);
#17=ELLIPSE('',#193,1.62358830043859,1.5);
#18=ELLIPSE('',#195,2.12132034355964,1.5);
#19=FACE_BOUND('',#41,.T.);
#20=CIRCLE('',#184,1.5);
#21=CIRCLE('',#186,1.5);
#22=CIRCLE('',#187,1.);
#23=CIRCLE('',#197,1.);
#24=PLANE('',#183);
#25=PLANE('',#185);
#26=PLANE('',#198);
#27=PLANE('',#199);
#28=FACE_OUTER_BOUND('',#38,.T.);
#29=FACE_OUTER_BOUND('',#39,.T.);
#30=FACE_OUTER_BOUND('',#40,.T.);
#31=FACE_OUTER_BOUND('',#42,.T.);
#32=FACE_OUTER_BOUND('',#43,.T.);
#33=FACE_OUTER_BOUND('',#44,.T.);
#34=FACE_OUTER_BOUND('',#45,.T.);
#35=FACE_OUTER_BOUND('',#46,.T.);
#36=FACE_OUTER_BOUND('',#47,.T.);
#37=FACE_OUTER_BOUND('',#48,.T.);
#38=EDGE_LOOP('',(#104,#105,#106,#107,#108,#109));
#39=EDGE_LOOP('',(#110));
#40=EDGE_LOOP('',(#111));
#41=EDGE_LOOP('',(#112));
#42=EDGE_LOOP('',(#113,#114,#115,#116));
#43=EDGE_LOOP('',(#117,#118,#119,#120,#121,#122,#123,#124));
#44=EDGE_LOOP('',(#125,#126,#127,#128));
#45=EDGE_LOOP('',(#129,#130,#131,#132,#133,#134,#135,#136));
#46=EDGE_LOOP('',(#137,#138,#139,#140));
#47=EDGE_LOOP('',(#141));
#48=EDGE_LOOP('',(#142,#143,#144,#145));
#49=LINE('',#265,#56);
#50=LINE('',#282,#57);
#51=LINE('',#305,#58);
#52=LINE('',#317,#59);
#53=LINE('',#320,#60);
#54=LINE('',#325,#61);
#55=LINE('',#330,#62);
#56=VECTOR('',#204,1.5);
#57=VECTOR('',#205,10.);
#58=VECTOR('',#218,1.5);
#59=VECTOR('',#219,10.);
#60=VECTOR('',#224,1.5);
#61=VECTOR('',#233,1.5);
#62=VECTOR('',#240,1.);
#63=B_SPLINE_CURVE_WITH_KNOTS('',3,(#249,#250,#251,#252,#253,#254,#255,
#256),.UNSPECIFIED.,.F.,.F.,(4,2,2,4),(2.03890082479946,2.04674183020675,
2.10604006653256,2.16533830285838),.UNSPECIFIED.);
#64=B_SPLINE_CURVE_WITH_KNOTS('',3,(#258,#259,#260,#261,#262,#263),
 .UNSPECIFIED.,.F.,.F.,(4,2,4),(1.95469933188399,1.98556884278264,2.03890082479946),
 .UNSPECIFIED.);
#65=B_SPLINE_CURVE_WITH_KNOTS('',3,(#267,#268,#269,#270,#271,#272),
 .UNSPECIFIED.,.F.,.F.,(4,2,4),(0.125619995510616,0.161042995210024,0.20997524726716),
 .UNSPECIFIED.);
#66=B_SPLINE_CURVE_WITH_KNOTS('',3,(#274,#275,#276,#277,#278,#279,#280,
#281),.UNSPECIFIED.,.F.,.F.,(4,2,2,4),(0.,0.053883545185042,0.107767090370084,
0.125619995510616),.UNSPECIFIED.);
#67=B_SPLINE_CURVE_WITH_KNOTS('',3,(#294,#295,#296,#297,#298,#299,#300,
#301,#302,#303),.UNSPECIFIED.,.F.,.F.,(4,2,2,2,4),(1.95469933188399,1.98556884278264,
2.04674183020674,2.10604006653256,2.16533830285837),.UNSPECIFIED.);
#68=B_SPLINE_CURVE_WITH_KNOTS('',3,(#307,#308,#309,#310,#311,#312,#313,
#314,#315,#316),.UNSPECIFIED.,.F.,.F.,(4,2,2,2,4),(0.,0.0538835451850422,
0.107767090370084,0.161042995210024,0.20997524726716),.UNSPECIFIED.);
#69=VERTEX_POINT('',#247);
#70=VERTEX_POINT('',#248);
#71=VERTEX_POINT('',#257);
#72=VERTEX_POINT('',#264);
#73=VERTEX_POINT('',#266);
#74=VERTEX_POINT('',#273);
#75=VERTEX_POINT('',#284);
#76=VERTEX_POINT('',#287);
#77=VERTEX_POINT('',#289);
#78=VERTEX_POINT('',#292);
#79=VERTEX_POINT('',#293);
#80=VERTEX_POINT('',#304);
#81=VERTEX_POINT('',#306);
#82=VERTEX_POINT('',#328);
#83=EDGE_CURVE('',#69,#70,#63,.F.);
#84=EDGE_CURVE('',#70,#71,#64,.F.);
#85=EDGE_CURVE('',#71,#72,#49,.T.);
#86=EDGE_CURVE('',#73,#72,#65,.T.);
#87=EDGE_CURVE('',#74,#73,#66,.T.);
#88=EDGE_CURVE('',#69,#74,#50,.T.);
#89=EDGE_CURVE('',#75,#75,#20,.T.);
#90=EDGE_CURVE('',#76,#76,#21,.T.);
#91=EDGE_CURVE('',#77,#77,#22,.T.);
#92=EDGE_CURVE('',#78,#79,#67,.F.);
#93=EDGE_CURVE('',#79,#80,#51,.T.);
#94=EDGE_CURVE('',#81,#80,#68,.T.);
#95=EDGE_CURVE('',#78,#81,#52,.T.);
#96=EDGE_CURVE('',#80,#71,#15,.F.);
#97=EDGE_CURVE('',#70,#76,#53,.T.);
#98=EDGE_CURVE('',#69,#81,#16,.T.);
#99=EDGE_CURVE('',#74,#78,#17,.T.);
#100=EDGE_CURVE('',#75,#73,#54,.T.);
#101=EDGE_CURVE('',#72,#79,#18,.F.);
#102=EDGE_CURVE('',#82,#82,#23,.T.);
#103=EDGE_CURVE('',#82,#77,#55,.T.);
#104=ORIENTED_EDGE('',*,*,#83,.T.);
#105=ORIENTED_EDGE('',*,*,#84,.T.);
#106=ORIENTED_EDGE('',*,*,#85,.T.);
#107=ORIENTED_EDGE('',*,*,#86,.F.);
#108=ORIENTED_EDGE('',*,*,#87,.F.);
#109=ORIENTED_EDGE('',*,*,#88,.F.);
#110=ORIENTED_EDGE('',*,*,#89,.F.);
#111=ORIENTED_EDGE('',*,*,#90,.F.);
#112=ORIENTED_EDGE('',*,*,#91,.T.);
#113=ORIENTED_EDGE('',*,*,#92,.T.);
#114=ORIENTED_EDGE('',*,*,#93,.T.);
#115=ORIENTED_EDGE('',*,*,#94,.F.);
#116=ORIENTED_EDGE('',*,*,#95,.F.);
#117=ORIENTED_EDGE('',*,*,#96,.T.);
#118=ORIENTED_EDGE('',*,*,#84,.F.);
#119=ORIENTED_EDGE('',*,*,#97,.T.);
#120=ORIENTED_EDGE('',*,*,#90,.T.);
#121=ORIENTED_EDGE('',*,*,#97,.F.);
#122=ORIENTED_EDGE('',*,*,#83,.F.);
#123=ORIENTED_EDGE('',*,*,#98,.T.);
#124=ORIENTED_EDGE('',*,*,#94,.T.);
#125=ORIENTED_EDGE('',*,*,#95,.T.);
#126=ORIENTED_EDGE('',*,*,#98,.F.);
#127=ORIENTED_EDGE('',*,*,#88,.T.);
#128=ORIENTED_EDGE('',*,*,#99,.T.);
#129=ORIENTED_EDGE('',*,*,#89,.T.);
#130=ORIENTED_EDGE('',*,*,#100,.T.);
#131=ORIENTED_EDGE('',*,*,#86,.T.);
#132=ORIENTED_EDGE('',*,*,#101,.T.);
#133=ORIENTED_EDGE('',*,*,#92,.F.);
#134=ORIENTED_EDGE('',*,*,#99,.F.);
#135=ORIENTED_EDGE('',*,*,#87,.T.);
#136=ORIENTED_EDGE('',*,*,#100,.F.);
#137=ORIENTED_EDGE('',*,*,#102,.F.);
#138=ORIENTED_EDGE('',*,*,#103,.T.);
#139=ORIENTED_EDGE('',*,*,#91,.F.);
#140=ORIENTED_EDGE('',*,*,#103,.F.);
#141=ORIENTED_EDGE('',*,*,#102,.T.);
#142=ORIENTED_EDGE('',*,*,#85,.F.);
#143=ORIENTED_EDGE('',*,*,#96,.F.);
#144=ORIENTED_EDGE('',*,*,#93,.F.);
#145=ORIENTED_EDGE('',*,*,#101,.F.);
#146=CYLINDRICAL_SURFACE('',#182,1.5);
#147=CYLINDRICAL_SURFACE('',#188,1.5);
#148=CYLINDRICAL_SURFACE('',#189,1.5);
#149=CYLINDRICAL_SURFACE('',#192,1.5);
#150=CYLINDRICAL_SURFACE('',#194,1.5);
#151=CYLINDRICAL_SURFACE('',#196,1.);
#152=ADVANCED_FACE('',(#28),#146,.T.);
#153=ADVANCED_FACE('',(#29),#24,.T.);
#154=ADVANCED_FACE('',(#30,#19),#25,.F.);
#155=ADVANCED_FACE('',(#31),#147,.T.);
#156=ADVANCED_FACE('',(#32),#148,.T.);
#157=ADVANCED_FACE('',(#33),#149,.T.);
#158=ADVANCED_FACE('',(#34),#150,.T.);
#159=ADVANCED_FACE('',(#35),#151,.T.);
#160=ADVANCED_FACE('',(#36),#26,.T.);
#161=ADVANCED_FACE('',(#37),#27,.T.);
#162=CLOSED_SHELL('',(#152,#153,#154,#155,#156,#157,#158,#159,#160,#161));
#163=DERIVED_UNIT_ELEMENT(#165,1.);
#164=DERIVED_UNIT_ELEMENT(#338,3.);
#165=(
MASS_UNIT()
NAMED_UNIT(*)
SI_UNIT($,.GRAM.)
);
#166=DERIVED_UNIT((#163,#164));
#167=MEASURE_REPRESENTATION_ITEM('density measure',
POSITIVE_RATIO_MEASURE(1.),#166);
#168=PROPERTY_DEFINITION_REPRESENTATION(#173,#170);
#169=PROPERTY_DEFINITION_REPRESENTATION(#174,#171);
#170=REPRESENTATION('material name',(#172),#335);
#171=REPRESENTATION('density',(#167),#335);
#172=DESCRIPTIVE_REPRESENTATION_ITEM('Generic','Generic');
#173=PROPERTY_DEFINITION('material property','material name',#345);
#174=PROPERTY_DEFINITION('material property','density of part',#345);
#175=DATE_TIME_ROLE('creation_date');
#176=APPLIED_DATE_AND_TIME_ASSIGNMENT(#177,#175,(#345));
#177=DATE_AND_TIME(#178,#179);
#178=CALENDAR_DATE(2025,15,11);
#179=LOCAL_TIME(0,0,0.,#180);
#180=COORDINATED_UNIVERSAL_TIME_OFFSET(0,0,.BEHIND.);
#181=AXIS2_PLACEMENT_3D('placement',#245,#200,#201);
#182=AXIS2_PLACEMENT_3D('',#246,#202,#203);
#183=AXIS2_PLACEMENT_3D('',#283,#206,#207);
#184=AXIS2_PLACEMENT_3D('',#285,#208,#209);
#185=AXIS2_PLACEMENT_3D('',#286,#210,#211);
#186=AXIS2_PLACEMENT_3D('',#288,#212,#213);
#187=AXIS2_PLACEMENT_3D('',#290,#214,#215);
#188=AXIS2_PLACEMENT_3D('',#291,#216,#217);
#189=AXIS2_PLACEMENT_3D('',#318,#220,#221);
#190=AXIS2_PLACEMENT_3D('',#319,#222,#223);
#191=AXIS2_PLACEMENT_3D('',#321,#225,#226);
#192=AXIS2_PLACEMENT_3D('',#322,#227,#228);
#193=AXIS2_PLACEMENT_3D('',#323,#229,#230);
#194=AXIS2_PLACEMENT_3D('',#324,#231,#232);
#195=AXIS2_PLACEMENT_3D('',#326,#234,#235);
#196=AXIS2_PLACEMENT_3D('',#327,#236,#237);
#197=AXIS2_PLACEMENT_3D('',#329,#238,#239);
#198=AXIS2_PLACEMENT_3D('',#331,#241,#242);
#199=AXIS2_PLACEMENT_3D('',#332,#243,#244);
#200=DIRECTION('axis',(0.,0.,1.));
#201=DIRECTION('refdir',(1.,0.,0.));
#202=DIRECTION('center_axis',(3.20474742746036E-31,-0.707106781186547,0.707106781186548));
#203=DIRECTION('ref_axis',(-0.810465452374363,-0.414213562373096,-0.414213562373094));
#204=DIRECTION('',(3.20474742746036E-31,-0.707106781186547,0.707106781186548));
#205=DIRECTION('',(0.,-0.707106781186547,0.707106781186548));
#206=DIRECTION('center_axis',(-4.62592926927148E-16,-1.,0.));
#207=DIRECTION('ref_axis',(0.,0.,1.));
#208=DIRECTION('center_axis',(4.62592926927148E-16,1.,0.));
#209=DIRECTION('ref_axis',(-0.707106781186547,1.57009245868377E-15,-0.707106781186548));
#210=DIRECTION('center_axis',(0.,0.,1.));
#211=DIRECTION('ref_axis',(1.,0.,0.));
#212=DIRECTION('center_axis',(0.,0.,1.));
#213=DIRECTION('ref_axis',(-0.707106781186548,-0.707106781186547,0.));
#214=DIRECTION('center_axis',(0.,0.,1.));
#215=DIRECTION('ref_axis',(-1.,0.,0.));
#216=DIRECTION('center_axis',(3.27102595559119E-16,0.707106781186547,-0.707106781186548));
#217=DIRECTION('ref_axis',(0.810465452374361,-0.414213562373097,-0.414213562373096));
#218=DIRECTION('',(3.27102595559119E-16,0.707106781186547,-0.707106781186548));
#219=DIRECTION('',(3.2710259555912E-16,0.707106781186547,-0.707106781186548));
#220=DIRECTION('center_axis',(0.,0.,1.));
#221=DIRECTION('ref_axis',(0.707106781186548,0.707106781186547,0.));
#222=DIRECTION('center_axis',(3.2710259555912E-16,0.707106781186548,0.707106781186547));
#223=DIRECTION('ref_axis',(-5.23364152894591E-16,-0.707106781186547,0.707106781186548));
#224=DIRECTION('',(0.,0.,-1.));
#225=DIRECTION('center_axis',(7.1921354912883E-16,0.382683432365091,-0.923879532511286));
#226=DIRECTION('ref_axis',(-1.7363351045493E-15,-0.923879532511286,-0.382683432365091));
#227=DIRECTION('center_axis',(-3.2710259555912E-16,-0.707106781186547,0.707106781186548));
#228=DIRECTION('ref_axis',(0.707106781186547,0.5,0.500000000000001));
#229=DIRECTION('center_axis',(6.83808219315971E-16,0.923879532511286,-0.382683432365091));
#230=DIRECTION('ref_axis',(-7.96098802989852E-16,-0.382683432365091,-0.923879532511286));
#231=DIRECTION('center_axis',(-4.62592926927148E-16,-1.,0.));
#232=DIRECTION('ref_axis',(0.707106781186548,0.,0.707106781186547));
#233=DIRECTION('',(4.62592926927148E-16,1.,0.));
#234=DIRECTION('center_axis',(3.2710259555912E-16,0.707106781186548,0.707106781186547));
#235=DIRECTION('ref_axis',(-1.30841038223648E-16,0.707106781186547,-0.707106781186548));
#236=DIRECTION('center_axis',(0.,0.,-1.));
#237=DIRECTION('ref_axis',(-1.,0.,0.));
#238=DIRECTION('center_axis',(0.,0.,-1.));
#239=DIRECTION('ref_axis',(-1.,0.,0.));
#240=DIRECTION('',(0.,0.,1.));
#241=DIRECTION('center_axis',(0.,0.,-1.));
#242=DIRECTION('ref_axis',(-1.,0.,0.));
#243=DIRECTION('center_axis',(-3.2710259555912E-16,-0.707106781186548,-0.707106781186547));
#244=DIRECTION('ref_axis',(-3.27102595559119E-16,-0.707106781186547,0.707106781186548));
#245=CARTESIAN_POINT('',(0.,0.,0.));
#246=CARTESIAN_POINT('Origin',(-0.284301821438456,-1.74264068711928,12.3639610306789));
#247=CARTESIAN_POINT('',(-1.5,-5.55111512312578E-16,9.37867965644036));
#248=CARTESIAN_POINT('',(-1.06066017177878,-1.06066017178086,9.86689500118059));
#249=CARTESIAN_POINT('Ctrl Pts',(-1.06066017177774,-1.0606601717819,9.86689500118059));
#250=CARTESIAN_POINT('Ctrl Pts',(-1.07976012669277,-1.04156021686695,9.86413412161354));
#251=CARTESIAN_POINT('Ctrl Pts',(-1.09802968314609,-1.02225492841135,9.86128350321643));
#252=CARTESIAN_POINT('Ctrl Pts',(-1.24670023425796,-0.856915906985796,9.83587909615164));
#253=CARTESIAN_POINT('Ctrl Pts',(-1.35391588400697,-0.673236136541391,9.80121246736186));
#254=CARTESIAN_POINT('Ctrl Pts',(-1.47931482149291,-0.313072023983893,9.64512453739945));
#255=CARTESIAN_POINT('Ctrl Pts',(-1.5,-0.139767283394621,9.51844693983498));
#256=CARTESIAN_POINT('Ctrl Pts',(-1.5,-5.55111512312578E-16,9.37867965644035));
#257=CARTESIAN_POINT('',(-0.284301821438457,-1.47281107896661,9.97281107896661));
#258=CARTESIAN_POINT('Ctrl Pts',(-0.284301821438457,-1.47281107896661,9.9728110789666));
#259=CARTESIAN_POINT('Ctrl Pts',(-0.390003937083956,-1.45240703364329,9.95240703364329));
#260=CARTESIAN_POINT('Ctrl Pts',(-0.502235167267468,-1.41710745103987,9.93524537093182));
#261=CARTESIAN_POINT('Ctrl Pts',(-0.75791791039465,-1.30640842517404,9.90135390072808));
#262=CARTESIAN_POINT('Ctrl Pts',(-0.930748457764176,-1.19057188579496,9.88567361078127));
#263=CARTESIAN_POINT('Ctrl Pts',(-1.06066017177774,-1.0606601717819,9.86689500118059));
#264=CARTESIAN_POINT('',(-0.284301821438457,-9.1337906388316,17.6337906388316));
#265=CARTESIAN_POINT('',(-0.284301821438457,-2.8033008588991,11.3033008588991));
#266=CARTESIAN_POINT('',(-1.06066017177982,-9.2397067166179,18.0459415460184));
#267=CARTESIAN_POINT('Ctrl Pts',(-1.06066017177982,-9.2397067166179,18.0459415460184));
#268=CARTESIAN_POINT('Ctrl Pts',(-0.970890922060715,-9.22673066047524,17.9561722962993));
#269=CARTESIAN_POINT('Ctrl Pts',(-0.865011622776233,-9.21591678232955,17.8755197400416));
#270=CARTESIAN_POINT('Ctrl Pts',(-0.624187257920655,-9.1883344492841,17.7330157784389));
#271=CARTESIAN_POINT('Ctrl Pts',(-0.443670542718425,-9.16455413483409,17.6645541348341));
#272=CARTESIAN_POINT('Ctrl Pts',(-0.284301821438388,-9.13379063883158,17.6337906388316));
#273=CARTESIAN_POINT('',(-1.5,-9.72792206135786,19.1066017177982));
#274=CARTESIAN_POINT('Ctrl Pts',(-1.5,-9.72792206135783,19.1066017177982));
#275=CARTESIAN_POINT('Ctrl Pts',(-1.5,-9.60091732737545,18.9795969838158));
#276=CARTESIAN_POINT('Ctrl Pts',(-1.48308988526503,-9.48247997524599,18.8237667047409));
#277=CARTESIAN_POINT('Ctrl Pts',(-1.38067968889764,-9.32642363200248,18.4956672774384));
#278=CARTESIAN_POINT('Ctrl Pts',(-1.2928129059725,-9.28619415633065,18.3253909820037));
#279=CARTESIAN_POINT('Ctrl Pts',(-1.14728241043137,-9.25344842377779,18.1385014848446));
#280=CARTESIAN_POINT('Ctrl Pts',(-1.10590314706061,-9.24624654388773,18.0911845212992));
#281=CARTESIAN_POINT('Ctrl Pts',(-1.06066017177982,-9.2397067166179,18.0459415460184));
#282=CARTESIAN_POINT('',(-1.5,-2.36396103067893,11.7426406871193));
#283=CARTESIAN_POINT('Origin',(1.5,-12.1066017177982,17.6066017177982));
#284=CARTESIAN_POINT('',(-1.06066017177983,-12.1066017177982,18.0459415460184));
#285=CARTESIAN_POINT('Origin',(0.,-12.1066017177982,19.1066017177982));
#286=CARTESIAN_POINT('Origin',(6.93889390390723E-16,-6.93889390390723E-16,
0.));
#287=CARTESIAN_POINT('',(-1.06066017177982,-1.06066017177982,0.));
#288=CARTESIAN_POINT('Origin',(0.,-6.93889390390723E-16,0.));
#289=CARTESIAN_POINT('',(1.,-1.22464679914735E-16,0.));
#290=CARTESIAN_POINT('Origin',(0.,0.,0.));
#291=CARTESIAN_POINT('Origin',(0.284301821438458,-2.49264068711928,13.1139610306789));
#292=CARTESIAN_POINT('',(1.5,-9.72792206135786,19.1066017177982));
#293=CARTESIAN_POINT('',(0.284301821438454,-9.1337906388316,17.6337906388316));
#294=CARTESIAN_POINT('Ctrl Pts',(0.284301821438456,-9.13379063883159,17.6337906388316));
#295=CARTESIAN_POINT('Ctrl Pts',(0.390003937083953,-9.15419468415491,17.6541946841549));
#296=CARTESIAN_POINT('Ctrl Pts',(0.502235167267465,-9.17135634686638,17.6894942667583));
#297=CARTESIAN_POINT('Ctrl Pts',(0.781727580532245,-9.20840385613697,17.8105017994017));
#298=CARTESIAN_POINT('Ctrl Pts',(0.979933396181041,-9.22513825207766,17.9530099215623));
#299=CARTESIAN_POINT('Ctrl Pts',(1.24670023425796,-9.27072262164656,18.2496858108124));
#300=CARTESIAN_POINT('Ctrl Pts',(1.35391588400697,-9.30538925043633,18.4333655812568));
#301=CARTESIAN_POINT('Ctrl Pts',(1.47931482149291,-9.46147718039874,18.7935296938143));
#302=CARTESIAN_POINT('Ctrl Pts',(1.5,-9.58815477796322,18.9668344344036));
#303=CARTESIAN_POINT('Ctrl Pts',(1.5,-9.72792206135784,19.1066017177982));
#304=CARTESIAN_POINT('',(0.284301821438458,-1.47281107896661,9.9728110789666));
#305=CARTESIAN_POINT('',(0.284301821438457,-3.5533008588991,12.0533008588991));
#306=CARTESIAN_POINT('',(1.5,-1.11022302462516E-15,9.37867965644036));
#307=CARTESIAN_POINT('Ctrl Pts',(1.5,-2.1163626406917E-15,9.37867965644035));
#308=CARTESIAN_POINT('Ctrl Pts',(1.5,-0.127004733982385,9.50568439042273));
#309=CARTESIAN_POINT('Ctrl Pts',(1.48308988526503,-0.282835013057353,9.62412174255219));
#310=CARTESIAN_POINT('Ctrl Pts',(1.38067968889764,-0.610934440359822,9.78017808579571));
#311=CARTESIAN_POINT('Ctrl Pts',(1.2928129059725,-0.781210735794474,9.82040756146754));
#312=CARTESIAN_POINT('Ctrl Pts',(1.07542038385476,-1.06038506962512,9.86932292701886));
#313=CARTESIAN_POINT('Ctrl Pts',(0.915979576184793,-1.20092250747275,9.88484742369361));
#314=CARTESIAN_POINT('Ctrl Pts',(0.624187257920651,-1.37358593935931,9.9182672685141));
#315=CARTESIAN_POINT('Ctrl Pts',(0.443670542718423,-1.44204758296412,9.94204758296411));
#316=CARTESIAN_POINT('Ctrl Pts',(0.284301821438387,-1.47281107896662,9.97281107896662));
#317=CARTESIAN_POINT('',(1.5,-3.11396103067893,12.4926406871193));
#318=CARTESIAN_POINT('Origin',(6.24500451351651E-16,-4.16333634234434E-16,
0.));
#319=CARTESIAN_POINT('Origin',(6.93889390390723E-16,-6.24500451351651E-16,
8.5));
#320=CARTESIAN_POINT('',(-1.06066017177982,-1.06066017177982,0.));
#321=CARTESIAN_POINT('Origin',(6.24500451351651E-16,-4.16333634234434E-16,
9.37867965644035));
#322=CARTESIAN_POINT('Origin',(-6.84790227250131E-16,-3.11396103067893,
12.4926406871193));
#323=CARTESIAN_POINT('Origin',(-3.744361819014E-15,-9.72792206135786,19.1066017177982));
#324=CARTESIAN_POINT('Origin',(-2.4980018054066E-15,-6.80330085889911,19.1066017177982));
#325=CARTESIAN_POINT('',(-1.06066017177982,-6.80330085889911,18.0459415460184));
#326=CARTESIAN_POINT('Origin',(0.,-10.6066017177982,19.1066017177982));
#327=CARTESIAN_POINT('Origin',(0.,0.,0.));
#328=CARTESIAN_POINT('',(1.,-1.22464679914735E-16,-3.));
#329=CARTESIAN_POINT('Origin',(0.,0.,-3.));
#330=CARTESIAN_POINT('',(1.,-1.22464679914735E-16,0.));
#331=CARTESIAN_POINT('Origin',(0.,0.,-3.));
#332=CARTESIAN_POINT('Origin',(1.5,-1.5,10.));
#333=UNCERTAINTY_MEASURE_WITH_UNIT(LENGTH_MEASURE(0.01),#337,
'DISTANCE_ACCURACY_VALUE',
'Maximum model space distance between geometric entities at asserted c
onnectivities');
#334=UNCERTAINTY_MEASURE_WITH_UNIT(LENGTH_MEASURE(0.01),#337,
'DISTANCE_ACCURACY_VALUE',
'Maximum model space distance between geometric entities at asserted c
onnectivities');
#335=(
GEOMETRIC_REPRESENTATION_CONTEXT(3)
GLOBAL_UNCERTAINTY_ASSIGNED_CONTEXT((#333))
GLOBAL_UNIT_ASSIGNED_CONTEXT((#337,#339,#340))
REPRESENTATION_CONTEXT('','3D')
);
#336=(
GEOMETRIC_REPRESENTATION_CONTEXT(3)
GLOBAL_UNCERTAINTY_ASSIGNED_CONTEXT((#334))
GLOBAL_UNIT_ASSIGNED_CONTEXT((#337,#339,#340))
REPRESENTATION_CONTEXT('','3D')
);
#337=(
LENGTH_UNIT()
NAMED_UNIT(*)
SI_UNIT(.MILLI.,.METRE.)
);
#338=(
LENGTH_UNIT()
NAMED_UNIT(*)
SI_UNIT(.CENTI.,.METRE.)
);
#339=(
NAMED_UNIT(*)
PLANE_ANGLE_UNIT()
SI_UNIT($,.RADIAN.)
);
#340=(
NAMED_UNIT(*)
SI_UNIT($,.STERADIAN.)
SOLID_ANGLE_UNIT()
);
#341=SHAPE_DEFINITION_REPRESENTATION(#342,#343);
#342=PRODUCT_DEFINITION_SHAPE('',$,#345);
#343=SHAPE_REPRESENTATION('',(#181),#335);
#344=PRODUCT_DEFINITION_CONTEXT('part definition',#349,'design');
#345=PRODUCT_DEFINITION('ef','ef',#346,#344);
#346=PRODUCT_DEFINITION_FORMATION('',$,#351);
#347=PRODUCT_RELATED_PRODUCT_CATEGORY('ef','ef',(#351));
#348=APPLICATION_PROTOCOL_DEFINITION('international standard',
'automotive_design',2009,#349);
#349=APPLICATION_CONTEXT(
'Core Data for Automotive Mechanical Design Process');
#350=PRODUCT_CONTEXT('part definition',#349,'mechanical');
#351=PRODUCT('ef','ef',$,(#350));
#352=PRESENTATION_STYLE_ASSIGNMENT((#353));
#353=SURFACE_STYLE_USAGE(.BOTH.,#356);
#354=SURFACE_STYLE_RENDERING_WITH_PROPERTIES($,#360,(#355));
#355=SURFACE_STYLE_TRANSPARENT(0.);
#356=SURFACE_SIDE_STYLE('',(#357,#354));
#357=SURFACE_STYLE_FILL_AREA(#358);
#358=FILL_AREA_STYLE('',(#359));
#359=FILL_AREA_STYLE_COLOUR('',#360);
#360=COLOUR_RGB('',0.749019607843137,0.749019607843137,0.749019607843137);
ENDSEC;
END-ISO-10303-21;
