ISO-10303-21;
HEADER;
/* Generated by software containing ST-Developer
 * from STEP Tools, Inc. (www.steptools.com) 
 */

FILE_DESCRIPTION(
/* description */ (''),
/* implementation_level */ '2;1');

FILE_NAME(
/* name */ 
'C:\\Users\\eyome\\OneDrive\\Documents\\Inventor\\N_IK\\arm6DOF\\eyo_6
DOF_arm\\\\l_3_ipt_3437687d.STEP',
/* time_stamp */ '2025-11-15T16:55:07+03:00',
/* author */ ('eyome'),
/* organization */ (''),
/* preprocessor_version */ 'ST-DEVELOPER v18.1',
/* originating_system */ 'Autodesk Inventor 2021',
/* authorisation */ '');

FILE_SCHEMA (('AUTOMOTIVE_DESIGN { 1 0 10303 214 3 1 1 }'));
ENDSEC;

DATA;
#10=MECHANICAL_DESIGN_GEOMETRIC_PRESENTATION_REPRESENTATION('',(#13),#1911);
#11=SHAPE_REPRESENTATION_RELATIONSHIP('SRR','None',#1918,#12);
#12=ADVANCED_BREP_SHAPE_REPRESENTATION('',(#14),#1910);
#13=STYLED_ITEM('',(#1927),#14);
#14=MANIFOLD_SOLID_BREP('Solid2',#1045);
#15=FACE_BOUND('',#355,.T.);
#16=FACE_BOUND('',#356,.T.);
#17=FACE_BOUND('',#357,.T.);
#18=FACE_BOUND('',#365,.T.);
#19=FACE_BOUND('',#367,.T.);
#20=FACE_BOUND('',#368,.T.);
#21=FACE_BOUND('',#369,.T.);
#22=FACE_BOUND('',#370,.T.);
#23=FACE_BOUND('',#371,.T.);
#24=FACE_BOUND('',#373,.T.);
#25=FACE_BOUND('',#374,.T.);
#26=FACE_BOUND('',#375,.T.);
#27=FACE_BOUND('',#391,.T.);
#28=FACE_BOUND('',#392,.T.);
#29=FACE_BOUND('',#394,.T.);
#30=FACE_BOUND('',#395,.T.);
#31=PLANE('',#1112);
#32=PLANE('',#1113);
#33=PLANE('',#1115);
#34=PLANE('',#1116);
#35=PLANE('',#1118);
#36=PLANE('',#1131);
#37=PLANE('',#1137);
#38=PLANE('',#1138);
#39=PLANE('',#1139);
#40=PLANE('',#1140);
#41=PLANE('',#1148);
#42=PLANE('',#1149);
#43=PLANE('',#1154);
#44=PLANE('',#1155);
#45=PLANE('',#1156);
#46=PLANE('',#1157);
#47=PLANE('',#1158);
#48=PLANE('',#1159);
#49=PLANE('',#1160);
#50=PLANE('',#1161);
#51=PLANE('',#1170);
#52=PLANE('',#1171);
#53=PLANE('',#1172);
#54=PLANE('',#1173);
#55=PLANE('',#1174);
#56=PLANE('',#1175);
#57=PLANE('',#1176);
#58=B_SPLINE_SURFACE_WITH_KNOTS('',3,3,((#1634,#1635,#1636,#1637,#1638,
#1639,#1640,#1641),(#1642,#1643,#1644,#1645,#1646,#1647,#1648,#1649),(#1650,
#1651,#1652,#1653,#1654,#1655,#1656,#1657),(#1658,#1659,#1660,#1661,#1662,
#1663,#1664,#1665),(#1666,#1667,#1668,#1669,#1670,#1671,#1672,#1673)),
 .UNSPECIFIED.,.F.,.F.,.F.,(4,1,4),(4,1,1,2,4),(0.,0.571428571428571,1.),
(-1.09370221684671,-0.437480886738684,-0.218740443369342,0.,0.00174816107587453),
 .UNSPECIFIED.);
#59=B_SPLINE_SURFACE_WITH_KNOTS('',3,3,((#1684,#1685,#1686,#1687,#1688,
#1689,#1690,#1691),(#1692,#1693,#1694,#1695,#1696,#1697,#1698,#1699),(#1700,
#1701,#1702,#1703,#1704,#1705,#1706,#1707),(#1708,#1709,#1710,#1711,#1712,
#1713,#1714,#1715),(#1716,#1717,#1718,#1719,#1720,#1721,#1722,#1723)),
 .UNSPECIFIED.,.F.,.F.,.F.,(4,1,4),(4,2,1,1,4),(0.,0.571428571428571,1.),
(-3.28943119721914,-3.28768303614326,-2.85020214940458,-2.63146170603524,
-2.19398081929655),.UNSPECIFIED.);
#60=LINE('',#1506,#146);
#61=LINE('',#1507,#147);
#62=LINE('',#1519,#148);
#63=LINE('',#1520,#149);
#64=LINE('',#1534,#150);
#65=LINE('',#1535,#151);
#66=LINE('',#1544,#152);
#67=LINE('',#1545,#153);
#68=LINE('',#1566,#154);
#69=LINE('',#1567,#155);
#70=LINE('',#1572,#156);
#71=LINE('',#1573,#157);
#72=LINE('',#1585,#158);
#73=LINE('',#1586,#159);
#74=LINE('',#1595,#160);
#75=LINE('',#1596,#161);
#76=LINE('',#1598,#162);
#77=LINE('',#1599,#163);
#78=LINE('',#1608,#164);
#79=LINE('',#1609,#165);
#80=LINE('',#1611,#166);
#81=LINE('',#1612,#167);
#82=LINE('',#1614,#168);
#83=LINE('',#1615,#169);
#84=LINE('',#1617,#170);
#85=LINE('',#1618,#171);
#86=LINE('',#1632,#172);
#87=LINE('',#1633,#173);
#88=LINE('',#1735,#174);
#89=LINE('',#1737,#175);
#90=LINE('',#1739,#176);
#91=LINE('',#1741,#177);
#92=LINE('',#1743,#178);
#93=LINE('',#1745,#179);
#94=LINE('',#1747,#180);
#95=LINE('',#1748,#181);
#96=LINE('',#1751,#182);
#97=LINE('',#1754,#183);
#98=LINE('',#1762,#184);
#99=LINE('',#1768,#185);
#100=LINE('',#1774,#186);
#101=LINE('',#1780,#187);
#102=LINE('',#1787,#188);
#103=LINE('',#1795,#189);
#104=LINE('',#1797,#190);
#105=LINE('',#1798,#191);
#106=LINE('',#1801,#192);
#107=LINE('',#1802,#193);
#108=LINE('',#1805,#194);
#109=LINE('',#1806,#195);
#110=LINE('',#1810,#196);
#111=LINE('',#1816,#197);
#112=LINE('',#1818,#198);
#113=LINE('',#1819,#199);
#114=LINE('',#1835,#200);
#115=LINE('',#1837,#201);
#116=LINE('',#1838,#202);
#117=LINE('',#1843,#203);
#118=LINE('',#1845,#204);
#119=LINE('',#1847,#205);
#120=LINE('',#1848,#206);
#121=LINE('',#1851,#207);
#122=LINE('',#1853,#208);
#123=LINE('',#1854,#209);
#124=LINE('',#1856,#210);
#125=LINE('',#1858,#211);
#126=LINE('',#1859,#212);
#127=LINE('',#1862,#213);
#128=LINE('',#1863,#214);
#129=LINE('',#1865,#215);
#130=LINE('',#1866,#216);
#131=LINE('',#1869,#217);
#132=LINE('',#1870,#218);
#133=LINE('',#1872,#219);
#134=LINE('',#1874,#220);
#135=LINE('',#1875,#221);
#136=LINE('',#1880,#222);
#137=LINE('',#1884,#223);
#138=LINE('',#1888,#224);
#139=LINE('',#1892,#225);
#140=LINE('',#1895,#226);
#141=LINE('',#1896,#227);
#142=LINE('',#1899,#228);
#143=LINE('',#1900,#229);
#144=LINE('',#1902,#230);
#145=LINE('',#1903,#231);
#146=VECTOR('',#1189,10.);
#147=VECTOR('',#1190,10.);
#148=VECTOR('',#1203,10.);
#149=VECTOR('',#1204,10.);
#150=VECTOR('',#1207,10.);
#151=VECTOR('',#1208,10.);
#152=VECTOR('',#1219,10.);
#153=VECTOR('',#1220,10.);
#154=VECTOR('',#1231,10.);
#155=VECTOR('',#1232,10.);
#156=VECTOR('',#1237,10.);
#157=VECTOR('',#1238,10.);
#158=VECTOR('',#1251,10.);
#159=VECTOR('',#1252,10.);
#160=VECTOR('',#1263,10.);
#161=VECTOR('',#1264,10.);
#162=VECTOR('',#1267,10.);
#163=VECTOR('',#1268,10.);
#164=VECTOR('',#1279,10.);
#165=VECTOR('',#1280,10.);
#166=VECTOR('',#1283,10.);
#167=VECTOR('',#1284,10.);
#168=VECTOR('',#1287,10.);
#169=VECTOR('',#1288,10.);
#170=VECTOR('',#1291,10.);
#171=VECTOR('',#1292,10.);
#172=VECTOR('',#1295,10.);
#173=VECTOR('',#1296,10.);
#174=VECTOR('',#1303,10.);
#175=VECTOR('',#1304,10.);
#176=VECTOR('',#1305,10.);
#177=VECTOR('',#1306,10.);
#178=VECTOR('',#1307,10.);
#179=VECTOR('',#1308,10.);
#180=VECTOR('',#1309,10.);
#181=VECTOR('',#1310,10.);
#182=VECTOR('',#1313,10.);
#183=VECTOR('',#1318,10.);
#184=VECTOR('',#1329,0.98);
#185=VECTOR('',#1336,1.5);
#186=VECTOR('',#1343,0.98);
#187=VECTOR('',#1350,10.5);
#188=VECTOR('',#1359,10.);
#189=VECTOR('',#1368,10.);
#190=VECTOR('',#1369,10.);
#191=VECTOR('',#1370,10.);
#192=VECTOR('',#1373,10.);
#193=VECTOR('',#1374,10.);
#194=VECTOR('',#1377,10.);
#195=VECTOR('',#1378,10.);
#196=VECTOR('',#1381,10.);
#197=VECTOR('',#1388,30.);
#198=VECTOR('',#1391,10.);
#199=VECTOR('',#1392,10.);
#200=VECTOR('',#1413,10.);
#201=VECTOR('',#1414,10.);
#202=VECTOR('',#1415,10.);
#203=VECTOR('',#1420,10.);
#204=VECTOR('',#1421,10.);
#205=VECTOR('',#1422,10.);
#206=VECTOR('',#1423,10.);
#207=VECTOR('',#1426,10.);
#208=VECTOR('',#1427,10.);
#209=VECTOR('',#1428,10.);
#210=VECTOR('',#1429,10.);
#211=VECTOR('',#1430,10.);
#212=VECTOR('',#1431,10.);
#213=VECTOR('',#1434,10.);
#214=VECTOR('',#1435,10.);
#215=VECTOR('',#1436,10.);
#216=VECTOR('',#1437,10.);
#217=VECTOR('',#1440,10.);
#218=VECTOR('',#1441,10.);
#219=VECTOR('',#1444,10.);
#220=VECTOR('',#1445,10.);
#221=VECTOR('',#1446,10.);
#222=VECTOR('',#1453,1.5);
#223=VECTOR('',#1458,1.5);
#224=VECTOR('',#1463,1.5);
#225=VECTOR('',#1468,1.5);
#226=VECTOR('',#1471,10.);
#227=VECTOR('',#1472,10.);
#228=VECTOR('',#1475,10.);
#229=VECTOR('',#1476,10.);
#230=VECTOR('',#1479,10.);
#231=VECTOR('',#1480,10.);
#232=B_SPLINE_CURVE_WITH_KNOTS('',3,(#1500,#1501,#1502,#1503,#1504,#1505),
 .UNSPECIFIED.,.F.,.F.,(4,2,4),(0.,0.531229371429031,1.06245874285806),
 .UNSPECIFIED.);
#233=B_SPLINE_CURVE_WITH_KNOTS('',3,(#1524,#1525,#1526,#1527,#1528,#1529,
#1530,#1531,#1532,#1533),.UNSPECIFIED.,.F.,.F.,(4,2,2,2,4),(0.,0.0751171510831221,
0.150234302166244,0.248234034049427,0.346233765932611),.UNSPECIFIED.);
#234=B_SPLINE_CURVE_WITH_KNOTS('',3,(#1556,#1557,#1558,#1559,#1560,#1561,
#1562,#1563,#1564,#1565),.UNSPECIFIED.,.F.,.F.,(4,2,2,2,4),(-0.34623376593261,
-0.248234034049427,-0.150234302166244,-0.0751171510831219,0.),
 .UNSPECIFIED.);
#235=B_SPLINE_CURVE_WITH_KNOTS('',3,(#1622,#1623,#1624,#1625,#1626,#1627,
#1628,#1629,#1630,#1631),.UNSPECIFIED.,.F.,.F.,(4,2,2,2,4),(-0.346233765932611,
-0.248234034049428,-0.150234302166244,-0.0751171510831221,0.),
 .UNSPECIFIED.);
#236=B_SPLINE_CURVE_WITH_KNOTS('',3,(#1676,#1677,#1678,#1679,#1680,#1681,
#1682,#1683),.UNSPECIFIED.,.F.,.F.,(4,2,1,1,4),(-0.00174816107587453,0.,
0.218740443369342,0.437480886738684,1.09370221684671),.UNSPECIFIED.);
#237=B_SPLINE_CURVE_WITH_KNOTS('',3,(#1724,#1725,#1726,#1727,#1728,#1729,
#1730,#1731),.UNSPECIFIED.,.F.,.F.,(4,1,1,2,4),(2.19398081929655,2.63146170603524,
2.85020214940458,3.28768303614326,3.28943119721914),.UNSPECIFIED.);
#238=CYLINDRICAL_SURFACE('',#1069,2.);
#239=CYLINDRICAL_SURFACE('',#1074,2.);
#240=CYLINDRICAL_SURFACE('',#1076,2.);
#241=CYLINDRICAL_SURFACE('',#1081,2.);
#242=CYLINDRICAL_SURFACE('',#1086,2.);
#243=CYLINDRICAL_SURFACE('',#1087,2.);
#244=CYLINDRICAL_SURFACE('',#1093,2.);
#245=CYLINDRICAL_SURFACE('',#1099,2.);
#246=CYLINDRICAL_SURFACE('',#1100,2.);
#247=CYLINDRICAL_SURFACE('',#1105,2.);
#248=CYLINDRICAL_SURFACE('',#1106,2.);
#249=CYLINDRICAL_SURFACE('',#1107,2.);
#250=CYLINDRICAL_SURFACE('',#1108,2.);
#251=CYLINDRICAL_SURFACE('',#1109,2.);
#252=CYLINDRICAL_SURFACE('',#1119,0.98);
#253=CYLINDRICAL_SURFACE('',#1122,1.5);
#254=CYLINDRICAL_SURFACE('',#1125,0.98);
#255=CYLINDRICAL_SURFACE('',#1128,10.5);
#256=CYLINDRICAL_SURFACE('',#1132,10.);
#257=CYLINDRICAL_SURFACE('',#1142,30.);
#258=CYLINDRICAL_SURFACE('',#1162,1.5);
#259=CYLINDRICAL_SURFACE('',#1164,1.5);
#260=CYLINDRICAL_SURFACE('',#1166,1.5);
#261=CYLINDRICAL_SURFACE('',#1168,1.5);
#262=FACE_OUTER_BOUND('',#322,.T.);
#263=FACE_OUTER_BOUND('',#323,.T.);
#264=FACE_OUTER_BOUND('',#324,.T.);
#265=FACE_OUTER_BOUND('',#325,.T.);
#266=FACE_OUTER_BOUND('',#326,.T.);
#267=FACE_OUTER_BOUND('',#327,.T.);
#268=FACE_OUTER_BOUND('',#328,.T.);
#269=FACE_OUTER_BOUND('',#329,.T.);
#270=FACE_OUTER_BOUND('',#330,.T.);
#271=FACE_OUTER_BOUND('',#331,.T.);
#272=FACE_OUTER_BOUND('',#332,.T.);
#273=FACE_OUTER_BOUND('',#333,.T.);
#274=FACE_OUTER_BOUND('',#334,.T.);
#275=FACE_OUTER_BOUND('',#335,.T.);
#276=FACE_OUTER_BOUND('',#336,.T.);
#277=FACE_OUTER_BOUND('',#337,.T.);
#278=FACE_OUTER_BOUND('',#338,.T.);
#279=FACE_OUTER_BOUND('',#339,.T.);
#280=FACE_OUTER_BOUND('',#340,.T.);
#281=FACE_OUTER_BOUND('',#341,.T.);
#282=FACE_OUTER_BOUND('',#342,.T.);
#283=FACE_OUTER_BOUND('',#343,.T.);
#284=FACE_OUTER_BOUND('',#344,.T.);
#285=FACE_OUTER_BOUND('',#345,.T.);
#286=FACE_OUTER_BOUND('',#346,.T.);
#287=FACE_OUTER_BOUND('',#347,.T.);
#288=FACE_OUTER_BOUND('',#348,.T.);
#289=FACE_OUTER_BOUND('',#349,.T.);
#290=FACE_OUTER_BOUND('',#350,.T.);
#291=FACE_OUTER_BOUND('',#351,.T.);
#292=FACE_OUTER_BOUND('',#352,.T.);
#293=FACE_OUTER_BOUND('',#353,.T.);
#294=FACE_OUTER_BOUND('',#354,.T.);
#295=FACE_OUTER_BOUND('',#358,.T.);
#296=FACE_OUTER_BOUND('',#359,.T.);
#297=FACE_OUTER_BOUND('',#360,.T.);
#298=FACE_OUTER_BOUND('',#361,.T.);
#299=FACE_OUTER_BOUND('',#362,.T.);
#300=FACE_OUTER_BOUND('',#363,.T.);
#301=FACE_OUTER_BOUND('',#364,.T.);
#302=FACE_OUTER_BOUND('',#366,.T.);
#303=FACE_OUTER_BOUND('',#372,.T.);
#304=FACE_OUTER_BOUND('',#376,.T.);
#305=FACE_OUTER_BOUND('',#377,.T.);
#306=FACE_OUTER_BOUND('',#378,.T.);
#307=FACE_OUTER_BOUND('',#379,.T.);
#308=FACE_OUTER_BOUND('',#380,.T.);
#309=FACE_OUTER_BOUND('',#381,.T.);
#310=FACE_OUTER_BOUND('',#382,.T.);
#311=FACE_OUTER_BOUND('',#383,.T.);
#312=FACE_OUTER_BOUND('',#384,.T.);
#313=FACE_OUTER_BOUND('',#385,.T.);
#314=FACE_OUTER_BOUND('',#386,.T.);
#315=FACE_OUTER_BOUND('',#387,.T.);
#316=FACE_OUTER_BOUND('',#388,.T.);
#317=FACE_OUTER_BOUND('',#389,.T.);
#318=FACE_OUTER_BOUND('',#390,.T.);
#319=FACE_OUTER_BOUND('',#393,.T.);
#320=FACE_OUTER_BOUND('',#396,.T.);
#321=FACE_OUTER_BOUND('',#397,.T.);
#322=EDGE_LOOP('',(#686,#687,#688));
#323=EDGE_LOOP('',(#689,#690,#691,#692));
#324=EDGE_LOOP('',(#693,#694,#695));
#325=EDGE_LOOP('',(#696,#697,#698,#699));
#326=EDGE_LOOP('',(#700,#701,#702,#703));
#327=EDGE_LOOP('',(#704,#705,#706));
#328=EDGE_LOOP('',(#707,#708,#709,#710));
#329=EDGE_LOOP('',(#711,#712,#713));
#330=EDGE_LOOP('',(#714,#715,#716,#717));
#331=EDGE_LOOP('',(#718,#719,#720,#721));
#332=EDGE_LOOP('',(#722,#723,#724));
#333=EDGE_LOOP('',(#725,#726,#727,#728));
#334=EDGE_LOOP('',(#729,#730,#731));
#335=EDGE_LOOP('',(#732,#733,#734,#735));
#336=EDGE_LOOP('',(#736,#737,#738,#739));
#337=EDGE_LOOP('',(#740,#741,#742));
#338=EDGE_LOOP('',(#743,#744,#745,#746));
#339=EDGE_LOOP('',(#747,#748,#749,#750));
#340=EDGE_LOOP('',(#751,#752,#753,#754));
#341=EDGE_LOOP('',(#755,#756,#757,#758));
#342=EDGE_LOOP('',(#759,#760,#761,#762));
#343=EDGE_LOOP('',(#763,#764,#765));
#344=EDGE_LOOP('',(#766,#767,#768));
#345=EDGE_LOOP('',(#769,#770,#771,#772,#773,#774,#775,#776,#777,#778,#779,
#780));
#346=EDGE_LOOP('',(#781,#782,#783,#784));
#347=EDGE_LOOP('',(#785,#786,#787,#788,#789,#790));
#348=EDGE_LOOP('',(#791,#792,#793));
#349=EDGE_LOOP('',(#794,#795,#796,#797));
#350=EDGE_LOOP('',(#798,#799,#800,#801));
#351=EDGE_LOOP('',(#802,#803,#804,#805));
#352=EDGE_LOOP('',(#806,#807,#808,#809));
#353=EDGE_LOOP('',(#810,#811,#812,#813));
#354=EDGE_LOOP('',(#814));
#355=EDGE_LOOP('',(#815));
#356=EDGE_LOOP('',(#816));
#357=EDGE_LOOP('',(#817));
#358=EDGE_LOOP('',(#818,#819,#820,#821,#822,#823));
#359=EDGE_LOOP('',(#824,#825,#826,#827));
#360=EDGE_LOOP('',(#828,#829,#830));
#361=EDGE_LOOP('',(#831,#832,#833));
#362=EDGE_LOOP('',(#834,#835));
#363=EDGE_LOOP('',(#836,#837,#838,#839,#840,#841,#842,#843,#844,#845,#846,
#847,#848,#849,#850,#851,#852,#853,#854,#855,#856));
#364=EDGE_LOOP('',(#857));
#365=EDGE_LOOP('',(#858));
#366=EDGE_LOOP('',(#859,#860,#861,#862,#863,#864,#865,#866));
#367=EDGE_LOOP('',(#867));
#368=EDGE_LOOP('',(#868));
#369=EDGE_LOOP('',(#869));
#370=EDGE_LOOP('',(#870));
#371=EDGE_LOOP('',(#871));
#372=EDGE_LOOP('',(#872,#873,#874,#875,#876,#877,#878));
#373=EDGE_LOOP('',(#879));
#374=EDGE_LOOP('',(#880));
#375=EDGE_LOOP('',(#881));
#376=EDGE_LOOP('',(#882,#883,#884));
#377=EDGE_LOOP('',(#885,#886,#887,#888));
#378=EDGE_LOOP('',(#889,#890,#891,#892,#893,#894,#895,#896,#897));
#379=EDGE_LOOP('',(#898,#899,#900,#901,#902,#903,#904,#905));
#380=EDGE_LOOP('',(#906,#907,#908,#909));
#381=EDGE_LOOP('',(#910,#911,#912,#913,#914,#915,#916,#917));
#382=EDGE_LOOP('',(#918,#919,#920,#921));
#383=EDGE_LOOP('',(#922,#923,#924,#925));
#384=EDGE_LOOP('',(#926,#927,#928,#929));
#385=EDGE_LOOP('',(#930,#931,#932,#933));
#386=EDGE_LOOP('',(#934,#935,#936,#937));
#387=EDGE_LOOP('',(#938,#939,#940,#941,#942));
#388=EDGE_LOOP('',(#943,#944,#945,#946));
#389=EDGE_LOOP('',(#947,#948,#949,#950,#951,#952,#953,#954,#955));
#390=EDGE_LOOP('',(#956,#957,#958,#959));
#391=EDGE_LOOP('',(#960));
#392=EDGE_LOOP('',(#961));
#393=EDGE_LOOP('',(#962,#963,#964,#965));
#394=EDGE_LOOP('',(#966));
#395=EDGE_LOOP('',(#967));
#396=EDGE_LOOP('',(#968,#969,#970,#971,#972,#973,#974));
#397=EDGE_LOOP('',(#975,#976,#977));
#398=CIRCLE('',#1066,2.);
#399=CIRCLE('',#1067,2.);
#400=CIRCLE('',#1068,2.);
#401=CIRCLE('',#1071,2.00000000000001);
#402=CIRCLE('',#1072,2.);
#403=CIRCLE('',#1073,2.);
#404=CIRCLE('',#1075,2.);
#405=CIRCLE('',#1078,2.);
#406=CIRCLE('',#1079,2.);
#407=CIRCLE('',#1080,2.);
#408=CIRCLE('',#1083,2.);
#409=CIRCLE('',#1084,2.);
#410=CIRCLE('',#1085,2.);
#411=CIRCLE('',#1088,2.);
#412=CIRCLE('',#1090,2.);
#413=CIRCLE('',#1091,2.);
#414=CIRCLE('',#1092,2.);
#415=CIRCLE('',#1094,2.);
#416=CIRCLE('',#1096,2.);
#417=CIRCLE('',#1097,2.);
#418=CIRCLE('',#1098,2.);
#419=CIRCLE('',#1102,2.);
#420=CIRCLE('',#1103,2.);
#421=CIRCLE('',#1104,2.);
#422=CIRCLE('',#1110,30.);
#423=CIRCLE('',#1111,30.);
#424=CIRCLE('',#1114,30.);
#425=CIRCLE('',#1117,30.);
#426=CIRCLE('',#1120,0.98);
#427=CIRCLE('',#1121,0.98);
#428=CIRCLE('',#1123,1.5);
#429=CIRCLE('',#1124,1.5);
#430=CIRCLE('',#1126,0.98);
#431=CIRCLE('',#1127,0.98);
#432=CIRCLE('',#1129,10.5);
#433=CIRCLE('',#1130,10.5);
#434=CIRCLE('',#1133,10.);
#435=CIRCLE('',#1134,10.);
#436=CIRCLE('',#1135,10.);
#437=CIRCLE('',#1136,10.);
#438=CIRCLE('',#1141,30.);
#439=CIRCLE('',#1143,30.);
#440=CIRCLE('',#1144,30.);
#441=CIRCLE('',#1145,30.);
#442=CIRCLE('',#1146,30.);
#443=CIRCLE('',#1147,30.);
#444=CIRCLE('',#1150,1.5);
#445=CIRCLE('',#1151,1.5);
#446=CIRCLE('',#1152,1.5);
#447=CIRCLE('',#1153,1.5);
#448=CIRCLE('',#1163,1.5);
#449=CIRCLE('',#1165,1.5);
#450=CIRCLE('',#1167,1.5);
#451=CIRCLE('',#1169,1.5);
#452=VERTEX_POINT('',#1491);
#453=VERTEX_POINT('',#1492);
#454=VERTEX_POINT('',#1494);
#455=VERTEX_POINT('',#1498);
#456=VERTEX_POINT('',#1499);
#457=VERTEX_POINT('',#1509);
#458=VERTEX_POINT('',#1510);
#459=VERTEX_POINT('',#1512);
#460=VERTEX_POINT('',#1516);
#461=VERTEX_POINT('',#1517);
#462=VERTEX_POINT('',#1522);
#463=VERTEX_POINT('',#1523);
#464=VERTEX_POINT('',#1537);
#465=VERTEX_POINT('',#1538);
#466=VERTEX_POINT('',#1540);
#467=VERTEX_POINT('',#1547);
#468=VERTEX_POINT('',#1548);
#469=VERTEX_POINT('',#1550);
#470=VERTEX_POINT('',#1554);
#471=VERTEX_POINT('',#1555);
#472=VERTEX_POINT('',#1569);
#473=VERTEX_POINT('',#1570);
#474=VERTEX_POINT('',#1575);
#475=VERTEX_POINT('',#1576);
#476=VERTEX_POINT('',#1578);
#477=VERTEX_POINT('',#1582);
#478=VERTEX_POINT('',#1583);
#479=VERTEX_POINT('',#1588);
#480=VERTEX_POINT('',#1589);
#481=VERTEX_POINT('',#1591);
#482=VERTEX_POINT('',#1601);
#483=VERTEX_POINT('',#1602);
#484=VERTEX_POINT('',#1604);
#485=VERTEX_POINT('',#1620);
#486=VERTEX_POINT('',#1621);
#487=VERTEX_POINT('',#1674);
#488=VERTEX_POINT('',#1734);
#489=VERTEX_POINT('',#1736);
#490=VERTEX_POINT('',#1738);
#491=VERTEX_POINT('',#1740);
#492=VERTEX_POINT('',#1742);
#493=VERTEX_POINT('',#1744);
#494=VERTEX_POINT('',#1746);
#495=VERTEX_POINT('',#1750);
#496=VERTEX_POINT('',#1759);
#497=VERTEX_POINT('',#1761);
#498=VERTEX_POINT('',#1765);
#499=VERTEX_POINT('',#1767);
#500=VERTEX_POINT('',#1771);
#501=VERTEX_POINT('',#1773);
#502=VERTEX_POINT('',#1777);
#503=VERTEX_POINT('',#1779);
#504=VERTEX_POINT('',#1784);
#505=VERTEX_POINT('',#1786);
#506=VERTEX_POINT('',#1788);
#507=VERTEX_POINT('',#1790);
#508=VERTEX_POINT('',#1794);
#509=VERTEX_POINT('',#1796);
#510=VERTEX_POINT('',#1800);
#511=VERTEX_POINT('',#1804);
#512=VERTEX_POINT('',#1808);
#513=VERTEX_POINT('',#1809);
#514=VERTEX_POINT('',#1813);
#515=VERTEX_POINT('',#1815);
#516=VERTEX_POINT('',#1825);
#517=VERTEX_POINT('',#1827);
#518=VERTEX_POINT('',#1829);
#519=VERTEX_POINT('',#1831);
#520=VERTEX_POINT('',#1834);
#521=VERTEX_POINT('',#1836);
#522=VERTEX_POINT('',#1841);
#523=VERTEX_POINT('',#1842);
#524=VERTEX_POINT('',#1844);
#525=VERTEX_POINT('',#1846);
#526=VERTEX_POINT('',#1850);
#527=VERTEX_POINT('',#1852);
#528=VERTEX_POINT('',#1855);
#529=VERTEX_POINT('',#1857);
#530=VERTEX_POINT('',#1861);
#531=VERTEX_POINT('',#1864);
#532=VERTEX_POINT('',#1868);
#533=VERTEX_POINT('',#1873);
#534=VERTEX_POINT('',#1878);
#535=VERTEX_POINT('',#1882);
#536=VERTEX_POINT('',#1886);
#537=VERTEX_POINT('',#1890);
#538=VERTEX_POINT('',#1894);
#539=VERTEX_POINT('',#1898);
#540=EDGE_CURVE('',#452,#453,#398,.F.);
#541=EDGE_CURVE('',#454,#452,#399,.F.);
#542=EDGE_CURVE('',#453,#454,#400,.F.);
#543=EDGE_CURVE('',#455,#456,#232,.T.);
#544=EDGE_CURVE('',#455,#454,#60,.T.);
#545=EDGE_CURVE('',#452,#456,#61,.T.);
#546=EDGE_CURVE('',#457,#458,#401,.F.);
#547=EDGE_CURVE('',#459,#457,#402,.F.);
#548=EDGE_CURVE('',#458,#459,#403,.F.);
#549=EDGE_CURVE('',#460,#461,#404,.T.);
#550=EDGE_CURVE('',#461,#459,#62,.T.);
#551=EDGE_CURVE('',#457,#460,#63,.T.);
#552=EDGE_CURVE('',#462,#463,#233,.F.);
#553=EDGE_CURVE('',#463,#458,#64,.T.);
#554=EDGE_CURVE('',#459,#462,#65,.T.);
#555=EDGE_CURVE('',#464,#465,#405,.F.);
#556=EDGE_CURVE('',#466,#464,#406,.F.);
#557=EDGE_CURVE('',#465,#466,#407,.F.);
#558=EDGE_CURVE('',#464,#453,#66,.T.);
#559=EDGE_CURVE('',#454,#466,#67,.T.);
#560=EDGE_CURVE('',#467,#468,#408,.F.);
#561=EDGE_CURVE('',#469,#467,#409,.F.);
#562=EDGE_CURVE('',#468,#469,#410,.F.);
#563=EDGE_CURVE('',#470,#471,#234,.F.);
#564=EDGE_CURVE('',#471,#469,#68,.T.);
#565=EDGE_CURVE('',#467,#470,#69,.T.);
#566=EDGE_CURVE('',#472,#473,#411,.T.);
#567=EDGE_CURVE('',#473,#468,#70,.T.);
#568=EDGE_CURVE('',#469,#472,#71,.T.);
#569=EDGE_CURVE('',#474,#475,#412,.F.);
#570=EDGE_CURVE('',#476,#474,#413,.F.);
#571=EDGE_CURVE('',#475,#476,#414,.F.);
#572=EDGE_CURVE('',#477,#478,#415,.T.);
#573=EDGE_CURVE('',#478,#476,#72,.T.);
#574=EDGE_CURVE('',#474,#477,#73,.T.);
#575=EDGE_CURVE('',#479,#480,#416,.F.);
#576=EDGE_CURVE('',#481,#479,#417,.F.);
#577=EDGE_CURVE('',#480,#481,#418,.F.);
#578=EDGE_CURVE('',#479,#457,#74,.T.);
#579=EDGE_CURVE('',#458,#481,#75,.T.);
#580=EDGE_CURVE('',#465,#480,#76,.T.);
#581=EDGE_CURVE('',#481,#464,#77,.T.);
#582=EDGE_CURVE('',#482,#483,#419,.F.);
#583=EDGE_CURVE('',#484,#482,#420,.F.);
#584=EDGE_CURVE('',#483,#484,#421,.F.);
#585=EDGE_CURVE('',#482,#467,#78,.T.);
#586=EDGE_CURVE('',#468,#484,#79,.T.);
#587=EDGE_CURVE('',#480,#483,#80,.T.);
#588=EDGE_CURVE('',#484,#479,#81,.T.);
#589=EDGE_CURVE('',#483,#475,#82,.T.);
#590=EDGE_CURVE('',#476,#482,#83,.T.);
#591=EDGE_CURVE('',#475,#465,#84,.T.);
#592=EDGE_CURVE('',#466,#474,#85,.T.);
#593=EDGE_CURVE('',#485,#486,#235,.F.);
#594=EDGE_CURVE('',#486,#452,#86,.T.);
#595=EDGE_CURVE('',#453,#485,#87,.T.);
#596=EDGE_CURVE('',#472,#487,#422,.T.);
#597=EDGE_CURVE('',#487,#473,#236,.T.);
#598=EDGE_CURVE('',#460,#487,#237,.T.);
#599=EDGE_CURVE('',#487,#461,#423,.T.);
#600=EDGE_CURVE('',#478,#488,#88,.T.);
#601=EDGE_CURVE('',#488,#489,#89,.T.);
#602=EDGE_CURVE('',#489,#490,#90,.T.);
#603=EDGE_CURVE('',#490,#491,#91,.T.);
#604=EDGE_CURVE('',#491,#492,#92,.T.);
#605=EDGE_CURVE('',#492,#493,#93,.T.);
#606=EDGE_CURVE('',#493,#494,#94,.T.);
#607=EDGE_CURVE('',#494,#470,#95,.T.);
#608=EDGE_CURVE('',#495,#477,#96,.T.);
#609=EDGE_CURVE('',#495,#488,#424,.T.);
#610=EDGE_CURVE('',#455,#495,#97,.T.);
#611=EDGE_CURVE('',#486,#456,#425,.T.);
#612=EDGE_CURVE('',#496,#496,#426,.T.);
#613=EDGE_CURVE('',#496,#497,#98,.T.);
#614=EDGE_CURVE('',#497,#497,#427,.T.);
#615=EDGE_CURVE('',#498,#498,#428,.T.);
#616=EDGE_CURVE('',#498,#499,#99,.T.);
#617=EDGE_CURVE('',#499,#499,#429,.T.);
#618=EDGE_CURVE('',#500,#500,#430,.T.);
#619=EDGE_CURVE('',#500,#501,#100,.T.);
#620=EDGE_CURVE('',#501,#501,#431,.T.);
#621=EDGE_CURVE('',#502,#502,#432,.T.);
#622=EDGE_CURVE('',#502,#503,#101,.T.);
#623=EDGE_CURVE('',#503,#503,#433,.T.);
#624=EDGE_CURVE('',#504,#504,#434,.T.);
#625=EDGE_CURVE('',#504,#505,#102,.T.);
#626=EDGE_CURVE('',#506,#505,#435,.T.);
#627=EDGE_CURVE('',#507,#506,#436,.T.);
#628=EDGE_CURVE('',#505,#507,#437,.T.);
#629=EDGE_CURVE('',#508,#507,#103,.T.);
#630=EDGE_CURVE('',#509,#508,#104,.T.);
#631=EDGE_CURVE('',#505,#509,#105,.T.);
#632=EDGE_CURVE('',#510,#506,#106,.T.);
#633=EDGE_CURVE('',#507,#510,#107,.T.);
#634=EDGE_CURVE('',#511,#505,#108,.T.);
#635=EDGE_CURVE('',#506,#511,#109,.T.);
#636=EDGE_CURVE('',#512,#513,#110,.T.);
#637=EDGE_CURVE('',#512,#513,#438,.T.);
#638=EDGE_CURVE('',#514,#514,#439,.T.);
#639=EDGE_CURVE('',#514,#515,#111,.T.);
#640=EDGE_CURVE('',#489,#515,#440,.T.);
#641=EDGE_CURVE('',#513,#485,#112,.T.);
#642=EDGE_CURVE('',#463,#512,#113,.T.);
#643=EDGE_CURVE('',#461,#462,#441,.T.);
#644=EDGE_CURVE('',#471,#472,#442,.T.);
#645=EDGE_CURVE('',#515,#494,#443,.T.);
#646=EDGE_CURVE('',#516,#516,#444,.T.);
#647=EDGE_CURVE('',#517,#517,#445,.T.);
#648=EDGE_CURVE('',#518,#518,#446,.T.);
#649=EDGE_CURVE('',#519,#519,#447,.T.);
#650=EDGE_CURVE('',#493,#520,#114,.T.);
#651=EDGE_CURVE('',#520,#521,#115,.T.);
#652=EDGE_CURVE('',#490,#521,#116,.T.);
#653=EDGE_CURVE('',#522,#523,#117,.T.);
#654=EDGE_CURVE('',#524,#522,#118,.T.);
#655=EDGE_CURVE('',#525,#524,#119,.T.);
#656=EDGE_CURVE('',#523,#525,#120,.T.);
#657=EDGE_CURVE('',#523,#526,#121,.T.);
#658=EDGE_CURVE('',#526,#527,#122,.T.);
#659=EDGE_CURVE('',#527,#511,#123,.T.);
#660=EDGE_CURVE('',#528,#509,#124,.T.);
#661=EDGE_CURVE('',#528,#529,#125,.T.);
#662=EDGE_CURVE('',#522,#529,#126,.T.);
#663=EDGE_CURVE('',#492,#530,#127,.T.);
#664=EDGE_CURVE('',#530,#526,#128,.T.);
#665=EDGE_CURVE('',#525,#531,#129,.T.);
#666=EDGE_CURVE('',#531,#520,#130,.T.);
#667=EDGE_CURVE('',#524,#532,#131,.T.);
#668=EDGE_CURVE('',#532,#531,#132,.T.);
#669=EDGE_CURVE('',#521,#532,#133,.T.);
#670=EDGE_CURVE('',#529,#533,#134,.T.);
#671=EDGE_CURVE('',#491,#533,#135,.T.);
#672=EDGE_CURVE('',#534,#534,#448,.T.);
#673=EDGE_CURVE('',#534,#519,#136,.T.);
#674=EDGE_CURVE('',#535,#535,#449,.T.);
#675=EDGE_CURVE('',#535,#518,#137,.T.);
#676=EDGE_CURVE('',#536,#536,#450,.T.);
#677=EDGE_CURVE('',#536,#517,#138,.T.);
#678=EDGE_CURVE('',#537,#537,#451,.T.);
#679=EDGE_CURVE('',#537,#516,#139,.T.);
#680=EDGE_CURVE('',#527,#538,#140,.T.);
#681=EDGE_CURVE('',#538,#510,#141,.T.);
#682=EDGE_CURVE('',#539,#528,#142,.T.);
#683=EDGE_CURVE('',#539,#508,#143,.T.);
#684=EDGE_CURVE('',#533,#539,#144,.T.);
#685=EDGE_CURVE('',#538,#530,#145,.T.);
#686=ORIENTED_EDGE('',*,*,#540,.F.);
#687=ORIENTED_EDGE('',*,*,#541,.F.);
#688=ORIENTED_EDGE('',*,*,#542,.F.);
#689=ORIENTED_EDGE('',*,*,#543,.F.);
#690=ORIENTED_EDGE('',*,*,#544,.T.);
#691=ORIENTED_EDGE('',*,*,#541,.T.);
#692=ORIENTED_EDGE('',*,*,#545,.T.);
#693=ORIENTED_EDGE('',*,*,#546,.F.);
#694=ORIENTED_EDGE('',*,*,#547,.F.);
#695=ORIENTED_EDGE('',*,*,#548,.F.);
#696=ORIENTED_EDGE('',*,*,#549,.T.);
#697=ORIENTED_EDGE('',*,*,#550,.T.);
#698=ORIENTED_EDGE('',*,*,#547,.T.);
#699=ORIENTED_EDGE('',*,*,#551,.T.);
#700=ORIENTED_EDGE('',*,*,#552,.T.);
#701=ORIENTED_EDGE('',*,*,#553,.T.);
#702=ORIENTED_EDGE('',*,*,#548,.T.);
#703=ORIENTED_EDGE('',*,*,#554,.T.);
#704=ORIENTED_EDGE('',*,*,#555,.F.);
#705=ORIENTED_EDGE('',*,*,#556,.F.);
#706=ORIENTED_EDGE('',*,*,#557,.F.);
#707=ORIENTED_EDGE('',*,*,#556,.T.);
#708=ORIENTED_EDGE('',*,*,#558,.T.);
#709=ORIENTED_EDGE('',*,*,#542,.T.);
#710=ORIENTED_EDGE('',*,*,#559,.T.);
#711=ORIENTED_EDGE('',*,*,#560,.F.);
#712=ORIENTED_EDGE('',*,*,#561,.F.);
#713=ORIENTED_EDGE('',*,*,#562,.F.);
#714=ORIENTED_EDGE('',*,*,#563,.T.);
#715=ORIENTED_EDGE('',*,*,#564,.T.);
#716=ORIENTED_EDGE('',*,*,#561,.T.);
#717=ORIENTED_EDGE('',*,*,#565,.T.);
#718=ORIENTED_EDGE('',*,*,#566,.T.);
#719=ORIENTED_EDGE('',*,*,#567,.T.);
#720=ORIENTED_EDGE('',*,*,#562,.T.);
#721=ORIENTED_EDGE('',*,*,#568,.T.);
#722=ORIENTED_EDGE('',*,*,#569,.F.);
#723=ORIENTED_EDGE('',*,*,#570,.F.);
#724=ORIENTED_EDGE('',*,*,#571,.F.);
#725=ORIENTED_EDGE('',*,*,#572,.T.);
#726=ORIENTED_EDGE('',*,*,#573,.T.);
#727=ORIENTED_EDGE('',*,*,#570,.T.);
#728=ORIENTED_EDGE('',*,*,#574,.T.);
#729=ORIENTED_EDGE('',*,*,#575,.F.);
#730=ORIENTED_EDGE('',*,*,#576,.F.);
#731=ORIENTED_EDGE('',*,*,#577,.F.);
#732=ORIENTED_EDGE('',*,*,#576,.T.);
#733=ORIENTED_EDGE('',*,*,#578,.T.);
#734=ORIENTED_EDGE('',*,*,#546,.T.);
#735=ORIENTED_EDGE('',*,*,#579,.T.);
#736=ORIENTED_EDGE('',*,*,#555,.T.);
#737=ORIENTED_EDGE('',*,*,#580,.T.);
#738=ORIENTED_EDGE('',*,*,#577,.T.);
#739=ORIENTED_EDGE('',*,*,#581,.T.);
#740=ORIENTED_EDGE('',*,*,#582,.F.);
#741=ORIENTED_EDGE('',*,*,#583,.F.);
#742=ORIENTED_EDGE('',*,*,#584,.F.);
#743=ORIENTED_EDGE('',*,*,#583,.T.);
#744=ORIENTED_EDGE('',*,*,#585,.T.);
#745=ORIENTED_EDGE('',*,*,#560,.T.);
#746=ORIENTED_EDGE('',*,*,#586,.T.);
#747=ORIENTED_EDGE('',*,*,#575,.T.);
#748=ORIENTED_EDGE('',*,*,#587,.T.);
#749=ORIENTED_EDGE('',*,*,#584,.T.);
#750=ORIENTED_EDGE('',*,*,#588,.T.);
#751=ORIENTED_EDGE('',*,*,#582,.T.);
#752=ORIENTED_EDGE('',*,*,#589,.T.);
#753=ORIENTED_EDGE('',*,*,#571,.T.);
#754=ORIENTED_EDGE('',*,*,#590,.T.);
#755=ORIENTED_EDGE('',*,*,#569,.T.);
#756=ORIENTED_EDGE('',*,*,#591,.T.);
#757=ORIENTED_EDGE('',*,*,#557,.T.);
#758=ORIENTED_EDGE('',*,*,#592,.T.);
#759=ORIENTED_EDGE('',*,*,#593,.T.);
#760=ORIENTED_EDGE('',*,*,#594,.T.);
#761=ORIENTED_EDGE('',*,*,#540,.T.);
#762=ORIENTED_EDGE('',*,*,#595,.T.);
#763=ORIENTED_EDGE('',*,*,#566,.F.);
#764=ORIENTED_EDGE('',*,*,#596,.T.);
#765=ORIENTED_EDGE('',*,*,#597,.T.);
#766=ORIENTED_EDGE('',*,*,#549,.F.);
#767=ORIENTED_EDGE('',*,*,#598,.T.);
#768=ORIENTED_EDGE('',*,*,#599,.T.);
#769=ORIENTED_EDGE('',*,*,#565,.F.);
#770=ORIENTED_EDGE('',*,*,#585,.F.);
#771=ORIENTED_EDGE('',*,*,#590,.F.);
#772=ORIENTED_EDGE('',*,*,#573,.F.);
#773=ORIENTED_EDGE('',*,*,#600,.T.);
#774=ORIENTED_EDGE('',*,*,#601,.T.);
#775=ORIENTED_EDGE('',*,*,#602,.T.);
#776=ORIENTED_EDGE('',*,*,#603,.T.);
#777=ORIENTED_EDGE('',*,*,#604,.T.);
#778=ORIENTED_EDGE('',*,*,#605,.T.);
#779=ORIENTED_EDGE('',*,*,#606,.T.);
#780=ORIENTED_EDGE('',*,*,#607,.T.);
#781=ORIENTED_EDGE('',*,*,#572,.F.);
#782=ORIENTED_EDGE('',*,*,#608,.F.);
#783=ORIENTED_EDGE('',*,*,#609,.T.);
#784=ORIENTED_EDGE('',*,*,#600,.F.);
#785=ORIENTED_EDGE('',*,*,#574,.F.);
#786=ORIENTED_EDGE('',*,*,#592,.F.);
#787=ORIENTED_EDGE('',*,*,#559,.F.);
#788=ORIENTED_EDGE('',*,*,#544,.F.);
#789=ORIENTED_EDGE('',*,*,#610,.T.);
#790=ORIENTED_EDGE('',*,*,#608,.T.);
#791=ORIENTED_EDGE('',*,*,#545,.F.);
#792=ORIENTED_EDGE('',*,*,#594,.F.);
#793=ORIENTED_EDGE('',*,*,#611,.T.);
#794=ORIENTED_EDGE('',*,*,#580,.F.);
#795=ORIENTED_EDGE('',*,*,#591,.F.);
#796=ORIENTED_EDGE('',*,*,#589,.F.);
#797=ORIENTED_EDGE('',*,*,#587,.F.);
#798=ORIENTED_EDGE('',*,*,#612,.F.);
#799=ORIENTED_EDGE('',*,*,#613,.T.);
#800=ORIENTED_EDGE('',*,*,#614,.F.);
#801=ORIENTED_EDGE('',*,*,#613,.F.);
#802=ORIENTED_EDGE('',*,*,#615,.F.);
#803=ORIENTED_EDGE('',*,*,#616,.T.);
#804=ORIENTED_EDGE('',*,*,#617,.F.);
#805=ORIENTED_EDGE('',*,*,#616,.F.);
#806=ORIENTED_EDGE('',*,*,#618,.F.);
#807=ORIENTED_EDGE('',*,*,#619,.T.);
#808=ORIENTED_EDGE('',*,*,#620,.F.);
#809=ORIENTED_EDGE('',*,*,#619,.F.);
#810=ORIENTED_EDGE('',*,*,#621,.F.);
#811=ORIENTED_EDGE('',*,*,#622,.T.);
#812=ORIENTED_EDGE('',*,*,#623,.T.);
#813=ORIENTED_EDGE('',*,*,#622,.F.);
#814=ORIENTED_EDGE('',*,*,#623,.F.);
#815=ORIENTED_EDGE('',*,*,#612,.T.);
#816=ORIENTED_EDGE('',*,*,#615,.T.);
#817=ORIENTED_EDGE('',*,*,#618,.T.);
#818=ORIENTED_EDGE('',*,*,#624,.F.);
#819=ORIENTED_EDGE('',*,*,#625,.T.);
#820=ORIENTED_EDGE('',*,*,#626,.F.);
#821=ORIENTED_EDGE('',*,*,#627,.F.);
#822=ORIENTED_EDGE('',*,*,#628,.F.);
#823=ORIENTED_EDGE('',*,*,#625,.F.);
#824=ORIENTED_EDGE('',*,*,#628,.T.);
#825=ORIENTED_EDGE('',*,*,#629,.F.);
#826=ORIENTED_EDGE('',*,*,#630,.F.);
#827=ORIENTED_EDGE('',*,*,#631,.F.);
#828=ORIENTED_EDGE('',*,*,#627,.T.);
#829=ORIENTED_EDGE('',*,*,#632,.F.);
#830=ORIENTED_EDGE('',*,*,#633,.F.);
#831=ORIENTED_EDGE('',*,*,#626,.T.);
#832=ORIENTED_EDGE('',*,*,#634,.F.);
#833=ORIENTED_EDGE('',*,*,#635,.F.);
#834=ORIENTED_EDGE('',*,*,#636,.F.);
#835=ORIENTED_EDGE('',*,*,#637,.T.);
#836=ORIENTED_EDGE('',*,*,#638,.F.);
#837=ORIENTED_EDGE('',*,*,#639,.T.);
#838=ORIENTED_EDGE('',*,*,#640,.F.);
#839=ORIENTED_EDGE('',*,*,#601,.F.);
#840=ORIENTED_EDGE('',*,*,#609,.F.);
#841=ORIENTED_EDGE('',*,*,#610,.F.);
#842=ORIENTED_EDGE('',*,*,#543,.T.);
#843=ORIENTED_EDGE('',*,*,#611,.F.);
#844=ORIENTED_EDGE('',*,*,#593,.F.);
#845=ORIENTED_EDGE('',*,*,#641,.F.);
#846=ORIENTED_EDGE('',*,*,#637,.F.);
#847=ORIENTED_EDGE('',*,*,#642,.F.);
#848=ORIENTED_EDGE('',*,*,#552,.F.);
#849=ORIENTED_EDGE('',*,*,#643,.F.);
#850=ORIENTED_EDGE('',*,*,#599,.F.);
#851=ORIENTED_EDGE('',*,*,#596,.F.);
#852=ORIENTED_EDGE('',*,*,#644,.F.);
#853=ORIENTED_EDGE('',*,*,#563,.F.);
#854=ORIENTED_EDGE('',*,*,#607,.F.);
#855=ORIENTED_EDGE('',*,*,#645,.F.);
#856=ORIENTED_EDGE('',*,*,#639,.F.);
#857=ORIENTED_EDGE('',*,*,#638,.T.);
#858=ORIENTED_EDGE('',*,*,#621,.T.);
#859=ORIENTED_EDGE('',*,*,#553,.F.);
#860=ORIENTED_EDGE('',*,*,#642,.T.);
#861=ORIENTED_EDGE('',*,*,#636,.T.);
#862=ORIENTED_EDGE('',*,*,#641,.T.);
#863=ORIENTED_EDGE('',*,*,#595,.F.);
#864=ORIENTED_EDGE('',*,*,#558,.F.);
#865=ORIENTED_EDGE('',*,*,#581,.F.);
#866=ORIENTED_EDGE('',*,*,#579,.F.);
#867=ORIENTED_EDGE('',*,*,#624,.T.);
#868=ORIENTED_EDGE('',*,*,#646,.T.);
#869=ORIENTED_EDGE('',*,*,#647,.T.);
#870=ORIENTED_EDGE('',*,*,#648,.T.);
#871=ORIENTED_EDGE('',*,*,#649,.T.);
#872=ORIENTED_EDGE('',*,*,#650,.T.);
#873=ORIENTED_EDGE('',*,*,#651,.T.);
#874=ORIENTED_EDGE('',*,*,#652,.F.);
#875=ORIENTED_EDGE('',*,*,#602,.F.);
#876=ORIENTED_EDGE('',*,*,#640,.T.);
#877=ORIENTED_EDGE('',*,*,#645,.T.);
#878=ORIENTED_EDGE('',*,*,#606,.F.);
#879=ORIENTED_EDGE('',*,*,#614,.T.);
#880=ORIENTED_EDGE('',*,*,#617,.T.);
#881=ORIENTED_EDGE('',*,*,#620,.T.);
#882=ORIENTED_EDGE('',*,*,#550,.F.);
#883=ORIENTED_EDGE('',*,*,#643,.T.);
#884=ORIENTED_EDGE('',*,*,#554,.F.);
#885=ORIENTED_EDGE('',*,*,#653,.F.);
#886=ORIENTED_EDGE('',*,*,#654,.F.);
#887=ORIENTED_EDGE('',*,*,#655,.F.);
#888=ORIENTED_EDGE('',*,*,#656,.F.);
#889=ORIENTED_EDGE('',*,*,#653,.T.);
#890=ORIENTED_EDGE('',*,*,#657,.T.);
#891=ORIENTED_EDGE('',*,*,#658,.T.);
#892=ORIENTED_EDGE('',*,*,#659,.T.);
#893=ORIENTED_EDGE('',*,*,#634,.T.);
#894=ORIENTED_EDGE('',*,*,#631,.T.);
#895=ORIENTED_EDGE('',*,*,#660,.F.);
#896=ORIENTED_EDGE('',*,*,#661,.T.);
#897=ORIENTED_EDGE('',*,*,#662,.F.);
#898=ORIENTED_EDGE('',*,*,#605,.F.);
#899=ORIENTED_EDGE('',*,*,#663,.T.);
#900=ORIENTED_EDGE('',*,*,#664,.T.);
#901=ORIENTED_EDGE('',*,*,#657,.F.);
#902=ORIENTED_EDGE('',*,*,#656,.T.);
#903=ORIENTED_EDGE('',*,*,#665,.T.);
#904=ORIENTED_EDGE('',*,*,#666,.T.);
#905=ORIENTED_EDGE('',*,*,#650,.F.);
#906=ORIENTED_EDGE('',*,*,#655,.T.);
#907=ORIENTED_EDGE('',*,*,#667,.T.);
#908=ORIENTED_EDGE('',*,*,#668,.T.);
#909=ORIENTED_EDGE('',*,*,#665,.F.);
#910=ORIENTED_EDGE('',*,*,#603,.F.);
#911=ORIENTED_EDGE('',*,*,#652,.T.);
#912=ORIENTED_EDGE('',*,*,#669,.T.);
#913=ORIENTED_EDGE('',*,*,#667,.F.);
#914=ORIENTED_EDGE('',*,*,#654,.T.);
#915=ORIENTED_EDGE('',*,*,#662,.T.);
#916=ORIENTED_EDGE('',*,*,#670,.T.);
#917=ORIENTED_EDGE('',*,*,#671,.F.);
#918=ORIENTED_EDGE('',*,*,#669,.F.);
#919=ORIENTED_EDGE('',*,*,#651,.F.);
#920=ORIENTED_EDGE('',*,*,#666,.F.);
#921=ORIENTED_EDGE('',*,*,#668,.F.);
#922=ORIENTED_EDGE('',*,*,#672,.F.);
#923=ORIENTED_EDGE('',*,*,#673,.T.);
#924=ORIENTED_EDGE('',*,*,#649,.F.);
#925=ORIENTED_EDGE('',*,*,#673,.F.);
#926=ORIENTED_EDGE('',*,*,#674,.F.);
#927=ORIENTED_EDGE('',*,*,#675,.T.);
#928=ORIENTED_EDGE('',*,*,#648,.F.);
#929=ORIENTED_EDGE('',*,*,#675,.F.);
#930=ORIENTED_EDGE('',*,*,#676,.F.);
#931=ORIENTED_EDGE('',*,*,#677,.T.);
#932=ORIENTED_EDGE('',*,*,#647,.F.);
#933=ORIENTED_EDGE('',*,*,#677,.F.);
#934=ORIENTED_EDGE('',*,*,#678,.F.);
#935=ORIENTED_EDGE('',*,*,#679,.T.);
#936=ORIENTED_EDGE('',*,*,#646,.F.);
#937=ORIENTED_EDGE('',*,*,#679,.F.);
#938=ORIENTED_EDGE('',*,*,#680,.T.);
#939=ORIENTED_EDGE('',*,*,#681,.T.);
#940=ORIENTED_EDGE('',*,*,#632,.T.);
#941=ORIENTED_EDGE('',*,*,#635,.T.);
#942=ORIENTED_EDGE('',*,*,#659,.F.);
#943=ORIENTED_EDGE('',*,*,#682,.T.);
#944=ORIENTED_EDGE('',*,*,#660,.T.);
#945=ORIENTED_EDGE('',*,*,#630,.T.);
#946=ORIENTED_EDGE('',*,*,#683,.F.);
#947=ORIENTED_EDGE('',*,*,#604,.F.);
#948=ORIENTED_EDGE('',*,*,#671,.T.);
#949=ORIENTED_EDGE('',*,*,#684,.T.);
#950=ORIENTED_EDGE('',*,*,#683,.T.);
#951=ORIENTED_EDGE('',*,*,#629,.T.);
#952=ORIENTED_EDGE('',*,*,#633,.T.);
#953=ORIENTED_EDGE('',*,*,#681,.F.);
#954=ORIENTED_EDGE('',*,*,#685,.T.);
#955=ORIENTED_EDGE('',*,*,#663,.F.);
#956=ORIENTED_EDGE('',*,*,#658,.F.);
#957=ORIENTED_EDGE('',*,*,#664,.F.);
#958=ORIENTED_EDGE('',*,*,#685,.F.);
#959=ORIENTED_EDGE('',*,*,#680,.F.);
#960=ORIENTED_EDGE('',*,*,#672,.T.);
#961=ORIENTED_EDGE('',*,*,#676,.T.);
#962=ORIENTED_EDGE('',*,*,#684,.F.);
#963=ORIENTED_EDGE('',*,*,#670,.F.);
#964=ORIENTED_EDGE('',*,*,#661,.F.);
#965=ORIENTED_EDGE('',*,*,#682,.F.);
#966=ORIENTED_EDGE('',*,*,#674,.T.);
#967=ORIENTED_EDGE('',*,*,#678,.T.);
#968=ORIENTED_EDGE('',*,*,#598,.F.);
#969=ORIENTED_EDGE('',*,*,#551,.F.);
#970=ORIENTED_EDGE('',*,*,#578,.F.);
#971=ORIENTED_EDGE('',*,*,#588,.F.);
#972=ORIENTED_EDGE('',*,*,#586,.F.);
#973=ORIENTED_EDGE('',*,*,#567,.F.);
#974=ORIENTED_EDGE('',*,*,#597,.F.);
#975=ORIENTED_EDGE('',*,*,#564,.F.);
#976=ORIENTED_EDGE('',*,*,#644,.T.);
#977=ORIENTED_EDGE('',*,*,#568,.F.);
#978=SPHERICAL_SURFACE('',#1065,2.);
#979=SPHERICAL_SURFACE('',#1070,2.);
#980=SPHERICAL_SURFACE('',#1077,2.);
#981=SPHERICAL_SURFACE('',#1082,2.);
#982=SPHERICAL_SURFACE('',#1089,2.);
#983=SPHERICAL_SURFACE('',#1095,2.);
#984=SPHERICAL_SURFACE('',#1101,2.);
#985=ADVANCED_FACE('',(#262),#978,.T.);
#986=ADVANCED_FACE('',(#263),#238,.T.);
#987=ADVANCED_FACE('',(#264),#979,.T.);
#988=ADVANCED_FACE('',(#265),#239,.T.);
#989=ADVANCED_FACE('',(#266),#240,.T.);
#990=ADVANCED_FACE('',(#267),#980,.T.);
#991=ADVANCED_FACE('',(#268),#241,.T.);
#992=ADVANCED_FACE('',(#269),#981,.T.);
#993=ADVANCED_FACE('',(#270),#242,.T.);
#994=ADVANCED_FACE('',(#271),#243,.T.);
#995=ADVANCED_FACE('',(#272),#982,.T.);
#996=ADVANCED_FACE('',(#273),#244,.T.);
#997=ADVANCED_FACE('',(#274),#983,.T.);
#998=ADVANCED_FACE('',(#275),#245,.T.);
#999=ADVANCED_FACE('',(#276),#246,.T.);
#1000=ADVANCED_FACE('',(#277),#984,.T.);
#1001=ADVANCED_FACE('',(#278),#247,.T.);
#1002=ADVANCED_FACE('',(#279),#248,.T.);
#1003=ADVANCED_FACE('',(#280),#249,.T.);
#1004=ADVANCED_FACE('',(#281),#250,.T.);
#1005=ADVANCED_FACE('',(#282),#251,.T.);
#1006=ADVANCED_FACE('',(#283),#58,.F.);
#1007=ADVANCED_FACE('',(#284),#59,.F.);
#1008=ADVANCED_FACE('',(#285),#31,.T.);
#1009=ADVANCED_FACE('',(#286),#32,.F.);
#1010=ADVANCED_FACE('',(#287),#33,.T.);
#1011=ADVANCED_FACE('',(#288),#34,.F.);
#1012=ADVANCED_FACE('',(#289),#35,.T.);
#1013=ADVANCED_FACE('',(#290),#252,.F.);
#1014=ADVANCED_FACE('',(#291),#253,.F.);
#1015=ADVANCED_FACE('',(#292),#254,.F.);
#1016=ADVANCED_FACE('',(#293),#255,.F.);
#1017=ADVANCED_FACE('',(#294,#15,#16,#17),#36,.T.);
#1018=ADVANCED_FACE('',(#295),#256,.F.);
#1019=ADVANCED_FACE('',(#296),#37,.F.);
#1020=ADVANCED_FACE('',(#297),#38,.F.);
#1021=ADVANCED_FACE('',(#298),#39,.F.);
#1022=ADVANCED_FACE('',(#299),#40,.F.);
#1023=ADVANCED_FACE('',(#300),#257,.T.);
#1024=ADVANCED_FACE('',(#301,#18),#41,.T.);
#1025=ADVANCED_FACE('',(#302,#19,#20,#21,#22,#23),#42,.T.);
#1026=ADVANCED_FACE('',(#303,#24,#25,#26),#43,.F.);
#1027=ADVANCED_FACE('',(#304),#44,.F.);
#1028=ADVANCED_FACE('',(#305),#45,.F.);
#1029=ADVANCED_FACE('',(#306),#46,.F.);
#1030=ADVANCED_FACE('',(#307),#47,.F.);
#1031=ADVANCED_FACE('',(#308),#48,.F.);
#1032=ADVANCED_FACE('',(#309),#49,.F.);
#1033=ADVANCED_FACE('',(#310),#50,.F.);
#1034=ADVANCED_FACE('',(#311),#258,.F.);
#1035=ADVANCED_FACE('',(#312),#259,.F.);
#1036=ADVANCED_FACE('',(#313),#260,.F.);
#1037=ADVANCED_FACE('',(#314),#261,.F.);
#1038=ADVANCED_FACE('',(#315),#51,.F.);
#1039=ADVANCED_FACE('',(#316),#52,.F.);
#1040=ADVANCED_FACE('',(#317),#53,.F.);
#1041=ADVANCED_FACE('',(#318,#27,#28),#54,.F.);
#1042=ADVANCED_FACE('',(#319,#29,#30),#55,.F.);
#1043=ADVANCED_FACE('',(#320),#56,.T.);
#1044=ADVANCED_FACE('',(#321),#57,.F.);
#1045=CLOSED_SHELL('',(#985,#986,#987,#988,#989,#990,#991,#992,#993,#994,
#995,#996,#997,#998,#999,#1000,#1001,#1002,#1003,#1004,#1005,#1006,#1007,
#1008,#1009,#1010,#1011,#1012,#1013,#1014,#1015,#1016,#1017,#1018,#1019,
#1020,#1021,#1022,#1023,#1024,#1025,#1026,#1027,#1028,#1029,#1030,#1031,
#1032,#1033,#1034,#1035,#1036,#1037,#1038,#1039,#1040,#1041,#1042,#1043,
#1044));
#1046=DERIVED_UNIT_ELEMENT(#1048,1.);
#1047=DERIVED_UNIT_ELEMENT(#1913,3.);
#1048=(
MASS_UNIT()
NAMED_UNIT(*)
SI_UNIT($,.GRAM.)
);
#1049=DERIVED_UNIT((#1046,#1047));
#1050=MEASURE_REPRESENTATION_ITEM('density measure',
POSITIVE_RATIO_MEASURE(1.06),#1049);
#1051=PROPERTY_DEFINITION_REPRESENTATION(#1056,#1053);
#1052=PROPERTY_DEFINITION_REPRESENTATION(#1057,#1054);
#1053=REPRESENTATION('material name',(#1055),#1910);
#1054=REPRESENTATION('density',(#1050),#1910);
#1055=DESCRIPTIVE_REPRESENTATION_ITEM('ABS Plastic','ABS Plastic');
#1056=PROPERTY_DEFINITION('material property','material name',#1920);
#1057=PROPERTY_DEFINITION('material property','density of part',#1920);
#1058=DATE_TIME_ROLE('creation_date');
#1059=APPLIED_DATE_AND_TIME_ASSIGNMENT(#1060,#1058,(#1920));
#1060=DATE_AND_TIME(#1061,#1062);
#1061=CALENDAR_DATE(2025,3,11);
#1062=LOCAL_TIME(0,0,0.,#1063);
#1063=COORDINATED_UNIVERSAL_TIME_OFFSET(0,0,.BEHIND.);
#1064=AXIS2_PLACEMENT_3D('placement',#1489,#1177,#1178);
#1065=AXIS2_PLACEMENT_3D('',#1490,#1179,#1180);
#1066=AXIS2_PLACEMENT_3D('',#1493,#1181,#1182);
#1067=AXIS2_PLACEMENT_3D('',#1495,#1183,#1184);
#1068=AXIS2_PLACEMENT_3D('',#1496,#1185,#1186);
#1069=AXIS2_PLACEMENT_3D('',#1497,#1187,#1188);
#1070=AXIS2_PLACEMENT_3D('',#1508,#1191,#1192);
#1071=AXIS2_PLACEMENT_3D('',#1511,#1193,#1194);
#1072=AXIS2_PLACEMENT_3D('',#1513,#1195,#1196);
#1073=AXIS2_PLACEMENT_3D('',#1514,#1197,#1198);
#1074=AXIS2_PLACEMENT_3D('',#1515,#1199,#1200);
#1075=AXIS2_PLACEMENT_3D('',#1518,#1201,#1202);
#1076=AXIS2_PLACEMENT_3D('',#1521,#1205,#1206);
#1077=AXIS2_PLACEMENT_3D('',#1536,#1209,#1210);
#1078=AXIS2_PLACEMENT_3D('',#1539,#1211,#1212);
#1079=AXIS2_PLACEMENT_3D('',#1541,#1213,#1214);
#1080=AXIS2_PLACEMENT_3D('',#1542,#1215,#1216);
#1081=AXIS2_PLACEMENT_3D('',#1543,#1217,#1218);
#1082=AXIS2_PLACEMENT_3D('',#1546,#1221,#1222);
#1083=AXIS2_PLACEMENT_3D('',#1549,#1223,#1224);
#1084=AXIS2_PLACEMENT_3D('',#1551,#1225,#1226);
#1085=AXIS2_PLACEMENT_3D('',#1552,#1227,#1228);
#1086=AXIS2_PLACEMENT_3D('',#1553,#1229,#1230);
#1087=AXIS2_PLACEMENT_3D('',#1568,#1233,#1234);
#1088=AXIS2_PLACEMENT_3D('',#1571,#1235,#1236);
#1089=AXIS2_PLACEMENT_3D('',#1574,#1239,#1240);
#1090=AXIS2_PLACEMENT_3D('',#1577,#1241,#1242);
#1091=AXIS2_PLACEMENT_3D('',#1579,#1243,#1244);
#1092=AXIS2_PLACEMENT_3D('',#1580,#1245,#1246);
#1093=AXIS2_PLACEMENT_3D('',#1581,#1247,#1248);
#1094=AXIS2_PLACEMENT_3D('',#1584,#1249,#1250);
#1095=AXIS2_PLACEMENT_3D('',#1587,#1253,#1254);
#1096=AXIS2_PLACEMENT_3D('',#1590,#1255,#1256);
#1097=AXIS2_PLACEMENT_3D('',#1592,#1257,#1258);
#1098=AXIS2_PLACEMENT_3D('',#1593,#1259,#1260);
#1099=AXIS2_PLACEMENT_3D('',#1594,#1261,#1262);
#1100=AXIS2_PLACEMENT_3D('',#1597,#1265,#1266);
#1101=AXIS2_PLACEMENT_3D('',#1600,#1269,#1270);
#1102=AXIS2_PLACEMENT_3D('',#1603,#1271,#1272);
#1103=AXIS2_PLACEMENT_3D('',#1605,#1273,#1274);
#1104=AXIS2_PLACEMENT_3D('',#1606,#1275,#1276);
#1105=AXIS2_PLACEMENT_3D('',#1607,#1277,#1278);
#1106=AXIS2_PLACEMENT_3D('',#1610,#1281,#1282);
#1107=AXIS2_PLACEMENT_3D('',#1613,#1285,#1286);
#1108=AXIS2_PLACEMENT_3D('',#1616,#1289,#1290);
#1109=AXIS2_PLACEMENT_3D('',#1619,#1293,#1294);
#1110=AXIS2_PLACEMENT_3D('',#1675,#1297,#1298);
#1111=AXIS2_PLACEMENT_3D('',#1732,#1299,#1300);
#1112=AXIS2_PLACEMENT_3D('',#1733,#1301,#1302);
#1113=AXIS2_PLACEMENT_3D('',#1749,#1311,#1312);
#1114=AXIS2_PLACEMENT_3D('',#1752,#1314,#1315);
#1115=AXIS2_PLACEMENT_3D('',#1753,#1316,#1317);
#1116=AXIS2_PLACEMENT_3D('',#1755,#1319,#1320);
#1117=AXIS2_PLACEMENT_3D('',#1756,#1321,#1322);
#1118=AXIS2_PLACEMENT_3D('',#1757,#1323,#1324);
#1119=AXIS2_PLACEMENT_3D('',#1758,#1325,#1326);
#1120=AXIS2_PLACEMENT_3D('',#1760,#1327,#1328);
#1121=AXIS2_PLACEMENT_3D('',#1763,#1330,#1331);
#1122=AXIS2_PLACEMENT_3D('',#1764,#1332,#1333);
#1123=AXIS2_PLACEMENT_3D('',#1766,#1334,#1335);
#1124=AXIS2_PLACEMENT_3D('',#1769,#1337,#1338);
#1125=AXIS2_PLACEMENT_3D('',#1770,#1339,#1340);
#1126=AXIS2_PLACEMENT_3D('',#1772,#1341,#1342);
#1127=AXIS2_PLACEMENT_3D('',#1775,#1344,#1345);
#1128=AXIS2_PLACEMENT_3D('',#1776,#1346,#1347);
#1129=AXIS2_PLACEMENT_3D('',#1778,#1348,#1349);
#1130=AXIS2_PLACEMENT_3D('',#1781,#1351,#1352);
#1131=AXIS2_PLACEMENT_3D('',#1782,#1353,#1354);
#1132=AXIS2_PLACEMENT_3D('',#1783,#1355,#1356);
#1133=AXIS2_PLACEMENT_3D('',#1785,#1357,#1358);
#1134=AXIS2_PLACEMENT_3D('',#1789,#1360,#1361);
#1135=AXIS2_PLACEMENT_3D('',#1791,#1362,#1363);
#1136=AXIS2_PLACEMENT_3D('',#1792,#1364,#1365);
#1137=AXIS2_PLACEMENT_3D('',#1793,#1366,#1367);
#1138=AXIS2_PLACEMENT_3D('',#1799,#1371,#1372);
#1139=AXIS2_PLACEMENT_3D('',#1803,#1375,#1376);
#1140=AXIS2_PLACEMENT_3D('',#1807,#1379,#1380);
#1141=AXIS2_PLACEMENT_3D('',#1811,#1382,#1383);
#1142=AXIS2_PLACEMENT_3D('',#1812,#1384,#1385);
#1143=AXIS2_PLACEMENT_3D('',#1814,#1386,#1387);
#1144=AXIS2_PLACEMENT_3D('',#1817,#1389,#1390);
#1145=AXIS2_PLACEMENT_3D('',#1820,#1393,#1394);
#1146=AXIS2_PLACEMENT_3D('',#1821,#1395,#1396);
#1147=AXIS2_PLACEMENT_3D('',#1822,#1397,#1398);
#1148=AXIS2_PLACEMENT_3D('',#1823,#1399,#1400);
#1149=AXIS2_PLACEMENT_3D('',#1824,#1401,#1402);
#1150=AXIS2_PLACEMENT_3D('',#1826,#1403,#1404);
#1151=AXIS2_PLACEMENT_3D('',#1828,#1405,#1406);
#1152=AXIS2_PLACEMENT_3D('',#1830,#1407,#1408);
#1153=AXIS2_PLACEMENT_3D('',#1832,#1409,#1410);
#1154=AXIS2_PLACEMENT_3D('',#1833,#1411,#1412);
#1155=AXIS2_PLACEMENT_3D('',#1839,#1416,#1417);
#1156=AXIS2_PLACEMENT_3D('',#1840,#1418,#1419);
#1157=AXIS2_PLACEMENT_3D('',#1849,#1424,#1425);
#1158=AXIS2_PLACEMENT_3D('',#1860,#1432,#1433);
#1159=AXIS2_PLACEMENT_3D('',#1867,#1438,#1439);
#1160=AXIS2_PLACEMENT_3D('',#1871,#1442,#1443);
#1161=AXIS2_PLACEMENT_3D('',#1876,#1447,#1448);
#1162=AXIS2_PLACEMENT_3D('',#1877,#1449,#1450);
#1163=AXIS2_PLACEMENT_3D('',#1879,#1451,#1452);
#1164=AXIS2_PLACEMENT_3D('',#1881,#1454,#1455);
#1165=AXIS2_PLACEMENT_3D('',#1883,#1456,#1457);
#1166=AXIS2_PLACEMENT_3D('',#1885,#1459,#1460);
#1167=AXIS2_PLACEMENT_3D('',#1887,#1461,#1462);
#1168=AXIS2_PLACEMENT_3D('',#1889,#1464,#1465);
#1169=AXIS2_PLACEMENT_3D('',#1891,#1466,#1467);
#1170=AXIS2_PLACEMENT_3D('',#1893,#1469,#1470);
#1171=AXIS2_PLACEMENT_3D('',#1897,#1473,#1474);
#1172=AXIS2_PLACEMENT_3D('',#1901,#1477,#1478);
#1173=AXIS2_PLACEMENT_3D('',#1904,#1481,#1482);
#1174=AXIS2_PLACEMENT_3D('',#1905,#1483,#1484);
#1175=AXIS2_PLACEMENT_3D('',#1906,#1485,#1486);
#1176=AXIS2_PLACEMENT_3D('',#1907,#1487,#1488);
#1177=DIRECTION('axis',(0.,0.,1.));
#1178=DIRECTION('refdir',(1.,0.,0.));
#1179=DIRECTION('center_axis',(0.408248290463863,0.408248290463863,-0.816496580927726));
#1180=DIRECTION('ref_axis',(-0.577350269189626,-0.577350269189626,-0.577350269189626));
#1181=DIRECTION('center_axis',(0.,-1.,0.));
#1182=DIRECTION('ref_axis',(0.,0.,-1.));
#1183=DIRECTION('center_axis',(-1.,0.,1.11022302462516E-15));
#1184=DIRECTION('ref_axis',(0.,-1.,0.));
#1185=DIRECTION('center_axis',(0.,0.,-1.));
#1186=DIRECTION('ref_axis',(-1.,0.,0.));
#1187=DIRECTION('center_axis',(1.,-3.33066907387547E-16,0.));
#1188=DIRECTION('ref_axis',(0.,-0.707106781186548,-0.707106781186547));
#1189=DIRECTION('',(-1.,3.33066907387547E-16,0.));
#1190=DIRECTION('',(1.,-3.33066907387547E-16,0.));
#1191=DIRECTION('center_axis',(0.408248290463865,-0.408248290463861,-0.816496580927726));
#1192=DIRECTION('ref_axis',(-0.577350269189628,0.577350269189623,-0.577350269189627));
#1193=DIRECTION('center_axis',(0.,0.,-1.));
#1194=DIRECTION('ref_axis',(0.,1.,0.));
#1195=DIRECTION('center_axis',(-1.,0.,0.));
#1196=DIRECTION('ref_axis',(0.,0.,-1.));
#1197=DIRECTION('center_axis',(0.,1.,4.44089209850063E-15));
#1198=DIRECTION('ref_axis',(-1.,0.,0.));
#1199=DIRECTION('center_axis',(-1.,1.11022302462516E-16,0.));
#1200=DIRECTION('ref_axis',(0.,0.707106781186546,-0.707106781186549));
#1201=DIRECTION('center_axis',(-1.,0.,-1.11022302462516E-15));
#1202=DIRECTION('ref_axis',(0.,1.,0.));
#1203=DIRECTION('',(-1.,1.11022302462516E-16,0.));
#1204=DIRECTION('',(1.,-1.11022302462516E-16,0.));
#1205=DIRECTION('center_axis',(-3.70074341541719E-17,-1.,0.));
#1206=DIRECTION('ref_axis',(-0.707106781186548,0.,-0.707106781186547));
#1207=DIRECTION('',(3.70074341541719E-17,1.,0.));
#1208=DIRECTION('',(-3.70074341541719E-17,-1.,0.));
#1209=DIRECTION('center_axis',(-0.408248290463863,-0.408248290463863,-0.816496580927726));
#1210=DIRECTION('ref_axis',(-0.577350269189626,-0.577350269189626,0.577350269189626));
#1211=DIRECTION('center_axis',(0.,-1.,0.));
#1212=DIRECTION('ref_axis',(-1.,0.,0.));
#1213=DIRECTION('center_axis',(0.,0.,1.));
#1214=DIRECTION('ref_axis',(0.,-1.,0.));
#1215=DIRECTION('center_axis',(-1.,0.,0.));
#1216=DIRECTION('ref_axis',(0.,0.,1.));
#1217=DIRECTION('center_axis',(0.,0.,1.));
#1218=DIRECTION('ref_axis',(-0.707106781186548,-0.707106781186548,0.));
#1219=DIRECTION('',(0.,0.,-1.));
#1220=DIRECTION('',(0.,0.,1.));
#1221=DIRECTION('center_axis',(0.408248290463861,-0.816496580927728,-0.408248290463862));
#1222=DIRECTION('ref_axis',(0.577350269189626,0.577350269189624,-0.577350269189627));
#1223=DIRECTION('center_axis',(0.,0.,-1.));
#1224=DIRECTION('ref_axis',(1.,0.,0.));
#1225=DIRECTION('center_axis',(4.44089209850063E-15,1.,0.));
#1226=DIRECTION('ref_axis',(0.,0.,-1.));
#1227=DIRECTION('center_axis',(1.,0.,1.11022302462516E-15));
#1228=DIRECTION('ref_axis',(0.,1.,0.));
#1229=DIRECTION('center_axis',(2.96059473233375E-16,1.,0.));
#1230=DIRECTION('ref_axis',(0.707106781186547,0.,-0.707106781186548));
#1231=DIRECTION('',(2.96059473233375E-16,1.,0.));
#1232=DIRECTION('',(-2.96059473233375E-16,-1.,0.));
#1233=DIRECTION('center_axis',(-1.,1.11022302462516E-16,0.));
#1234=DIRECTION('ref_axis',(0.,0.707106781186546,-0.707106781186549));
#1235=DIRECTION('center_axis',(1.,0.,0.));
#1236=DIRECTION('ref_axis',(0.,0.,-1.));
#1237=DIRECTION('',(1.,-1.11022302462516E-16,0.));
#1238=DIRECTION('',(-1.,1.11022302462516E-16,0.));
#1239=DIRECTION('center_axis',(-0.816496580927726,-0.408248290463863,0.408248290463863));
#1240=DIRECTION('ref_axis',(0.577350269189624,-0.577350269189628,0.577350269189626));
#1241=DIRECTION('center_axis',(1.,0.,0.));
#1242=DIRECTION('ref_axis',(0.,-1.,0.));
#1243=DIRECTION('center_axis',(0.,0.,1.));
#1244=DIRECTION('ref_axis',(1.,0.,0.));
#1245=DIRECTION('center_axis',(2.22044604925031E-15,-1.,0.));
#1246=DIRECTION('ref_axis',(0.,0.,1.));
#1247=DIRECTION('center_axis',(0.,0.,1.));
#1248=DIRECTION('ref_axis',(0.707106781186545,-0.70710678118655,0.));
#1249=DIRECTION('center_axis',(0.,0.,1.));
#1250=DIRECTION('ref_axis',(0.707106781186545,-0.70710678118655,0.));
#1251=DIRECTION('',(0.,0.,1.));
#1252=DIRECTION('',(0.,0.,-1.));
#1253=DIRECTION('center_axis',(-0.816496580927727,-0.408248290463864,-0.40824829046386));
#1254=DIRECTION('ref_axis',(-0.577350269189624,0.577350269189628,0.577350269189626));
#1255=DIRECTION('center_axis',(-1.,0.,0.));
#1256=DIRECTION('ref_axis',(0.,1.,0.));
#1257=DIRECTION('center_axis',(0.,0.,1.));
#1258=DIRECTION('ref_axis',(-1.,0.,0.));
#1259=DIRECTION('center_axis',(-2.22044604925031E-15,1.,0.));
#1260=DIRECTION('ref_axis',(0.,0.,1.));
#1261=DIRECTION('center_axis',(0.,0.,1.));
#1262=DIRECTION('ref_axis',(-0.707106781186548,0.707106781186548,0.));
#1263=DIRECTION('',(0.,0.,-1.));
#1264=DIRECTION('',(0.,0.,1.));
#1265=DIRECTION('center_axis',(-3.70074341541719E-17,-1.,0.));
#1266=DIRECTION('ref_axis',(-0.707106781186549,0.,0.707106781186546));
#1267=DIRECTION('',(3.70074341541719E-17,1.,0.));
#1268=DIRECTION('',(-3.70074341541719E-17,-1.,0.));
#1269=DIRECTION('center_axis',(-0.816496580927726,0.408248290463864,0.408248290463862));
#1270=DIRECTION('ref_axis',(0.577350269189625,0.577350269189627,0.577350269189625));
#1271=DIRECTION('center_axis',(0.,1.,-4.44089209850062E-15));
#1272=DIRECTION('ref_axis',(1.,0.,0.));
#1273=DIRECTION('center_axis',(0.,0.,1.));
#1274=DIRECTION('ref_axis',(0.,1.,0.));
#1275=DIRECTION('center_axis',(1.,0.,0.));
#1276=DIRECTION('ref_axis',(0.,0.,1.));
#1277=DIRECTION('center_axis',(0.,0.,1.));
#1278=DIRECTION('ref_axis',(0.707106781186548,0.707106781186548,0.));
#1279=DIRECTION('',(0.,0.,-1.));
#1280=DIRECTION('',(0.,0.,1.));
#1281=DIRECTION('center_axis',(-1.,1.11022302462516E-16,0.));
#1282=DIRECTION('ref_axis',(0.,0.707106781186548,0.707106781186548));
#1283=DIRECTION('',(1.,-1.11022302462516E-16,0.));
#1284=DIRECTION('',(-1.,1.11022302462516E-16,0.));
#1285=DIRECTION('center_axis',(2.96059473233375E-16,1.,0.));
#1286=DIRECTION('ref_axis',(0.707106781186548,0.,0.707106781186547));
#1287=DIRECTION('',(-2.96059473233375E-16,-1.,0.));
#1288=DIRECTION('',(2.96059473233375E-16,1.,0.));
#1289=DIRECTION('center_axis',(1.,-3.33066907387547E-16,0.));
#1290=DIRECTION('ref_axis',(0.,-0.707106781186549,0.707106781186546));
#1291=DIRECTION('',(-1.,3.33066907387547E-16,0.));
#1292=DIRECTION('',(1.,-3.33066907387547E-16,0.));
#1293=DIRECTION('center_axis',(-3.70074341541719E-17,-1.,0.));
#1294=DIRECTION('ref_axis',(-0.707106781186548,0.,-0.707106781186547));
#1295=DIRECTION('',(-3.70074341541719E-17,-1.,0.));
#1296=DIRECTION('',(3.70074341541719E-17,1.,0.));
#1297=DIRECTION('center_axis',(0.,0.,1.));
#1298=DIRECTION('ref_axis',(-1.,0.,0.));
#1299=DIRECTION('center_axis',(0.,0.,1.));
#1300=DIRECTION('ref_axis',(-1.,0.,0.));
#1301=DIRECTION('center_axis',(1.,-2.96059473233375E-16,0.));
#1302=DIRECTION('ref_axis',(2.96059473233375E-16,1.,0.));
#1303=DIRECTION('',(2.96059473233375E-16,1.,0.));
#1304=DIRECTION('',(0.,0.,1.));
#1305=DIRECTION('',(-2.96059473233375E-16,-1.,-9.25185853854297E-17));
#1306=DIRECTION('',(0.,0.,1.));
#1307=DIRECTION('',(2.96059473233375E-16,1.,0.));
#1308=DIRECTION('',(0.,0.,-1.));
#1309=DIRECTION('',(-2.96059473233375E-16,-1.,-9.25185853854297E-17));
#1310=DIRECTION('',(0.,0.,-1.));
#1311=DIRECTION('center_axis',(0.,0.,1.));
#1312=DIRECTION('ref_axis',(1.,0.,0.));
#1313=DIRECTION('',(1.,-3.33066907387547E-16,0.));
#1314=DIRECTION('center_axis',(0.,0.,1.));
#1315=DIRECTION('ref_axis',(-1.,0.,0.));
#1316=DIRECTION('center_axis',(-3.33066907387547E-16,-1.,0.));
#1317=DIRECTION('ref_axis',(1.,-3.33066907387547E-16,0.));
#1318=DIRECTION('',(0.,0.,-1.));
#1319=DIRECTION('center_axis',(0.,0.,1.));
#1320=DIRECTION('ref_axis',(1.,0.,0.));
#1321=DIRECTION('center_axis',(0.,0.,1.));
#1322=DIRECTION('ref_axis',(-1.,0.,0.));
#1323=DIRECTION('center_axis',(0.,0.,1.));
#1324=DIRECTION('ref_axis',(1.,0.,0.));
#1325=DIRECTION('center_axis',(0.,0.,1.));
#1326=DIRECTION('ref_axis',(-1.,0.,0.));
#1327=DIRECTION('center_axis',(0.,0.,1.));
#1328=DIRECTION('ref_axis',(-1.,0.,0.));
#1329=DIRECTION('',(0.,0.,1.));
#1330=DIRECTION('center_axis',(2.22089218812222E-32,9.25185853854297E-17,
-1.));
#1331=DIRECTION('ref_axis',(-1.,0.,0.));
#1332=DIRECTION('center_axis',(0.,0.,1.));
#1333=DIRECTION('ref_axis',(-1.,0.,0.));
#1334=DIRECTION('center_axis',(0.,0.,1.));
#1335=DIRECTION('ref_axis',(-1.,0.,0.));
#1336=DIRECTION('',(0.,0.,1.));
#1337=DIRECTION('center_axis',(2.22089218812222E-32,9.25185853854297E-17,
-1.));
#1338=DIRECTION('ref_axis',(-1.,0.,0.));
#1339=DIRECTION('center_axis',(0.,0.,1.));
#1340=DIRECTION('ref_axis',(-1.,0.,0.));
#1341=DIRECTION('center_axis',(0.,0.,1.));
#1342=DIRECTION('ref_axis',(-1.,0.,0.));
#1343=DIRECTION('',(0.,0.,1.));
#1344=DIRECTION('center_axis',(2.22089218812222E-32,9.25185853854297E-17,
-1.));
#1345=DIRECTION('ref_axis',(-1.,0.,0.));
#1346=DIRECTION('center_axis',(0.,0.,1.));
#1347=DIRECTION('ref_axis',(-1.,0.,0.));
#1348=DIRECTION('center_axis',(0.,0.,1.));
#1349=DIRECTION('ref_axis',(-1.,0.,0.));
#1350=DIRECTION('',(0.,0.,1.));
#1351=DIRECTION('center_axis',(0.,0.,1.));
#1352=DIRECTION('ref_axis',(-1.,0.,0.));
#1353=DIRECTION('center_axis',(0.,0.,-1.));
#1354=DIRECTION('ref_axis',(-1.,0.,0.));
#1355=DIRECTION('center_axis',(1.,0.,0.));
#1356=DIRECTION('ref_axis',(0.,0.,1.));
#1357=DIRECTION('center_axis',(1.,-3.70074341541719E-17,0.));
#1358=DIRECTION('ref_axis',(0.,0.,1.));
#1359=DIRECTION('',(1.,0.,0.));
#1360=DIRECTION('center_axis',(-1.,2.40048221540574E-16,0.));
#1361=DIRECTION('ref_axis',(0.,0.,1.));
#1362=DIRECTION('center_axis',(-1.,2.40048221540574E-16,0.));
#1363=DIRECTION('ref_axis',(0.,0.,1.));
#1364=DIRECTION('center_axis',(-1.,2.40048221540574E-16,0.));
#1365=DIRECTION('ref_axis',(0.,0.,1.));
#1366=DIRECTION('center_axis',(-1.,2.40048221540574E-16,0.));
#1367=DIRECTION('ref_axis',(0.,0.,1.));
#1368=DIRECTION('',(2.96059473233375E-16,1.,0.));
#1369=DIRECTION('',(-4.93038065763132E-32,-1.66533453693773E-16,1.));
#1370=DIRECTION('',(-2.96059473233375E-16,-1.,0.));
#1371=DIRECTION('center_axis',(-1.,2.40048221540574E-16,0.));
#1372=DIRECTION('ref_axis',(0.,0.,1.));
#1373=DIRECTION('',(-1.31476817536835E-31,-4.44089209850063E-16,-1.));
#1374=DIRECTION('',(2.96059473233375E-16,1.,0.));
#1375=DIRECTION('center_axis',(-1.,2.40048221540574E-16,0.));
#1376=DIRECTION('ref_axis',(0.,0.,1.));
#1377=DIRECTION('',(-2.96059473233375E-16,-1.,0.));
#1378=DIRECTION('',(-1.31476817536835E-31,-4.44089209850063E-16,-1.));
#1379=DIRECTION('center_axis',(0.,0.,-1.));
#1380=DIRECTION('ref_axis',(-1.,0.,0.));
#1381=DIRECTION('',(-3.70074341541719E-17,-1.,0.));
#1382=DIRECTION('center_axis',(0.,0.,1.));
#1383=DIRECTION('ref_axis',(-1.,0.,0.));
#1384=DIRECTION('center_axis',(0.,0.,-1.));
#1385=DIRECTION('ref_axis',(-1.,0.,0.));
#1386=DIRECTION('center_axis',(0.,0.,-1.));
#1387=DIRECTION('ref_axis',(-1.,0.,0.));
#1388=DIRECTION('',(0.,0.,1.));
#1389=DIRECTION('center_axis',(0.,0.,1.));
#1390=DIRECTION('ref_axis',(-1.,0.,0.));
#1391=DIRECTION('',(0.,0.,-1.));
#1392=DIRECTION('',(0.,0.,1.));
#1393=DIRECTION('center_axis',(0.,0.,1.));
#1394=DIRECTION('ref_axis',(-1.,0.,0.));
#1395=DIRECTION('center_axis',(0.,0.,1.));
#1396=DIRECTION('ref_axis',(-1.,0.,0.));
#1397=DIRECTION('center_axis',(0.,0.,1.));
#1398=DIRECTION('ref_axis',(-1.,0.,0.));
#1399=DIRECTION('center_axis',(0.,0.,-1.));
#1400=DIRECTION('ref_axis',(-1.,0.,0.));
#1401=DIRECTION('center_axis',(-1.,3.70074341541719E-17,0.));
#1402=DIRECTION('ref_axis',(-3.70074341541719E-17,-1.,0.));
#1403=DIRECTION('center_axis',(1.,-3.70074341541719E-17,0.));
#1404=DIRECTION('ref_axis',(0.,0.,-1.));
#1405=DIRECTION('center_axis',(1.,-3.70074341541719E-17,0.));
#1406=DIRECTION('ref_axis',(0.,0.,-1.));
#1407=DIRECTION('center_axis',(1.,-3.70074341541719E-17,0.));
#1408=DIRECTION('ref_axis',(0.,0.,-1.));
#1409=DIRECTION('center_axis',(1.,-3.70074341541719E-17,0.));
#1410=DIRECTION('ref_axis',(0.,0.,-1.));
#1411=DIRECTION('center_axis',(2.22089218812222E-32,9.25185853854297E-17,
-1.));
#1412=DIRECTION('ref_axis',(-2.96059473233375E-16,-1.,-9.25185853854297E-17));
#1413=DIRECTION('',(-1.,2.40048221540574E-16,0.));
#1414=DIRECTION('',(-2.96059473233375E-16,-1.,-9.25185853854297E-17));
#1415=DIRECTION('',(-1.,2.40048221540574E-16,0.));
#1416=DIRECTION('center_axis',(0.,0.,1.));
#1417=DIRECTION('ref_axis',(1.,0.,0.));
#1418=DIRECTION('center_axis',(-1.,2.22044604925031E-16,0.));
#1419=DIRECTION('ref_axis',(0.,0.,1.));
#1420=DIRECTION('',(2.22044604925031E-16,1.,0.));
#1421=DIRECTION('',(0.,0.,1.));
#1422=DIRECTION('',(-2.22044604925031E-16,-1.,-1.64477485129653E-16));
#1423=DIRECTION('',(0.,0.,-1.));
#1424=DIRECTION('center_axis',(0.,0.,-1.));
#1425=DIRECTION('ref_axis',(-2.96059473233375E-16,-1.,0.));
#1426=DIRECTION('',(-1.,2.69963045501558E-16,0.));
#1427=DIRECTION('',(-2.96059473233375E-16,-1.,0.));
#1428=DIRECTION('',(-1.,2.40048221540574E-16,0.));
#1429=DIRECTION('',(-1.,2.40048221540574E-16,0.));
#1430=DIRECTION('',(-2.96059473233375E-16,-1.,0.));
#1431=DIRECTION('',(-1.,2.69963045501558E-16,0.));
#1432=DIRECTION('center_axis',(2.40048221540574E-16,1.,0.));
#1433=DIRECTION('ref_axis',(0.,0.,-1.));
#1434=DIRECTION('',(-1.,2.69963045501558E-16,0.));
#1435=DIRECTION('',(0.,0.,-1.));
#1436=DIRECTION('',(-1.,2.40048221540574E-16,0.));
#1437=DIRECTION('',(0.,0.,-1.));
#1438=DIRECTION('center_axis',(-3.94825277888394E-32,-1.64477485129653E-16,
1.));
#1439=DIRECTION('ref_axis',(2.96059473233375E-16,1.,1.64477485129653E-16));
#1440=DIRECTION('',(-1.,2.40048221540574E-16,0.));
#1441=DIRECTION('',(2.96059473233375E-16,1.,1.64477485129653E-16));
#1442=DIRECTION('center_axis',(-2.40048221540574E-16,-1.,-1.30614473485313E-16));
#1443=DIRECTION('ref_axis',(-3.86696522167163E-32,-1.30614473485313E-16,
1.));
#1444=DIRECTION('',(-3.86696522167163E-32,-1.30614473485313E-16,1.));
#1445=DIRECTION('',(0.,0.,1.));
#1446=DIRECTION('',(-1.,2.69963045501558E-16,0.));
#1447=DIRECTION('center_axis',(-1.,2.40048221540574E-16,0.));
#1448=DIRECTION('ref_axis',(0.,0.,1.));
#1449=DIRECTION('center_axis',(-1.,3.70074341541719E-16,0.));
#1450=DIRECTION('ref_axis',(0.,0.,-1.));
#1451=DIRECTION('center_axis',(-1.,2.69963045501558E-16,0.));
#1452=DIRECTION('ref_axis',(0.,0.,-1.));
#1453=DIRECTION('',(-1.,3.70074341541719E-16,0.));
#1454=DIRECTION('center_axis',(-1.,3.70074341541719E-16,0.));
#1455=DIRECTION('ref_axis',(0.,0.,-1.));
#1456=DIRECTION('center_axis',(-1.,2.69963045501558E-16,0.));
#1457=DIRECTION('ref_axis',(0.,0.,-1.));
#1458=DIRECTION('',(-1.,3.70074341541719E-16,0.));
#1459=DIRECTION('center_axis',(-1.,3.70074341541719E-16,0.));
#1460=DIRECTION('ref_axis',(0.,0.,-1.));
#1461=DIRECTION('center_axis',(-1.,2.69963045501558E-16,0.));
#1462=DIRECTION('ref_axis',(0.,0.,-1.));
#1463=DIRECTION('',(-1.,3.70074341541719E-16,0.));
#1464=DIRECTION('center_axis',(-1.,3.70074341541719E-16,0.));
#1465=DIRECTION('ref_axis',(0.,0.,-1.));
#1466=DIRECTION('center_axis',(-1.,2.69963045501558E-16,0.));
#1467=DIRECTION('ref_axis',(0.,0.,-1.));
#1468=DIRECTION('',(-1.,3.70074341541719E-16,0.));
#1469=DIRECTION('center_axis',(2.40048221540574E-16,1.,-4.44089209850063E-16));
#1470=DIRECTION('ref_axis',(-1.31476817536835E-31,-4.44089209850063E-16,
-1.));
#1471=DIRECTION('',(1.31476817536835E-31,4.44089209850063E-16,1.));
#1472=DIRECTION('',(-1.,2.40048221540574E-16,0.));
#1473=DIRECTION('center_axis',(-2.40048221540574E-16,-1.,-1.66533453693773E-16));
#1474=DIRECTION('ref_axis',(-4.93038065763132E-32,-1.66533453693773E-16,
1.));
#1475=DIRECTION('',(4.93038065763132E-32,1.66533453693773E-16,-1.));
#1476=DIRECTION('',(-1.,2.40048221540574E-16,0.));
#1477=DIRECTION('center_axis',(0.,0.,1.));
#1478=DIRECTION('ref_axis',(2.96059473233375E-16,1.,0.));
#1479=DIRECTION('',(2.96059473233375E-16,1.,0.));
#1480=DIRECTION('',(2.96059473233375E-16,1.,0.));
#1481=DIRECTION('center_axis',(-1.,2.69963045501558E-16,0.));
#1482=DIRECTION('ref_axis',(0.,0.,1.));
#1483=DIRECTION('center_axis',(-1.,2.69963045501558E-16,0.));
#1484=DIRECTION('ref_axis',(0.,0.,1.));
#1485=DIRECTION('center_axis',(1.11022302462516E-16,1.,0.));
#1486=DIRECTION('ref_axis',(-1.,1.11022302462516E-16,0.));
#1487=DIRECTION('center_axis',(0.,0.,1.));
#1488=DIRECTION('ref_axis',(1.,0.,0.));
#1489=CARTESIAN_POINT('',(0.,0.,0.));
#1490=CARTESIAN_POINT('Origin',(-18.,-28.,2.));
#1491=CARTESIAN_POINT('',(-18.,-28.,0.));
#1492=CARTESIAN_POINT('',(-20.,-28.,2.));
#1493=CARTESIAN_POINT('Origin',(-18.,-28.,2.));
#1494=CARTESIAN_POINT('',(-18.,-30.,2.));
#1495=CARTESIAN_POINT('Origin',(-18.,-28.,2.));
#1496=CARTESIAN_POINT('Origin',(-18.,-28.,2.));
#1497=CARTESIAN_POINT('Origin',(-10.,-28.,2.));
#1498=CARTESIAN_POINT('',(-9.99200722162641E-15,-30.,2.));
#1499=CARTESIAN_POINT('',(-10.770329614269,-28.,0.));
#1500=CARTESIAN_POINT('Ctrl Pts',(-9.99200722162641E-15,-30.,2.));
#1501=CARTESIAN_POINT('Ctrl Pts',(-1.71453542380074,-30.,1.55730885714247));
#1502=CARTESIAN_POINT('Ctrl Pts',(-3.58795409643098,-29.8440730156959,1.06889316513878));
#1503=CARTESIAN_POINT('Ctrl Pts',(-7.28978066990449,-29.1616460830856,0.29185450965976));
#1504=CARTESIAN_POINT('Ctrl Pts',(-9.11761601426758,-28.6357239367857,-5.72236188979726E-17));
#1505=CARTESIAN_POINT('Ctrl Pts',(-10.770329614269,-28.,-1.38777878078145E-16));
#1506=CARTESIAN_POINT('',(-10.,-30.,2.));
#1507=CARTESIAN_POINT('',(-10.,-28.,0.));
#1508=CARTESIAN_POINT('Origin',(-18.,28.,2.));
#1509=CARTESIAN_POINT('',(-18.,30.,2.));
#1510=CARTESIAN_POINT('',(-20.,28.,2.));
#1511=CARTESIAN_POINT('Origin',(-18.,28.,2.));
#1512=CARTESIAN_POINT('',(-18.,28.,0.));
#1513=CARTESIAN_POINT('Origin',(-18.,28.,2.));
#1514=CARTESIAN_POINT('Origin',(-18.,28.,2.));
#1515=CARTESIAN_POINT('Origin',(10.,28.,2.));
#1516=CARTESIAN_POINT('',(-10.770329614269,30.,2.));
#1517=CARTESIAN_POINT('',(-10.770329614269,28.,0.));
#1518=CARTESIAN_POINT('Origin',(-10.770329614269,28.,2.));
#1519=CARTESIAN_POINT('',(10.,28.,0.));
#1520=CARTESIAN_POINT('',(10.,30.,2.));
#1521=CARTESIAN_POINT('Origin',(-18.,15.,2.));
#1522=CARTESIAN_POINT('',(-18.,24.,0.));
#1523=CARTESIAN_POINT('',(-20.,22.3606797749979,2.));
#1524=CARTESIAN_POINT('Ctrl Pts',(-20.,22.3606797749979,2.));
#1525=CARTESIAN_POINT('Ctrl Pts',(-20.,22.3606797749979,1.74960949638959));
#1526=CARTESIAN_POINT('Ctrl Pts',(-19.9500487787018,22.4056001634262,1.49012055488852));
#1527=CARTESIAN_POINT('Ctrl Pts',(-19.7642174921239,22.5696936607386,1.02521582347638));
#1528=CARTESIAN_POINT('Ctrl Pts',(-19.6288426749705,22.6879985123246,0.819292296099904));
#1529=CARTESIAN_POINT('Ctrl Pts',(-19.2929282942102,22.9748874464489,0.448010442804856));
#1530=CARTESIAN_POINT('Ctrl Pts',(-19.0550877083726,23.173542949127,0.277839453489493));
#1531=CARTESIAN_POINT('Ctrl Pts',(-18.5393873752158,23.5881448218404,0.0536936722133351));
#1532=CARTESIAN_POINT('Ctrl Pts',(-18.2613326183552,23.8040005362336,-9.52572545806238E-17));
#1533=CARTESIAN_POINT('Ctrl Pts',(-18.,24.,-1.38777878078145E-16));
#1534=CARTESIAN_POINT('',(-20.,15.,2.));
#1535=CARTESIAN_POINT('',(-18.,15.,0.));
#1536=CARTESIAN_POINT('Origin',(-18.,-28.,44.));
#1537=CARTESIAN_POINT('',(-20.,-28.,44.));
#1538=CARTESIAN_POINT('',(-18.,-28.,46.));
#1539=CARTESIAN_POINT('Origin',(-18.,-28.,44.));
#1540=CARTESIAN_POINT('',(-18.,-30.,44.));
#1541=CARTESIAN_POINT('Origin',(-18.,-28.,44.));
#1542=CARTESIAN_POINT('Origin',(-18.,-28.,44.));
#1543=CARTESIAN_POINT('Origin',(-18.,-28.,0.));
#1544=CARTESIAN_POINT('',(-20.,-28.,0.));
#1545=CARTESIAN_POINT('',(-18.,-30.,0.));
#1546=CARTESIAN_POINT('Origin',(18.,28.,2.));
#1547=CARTESIAN_POINT('',(20.,28.,2.));
#1548=CARTESIAN_POINT('',(18.,30.,2.));
#1549=CARTESIAN_POINT('Origin',(18.,28.,2.));
#1550=CARTESIAN_POINT('',(18.,28.,0.));
#1551=CARTESIAN_POINT('Origin',(18.,28.,2.));
#1552=CARTESIAN_POINT('Origin',(18.,28.,2.));
#1553=CARTESIAN_POINT('Origin',(18.,-15.,2.));
#1554=CARTESIAN_POINT('',(20.,22.3606797749979,2.));
#1555=CARTESIAN_POINT('',(18.,24.,0.));
#1556=CARTESIAN_POINT('Ctrl Pts',(18.,24.,-3.85185988877447E-33));
#1557=CARTESIAN_POINT('Ctrl Pts',(18.2613326183552,23.8040005362336,6.98143335272729E-16));
#1558=CARTESIAN_POINT('Ctrl Pts',(18.5393873752159,23.5881448218404,0.0536936722133345));
#1559=CARTESIAN_POINT('Ctrl Pts',(19.0550877083726,23.173542949127,0.277839453489494));
#1560=CARTESIAN_POINT('Ctrl Pts',(19.2929282942102,22.9748874464489,0.448010442804855));
#1561=CARTESIAN_POINT('Ctrl Pts',(19.6288426749705,22.6879985123246,0.819292296099903));
#1562=CARTESIAN_POINT('Ctrl Pts',(19.7642174921239,22.5696936607385,1.02521582347638));
#1563=CARTESIAN_POINT('Ctrl Pts',(19.9500487787018,22.4056001634262,1.49012055488851));
#1564=CARTESIAN_POINT('Ctrl Pts',(20.,22.3606797749979,1.74960949638959));
#1565=CARTESIAN_POINT('Ctrl Pts',(20.,22.3606797749979,2.));
#1566=CARTESIAN_POINT('',(18.,-15.,0.));
#1567=CARTESIAN_POINT('',(20.,-15.,2.));
#1568=CARTESIAN_POINT('Origin',(10.,28.,2.));
#1569=CARTESIAN_POINT('',(10.770329614269,28.,0.));
#1570=CARTESIAN_POINT('',(10.770329614269,30.,2.));
#1571=CARTESIAN_POINT('Origin',(10.770329614269,28.,2.));
#1572=CARTESIAN_POINT('',(10.,30.,2.));
#1573=CARTESIAN_POINT('',(10.,28.,0.));
#1574=CARTESIAN_POINT('Origin',(18.,-28.,44.));
#1575=CARTESIAN_POINT('',(18.,-30.,44.));
#1576=CARTESIAN_POINT('',(18.,-28.,46.));
#1577=CARTESIAN_POINT('Origin',(18.,-28.,44.));
#1578=CARTESIAN_POINT('',(20.,-28.,44.));
#1579=CARTESIAN_POINT('Origin',(18.,-28.,44.));
#1580=CARTESIAN_POINT('Origin',(18.,-28.,44.));
#1581=CARTESIAN_POINT('Origin',(18.,-28.,0.));
#1582=CARTESIAN_POINT('',(18.,-30.,0.));
#1583=CARTESIAN_POINT('',(20.,-28.,0.));
#1584=CARTESIAN_POINT('Origin',(18.,-28.,0.));
#1585=CARTESIAN_POINT('',(20.,-28.,0.));
#1586=CARTESIAN_POINT('',(18.,-30.,0.));
#1587=CARTESIAN_POINT('Origin',(-18.,28.,44.));
#1588=CARTESIAN_POINT('',(-18.,30.,44.));
#1589=CARTESIAN_POINT('',(-18.,28.,46.));
#1590=CARTESIAN_POINT('Origin',(-18.,28.,44.));
#1591=CARTESIAN_POINT('',(-20.,28.,44.));
#1592=CARTESIAN_POINT('Origin',(-18.,28.,44.));
#1593=CARTESIAN_POINT('Origin',(-18.,28.,44.));
#1594=CARTESIAN_POINT('Origin',(-18.,28.,0.));
#1595=CARTESIAN_POINT('',(-18.,30.,0.));
#1596=CARTESIAN_POINT('',(-20.,28.,0.));
#1597=CARTESIAN_POINT('Origin',(-18.,15.,44.));
#1598=CARTESIAN_POINT('',(-18.,15.,46.));
#1599=CARTESIAN_POINT('',(-20.,15.,44.));
#1600=CARTESIAN_POINT('Origin',(18.,28.,44.));
#1601=CARTESIAN_POINT('',(20.,28.,44.));
#1602=CARTESIAN_POINT('',(18.,28.,46.));
#1603=CARTESIAN_POINT('Origin',(18.,28.,44.));
#1604=CARTESIAN_POINT('',(18.,30.,44.));
#1605=CARTESIAN_POINT('Origin',(18.,28.,44.));
#1606=CARTESIAN_POINT('Origin',(18.,28.,44.));
#1607=CARTESIAN_POINT('Origin',(18.,28.,0.));
#1608=CARTESIAN_POINT('',(20.,28.,0.));
#1609=CARTESIAN_POINT('',(18.,30.,0.));
#1610=CARTESIAN_POINT('Origin',(10.,28.,44.));
#1611=CARTESIAN_POINT('',(10.,28.,46.));
#1612=CARTESIAN_POINT('',(10.,30.,44.));
#1613=CARTESIAN_POINT('Origin',(18.,-15.,44.));
#1614=CARTESIAN_POINT('',(18.,-15.,46.));
#1615=CARTESIAN_POINT('',(20.,-15.,44.));
#1616=CARTESIAN_POINT('Origin',(-10.,-28.,44.));
#1617=CARTESIAN_POINT('',(-10.,-28.,46.));
#1618=CARTESIAN_POINT('',(-10.,-30.,44.));
#1619=CARTESIAN_POINT('Origin',(-18.,15.,2.));
#1620=CARTESIAN_POINT('',(-20.,-22.3606797749979,2.));
#1621=CARTESIAN_POINT('',(-18.,-24.,0.));
#1622=CARTESIAN_POINT('Ctrl Pts',(-18.,-24.,-1.38777878078145E-16));
#1623=CARTESIAN_POINT('Ctrl Pts',(-18.2613326183552,-23.8040005362336,-4.6518255430955E-16));
#1624=CARTESIAN_POINT('Ctrl Pts',(-18.5393873752158,-23.5881448218404,0.0536936722133341));
#1625=CARTESIAN_POINT('Ctrl Pts',(-19.0550877083726,-23.173542949127,0.277839453489492));
#1626=CARTESIAN_POINT('Ctrl Pts',(-19.2929282942102,-22.9748874464489,0.448010442804855));
#1627=CARTESIAN_POINT('Ctrl Pts',(-19.6288426749705,-22.6879985123246,0.819292296099903));
#1628=CARTESIAN_POINT('Ctrl Pts',(-19.7642174921239,-22.5696936607386,1.02521582347638));
#1629=CARTESIAN_POINT('Ctrl Pts',(-19.9500487787018,-22.4056001634262,1.49012055488851));
#1630=CARTESIAN_POINT('Ctrl Pts',(-20.,-22.3606797749979,1.74960949638959));
#1631=CARTESIAN_POINT('Ctrl Pts',(-20.,-22.3606797749979,2.));
#1632=CARTESIAN_POINT('',(-18.,15.,0.));
#1633=CARTESIAN_POINT('',(-20.,15.,2.));
#1634=CARTESIAN_POINT('Ctrl Pts',(10.770329614269,28.,0.));
#1635=CARTESIAN_POINT('Ctrl Pts',(8.86485730758496,28.7329487433517,0.));
#1636=CARTESIAN_POINT('Ctrl Pts',(6.0468474277189,29.5109317948398,0.));
#1637=CARTESIAN_POINT('Ctrl Pts',(2.28870291419909,29.9409511166671,0.));
#1638=CARTESIAN_POINT('Ctrl Pts',(0.772845163835423,29.9995475495282,0.));
#1639=CARTESIAN_POINT('Ctrl Pts',(0.0120633198028569,29.999998133477,0.));
#1640=CARTESIAN_POINT('Ctrl Pts',(0.00603172875446851,30.,0.));
#1641=CARTESIAN_POINT('Ctrl Pts',(4.82436794902991E-15,30.,0.));
#1642=CARTESIAN_POINT('Ctrl Pts',(10.770329614269,28.5983986006838,1.32871180876519E-15));
#1643=CARTESIAN_POINT('Ctrl Pts',(8.86577412993678,29.1910108884766,0.226118156225102));
#1644=CARTESIAN_POINT('Ctrl Pts',(5.98277275868821,29.6897905084707,0.246807998376623));
#1645=CARTESIAN_POINT('Ctrl Pts',(2.26316153167837,29.9649787512435,0.110065979008712));
#1646=CARTESIAN_POINT('Ctrl Pts',(0.762974861229862,29.9996627785038,0.0367658511595692));
#1647=CARTESIAN_POINT('Ctrl Pts',(0.0119104640435656,29.9999991645592,0.000572923932034374));
#1648=CARTESIAN_POINT('Ctrl Pts',(0.00595513537339019,30.,0.000286586189950869));
#1649=CARTESIAN_POINT('Ctrl Pts',(4.82436794902991E-15,30.,0.));
#1650=CARTESIAN_POINT('Ctrl Pts',(10.770329614269,29.6347188666157,0.501735076069086));
#1651=CARTESIAN_POINT('Ctrl Pts',(8.79383507619995,29.8131942731238,0.850532719530776));
#1652=CARTESIAN_POINT('Ctrl Pts',(5.86693234925657,29.926121973843,0.719358315154136));
#1653=CARTESIAN_POINT('Ctrl Pts',(2.21444663842283,29.9931509337567,0.301926544427568));
#1654=CARTESIAN_POINT('Ctrl Pts',(0.745770600239609,29.9999256784327,0.100907370929793));
#1655=CARTESIAN_POINT('Ctrl Pts',(0.011642567038347,29.9999997953193,0.00157662179828173));
#1656=CARTESIAN_POINT('Ctrl Pts',(0.00582109695650312,30.,0.00078811202236489));
#1657=CARTESIAN_POINT('Ctrl Pts',(4.82436794902991E-15,30.,0.));
#1658=CARTESIAN_POINT('Ctrl Pts',(10.770329614269,30.,1.55120104948717));
#1659=CARTESIAN_POINT('Ctrl Pts',(8.64603319979087,29.9981432798906,1.65478842307051));
#1660=CARTESIAN_POINT('Ctrl Pts',(5.75276626404714,30.0000455054851,1.2336469833436));
#1661=CARTESIAN_POINT('Ctrl Pts',(2.16021642559707,29.9996715201005,0.492952797629596));
#1662=CARTESIAN_POINT('Ctrl Pts',(0.728647528854529,29.9999889290932,0.165169332357815));
#1663=CARTESIAN_POINT('Ctrl Pts',(0.0113741937623557,30.0000000584337,0.00257965868163683));
#1664=CARTESIAN_POINT('Ctrl Pts',(0.00568705853961606,30.,0.00128963785477891));
#1665=CARTESIAN_POINT('Ctrl Pts',(4.82436794902991E-15,30.,0.));
#1666=CARTESIAN_POINT('Ctrl Pts',(10.770329614269,30.,2.));
#1667=CARTESIAN_POINT('Ctrl Pts',(8.58292518057559,30.,2.));
#1668=CARTESIAN_POINT('Ctrl Pts',(5.70378529290082,30.,1.45407390947078));
#1669=CARTESIAN_POINT('Ctrl Pts',(2.1370006033308,30.,0.574949238170815));
#1670=CARTESIAN_POINT('Ctrl Pts',(0.721308561037855,30.0000000000001,0.19271557621041));
#1671=CARTESIAN_POINT('Ctrl Pts',(0.0112591795751393,30.,0.00300950291558446));
#1672=CARTESIAN_POINT('Ctrl Pts',(0.00562961350380732,30.,0.00150457749724206));
#1673=CARTESIAN_POINT('Ctrl Pts',(4.82436794902991E-15,30.,0.));
#1674=CARTESIAN_POINT('',(2.22044604925031E-15,30.,0.));
#1675=CARTESIAN_POINT('Origin',(0.,0.,0.));
#1676=CARTESIAN_POINT('Ctrl Pts',(4.82436794902991E-15,30.,0.));
#1677=CARTESIAN_POINT('Ctrl Pts',(0.00562961350380732,30.,0.00150457749724206));
#1678=CARTESIAN_POINT('Ctrl Pts',(0.0112591795751393,30.,0.00300950291558446));
#1679=CARTESIAN_POINT('Ctrl Pts',(0.721308561037855,30.0000000000001,0.19271557621041));
#1680=CARTESIAN_POINT('Ctrl Pts',(2.1370006033308,30.,0.574949238170815));
#1681=CARTESIAN_POINT('Ctrl Pts',(5.70378529290082,30.,1.45407390947078));
#1682=CARTESIAN_POINT('Ctrl Pts',(8.58292518057559,30.,2.));
#1683=CARTESIAN_POINT('Ctrl Pts',(10.770329614269,30.,2.));
#1684=CARTESIAN_POINT('Ctrl Pts',(4.82436794902991E-15,30.,0.));
#1685=CARTESIAN_POINT('Ctrl Pts',(-0.00603172875445888,30.,0.));
#1686=CARTESIAN_POINT('Ctrl Pts',(-0.012063316574929,29.9999977211641,0.));
#1687=CARTESIAN_POINT('Ctrl Pts',(-1.52759774754569,29.9992497535761,0.));
#1688=CARTESIAN_POINT('Ctrl Pts',(-3.81334116717829,29.8224856249794,0.));
#1689=CARTESIAN_POINT('Ctrl Pts',(-7.45898972449439,29.1229087716926,0.));
#1690=CARTESIAN_POINT('Ctrl Pts',(-9.50001474314633,28.4886324955678,0.));
#1691=CARTESIAN_POINT('Ctrl Pts',(-10.770329614269,28.,0.));
#1692=CARTESIAN_POINT('Ctrl Pts',(4.83113576995629E-15,30.,2.53228671492843E-17));
#1693=CARTESIAN_POINT('Ctrl Pts',(-0.00594467485737447,29.9999909216885,
0.000286341647526977));
#1694=CARTESIAN_POINT('Ctrl Pts',(-0.0119212270341874,30.0000087318493,
0.000573472041178107));
#1695=CARTESIAN_POINT('Ctrl Pts',(-1.50697818630056,29.9979741626507,0.0725164129756561));
#1696=CARTESIAN_POINT('Ctrl Pts',(-3.76720214337679,29.8929549268716,0.181294662743908));
#1697=CARTESIAN_POINT('Ctrl Pts',(-7.41691547104771,29.4363405011124,0.232879247332004));
#1698=CARTESIAN_POINT('Ctrl Pts',(-9.49602929187123,28.9919109267494,0.146332374860748));
#1699=CARTESIAN_POINT('Ctrl Pts',(-10.770329614269,28.5983986006838,-2.65742361753039E-15));
#1700=CARTESIAN_POINT('Ctrl Pts',(4.84297945657745E-15,30.,6.96378846605319E-17));
#1701=CARTESIAN_POINT('Ctrl Pts',(-0.00581062180194578,29.9999965445117,
0.000786443232097083));
#1702=CARTESIAN_POINT('Ctrl Pts',(-0.0116531844325139,30.0000035021395,
0.00157824387467906));
#1703=CARTESIAN_POINT('Ctrl Pts',(-1.47309660351095,29.9993647923207,0.199278053055404));
#1704=CARTESIAN_POINT('Ctrl Pts',(-3.68462949835899,29.9763139862859,0.501666517868256));
#1705=CARTESIAN_POINT('Ctrl Pts',(-7.31655367103368,29.8653660125311,0.776531348769175));
#1706=CARTESIAN_POINT('Ctrl Pts',(-9.44832146176224,29.7519950360164,0.735610864718929));
#1707=CARTESIAN_POINT('Ctrl Pts',(-10.770329614269,29.6343280351082,0.502318220400927));
#1708=CARTESIAN_POINT('Ctrl Pts',(4.85482314319862E-15,30.,1.1395290217178E-16));
#1709=CARTESIAN_POINT('Ctrl Pts',(-0.0056826218082986,30.,0.0012902791005233));
#1710=CARTESIAN_POINT('Ctrl Pts',(-0.0113787133610261,30.,0.00257888425418076));
#1711=CARTESIAN_POINT('Ctrl Pts',(-1.43981410346749,30.,0.32655894644447));
#1712=CARTESIAN_POINT('Ctrl Pts',(-3.59736630707039,30.,0.819614970290743));
#1713=CARTESIAN_POINT('Ctrl Pts',(-7.1956958300187,30.,1.43386312709726));
#1714=CARTESIAN_POINT('Ctrl Pts',(-9.35231802204298,30.,1.62142143313058));
#1715=CARTESIAN_POINT('Ctrl Pts',(-10.770329614269,30.,1.55120104948717));
#1716=CARTESIAN_POINT('Ctrl Pts',(4.85989900889341E-15,30.,1.32945052533743E-16));
#1717=CARTESIAN_POINT('Ctrl Pts',(-0.00562961350379753,30.,0.00150457749724242));
#1718=CARTESIAN_POINT('Ctrl Pts',(-0.011259188604397,30.,0.00300940783439329));
#1719=CARTESIAN_POINT('Ctrl Pts',(-1.42572540438265,30.,0.380947488916404));
#1720=CARTESIAN_POINT('Ctrl Pts',(-3.56030671613513,30.,0.955588654440446));
#1721=CARTESIAN_POINT('Ctrl Pts',(-7.14388398795547,30.,1.71554143652131));
#1722=CARTESIAN_POINT('Ctrl Pts',(-9.31205999180674,30.,2.));
#1723=CARTESIAN_POINT('Ctrl Pts',(-10.770329614269,30.,2.));
#1724=CARTESIAN_POINT('Ctrl Pts',(-10.770329614269,30.,2.));
#1725=CARTESIAN_POINT('Ctrl Pts',(-9.31205999180674,30.,2.));
#1726=CARTESIAN_POINT('Ctrl Pts',(-7.14388398795547,30.,1.71554143652131));
#1727=CARTESIAN_POINT('Ctrl Pts',(-3.56030671613513,30.,0.955588654440446));
#1728=CARTESIAN_POINT('Ctrl Pts',(-1.42572540438265,30.,0.380947488916404));
#1729=CARTESIAN_POINT('Ctrl Pts',(-0.011259188604397,30.,0.00300940783439329));
#1730=CARTESIAN_POINT('Ctrl Pts',(-0.00562961350379753,30.,0.00150457749724242));
#1731=CARTESIAN_POINT('Ctrl Pts',(4.85989900889341E-15,30.,1.32945052533743E-16));
#1732=CARTESIAN_POINT('Origin',(0.,0.,0.));
#1733=CARTESIAN_POINT('Origin',(20.,-30.,0.));
#1734=CARTESIAN_POINT('',(20.,-22.3606797749979,0.));
#1735=CARTESIAN_POINT('',(20.,-30.,0.));
#1736=CARTESIAN_POINT('',(20.,-22.3606797749979,3.));
#1737=CARTESIAN_POINT('',(20.,-22.3606797749979,0.));
#1738=CARTESIAN_POINT('',(20.,-27.0000000000146,3.00000000001455));
#1739=CARTESIAN_POINT('',(20.,-1.50000000000728,3.00000000001455));
#1740=CARTESIAN_POINT('',(20.,-26.9999999999855,43.0000000000146));
#1741=CARTESIAN_POINT('',(20.,-26.9999999999855,11.5000000000073));
#1742=CARTESIAN_POINT('',(20.,26.9999999999854,43.0000000000146));
#1743=CARTESIAN_POINT('',(20.,-5.00000000000728,43.0000000000146));
#1744=CARTESIAN_POINT('',(20.,26.9999999999854,3.00000000001456));
#1745=CARTESIAN_POINT('',(20.,26.9999999999854,10.0000000000073));
#1746=CARTESIAN_POINT('',(20.,22.3606797749979,3.));
#1747=CARTESIAN_POINT('',(20.,-1.50000000000728,3.00000000001455));
#1748=CARTESIAN_POINT('',(20.,22.3606797749979,0.));
#1749=CARTESIAN_POINT('Origin',(6.66133814775094E-15,-2.22044604925031E-15,
0.));
#1750=CARTESIAN_POINT('',(-9.99200722162641E-15,-30.,0.));
#1751=CARTESIAN_POINT('',(-20.,-30.,0.));
#1752=CARTESIAN_POINT('Origin',(0.,0.,0.));
#1753=CARTESIAN_POINT('Origin',(-20.,-30.,0.));
#1754=CARTESIAN_POINT('',(-9.99200722162641E-15,-30.,0.));
#1755=CARTESIAN_POINT('Origin',(6.66133814775094E-15,-2.22044604925031E-15,
0.));
#1756=CARTESIAN_POINT('Origin',(0.,0.,0.));
#1757=CARTESIAN_POINT('Origin',(8.88178419700125E-15,0.,46.));
#1758=CARTESIAN_POINT('Origin',(5.25946023846554,-5.25946023846554,0.34));
#1759=CARTESIAN_POINT('',(6.23946023846554,-5.25946023846554,0.34));
#1760=CARTESIAN_POINT('Origin',(5.25946023846554,-5.25946023846554,0.34));
#1761=CARTESIAN_POINT('',(6.23946023846554,-5.25946023846554,3.00000000001456));
#1762=CARTESIAN_POINT('',(6.23946023846554,-5.25946023846554,0.34));
#1763=CARTESIAN_POINT('Origin',(5.25946023846554,-5.25946023846554,3.00000000001456));
#1764=CARTESIAN_POINT('Origin',(0.,0.,0.34));
#1765=CARTESIAN_POINT('',(1.5,1.83697019872103E-16,0.34));
#1766=CARTESIAN_POINT('Origin',(0.,0.,0.34));
#1767=CARTESIAN_POINT('',(1.5,-1.83697019872103E-16,3.00000000001456));
#1768=CARTESIAN_POINT('',(1.5,1.83697019872103E-16,0.34));
#1769=CARTESIAN_POINT('Origin',(0.,0.,3.00000000001456));
#1770=CARTESIAN_POINT('Origin',(-5.25946023846554,5.25946023846554,0.34));
#1771=CARTESIAN_POINT('',(-4.27946023846554,5.25946023846554,0.34));
#1772=CARTESIAN_POINT('Origin',(-5.25946023846554,5.25946023846554,0.34));
#1773=CARTESIAN_POINT('',(-4.27946023846554,5.25946023846554,3.00000000001456));
#1774=CARTESIAN_POINT('',(-4.27946023846554,5.25946023846554,0.34));
#1775=CARTESIAN_POINT('Origin',(-5.25946023846554,5.25946023846554,3.00000000001456));
#1776=CARTESIAN_POINT('Origin',(0.,0.,-2.));
#1777=CARTESIAN_POINT('',(10.5,1.28587913910472E-15,-2.));
#1778=CARTESIAN_POINT('Origin',(0.,0.,-2.));
#1779=CARTESIAN_POINT('',(10.5,1.28587913910472E-15,0.34));
#1780=CARTESIAN_POINT('',(10.5,1.28587913910472E-15,-2.));
#1781=CARTESIAN_POINT('Origin',(0.,0.,0.34));
#1782=CARTESIAN_POINT('Origin',(0.,0.,0.34));
#1783=CARTESIAN_POINT('Origin',(-20.,10.,33.));
#1784=CARTESIAN_POINT('',(-20.,10.,23.));
#1785=CARTESIAN_POINT('Origin',(-20.,10.,33.));
#1786=CARTESIAN_POINT('',(-17.,10.,23.0000000000146));
#1787=CARTESIAN_POINT('',(-20.,10.,23.));
#1788=CARTESIAN_POINT('',(-17.,19.9999999999854,33.));
#1789=CARTESIAN_POINT('Origin',(-17.,10.,33.));
#1790=CARTESIAN_POINT('',(-17.,10.,43.));
#1791=CARTESIAN_POINT('Origin',(-17.,10.,33.));
#1792=CARTESIAN_POINT('Origin',(-17.,10.,33.));
#1793=CARTESIAN_POINT('Origin',(-17.,-1.45572442988851E-11,33.));
#1794=CARTESIAN_POINT('',(-17.,-20.0000000000146,42.9999999999854));
#1795=CARTESIAN_POINT('',(-17.,26.9999999999854,43.0000000000146));
#1796=CARTESIAN_POINT('',(-17.,-20.0000000000146,22.9999999999854));
#1797=CARTESIAN_POINT('',(-17.,-20.0000000000146,42.9999999999854));
#1798=CARTESIAN_POINT('',(-17.,-27.0000000000146,23.0000000000146));
#1799=CARTESIAN_POINT('Origin',(-17.,-1.45572442988851E-11,33.));
#1800=CARTESIAN_POINT('',(-17.,19.9999999999854,42.9999999999854));
#1801=CARTESIAN_POINT('',(-17.,19.9999999999854,22.9999999999854));
#1802=CARTESIAN_POINT('',(-17.,26.9999999999854,43.0000000000146));
#1803=CARTESIAN_POINT('Origin',(-17.,-1.45572442988851E-11,33.));
#1804=CARTESIAN_POINT('',(-17.,19.9999999999854,22.9999999999854));
#1805=CARTESIAN_POINT('',(-17.,-27.0000000000146,23.0000000000146));
#1806=CARTESIAN_POINT('',(-17.,19.9999999999854,22.9999999999854));
#1807=CARTESIAN_POINT('Origin',(0.,0.,3.));
#1808=CARTESIAN_POINT('',(-20.,22.3606797749979,3.));
#1809=CARTESIAN_POINT('',(-20.,-22.3606797749979,3.));
#1810=CARTESIAN_POINT('',(-20.,15.,3.));
#1811=CARTESIAN_POINT('Origin',(0.,0.,3.));
#1812=CARTESIAN_POINT('Origin',(0.,0.,0.));
#1813=CARTESIAN_POINT('',(30.,-3.67394039744206E-15,-2.));
#1814=CARTESIAN_POINT('Origin',(0.,0.,-2.));
#1815=CARTESIAN_POINT('',(30.,-3.67394039744206E-15,3.));
#1816=CARTESIAN_POINT('',(30.,-3.67394039744206E-15,0.));
#1817=CARTESIAN_POINT('Origin',(0.,0.,3.));
#1818=CARTESIAN_POINT('',(-20.,-22.3606797749979,0.));
#1819=CARTESIAN_POINT('',(-20.,22.3606797749979,0.));
#1820=CARTESIAN_POINT('Origin',(0.,0.,0.));
#1821=CARTESIAN_POINT('Origin',(0.,0.,0.));
#1822=CARTESIAN_POINT('Origin',(0.,0.,3.));
#1823=CARTESIAN_POINT('Origin',(0.,0.,-2.));
#1824=CARTESIAN_POINT('Origin',(-20.,30.,0.));
#1825=CARTESIAN_POINT('',(-20.,-24.9999999999927,39.5000000000146));
#1826=CARTESIAN_POINT('Origin',(-20.,-24.9999999999927,38.0000000000146));
#1827=CARTESIAN_POINT('',(-20.,24.9999999999855,29.5000000000146));
#1828=CARTESIAN_POINT('Origin',(-20.,24.9999999999855,28.0000000000146));
#1829=CARTESIAN_POINT('',(-20.,-25.0000000000073,29.5000000000146));
#1830=CARTESIAN_POINT('Origin',(-20.,-25.0000000000073,28.0000000000146));
#1831=CARTESIAN_POINT('',(-20.,24.9999999999855,39.5000000000146));
#1832=CARTESIAN_POINT('Origin',(-20.,24.9999999999855,38.0000000000146));
#1833=CARTESIAN_POINT('Origin',(20.,26.9999999999854,3.00000000001456));
#1834=CARTESIAN_POINT('',(-17.,26.9999999999854,3.00000000001456));
#1835=CARTESIAN_POINT('',(20.,26.9999999999854,3.00000000001456));
#1836=CARTESIAN_POINT('',(-17.,-27.0000000000146,3.00000000001455));
#1837=CARTESIAN_POINT('',(-17.,-27.0000000000146,3.00000000001455));
#1838=CARTESIAN_POINT('',(20.,-27.0000000000146,3.00000000001455));
#1839=CARTESIAN_POINT('Origin',(6.66133814775094E-15,-2.22044604925031E-15,
0.));
#1840=CARTESIAN_POINT('Origin',(6.66133814775094E-15,-1.45572442988851E-11,
21.5000000000146));
#1841=CARTESIAN_POINT('',(-4.44089209850063E-15,-27.0000000000146,23.0000000000146));
#1842=CARTESIAN_POINT('',(1.33226762955019E-14,26.9999999999854,23.0000000000146));
#1843=CARTESIAN_POINT('',(6.66133814775094E-15,13.4999999999854,23.0000000000146));
#1844=CARTESIAN_POINT('',(-4.44089209850063E-15,-27.0000000000146,20.0000000000146));
#1845=CARTESIAN_POINT('',(-4.44089209850063E-15,-27.0000000000146,23.0000000000146));
#1846=CARTESIAN_POINT('',(1.33226762955019E-14,26.9999999999854,20.0000000000146));
#1847=CARTESIAN_POINT('',(3.33066907387547E-15,-13.5000000000146,20.0000000000146));
#1848=CARTESIAN_POINT('',(1.33226762955019E-14,26.9999999999854,20.0000000000146));
#1849=CARTESIAN_POINT('Origin',(20.,26.9999999999854,23.0000000000146));
#1850=CARTESIAN_POINT('',(-12.9,26.9999999999854,23.0000000000146));
#1851=CARTESIAN_POINT('',(20.,26.9999999999854,23.0000000000146));
#1852=CARTESIAN_POINT('',(-12.9,19.9999999999854,22.9999999999854));
#1853=CARTESIAN_POINT('',(-12.9,-27.0000000000146,23.0000000000146));
#1854=CARTESIAN_POINT('',(20.,19.9999999999854,22.9999999999854));
#1855=CARTESIAN_POINT('',(-12.9,-20.0000000000146,22.9999999999854));
#1856=CARTESIAN_POINT('',(20.,-20.0000000000146,22.9999999999854));
#1857=CARTESIAN_POINT('',(-12.9,-27.0000000000146,23.0000000000146));
#1858=CARTESIAN_POINT('',(-12.9,-27.0000000000146,23.0000000000146));
#1859=CARTESIAN_POINT('',(20.,-27.0000000000146,23.0000000000146));
#1860=CARTESIAN_POINT('Origin',(20.,26.9999999999854,20.0000000000146));
#1861=CARTESIAN_POINT('',(-12.9,26.9999999999854,43.0000000000146));
#1862=CARTESIAN_POINT('',(20.,26.9999999999854,43.0000000000146));
#1863=CARTESIAN_POINT('',(-12.9,26.9999999999854,3.00000000001455));
#1864=CARTESIAN_POINT('',(-17.,26.9999999999854,20.0000000000146));
#1865=CARTESIAN_POINT('',(20.,26.9999999999854,20.0000000000146));
#1866=CARTESIAN_POINT('',(-17.,26.9999999999854,3.00000000001456));
#1867=CARTESIAN_POINT('Origin',(20.,-27.0000000000146,20.0000000000146));
#1868=CARTESIAN_POINT('',(-17.,-27.0000000000146,20.0000000000146));
#1869=CARTESIAN_POINT('',(20.,-27.0000000000146,20.0000000000146));
#1870=CARTESIAN_POINT('',(-17.,26.9999999999854,20.0000000000146));
#1871=CARTESIAN_POINT('Origin',(20.,-27.0000000000146,3.00000000001455));
#1872=CARTESIAN_POINT('',(-17.,-27.0000000000146,20.0000000000146));
#1873=CARTESIAN_POINT('',(-12.9,-26.9999999999854,43.0000000000146));
#1874=CARTESIAN_POINT('',(-12.9,-26.9999999999854,43.0000000000146));
#1875=CARTESIAN_POINT('',(20.,-26.9999999999855,43.0000000000146));
#1876=CARTESIAN_POINT('Origin',(-17.,-1.45528034067866E-11,11.5000000000146));
#1877=CARTESIAN_POINT('Origin',(-12.9,24.9999999999854,38.0000000000146));
#1878=CARTESIAN_POINT('',(-12.9,24.9999999999854,39.5000000000146));
#1879=CARTESIAN_POINT('Origin',(-12.9,24.9999999999854,38.0000000000146));
#1880=CARTESIAN_POINT('',(-12.9,24.9999999999854,39.5000000000146));
#1881=CARTESIAN_POINT('Origin',(-12.9,-25.0000000000073,28.0000000000146));
#1882=CARTESIAN_POINT('',(-12.9,-25.0000000000073,29.5000000000146));
#1883=CARTESIAN_POINT('Origin',(-12.9,-25.0000000000073,28.0000000000146));
#1884=CARTESIAN_POINT('',(-12.9,-25.0000000000073,29.5000000000146));
#1885=CARTESIAN_POINT('Origin',(-12.9,24.9999999999854,28.0000000000146));
#1886=CARTESIAN_POINT('',(-12.9,24.9999999999854,29.5000000000146));
#1887=CARTESIAN_POINT('Origin',(-12.9,24.9999999999854,28.0000000000146));
#1888=CARTESIAN_POINT('',(-12.9,24.9999999999854,29.5000000000146));
#1889=CARTESIAN_POINT('Origin',(-12.9,-24.9999999999927,38.0000000000146));
#1890=CARTESIAN_POINT('',(-12.9,-24.9999999999927,39.5000000000146));
#1891=CARTESIAN_POINT('Origin',(-12.9,-24.9999999999927,38.0000000000146));
#1892=CARTESIAN_POINT('',(-12.9,-24.9999999999927,39.5000000000146));
#1893=CARTESIAN_POINT('Origin',(20.,19.9999999999854,42.9999999999854));
#1894=CARTESIAN_POINT('',(-12.9,19.9999999999854,42.9999999999854));
#1895=CARTESIAN_POINT('',(-12.9,19.9999999999854,42.9999999999854));
#1896=CARTESIAN_POINT('',(20.,19.9999999999854,42.9999999999854));
#1897=CARTESIAN_POINT('Origin',(20.,-20.0000000000146,22.9999999999854));
#1898=CARTESIAN_POINT('',(-12.9,-20.0000000000146,42.9999999999854));
#1899=CARTESIAN_POINT('',(-12.9,-20.0000000000146,22.9999999999854));
#1900=CARTESIAN_POINT('',(20.,-20.0000000000146,42.9999999999854));
#1901=CARTESIAN_POINT('Origin',(20.,19.9999999999854,43.0000000000146));
#1902=CARTESIAN_POINT('',(-12.9,26.9999999999854,43.0000000000146));
#1903=CARTESIAN_POINT('',(-12.9,26.9999999999854,43.0000000000146));
#1904=CARTESIAN_POINT('Origin',(-12.9,23.4999999999854,33.));
#1905=CARTESIAN_POINT('Origin',(-12.9,-23.5000000000146,33.));
#1906=CARTESIAN_POINT('Origin',(20.,30.,0.));
#1907=CARTESIAN_POINT('Origin',(6.66133814775094E-15,-2.22044604925031E-15,
0.));
#1908=UNCERTAINTY_MEASURE_WITH_UNIT(LENGTH_MEASURE(0.01),#1912,
'DISTANCE_ACCURACY_VALUE',
'Maximum model space distance between geometric entities at asserted c
onnectivities');
#1909=UNCERTAINTY_MEASURE_WITH_UNIT(LENGTH_MEASURE(0.01),#1912,
'DISTANCE_ACCURACY_VALUE',
'Maximum model space distance between geometric entities at asserted c
onnectivities');
#1910=(
GEOMETRIC_REPRESENTATION_CONTEXT(3)
GLOBAL_UNCERTAINTY_ASSIGNED_CONTEXT((#1908))
GLOBAL_UNIT_ASSIGNED_CONTEXT((#1912,#1914,#1915))
REPRESENTATION_CONTEXT('','3D')
);
#1911=(
GEOMETRIC_REPRESENTATION_CONTEXT(3)
GLOBAL_UNCERTAINTY_ASSIGNED_CONTEXT((#1909))
GLOBAL_UNIT_ASSIGNED_CONTEXT((#1912,#1914,#1915))
REPRESENTATION_CONTEXT('','3D')
);
#1912=(
LENGTH_UNIT()
NAMED_UNIT(*)
SI_UNIT(.MILLI.,.METRE.)
);
#1913=(
LENGTH_UNIT()
NAMED_UNIT(*)
SI_UNIT(.CENTI.,.METRE.)
);
#1914=(
NAMED_UNIT(*)
PLANE_ANGLE_UNIT()
SI_UNIT($,.RADIAN.)
);
#1915=(
NAMED_UNIT(*)
SI_UNIT($,.STERADIAN.)
SOLID_ANGLE_UNIT()
);
#1916=SHAPE_DEFINITION_REPRESENTATION(#1917,#1918);
#1917=PRODUCT_DEFINITION_SHAPE('',$,#1920);
#1918=SHAPE_REPRESENTATION('',(#1064),#1910);
#1919=PRODUCT_DEFINITION_CONTEXT('part definition',#1924,'design');
#1920=PRODUCT_DEFINITION('l_3','l_3',#1921,#1919);
#1921=PRODUCT_DEFINITION_FORMATION('',$,#1926);
#1922=PRODUCT_RELATED_PRODUCT_CATEGORY('l_3','l_3',(#1926));
#1923=APPLICATION_PROTOCOL_DEFINITION('international standard',
'automotive_design',2009,#1924);
#1924=APPLICATION_CONTEXT(
'Core Data for Automotive Mechanical Design Process');
#1925=PRODUCT_CONTEXT('part definition',#1924,'mechanical');
#1926=PRODUCT('l_3','l_3',$,(#1925));
#1927=PRESENTATION_STYLE_ASSIGNMENT((#1928));
#1928=SURFACE_STYLE_USAGE(.BOTH.,#1931);
#1929=SURFACE_STYLE_RENDERING_WITH_PROPERTIES($,#1935,(#1930));
#1930=SURFACE_STYLE_TRANSPARENT(0.);
#1931=SURFACE_SIDE_STYLE('',(#1932,#1929));
#1932=SURFACE_STYLE_FILL_AREA(#1933);
#1933=FILL_AREA_STYLE('',(#1934));
#1934=FILL_AREA_STYLE_COLOUR('',#1935);
#1935=COLOUR_RGB('',0.92156862745098,0.92156862745098,0.92156862745098);
ENDSEC;
END-ISO-10303-21;
