ISO-10303-21;
HEADER;
/* Generated by software containing ST-Developer
 * from STEP Tools, Inc. (www.steptools.com) 
 */

FILE_DESCRIPTION(
/* description */ (''),
/* implementation_level */ '2;1');

FILE_NAME(
/* name */ 
'C:\\Users\\eyome\\OneDrive\\Documents\\Inventor\\N_IK\\arm6DOF\\eyo_6
DOF_arm\\\\l_2_ipt_308b823a.STEP',
/* time_stamp */ '2025-11-15T16:55:07+03:00',
/* author */ ('eyome'),
/* organization */ (''),
/* preprocessor_version */ 'ST-DEVELOPER v18.1',
/* originating_system */ 'Autodesk Inventor 2021',
/* authorisation */ '');

FILE_SCHEMA (('AUTOMOTIVE_DESIGN { 1 0 10303 214 3 1 1 }'));
ENDSEC;

DATA;
#10=MECHANICAL_DESIGN_GEOMETRIC_PRESENTATION_REPRESENTATION('',(#13),#1568);
#11=SHAPE_REPRESENTATION_RELATIONSHIP('SRR','None',#1575,#12);
#12=ADVANCED_BREP_SHAPE_REPRESENTATION('',(#14),#1567);
#13=STYLED_ITEM('',(#1584),#14);
#14=MANIFOLD_SOLID_BREP('Solid2',#890);
#15=B_SPLINE_SURFACE_WITH_KNOTS('',3,3,((#1341,#1342,#1343,#1344,#1345,
#1346,#1347,#1348,#1349,#1350),(#1351,#1352,#1353,#1354,#1355,#1356,#1357,
#1358,#1359,#1360),(#1361,#1362,#1363,#1364,#1365,#1366,#1367,#1368,#1369,
#1370),(#1371,#1372,#1373,#1374,#1375,#1376,#1377,#1378,#1379,#1380),(#1381,
#1382,#1383,#1384,#1385,#1386,#1387,#1388,#1389,#1390)),.UNSPECIFIED.,.F.,
 .F.,.F.,(4,1,4),(4,1,1,1,1,1,1,4),(0.,0.571428571428571,1.),(-1.5707963267949,
-1.12199737628207,-0.673198425769241,-0.224399475256414,0.224399475256414,
0.673198425769241,1.12199737628207,1.5707963267949),.UNSPECIFIED.);
#16=FACE_BOUND('',#297,.T.);
#17=FACE_BOUND('',#298,.T.);
#18=FACE_BOUND('',#299,.T.);
#19=FACE_BOUND('',#300,.T.);
#20=FACE_BOUND('',#301,.T.);
#21=FACE_BOUND('',#302,.T.);
#22=FACE_BOUND('',#316,.T.);
#23=FACE_BOUND('',#317,.T.);
#24=FACE_BOUND('',#318,.T.);
#25=FACE_BOUND('',#323,.T.);
#26=FACE_BOUND('',#324,.T.);
#27=FACE_BOUND('',#325,.T.);
#28=FACE_BOUND('',#338,.T.);
#29=FACE_BOUND('',#339,.T.);
#30=FACE_BOUND('',#344,.T.);
#31=FACE_BOUND('',#345,.T.);
#32=FACE_BOUND('',#354,.T.);
#33=FACE_BOUND('',#355,.T.);
#34=FACE_BOUND('',#358,.T.);
#35=ELLIPSE('',#924,32.1886798597133,30.);
#36=ELLIPSE('',#934,2.03960780543711,2.);
#37=ELLIPSE('',#940,2.0396078054371,2.);
#38=ELLIPSE('',#944,30.3333333333333,28.);
#39=ELLIPSE('',#947,29.25,27.);
#40=PLANE('',#922);
#41=PLANE('',#925);
#42=PLANE('',#946);
#43=PLANE('',#960);
#44=PLANE('',#961);
#45=PLANE('',#963);
#46=PLANE('',#967);
#47=PLANE('',#972);
#48=PLANE('',#973);
#49=PLANE('',#974);
#50=PLANE('',#983);
#51=PLANE('',#984);
#52=PLANE('',#985);
#53=PLANE('',#986);
#54=PLANE('',#987);
#55=PLANE('',#988);
#56=PLANE('',#989);
#57=PLANE('',#990);
#58=PLANE('',#993);
#59=PLANE('',#994);
#60=PLANE('',#995);
#61=PLANE('',#996);
#62=PLANE('',#999);
#63=PLANE('',#1000);
#64=PLANE('',#1001);
#65=PLANE('',#1002);
#66=LINE('',#1282,#143);
#67=LINE('',#1283,#144);
#68=LINE('',#1291,#145);
#69=LINE('',#1292,#146);
#70=LINE('',#1295,#147);
#71=LINE('',#1297,#148);
#72=LINE('',#1299,#149);
#73=LINE('',#1300,#150);
#74=LINE('',#1303,#151);
#75=LINE('',#1321,#152);
#76=LINE('',#1325,#153);
#77=LINE('',#1334,#154);
#78=LINE('',#1338,#155);
#79=LINE('',#1340,#156);
#80=LINE('',#1395,#157);
#81=LINE('',#1398,#158);
#82=LINE('',#1400,#159);
#83=LINE('',#1404,#160);
#84=LINE('',#1405,#161);
#85=LINE('',#1407,#162);
#86=LINE('',#1412,#163);
#87=LINE('',#1418,#164);
#88=LINE('',#1424,#165);
#89=LINE('',#1428,#166);
#90=LINE('',#1433,#167);
#91=LINE('',#1436,#168);
#92=LINE('',#1439,#169);
#93=LINE('',#1441,#170);
#94=LINE('',#1442,#171);
#95=LINE('',#1447,#172);
#96=LINE('',#1452,#173);
#97=LINE('',#1460,#174);
#98=LINE('',#1461,#175);
#99=LINE('',#1464,#176);
#100=LINE('',#1466,#177);
#101=LINE('',#1467,#178);
#102=LINE('',#1470,#179);
#103=LINE('',#1471,#180);
#104=LINE('',#1475,#181);
#105=LINE('',#1479,#182);
#106=LINE('',#1483,#183);
#107=LINE('',#1487,#184);
#108=LINE('',#1491,#185);
#109=LINE('',#1492,#186);
#110=LINE('',#1493,#187);
#111=LINE('',#1497,#188);
#112=LINE('',#1498,#189);
#113=LINE('',#1499,#190);
#114=LINE('',#1503,#191);
#115=LINE('',#1505,#192);
#116=LINE('',#1507,#193);
#117=LINE('',#1508,#194);
#118=LINE('',#1510,#195);
#119=LINE('',#1511,#196);
#120=LINE('',#1514,#197);
#121=LINE('',#1516,#198);
#122=LINE('',#1517,#199);
#123=LINE('',#1520,#200);
#124=LINE('',#1522,#201);
#125=LINE('',#1523,#202);
#126=LINE('',#1525,#203);
#127=LINE('',#1526,#204);
#128=LINE('',#1531,#205);
#129=LINE('',#1535,#206);
#130=LINE('',#1537,#207);
#131=LINE('',#1539,#208);
#132=LINE('',#1540,#209);
#133=LINE('',#1543,#210);
#134=LINE('',#1545,#211);
#135=LINE('',#1546,#212);
#136=LINE('',#1549,#213);
#137=LINE('',#1551,#214);
#138=LINE('',#1552,#215);
#139=LINE('',#1554,#216);
#140=LINE('',#1555,#217);
#141=LINE('',#1558,#218);
#142=LINE('',#1561,#219);
#143=VECTOR('',#1019,10.);
#144=VECTOR('',#1020,10.);
#145=VECTOR('',#1031,10.);
#146=VECTOR('',#1032,10.);
#147=VECTOR('',#1035,10.);
#148=VECTOR('',#1036,10.);
#149=VECTOR('',#1037,10.);
#150=VECTOR('',#1038,10.);
#151=VECTOR('',#1041,10.);
#152=VECTOR('',#1060,10.);
#153=VECTOR('',#1063,10.);
#154=VECTOR('',#1076,10.);
#155=VECTOR('',#1081,10.);
#156=VECTOR('',#1084,10.);
#157=VECTOR('',#1091,10.);
#158=VECTOR('',#1094,10.);
#159=VECTOR('',#1095,10.);
#160=VECTOR('',#1098,10.);
#161=VECTOR('',#1099,10.);
#162=VECTOR('',#1102,10.);
#163=VECTOR('',#1107,0.98);
#164=VECTOR('',#1114,1.5);
#165=VECTOR('',#1121,0.98);
#166=VECTOR('',#1126,10.5);
#167=VECTOR('',#1133,10.);
#168=VECTOR('',#1136,10.);
#169=VECTOR('',#1139,10.);
#170=VECTOR('',#1140,10.);
#171=VECTOR('',#1141,10.);
#172=VECTOR('',#1146,10.5);
#173=VECTOR('',#1153,10.);
#174=VECTOR('',#1162,10.);
#175=VECTOR('',#1163,10.);
#176=VECTOR('',#1166,10.);
#177=VECTOR('',#1167,10.);
#178=VECTOR('',#1168,10.);
#179=VECTOR('',#1171,10.);
#180=VECTOR('',#1172,10.);
#181=VECTOR('',#1177,1.5);
#182=VECTOR('',#1182,1.5);
#183=VECTOR('',#1187,1.5);
#184=VECTOR('',#1192,1.5);
#185=VECTOR('',#1195,10.);
#186=VECTOR('',#1196,10.);
#187=VECTOR('',#1197,10.);
#188=VECTOR('',#1200,10.);
#189=VECTOR('',#1201,10.);
#190=VECTOR('',#1202,10.);
#191=VECTOR('',#1205,10.);
#192=VECTOR('',#1206,10.);
#193=VECTOR('',#1207,10.);
#194=VECTOR('',#1208,10.);
#195=VECTOR('',#1211,10.);
#196=VECTOR('',#1212,10.);
#197=VECTOR('',#1215,10.);
#198=VECTOR('',#1216,10.);
#199=VECTOR('',#1217,10.);
#200=VECTOR('',#1220,10.);
#201=VECTOR('',#1221,10.);
#202=VECTOR('',#1222,10.);
#203=VECTOR('',#1225,10.);
#204=VECTOR('',#1226,10.);
#205=VECTOR('',#1233,10.);
#206=VECTOR('',#1236,10.);
#207=VECTOR('',#1237,10.);
#208=VECTOR('',#1238,10.);
#209=VECTOR('',#1239,10.);
#210=VECTOR('',#1242,10.);
#211=VECTOR('',#1243,10.);
#212=VECTOR('',#1244,10.);
#213=VECTOR('',#1247,10.);
#214=VECTOR('',#1248,10.);
#215=VECTOR('',#1249,10.);
#216=VECTOR('',#1252,10.);
#217=VECTOR('',#1253,10.);
#218=VECTOR('',#1256,10.);
#219=VECTOR('',#1261,10.);
#220=CYLINDRICAL_SURFACE('',#915,2.);
#221=CYLINDRICAL_SURFACE('',#921,2.);
#222=CYLINDRICAL_SURFACE('',#923,30.);
#223=CYLINDRICAL_SURFACE('',#932,2.);
#224=CYLINDRICAL_SURFACE('',#939,2.);
#225=CYLINDRICAL_SURFACE('',#941,2.);
#226=CYLINDRICAL_SURFACE('',#945,2.);
#227=CYLINDRICAL_SURFACE('',#948,30.);
#228=CYLINDRICAL_SURFACE('',#949,0.98);
#229=CYLINDRICAL_SURFACE('',#952,1.5);
#230=CYLINDRICAL_SURFACE('',#955,0.98);
#231=CYLINDRICAL_SURFACE('',#958,10.5);
#232=CYLINDRICAL_SURFACE('',#964,10.5);
#233=CYLINDRICAL_SURFACE('',#968,10.);
#234=CYLINDRICAL_SURFACE('',#975,1.5);
#235=CYLINDRICAL_SURFACE('',#977,1.5);
#236=CYLINDRICAL_SURFACE('',#979,1.5);
#237=CYLINDRICAL_SURFACE('',#981,1.5);
#238=CYLINDRICAL_SURFACE('',#991,27.);
#239=CYLINDRICAL_SURFACE('',#997,27.);
#240=FACE_OUTER_BOUND('',#290,.T.);
#241=FACE_OUTER_BOUND('',#291,.T.);
#242=FACE_OUTER_BOUND('',#292,.T.);
#243=FACE_OUTER_BOUND('',#293,.T.);
#244=FACE_OUTER_BOUND('',#294,.T.);
#245=FACE_OUTER_BOUND('',#295,.T.);
#246=FACE_OUTER_BOUND('',#296,.T.);
#247=FACE_OUTER_BOUND('',#303,.T.);
#248=FACE_OUTER_BOUND('',#304,.T.);
#249=FACE_OUTER_BOUND('',#305,.T.);
#250=FACE_OUTER_BOUND('',#306,.T.);
#251=FACE_OUTER_BOUND('',#307,.T.);
#252=FACE_OUTER_BOUND('',#308,.T.);
#253=FACE_OUTER_BOUND('',#309,.T.);
#254=FACE_OUTER_BOUND('',#310,.T.);
#255=FACE_OUTER_BOUND('',#311,.T.);
#256=FACE_OUTER_BOUND('',#312,.T.);
#257=FACE_OUTER_BOUND('',#313,.T.);
#258=FACE_OUTER_BOUND('',#314,.T.);
#259=FACE_OUTER_BOUND('',#315,.T.);
#260=FACE_OUTER_BOUND('',#319,.T.);
#261=FACE_OUTER_BOUND('',#320,.T.);
#262=FACE_OUTER_BOUND('',#321,.T.);
#263=FACE_OUTER_BOUND('',#322,.T.);
#264=FACE_OUTER_BOUND('',#326,.T.);
#265=FACE_OUTER_BOUND('',#327,.T.);
#266=FACE_OUTER_BOUND('',#328,.T.);
#267=FACE_OUTER_BOUND('',#329,.T.);
#268=FACE_OUTER_BOUND('',#330,.T.);
#269=FACE_OUTER_BOUND('',#331,.T.);
#270=FACE_OUTER_BOUND('',#332,.T.);
#271=FACE_OUTER_BOUND('',#333,.T.);
#272=FACE_OUTER_BOUND('',#334,.T.);
#273=FACE_OUTER_BOUND('',#335,.T.);
#274=FACE_OUTER_BOUND('',#336,.T.);
#275=FACE_OUTER_BOUND('',#337,.T.);
#276=FACE_OUTER_BOUND('',#340,.T.);
#277=FACE_OUTER_BOUND('',#341,.T.);
#278=FACE_OUTER_BOUND('',#342,.T.);
#279=FACE_OUTER_BOUND('',#343,.T.);
#280=FACE_OUTER_BOUND('',#346,.T.);
#281=FACE_OUTER_BOUND('',#347,.T.);
#282=FACE_OUTER_BOUND('',#348,.T.);
#283=FACE_OUTER_BOUND('',#349,.T.);
#284=FACE_OUTER_BOUND('',#350,.T.);
#285=FACE_OUTER_BOUND('',#351,.T.);
#286=FACE_OUTER_BOUND('',#352,.T.);
#287=FACE_OUTER_BOUND('',#353,.T.);
#288=FACE_OUTER_BOUND('',#356,.T.);
#289=FACE_OUTER_BOUND('',#357,.T.);
#290=EDGE_LOOP('',(#595,#596,#597,#598));
#291=EDGE_LOOP('',(#599,#600,#601,#602));
#292=EDGE_LOOP('',(#603,#604,#605,#606));
#293=EDGE_LOOP('',(#607,#608,#609,#610));
#294=EDGE_LOOP('',(#611,#612,#613,#614,#615));
#295=EDGE_LOOP('',(#616,#617,#618,#619));
#296=EDGE_LOOP('',(#620,#621,#622,#623));
#297=EDGE_LOOP('',(#624));
#298=EDGE_LOOP('',(#625));
#299=EDGE_LOOP('',(#626));
#300=EDGE_LOOP('',(#627));
#301=EDGE_LOOP('',(#628));
#302=EDGE_LOOP('',(#629));
#303=EDGE_LOOP('',(#630,#631,#632,#633));
#304=EDGE_LOOP('',(#634,#635,#636,#637));
#305=EDGE_LOOP('',(#638,#639,#640,#641));
#306=EDGE_LOOP('',(#642,#643,#644,#645));
#307=EDGE_LOOP('',(#646,#647,#648,#649));
#308=EDGE_LOOP('',(#650,#651,#652,#653));
#309=EDGE_LOOP('',(#654,#655,#656,#657,#658,#659,#660,#661));
#310=EDGE_LOOP('',(#662,#663,#664,#665));
#311=EDGE_LOOP('',(#666,#667,#668,#669));
#312=EDGE_LOOP('',(#670,#671,#672,#673));
#313=EDGE_LOOP('',(#674,#675,#676,#677));
#314=EDGE_LOOP('',(#678,#679,#680,#681));
#315=EDGE_LOOP('',(#682));
#316=EDGE_LOOP('',(#683));
#317=EDGE_LOOP('',(#684));
#318=EDGE_LOOP('',(#685));
#319=EDGE_LOOP('',(#686,#687,#688,#689,#690,#691,#692,#693));
#320=EDGE_LOOP('',(#694,#695,#696,#697,#698));
#321=EDGE_LOOP('',(#699,#700,#701,#702));
#322=EDGE_LOOP('',(#703));
#323=EDGE_LOOP('',(#704));
#324=EDGE_LOOP('',(#705));
#325=EDGE_LOOP('',(#706));
#326=EDGE_LOOP('',(#707,#708,#709,#710,#711,#712));
#327=EDGE_LOOP('',(#713,#714,#715));
#328=EDGE_LOOP('',(#716,#717,#718,#719));
#329=EDGE_LOOP('',(#720,#721,#722));
#330=EDGE_LOOP('',(#723,#724,#725,#726));
#331=EDGE_LOOP('',(#727,#728,#729,#730));
#332=EDGE_LOOP('',(#731,#732,#733,#734));
#333=EDGE_LOOP('',(#735,#736,#737,#738));
#334=EDGE_LOOP('',(#739,#740,#741,#742));
#335=EDGE_LOOP('',(#743,#744,#745,#746,#747));
#336=EDGE_LOOP('',(#748,#749,#750,#751));
#337=EDGE_LOOP('',(#752,#753,#754,#755));
#338=EDGE_LOOP('',(#756));
#339=EDGE_LOOP('',(#757));
#340=EDGE_LOOP('',(#758,#759,#760,#761,#762,#763,#764,#765,#766));
#341=EDGE_LOOP('',(#767,#768,#769,#770));
#342=EDGE_LOOP('',(#771,#772,#773,#774,#775,#776,#777,#778,#779));
#343=EDGE_LOOP('',(#780,#781,#782,#783));
#344=EDGE_LOOP('',(#784));
#345=EDGE_LOOP('',(#785));
#346=EDGE_LOOP('',(#786,#787,#788,#789));
#347=EDGE_LOOP('',(#790,#791,#792,#793));
#348=EDGE_LOOP('',(#794,#795,#796,#797));
#349=EDGE_LOOP('',(#798,#799,#800,#801));
#350=EDGE_LOOP('',(#802,#803,#804,#805));
#351=EDGE_LOOP('',(#806,#807,#808,#809));
#352=EDGE_LOOP('',(#810,#811,#812,#813,#814));
#353=EDGE_LOOP('',(#815,#816,#817,#818));
#354=EDGE_LOOP('',(#819));
#355=EDGE_LOOP('',(#820,#821,#822,#823));
#356=EDGE_LOOP('',(#824,#825,#826,#827,#828));
#357=EDGE_LOOP('',(#829,#830,#831,#832));
#358=EDGE_LOOP('',(#833,#834,#835,#836));
#359=CIRCLE('',#911,2.00000000000001);
#360=CIRCLE('',#912,28.);
#361=CIRCLE('',#913,2.);
#362=CIRCLE('',#914,30.);
#363=CIRCLE('',#916,2.);
#364=CIRCLE('',#918,2.);
#365=CIRCLE('',#919,30.);
#366=CIRCLE('',#920,28.);
#367=CIRCLE('',#926,1.5);
#368=CIRCLE('',#927,1.5);
#369=CIRCLE('',#928,1.5);
#370=CIRCLE('',#929,1.5);
#371=CIRCLE('',#930,10.);
#372=CIRCLE('',#931,10.5);
#373=CIRCLE('',#933,2.);
#374=CIRCLE('',#936,2.);
#375=CIRCLE('',#937,28.);
#376=CIRCLE('',#938,30.);
#377=CIRCLE('',#942,2.);
#378=CIRCLE('',#943,1.99999999999999);
#379=CIRCLE('',#950,0.98);
#380=CIRCLE('',#951,0.98);
#381=CIRCLE('',#953,1.5);
#382=CIRCLE('',#954,1.5);
#383=CIRCLE('',#956,0.98);
#384=CIRCLE('',#957,0.98);
#385=CIRCLE('',#959,10.5);
#386=CIRCLE('',#962,27.);
#387=CIRCLE('',#965,10.5);
#388=CIRCLE('',#966,10.5);
#389=CIRCLE('',#969,10.);
#390=CIRCLE('',#970,10.);
#391=CIRCLE('',#971,10.);
#392=CIRCLE('',#976,1.5);
#393=CIRCLE('',#978,1.5);
#394=CIRCLE('',#980,1.5);
#395=CIRCLE('',#982,1.5);
#396=CIRCLE('',#992,27.);
#397=CIRCLE('',#998,27.);
#398=VERTEX_POINT('',#1270);
#399=VERTEX_POINT('',#1271);
#400=VERTEX_POINT('',#1273);
#401=VERTEX_POINT('',#1275);
#402=VERTEX_POINT('',#1279);
#403=VERTEX_POINT('',#1280);
#404=VERTEX_POINT('',#1285);
#405=VERTEX_POINT('',#1286);
#406=VERTEX_POINT('',#1294);
#407=VERTEX_POINT('',#1296);
#408=VERTEX_POINT('',#1298);
#409=VERTEX_POINT('',#1302);
#410=VERTEX_POINT('',#1306);
#411=VERTEX_POINT('',#1308);
#412=VERTEX_POINT('',#1310);
#413=VERTEX_POINT('',#1312);
#414=VERTEX_POINT('',#1314);
#415=VERTEX_POINT('',#1316);
#416=VERTEX_POINT('',#1319);
#417=VERTEX_POINT('',#1320);
#418=VERTEX_POINT('',#1322);
#419=VERTEX_POINT('',#1324);
#420=VERTEX_POINT('',#1328);
#421=VERTEX_POINT('',#1333);
#422=VERTEX_POINT('',#1337);
#423=VERTEX_POINT('',#1391);
#424=VERTEX_POINT('',#1397);
#425=VERTEX_POINT('',#1399);
#426=VERTEX_POINT('',#1401);
#427=VERTEX_POINT('',#1403);
#428=VERTEX_POINT('',#1409);
#429=VERTEX_POINT('',#1411);
#430=VERTEX_POINT('',#1415);
#431=VERTEX_POINT('',#1417);
#432=VERTEX_POINT('',#1421);
#433=VERTEX_POINT('',#1423);
#434=VERTEX_POINT('',#1427);
#435=VERTEX_POINT('',#1432);
#436=VERTEX_POINT('',#1434);
#437=VERTEX_POINT('',#1438);
#438=VERTEX_POINT('',#1440);
#439=VERTEX_POINT('',#1444);
#440=VERTEX_POINT('',#1446);
#441=VERTEX_POINT('',#1451);
#442=VERTEX_POINT('',#1453);
#443=VERTEX_POINT('',#1455);
#444=VERTEX_POINT('',#1459);
#445=VERTEX_POINT('',#1463);
#446=VERTEX_POINT('',#1465);
#447=VERTEX_POINT('',#1469);
#448=VERTEX_POINT('',#1473);
#449=VERTEX_POINT('',#1477);
#450=VERTEX_POINT('',#1481);
#451=VERTEX_POINT('',#1485);
#452=VERTEX_POINT('',#1489);
#453=VERTEX_POINT('',#1490);
#454=VERTEX_POINT('',#1495);
#455=VERTEX_POINT('',#1496);
#456=VERTEX_POINT('',#1501);
#457=VERTEX_POINT('',#1502);
#458=VERTEX_POINT('',#1504);
#459=VERTEX_POINT('',#1506);
#460=VERTEX_POINT('',#1513);
#461=VERTEX_POINT('',#1515);
#462=VERTEX_POINT('',#1519);
#463=VERTEX_POINT('',#1521);
#464=VERTEX_POINT('',#1529);
#465=VERTEX_POINT('',#1533);
#466=VERTEX_POINT('',#1534);
#467=VERTEX_POINT('',#1536);
#468=VERTEX_POINT('',#1538);
#469=VERTEX_POINT('',#1542);
#470=VERTEX_POINT('',#1544);
#471=VERTEX_POINT('',#1548);
#472=VERTEX_POINT('',#1550);
#473=VERTEX_POINT('',#1557);
#474=EDGE_CURVE('',#398,#399,#359,.T.);
#475=EDGE_CURVE('',#399,#400,#360,.T.);
#476=EDGE_CURVE('',#400,#401,#361,.T.);
#477=EDGE_CURVE('',#401,#398,#362,.T.);
#478=EDGE_CURVE('',#402,#403,#363,.T.);
#479=EDGE_CURVE('',#403,#401,#66,.T.);
#480=EDGE_CURVE('',#400,#402,#67,.T.);
#481=EDGE_CURVE('',#404,#405,#364,.T.);
#482=EDGE_CURVE('',#405,#403,#365,.T.);
#483=EDGE_CURVE('',#402,#404,#366,.T.);
#484=EDGE_CURVE('',#398,#405,#68,.T.);
#485=EDGE_CURVE('',#404,#399,#69,.T.);
#486=EDGE_CURVE('',#398,#406,#70,.T.);
#487=EDGE_CURVE('',#407,#406,#71,.T.);
#488=EDGE_CURVE('',#408,#407,#72,.T.);
#489=EDGE_CURVE('',#405,#408,#73,.T.);
#490=EDGE_CURVE('',#401,#409,#74,.T.);
#491=EDGE_CURVE('',#406,#409,#35,.T.);
#492=EDGE_CURVE('',#410,#410,#367,.T.);
#493=EDGE_CURVE('',#411,#411,#368,.T.);
#494=EDGE_CURVE('',#412,#412,#369,.T.);
#495=EDGE_CURVE('',#413,#413,#370,.T.);
#496=EDGE_CURVE('',#414,#414,#371,.T.);
#497=EDGE_CURVE('',#415,#415,#372,.T.);
#498=EDGE_CURVE('',#416,#417,#75,.T.);
#499=EDGE_CURVE('',#417,#418,#373,.T.);
#500=EDGE_CURVE('',#418,#419,#76,.T.);
#501=EDGE_CURVE('',#419,#416,#36,.T.);
#502=EDGE_CURVE('',#408,#420,#374,.T.);
#503=EDGE_CURVE('',#420,#418,#375,.T.);
#504=EDGE_CURVE('',#417,#408,#376,.T.);
#505=EDGE_CURVE('',#421,#420,#77,.T.);
#506=EDGE_CURVE('',#407,#421,#37,.T.);
#507=EDGE_CURVE('',#419,#422,#78,.T.);
#508=EDGE_CURVE('',#422,#409,#377,.T.);
#509=EDGE_CURVE('',#409,#416,#79,.T.);
#510=EDGE_CURVE('',#423,#406,#378,.T.);
#511=EDGE_CURVE('',#422,#423,#38,.T.);
#512=EDGE_CURVE('',#423,#421,#80,.T.);
#513=EDGE_CURVE('',#424,#419,#81,.T.);
#514=EDGE_CURVE('',#424,#425,#82,.T.);
#515=EDGE_CURVE('',#425,#426,#39,.T.);
#516=EDGE_CURVE('',#426,#427,#83,.T.);
#517=EDGE_CURVE('',#421,#427,#84,.T.);
#518=EDGE_CURVE('',#403,#417,#85,.T.);
#519=EDGE_CURVE('',#428,#428,#379,.T.);
#520=EDGE_CURVE('',#428,#429,#86,.T.);
#521=EDGE_CURVE('',#429,#429,#380,.T.);
#522=EDGE_CURVE('',#430,#430,#381,.T.);
#523=EDGE_CURVE('',#430,#431,#87,.T.);
#524=EDGE_CURVE('',#431,#431,#382,.T.);
#525=EDGE_CURVE('',#432,#432,#383,.T.);
#526=EDGE_CURVE('',#432,#433,#88,.T.);
#527=EDGE_CURVE('',#433,#433,#384,.T.);
#528=EDGE_CURVE('',#415,#434,#89,.T.);
#529=EDGE_CURVE('',#434,#434,#385,.T.);
#530=EDGE_CURVE('',#427,#435,#90,.T.);
#531=EDGE_CURVE('',#435,#436,#386,.T.);
#532=EDGE_CURVE('',#436,#424,#91,.T.);
#533=EDGE_CURVE('',#436,#437,#92,.T.);
#534=EDGE_CURVE('',#437,#438,#93,.T.);
#535=EDGE_CURVE('',#425,#438,#94,.T.);
#536=EDGE_CURVE('',#439,#439,#387,.T.);
#537=EDGE_CURVE('',#439,#440,#95,.T.);
#538=EDGE_CURVE('',#440,#440,#388,.T.);
#539=EDGE_CURVE('',#414,#441,#96,.T.);
#540=EDGE_CURVE('',#442,#441,#389,.T.);
#541=EDGE_CURVE('',#443,#442,#390,.T.);
#542=EDGE_CURVE('',#441,#443,#391,.T.);
#543=EDGE_CURVE('',#444,#443,#97,.T.);
#544=EDGE_CURVE('',#441,#444,#98,.T.);
#545=EDGE_CURVE('',#445,#442,#99,.T.);
#546=EDGE_CURVE('',#446,#445,#100,.T.);
#547=EDGE_CURVE('',#443,#446,#101,.T.);
#548=EDGE_CURVE('',#447,#441,#102,.T.);
#549=EDGE_CURVE('',#442,#447,#103,.T.);
#550=EDGE_CURVE('',#448,#448,#392,.T.);
#551=EDGE_CURVE('',#448,#413,#104,.T.);
#552=EDGE_CURVE('',#449,#449,#393,.T.);
#553=EDGE_CURVE('',#449,#412,#105,.T.);
#554=EDGE_CURVE('',#450,#450,#394,.T.);
#555=EDGE_CURVE('',#450,#411,#106,.T.);
#556=EDGE_CURVE('',#451,#451,#395,.T.);
#557=EDGE_CURVE('',#451,#410,#107,.T.);
#558=EDGE_CURVE('',#452,#453,#108,.T.);
#559=EDGE_CURVE('',#453,#446,#109,.T.);
#560=EDGE_CURVE('',#452,#445,#110,.T.);
#561=EDGE_CURVE('',#454,#455,#111,.T.);
#562=EDGE_CURVE('',#455,#447,#112,.T.);
#563=EDGE_CURVE('',#454,#444,#113,.T.);
#564=EDGE_CURVE('',#456,#457,#114,.T.);
#565=EDGE_CURVE('',#456,#458,#115,.T.);
#566=EDGE_CURVE('',#458,#459,#116,.T.);
#567=EDGE_CURVE('',#457,#459,#117,.T.);
#568=EDGE_CURVE('',#455,#458,#118,.T.);
#569=EDGE_CURVE('',#459,#454,#119,.T.);
#570=EDGE_CURVE('',#460,#456,#120,.T.);
#571=EDGE_CURVE('',#460,#461,#121,.T.);
#572=EDGE_CURVE('',#461,#452,#122,.T.);
#573=EDGE_CURVE('',#462,#460,#123,.T.);
#574=EDGE_CURVE('',#462,#463,#124,.T.);
#575=EDGE_CURVE('',#463,#461,#125,.T.);
#576=EDGE_CURVE('',#457,#462,#126,.T.);
#577=EDGE_CURVE('',#453,#463,#127,.T.);
#578=EDGE_CURVE('',#438,#464,#396,.T.);
#579=EDGE_CURVE('',#426,#464,#128,.T.);
#580=EDGE_CURVE('',#465,#466,#129,.T.);
#581=EDGE_CURVE('',#465,#467,#130,.T.);
#582=EDGE_CURVE('',#467,#468,#131,.T.);
#583=EDGE_CURVE('',#466,#468,#132,.T.);
#584=EDGE_CURVE('',#469,#465,#133,.T.);
#585=EDGE_CURVE('',#469,#470,#134,.T.);
#586=EDGE_CURVE('',#470,#467,#135,.T.);
#587=EDGE_CURVE('',#471,#469,#136,.T.);
#588=EDGE_CURVE('',#471,#472,#137,.T.);
#589=EDGE_CURVE('',#472,#470,#138,.T.);
#590=EDGE_CURVE('',#466,#471,#139,.T.);
#591=EDGE_CURVE('',#468,#472,#140,.T.);
#592=EDGE_CURVE('',#435,#473,#141,.T.);
#593=EDGE_CURVE('',#473,#437,#397,.T.);
#594=EDGE_CURVE('',#464,#473,#142,.T.);
#595=ORIENTED_EDGE('',*,*,#474,.T.);
#596=ORIENTED_EDGE('',*,*,#475,.T.);
#597=ORIENTED_EDGE('',*,*,#476,.T.);
#598=ORIENTED_EDGE('',*,*,#477,.T.);
#599=ORIENTED_EDGE('',*,*,#478,.T.);
#600=ORIENTED_EDGE('',*,*,#479,.T.);
#601=ORIENTED_EDGE('',*,*,#476,.F.);
#602=ORIENTED_EDGE('',*,*,#480,.T.);
#603=ORIENTED_EDGE('',*,*,#481,.T.);
#604=ORIENTED_EDGE('',*,*,#482,.T.);
#605=ORIENTED_EDGE('',*,*,#478,.F.);
#606=ORIENTED_EDGE('',*,*,#483,.T.);
#607=ORIENTED_EDGE('',*,*,#474,.F.);
#608=ORIENTED_EDGE('',*,*,#484,.T.);
#609=ORIENTED_EDGE('',*,*,#481,.F.);
#610=ORIENTED_EDGE('',*,*,#485,.T.);
#611=ORIENTED_EDGE('',*,*,#484,.F.);
#612=ORIENTED_EDGE('',*,*,#486,.T.);
#613=ORIENTED_EDGE('',*,*,#487,.F.);
#614=ORIENTED_EDGE('',*,*,#488,.F.);
#615=ORIENTED_EDGE('',*,*,#489,.F.);
#616=ORIENTED_EDGE('',*,*,#477,.F.);
#617=ORIENTED_EDGE('',*,*,#490,.T.);
#618=ORIENTED_EDGE('',*,*,#491,.F.);
#619=ORIENTED_EDGE('',*,*,#486,.F.);
#620=ORIENTED_EDGE('',*,*,#475,.F.);
#621=ORIENTED_EDGE('',*,*,#485,.F.);
#622=ORIENTED_EDGE('',*,*,#483,.F.);
#623=ORIENTED_EDGE('',*,*,#480,.F.);
#624=ORIENTED_EDGE('',*,*,#492,.T.);
#625=ORIENTED_EDGE('',*,*,#493,.T.);
#626=ORIENTED_EDGE('',*,*,#494,.T.);
#627=ORIENTED_EDGE('',*,*,#495,.T.);
#628=ORIENTED_EDGE('',*,*,#496,.T.);
#629=ORIENTED_EDGE('',*,*,#497,.T.);
#630=ORIENTED_EDGE('',*,*,#498,.T.);
#631=ORIENTED_EDGE('',*,*,#499,.T.);
#632=ORIENTED_EDGE('',*,*,#500,.T.);
#633=ORIENTED_EDGE('',*,*,#501,.T.);
#634=ORIENTED_EDGE('',*,*,#502,.T.);
#635=ORIENTED_EDGE('',*,*,#503,.T.);
#636=ORIENTED_EDGE('',*,*,#499,.F.);
#637=ORIENTED_EDGE('',*,*,#504,.T.);
#638=ORIENTED_EDGE('',*,*,#505,.T.);
#639=ORIENTED_EDGE('',*,*,#502,.F.);
#640=ORIENTED_EDGE('',*,*,#488,.T.);
#641=ORIENTED_EDGE('',*,*,#506,.T.);
#642=ORIENTED_EDGE('',*,*,#507,.T.);
#643=ORIENTED_EDGE('',*,*,#508,.T.);
#644=ORIENTED_EDGE('',*,*,#509,.T.);
#645=ORIENTED_EDGE('',*,*,#501,.F.);
#646=ORIENTED_EDGE('',*,*,#510,.T.);
#647=ORIENTED_EDGE('',*,*,#491,.T.);
#648=ORIENTED_EDGE('',*,*,#508,.F.);
#649=ORIENTED_EDGE('',*,*,#511,.T.);
#650=ORIENTED_EDGE('',*,*,#487,.T.);
#651=ORIENTED_EDGE('',*,*,#510,.F.);
#652=ORIENTED_EDGE('',*,*,#512,.T.);
#653=ORIENTED_EDGE('',*,*,#506,.F.);
#654=ORIENTED_EDGE('',*,*,#512,.F.);
#655=ORIENTED_EDGE('',*,*,#511,.F.);
#656=ORIENTED_EDGE('',*,*,#507,.F.);
#657=ORIENTED_EDGE('',*,*,#513,.F.);
#658=ORIENTED_EDGE('',*,*,#514,.T.);
#659=ORIENTED_EDGE('',*,*,#515,.T.);
#660=ORIENTED_EDGE('',*,*,#516,.T.);
#661=ORIENTED_EDGE('',*,*,#517,.F.);
#662=ORIENTED_EDGE('',*,*,#482,.F.);
#663=ORIENTED_EDGE('',*,*,#489,.T.);
#664=ORIENTED_EDGE('',*,*,#504,.F.);
#665=ORIENTED_EDGE('',*,*,#518,.F.);
#666=ORIENTED_EDGE('',*,*,#519,.F.);
#667=ORIENTED_EDGE('',*,*,#520,.T.);
#668=ORIENTED_EDGE('',*,*,#521,.F.);
#669=ORIENTED_EDGE('',*,*,#520,.F.);
#670=ORIENTED_EDGE('',*,*,#522,.F.);
#671=ORIENTED_EDGE('',*,*,#523,.T.);
#672=ORIENTED_EDGE('',*,*,#524,.F.);
#673=ORIENTED_EDGE('',*,*,#523,.F.);
#674=ORIENTED_EDGE('',*,*,#525,.F.);
#675=ORIENTED_EDGE('',*,*,#526,.T.);
#676=ORIENTED_EDGE('',*,*,#527,.F.);
#677=ORIENTED_EDGE('',*,*,#526,.F.);
#678=ORIENTED_EDGE('',*,*,#497,.F.);
#679=ORIENTED_EDGE('',*,*,#528,.T.);
#680=ORIENTED_EDGE('',*,*,#529,.T.);
#681=ORIENTED_EDGE('',*,*,#528,.F.);
#682=ORIENTED_EDGE('',*,*,#529,.F.);
#683=ORIENTED_EDGE('',*,*,#519,.T.);
#684=ORIENTED_EDGE('',*,*,#522,.T.);
#685=ORIENTED_EDGE('',*,*,#525,.T.);
#686=ORIENTED_EDGE('',*,*,#505,.F.);
#687=ORIENTED_EDGE('',*,*,#517,.T.);
#688=ORIENTED_EDGE('',*,*,#530,.T.);
#689=ORIENTED_EDGE('',*,*,#531,.T.);
#690=ORIENTED_EDGE('',*,*,#532,.T.);
#691=ORIENTED_EDGE('',*,*,#513,.T.);
#692=ORIENTED_EDGE('',*,*,#500,.F.);
#693=ORIENTED_EDGE('',*,*,#503,.F.);
#694=ORIENTED_EDGE('',*,*,#514,.F.);
#695=ORIENTED_EDGE('',*,*,#532,.F.);
#696=ORIENTED_EDGE('',*,*,#533,.T.);
#697=ORIENTED_EDGE('',*,*,#534,.T.);
#698=ORIENTED_EDGE('',*,*,#535,.F.);
#699=ORIENTED_EDGE('',*,*,#536,.F.);
#700=ORIENTED_EDGE('',*,*,#537,.T.);
#701=ORIENTED_EDGE('',*,*,#538,.F.);
#702=ORIENTED_EDGE('',*,*,#537,.F.);
#703=ORIENTED_EDGE('',*,*,#536,.T.);
#704=ORIENTED_EDGE('',*,*,#521,.T.);
#705=ORIENTED_EDGE('',*,*,#524,.T.);
#706=ORIENTED_EDGE('',*,*,#527,.T.);
#707=ORIENTED_EDGE('',*,*,#496,.F.);
#708=ORIENTED_EDGE('',*,*,#539,.T.);
#709=ORIENTED_EDGE('',*,*,#540,.F.);
#710=ORIENTED_EDGE('',*,*,#541,.F.);
#711=ORIENTED_EDGE('',*,*,#542,.F.);
#712=ORIENTED_EDGE('',*,*,#539,.F.);
#713=ORIENTED_EDGE('',*,*,#542,.T.);
#714=ORIENTED_EDGE('',*,*,#543,.F.);
#715=ORIENTED_EDGE('',*,*,#544,.F.);
#716=ORIENTED_EDGE('',*,*,#541,.T.);
#717=ORIENTED_EDGE('',*,*,#545,.F.);
#718=ORIENTED_EDGE('',*,*,#546,.F.);
#719=ORIENTED_EDGE('',*,*,#547,.F.);
#720=ORIENTED_EDGE('',*,*,#540,.T.);
#721=ORIENTED_EDGE('',*,*,#548,.F.);
#722=ORIENTED_EDGE('',*,*,#549,.F.);
#723=ORIENTED_EDGE('',*,*,#550,.F.);
#724=ORIENTED_EDGE('',*,*,#551,.T.);
#725=ORIENTED_EDGE('',*,*,#495,.F.);
#726=ORIENTED_EDGE('',*,*,#551,.F.);
#727=ORIENTED_EDGE('',*,*,#552,.F.);
#728=ORIENTED_EDGE('',*,*,#553,.T.);
#729=ORIENTED_EDGE('',*,*,#494,.F.);
#730=ORIENTED_EDGE('',*,*,#553,.F.);
#731=ORIENTED_EDGE('',*,*,#554,.F.);
#732=ORIENTED_EDGE('',*,*,#555,.T.);
#733=ORIENTED_EDGE('',*,*,#493,.F.);
#734=ORIENTED_EDGE('',*,*,#555,.F.);
#735=ORIENTED_EDGE('',*,*,#556,.F.);
#736=ORIENTED_EDGE('',*,*,#557,.T.);
#737=ORIENTED_EDGE('',*,*,#492,.F.);
#738=ORIENTED_EDGE('',*,*,#557,.F.);
#739=ORIENTED_EDGE('',*,*,#558,.T.);
#740=ORIENTED_EDGE('',*,*,#559,.T.);
#741=ORIENTED_EDGE('',*,*,#546,.T.);
#742=ORIENTED_EDGE('',*,*,#560,.F.);
#743=ORIENTED_EDGE('',*,*,#561,.T.);
#744=ORIENTED_EDGE('',*,*,#562,.T.);
#745=ORIENTED_EDGE('',*,*,#548,.T.);
#746=ORIENTED_EDGE('',*,*,#544,.T.);
#747=ORIENTED_EDGE('',*,*,#563,.F.);
#748=ORIENTED_EDGE('',*,*,#564,.F.);
#749=ORIENTED_EDGE('',*,*,#565,.T.);
#750=ORIENTED_EDGE('',*,*,#566,.T.);
#751=ORIENTED_EDGE('',*,*,#567,.F.);
#752=ORIENTED_EDGE('',*,*,#568,.F.);
#753=ORIENTED_EDGE('',*,*,#561,.F.);
#754=ORIENTED_EDGE('',*,*,#569,.F.);
#755=ORIENTED_EDGE('',*,*,#566,.F.);
#756=ORIENTED_EDGE('',*,*,#550,.T.);
#757=ORIENTED_EDGE('',*,*,#554,.T.);
#758=ORIENTED_EDGE('',*,*,#570,.F.);
#759=ORIENTED_EDGE('',*,*,#571,.T.);
#760=ORIENTED_EDGE('',*,*,#572,.T.);
#761=ORIENTED_EDGE('',*,*,#560,.T.);
#762=ORIENTED_EDGE('',*,*,#545,.T.);
#763=ORIENTED_EDGE('',*,*,#549,.T.);
#764=ORIENTED_EDGE('',*,*,#562,.F.);
#765=ORIENTED_EDGE('',*,*,#568,.T.);
#766=ORIENTED_EDGE('',*,*,#565,.F.);
#767=ORIENTED_EDGE('',*,*,#573,.F.);
#768=ORIENTED_EDGE('',*,*,#574,.T.);
#769=ORIENTED_EDGE('',*,*,#575,.T.);
#770=ORIENTED_EDGE('',*,*,#571,.F.);
#771=ORIENTED_EDGE('',*,*,#576,.F.);
#772=ORIENTED_EDGE('',*,*,#567,.T.);
#773=ORIENTED_EDGE('',*,*,#569,.T.);
#774=ORIENTED_EDGE('',*,*,#563,.T.);
#775=ORIENTED_EDGE('',*,*,#543,.T.);
#776=ORIENTED_EDGE('',*,*,#547,.T.);
#777=ORIENTED_EDGE('',*,*,#559,.F.);
#778=ORIENTED_EDGE('',*,*,#577,.T.);
#779=ORIENTED_EDGE('',*,*,#574,.F.);
#780=ORIENTED_EDGE('',*,*,#577,.F.);
#781=ORIENTED_EDGE('',*,*,#558,.F.);
#782=ORIENTED_EDGE('',*,*,#572,.F.);
#783=ORIENTED_EDGE('',*,*,#575,.F.);
#784=ORIENTED_EDGE('',*,*,#552,.T.);
#785=ORIENTED_EDGE('',*,*,#556,.T.);
#786=ORIENTED_EDGE('',*,*,#515,.F.);
#787=ORIENTED_EDGE('',*,*,#535,.T.);
#788=ORIENTED_EDGE('',*,*,#578,.T.);
#789=ORIENTED_EDGE('',*,*,#579,.F.);
#790=ORIENTED_EDGE('',*,*,#580,.F.);
#791=ORIENTED_EDGE('',*,*,#581,.T.);
#792=ORIENTED_EDGE('',*,*,#582,.T.);
#793=ORIENTED_EDGE('',*,*,#583,.F.);
#794=ORIENTED_EDGE('',*,*,#584,.F.);
#795=ORIENTED_EDGE('',*,*,#585,.T.);
#796=ORIENTED_EDGE('',*,*,#586,.T.);
#797=ORIENTED_EDGE('',*,*,#581,.F.);
#798=ORIENTED_EDGE('',*,*,#587,.F.);
#799=ORIENTED_EDGE('',*,*,#588,.T.);
#800=ORIENTED_EDGE('',*,*,#589,.T.);
#801=ORIENTED_EDGE('',*,*,#585,.F.);
#802=ORIENTED_EDGE('',*,*,#590,.F.);
#803=ORIENTED_EDGE('',*,*,#583,.T.);
#804=ORIENTED_EDGE('',*,*,#591,.T.);
#805=ORIENTED_EDGE('',*,*,#588,.F.);
#806=ORIENTED_EDGE('',*,*,#531,.F.);
#807=ORIENTED_EDGE('',*,*,#592,.T.);
#808=ORIENTED_EDGE('',*,*,#593,.T.);
#809=ORIENTED_EDGE('',*,*,#533,.F.);
#810=ORIENTED_EDGE('',*,*,#516,.F.);
#811=ORIENTED_EDGE('',*,*,#579,.T.);
#812=ORIENTED_EDGE('',*,*,#594,.T.);
#813=ORIENTED_EDGE('',*,*,#592,.F.);
#814=ORIENTED_EDGE('',*,*,#530,.F.);
#815=ORIENTED_EDGE('',*,*,#594,.F.);
#816=ORIENTED_EDGE('',*,*,#578,.F.);
#817=ORIENTED_EDGE('',*,*,#534,.F.);
#818=ORIENTED_EDGE('',*,*,#593,.F.);
#819=ORIENTED_EDGE('',*,*,#538,.T.);
#820=ORIENTED_EDGE('',*,*,#591,.F.);
#821=ORIENTED_EDGE('',*,*,#582,.F.);
#822=ORIENTED_EDGE('',*,*,#586,.F.);
#823=ORIENTED_EDGE('',*,*,#589,.F.);
#824=ORIENTED_EDGE('',*,*,#479,.F.);
#825=ORIENTED_EDGE('',*,*,#518,.T.);
#826=ORIENTED_EDGE('',*,*,#498,.F.);
#827=ORIENTED_EDGE('',*,*,#509,.F.);
#828=ORIENTED_EDGE('',*,*,#490,.F.);
#829=ORIENTED_EDGE('',*,*,#580,.T.);
#830=ORIENTED_EDGE('',*,*,#590,.T.);
#831=ORIENTED_EDGE('',*,*,#587,.T.);
#832=ORIENTED_EDGE('',*,*,#584,.T.);
#833=ORIENTED_EDGE('',*,*,#576,.T.);
#834=ORIENTED_EDGE('',*,*,#573,.T.);
#835=ORIENTED_EDGE('',*,*,#570,.T.);
#836=ORIENTED_EDGE('',*,*,#564,.T.);
#837=TOROIDAL_SURFACE('',#910,28.,2.);
#838=TOROIDAL_SURFACE('',#917,28.,2.);
#839=TOROIDAL_SURFACE('',#935,28.,2.);
#840=ADVANCED_FACE('',(#240),#837,.T.);
#841=ADVANCED_FACE('',(#241),#220,.T.);
#842=ADVANCED_FACE('',(#242),#838,.T.);
#843=ADVANCED_FACE('',(#243),#221,.T.);
#844=ADVANCED_FACE('',(#244),#40,.T.);
#845=ADVANCED_FACE('',(#245),#222,.T.);
#846=ADVANCED_FACE('',(#246,#16,#17,#18,#19,#20,#21),#41,.F.);
#847=ADVANCED_FACE('',(#247),#223,.T.);
#848=ADVANCED_FACE('',(#248),#839,.T.);
#849=ADVANCED_FACE('',(#249),#224,.T.);
#850=ADVANCED_FACE('',(#250),#225,.T.);
#851=ADVANCED_FACE('',(#251),#15,.F.);
#852=ADVANCED_FACE('',(#252),#226,.T.);
#853=ADVANCED_FACE('',(#253),#42,.F.);
#854=ADVANCED_FACE('',(#254),#227,.T.);
#855=ADVANCED_FACE('',(#255),#228,.F.);
#856=ADVANCED_FACE('',(#256),#229,.F.);
#857=ADVANCED_FACE('',(#257),#230,.F.);
#858=ADVANCED_FACE('',(#258),#231,.F.);
#859=ADVANCED_FACE('',(#259,#22,#23,#24),#43,.T.);
#860=ADVANCED_FACE('',(#260),#44,.T.);
#861=ADVANCED_FACE('',(#261),#45,.F.);
#862=ADVANCED_FACE('',(#262),#232,.T.);
#863=ADVANCED_FACE('',(#263,#25,#26,#27),#46,.F.);
#864=ADVANCED_FACE('',(#264),#233,.F.);
#865=ADVANCED_FACE('',(#265),#47,.F.);
#866=ADVANCED_FACE('',(#266),#48,.F.);
#867=ADVANCED_FACE('',(#267),#49,.F.);
#868=ADVANCED_FACE('',(#268),#234,.F.);
#869=ADVANCED_FACE('',(#269),#235,.F.);
#870=ADVANCED_FACE('',(#270),#236,.F.);
#871=ADVANCED_FACE('',(#271),#237,.F.);
#872=ADVANCED_FACE('',(#272),#50,.F.);
#873=ADVANCED_FACE('',(#273),#51,.F.);
#874=ADVANCED_FACE('',(#274),#52,.F.);
#875=ADVANCED_FACE('',(#275,#28,#29),#53,.F.);
#876=ADVANCED_FACE('',(#276),#54,.F.);
#877=ADVANCED_FACE('',(#277),#55,.F.);
#878=ADVANCED_FACE('',(#278),#56,.F.);
#879=ADVANCED_FACE('',(#279,#30,#31),#57,.F.);
#880=ADVANCED_FACE('',(#280),#238,.F.);
#881=ADVANCED_FACE('',(#281),#58,.F.);
#882=ADVANCED_FACE('',(#282),#59,.F.);
#883=ADVANCED_FACE('',(#283),#60,.F.);
#884=ADVANCED_FACE('',(#284),#61,.F.);
#885=ADVANCED_FACE('',(#285),#239,.F.);
#886=ADVANCED_FACE('',(#286),#62,.F.);
#887=ADVANCED_FACE('',(#287,#32,#33),#63,.T.);
#888=ADVANCED_FACE('',(#288),#64,.T.);
#889=ADVANCED_FACE('',(#289,#34),#65,.T.);
#890=CLOSED_SHELL('',(#840,#841,#842,#843,#844,#845,#846,#847,#848,#849,
#850,#851,#852,#853,#854,#855,#856,#857,#858,#859,#860,#861,#862,#863,#864,
#865,#866,#867,#868,#869,#870,#871,#872,#873,#874,#875,#876,#877,#878,#879,
#880,#881,#882,#883,#884,#885,#886,#887,#888,#889));
#891=DERIVED_UNIT_ELEMENT(#893,1.);
#892=DERIVED_UNIT_ELEMENT(#1570,3.);
#893=(
MASS_UNIT()
NAMED_UNIT(*)
SI_UNIT($,.GRAM.)
);
#894=DERIVED_UNIT((#891,#892));
#895=MEASURE_REPRESENTATION_ITEM('density measure',
POSITIVE_RATIO_MEASURE(1.06),#894);
#896=PROPERTY_DEFINITION_REPRESENTATION(#901,#898);
#897=PROPERTY_DEFINITION_REPRESENTATION(#902,#899);
#898=REPRESENTATION('material name',(#900),#1567);
#899=REPRESENTATION('density',(#895),#1567);
#900=DESCRIPTIVE_REPRESENTATION_ITEM('ABS Plastic','ABS Plastic');
#901=PROPERTY_DEFINITION('material property','material name',#1577);
#902=PROPERTY_DEFINITION('material property','density of part',#1577);
#903=DATE_TIME_ROLE('creation_date');
#904=APPLIED_DATE_AND_TIME_ASSIGNMENT(#905,#903,(#1577));
#905=DATE_AND_TIME(#906,#907);
#906=CALENDAR_DATE(2025,3,11);
#907=LOCAL_TIME(0,0,0.,#908);
#908=COORDINATED_UNIVERSAL_TIME_OFFSET(0,0,.BEHIND.);
#909=AXIS2_PLACEMENT_3D('placement',#1268,#1003,#1004);
#910=AXIS2_PLACEMENT_3D('',#1269,#1005,#1006);
#911=AXIS2_PLACEMENT_3D('',#1272,#1007,#1008);
#912=AXIS2_PLACEMENT_3D('',#1274,#1009,#1010);
#913=AXIS2_PLACEMENT_3D('',#1276,#1011,#1012);
#914=AXIS2_PLACEMENT_3D('',#1277,#1013,#1014);
#915=AXIS2_PLACEMENT_3D('',#1278,#1015,#1016);
#916=AXIS2_PLACEMENT_3D('',#1281,#1017,#1018);
#917=AXIS2_PLACEMENT_3D('',#1284,#1021,#1022);
#918=AXIS2_PLACEMENT_3D('',#1287,#1023,#1024);
#919=AXIS2_PLACEMENT_3D('',#1288,#1025,#1026);
#920=AXIS2_PLACEMENT_3D('',#1289,#1027,#1028);
#921=AXIS2_PLACEMENT_3D('',#1290,#1029,#1030);
#922=AXIS2_PLACEMENT_3D('',#1293,#1033,#1034);
#923=AXIS2_PLACEMENT_3D('',#1301,#1039,#1040);
#924=AXIS2_PLACEMENT_3D('',#1304,#1042,#1043);
#925=AXIS2_PLACEMENT_3D('',#1305,#1044,#1045);
#926=AXIS2_PLACEMENT_3D('',#1307,#1046,#1047);
#927=AXIS2_PLACEMENT_3D('',#1309,#1048,#1049);
#928=AXIS2_PLACEMENT_3D('',#1311,#1050,#1051);
#929=AXIS2_PLACEMENT_3D('',#1313,#1052,#1053);
#930=AXIS2_PLACEMENT_3D('',#1315,#1054,#1055);
#931=AXIS2_PLACEMENT_3D('',#1317,#1056,#1057);
#932=AXIS2_PLACEMENT_3D('',#1318,#1058,#1059);
#933=AXIS2_PLACEMENT_3D('',#1323,#1061,#1062);
#934=AXIS2_PLACEMENT_3D('',#1326,#1064,#1065);
#935=AXIS2_PLACEMENT_3D('',#1327,#1066,#1067);
#936=AXIS2_PLACEMENT_3D('',#1329,#1068,#1069);
#937=AXIS2_PLACEMENT_3D('',#1330,#1070,#1071);
#938=AXIS2_PLACEMENT_3D('',#1331,#1072,#1073);
#939=AXIS2_PLACEMENT_3D('',#1332,#1074,#1075);
#940=AXIS2_PLACEMENT_3D('',#1335,#1077,#1078);
#941=AXIS2_PLACEMENT_3D('',#1336,#1079,#1080);
#942=AXIS2_PLACEMENT_3D('',#1339,#1082,#1083);
#943=AXIS2_PLACEMENT_3D('',#1392,#1085,#1086);
#944=AXIS2_PLACEMENT_3D('',#1393,#1087,#1088);
#945=AXIS2_PLACEMENT_3D('',#1394,#1089,#1090);
#946=AXIS2_PLACEMENT_3D('',#1396,#1092,#1093);
#947=AXIS2_PLACEMENT_3D('',#1402,#1096,#1097);
#948=AXIS2_PLACEMENT_3D('',#1406,#1100,#1101);
#949=AXIS2_PLACEMENT_3D('',#1408,#1103,#1104);
#950=AXIS2_PLACEMENT_3D('',#1410,#1105,#1106);
#951=AXIS2_PLACEMENT_3D('',#1413,#1108,#1109);
#952=AXIS2_PLACEMENT_3D('',#1414,#1110,#1111);
#953=AXIS2_PLACEMENT_3D('',#1416,#1112,#1113);
#954=AXIS2_PLACEMENT_3D('',#1419,#1115,#1116);
#955=AXIS2_PLACEMENT_3D('',#1420,#1117,#1118);
#956=AXIS2_PLACEMENT_3D('',#1422,#1119,#1120);
#957=AXIS2_PLACEMENT_3D('',#1425,#1122,#1123);
#958=AXIS2_PLACEMENT_3D('',#1426,#1124,#1125);
#959=AXIS2_PLACEMENT_3D('',#1429,#1127,#1128);
#960=AXIS2_PLACEMENT_3D('',#1430,#1129,#1130);
#961=AXIS2_PLACEMENT_3D('',#1431,#1131,#1132);
#962=AXIS2_PLACEMENT_3D('',#1435,#1134,#1135);
#963=AXIS2_PLACEMENT_3D('',#1437,#1137,#1138);
#964=AXIS2_PLACEMENT_3D('',#1443,#1142,#1143);
#965=AXIS2_PLACEMENT_3D('',#1445,#1144,#1145);
#966=AXIS2_PLACEMENT_3D('',#1448,#1147,#1148);
#967=AXIS2_PLACEMENT_3D('',#1449,#1149,#1150);
#968=AXIS2_PLACEMENT_3D('',#1450,#1151,#1152);
#969=AXIS2_PLACEMENT_3D('',#1454,#1154,#1155);
#970=AXIS2_PLACEMENT_3D('',#1456,#1156,#1157);
#971=AXIS2_PLACEMENT_3D('',#1457,#1158,#1159);
#972=AXIS2_PLACEMENT_3D('',#1458,#1160,#1161);
#973=AXIS2_PLACEMENT_3D('',#1462,#1164,#1165);
#974=AXIS2_PLACEMENT_3D('',#1468,#1169,#1170);
#975=AXIS2_PLACEMENT_3D('',#1472,#1173,#1174);
#976=AXIS2_PLACEMENT_3D('',#1474,#1175,#1176);
#977=AXIS2_PLACEMENT_3D('',#1476,#1178,#1179);
#978=AXIS2_PLACEMENT_3D('',#1478,#1180,#1181);
#979=AXIS2_PLACEMENT_3D('',#1480,#1183,#1184);
#980=AXIS2_PLACEMENT_3D('',#1482,#1185,#1186);
#981=AXIS2_PLACEMENT_3D('',#1484,#1188,#1189);
#982=AXIS2_PLACEMENT_3D('',#1486,#1190,#1191);
#983=AXIS2_PLACEMENT_3D('',#1488,#1193,#1194);
#984=AXIS2_PLACEMENT_3D('',#1494,#1198,#1199);
#985=AXIS2_PLACEMENT_3D('',#1500,#1203,#1204);
#986=AXIS2_PLACEMENT_3D('',#1509,#1209,#1210);
#987=AXIS2_PLACEMENT_3D('',#1512,#1213,#1214);
#988=AXIS2_PLACEMENT_3D('',#1518,#1218,#1219);
#989=AXIS2_PLACEMENT_3D('',#1524,#1223,#1224);
#990=AXIS2_PLACEMENT_3D('',#1527,#1227,#1228);
#991=AXIS2_PLACEMENT_3D('',#1528,#1229,#1230);
#992=AXIS2_PLACEMENT_3D('',#1530,#1231,#1232);
#993=AXIS2_PLACEMENT_3D('',#1532,#1234,#1235);
#994=AXIS2_PLACEMENT_3D('',#1541,#1240,#1241);
#995=AXIS2_PLACEMENT_3D('',#1547,#1245,#1246);
#996=AXIS2_PLACEMENT_3D('',#1553,#1250,#1251);
#997=AXIS2_PLACEMENT_3D('',#1556,#1254,#1255);
#998=AXIS2_PLACEMENT_3D('',#1559,#1257,#1258);
#999=AXIS2_PLACEMENT_3D('',#1560,#1259,#1260);
#1000=AXIS2_PLACEMENT_3D('',#1562,#1262,#1263);
#1001=AXIS2_PLACEMENT_3D('',#1563,#1264,#1265);
#1002=AXIS2_PLACEMENT_3D('',#1564,#1266,#1267);
#1003=DIRECTION('axis',(0.,0.,1.));
#1004=DIRECTION('refdir',(1.,0.,0.));
#1005=DIRECTION('center_axis',(0.,0.,1.));
#1006=DIRECTION('ref_axis',(-1.,1.22464679914735E-16,0.));
#1007=DIRECTION('center_axis',(-1.,0.,0.));
#1008=DIRECTION('ref_axis',(0.,1.,0.));
#1009=DIRECTION('center_axis',(0.,0.,1.));
#1010=DIRECTION('ref_axis',(-1.,6.12323399573677E-17,0.));
#1011=DIRECTION('center_axis',(-1.,0.,0.));
#1012=DIRECTION('ref_axis',(0.,0.,-1.));
#1013=DIRECTION('center_axis',(0.,0.,-1.));
#1014=DIRECTION('ref_axis',(-1.,6.12323399573677E-17,0.));
#1015=DIRECTION('center_axis',(1.,1.33226762955019E-16,0.));
#1016=DIRECTION('ref_axis',(0.,-0.707106781186548,-0.707106781186547));
#1017=DIRECTION('center_axis',(-1.,0.,0.));
#1018=DIRECTION('ref_axis',(0.,0.,-1.));
#1019=DIRECTION('',(-1.,-1.33226762955019E-16,0.));
#1020=DIRECTION('',(1.,1.33226762955019E-16,0.));
#1021=DIRECTION('center_axis',(0.,0.,1.));
#1022=DIRECTION('ref_axis',(1.,0.,0.));
#1023=DIRECTION('center_axis',(1.,0.,0.));
#1024=DIRECTION('ref_axis',(0.,0.,-1.));
#1025=DIRECTION('center_axis',(0.,0.,-1.));
#1026=DIRECTION('ref_axis',(1.,-6.12323399573677E-17,0.));
#1027=DIRECTION('center_axis',(0.,0.,1.));
#1028=DIRECTION('ref_axis',(1.,-6.12323399573677E-17,0.));
#1029=DIRECTION('center_axis',(-1.,0.,0.));
#1030=DIRECTION('ref_axis',(0.,0.707106781186548,-0.707106781186547));
#1031=DIRECTION('',(1.,0.,0.));
#1032=DIRECTION('',(-1.,0.,0.));
#1033=DIRECTION('center_axis',(0.,1.,0.));
#1034=DIRECTION('ref_axis',(-1.,0.,0.));
#1035=DIRECTION('',(0.,0.,1.));
#1036=DIRECTION('',(-0.923076923076923,0.,-0.384615384615385));
#1037=DIRECTION('',(-1.,0.,0.));
#1038=DIRECTION('',(0.,0.,1.));
#1039=DIRECTION('center_axis',(0.,0.,1.));
#1040=DIRECTION('ref_axis',(0.,1.,0.));
#1041=DIRECTION('',(0.,0.,1.));
#1042=DIRECTION('center_axis',(-0.362446261154949,0.,0.932004671541296));
#1043=DIRECTION('ref_axis',(-0.932004671541296,0.,-0.362446261154949));
#1044=DIRECTION('center_axis',(0.,0.,1.));
#1045=DIRECTION('ref_axis',(1.,0.,0.));
#1046=DIRECTION('center_axis',(0.,0.,1.));
#1047=DIRECTION('ref_axis',(1.,0.,0.));
#1048=DIRECTION('center_axis',(0.,0.,1.));
#1049=DIRECTION('ref_axis',(1.,0.,0.));
#1050=DIRECTION('center_axis',(0.,0.,1.));
#1051=DIRECTION('ref_axis',(1.,0.,0.));
#1052=DIRECTION('center_axis',(0.,0.,1.));
#1053=DIRECTION('ref_axis',(1.,0.,0.));
#1054=DIRECTION('center_axis',(0.,0.,1.));
#1055=DIRECTION('ref_axis',(-1.,0.,0.));
#1056=DIRECTION('center_axis',(0.,0.,1.));
#1057=DIRECTION('ref_axis',(-1.,0.,0.));
#1058=DIRECTION('center_axis',(1.,1.33226762955019E-16,0.));
#1059=DIRECTION('ref_axis',(0.,-0.707106781186548,0.707106781186548));
#1060=DIRECTION('',(1.,1.33226762955019E-16,0.));
#1061=DIRECTION('center_axis',(-1.,0.,0.));
#1062=DIRECTION('ref_axis',(0.,-1.,0.));
#1063=DIRECTION('',(-1.,-1.33226762955019E-16,0.));
#1064=DIRECTION('center_axis',(0.980580675690924,0.,0.196116135138163));
#1065=DIRECTION('ref_axis',(-0.196116135138163,-6.79325864040514E-16,0.980580675690924));
#1066=DIRECTION('center_axis',(0.,0.,1.));
#1067=DIRECTION('ref_axis',(1.,0.,0.));
#1068=DIRECTION('center_axis',(1.,0.,0.));
#1069=DIRECTION('ref_axis',(0.,1.,0.));
#1070=DIRECTION('center_axis',(0.,0.,-1.));
#1071=DIRECTION('ref_axis',(1.,-6.12323399573677E-17,0.));
#1072=DIRECTION('center_axis',(0.,0.,1.));
#1073=DIRECTION('ref_axis',(1.,-6.12323399573677E-17,0.));
#1074=DIRECTION('center_axis',(-1.,0.,0.));
#1075=DIRECTION('ref_axis',(0.,0.707106781186548,0.707106781186548));
#1076=DIRECTION('',(1.,0.,0.));
#1077=DIRECTION('center_axis',(0.980580675690926,-8.70930594923647E-15,
0.196116135138155));
#1078=DIRECTION('ref_axis',(0.196116135138155,4.35465297461891E-14,-0.980580675690926));
#1079=DIRECTION('center_axis',(-0.923076923076923,-1.22978550420017E-16,
-0.384615384615385));
#1080=DIRECTION('ref_axis',(-0.27196414661021,-0.707106781186549,0.652713951864504));
#1081=DIRECTION('',(-0.923076923076923,-1.22978550420017E-16,-0.384615384615385));
#1082=DIRECTION('center_axis',(0.923076923076923,0.,0.384615384615384));
#1083=DIRECTION('ref_axis',(-0.384615384615384,0.,0.923076923076923));
#1084=DIRECTION('',(0.923076923076923,1.22978550420017E-16,0.384615384615385));
#1085=DIRECTION('center_axis',(-0.923076923076923,0.,-0.384615384615385));
#1086=DIRECTION('ref_axis',(-0.384615384615385,0.,0.923076923076923));
#1087=DIRECTION('center_axis',(0.384615384615385,0.,-0.923076923076923));
#1088=DIRECTION('ref_axis',(-0.923076923076923,0.,-0.384615384615385));
#1089=DIRECTION('center_axis',(0.923076923076923,0.,0.384615384615385));
#1090=DIRECTION('ref_axis',(-0.27196414661021,0.707106781186549,0.652713951864504));
#1091=DIRECTION('',(0.923076923076923,0.,0.384615384615385));
#1092=DIRECTION('center_axis',(0.384615384615385,0.,-0.923076923076923));
#1093=DIRECTION('ref_axis',(-0.923076923076923,-1.22978550420017E-16,-0.384615384615385));
#1094=DIRECTION('',(0.,-1.,0.));
#1095=DIRECTION('',(-0.923076923076923,0.,-0.384615384615385));
#1096=DIRECTION('center_axis',(0.384615384615385,0.,-0.923076923076923));
#1097=DIRECTION('ref_axis',(0.923076923076923,0.,0.384615384615385));
#1098=DIRECTION('',(0.923076923076923,0.,0.384615384615385));
#1099=DIRECTION('',(0.,-1.,0.));
#1100=DIRECTION('center_axis',(0.,0.,1.));
#1101=DIRECTION('ref_axis',(0.,-1.,0.));
#1102=DIRECTION('',(0.,0.,1.));
#1103=DIRECTION('center_axis',(0.,0.,1.));
#1104=DIRECTION('ref_axis',(-1.,0.,0.));
#1105=DIRECTION('center_axis',(0.,0.,1.));
#1106=DIRECTION('ref_axis',(-1.,0.,0.));
#1107=DIRECTION('',(0.,0.,1.));
#1108=DIRECTION('center_axis',(0.,0.,-1.));
#1109=DIRECTION('ref_axis',(-1.,0.,0.));
#1110=DIRECTION('center_axis',(0.,0.,1.));
#1111=DIRECTION('ref_axis',(-1.,0.,0.));
#1112=DIRECTION('center_axis',(0.,0.,1.));
#1113=DIRECTION('ref_axis',(-1.,0.,0.));
#1114=DIRECTION('',(0.,0.,1.));
#1115=DIRECTION('center_axis',(0.,0.,-1.));
#1116=DIRECTION('ref_axis',(-1.,0.,0.));
#1117=DIRECTION('center_axis',(0.,0.,1.));
#1118=DIRECTION('ref_axis',(-1.,0.,0.));
#1119=DIRECTION('center_axis',(0.,0.,1.));
#1120=DIRECTION('ref_axis',(-1.,0.,0.));
#1121=DIRECTION('',(0.,0.,1.));
#1122=DIRECTION('center_axis',(0.,0.,-1.));
#1123=DIRECTION('ref_axis',(-1.,0.,0.));
#1124=DIRECTION('center_axis',(0.,0.,1.));
#1125=DIRECTION('ref_axis',(-1.,0.,0.));
#1126=DIRECTION('',(0.,0.,1.));
#1127=DIRECTION('center_axis',(0.,0.,1.));
#1128=DIRECTION('ref_axis',(-1.,0.,0.));
#1129=DIRECTION('center_axis',(0.,0.,-1.));
#1130=DIRECTION('ref_axis',(-1.,0.,0.));
#1131=DIRECTION('center_axis',(0.,0.,1.));
#1132=DIRECTION('ref_axis',(1.,0.,0.));
#1133=DIRECTION('',(1.,0.,0.));
#1134=DIRECTION('center_axis',(0.,0.,-1.));
#1135=DIRECTION('ref_axis',(0.,-1.,0.));
#1136=DIRECTION('',(-1.,0.,0.));
#1137=DIRECTION('center_axis',(0.,-1.,0.));
#1138=DIRECTION('ref_axis',(-1.,0.,0.));
#1139=DIRECTION('',(0.,0.,-1.));
#1140=DIRECTION('',(-1.,0.,0.));
#1141=DIRECTION('',(0.,0.,-1.));
#1142=DIRECTION('center_axis',(0.,0.,1.));
#1143=DIRECTION('ref_axis',(-1.,0.,0.));
#1144=DIRECTION('center_axis',(0.,0.,1.));
#1145=DIRECTION('ref_axis',(-1.,0.,0.));
#1146=DIRECTION('',(0.,0.,-1.));
#1147=DIRECTION('center_axis',(0.,0.,-1.));
#1148=DIRECTION('ref_axis',(-1.,0.,0.));
#1149=DIRECTION('center_axis',(0.,0.,-1.));
#1150=DIRECTION('ref_axis',(-1.,0.,0.));
#1151=DIRECTION('center_axis',(0.,0.,1.));
#1152=DIRECTION('ref_axis',(-1.,0.,0.));
#1153=DIRECTION('',(0.,0.,1.));
#1154=DIRECTION('center_axis',(0.,0.,-1.));
#1155=DIRECTION('ref_axis',(-1.,0.,0.));
#1156=DIRECTION('center_axis',(0.,0.,-1.));
#1157=DIRECTION('ref_axis',(-1.,0.,0.));
#1158=DIRECTION('center_axis',(0.,0.,-1.));
#1159=DIRECTION('ref_axis',(-1.,0.,0.));
#1160=DIRECTION('center_axis',(0.,0.,-1.));
#1161=DIRECTION('ref_axis',(-1.,0.,0.));
#1162=DIRECTION('',(-1.,3.70074341541719E-16,0.));
#1163=DIRECTION('',(0.,-1.,0.));
#1164=DIRECTION('center_axis',(0.,0.,-1.));
#1165=DIRECTION('ref_axis',(-1.,0.,0.));
#1166=DIRECTION('',(1.,0.,0.));
#1167=DIRECTION('',(0.,1.,0.));
#1168=DIRECTION('',(-1.,3.70074341541719E-16,0.));
#1169=DIRECTION('center_axis',(0.,0.,-1.));
#1170=DIRECTION('ref_axis',(-1.,0.,0.));
#1171=DIRECTION('',(0.,-1.,0.));
#1172=DIRECTION('',(1.,0.,0.));
#1173=DIRECTION('center_axis',(0.,0.,-1.));
#1174=DIRECTION('ref_axis',(1.,0.,0.));
#1175=DIRECTION('center_axis',(0.,0.,-1.));
#1176=DIRECTION('ref_axis',(1.,0.,0.));
#1177=DIRECTION('',(0.,0.,-1.));
#1178=DIRECTION('center_axis',(0.,0.,-1.));
#1179=DIRECTION('ref_axis',(1.,0.,0.));
#1180=DIRECTION('center_axis',(0.,0.,-1.));
#1181=DIRECTION('ref_axis',(1.,0.,0.));
#1182=DIRECTION('',(0.,0.,-1.));
#1183=DIRECTION('center_axis',(0.,0.,-1.));
#1184=DIRECTION('ref_axis',(1.,0.,0.));
#1185=DIRECTION('center_axis',(0.,0.,-1.));
#1186=DIRECTION('ref_axis',(1.,0.,0.));
#1187=DIRECTION('',(0.,0.,-1.));
#1188=DIRECTION('center_axis',(0.,0.,-1.));
#1189=DIRECTION('ref_axis',(1.,0.,0.));
#1190=DIRECTION('center_axis',(0.,0.,-1.));
#1191=DIRECTION('ref_axis',(1.,0.,0.));
#1192=DIRECTION('',(0.,0.,-1.));
#1193=DIRECTION('center_axis',(-1.,0.,0.));
#1194=DIRECTION('ref_axis',(0.,1.,0.));
#1195=DIRECTION('',(0.,-1.,0.));
#1196=DIRECTION('',(0.,0.,-1.));
#1197=DIRECTION('',(0.,0.,-1.));
#1198=DIRECTION('center_axis',(1.,0.,0.));
#1199=DIRECTION('ref_axis',(0.,-1.,0.));
#1200=DIRECTION('',(0.,1.,0.));
#1201=DIRECTION('',(0.,0.,-1.));
#1202=DIRECTION('',(0.,0.,-1.));
#1203=DIRECTION('center_axis',(1.,0.,0.));
#1204=DIRECTION('ref_axis',(0.,-1.,0.));
#1205=DIRECTION('',(0.,-1.,0.));
#1206=DIRECTION('',(0.,0.,-1.));
#1207=DIRECTION('',(0.,-1.,0.));
#1208=DIRECTION('',(0.,0.,-1.));
#1209=DIRECTION('center_axis',(0.,0.,-1.));
#1210=DIRECTION('ref_axis',(-1.,0.,0.));
#1211=DIRECTION('',(1.,0.,0.));
#1212=DIRECTION('',(-1.,3.70074341541719E-16,0.));
#1213=DIRECTION('center_axis',(0.,1.,0.));
#1214=DIRECTION('ref_axis',(1.,0.,0.));
#1215=DIRECTION('',(1.,0.,0.));
#1216=DIRECTION('',(0.,0.,-1.));
#1217=DIRECTION('',(1.,0.,0.));
#1218=DIRECTION('center_axis',(-1.,0.,0.));
#1219=DIRECTION('ref_axis',(0.,1.,0.));
#1220=DIRECTION('',(0.,1.,0.));
#1221=DIRECTION('',(0.,0.,-1.));
#1222=DIRECTION('',(0.,1.,0.));
#1223=DIRECTION('center_axis',(-3.70074341541719E-16,-1.,0.));
#1224=DIRECTION('ref_axis',(-1.,3.70074341541719E-16,0.));
#1225=DIRECTION('',(-1.,3.70074341541719E-16,0.));
#1226=DIRECTION('',(-1.,3.70074341541719E-16,0.));
#1227=DIRECTION('center_axis',(0.,0.,-1.));
#1228=DIRECTION('ref_axis',(-1.,0.,0.));
#1229=DIRECTION('center_axis',(0.,0.,-1.));
#1230=DIRECTION('ref_axis',(0.,1.,0.));
#1231=DIRECTION('center_axis',(0.,0.,-1.));
#1232=DIRECTION('ref_axis',(0.,1.,0.));
#1233=DIRECTION('',(0.,0.,-1.));
#1234=DIRECTION('center_axis',(1.,1.36642833799866E-15,0.));
#1235=DIRECTION('ref_axis',(1.36642833799866E-15,-1.,0.));
#1236=DIRECTION('',(1.36642833799866E-15,-1.,0.));
#1237=DIRECTION('',(0.,0.,-1.));
#1238=DIRECTION('',(1.36642833799866E-15,-1.,0.));
#1239=DIRECTION('',(0.,0.,-1.));
#1240=DIRECTION('center_axis',(0.,-1.,0.));
#1241=DIRECTION('ref_axis',(-1.,0.,0.));
#1242=DIRECTION('',(-1.,0.,0.));
#1243=DIRECTION('',(0.,0.,-1.));
#1244=DIRECTION('',(-1.,0.,0.));
#1245=DIRECTION('center_axis',(-1.,0.,0.));
#1246=DIRECTION('ref_axis',(0.,1.,0.));
#1247=DIRECTION('',(0.,1.,0.));
#1248=DIRECTION('',(0.,0.,-1.));
#1249=DIRECTION('',(0.,1.,0.));
#1250=DIRECTION('center_axis',(-3.70074341541719E-17,1.,0.));
#1251=DIRECTION('ref_axis',(1.,3.70074341541719E-17,0.));
#1252=DIRECTION('',(1.,3.70074341541719E-17,0.));
#1253=DIRECTION('',(1.,3.70074341541719E-17,0.));
#1254=DIRECTION('center_axis',(0.,0.,-1.));
#1255=DIRECTION('ref_axis',(0.,-1.,0.));
#1256=DIRECTION('',(0.,0.,-1.));
#1257=DIRECTION('center_axis',(0.,0.,-1.));
#1258=DIRECTION('ref_axis',(0.,-1.,0.));
#1259=DIRECTION('center_axis',(0.,1.,0.));
#1260=DIRECTION('ref_axis',(1.,0.,0.));
#1261=DIRECTION('',(1.,0.,0.));
#1262=DIRECTION('center_axis',(0.,0.,1.));
#1263=DIRECTION('ref_axis',(1.,0.,0.));
#1264=DIRECTION('center_axis',(1.33226762955019E-16,-1.,0.));
#1265=DIRECTION('ref_axis',(1.,1.33226762955019E-16,0.));
#1266=DIRECTION('center_axis',(0.,0.,1.));
#1267=DIRECTION('ref_axis',(1.,0.,0.));
#1268=CARTESIAN_POINT('',(0.,0.,0.));
#1269=CARTESIAN_POINT('Origin',(-150.,0.,2.));
#1270=CARTESIAN_POINT('',(-150.,30.,2.));
#1271=CARTESIAN_POINT('',(-150.,28.,0.));
#1272=CARTESIAN_POINT('Origin',(-150.,28.,2.));
#1273=CARTESIAN_POINT('',(-150.,-28.,0.));
#1274=CARTESIAN_POINT('Origin',(-150.,0.,0.));
#1275=CARTESIAN_POINT('',(-150.,-30.,2.));
#1276=CARTESIAN_POINT('Origin',(-150.,-28.,2.));
#1277=CARTESIAN_POINT('Origin',(-150.,0.,2.));
#1278=CARTESIAN_POINT('Origin',(-75.,-28.,2.));
#1279=CARTESIAN_POINT('',(150.,-28.,0.));
#1280=CARTESIAN_POINT('',(150.,-30.,2.));
#1281=CARTESIAN_POINT('Origin',(150.,-28.,2.));
#1282=CARTESIAN_POINT('',(-75.,-30.,2.));
#1283=CARTESIAN_POINT('',(-75.,-28.,0.));
#1284=CARTESIAN_POINT('Origin',(150.,2.22044604925031E-14,2.));
#1285=CARTESIAN_POINT('',(150.,28.,0.));
#1286=CARTESIAN_POINT('',(150.,30.,2.));
#1287=CARTESIAN_POINT('Origin',(150.,28.,2.));
#1288=CARTESIAN_POINT('Origin',(150.,2.22044604925031E-14,2.));
#1289=CARTESIAN_POINT('Origin',(150.,2.22044604925031E-14,0.));
#1290=CARTESIAN_POINT('Origin',(75.,28.,2.));
#1291=CARTESIAN_POINT('',(75.,30.,2.));
#1292=CARTESIAN_POINT('',(75.,28.,0.));
#1293=CARTESIAN_POINT('Origin',(150.,30.,0.));
#1294=CARTESIAN_POINT('',(-150.,30.,25.1729274373408));
#1295=CARTESIAN_POINT('',(-150.,30.,0.));
#1296=CARTESIAN_POINT('',(-119.215025849618,30.,38.));
#1297=CARTESIAN_POINT('',(-11.2733007285221,30.,82.9757188004567));
#1298=CARTESIAN_POINT('',(150.,30.,38.));
#1299=CARTESIAN_POINT('',(75.,30.,38.));
#1300=CARTESIAN_POINT('',(150.,30.,0.));
#1301=CARTESIAN_POINT('Origin',(-150.,0.,0.));
#1302=CARTESIAN_POINT('',(-150.,-30.,25.1729274373408));
#1303=CARTESIAN_POINT('',(-150.,-30.,0.));
#1304=CARTESIAN_POINT('Origin',(-150.,0.,25.1729274373408));
#1305=CARTESIAN_POINT('Origin',(0.,2.22044604925031E-15,0.));
#1306=CARTESIAN_POINT('',(113.5,5.00000000001456,0.));
#1307=CARTESIAN_POINT('Origin',(115.,5.00000000001456,0.));
#1308=CARTESIAN_POINT('',(163.5,-4.99999999998544,0.));
#1309=CARTESIAN_POINT('Origin',(165.,-4.99999999998544,0.));
#1310=CARTESIAN_POINT('',(113.5,-4.99999999998542,0.));
#1311=CARTESIAN_POINT('Origin',(115.,-4.99999999998542,0.));
#1312=CARTESIAN_POINT('',(163.5,5.00000000001456,0.));
#1313=CARTESIAN_POINT('Origin',(165.,5.00000000001456,0.));
#1314=CARTESIAN_POINT('',(160.,2.34291072916505E-14,0.));
#1315=CARTESIAN_POINT('Origin',(150.,2.22044604925031E-14,0.));
#1316=CARTESIAN_POINT('',(-139.5,1.28587913910472E-15,0.));
#1317=CARTESIAN_POINT('Origin',(-150.,0.,0.));
#1318=CARTESIAN_POINT('Origin',(-75.,-28.,38.));
#1319=CARTESIAN_POINT('',(-119.215025849618,-30.,38.));
#1320=CARTESIAN_POINT('',(150.,-30.,38.));
#1321=CARTESIAN_POINT('',(-75.,-30.,38.));
#1322=CARTESIAN_POINT('',(150.,-28.,40.));
#1323=CARTESIAN_POINT('Origin',(150.,-28.,38.));
#1324=CARTESIAN_POINT('',(-119.615025849618,-28.,40.));
#1325=CARTESIAN_POINT('',(-75.,-28.,40.));
#1326=CARTESIAN_POINT('Origin',(-119.215025849618,-28.,38.));
#1327=CARTESIAN_POINT('Origin',(150.,2.22044604925031E-14,38.));
#1328=CARTESIAN_POINT('',(150.,28.,40.));
#1329=CARTESIAN_POINT('Origin',(150.,28.,38.));
#1330=CARTESIAN_POINT('Origin',(150.,2.22044604925031E-14,40.));
#1331=CARTESIAN_POINT('Origin',(150.,2.22044604925031E-14,38.));
#1332=CARTESIAN_POINT('Origin',(75.,28.,38.));
#1333=CARTESIAN_POINT('',(-119.615025849618,28.,40.));
#1334=CARTESIAN_POINT('',(75.,28.,40.));
#1335=CARTESIAN_POINT('Origin',(-119.215025849618,28.,38.));
#1336=CARTESIAN_POINT('Origin',(-139.083951616096,-28.,29.7212809306342));
#1337=CARTESIAN_POINT('',(-150.769230769231,-28.,27.0190812834947));
#1338=CARTESIAN_POINT('',(-139.853182385327,-28.,31.567434776788));
#1339=CARTESIAN_POINT('Origin',(-150.,-28.,25.1729274373408));
#1340=CARTESIAN_POINT('',(-139.083951616096,-30.,29.7212809306342));
#1341=CARTESIAN_POINT('Ctrl Pts',(-150.769230769231,-28.,27.0190812834947));
#1342=CARTESIAN_POINT('Ctrl Pts',(-154.958020974017,-28.,25.2737520315004));
#1343=CARTESIAN_POINT('Ctrl Pts',(-163.331835884324,-26.0883640745704,21.7846624855392));
#1344=CARTESIAN_POINT('Ctrl Pts',(-173.411735825855,-18.0564448104611,17.5847041765681));
#1345=CARTESIAN_POINT('Ctrl Pts',(-178.998145631431,-6.44313197632745,15.2570334242444));
#1346=CARTESIAN_POINT('Ctrl Pts',(-179.003623941216,6.44401089889122,15.2547507951676));
#1347=CARTESIAN_POINT('Ctrl Pts',(-173.407164512267,18.0532815739994,17.5866088905629));
#1348=CARTESIAN_POINT('Ctrl Pts',(-163.33449366166,26.090736080009,21.7835550783158));
#1349=CARTESIAN_POINT('Ctrl Pts',(-154.958020974017,28.,25.2737520315004));
#1350=CARTESIAN_POINT('Ctrl Pts',(-150.769230769231,28.,27.0190812834947));
#1351=CARTESIAN_POINT('Ctrl Pts',(-150.769230769231,-28.5983986006838,27.0190812834947));
#1352=CARTESIAN_POINT('Ctrl Pts',(-155.034286289515,-28.5759908477472,25.2409812385276));
#1353=CARTESIAN_POINT('Ctrl Pts',(-163.543389440142,-26.5870771871797,21.6965346328731));
#1354=CARTESIAN_POINT('Ctrl Pts',(-173.759655495829,-18.3765571891944,17.4387480032605));
#1355=CARTESIAN_POINT('Ctrl Pts',(-179.41441678283,-6.55332701223673,15.0833122259373));
#1356=CARTESIAN_POINT('Ctrl Pts',(-179.419761417703,6.55414556989982,15.0806000166749));
#1357=CARTESIAN_POINT('Ctrl Pts',(-173.755186689039,18.3735624882997,17.4411470332472));
#1358=CARTESIAN_POINT('Ctrl Pts',(-163.546098327823,26.5895339415016,21.69539458545));
#1359=CARTESIAN_POINT('Ctrl Pts',(-155.034286289515,28.5759908477472,25.2409812385276));
#1360=CARTESIAN_POINT('Ctrl Pts',(-150.769230769231,28.5983986006838,27.0190812834947));
#1361=CARTESIAN_POINT('Ctrl Pts',(-150.576088583172,-29.6343568387118,26.5555400369537));
#1362=CARTESIAN_POINT('Ctrl Pts',(-154.988178235135,-29.5762909742349,24.7596603313643));
#1363=CARTESIAN_POINT('Ctrl Pts',(-163.760255816352,-27.4543088461951,21.182953048738));
#1364=CARTESIAN_POINT('Ctrl Pts',(-174.24615174662,-18.935587328287,16.8986977429512));
#1365=CARTESIAN_POINT('Ctrl Pts',(-180.036127762815,-6.74544836970281,14.5297955442336));
#1366=CARTESIAN_POINT('Ctrl Pts',(-180.041652204777,6.74632497486448,14.5276332749344));
#1367=CARTESIAN_POINT('Ctrl Pts',(-174.241519435834,18.9324722444213,16.9004712189596));
#1368=CARTESIAN_POINT('Ctrl Pts',(-163.762939960151,27.4565682344977,21.1818540185183));
#1369=CARTESIAN_POINT('Ctrl Pts',(-154.988178235135,29.5762909742349,24.7596603313643));
#1370=CARTESIAN_POINT('Ctrl Pts',(-150.576088583172,29.6343568387118,26.5555400369537));
#1371=CARTESIAN_POINT('Ctrl Pts',(-150.172614980966,-30.,25.5872033916604));
#1372=CARTESIAN_POINT('Ctrl Pts',(-154.654579009934,-29.973949591866,23.8268614558951));
#1373=CARTESIAN_POINT('Ctrl Pts',(-163.591299417586,-27.8810805991523,20.3115172637064));
#1374=CARTESIAN_POINT('Ctrl Pts',(-174.312678511279,-19.26553419837,16.086460212791));
#1375=CARTESIAN_POINT('Ctrl Pts',(-180.243098773898,-6.86915719426664,13.7464067098056));
#1376=CARTESIAN_POINT('Ctrl Pts',(-180.248887276294,6.87002844108647,13.7442002953332));
#1377=CARTESIAN_POINT('Ctrl Pts',(-174.307776482885,19.2623515522978,16.0882804602161));
#1378=CARTESIAN_POINT('Ctrl Pts',(-163.594137232161,27.8835969630437,20.3104140625411));
#1379=CARTESIAN_POINT('Ctrl Pts',(-154.654579009934,29.973949591866,23.8268614558951));
#1380=CARTESIAN_POINT('Ctrl Pts',(-150.172614980966,30.,25.5872033916604));
#1381=CARTESIAN_POINT('Ctrl Pts',(-150.,-30.,25.1729274373408));
#1382=CARTESIAN_POINT('Ctrl Pts',(-154.487989505128,-30.,23.4275981853465));
#1383=CARTESIAN_POINT('Ctrl Pts',(-163.459934051886,-27.9518186513255,19.9385086393853));
#1384=CARTESIAN_POINT('Ctrl Pts',(-174.259826846383,-19.3461908683511,15.7385503304142));
#1385=CARTESIAN_POINT('Ctrl Pts',(-180.245265923786,-6.90335568892226,13.4108795780905));
#1386=CARTESIAN_POINT('Ctrl Pts',(-180.251135541413,6.90429739166916,13.4085969490137));
#1387=CARTESIAN_POINT('Ctrl Pts',(-174.254929010396,19.342801686428,15.7404550444091));
#1388=CARTESIAN_POINT('Ctrl Pts',(-163.46278167046,27.954360085724,19.937401232162));
#1389=CARTESIAN_POINT('Ctrl Pts',(-154.487989505128,30.,23.4275981853465));
#1390=CARTESIAN_POINT('Ctrl Pts',(-150.,30.,25.1729274373408));
#1391=CARTESIAN_POINT('',(-150.769230769231,28.,27.0190812834947));
#1392=CARTESIAN_POINT('Origin',(-150.,28.,25.1729274373408));
#1393=CARTESIAN_POINT('Origin',(-150.769230769231,0.,27.0190812834947));
#1394=CARTESIAN_POINT('Origin',(-11.2733007285221,28.,82.9757188004567));
#1395=CARTESIAN_POINT('',(-12.0425314977528,28.,84.8218726466105));
#1396=CARTESIAN_POINT('Origin',(-120.,-30.,39.8395941040075));
#1397=CARTESIAN_POINT('',(-119.615025849618,-27.,40.));
#1398=CARTESIAN_POINT('',(-119.615025849618,-15.,40.));
#1399=CARTESIAN_POINT('',(-150.,-27.,27.3395941040075));
#1400=CARTESIAN_POINT('',(-4.94193978177648,-27.,87.7804525282673));
#1401=CARTESIAN_POINT('',(-150.,27.,27.3395941040075));
#1402=CARTESIAN_POINT('Origin',(-150.,0.,27.3395941040075));
#1403=CARTESIAN_POINT('',(-119.615025849618,27.,40.));
#1404=CARTESIAN_POINT('',(-132.75259066935,27.,34.5260146584448));
#1405=CARTESIAN_POINT('',(-119.615025849618,-15.,40.));
#1406=CARTESIAN_POINT('Origin',(150.,2.22044604925031E-14,0.));
#1407=CARTESIAN_POINT('',(150.,-30.,0.));
#1408=CARTESIAN_POINT('Origin',(-144.740539761534,-5.25946023846554,2.34));
#1409=CARTESIAN_POINT('',(-143.760539761534,-5.25946023846554,2.34));
#1410=CARTESIAN_POINT('Origin',(-144.740539761534,-5.25946023846554,2.34));
#1411=CARTESIAN_POINT('',(-143.760539761534,-5.25946023846554,5.));
#1412=CARTESIAN_POINT('',(-143.760539761534,-5.25946023846554,2.34));
#1413=CARTESIAN_POINT('Origin',(-144.740539761534,-5.25946023846554,5.));
#1414=CARTESIAN_POINT('Origin',(-150.,0.,2.34));
#1415=CARTESIAN_POINT('',(-148.5,1.83697019872103E-16,2.34));
#1416=CARTESIAN_POINT('Origin',(-150.,0.,2.34));
#1417=CARTESIAN_POINT('',(-148.5,-1.83697019872103E-16,5.));
#1418=CARTESIAN_POINT('',(-148.5,1.83697019872103E-16,2.34));
#1419=CARTESIAN_POINT('Origin',(-150.,0.,5.));
#1420=CARTESIAN_POINT('Origin',(-155.259460238466,5.25946023846554,2.34));
#1421=CARTESIAN_POINT('',(-154.279460238466,5.25946023846554,2.34));
#1422=CARTESIAN_POINT('Origin',(-155.259460238466,5.25946023846554,2.34));
#1423=CARTESIAN_POINT('',(-154.279460238466,5.25946023846554,5.));
#1424=CARTESIAN_POINT('',(-154.279460238466,5.25946023846554,2.34));
#1425=CARTESIAN_POINT('Origin',(-155.259460238466,5.25946023846554,5.));
#1426=CARTESIAN_POINT('Origin',(-150.,0.,0.));
#1427=CARTESIAN_POINT('',(-139.5,1.28587913910472E-15,2.34));
#1428=CARTESIAN_POINT('',(-139.5,1.28587913910472E-15,0.));
#1429=CARTESIAN_POINT('Origin',(-150.,0.,2.34));
#1430=CARTESIAN_POINT('Origin',(-150.,0.,2.34));
#1431=CARTESIAN_POINT('Origin',(0.,2.22044604925031E-15,40.));
#1432=CARTESIAN_POINT('',(150.,27.,40.));
#1433=CARTESIAN_POINT('',(-75.,27.,40.));
#1434=CARTESIAN_POINT('',(150.,-27.,40.));
#1435=CARTESIAN_POINT('Origin',(150.,2.22044604925031E-14,40.));
#1436=CARTESIAN_POINT('',(75.,-27.,40.));
#1437=CARTESIAN_POINT('Origin',(150.,-27.,40.));
#1438=CARTESIAN_POINT('',(150.,-27.,3.));
#1439=CARTESIAN_POINT('',(150.,-27.,40.));
#1440=CARTESIAN_POINT('',(-150.,-27.,3.));
#1441=CARTESIAN_POINT('',(-150.,-27.,3.));
#1442=CARTESIAN_POINT('',(-150.,-27.,40.));
#1443=CARTESIAN_POINT('Origin',(-150.,0.,0.));
#1444=CARTESIAN_POINT('',(-139.5,1.28587913910472E-15,5.));
#1445=CARTESIAN_POINT('Origin',(-150.,0.,5.));
#1446=CARTESIAN_POINT('',(-139.5,-1.28587913910472E-15,3.));
#1447=CARTESIAN_POINT('',(-139.5,1.28587913910472E-15,0.));
#1448=CARTESIAN_POINT('Origin',(-150.,0.,3.));
#1449=CARTESIAN_POINT('Origin',(-150.,0.,5.));
#1450=CARTESIAN_POINT('Origin',(150.,2.22044604925031E-14,0.));
#1451=CARTESIAN_POINT('',(160.,2.22044604925031E-14,3.));
#1452=CARTESIAN_POINT('',(160.,2.34291072916505E-14,0.));
#1453=CARTESIAN_POINT('',(150.,10.0000000000146,3.));
#1454=CARTESIAN_POINT('Origin',(150.,2.22044604925031E-14,3.));
#1455=CARTESIAN_POINT('',(150.,-9.99999999998543,3.));
#1456=CARTESIAN_POINT('Origin',(150.,2.22044604925031E-14,3.));
#1457=CARTESIAN_POINT('Origin',(150.,2.22044604925031E-14,3.));
#1458=CARTESIAN_POINT('Origin',(140.,1.45650158600574E-11,3.));
#1459=CARTESIAN_POINT('',(160.,-9.99999999998541,3.));
#1460=CARTESIAN_POINT('',(113.,-9.99999999998542,3.));
#1461=CARTESIAN_POINT('',(160.,-9.99999999998541,3.));
#1462=CARTESIAN_POINT('Origin',(140.,1.45650158600574E-11,3.));
#1463=CARTESIAN_POINT('',(120.,10.0000000000146,3.));
#1464=CARTESIAN_POINT('',(167.,10.0000000000146,3.));
#1465=CARTESIAN_POINT('',(120.,-9.99999999998541,3.));
#1466=CARTESIAN_POINT('',(120.,10.0000000000146,3.));
#1467=CARTESIAN_POINT('',(113.,-9.99999999998542,3.));
#1468=CARTESIAN_POINT('Origin',(140.,1.45650158600574E-11,3.));
#1469=CARTESIAN_POINT('',(160.,10.0000000000146,3.));
#1470=CARTESIAN_POINT('',(160.,-9.99999999998541,3.));
#1471=CARTESIAN_POINT('',(167.,10.0000000000146,3.));
#1472=CARTESIAN_POINT('Origin',(165.,5.00000000001456,7.1));
#1473=CARTESIAN_POINT('',(163.5,5.00000000001456,7.1));
#1474=CARTESIAN_POINT('Origin',(165.,5.00000000001456,7.1));
#1475=CARTESIAN_POINT('',(163.5,5.00000000001456,7.1));
#1476=CARTESIAN_POINT('Origin',(115.,-4.99999999998542,7.1));
#1477=CARTESIAN_POINT('',(113.5,-4.99999999998542,7.1));
#1478=CARTESIAN_POINT('Origin',(115.,-4.99999999998542,7.1));
#1479=CARTESIAN_POINT('',(113.5,-4.99999999998542,7.1));
#1480=CARTESIAN_POINT('Origin',(165.,-4.99999999998544,7.1));
#1481=CARTESIAN_POINT('',(163.5,-4.99999999998544,7.1));
#1482=CARTESIAN_POINT('Origin',(165.,-4.99999999998544,7.1));
#1483=CARTESIAN_POINT('',(163.5,-4.99999999998544,7.1));
#1484=CARTESIAN_POINT('Origin',(115.,5.00000000001456,7.1));
#1485=CARTESIAN_POINT('',(113.5,5.00000000001456,7.1));
#1486=CARTESIAN_POINT('Origin',(115.,5.00000000001456,7.1));
#1487=CARTESIAN_POINT('',(113.5,5.00000000001456,7.1));
#1488=CARTESIAN_POINT('Origin',(120.,-9.99999999998541,40.));
#1489=CARTESIAN_POINT('',(120.,10.0000000000146,7.1));
#1490=CARTESIAN_POINT('',(120.,-9.99999999998541,7.1));
#1491=CARTESIAN_POINT('',(120.,-9.99999999998541,7.1));
#1492=CARTESIAN_POINT('',(120.,-9.99999999998541,40.));
#1493=CARTESIAN_POINT('',(120.,10.0000000000146,40.));
#1494=CARTESIAN_POINT('Origin',(160.,10.0000000000146,40.));
#1495=CARTESIAN_POINT('',(160.,-9.99999999998541,7.1));
#1496=CARTESIAN_POINT('',(160.,10.0000000000146,7.1));
#1497=CARTESIAN_POINT('',(160.,10.0000000000146,7.1));
#1498=CARTESIAN_POINT('',(160.,10.0000000000146,40.));
#1499=CARTESIAN_POINT('',(160.,-9.99999999998541,40.));
#1500=CARTESIAN_POINT('Origin',(167.,10.0000000000146,40.));
#1501=CARTESIAN_POINT('',(167.,10.0000000000146,40.));
#1502=CARTESIAN_POINT('',(167.,-9.99999999998544,40.));
#1503=CARTESIAN_POINT('',(167.,5.00000000000728,40.));
#1504=CARTESIAN_POINT('',(167.,10.0000000000146,7.1));
#1505=CARTESIAN_POINT('',(167.,10.0000000000146,40.));
#1506=CARTESIAN_POINT('',(167.,-9.99999999998544,7.1));
#1507=CARTESIAN_POINT('',(167.,-9.99999999998544,7.1));
#1508=CARTESIAN_POINT('',(167.,-9.99999999998544,40.));
#1509=CARTESIAN_POINT('Origin',(163.5,1.45639056370328E-11,7.1));
#1510=CARTESIAN_POINT('',(167.,10.0000000000146,7.1));
#1511=CARTESIAN_POINT('',(113.,-9.99999999998542,7.1));
#1512=CARTESIAN_POINT('Origin',(113.,10.0000000000146,40.));
#1513=CARTESIAN_POINT('',(113.,10.0000000000146,40.));
#1514=CARTESIAN_POINT('',(60.,10.0000000000146,40.));
#1515=CARTESIAN_POINT('',(113.,10.0000000000146,7.1));
#1516=CARTESIAN_POINT('',(113.,10.0000000000146,40.));
#1517=CARTESIAN_POINT('',(167.,10.0000000000146,7.1));
#1518=CARTESIAN_POINT('Origin',(113.,-9.99999999998542,40.));
#1519=CARTESIAN_POINT('',(113.,-9.99999999998542,40.));
#1520=CARTESIAN_POINT('',(113.,-4.99999999999271,40.));
#1521=CARTESIAN_POINT('',(113.,-9.99999999998542,7.1));
#1522=CARTESIAN_POINT('',(113.,-9.99999999998542,40.));
#1523=CARTESIAN_POINT('',(113.,10.0000000000146,7.1));
#1524=CARTESIAN_POINT('Origin',(120.,-9.99999999998542,40.));
#1525=CARTESIAN_POINT('',(80.,-9.99999999998541,40.));
#1526=CARTESIAN_POINT('',(113.,-9.99999999998542,7.1));
#1527=CARTESIAN_POINT('Origin',(116.5,1.45727874212298E-11,7.1));
#1528=CARTESIAN_POINT('Origin',(-150.,0.,40.));
#1529=CARTESIAN_POINT('',(-150.,27.,3.));
#1530=CARTESIAN_POINT('Origin',(-150.,0.,3.));
#1531=CARTESIAN_POINT('',(-150.,27.,40.));
#1532=CARTESIAN_POINT('Origin',(110.,13.0000000000146,40.));
#1533=CARTESIAN_POINT('',(110.,13.0000000000146,40.));
#1534=CARTESIAN_POINT('',(110.,-13.0000000000145,40.));
#1535=CARTESIAN_POINT('',(110.,6.50000000000736,40.));
#1536=CARTESIAN_POINT('',(110.,13.0000000000146,3.));
#1537=CARTESIAN_POINT('',(110.,13.0000000000146,40.));
#1538=CARTESIAN_POINT('',(110.,-13.0000000000145,3.));
#1539=CARTESIAN_POINT('',(110.,-13.0000000000145,3.));
#1540=CARTESIAN_POINT('',(110.,-13.0000000000145,40.));
#1541=CARTESIAN_POINT('Origin',(170.,13.0000000000146,40.));
#1542=CARTESIAN_POINT('',(170.,13.0000000000146,40.));
#1543=CARTESIAN_POINT('',(85.,13.0000000000146,40.));
#1544=CARTESIAN_POINT('',(170.,13.0000000000146,3.));
#1545=CARTESIAN_POINT('',(170.,13.0000000000146,40.));
#1546=CARTESIAN_POINT('',(110.,13.0000000000146,3.));
#1547=CARTESIAN_POINT('Origin',(170.,-13.0000000000145,40.));
#1548=CARTESIAN_POINT('',(170.,-13.0000000000145,40.));
#1549=CARTESIAN_POINT('',(170.,-6.50000000000727,40.));
#1550=CARTESIAN_POINT('',(170.,-13.0000000000145,3.));
#1551=CARTESIAN_POINT('',(170.,-13.0000000000145,40.));
#1552=CARTESIAN_POINT('',(170.,13.0000000000146,3.));
#1553=CARTESIAN_POINT('Origin',(110.,-13.0000000000145,40.));
#1554=CARTESIAN_POINT('',(55.,-13.0000000000145,40.));
#1555=CARTESIAN_POINT('',(170.,-13.0000000000145,3.));
#1556=CARTESIAN_POINT('Origin',(150.,2.22044604925031E-14,40.));
#1557=CARTESIAN_POINT('',(150.,27.,3.));
#1558=CARTESIAN_POINT('',(150.,27.,40.));
#1559=CARTESIAN_POINT('Origin',(150.,2.22044604925031E-14,3.));
#1560=CARTESIAN_POINT('Origin',(-150.,27.,40.));
#1561=CARTESIAN_POINT('',(150.,27.,3.));
#1562=CARTESIAN_POINT('Origin',(0.,1.11022302462516E-14,3.));
#1563=CARTESIAN_POINT('Origin',(-150.,-30.,0.));
#1564=CARTESIAN_POINT('Origin',(0.,2.22044604925031E-15,40.));
#1565=UNCERTAINTY_MEASURE_WITH_UNIT(LENGTH_MEASURE(0.01),#1569,
'DISTANCE_ACCURACY_VALUE',
'Maximum model space distance between geometric entities at asserted c
onnectivities');
#1566=UNCERTAINTY_MEASURE_WITH_UNIT(LENGTH_MEASURE(0.01),#1569,
'DISTANCE_ACCURACY_VALUE',
'Maximum model space distance between geometric entities at asserted c
onnectivities');
#1567=(
GEOMETRIC_REPRESENTATION_CONTEXT(3)
GLOBAL_UNCERTAINTY_ASSIGNED_CONTEXT((#1565))
GLOBAL_UNIT_ASSIGNED_CONTEXT((#1569,#1571,#1572))
REPRESENTATION_CONTEXT('','3D')
);
#1568=(
GEOMETRIC_REPRESENTATION_CONTEXT(3)
GLOBAL_UNCERTAINTY_ASSIGNED_CONTEXT((#1566))
GLOBAL_UNIT_ASSIGNED_CONTEXT((#1569,#1571,#1572))
REPRESENTATION_CONTEXT('','3D')
);
#1569=(
LENGTH_UNIT()
NAMED_UNIT(*)
SI_UNIT(.MILLI.,.METRE.)
);
#1570=(
LENGTH_UNIT()
NAMED_UNIT(*)
SI_UNIT(.CENTI.,.METRE.)
);
#1571=(
NAMED_UNIT(*)
PLANE_ANGLE_UNIT()
SI_UNIT($,.RADIAN.)
);
#1572=(
NAMED_UNIT(*)
SI_UNIT($,.STERADIAN.)
SOLID_ANGLE_UNIT()
);
#1573=SHAPE_DEFINITION_REPRESENTATION(#1574,#1575);
#1574=PRODUCT_DEFINITION_SHAPE('',$,#1577);
#1575=SHAPE_REPRESENTATION('',(#909),#1567);
#1576=PRODUCT_DEFINITION_CONTEXT('part definition',#1581,'design');
#1577=PRODUCT_DEFINITION('L_2','l_2',#1578,#1576);
#1578=PRODUCT_DEFINITION_FORMATION('',$,#1583);
#1579=PRODUCT_RELATED_PRODUCT_CATEGORY('l_2','l_2',(#1583));
#1580=APPLICATION_PROTOCOL_DEFINITION('international standard',
'automotive_design',2009,#1581);
#1581=APPLICATION_CONTEXT(
'Core Data for Automotive Mechanical Design Process');
#1582=PRODUCT_CONTEXT('part definition',#1581,'mechanical');
#1583=PRODUCT('L_2','l_2',$,(#1582));
#1584=PRESENTATION_STYLE_ASSIGNMENT((#1585));
#1585=SURFACE_STYLE_USAGE(.BOTH.,#1588);
#1586=SURFACE_STYLE_RENDERING_WITH_PROPERTIES($,#1592,(#1587));
#1587=SURFACE_STYLE_TRANSPARENT(0.);
#1588=SURFACE_SIDE_STYLE('',(#1589,#1586));
#1589=SURFACE_STYLE_FILL_AREA(#1590);
#1590=FILL_AREA_STYLE('',(#1591));
#1591=FILL_AREA_STYLE_COLOUR('',#1592);
#1592=COLOUR_RGB('',0.92156862745098,0.92156862745098,0.92156862745098);
ENDSEC;
END-ISO-10303-21;
