ISO-10303-21;
HEADER;
/* Generated by software containing ST-Developer
 * from STEP Tools, Inc. (www.steptools.com) 
 */

FILE_DESCRIPTION(
/* description */ (''),
/* implementation_level */ '2;1');

FILE_NAME(
/* name */ 
'C:\\Users\\eyome\\OneDrive\\Documents\\Inventor\\N_IK\\arm6DOF\\eyo_6
DOF_arm\\\\l_4_ipt_6c6d878f.STEP',
/* time_stamp */ '2025-11-15T16:55:07+03:00',
/* author */ ('eyome'),
/* organization */ (''),
/* preprocessor_version */ 'ST-DEVELOPER v18.1',
/* originating_system */ 'Autodesk Inventor 2021',
/* authorisation */ '');

FILE_SCHEMA (('AUTOMOTIVE_DESIGN { 1 0 10303 214 3 1 1 }'));
ENDSEC;

DATA;
#10=MECHANICAL_DESIGN_GEOMETRIC_PRESENTATION_REPRESENTATION('',(#13),#1436);
#11=SHAPE_REPRESENTATION_RELATIONSHIP('SRR','None',#1443,#12);
#12=ADVANCED_BREP_SHAPE_REPRESENTATION('',(#14),#1435);
#13=STYLED_ITEM('',(#1452),#14);
#14=MANIFOLD_SOLID_BREP('Solid3',#824);
#15=FACE_BOUND('',#280,.T.);
#16=FACE_BOUND('',#282,.T.);
#17=FACE_BOUND('',#288,.T.);
#18=FACE_BOUND('',#289,.T.);
#19=FACE_BOUND('',#290,.T.);
#20=FACE_BOUND('',#292,.T.);
#21=FACE_BOUND('',#293,.T.);
#22=FACE_BOUND('',#294,.T.);
#23=FACE_BOUND('',#314,.T.);
#24=FACE_BOUND('',#317,.T.);
#25=FACE_BOUND('',#319,.T.);
#26=PLANE('',#881);
#27=PLANE('',#882);
#28=PLANE('',#883);
#29=PLANE('',#884);
#30=PLANE('',#885);
#31=PLANE('',#887);
#32=PLANE('',#900);
#33=PLANE('',#901);
#34=PLANE('',#902);
#35=PLANE('',#903);
#36=PLANE('',#904);
#37=PLANE('',#905);
#38=PLANE('',#906);
#39=PLANE('',#908);
#40=PLANE('',#916);
#41=PLANE('',#917);
#42=PLANE('',#918);
#43=PLANE('',#919);
#44=PLANE('',#923);
#45=PLANE('',#927);
#46=PLANE('',#928);
#47=PLANE('',#929);
#48=PLANE('',#930);
#49=PLANE('',#931);
#50=PLANE('',#932);
#51=PLANE('',#933);
#52=PLANE('',#934);
#53=PLANE('',#935);
#54=B_SPLINE_CURVE_WITH_KNOTS('',3,(#1254,#1255,#1256,#1257),
 .UNSPECIFIED.,.F.,.F.,(4,4),(0.246390831400746,0.320427050817149),
 .UNSPECIFIED.);
#55=B_SPLINE_CURVE_WITH_KNOTS('',3,(#1266,#1267,#1268,#1269),
 .UNSPECIFIED.,.F.,.F.,(4,4),(0.987737864882464,1.06177408429887),
 .UNSPECIFIED.);
#56=B_SPLINE_CURVE_WITH_KNOTS('',3,(#1271,#1272,#1273,#1274),
 .UNSPECIFIED.,.F.,.F.,(4,4),(-0.563660940066136,-0.430719124632565),
 .UNSPECIFIED.);
#57=B_SPLINE_CURVE_WITH_KNOTS('',3,(#1277,#1278,#1279,#1280),
 .UNSPECIFIED.,.F.,.F.,(4,4),(0.430719124632565,0.563660940066136),
 .UNSPECIFIED.);
#58=TOROIDAL_SURFACE('',#866,11.,2.);
#59=TOROIDAL_SURFACE('',#873,11.,2.);
#60=LINE('',#1205,#127);
#61=LINE('',#1206,#128);
#62=LINE('',#1215,#129);
#63=LINE('',#1216,#130);
#64=LINE('',#1225,#131);
#65=LINE('',#1226,#132);
#66=LINE('',#1228,#133);
#67=LINE('',#1229,#134);
#68=LINE('',#1234,#135);
#69=LINE('',#1235,#136);
#70=LINE('',#1243,#137);
#71=LINE('',#1244,#138);
#72=LINE('',#1249,#139);
#73=LINE('',#1250,#140);
#74=LINE('',#1282,#141);
#75=LINE('',#1283,#142);
#76=LINE('',#1285,#143);
#77=LINE('',#1286,#144);
#78=LINE('',#1290,#145);
#79=LINE('',#1292,#146);
#80=LINE('',#1294,#147);
#81=LINE('',#1296,#148);
#82=LINE('',#1298,#149);
#83=LINE('',#1300,#150);
#84=LINE('',#1302,#151);
#85=LINE('',#1304,#152);
#86=LINE('',#1306,#153);
#87=LINE('',#1307,#154);
#88=LINE('',#1309,#155);
#89=LINE('',#1312,#156);
#90=LINE('',#1313,#157);
#91=LINE('',#1324,#158);
#92=LINE('',#1330,#159);
#93=LINE('',#1336,#160);
#94=LINE('',#1340,#161);
#95=LINE('',#1346,#162);
#96=LINE('',#1348,#163);
#97=LINE('',#1350,#164);
#98=LINE('',#1351,#165);
#99=LINE('',#1354,#166);
#100=LINE('',#1356,#167);
#101=LINE('',#1357,#168);
#102=LINE('',#1360,#169);
#103=LINE('',#1361,#170);
#104=LINE('',#1364,#171);
#105=LINE('',#1365,#172);
#106=LINE('',#1367,#173);
#107=LINE('',#1371,#174);
#108=LINE('',#1376,#175);
#109=LINE('',#1384,#176);
#110=LINE('',#1389,#177);
#111=LINE('',#1390,#178);
#112=LINE('',#1392,#179);
#113=LINE('',#1395,#180);
#114=LINE('',#1396,#181);
#115=LINE('',#1401,#182);
#116=LINE('',#1408,#183);
#117=LINE('',#1413,#184);
#118=LINE('',#1414,#185);
#119=LINE('',#1417,#186);
#120=LINE('',#1418,#187);
#121=LINE('',#1421,#188);
#122=LINE('',#1423,#189);
#123=LINE('',#1424,#190);
#124=LINE('',#1426,#191);
#125=LINE('',#1428,#192);
#126=LINE('',#1429,#193);
#127=VECTOR('',#956,10.);
#128=VECTOR('',#957,10.);
#129=VECTOR('',#968,10.);
#130=VECTOR('',#969,10.);
#131=VECTOR('',#980,10.);
#132=VECTOR('',#981,10.);
#133=VECTOR('',#984,10.);
#134=VECTOR('',#985,10.);
#135=VECTOR('',#990,10.);
#136=VECTOR('',#991,10.);
#137=VECTOR('',#1002,10.);
#138=VECTOR('',#1003,10.);
#139=VECTOR('',#1008,10.);
#140=VECTOR('',#1009,10.);
#141=VECTOR('',#1024,10.);
#142=VECTOR('',#1025,10.);
#143=VECTOR('',#1028,10.);
#144=VECTOR('',#1029,10.);
#145=VECTOR('',#1034,10.);
#146=VECTOR('',#1035,10.);
#147=VECTOR('',#1036,10.);
#148=VECTOR('',#1037,10.);
#149=VECTOR('',#1038,10.);
#150=VECTOR('',#1039,10.);
#151=VECTOR('',#1040,10.);
#152=VECTOR('',#1041,10.);
#153=VECTOR('',#1042,10.);
#154=VECTOR('',#1043,10.);
#155=VECTOR('',#1046,10.);
#156=VECTOR('',#1049,10.);
#157=VECTOR('',#1050,10.);
#158=VECTOR('',#1063,0.98);
#159=VECTOR('',#1070,1.5);
#160=VECTOR('',#1077,0.98);
#161=VECTOR('',#1082,10.5);
#162=VECTOR('',#1089,10.);
#163=VECTOR('',#1090,10.);
#164=VECTOR('',#1091,10.);
#165=VECTOR('',#1092,10.);
#166=VECTOR('',#1095,10.);
#167=VECTOR('',#1096,10.);
#168=VECTOR('',#1097,10.);
#169=VECTOR('',#1100,10.);
#170=VECTOR('',#1101,10.);
#171=VECTOR('',#1104,10.);
#172=VECTOR('',#1105,10.);
#173=VECTOR('',#1108,10.);
#174=VECTOR('',#1111,10.);
#175=VECTOR('',#1116,10.);
#176=VECTOR('',#1129,7.5);
#177=VECTOR('',#1136,10.);
#178=VECTOR('',#1137,10.);
#179=VECTOR('',#1140,10.);
#180=VECTOR('',#1143,10.);
#181=VECTOR('',#1144,10.);
#182=VECTOR('',#1149,1.);
#183=VECTOR('',#1158,1.);
#184=VECTOR('',#1165,10.);
#185=VECTOR('',#1166,10.);
#186=VECTOR('',#1169,10.);
#187=VECTOR('',#1170,10.);
#188=VECTOR('',#1173,10.);
#189=VECTOR('',#1174,10.);
#190=VECTOR('',#1175,10.);
#191=VECTOR('',#1178,10.);
#192=VECTOR('',#1181,10.);
#193=VECTOR('',#1182,10.);
#194=CYLINDRICAL_SURFACE('',#852,2.);
#195=CYLINDRICAL_SURFACE('',#857,2.);
#196=CYLINDRICAL_SURFACE('',#862,2.);
#197=CYLINDRICAL_SURFACE('',#863,2.);
#198=CYLINDRICAL_SURFACE('',#864,2.);
#199=CYLINDRICAL_SURFACE('',#870,2.);
#200=CYLINDRICAL_SURFACE('',#871,2.);
#201=CYLINDRICAL_SURFACE('',#879,2.);
#202=CYLINDRICAL_SURFACE('',#880,13.);
#203=CYLINDRICAL_SURFACE('',#889,0.98);
#204=CYLINDRICAL_SURFACE('',#892,1.5);
#205=CYLINDRICAL_SURFACE('',#895,0.98);
#206=CYLINDRICAL_SURFACE('',#898,10.5);
#207=CYLINDRICAL_SURFACE('',#911,7.5);
#208=CYLINDRICAL_SURFACE('',#920,1.);
#209=CYLINDRICAL_SURFACE('',#924,1.);
#210=FACE_OUTER_BOUND('',#260,.T.);
#211=FACE_OUTER_BOUND('',#261,.T.);
#212=FACE_OUTER_BOUND('',#262,.T.);
#213=FACE_OUTER_BOUND('',#263,.T.);
#214=FACE_OUTER_BOUND('',#264,.T.);
#215=FACE_OUTER_BOUND('',#265,.T.);
#216=FACE_OUTER_BOUND('',#266,.T.);
#217=FACE_OUTER_BOUND('',#267,.T.);
#218=FACE_OUTER_BOUND('',#268,.T.);
#219=FACE_OUTER_BOUND('',#269,.T.);
#220=FACE_OUTER_BOUND('',#270,.T.);
#221=FACE_OUTER_BOUND('',#271,.T.);
#222=FACE_OUTER_BOUND('',#272,.T.);
#223=FACE_OUTER_BOUND('',#273,.T.);
#224=FACE_OUTER_BOUND('',#274,.T.);
#225=FACE_OUTER_BOUND('',#275,.T.);
#226=FACE_OUTER_BOUND('',#276,.T.);
#227=FACE_OUTER_BOUND('',#277,.T.);
#228=FACE_OUTER_BOUND('',#278,.T.);
#229=FACE_OUTER_BOUND('',#279,.T.);
#230=FACE_OUTER_BOUND('',#281,.T.);
#231=FACE_OUTER_BOUND('',#283,.T.);
#232=FACE_OUTER_BOUND('',#284,.T.);
#233=FACE_OUTER_BOUND('',#285,.T.);
#234=FACE_OUTER_BOUND('',#286,.T.);
#235=FACE_OUTER_BOUND('',#287,.T.);
#236=FACE_OUTER_BOUND('',#291,.T.);
#237=FACE_OUTER_BOUND('',#295,.T.);
#238=FACE_OUTER_BOUND('',#296,.T.);
#239=FACE_OUTER_BOUND('',#297,.T.);
#240=FACE_OUTER_BOUND('',#298,.T.);
#241=FACE_OUTER_BOUND('',#299,.T.);
#242=FACE_OUTER_BOUND('',#300,.T.);
#243=FACE_OUTER_BOUND('',#301,.T.);
#244=FACE_OUTER_BOUND('',#302,.T.);
#245=FACE_OUTER_BOUND('',#303,.T.);
#246=FACE_OUTER_BOUND('',#304,.T.);
#247=FACE_OUTER_BOUND('',#305,.T.);
#248=FACE_OUTER_BOUND('',#306,.T.);
#249=FACE_OUTER_BOUND('',#307,.T.);
#250=FACE_OUTER_BOUND('',#308,.T.);
#251=FACE_OUTER_BOUND('',#309,.T.);
#252=FACE_OUTER_BOUND('',#310,.T.);
#253=FACE_OUTER_BOUND('',#311,.T.);
#254=FACE_OUTER_BOUND('',#312,.T.);
#255=FACE_OUTER_BOUND('',#313,.T.);
#256=FACE_OUTER_BOUND('',#315,.T.);
#257=FACE_OUTER_BOUND('',#316,.T.);
#258=FACE_OUTER_BOUND('',#318,.T.);
#259=FACE_OUTER_BOUND('',#320,.T.);
#260=EDGE_LOOP('',(#544,#545,#546));
#261=EDGE_LOOP('',(#547,#548,#549));
#262=EDGE_LOOP('',(#550,#551,#552,#553));
#263=EDGE_LOOP('',(#554,#555,#556));
#264=EDGE_LOOP('',(#557,#558,#559,#560));
#265=EDGE_LOOP('',(#561,#562,#563));
#266=EDGE_LOOP('',(#564,#565,#566,#567));
#267=EDGE_LOOP('',(#568,#569,#570,#571));
#268=EDGE_LOOP('',(#572,#573,#574,#575));
#269=EDGE_LOOP('',(#576,#577,#578,#579));
#270=EDGE_LOOP('',(#580,#581,#582,#583));
#271=EDGE_LOOP('',(#584,#585,#586,#587));
#272=EDGE_LOOP('',(#588,#589,#590,#591,#592,#593,#594,#595,#596,#597));
#273=EDGE_LOOP('',(#598,#599,#600,#601));
#274=EDGE_LOOP('',(#602,#603,#604,#605));
#275=EDGE_LOOP('',(#606,#607,#608,#609));
#276=EDGE_LOOP('',(#610,#611,#612,#613,#614,#615,#616,#617,#618,#619,#620));
#277=EDGE_LOOP('',(#621,#622));
#278=EDGE_LOOP('',(#623,#624,#625,#626,#627,#628));
#279=EDGE_LOOP('',(#629,#630,#631,#632));
#280=EDGE_LOOP('',(#633));
#281=EDGE_LOOP('',(#634,#635,#636,#637));
#282=EDGE_LOOP('',(#638));
#283=EDGE_LOOP('',(#639,#640,#641,#642));
#284=EDGE_LOOP('',(#643,#644,#645,#646));
#285=EDGE_LOOP('',(#647,#648,#649,#650));
#286=EDGE_LOOP('',(#651,#652,#653,#654));
#287=EDGE_LOOP('',(#655));
#288=EDGE_LOOP('',(#656));
#289=EDGE_LOOP('',(#657));
#290=EDGE_LOOP('',(#658));
#291=EDGE_LOOP('',(#659,#660,#661,#662));
#292=EDGE_LOOP('',(#663));
#293=EDGE_LOOP('',(#664));
#294=EDGE_LOOP('',(#665));
#295=EDGE_LOOP('',(#666,#667,#668,#669));
#296=EDGE_LOOP('',(#670,#671,#672,#673));
#297=EDGE_LOOP('',(#674,#675,#676,#677));
#298=EDGE_LOOP('',(#678,#679,#680,#681));
#299=EDGE_LOOP('',(#682,#683));
#300=EDGE_LOOP('',(#684,#685,#686));
#301=EDGE_LOOP('',(#687,#688,#689,#690,#691,#692,#693,#694,#695,#696));
#302=EDGE_LOOP('',(#697,#698));
#303=EDGE_LOOP('',(#699,#700,#701));
#304=EDGE_LOOP('',(#702,#703,#704));
#305=EDGE_LOOP('',(#705,#706,#707,#708));
#306=EDGE_LOOP('',(#709,#710,#711,#712));
#307=EDGE_LOOP('',(#713));
#308=EDGE_LOOP('',(#714,#715,#716,#717));
#309=EDGE_LOOP('',(#718));
#310=EDGE_LOOP('',(#719,#720,#721,#722,#723,#724));
#311=EDGE_LOOP('',(#725,#726,#727,#728));
#312=EDGE_LOOP('',(#729,#730,#731,#732));
#313=EDGE_LOOP('',(#733,#734,#735,#736));
#314=EDGE_LOOP('',(#737));
#315=EDGE_LOOP('',(#738,#739,#740,#741,#742,#743,#744,#745,#746,#747,#748));
#316=EDGE_LOOP('',(#749,#750,#751,#752));
#317=EDGE_LOOP('',(#753));
#318=EDGE_LOOP('',(#754,#755,#756,#757,#758,#759,#760,#761));
#319=EDGE_LOOP('',(#762,#763,#764,#765));
#320=EDGE_LOOP('',(#766,#767,#768,#769));
#321=CIRCLE('',#845,2.);
#322=CIRCLE('',#846,2.);
#323=CIRCLE('',#847,2.);
#324=CIRCLE('',#849,2.);
#325=CIRCLE('',#850,2.);
#326=CIRCLE('',#851,2.);
#327=CIRCLE('',#854,2.);
#328=CIRCLE('',#855,2.);
#329=CIRCLE('',#856,2.);
#330=CIRCLE('',#859,2.);
#331=CIRCLE('',#860,2.);
#332=CIRCLE('',#861,2.);
#333=CIRCLE('',#865,2.);
#334=CIRCLE('',#867,1.99999999999999);
#335=CIRCLE('',#868,13.);
#336=CIRCLE('',#869,11.);
#337=CIRCLE('',#872,2.);
#338=CIRCLE('',#874,11.);
#339=CIRCLE('',#875,2.);
#340=CIRCLE('',#876,13.);
#341=CIRCLE('',#877,11.);
#342=CIRCLE('',#878,11.);
#343=CIRCLE('',#886,10.5);
#344=CIRCLE('',#888,7.5);
#345=CIRCLE('',#890,0.98);
#346=CIRCLE('',#891,0.98);
#347=CIRCLE('',#893,1.5);
#348=CIRCLE('',#894,1.5);
#349=CIRCLE('',#896,0.98);
#350=CIRCLE('',#897,0.98);
#351=CIRCLE('',#899,10.5);
#352=CIRCLE('',#907,7.5);
#353=CIRCLE('',#909,7.5);
#354=CIRCLE('',#910,7.5);
#355=CIRCLE('',#912,7.5);
#356=CIRCLE('',#913,7.5);
#357=CIRCLE('',#914,7.5);
#358=CIRCLE('',#915,7.5);
#359=CIRCLE('',#921,1.);
#360=CIRCLE('',#922,1.);
#361=CIRCLE('',#925,1.);
#362=CIRCLE('',#926,1.);
#363=VERTEX_POINT('',#1191);
#364=VERTEX_POINT('',#1192);
#365=VERTEX_POINT('',#1194);
#366=VERTEX_POINT('',#1198);
#367=VERTEX_POINT('',#1199);
#368=VERTEX_POINT('',#1201);
#369=VERTEX_POINT('',#1208);
#370=VERTEX_POINT('',#1209);
#371=VERTEX_POINT('',#1211);
#372=VERTEX_POINT('',#1218);
#373=VERTEX_POINT('',#1219);
#374=VERTEX_POINT('',#1221);
#375=VERTEX_POINT('',#1231);
#376=VERTEX_POINT('',#1232);
#377=VERTEX_POINT('',#1237);
#378=VERTEX_POINT('',#1238);
#379=VERTEX_POINT('',#1246);
#380=VERTEX_POINT('',#1247);
#381=VERTEX_POINT('',#1252);
#382=VERTEX_POINT('',#1253);
#383=VERTEX_POINT('',#1258);
#384=VERTEX_POINT('',#1260);
#385=VERTEX_POINT('',#1263);
#386=VERTEX_POINT('',#1265);
#387=VERTEX_POINT('',#1270);
#388=VERTEX_POINT('',#1275);
#389=VERTEX_POINT('',#1289);
#390=VERTEX_POINT('',#1291);
#391=VERTEX_POINT('',#1293);
#392=VERTEX_POINT('',#1295);
#393=VERTEX_POINT('',#1297);
#394=VERTEX_POINT('',#1299);
#395=VERTEX_POINT('',#1301);
#396=VERTEX_POINT('',#1303);
#397=VERTEX_POINT('',#1305);
#398=VERTEX_POINT('',#1311);
#399=VERTEX_POINT('',#1315);
#400=VERTEX_POINT('',#1318);
#401=VERTEX_POINT('',#1321);
#402=VERTEX_POINT('',#1323);
#403=VERTEX_POINT('',#1327);
#404=VERTEX_POINT('',#1329);
#405=VERTEX_POINT('',#1333);
#406=VERTEX_POINT('',#1335);
#407=VERTEX_POINT('',#1339);
#408=VERTEX_POINT('',#1344);
#409=VERTEX_POINT('',#1345);
#410=VERTEX_POINT('',#1347);
#411=VERTEX_POINT('',#1349);
#412=VERTEX_POINT('',#1353);
#413=VERTEX_POINT('',#1355);
#414=VERTEX_POINT('',#1359);
#415=VERTEX_POINT('',#1363);
#416=VERTEX_POINT('',#1369);
#417=VERTEX_POINT('',#1370);
#418=VERTEX_POINT('',#1374);
#419=VERTEX_POINT('',#1375);
#420=VERTEX_POINT('',#1377);
#421=VERTEX_POINT('',#1388);
#422=VERTEX_POINT('',#1394);
#423=VERTEX_POINT('',#1398);
#424=VERTEX_POINT('',#1400);
#425=VERTEX_POINT('',#1405);
#426=VERTEX_POINT('',#1407);
#427=VERTEX_POINT('',#1412);
#428=VERTEX_POINT('',#1416);
#429=VERTEX_POINT('',#1420);
#430=VERTEX_POINT('',#1422);
#431=EDGE_CURVE('',#363,#364,#321,.F.);
#432=EDGE_CURVE('',#365,#363,#322,.F.);
#433=EDGE_CURVE('',#364,#365,#323,.F.);
#434=EDGE_CURVE('',#366,#367,#324,.F.);
#435=EDGE_CURVE('',#368,#366,#325,.F.);
#436=EDGE_CURVE('',#367,#368,#326,.F.);
#437=EDGE_CURVE('',#366,#364,#60,.T.);
#438=EDGE_CURVE('',#365,#368,#61,.T.);
#439=EDGE_CURVE('',#369,#370,#327,.F.);
#440=EDGE_CURVE('',#371,#369,#328,.F.);
#441=EDGE_CURVE('',#370,#371,#329,.F.);
#442=EDGE_CURVE('',#363,#371,#62,.T.);
#443=EDGE_CURVE('',#369,#365,#63,.T.);
#444=EDGE_CURVE('',#372,#373,#330,.F.);
#445=EDGE_CURVE('',#374,#372,#331,.F.);
#446=EDGE_CURVE('',#373,#374,#332,.F.);
#447=EDGE_CURVE('',#372,#367,#64,.T.);
#448=EDGE_CURVE('',#368,#374,#65,.T.);
#449=EDGE_CURVE('',#370,#373,#66,.T.);
#450=EDGE_CURVE('',#374,#369,#67,.T.);
#451=EDGE_CURVE('',#375,#376,#333,.T.);
#452=EDGE_CURVE('',#376,#372,#68,.T.);
#453=EDGE_CURVE('',#373,#375,#69,.T.);
#454=EDGE_CURVE('',#377,#378,#334,.T.);
#455=EDGE_CURVE('',#378,#376,#335,.T.);
#456=EDGE_CURVE('',#375,#377,#336,.T.);
#457=EDGE_CURVE('',#377,#370,#70,.T.);
#458=EDGE_CURVE('',#371,#378,#71,.T.);
#459=EDGE_CURVE('',#379,#380,#337,.T.);
#460=EDGE_CURVE('',#380,#363,#72,.T.);
#461=EDGE_CURVE('',#364,#379,#73,.T.);
#462=EDGE_CURVE('',#381,#382,#54,.T.);
#463=EDGE_CURVE('',#382,#383,#338,.T.);
#464=EDGE_CURVE('',#383,#384,#339,.T.);
#465=EDGE_CURVE('',#384,#380,#340,.T.);
#466=EDGE_CURVE('',#379,#385,#341,.T.);
#467=EDGE_CURVE('',#385,#386,#55,.T.);
#468=EDGE_CURVE('',#386,#387,#56,.T.);
#469=EDGE_CURVE('',#387,#388,#342,.T.);
#470=EDGE_CURVE('',#388,#381,#57,.T.);
#471=EDGE_CURVE('',#383,#366,#74,.T.);
#472=EDGE_CURVE('',#367,#384,#75,.T.);
#473=EDGE_CURVE('',#384,#376,#76,.T.);
#474=EDGE_CURVE('',#378,#380,#77,.T.);
#475=EDGE_CURVE('',#381,#389,#78,.T.);
#476=EDGE_CURVE('',#389,#390,#79,.T.);
#477=EDGE_CURVE('',#390,#391,#80,.T.);
#478=EDGE_CURVE('',#391,#392,#81,.T.);
#479=EDGE_CURVE('',#392,#393,#82,.T.);
#480=EDGE_CURVE('',#393,#394,#83,.T.);
#481=EDGE_CURVE('',#395,#394,#84,.T.);
#482=EDGE_CURVE('',#395,#396,#85,.T.);
#483=EDGE_CURVE('',#397,#396,#86,.T.);
#484=EDGE_CURVE('',#382,#397,#87,.T.);
#485=EDGE_CURVE('',#387,#388,#88,.T.);
#486=EDGE_CURVE('',#386,#398,#89,.T.);
#487=EDGE_CURVE('',#398,#389,#90,.T.);
#488=EDGE_CURVE('',#399,#399,#343,.T.);
#489=EDGE_CURVE('',#400,#400,#344,.T.);
#490=EDGE_CURVE('',#401,#401,#345,.T.);
#491=EDGE_CURVE('',#401,#402,#91,.T.);
#492=EDGE_CURVE('',#402,#402,#346,.T.);
#493=EDGE_CURVE('',#403,#403,#347,.T.);
#494=EDGE_CURVE('',#403,#404,#92,.T.);
#495=EDGE_CURVE('',#404,#404,#348,.T.);
#496=EDGE_CURVE('',#405,#405,#349,.T.);
#497=EDGE_CURVE('',#405,#406,#93,.T.);
#498=EDGE_CURVE('',#406,#406,#350,.T.);
#499=EDGE_CURVE('',#399,#407,#94,.T.);
#500=EDGE_CURVE('',#407,#407,#351,.T.);
#501=EDGE_CURVE('',#408,#409,#95,.T.);
#502=EDGE_CURVE('',#408,#410,#96,.T.);
#503=EDGE_CURVE('',#411,#410,#97,.T.);
#504=EDGE_CURVE('',#409,#411,#98,.T.);
#505=EDGE_CURVE('',#409,#412,#99,.T.);
#506=EDGE_CURVE('',#413,#412,#100,.T.);
#507=EDGE_CURVE('',#408,#413,#101,.T.);
#508=EDGE_CURVE('',#414,#411,#102,.T.);
#509=EDGE_CURVE('',#412,#414,#103,.T.);
#510=EDGE_CURVE('',#415,#410,#104,.T.);
#511=EDGE_CURVE('',#415,#414,#105,.T.);
#512=EDGE_CURVE('',#413,#415,#106,.T.);
#513=EDGE_CURVE('',#416,#417,#107,.T.);
#514=EDGE_CURVE('',#417,#416,#352,.T.);
#515=EDGE_CURVE('',#418,#419,#108,.T.);
#516=EDGE_CURVE('',#420,#418,#353,.T.);
#517=EDGE_CURVE('',#419,#420,#354,.T.);
#518=EDGE_CURVE('',#393,#416,#355,.T.);
#519=EDGE_CURVE('',#393,#392,#356,.T.);
#520=EDGE_CURVE('',#419,#392,#357,.T.);
#521=EDGE_CURVE('',#420,#400,#109,.T.);
#522=EDGE_CURVE('',#417,#418,#358,.T.);
#523=EDGE_CURVE('',#421,#418,#110,.T.);
#524=EDGE_CURVE('',#417,#421,#111,.T.);
#525=EDGE_CURVE('',#419,#391,#112,.T.);
#526=EDGE_CURVE('',#422,#416,#113,.T.);
#527=EDGE_CURVE('',#394,#422,#114,.T.);
#528=EDGE_CURVE('',#423,#423,#359,.T.);
#529=EDGE_CURVE('',#423,#424,#115,.T.);
#530=EDGE_CURVE('',#424,#424,#360,.T.);
#531=EDGE_CURVE('',#425,#425,#361,.T.);
#532=EDGE_CURVE('',#425,#426,#116,.T.);
#533=EDGE_CURVE('',#426,#426,#362,.T.);
#534=EDGE_CURVE('',#390,#427,#117,.T.);
#535=EDGE_CURVE('',#427,#421,#118,.T.);
#536=EDGE_CURVE('',#428,#395,#119,.T.);
#537=EDGE_CURVE('',#428,#422,#120,.T.);
#538=EDGE_CURVE('',#397,#429,#121,.T.);
#539=EDGE_CURVE('',#396,#430,#122,.T.);
#540=EDGE_CURVE('',#429,#430,#123,.T.);
#541=EDGE_CURVE('',#430,#428,#124,.T.);
#542=EDGE_CURVE('',#429,#385,#125,.T.);
#543=EDGE_CURVE('',#427,#398,#126,.T.);
#544=ORIENTED_EDGE('',*,*,#431,.F.);
#545=ORIENTED_EDGE('',*,*,#432,.F.);
#546=ORIENTED_EDGE('',*,*,#433,.F.);
#547=ORIENTED_EDGE('',*,*,#434,.F.);
#548=ORIENTED_EDGE('',*,*,#435,.F.);
#549=ORIENTED_EDGE('',*,*,#436,.F.);
#550=ORIENTED_EDGE('',*,*,#435,.T.);
#551=ORIENTED_EDGE('',*,*,#437,.T.);
#552=ORIENTED_EDGE('',*,*,#433,.T.);
#553=ORIENTED_EDGE('',*,*,#438,.T.);
#554=ORIENTED_EDGE('',*,*,#439,.F.);
#555=ORIENTED_EDGE('',*,*,#440,.F.);
#556=ORIENTED_EDGE('',*,*,#441,.F.);
#557=ORIENTED_EDGE('',*,*,#432,.T.);
#558=ORIENTED_EDGE('',*,*,#442,.T.);
#559=ORIENTED_EDGE('',*,*,#440,.T.);
#560=ORIENTED_EDGE('',*,*,#443,.T.);
#561=ORIENTED_EDGE('',*,*,#444,.F.);
#562=ORIENTED_EDGE('',*,*,#445,.F.);
#563=ORIENTED_EDGE('',*,*,#446,.F.);
#564=ORIENTED_EDGE('',*,*,#445,.T.);
#565=ORIENTED_EDGE('',*,*,#447,.T.);
#566=ORIENTED_EDGE('',*,*,#436,.T.);
#567=ORIENTED_EDGE('',*,*,#448,.T.);
#568=ORIENTED_EDGE('',*,*,#439,.T.);
#569=ORIENTED_EDGE('',*,*,#449,.T.);
#570=ORIENTED_EDGE('',*,*,#446,.T.);
#571=ORIENTED_EDGE('',*,*,#450,.T.);
#572=ORIENTED_EDGE('',*,*,#451,.T.);
#573=ORIENTED_EDGE('',*,*,#452,.T.);
#574=ORIENTED_EDGE('',*,*,#444,.T.);
#575=ORIENTED_EDGE('',*,*,#453,.T.);
#576=ORIENTED_EDGE('',*,*,#454,.T.);
#577=ORIENTED_EDGE('',*,*,#455,.T.);
#578=ORIENTED_EDGE('',*,*,#451,.F.);
#579=ORIENTED_EDGE('',*,*,#456,.T.);
#580=ORIENTED_EDGE('',*,*,#454,.F.);
#581=ORIENTED_EDGE('',*,*,#457,.T.);
#582=ORIENTED_EDGE('',*,*,#441,.T.);
#583=ORIENTED_EDGE('',*,*,#458,.T.);
#584=ORIENTED_EDGE('',*,*,#459,.T.);
#585=ORIENTED_EDGE('',*,*,#460,.T.);
#586=ORIENTED_EDGE('',*,*,#431,.T.);
#587=ORIENTED_EDGE('',*,*,#461,.T.);
#588=ORIENTED_EDGE('',*,*,#462,.T.);
#589=ORIENTED_EDGE('',*,*,#463,.T.);
#590=ORIENTED_EDGE('',*,*,#464,.T.);
#591=ORIENTED_EDGE('',*,*,#465,.T.);
#592=ORIENTED_EDGE('',*,*,#459,.F.);
#593=ORIENTED_EDGE('',*,*,#466,.T.);
#594=ORIENTED_EDGE('',*,*,#467,.T.);
#595=ORIENTED_EDGE('',*,*,#468,.T.);
#596=ORIENTED_EDGE('',*,*,#469,.T.);
#597=ORIENTED_EDGE('',*,*,#470,.T.);
#598=ORIENTED_EDGE('',*,*,#464,.F.);
#599=ORIENTED_EDGE('',*,*,#471,.T.);
#600=ORIENTED_EDGE('',*,*,#434,.T.);
#601=ORIENTED_EDGE('',*,*,#472,.T.);
#602=ORIENTED_EDGE('',*,*,#465,.F.);
#603=ORIENTED_EDGE('',*,*,#473,.T.);
#604=ORIENTED_EDGE('',*,*,#455,.F.);
#605=ORIENTED_EDGE('',*,*,#474,.T.);
#606=ORIENTED_EDGE('',*,*,#472,.F.);
#607=ORIENTED_EDGE('',*,*,#447,.F.);
#608=ORIENTED_EDGE('',*,*,#452,.F.);
#609=ORIENTED_EDGE('',*,*,#473,.F.);
#610=ORIENTED_EDGE('',*,*,#462,.F.);
#611=ORIENTED_EDGE('',*,*,#475,.T.);
#612=ORIENTED_EDGE('',*,*,#476,.T.);
#613=ORIENTED_EDGE('',*,*,#477,.T.);
#614=ORIENTED_EDGE('',*,*,#478,.T.);
#615=ORIENTED_EDGE('',*,*,#479,.T.);
#616=ORIENTED_EDGE('',*,*,#480,.T.);
#617=ORIENTED_EDGE('',*,*,#481,.F.);
#618=ORIENTED_EDGE('',*,*,#482,.T.);
#619=ORIENTED_EDGE('',*,*,#483,.F.);
#620=ORIENTED_EDGE('',*,*,#484,.F.);
#621=ORIENTED_EDGE('',*,*,#469,.F.);
#622=ORIENTED_EDGE('',*,*,#485,.T.);
#623=ORIENTED_EDGE('',*,*,#470,.F.);
#624=ORIENTED_EDGE('',*,*,#485,.F.);
#625=ORIENTED_EDGE('',*,*,#468,.F.);
#626=ORIENTED_EDGE('',*,*,#486,.T.);
#627=ORIENTED_EDGE('',*,*,#487,.T.);
#628=ORIENTED_EDGE('',*,*,#475,.F.);
#629=ORIENTED_EDGE('',*,*,#438,.F.);
#630=ORIENTED_EDGE('',*,*,#443,.F.);
#631=ORIENTED_EDGE('',*,*,#450,.F.);
#632=ORIENTED_EDGE('',*,*,#448,.F.);
#633=ORIENTED_EDGE('',*,*,#488,.T.);
#634=ORIENTED_EDGE('',*,*,#449,.F.);
#635=ORIENTED_EDGE('',*,*,#457,.F.);
#636=ORIENTED_EDGE('',*,*,#456,.F.);
#637=ORIENTED_EDGE('',*,*,#453,.F.);
#638=ORIENTED_EDGE('',*,*,#489,.T.);
#639=ORIENTED_EDGE('',*,*,#490,.F.);
#640=ORIENTED_EDGE('',*,*,#491,.T.);
#641=ORIENTED_EDGE('',*,*,#492,.F.);
#642=ORIENTED_EDGE('',*,*,#491,.F.);
#643=ORIENTED_EDGE('',*,*,#493,.F.);
#644=ORIENTED_EDGE('',*,*,#494,.T.);
#645=ORIENTED_EDGE('',*,*,#495,.F.);
#646=ORIENTED_EDGE('',*,*,#494,.F.);
#647=ORIENTED_EDGE('',*,*,#496,.F.);
#648=ORIENTED_EDGE('',*,*,#497,.T.);
#649=ORIENTED_EDGE('',*,*,#498,.F.);
#650=ORIENTED_EDGE('',*,*,#497,.F.);
#651=ORIENTED_EDGE('',*,*,#488,.F.);
#652=ORIENTED_EDGE('',*,*,#499,.T.);
#653=ORIENTED_EDGE('',*,*,#500,.T.);
#654=ORIENTED_EDGE('',*,*,#499,.F.);
#655=ORIENTED_EDGE('',*,*,#500,.F.);
#656=ORIENTED_EDGE('',*,*,#490,.T.);
#657=ORIENTED_EDGE('',*,*,#493,.T.);
#658=ORIENTED_EDGE('',*,*,#496,.T.);
#659=ORIENTED_EDGE('',*,*,#501,.F.);
#660=ORIENTED_EDGE('',*,*,#502,.T.);
#661=ORIENTED_EDGE('',*,*,#503,.F.);
#662=ORIENTED_EDGE('',*,*,#504,.F.);
#663=ORIENTED_EDGE('',*,*,#492,.T.);
#664=ORIENTED_EDGE('',*,*,#495,.T.);
#665=ORIENTED_EDGE('',*,*,#498,.T.);
#666=ORIENTED_EDGE('',*,*,#501,.T.);
#667=ORIENTED_EDGE('',*,*,#505,.T.);
#668=ORIENTED_EDGE('',*,*,#506,.F.);
#669=ORIENTED_EDGE('',*,*,#507,.F.);
#670=ORIENTED_EDGE('',*,*,#504,.T.);
#671=ORIENTED_EDGE('',*,*,#508,.F.);
#672=ORIENTED_EDGE('',*,*,#509,.F.);
#673=ORIENTED_EDGE('',*,*,#505,.F.);
#674=ORIENTED_EDGE('',*,*,#503,.T.);
#675=ORIENTED_EDGE('',*,*,#510,.F.);
#676=ORIENTED_EDGE('',*,*,#511,.T.);
#677=ORIENTED_EDGE('',*,*,#508,.T.);
#678=ORIENTED_EDGE('',*,*,#512,.F.);
#679=ORIENTED_EDGE('',*,*,#506,.T.);
#680=ORIENTED_EDGE('',*,*,#509,.T.);
#681=ORIENTED_EDGE('',*,*,#511,.F.);
#682=ORIENTED_EDGE('',*,*,#513,.F.);
#683=ORIENTED_EDGE('',*,*,#514,.F.);
#684=ORIENTED_EDGE('',*,*,#515,.F.);
#685=ORIENTED_EDGE('',*,*,#516,.F.);
#686=ORIENTED_EDGE('',*,*,#517,.F.);
#687=ORIENTED_EDGE('',*,*,#518,.F.);
#688=ORIENTED_EDGE('',*,*,#519,.T.);
#689=ORIENTED_EDGE('',*,*,#520,.F.);
#690=ORIENTED_EDGE('',*,*,#517,.T.);
#691=ORIENTED_EDGE('',*,*,#521,.T.);
#692=ORIENTED_EDGE('',*,*,#489,.F.);
#693=ORIENTED_EDGE('',*,*,#521,.F.);
#694=ORIENTED_EDGE('',*,*,#516,.T.);
#695=ORIENTED_EDGE('',*,*,#522,.F.);
#696=ORIENTED_EDGE('',*,*,#514,.T.);
#697=ORIENTED_EDGE('',*,*,#479,.F.);
#698=ORIENTED_EDGE('',*,*,#519,.F.);
#699=ORIENTED_EDGE('',*,*,#522,.T.);
#700=ORIENTED_EDGE('',*,*,#523,.F.);
#701=ORIENTED_EDGE('',*,*,#524,.F.);
#702=ORIENTED_EDGE('',*,*,#520,.T.);
#703=ORIENTED_EDGE('',*,*,#478,.F.);
#704=ORIENTED_EDGE('',*,*,#525,.F.);
#705=ORIENTED_EDGE('',*,*,#518,.T.);
#706=ORIENTED_EDGE('',*,*,#526,.F.);
#707=ORIENTED_EDGE('',*,*,#527,.F.);
#708=ORIENTED_EDGE('',*,*,#480,.F.);
#709=ORIENTED_EDGE('',*,*,#528,.F.);
#710=ORIENTED_EDGE('',*,*,#529,.T.);
#711=ORIENTED_EDGE('',*,*,#530,.T.);
#712=ORIENTED_EDGE('',*,*,#529,.F.);
#713=ORIENTED_EDGE('',*,*,#530,.F.);
#714=ORIENTED_EDGE('',*,*,#531,.F.);
#715=ORIENTED_EDGE('',*,*,#532,.T.);
#716=ORIENTED_EDGE('',*,*,#533,.T.);
#717=ORIENTED_EDGE('',*,*,#532,.F.);
#718=ORIENTED_EDGE('',*,*,#533,.F.);
#719=ORIENTED_EDGE('',*,*,#534,.T.);
#720=ORIENTED_EDGE('',*,*,#535,.T.);
#721=ORIENTED_EDGE('',*,*,#523,.T.);
#722=ORIENTED_EDGE('',*,*,#515,.T.);
#723=ORIENTED_EDGE('',*,*,#525,.T.);
#724=ORIENTED_EDGE('',*,*,#477,.F.);
#725=ORIENTED_EDGE('',*,*,#536,.T.);
#726=ORIENTED_EDGE('',*,*,#481,.T.);
#727=ORIENTED_EDGE('',*,*,#527,.T.);
#728=ORIENTED_EDGE('',*,*,#537,.F.);
#729=ORIENTED_EDGE('',*,*,#538,.F.);
#730=ORIENTED_EDGE('',*,*,#483,.T.);
#731=ORIENTED_EDGE('',*,*,#539,.T.);
#732=ORIENTED_EDGE('',*,*,#540,.F.);
#733=ORIENTED_EDGE('',*,*,#482,.F.);
#734=ORIENTED_EDGE('',*,*,#536,.F.);
#735=ORIENTED_EDGE('',*,*,#541,.F.);
#736=ORIENTED_EDGE('',*,*,#539,.F.);
#737=ORIENTED_EDGE('',*,*,#528,.T.);
#738=ORIENTED_EDGE('',*,*,#467,.F.);
#739=ORIENTED_EDGE('',*,*,#542,.F.);
#740=ORIENTED_EDGE('',*,*,#540,.T.);
#741=ORIENTED_EDGE('',*,*,#541,.T.);
#742=ORIENTED_EDGE('',*,*,#537,.T.);
#743=ORIENTED_EDGE('',*,*,#526,.T.);
#744=ORIENTED_EDGE('',*,*,#513,.T.);
#745=ORIENTED_EDGE('',*,*,#524,.T.);
#746=ORIENTED_EDGE('',*,*,#535,.F.);
#747=ORIENTED_EDGE('',*,*,#543,.T.);
#748=ORIENTED_EDGE('',*,*,#486,.F.);
#749=ORIENTED_EDGE('',*,*,#543,.F.);
#750=ORIENTED_EDGE('',*,*,#534,.F.);
#751=ORIENTED_EDGE('',*,*,#476,.F.);
#752=ORIENTED_EDGE('',*,*,#487,.F.);
#753=ORIENTED_EDGE('',*,*,#531,.T.);
#754=ORIENTED_EDGE('',*,*,#463,.F.);
#755=ORIENTED_EDGE('',*,*,#484,.T.);
#756=ORIENTED_EDGE('',*,*,#538,.T.);
#757=ORIENTED_EDGE('',*,*,#542,.T.);
#758=ORIENTED_EDGE('',*,*,#466,.F.);
#759=ORIENTED_EDGE('',*,*,#461,.F.);
#760=ORIENTED_EDGE('',*,*,#437,.F.);
#761=ORIENTED_EDGE('',*,*,#471,.F.);
#762=ORIENTED_EDGE('',*,*,#507,.T.);
#763=ORIENTED_EDGE('',*,*,#512,.T.);
#764=ORIENTED_EDGE('',*,*,#510,.T.);
#765=ORIENTED_EDGE('',*,*,#502,.F.);
#766=ORIENTED_EDGE('',*,*,#460,.F.);
#767=ORIENTED_EDGE('',*,*,#474,.F.);
#768=ORIENTED_EDGE('',*,*,#458,.F.);
#769=ORIENTED_EDGE('',*,*,#442,.F.);
#770=SPHERICAL_SURFACE('',#844,2.);
#771=SPHERICAL_SURFACE('',#848,2.);
#772=SPHERICAL_SURFACE('',#853,2.);
#773=SPHERICAL_SURFACE('',#858,2.);
#774=ADVANCED_FACE('',(#210),#770,.T.);
#775=ADVANCED_FACE('',(#211),#771,.T.);
#776=ADVANCED_FACE('',(#212),#194,.T.);
#777=ADVANCED_FACE('',(#213),#772,.T.);
#778=ADVANCED_FACE('',(#214),#195,.T.);
#779=ADVANCED_FACE('',(#215),#773,.T.);
#780=ADVANCED_FACE('',(#216),#196,.T.);
#781=ADVANCED_FACE('',(#217),#197,.T.);
#782=ADVANCED_FACE('',(#218),#198,.T.);
#783=ADVANCED_FACE('',(#219),#58,.T.);
#784=ADVANCED_FACE('',(#220),#199,.T.);
#785=ADVANCED_FACE('',(#221),#200,.T.);
#786=ADVANCED_FACE('',(#222),#59,.T.);
#787=ADVANCED_FACE('',(#223),#201,.T.);
#788=ADVANCED_FACE('',(#224),#202,.T.);
#789=ADVANCED_FACE('',(#225),#26,.T.);
#790=ADVANCED_FACE('',(#226),#27,.F.);
#791=ADVANCED_FACE('',(#227),#28,.T.);
#792=ADVANCED_FACE('',(#228),#29,.F.);
#793=ADVANCED_FACE('',(#229,#15),#30,.F.);
#794=ADVANCED_FACE('',(#230,#16),#31,.T.);
#795=ADVANCED_FACE('',(#231),#203,.F.);
#796=ADVANCED_FACE('',(#232),#204,.F.);
#797=ADVANCED_FACE('',(#233),#205,.F.);
#798=ADVANCED_FACE('',(#234),#206,.F.);
#799=ADVANCED_FACE('',(#235,#17,#18,#19),#32,.T.);
#800=ADVANCED_FACE('',(#236,#20,#21,#22),#33,.T.);
#801=ADVANCED_FACE('',(#237),#34,.F.);
#802=ADVANCED_FACE('',(#238),#35,.F.);
#803=ADVANCED_FACE('',(#239),#36,.F.);
#804=ADVANCED_FACE('',(#240),#37,.F.);
#805=ADVANCED_FACE('',(#241),#38,.F.);
#806=ADVANCED_FACE('',(#242),#39,.F.);
#807=ADVANCED_FACE('',(#243),#207,.F.);
#808=ADVANCED_FACE('',(#244),#40,.F.);
#809=ADVANCED_FACE('',(#245),#41,.F.);
#810=ADVANCED_FACE('',(#246),#42,.F.);
#811=ADVANCED_FACE('',(#247),#43,.F.);
#812=ADVANCED_FACE('',(#248),#208,.F.);
#813=ADVANCED_FACE('',(#249),#44,.T.);
#814=ADVANCED_FACE('',(#250),#209,.F.);
#815=ADVANCED_FACE('',(#251),#45,.T.);
#816=ADVANCED_FACE('',(#252),#46,.F.);
#817=ADVANCED_FACE('',(#253),#47,.F.);
#818=ADVANCED_FACE('',(#254),#48,.F.);
#819=ADVANCED_FACE('',(#255,#23),#49,.F.);
#820=ADVANCED_FACE('',(#256),#50,.F.);
#821=ADVANCED_FACE('',(#257,#24),#51,.F.);
#822=ADVANCED_FACE('',(#258,#25),#52,.T.);
#823=ADVANCED_FACE('',(#259),#53,.T.);
#824=CLOSED_SHELL('',(#774,#775,#776,#777,#778,#779,#780,#781,#782,#783,
#784,#785,#786,#787,#788,#789,#790,#791,#792,#793,#794,#795,#796,#797,#798,
#799,#800,#801,#802,#803,#804,#805,#806,#807,#808,#809,#810,#811,#812,#813,
#814,#815,#816,#817,#818,#819,#820,#821,#822,#823));
#825=DERIVED_UNIT_ELEMENT(#827,1.);
#826=DERIVED_UNIT_ELEMENT(#1438,3.);
#827=(
MASS_UNIT()
NAMED_UNIT(*)
SI_UNIT($,.GRAM.)
);
#828=DERIVED_UNIT((#825,#826));
#829=MEASURE_REPRESENTATION_ITEM('density measure',
POSITIVE_RATIO_MEASURE(1.06),#828);
#830=PROPERTY_DEFINITION_REPRESENTATION(#835,#832);
#831=PROPERTY_DEFINITION_REPRESENTATION(#836,#833);
#832=REPRESENTATION('material name',(#834),#1435);
#833=REPRESENTATION('density',(#829),#1435);
#834=DESCRIPTIVE_REPRESENTATION_ITEM('ABS Plastic','ABS Plastic');
#835=PROPERTY_DEFINITION('material property','material name',#1445);
#836=PROPERTY_DEFINITION('material property','density of part',#1445);
#837=DATE_TIME_ROLE('creation_date');
#838=APPLIED_DATE_AND_TIME_ASSIGNMENT(#839,#837,(#1445));
#839=DATE_AND_TIME(#840,#841);
#840=CALENDAR_DATE(2025,3,11);
#841=LOCAL_TIME(0,0,0.,#842);
#842=COORDINATED_UNIVERSAL_TIME_OFFSET(0,0,.BEHIND.);
#843=AXIS2_PLACEMENT_3D('placement',#1189,#936,#937);
#844=AXIS2_PLACEMENT_3D('',#1190,#938,#939);
#845=AXIS2_PLACEMENT_3D('',#1193,#940,#941);
#846=AXIS2_PLACEMENT_3D('',#1195,#942,#943);
#847=AXIS2_PLACEMENT_3D('',#1196,#944,#945);
#848=AXIS2_PLACEMENT_3D('',#1197,#946,#947);
#849=AXIS2_PLACEMENT_3D('',#1200,#948,#949);
#850=AXIS2_PLACEMENT_3D('',#1202,#950,#951);
#851=AXIS2_PLACEMENT_3D('',#1203,#952,#953);
#852=AXIS2_PLACEMENT_3D('',#1204,#954,#955);
#853=AXIS2_PLACEMENT_3D('',#1207,#958,#959);
#854=AXIS2_PLACEMENT_3D('',#1210,#960,#961);
#855=AXIS2_PLACEMENT_3D('',#1212,#962,#963);
#856=AXIS2_PLACEMENT_3D('',#1213,#964,#965);
#857=AXIS2_PLACEMENT_3D('',#1214,#966,#967);
#858=AXIS2_PLACEMENT_3D('',#1217,#970,#971);
#859=AXIS2_PLACEMENT_3D('',#1220,#972,#973);
#860=AXIS2_PLACEMENT_3D('',#1222,#974,#975);
#861=AXIS2_PLACEMENT_3D('',#1223,#976,#977);
#862=AXIS2_PLACEMENT_3D('',#1224,#978,#979);
#863=AXIS2_PLACEMENT_3D('',#1227,#982,#983);
#864=AXIS2_PLACEMENT_3D('',#1230,#986,#987);
#865=AXIS2_PLACEMENT_3D('',#1233,#988,#989);
#866=AXIS2_PLACEMENT_3D('',#1236,#992,#993);
#867=AXIS2_PLACEMENT_3D('',#1239,#994,#995);
#868=AXIS2_PLACEMENT_3D('',#1240,#996,#997);
#869=AXIS2_PLACEMENT_3D('',#1241,#998,#999);
#870=AXIS2_PLACEMENT_3D('',#1242,#1000,#1001);
#871=AXIS2_PLACEMENT_3D('',#1245,#1004,#1005);
#872=AXIS2_PLACEMENT_3D('',#1248,#1006,#1007);
#873=AXIS2_PLACEMENT_3D('',#1251,#1010,#1011);
#874=AXIS2_PLACEMENT_3D('',#1259,#1012,#1013);
#875=AXIS2_PLACEMENT_3D('',#1261,#1014,#1015);
#876=AXIS2_PLACEMENT_3D('',#1262,#1016,#1017);
#877=AXIS2_PLACEMENT_3D('',#1264,#1018,#1019);
#878=AXIS2_PLACEMENT_3D('',#1276,#1020,#1021);
#879=AXIS2_PLACEMENT_3D('',#1281,#1022,#1023);
#880=AXIS2_PLACEMENT_3D('',#1284,#1026,#1027);
#881=AXIS2_PLACEMENT_3D('',#1287,#1030,#1031);
#882=AXIS2_PLACEMENT_3D('',#1288,#1032,#1033);
#883=AXIS2_PLACEMENT_3D('',#1308,#1044,#1045);
#884=AXIS2_PLACEMENT_3D('',#1310,#1047,#1048);
#885=AXIS2_PLACEMENT_3D('',#1314,#1051,#1052);
#886=AXIS2_PLACEMENT_3D('',#1316,#1053,#1054);
#887=AXIS2_PLACEMENT_3D('',#1317,#1055,#1056);
#888=AXIS2_PLACEMENT_3D('',#1319,#1057,#1058);
#889=AXIS2_PLACEMENT_3D('',#1320,#1059,#1060);
#890=AXIS2_PLACEMENT_3D('',#1322,#1061,#1062);
#891=AXIS2_PLACEMENT_3D('',#1325,#1064,#1065);
#892=AXIS2_PLACEMENT_3D('',#1326,#1066,#1067);
#893=AXIS2_PLACEMENT_3D('',#1328,#1068,#1069);
#894=AXIS2_PLACEMENT_3D('',#1331,#1071,#1072);
#895=AXIS2_PLACEMENT_3D('',#1332,#1073,#1074);
#896=AXIS2_PLACEMENT_3D('',#1334,#1075,#1076);
#897=AXIS2_PLACEMENT_3D('',#1337,#1078,#1079);
#898=AXIS2_PLACEMENT_3D('',#1338,#1080,#1081);
#899=AXIS2_PLACEMENT_3D('',#1341,#1083,#1084);
#900=AXIS2_PLACEMENT_3D('',#1342,#1085,#1086);
#901=AXIS2_PLACEMENT_3D('',#1343,#1087,#1088);
#902=AXIS2_PLACEMENT_3D('',#1352,#1093,#1094);
#903=AXIS2_PLACEMENT_3D('',#1358,#1098,#1099);
#904=AXIS2_PLACEMENT_3D('',#1362,#1102,#1103);
#905=AXIS2_PLACEMENT_3D('',#1366,#1106,#1107);
#906=AXIS2_PLACEMENT_3D('',#1368,#1109,#1110);
#907=AXIS2_PLACEMENT_3D('',#1372,#1112,#1113);
#908=AXIS2_PLACEMENT_3D('',#1373,#1114,#1115);
#909=AXIS2_PLACEMENT_3D('',#1378,#1117,#1118);
#910=AXIS2_PLACEMENT_3D('',#1379,#1119,#1120);
#911=AXIS2_PLACEMENT_3D('',#1380,#1121,#1122);
#912=AXIS2_PLACEMENT_3D('',#1381,#1123,#1124);
#913=AXIS2_PLACEMENT_3D('',#1382,#1125,#1126);
#914=AXIS2_PLACEMENT_3D('',#1383,#1127,#1128);
#915=AXIS2_PLACEMENT_3D('',#1385,#1130,#1131);
#916=AXIS2_PLACEMENT_3D('',#1386,#1132,#1133);
#917=AXIS2_PLACEMENT_3D('',#1387,#1134,#1135);
#918=AXIS2_PLACEMENT_3D('',#1391,#1138,#1139);
#919=AXIS2_PLACEMENT_3D('',#1393,#1141,#1142);
#920=AXIS2_PLACEMENT_3D('',#1397,#1145,#1146);
#921=AXIS2_PLACEMENT_3D('',#1399,#1147,#1148);
#922=AXIS2_PLACEMENT_3D('',#1402,#1150,#1151);
#923=AXIS2_PLACEMENT_3D('',#1403,#1152,#1153);
#924=AXIS2_PLACEMENT_3D('',#1404,#1154,#1155);
#925=AXIS2_PLACEMENT_3D('',#1406,#1156,#1157);
#926=AXIS2_PLACEMENT_3D('',#1409,#1159,#1160);
#927=AXIS2_PLACEMENT_3D('',#1410,#1161,#1162);
#928=AXIS2_PLACEMENT_3D('',#1411,#1163,#1164);
#929=AXIS2_PLACEMENT_3D('',#1415,#1167,#1168);
#930=AXIS2_PLACEMENT_3D('',#1419,#1171,#1172);
#931=AXIS2_PLACEMENT_3D('',#1425,#1176,#1177);
#932=AXIS2_PLACEMENT_3D('',#1427,#1179,#1180);
#933=AXIS2_PLACEMENT_3D('',#1430,#1183,#1184);
#934=AXIS2_PLACEMENT_3D('',#1431,#1185,#1186);
#935=AXIS2_PLACEMENT_3D('',#1432,#1187,#1188);
#936=DIRECTION('axis',(0.,0.,1.));
#937=DIRECTION('refdir',(1.,0.,0.));
#938=DIRECTION('center_axis',(-0.408248290463862,-0.816496580927726,0.408248290463863));
#939=DIRECTION('ref_axis',(0.577350269189626,-0.577350269189626,-0.577350269189627));
#940=DIRECTION('center_axis',(0.,0.,-1.));
#941=DIRECTION('ref_axis',(-1.11022302462516E-15,-1.,0.));
#942=DIRECTION('center_axis',(1.,-1.11022302462516E-15,0.));
#943=DIRECTION('ref_axis',(0.,0.,-1.));
#944=DIRECTION('center_axis',(-1.11022302462516E-15,-1.,2.22044604925031E-15));
#945=DIRECTION('ref_axis',(1.,-1.11022302462516E-15,0.));
#946=DIRECTION('center_axis',(0.408248290463863,-0.816496580927726,-0.408248290463863));
#947=DIRECTION('ref_axis',(0.577350269189626,0.577350269189626,-0.577350269189626));
#948=DIRECTION('center_axis',(0.,0.,-1.));
#949=DIRECTION('ref_axis',(1.,0.,0.));
#950=DIRECTION('center_axis',(0.,1.,0.));
#951=DIRECTION('ref_axis',(0.,0.,-1.));
#952=DIRECTION('center_axis',(1.,0.,0.));
#953=DIRECTION('ref_axis',(0.,1.,0.));
#954=DIRECTION('center_axis',(3.41607084500048E-16,1.,0.));
#955=DIRECTION('ref_axis',(0.707106781186547,0.,-0.707106781186548));
#956=DIRECTION('',(-3.41607084500048E-16,-1.,0.));
#957=DIRECTION('',(3.41607084500048E-16,1.,0.));
#958=DIRECTION('center_axis',(0.408248290463862,-0.816496580927726,0.408248290463863));
#959=DIRECTION('ref_axis',(-0.577350269189625,-0.577350269189625,-0.577350269189627));
#960=DIRECTION('center_axis',(0.,-1.,0.));
#961=DIRECTION('ref_axis',(0.,0.,-1.));
#962=DIRECTION('center_axis',(-1.,0.,-1.11022302462516E-15));
#963=DIRECTION('ref_axis',(0.,-1.,0.));
#964=DIRECTION('center_axis',(0.,0.,-1.));
#965=DIRECTION('ref_axis',(-1.,0.,0.));
#966=DIRECTION('center_axis',(1.,-5.97812397875084E-16,0.));
#967=DIRECTION('ref_axis',(-7.85046229341888E-16,-0.707106781186547,-0.707106781186548));
#968=DIRECTION('',(-1.,5.97812397875084E-16,0.));
#969=DIRECTION('',(1.,-5.97812397875084E-16,0.));
#970=DIRECTION('center_axis',(0.408248290463863,-0.408248290463863,-0.816496580927726));
#971=DIRECTION('ref_axis',(-0.577350269189626,0.577350269189625,-0.577350269189626));
#972=DIRECTION('center_axis',(0.,0.,-1.));
#973=DIRECTION('ref_axis',(0.,1.,0.));
#974=DIRECTION('center_axis',(-1.,-1.11022302462516E-15,0.));
#975=DIRECTION('ref_axis',(0.,0.,-1.));
#976=DIRECTION('center_axis',(0.,1.,0.));
#977=DIRECTION('ref_axis',(-1.,0.,0.));
#978=DIRECTION('center_axis',(-1.,3.41607084500048E-16,0.));
#979=DIRECTION('ref_axis',(0.,0.707106781186547,-0.707106781186548));
#980=DIRECTION('',(1.,-3.41607084500048E-16,0.));
#981=DIRECTION('',(-1.,3.41607084500048E-16,0.));
#982=DIRECTION('center_axis',(0.,-1.,0.));
#983=DIRECTION('ref_axis',(-0.707106781186547,0.,-0.707106781186548));
#984=DIRECTION('',(0.,1.,0.));
#985=DIRECTION('',(0.,-1.,0.));
#986=DIRECTION('center_axis',(0.,0.,1.));
#987=DIRECTION('ref_axis',(-0.707106781186547,0.707106781186548,0.));
#988=DIRECTION('center_axis',(0.,0.,-1.));
#989=DIRECTION('ref_axis',(-1.,0.,0.));
#990=DIRECTION('',(0.,0.,-1.));
#991=DIRECTION('',(0.,0.,1.));
#992=DIRECTION('center_axis',(1.,0.,0.));
#993=DIRECTION('ref_axis',(0.,-1.22464679914735E-16,1.));
#994=DIRECTION('center_axis',(0.,0.,1.));
#995=DIRECTION('ref_axis',(-1.,0.,0.));
#996=DIRECTION('center_axis',(-1.,0.,0.));
#997=DIRECTION('ref_axis',(0.,-3.28468350480816E-17,1.));
#998=DIRECTION('center_axis',(1.,0.,0.));
#999=DIRECTION('ref_axis',(0.,-3.28468350480816E-17,1.));
#1000=DIRECTION('center_axis',(0.,0.,1.));
#1001=DIRECTION('ref_axis',(-0.707106781186548,-0.707106781186547,0.));
#1002=DIRECTION('',(0.,0.,-1.));
#1003=DIRECTION('',(0.,0.,1.));
#1004=DIRECTION('center_axis',(0.,0.,1.));
#1005=DIRECTION('ref_axis',(0.707106781186548,-0.707106781186548,0.));
#1006=DIRECTION('center_axis',(0.,0.,-1.));
#1007=DIRECTION('ref_axis',(1.,0.,0.));
#1008=DIRECTION('',(0.,0.,-1.));
#1009=DIRECTION('',(0.,0.,1.));
#1010=DIRECTION('center_axis',(-1.,3.41607084500048E-16,0.));
#1011=DIRECTION('ref_axis',(0.,0.,1.));
#1012=DIRECTION('center_axis',(-1.,3.41607084500048E-16,0.));
#1013=DIRECTION('ref_axis',(-2.91738500451557E-32,-8.5401771125012E-17,
1.));
#1014=DIRECTION('center_axis',(0.,0.,1.));
#1015=DIRECTION('ref_axis',(1.,0.,0.));
#1016=DIRECTION('center_axis',(1.,-3.41607084500048E-16,0.));
#1017=DIRECTION('ref_axis',(0.,-8.5401771125012E-17,1.));
#1018=DIRECTION('center_axis',(-1.,3.41607084500048E-16,0.));
#1019=DIRECTION('ref_axis',(-2.91738500451557E-32,-8.5401771125012E-17,
1.));
#1020=DIRECTION('center_axis',(-1.,3.41607084500048E-16,0.));
#1021=DIRECTION('ref_axis',(-2.91738500451557E-32,-8.5401771125012E-17,
1.));
#1022=DIRECTION('center_axis',(0.,0.,1.));
#1023=DIRECTION('ref_axis',(0.707106781186548,0.707106781186548,0.));
#1024=DIRECTION('',(0.,0.,-1.));
#1025=DIRECTION('',(0.,0.,1.));
#1026=DIRECTION('center_axis',(-1.,3.41607084500048E-16,0.));
#1027=DIRECTION('ref_axis',(2.4155268595135E-16,0.707106781186546,0.707106781186549));
#1028=DIRECTION('',(-1.,3.41607084500048E-16,0.));
#1029=DIRECTION('',(1.,-5.97812397875084E-16,0.));
#1030=DIRECTION('center_axis',(3.41607084500048E-16,1.,0.));
#1031=DIRECTION('ref_axis',(-1.,3.41607084500048E-16,0.));
#1032=DIRECTION('center_axis',(3.50228083477967E-16,1.,0.));
#1033=DIRECTION('ref_axis',(0.,0.,-1.));
#1034=DIRECTION('',(-1.,3.50228083477967E-16,0.));
#1035=DIRECTION('',(0.,0.,-1.));
#1036=DIRECTION('',(-1.,3.5059674461847E-16,0.));
#1037=DIRECTION('',(0.,0.,-1.));
#1038=DIRECTION('',(0.,0.,-1.));
#1039=DIRECTION('',(0.,0.,-1.));
#1040=DIRECTION('',(-1.,3.5059674461847E-16,0.));
#1041=DIRECTION('',(0.,0.,-1.));
#1042=DIRECTION('',(-1.,3.50228083477967E-16,0.));
#1043=DIRECTION('',(0.,0.,-1.));
#1044=DIRECTION('center_axis',(1.,-3.41607084500048E-16,0.));
#1045=DIRECTION('ref_axis',(3.41607084500048E-16,1.,0.));
#1046=DIRECTION('',(3.41607084500048E-16,1.,0.));
#1047=DIRECTION('center_axis',(0.,0.,1.));
#1048=DIRECTION('ref_axis',(3.41607084500048E-16,1.,0.));
#1049=DIRECTION('',(-1.,3.50228083477967E-16,0.));
#1050=DIRECTION('',(3.41607084500048E-16,1.,0.));
#1051=DIRECTION('center_axis',(0.,0.,1.));
#1052=DIRECTION('ref_axis',(1.,0.,0.));
#1053=DIRECTION('center_axis',(0.,0.,1.));
#1054=DIRECTION('ref_axis',(-1.,0.,0.));
#1055=DIRECTION('center_axis',(-1.,0.,0.));
#1056=DIRECTION('ref_axis',(0.,-1.,0.));
#1057=DIRECTION('center_axis',(1.,0.,0.));
#1058=DIRECTION('ref_axis',(0.,0.,-1.));
#1059=DIRECTION('center_axis',(0.,0.,1.));
#1060=DIRECTION('ref_axis',(-1.,0.,0.));
#1061=DIRECTION('center_axis',(0.,0.,1.));
#1062=DIRECTION('ref_axis',(-1.,0.,0.));
#1063=DIRECTION('',(0.,0.,1.));
#1064=DIRECTION('center_axis',(0.,0.,-1.));
#1065=DIRECTION('ref_axis',(-1.,0.,0.));
#1066=DIRECTION('center_axis',(0.,0.,1.));
#1067=DIRECTION('ref_axis',(-1.,0.,0.));
#1068=DIRECTION('center_axis',(0.,0.,1.));
#1069=DIRECTION('ref_axis',(-1.,0.,0.));
#1070=DIRECTION('',(0.,0.,1.));
#1071=DIRECTION('center_axis',(0.,0.,-1.));
#1072=DIRECTION('ref_axis',(-1.,0.,0.));
#1073=DIRECTION('center_axis',(0.,0.,1.));
#1074=DIRECTION('ref_axis',(-1.,0.,0.));
#1075=DIRECTION('center_axis',(0.,0.,1.));
#1076=DIRECTION('ref_axis',(-1.,0.,0.));
#1077=DIRECTION('',(0.,0.,1.));
#1078=DIRECTION('center_axis',(0.,0.,-1.));
#1079=DIRECTION('ref_axis',(-1.,0.,0.));
#1080=DIRECTION('center_axis',(0.,0.,1.));
#1081=DIRECTION('ref_axis',(-1.,0.,0.));
#1082=DIRECTION('',(0.,0.,1.));
#1083=DIRECTION('center_axis',(0.,0.,1.));
#1084=DIRECTION('ref_axis',(-1.,0.,0.));
#1085=DIRECTION('center_axis',(0.,0.,-1.));
#1086=DIRECTION('ref_axis',(-1.,0.,0.));
#1087=DIRECTION('center_axis',(0.,0.,1.));
#1088=DIRECTION('ref_axis',(1.,0.,0.));
#1089=DIRECTION('',(-1.,3.37893964016352E-16,0.));
#1090=DIRECTION('',(4.44089209850063E-16,1.,0.));
#1091=DIRECTION('',(1.,-3.37893964016352E-16,0.));
#1092=DIRECTION('',(3.37893964016352E-16,1.,0.));
#1093=DIRECTION('center_axis',(-3.37893964016352E-16,-1.,0.));
#1094=DIRECTION('ref_axis',(0.,0.,1.));
#1095=DIRECTION('',(0.,0.,1.));
#1096=DIRECTION('',(-1.,3.37893964016352E-16,0.));
#1097=DIRECTION('',(0.,0.,1.));
#1098=DIRECTION('center_axis',(-1.,3.37893964016352E-16,0.));
#1099=DIRECTION('ref_axis',(0.,0.,1.));
#1100=DIRECTION('',(0.,0.,-1.));
#1101=DIRECTION('',(3.41607084500048E-16,1.,0.));
#1102=DIRECTION('center_axis',(3.37893964016352E-16,1.,0.));
#1103=DIRECTION('ref_axis',(0.,0.,-1.));
#1104=DIRECTION('',(0.,0.,-1.));
#1105=DIRECTION('',(-1.,3.37893964016352E-16,0.));
#1106=DIRECTION('center_axis',(0.,0.,1.));
#1107=DIRECTION('ref_axis',(3.41607084500048E-16,1.,0.));
#1108=DIRECTION('',(3.41607084500048E-16,1.,0.));
#1109=DIRECTION('center_axis',(1.,-3.5059674461847E-16,0.));
#1110=DIRECTION('ref_axis',(0.,0.,-1.));
#1111=DIRECTION('',(1.19264166851266E-31,3.49126737303508E-16,1.));
#1112=DIRECTION('center_axis',(1.,-3.5059674461847E-16,0.));
#1113=DIRECTION('ref_axis',(0.,0.,-1.));
#1114=DIRECTION('center_axis',(1.,-3.5059674461847E-16,0.));
#1115=DIRECTION('ref_axis',(0.,0.,-1.));
#1116=DIRECTION('',(3.41607084500048E-16,1.,0.));
#1117=DIRECTION('center_axis',(1.,-3.5059674461847E-16,0.));
#1118=DIRECTION('ref_axis',(0.,0.,-1.));
#1119=DIRECTION('center_axis',(1.,-3.5059674461847E-16,0.));
#1120=DIRECTION('ref_axis',(0.,0.,-1.));
#1121=DIRECTION('center_axis',(-1.,3.5059674461847E-16,0.));
#1122=DIRECTION('ref_axis',(0.,0.,-1.));
#1123=DIRECTION('center_axis',(-1.,3.5059674461847E-16,0.));
#1124=DIRECTION('ref_axis',(0.,0.,-1.));
#1125=DIRECTION('center_axis',(1.,-3.5059674461847E-16,0.));
#1126=DIRECTION('ref_axis',(0.,0.,-1.));
#1127=DIRECTION('center_axis',(-1.,3.5059674461847E-16,0.));
#1128=DIRECTION('ref_axis',(0.,0.,-1.));
#1129=DIRECTION('',(-1.,3.5059674461847E-16,0.));
#1130=DIRECTION('center_axis',(-1.,3.5059674461847E-16,0.));
#1131=DIRECTION('ref_axis',(0.,0.,-1.));
#1132=DIRECTION('center_axis',(1.,-3.5059674461847E-16,0.));
#1133=DIRECTION('ref_axis',(0.,0.,-1.));
#1134=DIRECTION('center_axis',(-1.,3.5059674461847E-16,0.));
#1135=DIRECTION('ref_axis',(0.,0.,1.));
#1136=DIRECTION('',(3.41607084500048E-16,1.,0.));
#1137=DIRECTION('',(1.19264166851266E-31,3.49126737303508E-16,1.));
#1138=DIRECTION('center_axis',(-1.,3.5059674461847E-16,0.));
#1139=DIRECTION('ref_axis',(0.,0.,1.));
#1140=DIRECTION('',(3.41607084500048E-16,1.,0.));
#1141=DIRECTION('center_axis',(-1.,3.5059674461847E-16,0.));
#1142=DIRECTION('ref_axis',(0.,0.,1.));
#1143=DIRECTION('',(1.19264166851266E-31,3.49126737303508E-16,1.));
#1144=DIRECTION('',(-3.41607084500048E-16,-1.,0.));
#1145=DIRECTION('center_axis',(-1.,3.50228083477967E-16,0.));
#1146=DIRECTION('ref_axis',(0.,0.,-1.));
#1147=DIRECTION('center_axis',(-1.,3.50228083477967E-16,0.));
#1148=DIRECTION('ref_axis',(0.,0.,-1.));
#1149=DIRECTION('',(-1.,3.50228083477967E-16,0.));
#1150=DIRECTION('center_axis',(-1.,3.50228083477967E-16,0.));
#1151=DIRECTION('ref_axis',(0.,0.,-1.));
#1152=DIRECTION('center_axis',(1.,-3.50228083477967E-16,0.));
#1153=DIRECTION('ref_axis',(0.,0.,-1.));
#1154=DIRECTION('center_axis',(-1.,3.50228083477967E-16,0.));
#1155=DIRECTION('ref_axis',(0.,0.,-1.));
#1156=DIRECTION('center_axis',(-1.,3.50228083477967E-16,0.));
#1157=DIRECTION('ref_axis',(0.,0.,-1.));
#1158=DIRECTION('',(-1.,3.50228083477967E-16,0.));
#1159=DIRECTION('center_axis',(-1.,3.50228083477967E-16,0.));
#1160=DIRECTION('ref_axis',(0.,0.,-1.));
#1161=DIRECTION('center_axis',(1.,-3.50228083477967E-16,0.));
#1162=DIRECTION('ref_axis',(0.,0.,-1.));
#1163=DIRECTION('center_axis',(0.,0.,1.));
#1164=DIRECTION('ref_axis',(3.41607084500048E-16,1.,0.));
#1165=DIRECTION('',(-3.41607084500048E-16,-1.,0.));
#1166=DIRECTION('',(-1.,3.5059674461847E-16,0.));
#1167=DIRECTION('center_axis',(0.,0.,-1.));
#1168=DIRECTION('ref_axis',(-3.41607084500048E-16,-1.,0.));
#1169=DIRECTION('',(3.41607084500048E-16,1.,0.));
#1170=DIRECTION('',(-1.,3.5059674461847E-16,0.));
#1171=DIRECTION('center_axis',(1.03688341906022E-30,2.96059473233375E-15,
-1.));
#1172=DIRECTION('ref_axis',(-3.41607084500048E-16,-1.,-2.96059473233375E-15));
#1173=DIRECTION('',(-3.41607084500048E-16,-1.,-2.96059473233375E-15));
#1174=DIRECTION('',(-3.41607084500048E-16,-1.,-2.96059473233375E-15));
#1175=DIRECTION('',(-1.,3.50228083477967E-16,0.));
#1176=DIRECTION('center_axis',(-1.,3.50228083477967E-16,0.));
#1177=DIRECTION('ref_axis',(0.,0.,1.));
#1178=DIRECTION('',(1.19264166851266E-31,3.49126737303508E-16,1.));
#1179=DIRECTION('center_axis',(-3.50228083477967E-16,-1.,3.49126737303508E-16));
#1180=DIRECTION('ref_axis',(1.19264166851266E-31,3.49126737303508E-16,1.));
#1181=DIRECTION('',(1.19264166851266E-31,3.49126737303508E-16,1.));
#1182=DIRECTION('',(1.19264166851266E-31,3.49126737303508E-16,1.));
#1183=DIRECTION('center_axis',(-1.,3.50228083477967E-16,0.));
#1184=DIRECTION('ref_axis',(0.,0.,1.));
#1185=DIRECTION('center_axis',(1.,-3.41607084500048E-16,0.));
#1186=DIRECTION('ref_axis',(3.41607084500048E-16,1.,0.));
#1187=DIRECTION('center_axis',(-5.97812397875084E-16,-1.,0.));
#1188=DIRECTION('ref_axis',(1.,-5.97812397875084E-16,0.));
#1189=CARTESIAN_POINT('',(0.,0.,0.));
#1190=CARTESIAN_POINT('Origin',(11.,-11.,2.));
#1191=CARTESIAN_POINT('',(11.,-13.,2.));
#1192=CARTESIAN_POINT('',(13.,-11.,2.));
#1193=CARTESIAN_POINT('Origin',(11.,-11.,2.));
#1194=CARTESIAN_POINT('',(11.,-11.,0.));
#1195=CARTESIAN_POINT('Origin',(11.,-11.,2.));
#1196=CARTESIAN_POINT('Origin',(11.,-11.,2.));
#1197=CARTESIAN_POINT('Origin',(11.,11.,2.));
#1198=CARTESIAN_POINT('',(13.,11.,2.));
#1199=CARTESIAN_POINT('',(11.,13.,2.));
#1200=CARTESIAN_POINT('Origin',(11.,11.,2.));
#1201=CARTESIAN_POINT('',(11.,11.,0.));
#1202=CARTESIAN_POINT('Origin',(11.,11.,2.));
#1203=CARTESIAN_POINT('Origin',(11.,11.,2.));
#1204=CARTESIAN_POINT('Origin',(11.,-6.50000000000001,2.));
#1205=CARTESIAN_POINT('',(13.,-6.50000000000001,2.));
#1206=CARTESIAN_POINT('',(11.,-6.50000000000001,0.));
#1207=CARTESIAN_POINT('Origin',(-11.,-11.,2.));
#1208=CARTESIAN_POINT('',(-11.,-11.,0.));
#1209=CARTESIAN_POINT('',(-13.,-11.,2.));
#1210=CARTESIAN_POINT('Origin',(-11.,-11.,2.));
#1211=CARTESIAN_POINT('',(-11.,-13.,2.));
#1212=CARTESIAN_POINT('Origin',(-11.,-11.,2.));
#1213=CARTESIAN_POINT('Origin',(-11.,-11.,2.));
#1214=CARTESIAN_POINT('Origin',(-6.5,-11.,2.));
#1215=CARTESIAN_POINT('',(-6.5,-13.,2.));
#1216=CARTESIAN_POINT('',(-6.5,-11.,0.));
#1217=CARTESIAN_POINT('Origin',(-11.,11.,2.));
#1218=CARTESIAN_POINT('',(-11.,13.,2.));
#1219=CARTESIAN_POINT('',(-13.,11.,2.));
#1220=CARTESIAN_POINT('Origin',(-11.,11.,2.));
#1221=CARTESIAN_POINT('',(-11.,11.,0.));
#1222=CARTESIAN_POINT('Origin',(-11.,11.,2.));
#1223=CARTESIAN_POINT('Origin',(-11.,11.,2.));
#1224=CARTESIAN_POINT('Origin',(6.50000000000001,11.,2.));
#1225=CARTESIAN_POINT('',(6.50000000000001,13.,2.));
#1226=CARTESIAN_POINT('',(6.50000000000001,11.,0.));
#1227=CARTESIAN_POINT('Origin',(-11.,6.5,2.));
#1228=CARTESIAN_POINT('',(-13.,6.5,2.));
#1229=CARTESIAN_POINT('',(-11.,6.5,0.));
#1230=CARTESIAN_POINT('Origin',(-11.,11.,0.));
#1231=CARTESIAN_POINT('',(-13.,11.,203.7));
#1232=CARTESIAN_POINT('',(-11.,13.,203.7));
#1233=CARTESIAN_POINT('Origin',(-11.,11.,203.7));
#1234=CARTESIAN_POINT('',(-11.,13.,0.));
#1235=CARTESIAN_POINT('',(-13.,11.,0.));
#1236=CARTESIAN_POINT('Origin',(-11.,-6.83214169000096E-16,203.7));
#1237=CARTESIAN_POINT('',(-13.,-11.,203.7));
#1238=CARTESIAN_POINT('',(-11.,-13.,203.7));
#1239=CARTESIAN_POINT('Origin',(-11.,-11.,203.7));
#1240=CARTESIAN_POINT('Origin',(-11.,-6.83214169000096E-16,203.7));
#1241=CARTESIAN_POINT('Origin',(-13.,-6.83214169000096E-16,203.7));
#1242=CARTESIAN_POINT('Origin',(-11.,-11.,0.));
#1243=CARTESIAN_POINT('',(-13.,-11.,0.));
#1244=CARTESIAN_POINT('',(-11.,-13.,0.));
#1245=CARTESIAN_POINT('Origin',(11.,-11.,0.));
#1246=CARTESIAN_POINT('',(13.,-11.,203.7));
#1247=CARTESIAN_POINT('',(11.,-13.,203.7));
#1248=CARTESIAN_POINT('Origin',(11.,-11.,203.7));
#1249=CARTESIAN_POINT('',(11.,-13.,0.));
#1250=CARTESIAN_POINT('',(13.,-11.,0.));
#1251=CARTESIAN_POINT('Origin',(11.,-8.19857002800116E-15,203.7));
#1252=CARTESIAN_POINT('',(12.8872952533171,5.99999999999999,213.7));
#1253=CARTESIAN_POINT('',(13.,5.99999999999999,212.919544457293));
#1254=CARTESIAN_POINT('Ctrl Pts',(12.8872952533171,5.99999999999999,213.7));
#1255=CARTESIAN_POINT('Ctrl Pts',(12.9623698001696,5.99999999999999,213.450364035317));
#1256=CARTESIAN_POINT('Ctrl Pts',(13.,5.99999999999999,213.166331855348));
#1257=CARTESIAN_POINT('Ctrl Pts',(13.,5.99999999999999,212.919544457293));
#1258=CARTESIAN_POINT('',(13.,11.,203.7));
#1259=CARTESIAN_POINT('Origin',(13.,-8.88178419700125E-15,203.7));
#1260=CARTESIAN_POINT('',(11.,13.,203.7));
#1261=CARTESIAN_POINT('Origin',(11.,11.,203.7));
#1262=CARTESIAN_POINT('Origin',(11.,-8.19857002800116E-15,203.7));
#1263=CARTESIAN_POINT('',(13.,-6.,212.919544457293));
#1264=CARTESIAN_POINT('Origin',(13.,-8.88178419700125E-15,203.7));
#1265=CARTESIAN_POINT('',(12.8872952533171,-6.,213.7));
#1266=CARTESIAN_POINT('Ctrl Pts',(13.,-6.,212.919544457293));
#1267=CARTESIAN_POINT('Ctrl Pts',(13.,-6.,213.166331855348));
#1268=CARTESIAN_POINT('Ctrl Pts',(12.9623698001696,-6.,213.450364035317));
#1269=CARTESIAN_POINT('Ctrl Pts',(12.8872952533171,-6.,213.7));
#1270=CARTESIAN_POINT('',(13.,-4.58257569495585,213.7));
#1271=CARTESIAN_POINT('Ctrl Pts',(12.8872952533171,-6.,213.7));
#1272=CARTESIAN_POINT('Ctrl Pts',(12.9720564612904,-5.53025699549769,213.7));
#1273=CARTESIAN_POINT('Ctrl Pts',(13.,-5.02571507973442,213.7));
#1274=CARTESIAN_POINT('Ctrl Pts',(13.,-4.58257569495585,213.7));
#1275=CARTESIAN_POINT('',(13.,4.58257569495583,213.7));
#1276=CARTESIAN_POINT('Origin',(13.,-8.88178419700125E-15,203.7));
#1277=CARTESIAN_POINT('Ctrl Pts',(13.,4.58257569495583,213.7));
#1278=CARTESIAN_POINT('Ctrl Pts',(13.,5.02571507973441,213.7));
#1279=CARTESIAN_POINT('Ctrl Pts',(12.9720564612904,5.53025699549768,213.7));
#1280=CARTESIAN_POINT('Ctrl Pts',(12.8872952533171,5.99999999999999,213.7));
#1281=CARTESIAN_POINT('Origin',(11.,11.,0.));
#1282=CARTESIAN_POINT('',(13.,11.,0.));
#1283=CARTESIAN_POINT('',(11.,13.,0.));
#1284=CARTESIAN_POINT('Origin',(6.5,-6.66133814775094E-15,203.7));
#1285=CARTESIAN_POINT('',(6.50000000000001,13.,203.7));
#1286=CARTESIAN_POINT('',(-6.5,-13.,203.7));
#1287=CARTESIAN_POINT('Origin',(13.,13.,0.));
#1288=CARTESIAN_POINT('Origin',(13.,5.99999999999999,213.7));
#1289=CARTESIAN_POINT('',(-2.84999999999999,5.99999999999999,213.7));
#1290=CARTESIAN_POINT('',(13.,5.99999999999999,213.7));
#1291=CARTESIAN_POINT('',(-2.84999999999999,5.99999999999999,209.));
#1292=CARTESIAN_POINT('',(-2.84999999999999,5.99999999999999,181.9));
#1293=CARTESIAN_POINT('',(-5.99999999999999,5.99999999999999,209.));
#1294=CARTESIAN_POINT('',(13.,5.99999999999999,209.));
#1295=CARTESIAN_POINT('',(-5.99999999999999,5.99999999999999,207.5));
#1296=CARTESIAN_POINT('',(-5.99999999999999,5.99999999999999,181.9));
#1297=CARTESIAN_POINT('',(-5.99999999999999,5.99999999999999,198.5));
#1298=CARTESIAN_POINT('',(-5.99999999999999,5.99999999999999,181.9));
#1299=CARTESIAN_POINT('',(-5.99999999999999,5.99999999999999,186.6));
#1300=CARTESIAN_POINT('',(-5.99999999999999,5.99999999999999,181.9));
#1301=CARTESIAN_POINT('',(-2.84999999999999,5.99999999999999,186.6));
#1302=CARTESIAN_POINT('',(13.,5.99999999999999,186.6));
#1303=CARTESIAN_POINT('',(-2.84999999999999,5.99999999999999,181.9));
#1304=CARTESIAN_POINT('',(-2.84999999999999,5.99999999999999,181.9));
#1305=CARTESIAN_POINT('',(13.,5.99999999999999,181.9));
#1306=CARTESIAN_POINT('',(13.,5.99999999999999,181.9));
#1307=CARTESIAN_POINT('',(13.,5.99999999999999,104.5));
#1308=CARTESIAN_POINT('Origin',(13.,-13.,0.));
#1309=CARTESIAN_POINT('',(13.,-9.50000000000001,213.7));
#1310=CARTESIAN_POINT('Origin',(13.,-6.,213.7));
#1311=CARTESIAN_POINT('',(-2.85,-6.,213.7));
#1312=CARTESIAN_POINT('',(13.,-6.,213.7));
#1313=CARTESIAN_POINT('',(-2.84999999999999,5.99999999999999,213.7));
#1314=CARTESIAN_POINT('Origin',(3.33066907387547E-15,-6.66133814775094E-15,
0.));
#1315=CARTESIAN_POINT('',(10.5,1.28587913910472E-15,0.));
#1316=CARTESIAN_POINT('Origin',(0.,0.,0.));
#1317=CARTESIAN_POINT('Origin',(-13.,13.,0.));
#1318=CARTESIAN_POINT('',(-13.,5.59310836094013E-15,210.5));
#1319=CARTESIAN_POINT('Origin',(-13.,4.67462326157961E-15,203.));
#1320=CARTESIAN_POINT('Origin',(-5.25946023846554,5.25946023846554,2.34));
#1321=CARTESIAN_POINT('',(-4.27946023846554,5.25946023846554,2.34));
#1322=CARTESIAN_POINT('Origin',(-5.25946023846554,5.25946023846554,2.34));
#1323=CARTESIAN_POINT('',(-4.27946023846554,5.25946023846554,5.00000000001455));
#1324=CARTESIAN_POINT('',(-4.27946023846554,5.25946023846554,2.34));
#1325=CARTESIAN_POINT('Origin',(-5.25946023846554,5.25946023846554,5.00000000001455));
#1326=CARTESIAN_POINT('Origin',(0.,0.,2.34));
#1327=CARTESIAN_POINT('',(1.5,1.83697019872103E-16,2.34));
#1328=CARTESIAN_POINT('Origin',(0.,0.,2.34));
#1329=CARTESIAN_POINT('',(1.5,-1.83697019872103E-16,5.00000000001455));
#1330=CARTESIAN_POINT('',(1.5,1.83697019872103E-16,2.34));
#1331=CARTESIAN_POINT('Origin',(0.,0.,5.00000000001455));
#1332=CARTESIAN_POINT('Origin',(5.25946023846554,-5.25946023846554,2.34));
#1333=CARTESIAN_POINT('',(6.23946023846554,-5.25946023846554,2.34));
#1334=CARTESIAN_POINT('Origin',(5.25946023846554,-5.25946023846554,2.34));
#1335=CARTESIAN_POINT('',(6.23946023846554,-5.25946023846554,5.00000000001455));
#1336=CARTESIAN_POINT('',(6.23946023846554,-5.25946023846554,2.34));
#1337=CARTESIAN_POINT('Origin',(5.25946023846554,-5.25946023846554,5.00000000001455));
#1338=CARTESIAN_POINT('Origin',(0.,0.,0.));
#1339=CARTESIAN_POINT('',(10.5,1.28587913910472E-15,2.34));
#1340=CARTESIAN_POINT('',(10.5,1.28587913910472E-15,0.));
#1341=CARTESIAN_POINT('Origin',(0.,0.,2.34));
#1342=CARTESIAN_POINT('Origin',(0.,0.,2.34));
#1343=CARTESIAN_POINT('Origin',(1.5,1.45450318456142E-11,5.00000000001455));
#1344=CARTESIAN_POINT('',(13.,-9.99999999998546,5.00000000001455));
#1345=CARTESIAN_POINT('',(-10.,-9.99999999998545,5.00000000001455));
#1346=CARTESIAN_POINT('',(7.25,-9.99999999998546,5.00000000001455));
#1347=CARTESIAN_POINT('',(13.,10.0000000000145,5.00000000001455));
#1348=CARTESIAN_POINT('',(13.,-9.99999999998546,5.00000000001455));
#1349=CARTESIAN_POINT('',(-9.99999999999999,10.0000000000145,5.00000000001455));
#1350=CARTESIAN_POINT('',(7.25000000000001,10.0000000000145,5.00000000001457));
#1351=CARTESIAN_POINT('',(-10.,1.45480849589319E-11,5.00000000001455));
#1352=CARTESIAN_POINT('Origin',(13.,-9.99999999998546,3.00000000001454));
#1353=CARTESIAN_POINT('',(-10.,-9.99999999998545,178.899999999997));
#1354=CARTESIAN_POINT('',(-10.,-9.99999999998545,178.899999999997));
#1355=CARTESIAN_POINT('',(13.,-9.99999999998546,178.899999999997));
#1356=CARTESIAN_POINT('',(13.,-9.99999999998546,178.899999999997));
#1357=CARTESIAN_POINT('',(13.,-9.99999999998546,1.50000000000727));
#1358=CARTESIAN_POINT('Origin',(-10.,1.45472522916634E-11,90.9500000000058));
#1359=CARTESIAN_POINT('',(-9.99999999999999,10.0000000000145,178.899999999997));
#1360=CARTESIAN_POINT('',(-9.99999999999999,10.0000000000145,3.00000000001454));
#1361=CARTESIAN_POINT('',(-10.,10.0000000000145,178.899999999997));
#1362=CARTESIAN_POINT('Origin',(13.,10.0000000000145,178.899999999997));
#1363=CARTESIAN_POINT('',(13.,10.0000000000145,178.899999999997));
#1364=CARTESIAN_POINT('',(13.,10.0000000000145,89.4499999999985));
#1365=CARTESIAN_POINT('',(13.,10.0000000000145,178.899999999997));
#1366=CARTESIAN_POINT('Origin',(13.,-9.99999999998546,178.899999999997));
#1367=CARTESIAN_POINT('',(13.,-11.4999999999927,178.899999999997));
#1368=CARTESIAN_POINT('Origin',(-6.,2.22044604925031E-15,203.));
#1369=CARTESIAN_POINT('',(-6.,-6.,198.5));
#1370=CARTESIAN_POINT('',(-6.,-6.,207.5));
#1371=CARTESIAN_POINT('',(-6.,-6.,213.7));
#1372=CARTESIAN_POINT('Origin',(-6.,2.22044604925031E-15,203.));
#1373=CARTESIAN_POINT('Origin',(-6.,2.22044604925031E-15,203.));
#1374=CARTESIAN_POINT('',(-6.,-4.49999999999998,209.));
#1375=CARTESIAN_POINT('',(-6.,4.49999999999998,209.));
#1376=CARTESIAN_POINT('',(-5.99999999999999,5.99999999999999,209.));
#1377=CARTESIAN_POINT('',(-6.,3.13893114861083E-15,210.5));
#1378=CARTESIAN_POINT('Origin',(-6.,2.22044604925031E-15,203.));
#1379=CARTESIAN_POINT('Origin',(-6.,2.22044604925031E-15,203.));
#1380=CARTESIAN_POINT('Origin',(-6.,2.22044604925031E-15,203.));
#1381=CARTESIAN_POINT('Origin',(-6.,2.22044604925031E-15,203.));
#1382=CARTESIAN_POINT('Origin',(-6.,2.22044604925031E-15,203.));
#1383=CARTESIAN_POINT('Origin',(-6.,2.22044604925031E-15,203.));
#1384=CARTESIAN_POINT('',(-6.,3.13893114861083E-15,210.5));
#1385=CARTESIAN_POINT('Origin',(-6.,2.22044604925031E-15,203.));
#1386=CARTESIAN_POINT('Origin',(-6.,2.22044604925031E-15,203.));
#1387=CARTESIAN_POINT('Origin',(-6.,-6.66133814775094E-15,197.8));
#1388=CARTESIAN_POINT('',(-6.,-6.,209.));
#1389=CARTESIAN_POINT('',(-5.99999999999999,5.99999999999999,209.));
#1390=CARTESIAN_POINT('',(-6.,-6.,213.7));
#1391=CARTESIAN_POINT('Origin',(-6.,-6.66133814775094E-15,197.8));
#1392=CARTESIAN_POINT('',(-5.99999999999999,5.99999999999999,209.));
#1393=CARTESIAN_POINT('Origin',(-6.,-6.66133814775094E-15,197.8));
#1394=CARTESIAN_POINT('',(-6.,-5.99999999999999,186.6));
#1395=CARTESIAN_POINT('',(-6.,-6.,213.7));
#1396=CARTESIAN_POINT('',(-6.,-5.99999999999999,186.6));
#1397=CARTESIAN_POINT('Origin',(-2.84999999999999,4.44089209850063E-15,
183.95));
#1398=CARTESIAN_POINT('',(-2.84999999999999,4.56335677841536E-15,184.95));
#1399=CARTESIAN_POINT('Origin',(-2.84999999999999,4.44089209850063E-15,
183.95));
#1400=CARTESIAN_POINT('',(-10.85,7.3651814462391E-15,184.95));
#1401=CARTESIAN_POINT('',(-2.84999999999999,4.56335677841536E-15,184.95));
#1402=CARTESIAN_POINT('Origin',(-10.85,7.24271676632437E-15,183.95));
#1403=CARTESIAN_POINT('Origin',(-10.85,7.24271676632437E-15,183.95));
#1404=CARTESIAN_POINT('Origin',(-2.84999999999999,4.44089209850063E-15,
211.65));
#1405=CARTESIAN_POINT('',(-2.84999999999999,4.56335677841536E-15,212.65));
#1406=CARTESIAN_POINT('Origin',(-2.84999999999999,4.44089209850063E-15,
211.65));
#1407=CARTESIAN_POINT('',(-10.85,7.3651814462391E-15,212.65));
#1408=CARTESIAN_POINT('',(-2.84999999999999,4.56335677841536E-15,212.65));
#1409=CARTESIAN_POINT('Origin',(-10.85,7.24271676632437E-15,211.65));
#1410=CARTESIAN_POINT('Origin',(-10.85,7.24271676632437E-15,211.65));
#1411=CARTESIAN_POINT('Origin',(13.,-6.00000000000001,209.));
#1412=CARTESIAN_POINT('',(-2.85,-6.,209.));
#1413=CARTESIAN_POINT('',(-2.85,-6.,209.));
#1414=CARTESIAN_POINT('',(13.,-6.,209.));
#1415=CARTESIAN_POINT('Origin',(13.,5.99999999999999,186.6));
#1416=CARTESIAN_POINT('',(-2.85,-6.,186.6));
#1417=CARTESIAN_POINT('',(-2.84999999999999,5.99999999999999,186.6));
#1418=CARTESIAN_POINT('',(13.,-6.,186.6));
#1419=CARTESIAN_POINT('Origin',(13.,5.99999999999999,181.9));
#1420=CARTESIAN_POINT('',(13.,-6.00000000000001,181.9));
#1421=CARTESIAN_POINT('',(13.,-3.50000000000028,181.9));
#1422=CARTESIAN_POINT('',(-2.85,-6.00000000000001,181.9));
#1423=CARTESIAN_POINT('',(-2.85,-6.00000000000001,181.9));
#1424=CARTESIAN_POINT('',(13.,-6.00000000000001,181.9));
#1425=CARTESIAN_POINT('Origin',(-2.84999999999999,-7.7715611723761E-15,
184.25));
#1426=CARTESIAN_POINT('',(-2.85,-6.,213.7));
#1427=CARTESIAN_POINT('Origin',(13.,-6.,209.));
#1428=CARTESIAN_POINT('',(13.,-6.00000000000005,93.3));
#1429=CARTESIAN_POINT('',(-2.85,-6.,213.7));
#1430=CARTESIAN_POINT('Origin',(-2.84999999999999,-3.33066907387547E-15,
211.35));
#1431=CARTESIAN_POINT('Origin',(13.,-13.,0.));
#1432=CARTESIAN_POINT('Origin',(-13.,-13.,0.));
#1433=UNCERTAINTY_MEASURE_WITH_UNIT(LENGTH_MEASURE(0.01),#1437,
'DISTANCE_ACCURACY_VALUE',
'Maximum model space distance between geometric entities at asserted c
onnectivities');
#1434=UNCERTAINTY_MEASURE_WITH_UNIT(LENGTH_MEASURE(0.01),#1437,
'DISTANCE_ACCURACY_VALUE',
'Maximum model space distance between geometric entities at asserted c
onnectivities');
#1435=(
GEOMETRIC_REPRESENTATION_CONTEXT(3)
GLOBAL_UNCERTAINTY_ASSIGNED_CONTEXT((#1433))
GLOBAL_UNIT_ASSIGNED_CONTEXT((#1437,#1439,#1440))
REPRESENTATION_CONTEXT('','3D')
);
#1436=(
GEOMETRIC_REPRESENTATION_CONTEXT(3)
GLOBAL_UNCERTAINTY_ASSIGNED_CONTEXT((#1434))
GLOBAL_UNIT_ASSIGNED_CONTEXT((#1437,#1439,#1440))
REPRESENTATION_CONTEXT('','3D')
);
#1437=(
LENGTH_UNIT()
NAMED_UNIT(*)
SI_UNIT(.MILLI.,.METRE.)
);
#1438=(
LENGTH_UNIT()
NAMED_UNIT(*)
SI_UNIT(.CENTI.,.METRE.)
);
#1439=(
NAMED_UNIT(*)
PLANE_ANGLE_UNIT()
SI_UNIT($,.RADIAN.)
);
#1440=(
NAMED_UNIT(*)
SI_UNIT($,.STERADIAN.)
SOLID_ANGLE_UNIT()
);
#1441=SHAPE_DEFINITION_REPRESENTATION(#1442,#1443);
#1442=PRODUCT_DEFINITION_SHAPE('',$,#1445);
#1443=SHAPE_REPRESENTATION('',(#843),#1435);
#1444=PRODUCT_DEFINITION_CONTEXT('part definition',#1449,'design');
#1445=PRODUCT_DEFINITION('l_4','l_4',#1446,#1444);
#1446=PRODUCT_DEFINITION_FORMATION('',$,#1451);
#1447=PRODUCT_RELATED_PRODUCT_CATEGORY('l_4','l_4',(#1451));
#1448=APPLICATION_PROTOCOL_DEFINITION('international standard',
'automotive_design',2009,#1449);
#1449=APPLICATION_CONTEXT(
'Core Data for Automotive Mechanical Design Process');
#1450=PRODUCT_CONTEXT('part definition',#1449,'mechanical');
#1451=PRODUCT('l_4','l_4',$,(#1450));
#1452=PRESENTATION_STYLE_ASSIGNMENT((#1453));
#1453=SURFACE_STYLE_USAGE(.BOTH.,#1456);
#1454=SURFACE_STYLE_RENDERING_WITH_PROPERTIES($,#1460,(#1455));
#1455=SURFACE_STYLE_TRANSPARENT(0.);
#1456=SURFACE_SIDE_STYLE('',(#1457,#1454));
#1457=SURFACE_STYLE_FILL_AREA(#1458);
#1458=FILL_AREA_STYLE('',(#1459));
#1459=FILL_AREA_STYLE_COLOUR('',#1460);
#1460=COLOUR_RGB('',0.92156862745098,0.92156862745098,0.92156862745098);
ENDSEC;
END-ISO-10303-21;
