ISO-10303-21;
HEADER;
/* Generated by software containing ST-Developer
 * from STEP Tools, Inc. (www.steptools.com) 
 */

FILE_DESCRIPTION(
/* description */ (''),
/* implementation_level */ '2;1');

FILE_NAME(
/* name */ 
'C:\\Users\\eyome\\OneDrive\\Documents\\Inventor\\N_IK\\arm6DOF\\eyo_6
DOF_arm\\\\l_5_ipt_8f6dfd47.STEP',
/* time_stamp */ '2025-11-15T16:55:07+03:00',
/* author */ ('eyome'),
/* organization */ (''),
/* preprocessor_version */ 'ST-DEVELOPER v18.1',
/* originating_system */ 'Autodesk Inventor 2021',
/* authorisation */ '');

FILE_SCHEMA (('AUTOMOTIVE_DESIGN { 1 0 10303 214 3 1 1 }'));
ENDSEC;

DATA;
#10=MECHANICAL_DESIGN_GEOMETRIC_PRESENTATION_REPRESENTATION('',(#13),#1464);
#11=SHAPE_REPRESENTATION_RELATIONSHIP('SRR','None',#1471,#12);
#12=ADVANCED_BREP_SHAPE_REPRESENTATION('',(#14),#1463);
#13=STYLED_ITEM('',(#1480),#14);
#14=MANIFOLD_SOLID_BREP('Solid1',#852);
#15=ELLIPSE('',#883,2.82842712474619,2.);
#16=ELLIPSE('',#885,2.82842712474619,2.);
#17=ELLIPSE('',#887,2.82842712474619,2.);
#18=ELLIPSE('',#889,2.82842712474619,2.);
#19=FACE_BOUND('',#107,.T.);
#20=FACE_BOUND('',#108,.T.);
#21=FACE_BOUND('',#109,.T.);
#22=FACE_BOUND('',#125,.T.);
#23=FACE_BOUND('',#126,.T.);
#24=FACE_BOUND('',#127,.T.);
#25=FACE_BOUND('',#131,.T.);
#26=FACE_BOUND('',#155,.T.);
#27=FACE_BOUND('',#157,.T.);
#28=FACE_BOUND('',#161,.T.);
#29=PLANE('',#875);
#30=PLANE('',#880);
#31=PLANE('',#892);
#32=PLANE('',#894);
#33=PLANE('',#895);
#34=PLANE('',#898);
#35=PLANE('',#899);
#36=PLANE('',#908);
#37=PLANE('',#913);
#38=PLANE('',#922);
#39=PLANE('',#926);
#40=PLANE('',#927);
#41=PLANE('',#928);
#42=PLANE('',#930);
#43=PLANE('',#931);
#44=PLANE('',#935);
#45=PLANE('',#939);
#46=PLANE('',#940);
#47=PLANE('',#941);
#48=PLANE('',#943);
#49=PLANE('',#945);
#50=PLANE('',#947);
#51=PLANE('',#948);
#52=PLANE('',#950);
#53=PLANE('',#953);
#54=PLANE('',#954);
#55=PLANE('',#955);
#56=PLANE('',#959);
#57=PLANE('',#960);
#58=FACE_OUTER_BOUND('',#105,.T.);
#59=FACE_OUTER_BOUND('',#106,.T.);
#60=FACE_OUTER_BOUND('',#110,.T.);
#61=FACE_OUTER_BOUND('',#111,.T.);
#62=FACE_OUTER_BOUND('',#112,.T.);
#63=FACE_OUTER_BOUND('',#113,.T.);
#64=FACE_OUTER_BOUND('',#114,.T.);
#65=FACE_OUTER_BOUND('',#115,.T.);
#66=FACE_OUTER_BOUND('',#116,.T.);
#67=FACE_OUTER_BOUND('',#117,.T.);
#68=FACE_OUTER_BOUND('',#118,.T.);
#69=FACE_OUTER_BOUND('',#119,.T.);
#70=FACE_OUTER_BOUND('',#120,.T.);
#71=FACE_OUTER_BOUND('',#121,.T.);
#72=FACE_OUTER_BOUND('',#122,.T.);
#73=FACE_OUTER_BOUND('',#123,.T.);
#74=FACE_OUTER_BOUND('',#124,.T.);
#75=FACE_OUTER_BOUND('',#128,.T.);
#76=FACE_OUTER_BOUND('',#129,.T.);
#77=FACE_OUTER_BOUND('',#130,.T.);
#78=FACE_OUTER_BOUND('',#132,.T.);
#79=FACE_OUTER_BOUND('',#133,.T.);
#80=FACE_OUTER_BOUND('',#134,.T.);
#81=FACE_OUTER_BOUND('',#135,.T.);
#82=FACE_OUTER_BOUND('',#136,.T.);
#83=FACE_OUTER_BOUND('',#137,.T.);
#84=FACE_OUTER_BOUND('',#138,.T.);
#85=FACE_OUTER_BOUND('',#139,.T.);
#86=FACE_OUTER_BOUND('',#140,.T.);
#87=FACE_OUTER_BOUND('',#141,.T.);
#88=FACE_OUTER_BOUND('',#142,.T.);
#89=FACE_OUTER_BOUND('',#143,.T.);
#90=FACE_OUTER_BOUND('',#144,.T.);
#91=FACE_OUTER_BOUND('',#145,.T.);
#92=FACE_OUTER_BOUND('',#146,.T.);
#93=FACE_OUTER_BOUND('',#147,.T.);
#94=FACE_OUTER_BOUND('',#148,.T.);
#95=FACE_OUTER_BOUND('',#149,.T.);
#96=FACE_OUTER_BOUND('',#150,.T.);
#97=FACE_OUTER_BOUND('',#151,.T.);
#98=FACE_OUTER_BOUND('',#152,.T.);
#99=FACE_OUTER_BOUND('',#153,.T.);
#100=FACE_OUTER_BOUND('',#154,.T.);
#101=FACE_OUTER_BOUND('',#156,.T.);
#102=FACE_OUTER_BOUND('',#158,.T.);
#103=FACE_OUTER_BOUND('',#159,.T.);
#104=FACE_OUTER_BOUND('',#160,.T.);
#105=EDGE_LOOP('',(#549,#550,#551,#552));
#106=EDGE_LOOP('',(#553,#554,#555,#556));
#107=EDGE_LOOP('',(#557));
#108=EDGE_LOOP('',(#558));
#109=EDGE_LOOP('',(#559));
#110=EDGE_LOOP('',(#560,#561,#562,#563,#564,#565,#566,#567));
#111=EDGE_LOOP('',(#568,#569,#570,#571));
#112=EDGE_LOOP('',(#572,#573,#574,#575));
#113=EDGE_LOOP('',(#576,#577,#578,#579));
#114=EDGE_LOOP('',(#580,#581,#582,#583));
#115=EDGE_LOOP('',(#584,#585,#586,#587));
#116=EDGE_LOOP('',(#588,#589,#590,#591));
#117=EDGE_LOOP('',(#592,#593,#594,#595,#596,#597));
#118=EDGE_LOOP('',(#598,#599,#600,#601,#602,#603));
#119=EDGE_LOOP('',(#604,#605,#606,#607,#608,#609));
#120=EDGE_LOOP('',(#610,#611,#612,#613));
#121=EDGE_LOOP('',(#614,#615,#616,#617));
#122=EDGE_LOOP('',(#618,#619,#620,#621));
#123=EDGE_LOOP('',(#622,#623,#624,#625));
#124=EDGE_LOOP('',(#626));
#125=EDGE_LOOP('',(#627));
#126=EDGE_LOOP('',(#628));
#127=EDGE_LOOP('',(#629));
#128=EDGE_LOOP('',(#630,#631,#632,#633));
#129=EDGE_LOOP('',(#634,#635,#636,#637));
#130=EDGE_LOOP('',(#638,#639,#640,#641,#642,#643,#644,#645,#646,#647));
#131=EDGE_LOOP('',(#648));
#132=EDGE_LOOP('',(#649,#650,#651,#652));
#133=EDGE_LOOP('',(#653,#654,#655,#656,#657,#658,#659,#660));
#134=EDGE_LOOP('',(#661,#662,#663,#664));
#135=EDGE_LOOP('',(#665,#666,#667,#668,#669,#670,#671,#672));
#136=EDGE_LOOP('',(#673,#674,#675,#676));
#137=EDGE_LOOP('',(#677,#678,#679,#680,#681,#682,#683,#684,#685,#686,#687,
#688));
#138=EDGE_LOOP('',(#689,#690,#691,#692));
#139=EDGE_LOOP('',(#693,#694,#695,#696));
#140=EDGE_LOOP('',(#697,#698,#699,#700,#701,#702,#703,#704,#705,#706,#707,
#708));
#141=EDGE_LOOP('',(#709,#710,#711,#712,#713,#714,#715,#716));
#142=EDGE_LOOP('',(#717,#718,#719,#720));
#143=EDGE_LOOP('',(#721));
#144=EDGE_LOOP('',(#722,#723,#724,#725));
#145=EDGE_LOOP('',(#726));
#146=EDGE_LOOP('',(#727,#728,#729,#730,#731,#732));
#147=EDGE_LOOP('',(#733,#734,#735,#736));
#148=EDGE_LOOP('',(#737,#738,#739));
#149=EDGE_LOOP('',(#740,#741,#742));
#150=EDGE_LOOP('',(#743,#744,#745,#746));
#151=EDGE_LOOP('',(#747,#748));
#152=EDGE_LOOP('',(#749,#750,#751));
#153=EDGE_LOOP('',(#752,#753,#754,#755));
#154=EDGE_LOOP('',(#756,#757,#758,#759));
#155=EDGE_LOOP('',(#760));
#156=EDGE_LOOP('',(#761,#762,#763,#764));
#157=EDGE_LOOP('',(#765));
#158=EDGE_LOOP('',(#766,#767,#768,#769,#770,#771,#772,#773,#774,#775));
#159=EDGE_LOOP('',(#776,#777));
#160=EDGE_LOOP('',(#778,#779,#780,#781,#782,#783,#784,#785));
#161=EDGE_LOOP('',(#786));
#162=LINE('',#1224,#239);
#163=LINE('',#1227,#240);
#164=LINE('',#1230,#241);
#165=LINE('',#1233,#242);
#166=LINE('',#1242,#243);
#167=LINE('',#1246,#244);
#168=LINE('',#1248,#245);
#169=LINE('',#1250,#246);
#170=LINE('',#1251,#247);
#171=LINE('',#1254,#248);
#172=LINE('',#1256,#249);
#173=LINE('',#1260,#250);
#174=LINE('',#1263,#251);
#175=LINE('',#1266,#252);
#176=LINE('',#1268,#253);
#177=LINE('',#1272,#254);
#178=LINE('',#1274,#255);
#179=LINE('',#1278,#256);
#180=LINE('',#1281,#257);
#181=LINE('',#1284,#258);
#182=LINE('',#1288,#259);
#183=LINE('',#1290,#260);
#184=LINE('',#1292,#261);
#185=LINE('',#1293,#262);
#186=LINE('',#1296,#263);
#187=LINE('',#1300,#264);
#188=LINE('',#1304,#265);
#189=LINE('',#1306,#266);
#190=LINE('',#1308,#267);
#191=LINE('',#1309,#268);
#192=LINE('',#1312,#269);
#193=LINE('',#1317,#270);
#194=LINE('',#1321,#271);
#195=LINE('',#1326,#272);
#196=LINE('',#1332,#273);
#197=LINE('',#1336,#274);
#198=LINE('',#1339,#275);
#199=LINE('',#1345,#276);
#200=LINE('',#1350,#277);
#201=LINE('',#1354,#278);
#202=LINE('',#1357,#279);
#203=LINE('',#1360,#280);
#204=LINE('',#1361,#281);
#205=LINE('',#1366,#282);
#206=LINE('',#1369,#283);
#207=LINE('',#1371,#284);
#208=LINE('',#1374,#285);
#209=LINE('',#1376,#286);
#210=LINE('',#1378,#287);
#211=LINE('',#1380,#288);
#212=LINE('',#1382,#289);
#213=LINE('',#1384,#290);
#214=LINE('',#1386,#291);
#215=LINE('',#1388,#292);
#216=LINE('',#1389,#293);
#217=LINE('',#1392,#294);
#218=LINE('',#1393,#295);
#219=LINE('',#1395,#296);
#220=LINE('',#1398,#297);
#221=LINE('',#1400,#298);
#222=LINE('',#1402,#299);
#223=LINE('',#1404,#300);
#224=LINE('',#1406,#301);
#225=LINE('',#1408,#302);
#226=LINE('',#1410,#303);
#227=LINE('',#1411,#304);
#228=LINE('',#1413,#305);
#229=LINE('',#1418,#306);
#230=LINE('',#1425,#307);
#231=LINE('',#1429,#308);
#232=LINE('',#1431,#309);
#233=LINE('',#1433,#310);
#234=LINE('',#1434,#311);
#235=LINE('',#1437,#312);
#236=LINE('',#1443,#313);
#237=LINE('',#1451,#314);
#238=LINE('',#1457,#315);
#239=VECTOR('',#967,10.);
#240=VECTOR('',#970,10.);
#241=VECTOR('',#973,10.);
#242=VECTOR('',#976,10.);
#243=VECTOR('',#985,10.);
#244=VECTOR('',#988,10.);
#245=VECTOR('',#989,10.);
#246=VECTOR('',#990,10.);
#247=VECTOR('',#991,10.);
#248=VECTOR('',#994,10.);
#249=VECTOR('',#995,10.);
#250=VECTOR('',#1000,10.);
#251=VECTOR('',#1003,10.);
#252=VECTOR('',#1006,10.);
#253=VECTOR('',#1007,10.);
#254=VECTOR('',#1012,10.);
#255=VECTOR('',#1013,10.);
#256=VECTOR('',#1018,10.);
#257=VECTOR('',#1021,10.);
#258=VECTOR('',#1024,10.);
#259=VECTOR('',#1029,10.);
#260=VECTOR('',#1030,10.);
#261=VECTOR('',#1031,10.);
#262=VECTOR('',#1032,13.);
#263=VECTOR('',#1035,10.);
#264=VECTOR('',#1038,10.);
#265=VECTOR('',#1043,10.);
#266=VECTOR('',#1044,13.);
#267=VECTOR('',#1045,10.);
#268=VECTOR('',#1046,10.);
#269=VECTOR('',#1049,10.);
#270=VECTOR('',#1056,0.98);
#271=VECTOR('',#1061,0.98);
#272=VECTOR('',#1066,10.5);
#273=VECTOR('',#1075,2.5);
#274=VECTOR('',#1080,10.);
#275=VECTOR('',#1083,10.);
#276=VECTOR('',#1090,10.);
#277=VECTOR('',#1097,10.);
#278=VECTOR('',#1100,10.);
#279=VECTOR('',#1103,10.);
#280=VECTOR('',#1106,10.);
#281=VECTOR('',#1107,10.);
#282=VECTOR('',#1112,10.);
#283=VECTOR('',#1115,10.);
#284=VECTOR('',#1118,10.);
#285=VECTOR('',#1121,10.);
#286=VECTOR('',#1122,10.);
#287=VECTOR('',#1123,10.);
#288=VECTOR('',#1124,10.);
#289=VECTOR('',#1125,10.);
#290=VECTOR('',#1126,10.);
#291=VECTOR('',#1127,10.);
#292=VECTOR('',#1128,10.);
#293=VECTOR('',#1129,10.);
#294=VECTOR('',#1132,10.);
#295=VECTOR('',#1133,10.);
#296=VECTOR('',#1136,10.);
#297=VECTOR('',#1139,10.);
#298=VECTOR('',#1140,10.);
#299=VECTOR('',#1141,10.);
#300=VECTOR('',#1142,10.);
#301=VECTOR('',#1143,10.);
#302=VECTOR('',#1144,10.);
#303=VECTOR('',#1145,10.);
#304=VECTOR('',#1146,10.);
#305=VECTOR('',#1149,10.);
#306=VECTOR('',#1154,1.);
#307=VECTOR('',#1163,1.);
#308=VECTOR('',#1170,10.);
#309=VECTOR('',#1171,10.);
#310=VECTOR('',#1172,10.);
#311=VECTOR('',#1173,10.);
#312=VECTOR('',#1178,10.);
#313=VECTOR('',#1189,10.);
#314=VECTOR('',#1202,10.);
#315=VECTOR('',#1211,7.5);
#316=CIRCLE('',#873,2.);
#317=CIRCLE('',#874,2.);
#318=CIRCLE('',#876,13.);
#319=CIRCLE('',#877,2.5);
#320=CIRCLE('',#878,0.98);
#321=CIRCLE('',#879,0.98);
#322=CIRCLE('',#881,2.);
#323=CIRCLE('',#891,2.);
#324=CIRCLE('',#893,13.);
#325=CIRCLE('',#896,13.);
#326=CIRCLE('',#897,13.);
#327=CIRCLE('',#900,13.);
#328=CIRCLE('',#902,0.98);
#329=CIRCLE('',#904,0.98);
#330=CIRCLE('',#906,10.5);
#331=CIRCLE('',#907,10.5);
#332=CIRCLE('',#909,2.5);
#333=CIRCLE('',#912,13.);
#334=CIRCLE('',#914,13.);
#335=CIRCLE('',#915,13.);
#336=CIRCLE('',#916,13.);
#337=CIRCLE('',#917,13.);
#338=CIRCLE('',#920,13.);
#339=CIRCLE('',#921,13.);
#340=CIRCLE('',#924,13.);
#341=CIRCLE('',#925,13.);
#342=CIRCLE('',#933,1.);
#343=CIRCLE('',#934,1.);
#344=CIRCLE('',#937,1.);
#345=CIRCLE('',#938,1.);
#346=CIRCLE('',#942,7.5);
#347=CIRCLE('',#944,7.5);
#348=CIRCLE('',#946,7.5);
#349=CIRCLE('',#949,7.5);
#350=CIRCLE('',#951,7.5);
#351=CIRCLE('',#952,7.5);
#352=CIRCLE('',#957,7.5);
#353=CIRCLE('',#958,7.5);
#354=VERTEX_POINT('',#1220);
#355=VERTEX_POINT('',#1221);
#356=VERTEX_POINT('',#1223);
#357=VERTEX_POINT('',#1225);
#358=VERTEX_POINT('',#1229);
#359=VERTEX_POINT('',#1231);
#360=VERTEX_POINT('',#1234);
#361=VERTEX_POINT('',#1236);
#362=VERTEX_POINT('',#1238);
#363=VERTEX_POINT('',#1241);
#364=VERTEX_POINT('',#1243);
#365=VERTEX_POINT('',#1245);
#366=VERTEX_POINT('',#1247);
#367=VERTEX_POINT('',#1249);
#368=VERTEX_POINT('',#1253);
#369=VERTEX_POINT('',#1255);
#370=VERTEX_POINT('',#1259);
#371=VERTEX_POINT('',#1261);
#372=VERTEX_POINT('',#1265);
#373=VERTEX_POINT('',#1267);
#374=VERTEX_POINT('',#1271);
#375=VERTEX_POINT('',#1273);
#376=VERTEX_POINT('',#1277);
#377=VERTEX_POINT('',#1279);
#378=VERTEX_POINT('',#1283);
#379=VERTEX_POINT('',#1287);
#380=VERTEX_POINT('',#1289);
#381=VERTEX_POINT('',#1291);
#382=VERTEX_POINT('',#1295);
#383=VERTEX_POINT('',#1297);
#384=VERTEX_POINT('',#1299);
#385=VERTEX_POINT('',#1303);
#386=VERTEX_POINT('',#1305);
#387=VERTEX_POINT('',#1307);
#388=VERTEX_POINT('',#1311);
#389=VERTEX_POINT('',#1315);
#390=VERTEX_POINT('',#1319);
#391=VERTEX_POINT('',#1323);
#392=VERTEX_POINT('',#1325);
#393=VERTEX_POINT('',#1329);
#394=VERTEX_POINT('',#1334);
#395=VERTEX_POINT('',#1338);
#396=VERTEX_POINT('',#1342);
#397=VERTEX_POINT('',#1344);
#398=VERTEX_POINT('',#1349);
#399=VERTEX_POINT('',#1351);
#400=VERTEX_POINT('',#1353);
#401=VERTEX_POINT('',#1355);
#402=VERTEX_POINT('',#1359);
#403=VERTEX_POINT('',#1363);
#404=VERTEX_POINT('',#1364);
#405=VERTEX_POINT('',#1367);
#406=VERTEX_POINT('',#1373);
#407=VERTEX_POINT('',#1375);
#408=VERTEX_POINT('',#1377);
#409=VERTEX_POINT('',#1379);
#410=VERTEX_POINT('',#1381);
#411=VERTEX_POINT('',#1383);
#412=VERTEX_POINT('',#1385);
#413=VERTEX_POINT('',#1387);
#414=VERTEX_POINT('',#1391);
#415=VERTEX_POINT('',#1397);
#416=VERTEX_POINT('',#1399);
#417=VERTEX_POINT('',#1401);
#418=VERTEX_POINT('',#1403);
#419=VERTEX_POINT('',#1405);
#420=VERTEX_POINT('',#1407);
#421=VERTEX_POINT('',#1409);
#422=VERTEX_POINT('',#1415);
#423=VERTEX_POINT('',#1417);
#424=VERTEX_POINT('',#1422);
#425=VERTEX_POINT('',#1424);
#426=VERTEX_POINT('',#1430);
#427=VERTEX_POINT('',#1432);
#428=VERTEX_POINT('',#1447);
#429=VERTEX_POINT('',#1455);
#430=EDGE_CURVE('',#354,#355,#316,.T.);
#431=EDGE_CURVE('',#355,#356,#162,.T.);
#432=EDGE_CURVE('',#356,#357,#317,.T.);
#433=EDGE_CURVE('',#357,#354,#163,.T.);
#434=EDGE_CURVE('',#357,#358,#164,.T.);
#435=EDGE_CURVE('',#359,#358,#318,.T.);
#436=EDGE_CURVE('',#354,#359,#165,.T.);
#437=EDGE_CURVE('',#360,#360,#319,.T.);
#438=EDGE_CURVE('',#361,#361,#320,.T.);
#439=EDGE_CURVE('',#362,#362,#321,.T.);
#440=EDGE_CURVE('',#363,#356,#166,.T.);
#441=EDGE_CURVE('',#364,#363,#322,.F.);
#442=EDGE_CURVE('',#365,#364,#167,.T.);
#443=EDGE_CURVE('',#366,#365,#168,.T.);
#444=EDGE_CURVE('',#366,#367,#169,.T.);
#445=EDGE_CURVE('',#358,#367,#170,.T.);
#446=EDGE_CURVE('',#368,#364,#171,.T.);
#447=EDGE_CURVE('',#363,#369,#172,.T.);
#448=EDGE_CURVE('',#369,#368,#15,.T.);
#449=EDGE_CURVE('',#369,#370,#173,.T.);
#450=EDGE_CURVE('',#370,#371,#16,.T.);
#451=EDGE_CURVE('',#371,#368,#174,.T.);
#452=EDGE_CURVE('',#372,#371,#175,.T.);
#453=EDGE_CURVE('',#370,#373,#176,.T.);
#454=EDGE_CURVE('',#373,#372,#17,.T.);
#455=EDGE_CURVE('',#374,#372,#177,.T.);
#456=EDGE_CURVE('',#373,#375,#178,.T.);
#457=EDGE_CURVE('',#375,#374,#18,.T.);
#458=EDGE_CURVE('',#375,#376,#179,.T.);
#459=EDGE_CURVE('',#376,#377,#323,.F.);
#460=EDGE_CURVE('',#377,#374,#180,.T.);
#461=EDGE_CURVE('',#378,#368,#181,.T.);
#462=EDGE_CURVE('',#365,#378,#324,.T.);
#463=EDGE_CURVE('',#379,#371,#182,.T.);
#464=EDGE_CURVE('',#380,#379,#183,.T.);
#465=EDGE_CURVE('',#380,#381,#184,.T.);
#466=EDGE_CURVE('',#378,#381,#185,.T.);
#467=EDGE_CURVE('',#382,#372,#186,.T.);
#468=EDGE_CURVE('',#383,#382,#325,.T.);
#469=EDGE_CURVE('',#383,#384,#187,.T.);
#470=EDGE_CURVE('',#379,#384,#326,.T.);
#471=EDGE_CURVE('',#385,#374,#188,.T.);
#472=EDGE_CURVE('',#386,#385,#189,.T.);
#473=EDGE_CURVE('',#386,#387,#190,.T.);
#474=EDGE_CURVE('',#382,#387,#191,.T.);
#475=EDGE_CURVE('',#377,#388,#192,.T.);
#476=EDGE_CURVE('',#385,#388,#327,.T.);
#477=EDGE_CURVE('',#389,#389,#328,.T.);
#478=EDGE_CURVE('',#389,#362,#193,.T.);
#479=EDGE_CURVE('',#390,#390,#329,.T.);
#480=EDGE_CURVE('',#390,#361,#194,.T.);
#481=EDGE_CURVE('',#391,#391,#330,.T.);
#482=EDGE_CURVE('',#391,#392,#195,.T.);
#483=EDGE_CURVE('',#392,#392,#331,.T.);
#484=EDGE_CURVE('',#393,#393,#332,.T.);
#485=EDGE_CURVE('',#393,#360,#196,.T.);
#486=EDGE_CURVE('',#394,#386,#333,.T.);
#487=EDGE_CURVE('',#388,#394,#197,.T.);
#488=EDGE_CURVE('',#394,#395,#198,.T.);
#489=EDGE_CURVE('',#367,#395,#334,.T.);
#490=EDGE_CURVE('',#381,#366,#335,.T.);
#491=EDGE_CURVE('',#396,#380,#336,.F.);
#492=EDGE_CURVE('',#397,#396,#199,.T.);
#493=EDGE_CURVE('',#387,#397,#337,.F.);
#494=EDGE_CURVE('',#397,#398,#200,.T.);
#495=EDGE_CURVE('',#398,#399,#338,.T.);
#496=EDGE_CURVE('',#399,#400,#201,.T.);
#497=EDGE_CURVE('',#400,#401,#339,.T.);
#498=EDGE_CURVE('',#401,#383,#202,.T.);
#499=EDGE_CURVE('',#402,#401,#203,.T.);
#500=EDGE_CURVE('',#384,#402,#204,.T.);
#501=EDGE_CURVE('',#403,#404,#340,.T.);
#502=EDGE_CURVE('',#404,#396,#205,.T.);
#503=EDGE_CURVE('',#402,#405,#341,.T.);
#504=EDGE_CURVE('',#405,#403,#206,.T.);
#505=EDGE_CURVE('',#398,#404,#207,.T.);
#506=EDGE_CURVE('',#403,#406,#208,.T.);
#507=EDGE_CURVE('',#406,#407,#209,.T.);
#508=EDGE_CURVE('',#407,#408,#210,.T.);
#509=EDGE_CURVE('',#408,#409,#211,.T.);
#510=EDGE_CURVE('',#410,#409,#212,.T.);
#511=EDGE_CURVE('',#410,#411,#213,.T.);
#512=EDGE_CURVE('',#412,#411,#214,.T.);
#513=EDGE_CURVE('',#412,#413,#215,.T.);
#514=EDGE_CURVE('',#399,#413,#216,.T.);
#515=EDGE_CURVE('',#405,#414,#217,.T.);
#516=EDGE_CURVE('',#414,#406,#218,.T.);
#517=EDGE_CURVE('',#395,#359,#219,.T.);
#518=EDGE_CURVE('',#400,#415,#220,.T.);
#519=EDGE_CURVE('',#415,#416,#221,.T.);
#520=EDGE_CURVE('',#416,#417,#222,.T.);
#521=EDGE_CURVE('',#417,#418,#223,.T.);
#522=EDGE_CURVE('',#419,#418,#224,.T.);
#523=EDGE_CURVE('',#419,#420,#225,.T.);
#524=EDGE_CURVE('',#421,#420,#226,.T.);
#525=EDGE_CURVE('',#421,#414,#227,.T.);
#526=EDGE_CURVE('',#355,#376,#228,.T.);
#527=EDGE_CURVE('',#422,#422,#342,.T.);
#528=EDGE_CURVE('',#422,#423,#229,.T.);
#529=EDGE_CURVE('',#423,#423,#343,.T.);
#530=EDGE_CURVE('',#424,#424,#344,.T.);
#531=EDGE_CURVE('',#424,#425,#230,.T.);
#532=EDGE_CURVE('',#425,#425,#345,.T.);
#533=EDGE_CURVE('',#407,#421,#231,.T.);
#534=EDGE_CURVE('',#420,#426,#232,.T.);
#535=EDGE_CURVE('',#427,#426,#233,.T.);
#536=EDGE_CURVE('',#427,#408,#234,.T.);
#537=EDGE_CURVE('',#418,#410,#346,.T.);
#538=EDGE_CURVE('',#411,#417,#235,.T.);
#539=EDGE_CURVE('',#409,#427,#347,.T.);
#540=EDGE_CURVE('',#426,#419,#348,.T.);
#541=EDGE_CURVE('',#416,#412,#236,.T.);
#542=EDGE_CURVE('',#419,#418,#349,.T.);
#543=EDGE_CURVE('',#428,#409,#350,.T.);
#544=EDGE_CURVE('',#410,#428,#351,.T.);
#545=EDGE_CURVE('',#413,#415,#237,.T.);
#546=EDGE_CURVE('',#429,#429,#352,.T.);
#547=EDGE_CURVE('',#429,#428,#238,.T.);
#548=EDGE_CURVE('',#427,#426,#353,.T.);
#549=ORIENTED_EDGE('',*,*,#430,.T.);
#550=ORIENTED_EDGE('',*,*,#431,.T.);
#551=ORIENTED_EDGE('',*,*,#432,.T.);
#552=ORIENTED_EDGE('',*,*,#433,.T.);
#553=ORIENTED_EDGE('',*,*,#433,.F.);
#554=ORIENTED_EDGE('',*,*,#434,.T.);
#555=ORIENTED_EDGE('',*,*,#435,.F.);
#556=ORIENTED_EDGE('',*,*,#436,.F.);
#557=ORIENTED_EDGE('',*,*,#437,.T.);
#558=ORIENTED_EDGE('',*,*,#438,.T.);
#559=ORIENTED_EDGE('',*,*,#439,.T.);
#560=ORIENTED_EDGE('',*,*,#432,.F.);
#561=ORIENTED_EDGE('',*,*,#440,.F.);
#562=ORIENTED_EDGE('',*,*,#441,.F.);
#563=ORIENTED_EDGE('',*,*,#442,.F.);
#564=ORIENTED_EDGE('',*,*,#443,.F.);
#565=ORIENTED_EDGE('',*,*,#444,.T.);
#566=ORIENTED_EDGE('',*,*,#445,.F.);
#567=ORIENTED_EDGE('',*,*,#434,.F.);
#568=ORIENTED_EDGE('',*,*,#446,.T.);
#569=ORIENTED_EDGE('',*,*,#441,.T.);
#570=ORIENTED_EDGE('',*,*,#447,.T.);
#571=ORIENTED_EDGE('',*,*,#448,.T.);
#572=ORIENTED_EDGE('',*,*,#449,.T.);
#573=ORIENTED_EDGE('',*,*,#450,.T.);
#574=ORIENTED_EDGE('',*,*,#451,.T.);
#575=ORIENTED_EDGE('',*,*,#448,.F.);
#576=ORIENTED_EDGE('',*,*,#452,.T.);
#577=ORIENTED_EDGE('',*,*,#450,.F.);
#578=ORIENTED_EDGE('',*,*,#453,.T.);
#579=ORIENTED_EDGE('',*,*,#454,.T.);
#580=ORIENTED_EDGE('',*,*,#455,.T.);
#581=ORIENTED_EDGE('',*,*,#454,.F.);
#582=ORIENTED_EDGE('',*,*,#456,.T.);
#583=ORIENTED_EDGE('',*,*,#457,.T.);
#584=ORIENTED_EDGE('',*,*,#458,.T.);
#585=ORIENTED_EDGE('',*,*,#459,.T.);
#586=ORIENTED_EDGE('',*,*,#460,.T.);
#587=ORIENTED_EDGE('',*,*,#457,.F.);
#588=ORIENTED_EDGE('',*,*,#446,.F.);
#589=ORIENTED_EDGE('',*,*,#461,.F.);
#590=ORIENTED_EDGE('',*,*,#462,.F.);
#591=ORIENTED_EDGE('',*,*,#442,.T.);
#592=ORIENTED_EDGE('',*,*,#451,.F.);
#593=ORIENTED_EDGE('',*,*,#463,.F.);
#594=ORIENTED_EDGE('',*,*,#464,.F.);
#595=ORIENTED_EDGE('',*,*,#465,.T.);
#596=ORIENTED_EDGE('',*,*,#466,.F.);
#597=ORIENTED_EDGE('',*,*,#461,.T.);
#598=ORIENTED_EDGE('',*,*,#452,.F.);
#599=ORIENTED_EDGE('',*,*,#467,.F.);
#600=ORIENTED_EDGE('',*,*,#468,.F.);
#601=ORIENTED_EDGE('',*,*,#469,.T.);
#602=ORIENTED_EDGE('',*,*,#470,.F.);
#603=ORIENTED_EDGE('',*,*,#463,.T.);
#604=ORIENTED_EDGE('',*,*,#455,.F.);
#605=ORIENTED_EDGE('',*,*,#471,.F.);
#606=ORIENTED_EDGE('',*,*,#472,.F.);
#607=ORIENTED_EDGE('',*,*,#473,.T.);
#608=ORIENTED_EDGE('',*,*,#474,.F.);
#609=ORIENTED_EDGE('',*,*,#467,.T.);
#610=ORIENTED_EDGE('',*,*,#460,.F.);
#611=ORIENTED_EDGE('',*,*,#475,.T.);
#612=ORIENTED_EDGE('',*,*,#476,.F.);
#613=ORIENTED_EDGE('',*,*,#471,.T.);
#614=ORIENTED_EDGE('',*,*,#477,.F.);
#615=ORIENTED_EDGE('',*,*,#478,.T.);
#616=ORIENTED_EDGE('',*,*,#439,.F.);
#617=ORIENTED_EDGE('',*,*,#478,.F.);
#618=ORIENTED_EDGE('',*,*,#479,.F.);
#619=ORIENTED_EDGE('',*,*,#480,.T.);
#620=ORIENTED_EDGE('',*,*,#438,.F.);
#621=ORIENTED_EDGE('',*,*,#480,.F.);
#622=ORIENTED_EDGE('',*,*,#481,.F.);
#623=ORIENTED_EDGE('',*,*,#482,.T.);
#624=ORIENTED_EDGE('',*,*,#483,.T.);
#625=ORIENTED_EDGE('',*,*,#482,.F.);
#626=ORIENTED_EDGE('',*,*,#483,.F.);
#627=ORIENTED_EDGE('',*,*,#477,.T.);
#628=ORIENTED_EDGE('',*,*,#479,.T.);
#629=ORIENTED_EDGE('',*,*,#484,.F.);
#630=ORIENTED_EDGE('',*,*,#484,.T.);
#631=ORIENTED_EDGE('',*,*,#485,.T.);
#632=ORIENTED_EDGE('',*,*,#437,.F.);
#633=ORIENTED_EDGE('',*,*,#485,.F.);
#634=ORIENTED_EDGE('',*,*,#486,.T.);
#635=ORIENTED_EDGE('',*,*,#472,.T.);
#636=ORIENTED_EDGE('',*,*,#476,.T.);
#637=ORIENTED_EDGE('',*,*,#487,.T.);
#638=ORIENTED_EDGE('',*,*,#486,.F.);
#639=ORIENTED_EDGE('',*,*,#488,.T.);
#640=ORIENTED_EDGE('',*,*,#489,.F.);
#641=ORIENTED_EDGE('',*,*,#444,.F.);
#642=ORIENTED_EDGE('',*,*,#490,.F.);
#643=ORIENTED_EDGE('',*,*,#465,.F.);
#644=ORIENTED_EDGE('',*,*,#491,.F.);
#645=ORIENTED_EDGE('',*,*,#492,.F.);
#646=ORIENTED_EDGE('',*,*,#493,.F.);
#647=ORIENTED_EDGE('',*,*,#473,.F.);
#648=ORIENTED_EDGE('',*,*,#481,.T.);
#649=ORIENTED_EDGE('',*,*,#462,.T.);
#650=ORIENTED_EDGE('',*,*,#466,.T.);
#651=ORIENTED_EDGE('',*,*,#490,.T.);
#652=ORIENTED_EDGE('',*,*,#443,.T.);
#653=ORIENTED_EDGE('',*,*,#468,.T.);
#654=ORIENTED_EDGE('',*,*,#474,.T.);
#655=ORIENTED_EDGE('',*,*,#493,.T.);
#656=ORIENTED_EDGE('',*,*,#494,.T.);
#657=ORIENTED_EDGE('',*,*,#495,.T.);
#658=ORIENTED_EDGE('',*,*,#496,.T.);
#659=ORIENTED_EDGE('',*,*,#497,.T.);
#660=ORIENTED_EDGE('',*,*,#498,.T.);
#661=ORIENTED_EDGE('',*,*,#498,.F.);
#662=ORIENTED_EDGE('',*,*,#499,.F.);
#663=ORIENTED_EDGE('',*,*,#500,.F.);
#664=ORIENTED_EDGE('',*,*,#469,.F.);
#665=ORIENTED_EDGE('',*,*,#501,.T.);
#666=ORIENTED_EDGE('',*,*,#502,.T.);
#667=ORIENTED_EDGE('',*,*,#491,.T.);
#668=ORIENTED_EDGE('',*,*,#464,.T.);
#669=ORIENTED_EDGE('',*,*,#470,.T.);
#670=ORIENTED_EDGE('',*,*,#500,.T.);
#671=ORIENTED_EDGE('',*,*,#503,.T.);
#672=ORIENTED_EDGE('',*,*,#504,.T.);
#673=ORIENTED_EDGE('',*,*,#494,.F.);
#674=ORIENTED_EDGE('',*,*,#492,.T.);
#675=ORIENTED_EDGE('',*,*,#502,.F.);
#676=ORIENTED_EDGE('',*,*,#505,.F.);
#677=ORIENTED_EDGE('',*,*,#495,.F.);
#678=ORIENTED_EDGE('',*,*,#505,.T.);
#679=ORIENTED_EDGE('',*,*,#501,.F.);
#680=ORIENTED_EDGE('',*,*,#506,.T.);
#681=ORIENTED_EDGE('',*,*,#507,.T.);
#682=ORIENTED_EDGE('',*,*,#508,.T.);
#683=ORIENTED_EDGE('',*,*,#509,.T.);
#684=ORIENTED_EDGE('',*,*,#510,.F.);
#685=ORIENTED_EDGE('',*,*,#511,.T.);
#686=ORIENTED_EDGE('',*,*,#512,.F.);
#687=ORIENTED_EDGE('',*,*,#513,.T.);
#688=ORIENTED_EDGE('',*,*,#514,.F.);
#689=ORIENTED_EDGE('',*,*,#504,.F.);
#690=ORIENTED_EDGE('',*,*,#515,.T.);
#691=ORIENTED_EDGE('',*,*,#516,.T.);
#692=ORIENTED_EDGE('',*,*,#506,.F.);
#693=ORIENTED_EDGE('',*,*,#489,.T.);
#694=ORIENTED_EDGE('',*,*,#517,.T.);
#695=ORIENTED_EDGE('',*,*,#435,.T.);
#696=ORIENTED_EDGE('',*,*,#445,.T.);
#697=ORIENTED_EDGE('',*,*,#497,.F.);
#698=ORIENTED_EDGE('',*,*,#518,.T.);
#699=ORIENTED_EDGE('',*,*,#519,.T.);
#700=ORIENTED_EDGE('',*,*,#520,.T.);
#701=ORIENTED_EDGE('',*,*,#521,.T.);
#702=ORIENTED_EDGE('',*,*,#522,.F.);
#703=ORIENTED_EDGE('',*,*,#523,.T.);
#704=ORIENTED_EDGE('',*,*,#524,.F.);
#705=ORIENTED_EDGE('',*,*,#525,.T.);
#706=ORIENTED_EDGE('',*,*,#515,.F.);
#707=ORIENTED_EDGE('',*,*,#503,.F.);
#708=ORIENTED_EDGE('',*,*,#499,.T.);
#709=ORIENTED_EDGE('',*,*,#430,.F.);
#710=ORIENTED_EDGE('',*,*,#436,.T.);
#711=ORIENTED_EDGE('',*,*,#517,.F.);
#712=ORIENTED_EDGE('',*,*,#488,.F.);
#713=ORIENTED_EDGE('',*,*,#487,.F.);
#714=ORIENTED_EDGE('',*,*,#475,.F.);
#715=ORIENTED_EDGE('',*,*,#459,.F.);
#716=ORIENTED_EDGE('',*,*,#526,.F.);
#717=ORIENTED_EDGE('',*,*,#527,.F.);
#718=ORIENTED_EDGE('',*,*,#528,.T.);
#719=ORIENTED_EDGE('',*,*,#529,.T.);
#720=ORIENTED_EDGE('',*,*,#528,.F.);
#721=ORIENTED_EDGE('',*,*,#529,.F.);
#722=ORIENTED_EDGE('',*,*,#530,.F.);
#723=ORIENTED_EDGE('',*,*,#531,.T.);
#724=ORIENTED_EDGE('',*,*,#532,.T.);
#725=ORIENTED_EDGE('',*,*,#531,.F.);
#726=ORIENTED_EDGE('',*,*,#532,.F.);
#727=ORIENTED_EDGE('',*,*,#533,.T.);
#728=ORIENTED_EDGE('',*,*,#524,.T.);
#729=ORIENTED_EDGE('',*,*,#534,.T.);
#730=ORIENTED_EDGE('',*,*,#535,.F.);
#731=ORIENTED_EDGE('',*,*,#536,.T.);
#732=ORIENTED_EDGE('',*,*,#508,.F.);
#733=ORIENTED_EDGE('',*,*,#537,.F.);
#734=ORIENTED_EDGE('',*,*,#521,.F.);
#735=ORIENTED_EDGE('',*,*,#538,.F.);
#736=ORIENTED_EDGE('',*,*,#511,.F.);
#737=ORIENTED_EDGE('',*,*,#539,.F.);
#738=ORIENTED_EDGE('',*,*,#509,.F.);
#739=ORIENTED_EDGE('',*,*,#536,.F.);
#740=ORIENTED_EDGE('',*,*,#540,.F.);
#741=ORIENTED_EDGE('',*,*,#534,.F.);
#742=ORIENTED_EDGE('',*,*,#523,.F.);
#743=ORIENTED_EDGE('',*,*,#541,.T.);
#744=ORIENTED_EDGE('',*,*,#512,.T.);
#745=ORIENTED_EDGE('',*,*,#538,.T.);
#746=ORIENTED_EDGE('',*,*,#520,.F.);
#747=ORIENTED_EDGE('',*,*,#522,.T.);
#748=ORIENTED_EDGE('',*,*,#542,.F.);
#749=ORIENTED_EDGE('',*,*,#510,.T.);
#750=ORIENTED_EDGE('',*,*,#543,.F.);
#751=ORIENTED_EDGE('',*,*,#544,.F.);
#752=ORIENTED_EDGE('',*,*,#496,.F.);
#753=ORIENTED_EDGE('',*,*,#514,.T.);
#754=ORIENTED_EDGE('',*,*,#545,.T.);
#755=ORIENTED_EDGE('',*,*,#518,.F.);
#756=ORIENTED_EDGE('',*,*,#513,.F.);
#757=ORIENTED_EDGE('',*,*,#541,.F.);
#758=ORIENTED_EDGE('',*,*,#519,.F.);
#759=ORIENTED_EDGE('',*,*,#545,.F.);
#760=ORIENTED_EDGE('',*,*,#527,.T.);
#761=ORIENTED_EDGE('',*,*,#525,.F.);
#762=ORIENTED_EDGE('',*,*,#533,.F.);
#763=ORIENTED_EDGE('',*,*,#507,.F.);
#764=ORIENTED_EDGE('',*,*,#516,.F.);
#765=ORIENTED_EDGE('',*,*,#530,.T.);
#766=ORIENTED_EDGE('',*,*,#546,.F.);
#767=ORIENTED_EDGE('',*,*,#547,.T.);
#768=ORIENTED_EDGE('',*,*,#543,.T.);
#769=ORIENTED_EDGE('',*,*,#539,.T.);
#770=ORIENTED_EDGE('',*,*,#548,.T.);
#771=ORIENTED_EDGE('',*,*,#540,.T.);
#772=ORIENTED_EDGE('',*,*,#542,.T.);
#773=ORIENTED_EDGE('',*,*,#537,.T.);
#774=ORIENTED_EDGE('',*,*,#544,.T.);
#775=ORIENTED_EDGE('',*,*,#547,.F.);
#776=ORIENTED_EDGE('',*,*,#535,.T.);
#777=ORIENTED_EDGE('',*,*,#548,.F.);
#778=ORIENTED_EDGE('',*,*,#431,.F.);
#779=ORIENTED_EDGE('',*,*,#526,.T.);
#780=ORIENTED_EDGE('',*,*,#458,.F.);
#781=ORIENTED_EDGE('',*,*,#456,.F.);
#782=ORIENTED_EDGE('',*,*,#453,.F.);
#783=ORIENTED_EDGE('',*,*,#449,.F.);
#784=ORIENTED_EDGE('',*,*,#447,.F.);
#785=ORIENTED_EDGE('',*,*,#440,.T.);
#786=ORIENTED_EDGE('',*,*,#546,.T.);
#787=CYLINDRICAL_SURFACE('',#872,2.);
#788=CYLINDRICAL_SURFACE('',#882,2.);
#789=CYLINDRICAL_SURFACE('',#884,2.);
#790=CYLINDRICAL_SURFACE('',#886,2.);
#791=CYLINDRICAL_SURFACE('',#888,2.);
#792=CYLINDRICAL_SURFACE('',#890,2.);
#793=CYLINDRICAL_SURFACE('',#901,0.98);
#794=CYLINDRICAL_SURFACE('',#903,0.98);
#795=CYLINDRICAL_SURFACE('',#905,10.5);
#796=CYLINDRICAL_SURFACE('',#910,2.5);
#797=CYLINDRICAL_SURFACE('',#911,13.);
#798=CYLINDRICAL_SURFACE('',#918,13.);
#799=CYLINDRICAL_SURFACE('',#919,13.);
#800=CYLINDRICAL_SURFACE('',#923,13.);
#801=CYLINDRICAL_SURFACE('',#929,13.);
#802=CYLINDRICAL_SURFACE('',#932,1.);
#803=CYLINDRICAL_SURFACE('',#936,1.);
#804=CYLINDRICAL_SURFACE('',#956,7.5);
#805=ADVANCED_FACE('',(#58),#787,.T.);
#806=ADVANCED_FACE('',(#59,#19,#20,#21),#29,.T.);
#807=ADVANCED_FACE('',(#60),#30,.T.);
#808=ADVANCED_FACE('',(#61),#788,.T.);
#809=ADVANCED_FACE('',(#62),#789,.T.);
#810=ADVANCED_FACE('',(#63),#790,.T.);
#811=ADVANCED_FACE('',(#64),#791,.T.);
#812=ADVANCED_FACE('',(#65),#792,.T.);
#813=ADVANCED_FACE('',(#66),#31,.T.);
#814=ADVANCED_FACE('',(#67),#32,.T.);
#815=ADVANCED_FACE('',(#68),#33,.T.);
#816=ADVANCED_FACE('',(#69),#34,.T.);
#817=ADVANCED_FACE('',(#70),#35,.T.);
#818=ADVANCED_FACE('',(#71),#793,.F.);
#819=ADVANCED_FACE('',(#72),#794,.F.);
#820=ADVANCED_FACE('',(#73),#795,.F.);
#821=ADVANCED_FACE('',(#74,#22,#23,#24),#36,.T.);
#822=ADVANCED_FACE('',(#75),#796,.F.);
#823=ADVANCED_FACE('',(#76),#797,.T.);
#824=ADVANCED_FACE('',(#77,#25),#37,.T.);
#825=ADVANCED_FACE('',(#78),#798,.T.);
#826=ADVANCED_FACE('',(#79),#799,.T.);
#827=ADVANCED_FACE('',(#80),#38,.F.);
#828=ADVANCED_FACE('',(#81),#800,.T.);
#829=ADVANCED_FACE('',(#82),#39,.F.);
#830=ADVANCED_FACE('',(#83),#40,.F.);
#831=ADVANCED_FACE('',(#84),#41,.F.);
#832=ADVANCED_FACE('',(#85),#801,.T.);
#833=ADVANCED_FACE('',(#86),#42,.F.);
#834=ADVANCED_FACE('',(#87),#43,.T.);
#835=ADVANCED_FACE('',(#88),#802,.F.);
#836=ADVANCED_FACE('',(#89),#44,.T.);
#837=ADVANCED_FACE('',(#90),#803,.F.);
#838=ADVANCED_FACE('',(#91),#45,.T.);
#839=ADVANCED_FACE('',(#92),#46,.F.);
#840=ADVANCED_FACE('',(#93),#47,.F.);
#841=ADVANCED_FACE('',(#94),#48,.F.);
#842=ADVANCED_FACE('',(#95),#49,.F.);
#843=ADVANCED_FACE('',(#96),#50,.F.);
#844=ADVANCED_FACE('',(#97),#51,.T.);
#845=ADVANCED_FACE('',(#98),#52,.T.);
#846=ADVANCED_FACE('',(#99),#53,.F.);
#847=ADVANCED_FACE('',(#100,#26),#54,.F.);
#848=ADVANCED_FACE('',(#101,#27),#55,.F.);
#849=ADVANCED_FACE('',(#102),#804,.F.);
#850=ADVANCED_FACE('',(#103),#56,.T.);
#851=ADVANCED_FACE('',(#104,#28),#57,.T.);
#852=CLOSED_SHELL('',(#805,#806,#807,#808,#809,#810,#811,#812,#813,#814,
#815,#816,#817,#818,#819,#820,#821,#822,#823,#824,#825,#826,#827,#828,#829,
#830,#831,#832,#833,#834,#835,#836,#837,#838,#839,#840,#841,#842,#843,#844,
#845,#846,#847,#848,#849,#850,#851));
#853=DERIVED_UNIT_ELEMENT(#855,1.);
#854=DERIVED_UNIT_ELEMENT(#1466,3.);
#855=(
MASS_UNIT()
NAMED_UNIT(*)
SI_UNIT($,.GRAM.)
);
#856=DERIVED_UNIT((#853,#854));
#857=MEASURE_REPRESENTATION_ITEM('density measure',
POSITIVE_RATIO_MEASURE(1.06),#856);
#858=PROPERTY_DEFINITION_REPRESENTATION(#863,#860);
#859=PROPERTY_DEFINITION_REPRESENTATION(#864,#861);
#860=REPRESENTATION('material name',(#862),#1463);
#861=REPRESENTATION('density',(#857),#1463);
#862=DESCRIPTIVE_REPRESENTATION_ITEM('ABS Plastic','ABS Plastic');
#863=PROPERTY_DEFINITION('material property','material name',#1473);
#864=PROPERTY_DEFINITION('material property','density of part',#1473);
#865=DATE_TIME_ROLE('creation_date');
#866=APPLIED_DATE_AND_TIME_ASSIGNMENT(#867,#865,(#1473));
#867=DATE_AND_TIME(#868,#869);
#868=CALENDAR_DATE(2025,4,11);
#869=LOCAL_TIME(0,0,0.,#870);
#870=COORDINATED_UNIVERSAL_TIME_OFFSET(0,0,.BEHIND.);
#871=AXIS2_PLACEMENT_3D('placement',#1218,#961,#962);
#872=AXIS2_PLACEMENT_3D('',#1219,#963,#964);
#873=AXIS2_PLACEMENT_3D('',#1222,#965,#966);
#874=AXIS2_PLACEMENT_3D('',#1226,#968,#969);
#875=AXIS2_PLACEMENT_3D('',#1228,#971,#972);
#876=AXIS2_PLACEMENT_3D('',#1232,#974,#975);
#877=AXIS2_PLACEMENT_3D('',#1235,#977,#978);
#878=AXIS2_PLACEMENT_3D('',#1237,#979,#980);
#879=AXIS2_PLACEMENT_3D('',#1239,#981,#982);
#880=AXIS2_PLACEMENT_3D('',#1240,#983,#984);
#881=AXIS2_PLACEMENT_3D('',#1244,#986,#987);
#882=AXIS2_PLACEMENT_3D('',#1252,#992,#993);
#883=AXIS2_PLACEMENT_3D('',#1257,#996,#997);
#884=AXIS2_PLACEMENT_3D('',#1258,#998,#999);
#885=AXIS2_PLACEMENT_3D('',#1262,#1001,#1002);
#886=AXIS2_PLACEMENT_3D('',#1264,#1004,#1005);
#887=AXIS2_PLACEMENT_3D('',#1269,#1008,#1009);
#888=AXIS2_PLACEMENT_3D('',#1270,#1010,#1011);
#889=AXIS2_PLACEMENT_3D('',#1275,#1014,#1015);
#890=AXIS2_PLACEMENT_3D('',#1276,#1016,#1017);
#891=AXIS2_PLACEMENT_3D('',#1280,#1019,#1020);
#892=AXIS2_PLACEMENT_3D('',#1282,#1022,#1023);
#893=AXIS2_PLACEMENT_3D('',#1285,#1025,#1026);
#894=AXIS2_PLACEMENT_3D('',#1286,#1027,#1028);
#895=AXIS2_PLACEMENT_3D('',#1294,#1033,#1034);
#896=AXIS2_PLACEMENT_3D('',#1298,#1036,#1037);
#897=AXIS2_PLACEMENT_3D('',#1301,#1039,#1040);
#898=AXIS2_PLACEMENT_3D('',#1302,#1041,#1042);
#899=AXIS2_PLACEMENT_3D('',#1310,#1047,#1048);
#900=AXIS2_PLACEMENT_3D('',#1313,#1050,#1051);
#901=AXIS2_PLACEMENT_3D('',#1314,#1052,#1053);
#902=AXIS2_PLACEMENT_3D('',#1316,#1054,#1055);
#903=AXIS2_PLACEMENT_3D('',#1318,#1057,#1058);
#904=AXIS2_PLACEMENT_3D('',#1320,#1059,#1060);
#905=AXIS2_PLACEMENT_3D('',#1322,#1062,#1063);
#906=AXIS2_PLACEMENT_3D('',#1324,#1064,#1065);
#907=AXIS2_PLACEMENT_3D('',#1327,#1067,#1068);
#908=AXIS2_PLACEMENT_3D('',#1328,#1069,#1070);
#909=AXIS2_PLACEMENT_3D('',#1330,#1071,#1072);
#910=AXIS2_PLACEMENT_3D('',#1331,#1073,#1074);
#911=AXIS2_PLACEMENT_3D('',#1333,#1076,#1077);
#912=AXIS2_PLACEMENT_3D('',#1335,#1078,#1079);
#913=AXIS2_PLACEMENT_3D('',#1337,#1081,#1082);
#914=AXIS2_PLACEMENT_3D('',#1340,#1084,#1085);
#915=AXIS2_PLACEMENT_3D('',#1341,#1086,#1087);
#916=AXIS2_PLACEMENT_3D('',#1343,#1088,#1089);
#917=AXIS2_PLACEMENT_3D('',#1346,#1091,#1092);
#918=AXIS2_PLACEMENT_3D('',#1347,#1093,#1094);
#919=AXIS2_PLACEMENT_3D('',#1348,#1095,#1096);
#920=AXIS2_PLACEMENT_3D('',#1352,#1098,#1099);
#921=AXIS2_PLACEMENT_3D('',#1356,#1101,#1102);
#922=AXIS2_PLACEMENT_3D('',#1358,#1104,#1105);
#923=AXIS2_PLACEMENT_3D('',#1362,#1108,#1109);
#924=AXIS2_PLACEMENT_3D('',#1365,#1110,#1111);
#925=AXIS2_PLACEMENT_3D('',#1368,#1113,#1114);
#926=AXIS2_PLACEMENT_3D('',#1370,#1116,#1117);
#927=AXIS2_PLACEMENT_3D('',#1372,#1119,#1120);
#928=AXIS2_PLACEMENT_3D('',#1390,#1130,#1131);
#929=AXIS2_PLACEMENT_3D('',#1394,#1134,#1135);
#930=AXIS2_PLACEMENT_3D('',#1396,#1137,#1138);
#931=AXIS2_PLACEMENT_3D('',#1412,#1147,#1148);
#932=AXIS2_PLACEMENT_3D('',#1414,#1150,#1151);
#933=AXIS2_PLACEMENT_3D('',#1416,#1152,#1153);
#934=AXIS2_PLACEMENT_3D('',#1419,#1155,#1156);
#935=AXIS2_PLACEMENT_3D('',#1420,#1157,#1158);
#936=AXIS2_PLACEMENT_3D('',#1421,#1159,#1160);
#937=AXIS2_PLACEMENT_3D('',#1423,#1161,#1162);
#938=AXIS2_PLACEMENT_3D('',#1426,#1164,#1165);
#939=AXIS2_PLACEMENT_3D('',#1427,#1166,#1167);
#940=AXIS2_PLACEMENT_3D('',#1428,#1168,#1169);
#941=AXIS2_PLACEMENT_3D('',#1435,#1174,#1175);
#942=AXIS2_PLACEMENT_3D('',#1436,#1176,#1177);
#943=AXIS2_PLACEMENT_3D('',#1438,#1179,#1180);
#944=AXIS2_PLACEMENT_3D('',#1439,#1181,#1182);
#945=AXIS2_PLACEMENT_3D('',#1440,#1183,#1184);
#946=AXIS2_PLACEMENT_3D('',#1441,#1185,#1186);
#947=AXIS2_PLACEMENT_3D('',#1442,#1187,#1188);
#948=AXIS2_PLACEMENT_3D('',#1444,#1190,#1191);
#949=AXIS2_PLACEMENT_3D('',#1445,#1192,#1193);
#950=AXIS2_PLACEMENT_3D('',#1446,#1194,#1195);
#951=AXIS2_PLACEMENT_3D('',#1448,#1196,#1197);
#952=AXIS2_PLACEMENT_3D('',#1449,#1198,#1199);
#953=AXIS2_PLACEMENT_3D('',#1450,#1200,#1201);
#954=AXIS2_PLACEMENT_3D('',#1452,#1203,#1204);
#955=AXIS2_PLACEMENT_3D('',#1453,#1205,#1206);
#956=AXIS2_PLACEMENT_3D('',#1454,#1207,#1208);
#957=AXIS2_PLACEMENT_3D('',#1456,#1209,#1210);
#958=AXIS2_PLACEMENT_3D('',#1458,#1212,#1213);
#959=AXIS2_PLACEMENT_3D('',#1459,#1214,#1215);
#960=AXIS2_PLACEMENT_3D('',#1460,#1216,#1217);
#961=DIRECTION('axis',(0.,0.,1.));
#962=DIRECTION('refdir',(1.,0.,0.));
#963=DIRECTION('center_axis',(8.5401771125012E-17,-1.,0.));
#964=DIRECTION('ref_axis',(-0.707106781186547,0.,0.707106781186548));
#965=DIRECTION('center_axis',(-8.88178419700125E-16,1.,0.));
#966=DIRECTION('ref_axis',(-0.707106781186547,0.,0.707106781186548));
#967=DIRECTION('',(-8.5401771125012E-17,1.,0.));
#968=DIRECTION('center_axis',(0.,-1.,0.));
#969=DIRECTION('ref_axis',(-0.707106781186547,0.,0.707106781186548));
#970=DIRECTION('',(8.5401771125012E-17,-1.,0.));
#971=DIRECTION('center_axis',(-1.,-8.5401771125012E-17,0.));
#972=DIRECTION('ref_axis',(-8.5401771125012E-17,1.,0.));
#973=DIRECTION('',(0.,0.,-1.));
#974=DIRECTION('center_axis',(1.,8.5401771125012E-17,0.));
#975=DIRECTION('ref_axis',(0.,0.707106781186547,-0.707106781186548));
#976=DIRECTION('',(0.,0.,-1.));
#977=DIRECTION('center_axis',(1.,8.5401771125012E-17,0.));
#978=DIRECTION('ref_axis',(0.,0.,-1.));
#979=DIRECTION('center_axis',(1.,8.5401771125012E-17,0.));
#980=DIRECTION('ref_axis',(0.,0.,-1.));
#981=DIRECTION('center_axis',(1.,8.5401771125012E-17,0.));
#982=DIRECTION('ref_axis',(0.,0.,-1.));
#983=DIRECTION('center_axis',(0.,1.,0.));
#984=DIRECTION('ref_axis',(1.,0.,0.));
#985=DIRECTION('',(-1.,0.,0.));
#986=DIRECTION('center_axis',(0.,-1.,0.));
#987=DIRECTION('ref_axis',(-0.707106781186548,0.,0.707106781186548));
#988=DIRECTION('',(0.,0.,1.));
#989=DIRECTION('',(-1.,0.,0.));
#990=DIRECTION('',(0.,0.,-1.));
#991=DIRECTION('',(1.,0.,0.));
#992=DIRECTION('center_axis',(0.,-1.,0.));
#993=DIRECTION('ref_axis',(-0.707106781186548,0.,0.707106781186548));
#994=DIRECTION('',(0.,-1.,0.));
#995=DIRECTION('',(0.,1.,0.));
#996=DIRECTION('center_axis',(-0.707106781186548,-0.707106781186548,-7.85046229341887E-16));
#997=DIRECTION('ref_axis',(-0.707106781186548,0.707106781186548,-7.85046229341887E-16));
#998=DIRECTION('center_axis',(-1.,1.70803542250024E-16,0.));
#999=DIRECTION('ref_axis',(0.,0.707106781186548,0.707106781186548));
#1000=DIRECTION('',(1.,-1.70803542250024E-16,0.));
#1001=DIRECTION('center_axis',(-0.707106781186547,0.707106781186548,7.85046229341886E-16));
#1002=DIRECTION('ref_axis',(0.707106781186548,0.707106781186547,7.85046229341886E-16));
#1003=DIRECTION('',(-1.,1.70803542250024E-16,0.));
#1004=DIRECTION('center_axis',(-2.92163953848725E-16,1.,0.));
#1005=DIRECTION('ref_axis',(0.707106781186548,0.,0.707106781186548));
#1006=DIRECTION('',(-2.92163953848725E-16,1.,0.));
#1007=DIRECTION('',(2.92163953848725E-16,-1.,0.));
#1008=DIRECTION('center_axis',(0.707106781186548,0.707106781186548,-7.85046229341887E-16));
#1009=DIRECTION('ref_axis',(0.707106781186548,-0.707106781186548,-7.85046229341886E-16));
#1010=DIRECTION('center_axis',(1.,-6.83214169000096E-16,0.));
#1011=DIRECTION('ref_axis',(-7.85046229341887E-16,-0.707106781186548,0.707106781186548));
#1012=DIRECTION('',(1.,-6.83214169000096E-16,0.));
#1013=DIRECTION('',(-1.,6.83214169000096E-16,0.));
#1014=DIRECTION('center_axis',(0.707106781186548,-0.707106781186547,0.));
#1015=DIRECTION('ref_axis',(-0.707106781186547,-0.707106781186548,0.));
#1016=DIRECTION('center_axis',(0.,-1.,0.));
#1017=DIRECTION('ref_axis',(-0.707106781186548,0.,0.707106781186548));
#1018=DIRECTION('',(0.,1.,0.));
#1019=DIRECTION('center_axis',(-8.88178419700125E-16,1.,0.));
#1020=DIRECTION('ref_axis',(-0.707106781186548,0.,0.707106781186548));
#1021=DIRECTION('',(0.,-1.,0.));
#1022=DIRECTION('center_axis',(-1.,0.,0.));
#1023=DIRECTION('ref_axis',(0.,-1.,0.));
#1024=DIRECTION('',(0.,0.,1.));
#1025=DIRECTION('center_axis',(1.,0.,0.));
#1026=DIRECTION('ref_axis',(8.5401771125012E-17,0.538461538461539,-0.842650088469486));
#1027=DIRECTION('center_axis',(1.70803542250024E-16,1.,0.));
#1028=DIRECTION('ref_axis',(-1.,1.70803542250024E-16,0.));
#1029=DIRECTION('',(0.,0.,1.));
#1030=DIRECTION('',(1.,-1.70803542250024E-16,-2.24455696232075E-31));
#1031=DIRECTION('',(0.,0.,-1.));
#1032=DIRECTION('',(1.,-1.70803542250024E-16,0.));
#1033=DIRECTION('center_axis',(1.,2.92163953848725E-16,0.));
#1034=DIRECTION('ref_axis',(-2.92163953848725E-16,1.,0.));
#1035=DIRECTION('',(0.,0.,1.));
#1036=DIRECTION('center_axis',(-1.,-2.92163953848725E-16,0.));
#1037=DIRECTION('ref_axis',(-4.831053719027E-16,-0.707106781186547,-0.707106781186548));
#1038=DIRECTION('',(-2.92163953848725E-16,1.,4.09029535388216E-16));
#1039=DIRECTION('center_axis',(-1.,-2.92163953848725E-16,0.));
#1040=DIRECTION('ref_axis',(2.4155268595135E-16,0.707106781186548,-0.707106781186547));
#1041=DIRECTION('center_axis',(-6.83214169000096E-16,-1.,0.));
#1042=DIRECTION('ref_axis',(1.,-6.83214169000096E-16,0.));
#1043=DIRECTION('',(0.,0.,1.));
#1044=DIRECTION('',(-1.,6.83214169000096E-16,0.));
#1045=DIRECTION('',(0.,0.,1.));
#1046=DIRECTION('',(-1.,6.83214169000096E-16,4.34046776819641E-31));
#1047=DIRECTION('center_axis',(-1.,0.,0.));
#1048=DIRECTION('ref_axis',(0.,-1.,0.));
#1049=DIRECTION('',(0.,0.,-1.));
#1050=DIRECTION('center_axis',(1.,0.,0.));
#1051=DIRECTION('ref_axis',(-3.41607084500048E-16,-0.538461538461538,-0.842650088469487));
#1052=DIRECTION('center_axis',(-1.,2.22044604925031E-16,0.));
#1053=DIRECTION('ref_axis',(0.,0.,-1.));
#1054=DIRECTION('center_axis',(-1.,1.70803542250024E-16,0.));
#1055=DIRECTION('ref_axis',(0.,0.,-1.));
#1056=DIRECTION('',(-1.,2.22044604925031E-16,0.));
#1057=DIRECTION('center_axis',(-1.,1.66533453693773E-16,0.));
#1058=DIRECTION('ref_axis',(0.,0.,-1.));
#1059=DIRECTION('center_axis',(-1.,1.70803542250024E-16,0.));
#1060=DIRECTION('ref_axis',(0.,0.,-1.));
#1061=DIRECTION('',(-1.,1.66533453693773E-16,0.));
#1062=DIRECTION('center_axis',(-1.,2.37227142013922E-16,0.));
#1063=DIRECTION('ref_axis',(0.,0.,-1.));
#1064=DIRECTION('center_axis',(-1.,1.70803542250024E-16,0.));
#1065=DIRECTION('ref_axis',(0.,0.,-1.));
#1066=DIRECTION('',(-1.,2.37227142013922E-16,0.));
#1067=DIRECTION('center_axis',(-1.,1.70803542250024E-16,0.));
#1068=DIRECTION('ref_axis',(0.,0.,-1.));
#1069=DIRECTION('center_axis',(1.,-1.70803542250024E-16,0.));
#1070=DIRECTION('ref_axis',(0.,0.,-1.));
#1071=DIRECTION('center_axis',(1.,-1.70803542250024E-16,0.));
#1072=DIRECTION('ref_axis',(0.,0.,-1.));
#1073=DIRECTION('center_axis',(-1.,1.65352365369704E-16,0.));
#1074=DIRECTION('ref_axis',(0.,0.,-1.));
#1075=DIRECTION('',(-1.,1.65352365369704E-16,0.));
#1076=DIRECTION('center_axis',(-1.,6.83214169000096E-16,0.));
#1077=DIRECTION('ref_axis',(-3.41607084500048E-16,-0.538461538461538,-0.842650088469487));
#1078=DIRECTION('center_axis',(-1.,1.70803542250024E-16,0.));
#1079=DIRECTION('ref_axis',(-3.41607084500048E-16,-0.538461538461538,-0.842650088469487));
#1080=DIRECTION('',(1.,8.88178419700125E-16,0.));
#1081=DIRECTION('center_axis',(1.,-1.70803542250024E-16,0.));
#1082=DIRECTION('ref_axis',(-1.70803542250024E-16,-1.,0.));
#1083=DIRECTION('',(0.,0.,-1.));
#1084=DIRECTION('center_axis',(-1.,1.70803542250024E-16,0.));
#1085=DIRECTION('ref_axis',(4.831053719027E-16,-0.707106781186547,-0.707106781186548));
#1086=DIRECTION('center_axis',(-1.,1.70803542250024E-16,0.));
#1087=DIRECTION('ref_axis',(8.5401771125012E-17,0.538461538461539,-0.842650088469486));
#1088=DIRECTION('center_axis',(-1.,1.70803542250024E-16,0.));
#1089=DIRECTION('ref_axis',(2.4155268595135E-16,0.707106781186548,-0.707106781186547));
#1090=DIRECTION('',(-2.92163953848725E-16,1.,4.09029535388216E-16));
#1091=DIRECTION('center_axis',(-1.,1.70803542250024E-16,0.));
#1092=DIRECTION('ref_axis',(-4.831053719027E-16,-0.707106781186547,-0.707106781186548));
#1093=DIRECTION('center_axis',(1.,-1.70803542250024E-16,0.));
#1094=DIRECTION('ref_axis',(8.5401771125012E-17,0.538461538461539,-0.842650088469486));
#1095=DIRECTION('center_axis',(1.,-6.83214169000096E-16,-4.34046776819641E-31));
#1096=DIRECTION('ref_axis',(-4.831053719027E-16,-0.707106781186547,-0.707106781186548));
#1097=DIRECTION('',(1.,-6.83214169000096E-16,-4.34046776819641E-31));
#1098=DIRECTION('center_axis',(-1.,6.98253474607017E-17,0.));
#1099=DIRECTION('ref_axis',(-4.831053719027E-16,-0.707106781186547,-0.707106781186548));
#1100=DIRECTION('',(1.,-6.83214169000096E-16,-4.34046776819641E-31));
#1101=DIRECTION('center_axis',(1.,-2.09476042382105E-16,0.));
#1102=DIRECTION('ref_axis',(-4.831053719027E-16,-0.707106781186547,-0.707106781186548));
#1103=DIRECTION('',(1.,-6.83214169000096E-16,-4.34046776819641E-31));
#1104=DIRECTION('center_axis',(1.54592002702886E-31,-4.09029535388216E-16,
1.));
#1105=DIRECTION('ref_axis',(-2.92163953848725E-16,1.,4.09029535388216E-16));
#1106=DIRECTION('',(-2.09476042382105E-16,-1.,-4.09029535388216E-16));
#1107=DIRECTION('',(-1.,1.70803542250024E-16,2.24455696232075E-31));
#1108=DIRECTION('center_axis',(-1.,1.70803542250024E-16,2.24455696232075E-31));
#1109=DIRECTION('ref_axis',(2.4155268595135E-16,0.707106781186548,-0.707106781186547));
#1110=DIRECTION('center_axis',(-1.,6.98253474607017E-17,0.));
#1111=DIRECTION('ref_axis',(2.4155268595135E-16,0.707106781186548,-0.707106781186547));
#1112=DIRECTION('',(-1.,1.70803542250024E-16,2.24455696232075E-31));
#1113=DIRECTION('center_axis',(1.,-2.09476042382105E-16,0.));
#1114=DIRECTION('ref_axis',(2.4155268595135E-16,0.707106781186548,-0.707106781186547));
#1115=DIRECTION('',(-1.,1.70803542250024E-16,2.24455696232075E-31));
#1116=DIRECTION('center_axis',(1.54592002702886E-31,-4.09029535388216E-16,
1.));
#1117=DIRECTION('ref_axis',(-2.92163953848725E-16,1.,4.09029535388216E-16));
#1118=DIRECTION('',(6.98253474607017E-17,1.,4.09029535388216E-16));
#1119=DIRECTION('center_axis',(-1.,6.98253474607017E-17,0.));
#1120=DIRECTION('ref_axis',(-6.98253474607017E-17,-1.,0.));
#1121=DIRECTION('',(0.,0.,1.));
#1122=DIRECTION('',(-6.98253474607017E-17,-1.,0.));
#1123=DIRECTION('',(0.,0.,1.));
#1124=DIRECTION('',(-6.98253474607017E-17,-1.,0.));
#1125=DIRECTION('',(6.98253474607017E-17,1.,0.));
#1126=DIRECTION('',(-6.98253474607017E-17,-1.,0.));
#1127=DIRECTION('',(0.,0.,1.));
#1128=DIRECTION('',(-6.98253474607017E-17,-1.,0.));
#1129=DIRECTION('',(0.,0.,1.));
#1130=DIRECTION('center_axis',(0.,1.,0.));
#1131=DIRECTION('ref_axis',(-1.,0.,0.));
#1132=DIRECTION('',(0.,0.,1.));
#1133=DIRECTION('',(-1.,0.,0.));
#1134=DIRECTION('center_axis',(1.,0.,0.));
#1135=DIRECTION('ref_axis',(0.,0.707106781186547,-0.707106781186548));
#1136=DIRECTION('',(-1.,-8.88178419700125E-16,0.));
#1137=DIRECTION('center_axis',(1.,-2.09476042382105E-16,0.));
#1138=DIRECTION('ref_axis',(2.09476042382105E-16,1.,0.));
#1139=DIRECTION('',(0.,0.,1.));
#1140=DIRECTION('',(2.09476042382105E-16,1.,0.));
#1141=DIRECTION('',(0.,0.,1.));
#1142=DIRECTION('',(2.09476042382105E-16,1.,0.));
#1143=DIRECTION('',(-2.09476042382105E-16,-1.,0.));
#1144=DIRECTION('',(2.09476042382105E-16,1.,0.));
#1145=DIRECTION('',(0.,0.,1.));
#1146=DIRECTION('',(2.09476042382105E-16,1.,0.));
#1147=DIRECTION('center_axis',(8.88178419700125E-16,-1.,0.));
#1148=DIRECTION('ref_axis',(-1.,-8.88178419700125E-16,0.));
#1149=DIRECTION('',(1.,8.88178419700125E-16,0.));
#1150=DIRECTION('center_axis',(0.,0.,1.));
#1151=DIRECTION('ref_axis',(-1.,0.,0.));
#1152=DIRECTION('center_axis',(0.,0.,1.));
#1153=DIRECTION('ref_axis',(-1.,0.,0.));
#1154=DIRECTION('',(0.,0.,1.));
#1155=DIRECTION('center_axis',(0.,0.,1.));
#1156=DIRECTION('ref_axis',(-1.,0.,0.));
#1157=DIRECTION('center_axis',(0.,0.,-1.));
#1158=DIRECTION('ref_axis',(-1.,0.,0.));
#1159=DIRECTION('center_axis',(0.,0.,1.));
#1160=DIRECTION('ref_axis',(-1.,0.,0.));
#1161=DIRECTION('center_axis',(0.,0.,1.));
#1162=DIRECTION('ref_axis',(-1.,0.,0.));
#1163=DIRECTION('',(0.,0.,1.));
#1164=DIRECTION('center_axis',(0.,0.,1.));
#1165=DIRECTION('ref_axis',(-1.,0.,0.));
#1166=DIRECTION('center_axis',(0.,0.,-1.));
#1167=DIRECTION('ref_axis',(-1.,0.,0.));
#1168=DIRECTION('center_axis',(1.85037170770859E-16,1.,0.));
#1169=DIRECTION('ref_axis',(-1.,1.85037170770859E-16,0.));
#1170=DIRECTION('',(1.,-1.85037170770859E-16,0.));
#1171=DIRECTION('',(-1.,1.85037170770859E-16,0.));
#1172=DIRECTION('',(1.,-1.85037170770859E-16,0.));
#1173=DIRECTION('',(-1.,1.85037170770859E-16,0.));
#1174=DIRECTION('center_axis',(0.,0.,1.));
#1175=DIRECTION('ref_axis',(1.,0.,0.));
#1176=DIRECTION('center_axis',(0.,0.,-1.));
#1177=DIRECTION('ref_axis',(1.,0.,0.));
#1178=DIRECTION('',(1.,-3.70074341541719E-16,0.));
#1179=DIRECTION('center_axis',(0.,0.,1.));
#1180=DIRECTION('ref_axis',(1.,0.,0.));
#1181=DIRECTION('center_axis',(0.,0.,-1.));
#1182=DIRECTION('ref_axis',(1.,0.,0.));
#1183=DIRECTION('center_axis',(0.,0.,1.));
#1184=DIRECTION('ref_axis',(1.,0.,0.));
#1185=DIRECTION('center_axis',(0.,0.,-1.));
#1186=DIRECTION('ref_axis',(1.,0.,0.));
#1187=DIRECTION('center_axis',(-3.70074341541719E-16,-1.,0.));
#1188=DIRECTION('ref_axis',(1.,-3.70074341541719E-16,0.));
#1189=DIRECTION('',(-1.,3.70074341541719E-16,0.));
#1190=DIRECTION('center_axis',(0.,0.,1.));
#1191=DIRECTION('ref_axis',(1.,0.,0.));
#1192=DIRECTION('center_axis',(0.,0.,-1.));
#1193=DIRECTION('ref_axis',(1.,0.,0.));
#1194=DIRECTION('center_axis',(0.,0.,1.));
#1195=DIRECTION('ref_axis',(1.,0.,0.));
#1196=DIRECTION('center_axis',(0.,0.,-1.));
#1197=DIRECTION('ref_axis',(1.,0.,0.));
#1198=DIRECTION('center_axis',(0.,0.,-1.));
#1199=DIRECTION('ref_axis',(1.,0.,0.));
#1200=DIRECTION('center_axis',(-3.70074341541719E-16,-1.,0.));
#1201=DIRECTION('ref_axis',(1.,-3.70074341541719E-16,0.));
#1202=DIRECTION('',(1.,-3.70074341541719E-16,0.));
#1203=DIRECTION('center_axis',(0.,0.,1.));
#1204=DIRECTION('ref_axis',(1.,0.,0.));
#1205=DIRECTION('center_axis',(0.,0.,1.));
#1206=DIRECTION('ref_axis',(1.,0.,0.));
#1207=DIRECTION('center_axis',(0.,0.,-1.));
#1208=DIRECTION('ref_axis',(1.,0.,0.));
#1209=DIRECTION('center_axis',(0.,0.,-1.));
#1210=DIRECTION('ref_axis',(1.,0.,0.));
#1211=DIRECTION('',(0.,0.,-1.));
#1212=DIRECTION('center_axis',(0.,0.,-1.));
#1213=DIRECTION('ref_axis',(1.,0.,0.));
#1214=DIRECTION('center_axis',(0.,0.,1.));
#1215=DIRECTION('ref_axis',(1.,0.,0.));
#1216=DIRECTION('center_axis',(0.,0.,1.));
#1217=DIRECTION('ref_axis',(1.,0.,0.));
#1218=CARTESIAN_POINT('',(0.,0.,0.));
#1219=CARTESIAN_POINT('Origin',(-13.5,-11.5,30.));
#1220=CARTESIAN_POINT('',(-15.5,-18.,30.));
#1221=CARTESIAN_POINT('',(-13.5,-18.,32.));
#1222=CARTESIAN_POINT('Origin',(-13.5,-18.,30.));
#1223=CARTESIAN_POINT('',(-13.5,8.,32.));
#1224=CARTESIAN_POINT('',(-13.5,-11.5,32.));
#1225=CARTESIAN_POINT('',(-15.5,8.,30.));
#1226=CARTESIAN_POINT('Origin',(-13.5,8.,30.));
#1227=CARTESIAN_POINT('',(-15.5,-11.5,30.));
#1228=CARTESIAN_POINT('Origin',(-15.5,-18.,0.));
#1229=CARTESIAN_POINT('',(-15.5,8.,-17.));
#1230=CARTESIAN_POINT('',(-15.5,8.,0.));
#1231=CARTESIAN_POINT('',(-15.5,-18.,-17.));
#1232=CARTESIAN_POINT('Origin',(-15.5,-5.,-17.));
#1233=CARTESIAN_POINT('',(-15.5,-18.,0.));
#1234=CARTESIAN_POINT('',(-15.5,-5.,-14.5));
#1235=CARTESIAN_POINT('Origin',(-15.5,-4.99999999999999,-17.));
#1236=CARTESIAN_POINT('',(-15.5,1.95000000000001,-16.0198234757616));
#1237=CARTESIAN_POINT('Origin',(-15.5,1.95000000000001,-16.9998234757616));
#1238=CARTESIAN_POINT('',(-15.5,-11.95,-16.0198234757616));
#1239=CARTESIAN_POINT('Origin',(-15.5,-11.95,-16.9998234757616));
#1240=CARTESIAN_POINT('Origin',(-15.5,8.,0.));
#1241=CARTESIAN_POINT('',(-11.,8.,32.));
#1242=CARTESIAN_POINT('',(-13.,8.,32.));
#1243=CARTESIAN_POINT('',(-13.,8.,30.));
#1244=CARTESIAN_POINT('Origin',(-11.,8.,30.));
#1245=CARTESIAN_POINT('',(-13.,8.,0.));
#1246=CARTESIAN_POINT('',(-13.,8.,0.));
#1247=CARTESIAN_POINT('',(-10.5,8.,0.));
#1248=CARTESIAN_POINT('',(-7.75,8.,0.));
#1249=CARTESIAN_POINT('',(-10.5,8.,-17.));
#1250=CARTESIAN_POINT('',(-10.5,8.,0.));
#1251=CARTESIAN_POINT('',(-14.25,8.,-17.));
#1252=CARTESIAN_POINT('Origin',(-11.,4.5,30.));
#1253=CARTESIAN_POINT('',(-13.,14.,30.));
#1254=CARTESIAN_POINT('',(-13.,4.5,30.));
#1255=CARTESIAN_POINT('',(-11.,12.,32.));
#1256=CARTESIAN_POINT('',(-11.,4.5,32.));
#1257=CARTESIAN_POINT('Origin',(-11.,12.,30.));
#1258=CARTESIAN_POINT('Origin',(6.5,12.,30.));
#1259=CARTESIAN_POINT('',(11.,12.,32.));
#1260=CARTESIAN_POINT('',(6.5,12.,32.));
#1261=CARTESIAN_POINT('',(13.,14.,30.));
#1262=CARTESIAN_POINT('Origin',(11.,12.,30.));
#1263=CARTESIAN_POINT('',(6.5,14.,30.));
#1264=CARTESIAN_POINT('Origin',(11.,-14.5,30.));
#1265=CARTESIAN_POINT('',(13.,-24.,30.));
#1266=CARTESIAN_POINT('',(13.,-14.5,30.));
#1267=CARTESIAN_POINT('',(11.,-22.,32.));
#1268=CARTESIAN_POINT('',(11.,-14.5,32.));
#1269=CARTESIAN_POINT('Origin',(11.,-22.,30.));
#1270=CARTESIAN_POINT('Origin',(-6.5,-22.,30.));
#1271=CARTESIAN_POINT('',(-13.,-24.,30.));
#1272=CARTESIAN_POINT('',(-6.50000000000001,-24.,30.));
#1273=CARTESIAN_POINT('',(-11.,-22.,32.));
#1274=CARTESIAN_POINT('',(-6.5,-22.,32.));
#1275=CARTESIAN_POINT('Origin',(-11.,-22.,30.));
#1276=CARTESIAN_POINT('Origin',(-11.,4.5,30.));
#1277=CARTESIAN_POINT('',(-11.,-18.,32.));
#1278=CARTESIAN_POINT('',(-11.,4.5,32.));
#1279=CARTESIAN_POINT('',(-13.,-18.,30.));
#1280=CARTESIAN_POINT('Origin',(-11.,-18.,30.));
#1281=CARTESIAN_POINT('',(-13.,4.5,30.));
#1282=CARTESIAN_POINT('Origin',(-13.,14.,0.));
#1283=CARTESIAN_POINT('',(-13.,14.,10.9544511501033));
#1284=CARTESIAN_POINT('',(-13.,14.,0.));
#1285=CARTESIAN_POINT('Origin',(-13.,1.,10.9544511501033));
#1286=CARTESIAN_POINT('Origin',(13.,14.,0.));
#1287=CARTESIAN_POINT('',(13.,14.,25.));
#1288=CARTESIAN_POINT('',(13.,14.,0.));
#1289=CARTESIAN_POINT('',(-10.5,14.,25.));
#1290=CARTESIAN_POINT('',(13.,14.,25.));
#1291=CARTESIAN_POINT('',(-10.5,14.,10.9544511501033));
#1292=CARTESIAN_POINT('',(-10.5,14.,3.));
#1293=CARTESIAN_POINT('',(-7.75,14.,10.9544511501033));
#1294=CARTESIAN_POINT('Origin',(13.,-24.,0.));
#1295=CARTESIAN_POINT('',(13.,-24.,25.));
#1296=CARTESIAN_POINT('',(13.,-24.,0.));
#1297=CARTESIAN_POINT('',(13.,-11.,12.));
#1298=CARTESIAN_POINT('Origin',(13.,-11.,25.));
#1299=CARTESIAN_POINT('',(13.,1.,12.));
#1300=CARTESIAN_POINT('',(13.,-24.,12.));
#1301=CARTESIAN_POINT('Origin',(13.,0.999999999999996,25.));
#1302=CARTESIAN_POINT('Origin',(-13.,-24.,0.));
#1303=CARTESIAN_POINT('',(-13.,-24.,10.9544511501033));
#1304=CARTESIAN_POINT('',(-13.,-24.,0.));
#1305=CARTESIAN_POINT('',(-10.5,-24.,10.9544511501033));
#1306=CARTESIAN_POINT('',(-5.25,-24.,10.9544511501033));
#1307=CARTESIAN_POINT('',(-10.5,-24.,25.));
#1308=CARTESIAN_POINT('',(-10.5,-24.,3.));
#1309=CARTESIAN_POINT('',(3.94430452610506E-30,-24.,25.));
#1310=CARTESIAN_POINT('Origin',(-13.,14.,0.));
#1311=CARTESIAN_POINT('',(-13.,-18.,0.));
#1312=CARTESIAN_POINT('',(-13.,-18.,0.));
#1313=CARTESIAN_POINT('Origin',(-13.,-11.,10.9544511501033));
#1314=CARTESIAN_POINT('Origin',(-12.84,-11.95,-16.9998234757616));
#1315=CARTESIAN_POINT('',(-12.84,-11.95,-16.0198234757616));
#1316=CARTESIAN_POINT('Origin',(-12.84,-11.95,-16.9998234757616));
#1317=CARTESIAN_POINT('',(-12.84,-11.95,-16.0198234757616));
#1318=CARTESIAN_POINT('Origin',(-12.84,1.95000000000001,-16.9998234757616));
#1319=CARTESIAN_POINT('',(-12.84,1.95000000000001,-16.0198234757616));
#1320=CARTESIAN_POINT('Origin',(-12.84,1.95000000000001,-16.9998234757616));
#1321=CARTESIAN_POINT('',(-12.84,1.95000000000001,-16.0198234757616));
#1322=CARTESIAN_POINT('Origin',(-10.5,-5.,-17.));
#1323=CARTESIAN_POINT('',(-10.5,-4.99999999999999,-6.5));
#1324=CARTESIAN_POINT('Origin',(-10.5,-5.,-17.));
#1325=CARTESIAN_POINT('',(-12.84,-4.99999999999999,-6.5));
#1326=CARTESIAN_POINT('',(-10.5,-4.99999999999999,-6.5));
#1327=CARTESIAN_POINT('Origin',(-12.84,-5.,-17.));
#1328=CARTESIAN_POINT('Origin',(-12.84,-4.99999999999999,-17.));
#1329=CARTESIAN_POINT('',(-12.84,-4.99999999999999,-14.5));
#1330=CARTESIAN_POINT('Origin',(-12.84,-4.99999999999999,-17.));
#1331=CARTESIAN_POINT('Origin',(-10.5,-5.,-17.));
#1332=CARTESIAN_POINT('',(-10.5,-4.99999999999999,-14.5));
#1333=CARTESIAN_POINT('Origin',(-5.24999999999999,-11.,10.9544511501033));
#1334=CARTESIAN_POINT('',(-10.5,-18.,0.));
#1335=CARTESIAN_POINT('Origin',(-10.5,-11.,10.9544511501033));
#1336=CARTESIAN_POINT('',(-5.25,-18.,0.));
#1337=CARTESIAN_POINT('Origin',(-10.5,8.,0.));
#1338=CARTESIAN_POINT('',(-10.5,-18.,-17.));
#1339=CARTESIAN_POINT('',(-10.5,-18.,0.));
#1340=CARTESIAN_POINT('Origin',(-10.5,-5.,-17.));
#1341=CARTESIAN_POINT('Origin',(-10.5,0.999999999999999,10.9544511501033));
#1342=CARTESIAN_POINT('',(-10.5,1.00000000000001,12.));
#1343=CARTESIAN_POINT('Origin',(-10.5,1.,25.));
#1344=CARTESIAN_POINT('',(-10.5,-11.,12.));
#1345=CARTESIAN_POINT('',(-10.5,14.,12.));
#1346=CARTESIAN_POINT('Origin',(-10.5,-11.,25.));
#1347=CARTESIAN_POINT('Origin',(-7.75000000000001,0.999999999999999,10.9544511501033));
#1348=CARTESIAN_POINT('Origin',(8.88178419700126E-15,-11.,25.));
#1349=CARTESIAN_POINT('',(-6.,-11.,12.));
#1350=CARTESIAN_POINT('',(8.88178419700126E-15,-11.,12.));
#1351=CARTESIAN_POINT('',(-6.,-21.1,16.8152580981438));
#1352=CARTESIAN_POINT('Origin',(-6.00000000000001,-11.,25.));
#1353=CARTESIAN_POINT('',(6.,-21.1,16.8152580981438));
#1354=CARTESIAN_POINT('',(2.1008835696753E-15,-21.1,16.8152580981438));
#1355=CARTESIAN_POINT('',(6.,-11.,12.));
#1356=CARTESIAN_POINT('Origin',(5.99999999999999,-11.,25.));
#1357=CARTESIAN_POINT('',(8.88178419700126E-15,-11.,12.));
#1358=CARTESIAN_POINT('Origin',(13.,-24.,12.));
#1359=CARTESIAN_POINT('',(6.,1.,12.));
#1360=CARTESIAN_POINT('',(6.,-9.00000000000001,12.));
#1361=CARTESIAN_POINT('',(13.,1.,12.));
#1362=CARTESIAN_POINT('Origin',(13.,0.999999999999996,25.));
#1363=CARTESIAN_POINT('',(-6.,10.7,16.3449436743601));
#1364=CARTESIAN_POINT('',(-6.,1.00000000000001,12.));
#1365=CARTESIAN_POINT('Origin',(-6.,1.,25.));
#1366=CARTESIAN_POINT('',(13.,1.,12.));
#1367=CARTESIAN_POINT('',(6.00000000000001,10.7,16.3449436743601));
#1368=CARTESIAN_POINT('Origin',(6.,0.999999999999998,25.));
#1369=CARTESIAN_POINT('',(13.,10.7,16.3449436743601));
#1370=CARTESIAN_POINT('Origin',(13.,-24.,12.));
#1371=CARTESIAN_POINT('',(-6.,-6.65000000000001,12.));
#1372=CARTESIAN_POINT('Origin',(-6.,10.7,0.));
#1373=CARTESIAN_POINT('',(-6.,10.7,21.85));
#1374=CARTESIAN_POINT('',(-6.,10.7,0.));
#1375=CARTESIAN_POINT('',(-6.,6.,21.85));
#1376=CARTESIAN_POINT('',(-6.,-21.1,21.85));
#1377=CARTESIAN_POINT('',(-6.,6.,25.));
#1378=CARTESIAN_POINT('',(-6.,6.,0.));
#1379=CARTESIAN_POINT('',(-6.,4.5,25.));
#1380=CARTESIAN_POINT('',(-6.,-21.1,25.));
#1381=CARTESIAN_POINT('',(-6.,-4.5,25.));
#1382=CARTESIAN_POINT('',(-6.,3.,25.));
#1383=CARTESIAN_POINT('',(-6.,-16.4,25.));
#1384=CARTESIAN_POINT('',(-6.,-21.1,25.));
#1385=CARTESIAN_POINT('',(-6.,-16.4,21.85));
#1386=CARTESIAN_POINT('',(-6.,-16.4,0.));
#1387=CARTESIAN_POINT('',(-6.,-21.1,21.85));
#1388=CARTESIAN_POINT('',(-6.,-21.1,21.85));
#1389=CARTESIAN_POINT('',(-6.,-21.1,0.));
#1390=CARTESIAN_POINT('Origin',(6.00000000000001,10.7,0.));
#1391=CARTESIAN_POINT('',(6.00000000000001,10.7,21.85));
#1392=CARTESIAN_POINT('',(6.00000000000001,10.7,0.));
#1393=CARTESIAN_POINT('',(-6.,10.7,21.85));
#1394=CARTESIAN_POINT('Origin',(-14.25,-5.,-17.));
#1395=CARTESIAN_POINT('',(-11.75,-18.,-17.));
#1396=CARTESIAN_POINT('Origin',(6.00000000000001,6.,0.));
#1397=CARTESIAN_POINT('',(6.,-21.1,21.85));
#1398=CARTESIAN_POINT('',(6.,-21.1,0.));
#1399=CARTESIAN_POINT('',(6.,-16.4,21.85));
#1400=CARTESIAN_POINT('',(6.00000000000001,10.7,21.85));
#1401=CARTESIAN_POINT('',(6.,-16.4,25.));
#1402=CARTESIAN_POINT('',(6.,-16.4,0.));
#1403=CARTESIAN_POINT('',(6.,-4.5,25.));
#1404=CARTESIAN_POINT('',(6.00000000000001,10.7,25.));
#1405=CARTESIAN_POINT('',(6.00000000000001,4.49999999999999,25.));
#1406=CARTESIAN_POINT('',(6.,-8.2,25.));
#1407=CARTESIAN_POINT('',(6.,6.,25.));
#1408=CARTESIAN_POINT('',(6.00000000000001,10.7,25.));
#1409=CARTESIAN_POINT('',(6.00000000000001,6.,21.85));
#1410=CARTESIAN_POINT('',(6.00000000000001,6.,0.));
#1411=CARTESIAN_POINT('',(6.00000000000001,10.7,21.85));
#1412=CARTESIAN_POINT('Origin',(-10.5,-18.,0.));
#1413=CARTESIAN_POINT('',(-15.5,-18.,32.));
#1414=CARTESIAN_POINT('Origin',(-3.17943229592081E-17,-19.05,21.85));
#1415=CARTESIAN_POINT('',(1.,-19.05,21.85));
#1416=CARTESIAN_POINT('Origin',(-3.17943229592081E-17,-19.05,21.85));
#1417=CARTESIAN_POINT('',(1.,-19.05,31.85));
#1418=CARTESIAN_POINT('',(1.,-19.05,21.85));
#1419=CARTESIAN_POINT('Origin',(-3.17943229592081E-17,-19.05,31.85));
#1420=CARTESIAN_POINT('Origin',(0.,-19.05,31.85));
#1421=CARTESIAN_POINT('Origin',(3.84392486077114E-17,8.65,21.85));
#1422=CARTESIAN_POINT('',(1.,8.65,21.85));
#1423=CARTESIAN_POINT('Origin',(3.84392486077114E-17,8.65,21.85));
#1424=CARTESIAN_POINT('',(1.,8.65,31.85));
#1425=CARTESIAN_POINT('',(1.,8.65,21.85));
#1426=CARTESIAN_POINT('Origin',(3.84392486077114E-17,8.65,31.85));
#1427=CARTESIAN_POINT('Origin',(0.,8.65,31.85));
#1428=CARTESIAN_POINT('Origin',(6.00000000000001,6.,0.));
#1429=CARTESIAN_POINT('',(6.00000000000001,6.,21.85));
#1430=CARTESIAN_POINT('',(4.5,6.,25.));
#1431=CARTESIAN_POINT('',(-6.,6.,25.));
#1432=CARTESIAN_POINT('',(-4.5,6.,25.));
#1433=CARTESIAN_POINT('',(3.,6.,25.));
#1434=CARTESIAN_POINT('',(-6.,6.,25.));
#1435=CARTESIAN_POINT('Origin',(1.11022302462516E-15,-5.2,25.));
#1436=CARTESIAN_POINT('Origin',(0.,0.,25.));
#1437=CARTESIAN_POINT('',(6.,-16.4,25.));
#1438=CARTESIAN_POINT('Origin',(1.11022302462516E-15,-5.2,25.));
#1439=CARTESIAN_POINT('Origin',(0.,0.,25.));
#1440=CARTESIAN_POINT('Origin',(1.11022302462516E-15,-5.2,25.));
#1441=CARTESIAN_POINT('Origin',(0.,0.,25.));
#1442=CARTESIAN_POINT('Origin',(-6.,-16.4,0.));
#1443=CARTESIAN_POINT('',(-6.,-16.4,21.85));
#1444=CARTESIAN_POINT('Origin',(0.,0.,25.));
#1445=CARTESIAN_POINT('Origin',(0.,0.,25.));
#1446=CARTESIAN_POINT('Origin',(0.,0.,25.));
#1447=CARTESIAN_POINT('',(-7.5,9.18485099360515E-16,25.));
#1448=CARTESIAN_POINT('Origin',(0.,0.,25.));
#1449=CARTESIAN_POINT('Origin',(0.,0.,25.));
#1450=CARTESIAN_POINT('Origin',(-6.,-21.1,0.));
#1451=CARTESIAN_POINT('',(6.,-21.1,21.85));
#1452=CARTESIAN_POINT('Origin',(-1.11022302462516E-15,-18.75,21.85));
#1453=CARTESIAN_POINT('Origin',(3.33066907387547E-15,8.35,21.85));
#1454=CARTESIAN_POINT('Origin',(0.,0.,32.));
#1455=CARTESIAN_POINT('',(-7.5,9.18485099360515E-16,32.));
#1456=CARTESIAN_POINT('Origin',(0.,0.,32.));
#1457=CARTESIAN_POINT('',(-7.5,9.18485099360515E-16,32.));
#1458=CARTESIAN_POINT('Origin',(0.,0.,25.));
#1459=CARTESIAN_POINT('Origin',(0.,0.,25.));
#1460=CARTESIAN_POINT('Origin',(0.,-5.,32.));
#1461=UNCERTAINTY_MEASURE_WITH_UNIT(LENGTH_MEASURE(0.01),#1465,
'DISTANCE_ACCURACY_VALUE',
'Maximum model space distance between geometric entities at asserted c
onnectivities');
#1462=UNCERTAINTY_MEASURE_WITH_UNIT(LENGTH_MEASURE(0.01),#1465,
'DISTANCE_ACCURACY_VALUE',
'Maximum model space distance between geometric entities at asserted c
onnectivities');
#1463=(
GEOMETRIC_REPRESENTATION_CONTEXT(3)
GLOBAL_UNCERTAINTY_ASSIGNED_CONTEXT((#1461))
GLOBAL_UNIT_ASSIGNED_CONTEXT((#1465,#1467,#1468))
REPRESENTATION_CONTEXT('','3D')
);
#1464=(
GEOMETRIC_REPRESENTATION_CONTEXT(3)
GLOBAL_UNCERTAINTY_ASSIGNED_CONTEXT((#1462))
GLOBAL_UNIT_ASSIGNED_CONTEXT((#1465,#1467,#1468))
REPRESENTATION_CONTEXT('','3D')
);
#1465=(
LENGTH_UNIT()
NAMED_UNIT(*)
SI_UNIT(.MILLI.,.METRE.)
);
#1466=(
LENGTH_UNIT()
NAMED_UNIT(*)
SI_UNIT(.CENTI.,.METRE.)
);
#1467=(
NAMED_UNIT(*)
PLANE_ANGLE_UNIT()
SI_UNIT($,.RADIAN.)
);
#1468=(
NAMED_UNIT(*)
SI_UNIT($,.STERADIAN.)
SOLID_ANGLE_UNIT()
);
#1469=SHAPE_DEFINITION_REPRESENTATION(#1470,#1471);
#1470=PRODUCT_DEFINITION_SHAPE('',$,#1473);
#1471=SHAPE_REPRESENTATION('',(#871),#1463);
#1472=PRODUCT_DEFINITION_CONTEXT('part definition',#1477,'design');
#1473=PRODUCT_DEFINITION('l_5','l_5',#1474,#1472);
#1474=PRODUCT_DEFINITION_FORMATION('',$,#1479);
#1475=PRODUCT_RELATED_PRODUCT_CATEGORY('l_5','l_5',(#1479));
#1476=APPLICATION_PROTOCOL_DEFINITION('international standard',
'automotive_design',2009,#1477);
#1477=APPLICATION_CONTEXT(
'Core Data for Automotive Mechanical Design Process');
#1478=PRODUCT_CONTEXT('part definition',#1477,'mechanical');
#1479=PRODUCT('l_5','l_5',$,(#1478));
#1480=PRESENTATION_STYLE_ASSIGNMENT((#1481));
#1481=SURFACE_STYLE_USAGE(.BOTH.,#1484);
#1482=SURFACE_STYLE_RENDERING_WITH_PROPERTIES($,#1488,(#1483));
#1483=SURFACE_STYLE_TRANSPARENT(0.);
#1484=SURFACE_SIDE_STYLE('',(#1485,#1482));
#1485=SURFACE_STYLE_FILL_AREA(#1486);
#1486=FILL_AREA_STYLE('',(#1487));
#1487=FILL_AREA_STYLE_COLOUR('',#1488);
#1488=COLOUR_RGB('',0.92156862745098,0.92156862745098,0.92156862745098);
ENDSEC;
END-ISO-10303-21;
