ISO-10303-21;
HEADER;
/* Generated by software containing ST-Developer
 * from STEP Tools, Inc. (www.steptools.com) 
 */

FILE_DESCRIPTION(
/* description */ (''),
/* implementation_level */ '2;1');

FILE_NAME(
/* name */ 
'C:\\Users\\eyome\\OneDrive\\Documents\\Inventor\\N_IK\\arm6DOF\\eyo_6
DOF_arm\\\\l_6_ipt_393941ab.STEP',
/* time_stamp */ '2025-11-15T16:55:08+03:00',
/* author */ ('eyome'),
/* organization */ (''),
/* preprocessor_version */ 'ST-DEVELOPER v18.1',
/* originating_system */ 'Autodesk Inventor 2021',
/* authorisation */ '');

FILE_SCHEMA (('AUTOMOTIVE_DESIGN { 1 0 10303 214 3 1 1 }'));
ENDSEC;

DATA;
#10=MECHANICAL_DESIGN_GEOMETRIC_PRESENTATION_REPRESENTATION('',(#13),#678);
#11=SHAPE_REPRESENTATION_RELATIONSHIP('SRR','None',#685,#12);
#12=ADVANCED_BREP_SHAPE_REPRESENTATION('',(#14),#677);
#13=STYLED_ITEM('',(#694),#14);
#14=MANIFOLD_SOLID_BREP('Solid1',#392);
#15=CYLINDRICAL_SURFACE('',#417,1.5);
#16=CYLINDRICAL_SURFACE('',#421,10.);
#17=CYLINDRICAL_SURFACE('',#430,10.);
#18=CYLINDRICAL_SURFACE('',#433,10.);
#19=CYLINDRICAL_SURFACE('',#435,10.);
#20=CYLINDRICAL_SURFACE('',#437,0.98);
#21=CYLINDRICAL_SURFACE('',#440,1.5);
#22=CYLINDRICAL_SURFACE('',#443,0.98);
#23=CYLINDRICAL_SURFACE('',#446,10.5);
#24=FACE_BOUND('',#76,.T.);
#25=FACE_BOUND('',#84,.T.);
#26=FACE_BOUND('',#94,.T.);
#27=FACE_BOUND('',#95,.T.);
#28=FACE_BOUND('',#96,.T.);
#29=FACE_BOUND('',#100,.T.);
#30=FACE_BOUND('',#101,.T.);
#31=FACE_BOUND('',#102,.T.);
#32=FACE_BOUND('',#103,.T.);
#33=CIRCLE('',#415,1.5);
#34=CIRCLE('',#418,1.5);
#35=CIRCLE('',#422,10.);
#36=CIRCLE('',#423,10.);
#37=CIRCLE('',#426,10.);
#38=CIRCLE('',#427,10.);
#39=CIRCLE('',#428,10.);
#40=CIRCLE('',#429,10.5);
#41=CIRCLE('',#431,10.);
#42=CIRCLE('',#434,10.);
#43=CIRCLE('',#436,10.);
#44=CIRCLE('',#438,0.98);
#45=CIRCLE('',#439,0.98);
#46=CIRCLE('',#441,1.5);
#47=CIRCLE('',#442,1.5);
#48=CIRCLE('',#444,0.98);
#49=CIRCLE('',#445,0.98);
#50=CIRCLE('',#447,10.5);
#51=FACE_OUTER_BOUND('',#73,.T.);
#52=FACE_OUTER_BOUND('',#74,.T.);
#53=FACE_OUTER_BOUND('',#75,.T.);
#54=FACE_OUTER_BOUND('',#77,.T.);
#55=FACE_OUTER_BOUND('',#78,.T.);
#56=FACE_OUTER_BOUND('',#79,.T.);
#57=FACE_OUTER_BOUND('',#80,.T.);
#58=FACE_OUTER_BOUND('',#81,.T.);
#59=FACE_OUTER_BOUND('',#82,.T.);
#60=FACE_OUTER_BOUND('',#83,.T.);
#61=FACE_OUTER_BOUND('',#85,.T.);
#62=FACE_OUTER_BOUND('',#86,.T.);
#63=FACE_OUTER_BOUND('',#87,.T.);
#64=FACE_OUTER_BOUND('',#88,.T.);
#65=FACE_OUTER_BOUND('',#89,.T.);
#66=FACE_OUTER_BOUND('',#90,.T.);
#67=FACE_OUTER_BOUND('',#91,.T.);
#68=FACE_OUTER_BOUND('',#92,.T.);
#69=FACE_OUTER_BOUND('',#93,.T.);
#70=FACE_OUTER_BOUND('',#97,.T.);
#71=FACE_OUTER_BOUND('',#98,.T.);
#72=FACE_OUTER_BOUND('',#99,.T.);
#73=EDGE_LOOP('',(#255,#256,#257,#258));
#74=EDGE_LOOP('',(#259,#260,#261,#262));
#75=EDGE_LOOP('',(#263,#264,#265,#266));
#76=EDGE_LOOP('',(#267));
#77=EDGE_LOOP('',(#268,#269,#270,#271));
#78=EDGE_LOOP('',(#272,#273,#274,#275));
#79=EDGE_LOOP('',(#276));
#80=EDGE_LOOP('',(#277,#278,#279,#280));
#81=EDGE_LOOP('',(#281,#282,#283,#284));
#82=EDGE_LOOP('',(#285,#286,#287,#288));
#83=EDGE_LOOP('',(#289,#290,#291,#292,#293,#294,#295,#296));
#84=EDGE_LOOP('',(#297));
#85=EDGE_LOOP('',(#298,#299,#300,#301));
#86=EDGE_LOOP('',(#302,#303,#304,#305));
#87=EDGE_LOOP('',(#306,#307,#308,#309));
#88=EDGE_LOOP('',(#310,#311,#312,#313));
#89=EDGE_LOOP('',(#314,#315,#316,#317));
#90=EDGE_LOOP('',(#318,#319,#320,#321));
#91=EDGE_LOOP('',(#322,#323,#324,#325));
#92=EDGE_LOOP('',(#326,#327,#328,#329));
#93=EDGE_LOOP('',(#330));
#94=EDGE_LOOP('',(#331));
#95=EDGE_LOOP('',(#332));
#96=EDGE_LOOP('',(#333));
#97=EDGE_LOOP('',(#334,#335,#336,#337));
#98=EDGE_LOOP('',(#338,#339,#340,#341));
#99=EDGE_LOOP('',(#342,#343,#344,#345,#346,#347,#348,#349));
#100=EDGE_LOOP('',(#350,#351,#352,#353));
#101=EDGE_LOOP('',(#354));
#102=EDGE_LOOP('',(#355));
#103=EDGE_LOOP('',(#356));
#104=LINE('',#571,#137);
#105=LINE('',#573,#138);
#106=LINE('',#575,#139);
#107=LINE('',#576,#140);
#108=LINE('',#579,#141);
#109=LINE('',#581,#142);
#110=LINE('',#582,#143);
#111=LINE('',#585,#144);
#112=LINE('',#586,#145);
#113=LINE('',#591,#146);
#114=LINE('',#592,#147);
#115=LINE('',#595,#148);
#116=LINE('',#599,#149);
#117=LINE('',#605,#150);
#118=LINE('',#608,#151);
#119=LINE('',#611,#152);
#120=LINE('',#613,#153);
#121=LINE('',#614,#154);
#122=LINE('',#617,#155);
#123=LINE('',#621,#156);
#124=LINE('',#625,#157);
#125=LINE('',#633,#158);
#126=LINE('',#634,#159);
#127=LINE('',#637,#160);
#128=LINE('',#638,#161);
#129=LINE('',#642,#162);
#130=LINE('',#646,#163);
#131=LINE('',#651,#164);
#132=LINE('',#657,#165);
#133=LINE('',#663,#166);
#134=LINE('',#667,#167);
#135=LINE('',#671,#168);
#136=LINE('',#673,#169);
#137=VECTOR('',#456,10.);
#138=VECTOR('',#457,10.);
#139=VECTOR('',#458,10.);
#140=VECTOR('',#459,10.);
#141=VECTOR('',#462,10.);
#142=VECTOR('',#463,10.);
#143=VECTOR('',#464,10.);
#144=VECTOR('',#467,10.);
#145=VECTOR('',#468,10.);
#146=VECTOR('',#473,10.);
#147=VECTOR('',#474,10.);
#148=VECTOR('',#477,1.5);
#149=VECTOR('',#484,10.);
#150=VECTOR('',#489,10.);
#151=VECTOR('',#492,10.);
#152=VECTOR('',#495,10.);
#153=VECTOR('',#496,10.);
#154=VECTOR('',#497,10.);
#155=VECTOR('',#500,10.);
#156=VECTOR('',#503,10.);
#157=VECTOR('',#506,10.);
#158=VECTOR('',#515,10.);
#159=VECTOR('',#516,10.);
#160=VECTOR('',#519,10.);
#161=VECTOR('',#520,10.);
#162=VECTOR('',#525,10.);
#163=VECTOR('',#530,10.);
#164=VECTOR('',#535,0.98);
#165=VECTOR('',#542,1.5);
#166=VECTOR('',#549,0.98);
#167=VECTOR('',#554,10.5);
#168=VECTOR('',#561,10.);
#169=VECTOR('',#564,10.);
#170=VERTEX_POINT('',#569);
#171=VERTEX_POINT('',#570);
#172=VERTEX_POINT('',#572);
#173=VERTEX_POINT('',#574);
#174=VERTEX_POINT('',#578);
#175=VERTEX_POINT('',#580);
#176=VERTEX_POINT('',#584);
#177=VERTEX_POINT('',#587);
#178=VERTEX_POINT('',#590);
#179=VERTEX_POINT('',#594);
#180=VERTEX_POINT('',#601);
#181=VERTEX_POINT('',#602);
#182=VERTEX_POINT('',#604);
#183=VERTEX_POINT('',#606);
#184=VERTEX_POINT('',#610);
#185=VERTEX_POINT('',#612);
#186=VERTEX_POINT('',#616);
#187=VERTEX_POINT('',#618);
#188=VERTEX_POINT('',#620);
#189=VERTEX_POINT('',#622);
#190=VERTEX_POINT('',#624);
#191=VERTEX_POINT('',#627);
#192=VERTEX_POINT('',#630);
#193=VERTEX_POINT('',#631);
#194=VERTEX_POINT('',#636);
#195=VERTEX_POINT('',#640);
#196=VERTEX_POINT('',#644);
#197=VERTEX_POINT('',#648);
#198=VERTEX_POINT('',#650);
#199=VERTEX_POINT('',#654);
#200=VERTEX_POINT('',#656);
#201=VERTEX_POINT('',#660);
#202=VERTEX_POINT('',#662);
#203=VERTEX_POINT('',#666);
#204=EDGE_CURVE('',#170,#171,#104,.T.);
#205=EDGE_CURVE('',#171,#172,#105,.T.);
#206=EDGE_CURVE('',#172,#173,#106,.T.);
#207=EDGE_CURVE('',#170,#173,#107,.T.);
#208=EDGE_CURVE('',#174,#172,#108,.T.);
#209=EDGE_CURVE('',#175,#174,#109,.T.);
#210=EDGE_CURVE('',#173,#175,#110,.T.);
#211=EDGE_CURVE('',#171,#176,#111,.T.);
#212=EDGE_CURVE('',#174,#176,#112,.T.);
#213=EDGE_CURVE('',#177,#177,#33,.T.);
#214=EDGE_CURVE('',#176,#178,#113,.T.);
#215=EDGE_CURVE('',#175,#178,#114,.T.);
#216=EDGE_CURVE('',#177,#179,#115,.T.);
#217=EDGE_CURVE('',#179,#179,#34,.T.);
#218=EDGE_CURVE('',#178,#170,#116,.T.);
#219=EDGE_CURVE('',#180,#181,#35,.T.);
#220=EDGE_CURVE('',#181,#182,#117,.T.);
#221=EDGE_CURVE('',#182,#183,#36,.T.);
#222=EDGE_CURVE('',#183,#180,#118,.T.);
#223=EDGE_CURVE('',#183,#184,#119,.T.);
#224=EDGE_CURVE('',#185,#184,#120,.T.);
#225=EDGE_CURVE('',#180,#185,#121,.T.);
#226=EDGE_CURVE('',#186,#182,#122,.T.);
#227=EDGE_CURVE('',#187,#186,#37,.T.);
#228=EDGE_CURVE('',#188,#187,#123,.T.);
#229=EDGE_CURVE('',#189,#188,#38,.T.);
#230=EDGE_CURVE('',#190,#189,#124,.T.);
#231=EDGE_CURVE('',#184,#190,#39,.T.);
#232=EDGE_CURVE('',#191,#191,#40,.T.);
#233=EDGE_CURVE('',#192,#193,#41,.T.);
#234=EDGE_CURVE('',#193,#187,#125,.T.);
#235=EDGE_CURVE('',#186,#192,#126,.T.);
#236=EDGE_CURVE('',#194,#193,#127,.T.);
#237=EDGE_CURVE('',#188,#194,#128,.T.);
#238=EDGE_CURVE('',#194,#195,#42,.T.);
#239=EDGE_CURVE('',#195,#189,#129,.T.);
#240=EDGE_CURVE('',#196,#185,#43,.T.);
#241=EDGE_CURVE('',#190,#196,#130,.T.);
#242=EDGE_CURVE('',#197,#197,#44,.T.);
#243=EDGE_CURVE('',#197,#198,#131,.T.);
#244=EDGE_CURVE('',#198,#198,#45,.T.);
#245=EDGE_CURVE('',#199,#199,#46,.T.);
#246=EDGE_CURVE('',#199,#200,#132,.T.);
#247=EDGE_CURVE('',#200,#200,#47,.T.);
#248=EDGE_CURVE('',#201,#201,#48,.T.);
#249=EDGE_CURVE('',#201,#202,#133,.T.);
#250=EDGE_CURVE('',#202,#202,#49,.T.);
#251=EDGE_CURVE('',#191,#203,#134,.T.);
#252=EDGE_CURVE('',#203,#203,#50,.T.);
#253=EDGE_CURVE('',#196,#195,#135,.T.);
#254=EDGE_CURVE('',#192,#181,#136,.T.);
#255=ORIENTED_EDGE('',*,*,#204,.T.);
#256=ORIENTED_EDGE('',*,*,#205,.T.);
#257=ORIENTED_EDGE('',*,*,#206,.T.);
#258=ORIENTED_EDGE('',*,*,#207,.F.);
#259=ORIENTED_EDGE('',*,*,#206,.F.);
#260=ORIENTED_EDGE('',*,*,#208,.F.);
#261=ORIENTED_EDGE('',*,*,#209,.F.);
#262=ORIENTED_EDGE('',*,*,#210,.F.);
#263=ORIENTED_EDGE('',*,*,#205,.F.);
#264=ORIENTED_EDGE('',*,*,#211,.T.);
#265=ORIENTED_EDGE('',*,*,#212,.F.);
#266=ORIENTED_EDGE('',*,*,#208,.T.);
#267=ORIENTED_EDGE('',*,*,#213,.T.);
#268=ORIENTED_EDGE('',*,*,#209,.T.);
#269=ORIENTED_EDGE('',*,*,#212,.T.);
#270=ORIENTED_EDGE('',*,*,#214,.T.);
#271=ORIENTED_EDGE('',*,*,#215,.F.);
#272=ORIENTED_EDGE('',*,*,#213,.F.);
#273=ORIENTED_EDGE('',*,*,#216,.T.);
#274=ORIENTED_EDGE('',*,*,#217,.T.);
#275=ORIENTED_EDGE('',*,*,#216,.F.);
#276=ORIENTED_EDGE('',*,*,#217,.F.);
#277=ORIENTED_EDGE('',*,*,#204,.F.);
#278=ORIENTED_EDGE('',*,*,#218,.F.);
#279=ORIENTED_EDGE('',*,*,#214,.F.);
#280=ORIENTED_EDGE('',*,*,#211,.F.);
#281=ORIENTED_EDGE('',*,*,#219,.T.);
#282=ORIENTED_EDGE('',*,*,#220,.T.);
#283=ORIENTED_EDGE('',*,*,#221,.T.);
#284=ORIENTED_EDGE('',*,*,#222,.T.);
#285=ORIENTED_EDGE('',*,*,#222,.F.);
#286=ORIENTED_EDGE('',*,*,#223,.T.);
#287=ORIENTED_EDGE('',*,*,#224,.F.);
#288=ORIENTED_EDGE('',*,*,#225,.F.);
#289=ORIENTED_EDGE('',*,*,#221,.F.);
#290=ORIENTED_EDGE('',*,*,#226,.F.);
#291=ORIENTED_EDGE('',*,*,#227,.F.);
#292=ORIENTED_EDGE('',*,*,#228,.F.);
#293=ORIENTED_EDGE('',*,*,#229,.F.);
#294=ORIENTED_EDGE('',*,*,#230,.F.);
#295=ORIENTED_EDGE('',*,*,#231,.F.);
#296=ORIENTED_EDGE('',*,*,#223,.F.);
#297=ORIENTED_EDGE('',*,*,#232,.T.);
#298=ORIENTED_EDGE('',*,*,#233,.T.);
#299=ORIENTED_EDGE('',*,*,#234,.T.);
#300=ORIENTED_EDGE('',*,*,#227,.T.);
#301=ORIENTED_EDGE('',*,*,#235,.T.);
#302=ORIENTED_EDGE('',*,*,#234,.F.);
#303=ORIENTED_EDGE('',*,*,#236,.F.);
#304=ORIENTED_EDGE('',*,*,#237,.F.);
#305=ORIENTED_EDGE('',*,*,#228,.T.);
#306=ORIENTED_EDGE('',*,*,#238,.T.);
#307=ORIENTED_EDGE('',*,*,#239,.T.);
#308=ORIENTED_EDGE('',*,*,#229,.T.);
#309=ORIENTED_EDGE('',*,*,#237,.T.);
#310=ORIENTED_EDGE('',*,*,#240,.T.);
#311=ORIENTED_EDGE('',*,*,#224,.T.);
#312=ORIENTED_EDGE('',*,*,#231,.T.);
#313=ORIENTED_EDGE('',*,*,#241,.T.);
#314=ORIENTED_EDGE('',*,*,#242,.F.);
#315=ORIENTED_EDGE('',*,*,#243,.T.);
#316=ORIENTED_EDGE('',*,*,#244,.F.);
#317=ORIENTED_EDGE('',*,*,#243,.F.);
#318=ORIENTED_EDGE('',*,*,#245,.F.);
#319=ORIENTED_EDGE('',*,*,#246,.T.);
#320=ORIENTED_EDGE('',*,*,#247,.F.);
#321=ORIENTED_EDGE('',*,*,#246,.F.);
#322=ORIENTED_EDGE('',*,*,#248,.F.);
#323=ORIENTED_EDGE('',*,*,#249,.T.);
#324=ORIENTED_EDGE('',*,*,#250,.F.);
#325=ORIENTED_EDGE('',*,*,#249,.F.);
#326=ORIENTED_EDGE('',*,*,#232,.F.);
#327=ORIENTED_EDGE('',*,*,#251,.T.);
#328=ORIENTED_EDGE('',*,*,#252,.T.);
#329=ORIENTED_EDGE('',*,*,#251,.F.);
#330=ORIENTED_EDGE('',*,*,#252,.F.);
#331=ORIENTED_EDGE('',*,*,#242,.T.);
#332=ORIENTED_EDGE('',*,*,#245,.T.);
#333=ORIENTED_EDGE('',*,*,#248,.T.);
#334=ORIENTED_EDGE('',*,*,#239,.F.);
#335=ORIENTED_EDGE('',*,*,#253,.F.);
#336=ORIENTED_EDGE('',*,*,#241,.F.);
#337=ORIENTED_EDGE('',*,*,#230,.T.);
#338=ORIENTED_EDGE('',*,*,#220,.F.);
#339=ORIENTED_EDGE('',*,*,#254,.F.);
#340=ORIENTED_EDGE('',*,*,#235,.F.);
#341=ORIENTED_EDGE('',*,*,#226,.T.);
#342=ORIENTED_EDGE('',*,*,#219,.F.);
#343=ORIENTED_EDGE('',*,*,#225,.T.);
#344=ORIENTED_EDGE('',*,*,#240,.F.);
#345=ORIENTED_EDGE('',*,*,#253,.T.);
#346=ORIENTED_EDGE('',*,*,#238,.F.);
#347=ORIENTED_EDGE('',*,*,#236,.T.);
#348=ORIENTED_EDGE('',*,*,#233,.F.);
#349=ORIENTED_EDGE('',*,*,#254,.T.);
#350=ORIENTED_EDGE('',*,*,#215,.T.);
#351=ORIENTED_EDGE('',*,*,#218,.T.);
#352=ORIENTED_EDGE('',*,*,#207,.T.);
#353=ORIENTED_EDGE('',*,*,#210,.T.);
#354=ORIENTED_EDGE('',*,*,#244,.T.);
#355=ORIENTED_EDGE('',*,*,#247,.T.);
#356=ORIENTED_EDGE('',*,*,#250,.T.);
#357=PLANE('',#412);
#358=PLANE('',#413);
#359=PLANE('',#414);
#360=PLANE('',#416);
#361=PLANE('',#419);
#362=PLANE('',#420);
#363=PLANE('',#424);
#364=PLANE('',#425);
#365=PLANE('',#432);
#366=PLANE('',#448);
#367=PLANE('',#449);
#368=PLANE('',#450);
#369=PLANE('',#451);
#370=ADVANCED_FACE('',(#51),#357,.T.);
#371=ADVANCED_FACE('',(#52),#358,.T.);
#372=ADVANCED_FACE('',(#53,#24),#359,.T.);
#373=ADVANCED_FACE('',(#54),#360,.T.);
#374=ADVANCED_FACE('',(#55),#15,.F.);
#375=ADVANCED_FACE('',(#56),#361,.T.);
#376=ADVANCED_FACE('',(#57),#362,.T.);
#377=ADVANCED_FACE('',(#58),#16,.T.);
#378=ADVANCED_FACE('',(#59),#363,.T.);
#379=ADVANCED_FACE('',(#60,#25),#364,.F.);
#380=ADVANCED_FACE('',(#61),#17,.T.);
#381=ADVANCED_FACE('',(#62),#365,.T.);
#382=ADVANCED_FACE('',(#63),#18,.T.);
#383=ADVANCED_FACE('',(#64),#19,.T.);
#384=ADVANCED_FACE('',(#65),#20,.F.);
#385=ADVANCED_FACE('',(#66),#21,.F.);
#386=ADVANCED_FACE('',(#67),#22,.F.);
#387=ADVANCED_FACE('',(#68),#23,.F.);
#388=ADVANCED_FACE('',(#69,#26,#27,#28),#366,.T.);
#389=ADVANCED_FACE('',(#70),#367,.T.);
#390=ADVANCED_FACE('',(#71),#368,.T.);
#391=ADVANCED_FACE('',(#72,#29,#30,#31,#32),#369,.T.);
#392=CLOSED_SHELL('',(#370,#371,#372,#373,#374,#375,#376,#377,#378,#379,
#380,#381,#382,#383,#384,#385,#386,#387,#388,#389,#390,#391));
#393=DERIVED_UNIT_ELEMENT(#395,1.);
#394=DERIVED_UNIT_ELEMENT(#680,3.);
#395=(
MASS_UNIT()
NAMED_UNIT(*)
SI_UNIT($,.GRAM.)
);
#396=DERIVED_UNIT((#393,#394));
#397=MEASURE_REPRESENTATION_ITEM('density measure',
POSITIVE_RATIO_MEASURE(1.06),#396);
#398=PROPERTY_DEFINITION_REPRESENTATION(#403,#400);
#399=PROPERTY_DEFINITION_REPRESENTATION(#404,#401);
#400=REPRESENTATION('material name',(#402),#677);
#401=REPRESENTATION('density',(#397),#677);
#402=DESCRIPTIVE_REPRESENTATION_ITEM('ABS Plastic','ABS Plastic');
#403=PROPERTY_DEFINITION('material property','material name',#687);
#404=PROPERTY_DEFINITION('material property','density of part',#687);
#405=DATE_TIME_ROLE('creation_date');
#406=APPLIED_DATE_AND_TIME_ASSIGNMENT(#407,#405,(#687));
#407=DATE_AND_TIME(#408,#409);
#408=CALENDAR_DATE(2025,5,11);
#409=LOCAL_TIME(0,0,0.,#410);
#410=COORDINATED_UNIVERSAL_TIME_OFFSET(0,0,.BEHIND.);
#411=AXIS2_PLACEMENT_3D('placement',#567,#452,#453);
#412=AXIS2_PLACEMENT_3D('',#568,#454,#455);
#413=AXIS2_PLACEMENT_3D('',#577,#460,#461);
#414=AXIS2_PLACEMENT_3D('',#583,#465,#466);
#415=AXIS2_PLACEMENT_3D('',#588,#469,#470);
#416=AXIS2_PLACEMENT_3D('',#589,#471,#472);
#417=AXIS2_PLACEMENT_3D('',#593,#475,#476);
#418=AXIS2_PLACEMENT_3D('',#596,#478,#479);
#419=AXIS2_PLACEMENT_3D('',#597,#480,#481);
#420=AXIS2_PLACEMENT_3D('',#598,#482,#483);
#421=AXIS2_PLACEMENT_3D('',#600,#485,#486);
#422=AXIS2_PLACEMENT_3D('',#603,#487,#488);
#423=AXIS2_PLACEMENT_3D('',#607,#490,#491);
#424=AXIS2_PLACEMENT_3D('',#609,#493,#494);
#425=AXIS2_PLACEMENT_3D('',#615,#498,#499);
#426=AXIS2_PLACEMENT_3D('',#619,#501,#502);
#427=AXIS2_PLACEMENT_3D('',#623,#504,#505);
#428=AXIS2_PLACEMENT_3D('',#626,#507,#508);
#429=AXIS2_PLACEMENT_3D('',#628,#509,#510);
#430=AXIS2_PLACEMENT_3D('',#629,#511,#512);
#431=AXIS2_PLACEMENT_3D('',#632,#513,#514);
#432=AXIS2_PLACEMENT_3D('',#635,#517,#518);
#433=AXIS2_PLACEMENT_3D('',#639,#521,#522);
#434=AXIS2_PLACEMENT_3D('',#641,#523,#524);
#435=AXIS2_PLACEMENT_3D('',#643,#526,#527);
#436=AXIS2_PLACEMENT_3D('',#645,#528,#529);
#437=AXIS2_PLACEMENT_3D('',#647,#531,#532);
#438=AXIS2_PLACEMENT_3D('',#649,#533,#534);
#439=AXIS2_PLACEMENT_3D('',#652,#536,#537);
#440=AXIS2_PLACEMENT_3D('',#653,#538,#539);
#441=AXIS2_PLACEMENT_3D('',#655,#540,#541);
#442=AXIS2_PLACEMENT_3D('',#658,#543,#544);
#443=AXIS2_PLACEMENT_3D('',#659,#545,#546);
#444=AXIS2_PLACEMENT_3D('',#661,#547,#548);
#445=AXIS2_PLACEMENT_3D('',#664,#550,#551);
#446=AXIS2_PLACEMENT_3D('',#665,#552,#553);
#447=AXIS2_PLACEMENT_3D('',#668,#555,#556);
#448=AXIS2_PLACEMENT_3D('',#669,#557,#558);
#449=AXIS2_PLACEMENT_3D('',#670,#559,#560);
#450=AXIS2_PLACEMENT_3D('',#672,#562,#563);
#451=AXIS2_PLACEMENT_3D('',#674,#565,#566);
#452=DIRECTION('axis',(0.,0.,1.));
#453=DIRECTION('refdir',(1.,0.,0.));
#454=DIRECTION('center_axis',(0.707106781186548,0.,0.707106781186548));
#455=DIRECTION('ref_axis',(0.707106781186548,0.,-0.707106781186548));
#456=DIRECTION('',(-0.707106781186548,0.,0.707106781186548));
#457=DIRECTION('',(0.,-1.,0.));
#458=DIRECTION('',(0.707106781186548,8.83177008009624E-17,-0.707106781186548));
#459=DIRECTION('',(0.,-1.,0.));
#460=DIRECTION('center_axis',(1.2490009027033E-16,-1.,0.));
#461=DIRECTION('ref_axis',(1.,1.2490009027033E-16,0.));
#462=DIRECTION('',(1.,1.2490009027033E-16,0.));
#463=DIRECTION('',(0.707106781186548,8.83177008009624E-17,0.707106781186548));
#464=DIRECTION('',(-1.,-1.2490009027033E-16,0.));
#465=DIRECTION('center_axis',(0.,0.,1.));
#466=DIRECTION('ref_axis',(1.,0.,0.));
#467=DIRECTION('',(-1.,0.,0.));
#468=DIRECTION('',(0.,1.,0.));
#469=DIRECTION('center_axis',(0.,0.,-1.));
#470=DIRECTION('ref_axis',(1.,0.,0.));
#471=DIRECTION('center_axis',(-0.707106781186548,0.,0.707106781186548));
#472=DIRECTION('ref_axis',(0.707106781186548,0.,0.707106781186548));
#473=DIRECTION('',(-0.707106781186548,0.,-0.707106781186548));
#474=DIRECTION('',(0.,1.,0.));
#475=DIRECTION('center_axis',(0.,0.,-1.));
#476=DIRECTION('ref_axis',(1.,0.,0.));
#477=DIRECTION('',(0.,0.,-1.));
#478=DIRECTION('center_axis',(0.,0.,-1.));
#479=DIRECTION('ref_axis',(1.,0.,0.));
#480=DIRECTION('center_axis',(0.,0.,1.));
#481=DIRECTION('ref_axis',(1.,0.,0.));
#482=DIRECTION('center_axis',(0.,1.,0.));
#483=DIRECTION('ref_axis',(-1.,0.,0.));
#484=DIRECTION('',(1.,0.,0.));
#485=DIRECTION('center_axis',(0.,0.,1.));
#486=DIRECTION('ref_axis',(0.707106781186547,-0.707106781186548,0.));
#487=DIRECTION('center_axis',(0.,0.,-1.));
#488=DIRECTION('ref_axis',(0.707106781186547,-0.707106781186548,0.));
#489=DIRECTION('',(0.,0.,-1.));
#490=DIRECTION('center_axis',(0.,0.,1.));
#491=DIRECTION('ref_axis',(0.707106781186547,-0.707106781186548,0.));
#492=DIRECTION('',(0.,0.,1.));
#493=DIRECTION('center_axis',(1.,-3.41607084500048E-16,0.));
#494=DIRECTION('ref_axis',(3.41607084500048E-16,1.,0.));
#495=DIRECTION('',(3.41607084500048E-16,1.,0.));
#496=DIRECTION('',(0.,0.,-1.));
#497=DIRECTION('',(3.41607084500048E-16,1.,0.));
#498=DIRECTION('center_axis',(0.,0.,1.));
#499=DIRECTION('ref_axis',(1.,0.,0.));
#500=DIRECTION('',(1.,-5.12410626750072E-16,0.));
#501=DIRECTION('center_axis',(0.,0.,1.));
#502=DIRECTION('ref_axis',(-0.707106781186548,-0.707106781186547,0.));
#503=DIRECTION('',(0.,-1.,0.));
#504=DIRECTION('center_axis',(0.,0.,1.));
#505=DIRECTION('ref_axis',(-0.707106781186547,0.707106781186548,0.));
#506=DIRECTION('',(-1.,3.41607084500048E-16,0.));
#507=DIRECTION('center_axis',(0.,0.,1.));
#508=DIRECTION('ref_axis',(0.707106781186548,0.707106781186547,0.));
#509=DIRECTION('center_axis',(0.,0.,1.));
#510=DIRECTION('ref_axis',(-1.,0.,0.));
#511=DIRECTION('center_axis',(0.,0.,1.));
#512=DIRECTION('ref_axis',(-0.707106781186548,-0.707106781186547,0.));
#513=DIRECTION('center_axis',(0.,0.,-1.));
#514=DIRECTION('ref_axis',(-0.707106781186548,-0.707106781186547,0.));
#515=DIRECTION('',(0.,0.,-1.));
#516=DIRECTION('',(0.,0.,1.));
#517=DIRECTION('center_axis',(-1.,0.,0.));
#518=DIRECTION('ref_axis',(0.,-1.,0.));
#519=DIRECTION('',(0.,-1.,0.));
#520=DIRECTION('',(0.,0.,1.));
#521=DIRECTION('center_axis',(0.,0.,1.));
#522=DIRECTION('ref_axis',(-0.707106781186547,0.707106781186548,0.));
#523=DIRECTION('center_axis',(0.,0.,-1.));
#524=DIRECTION('ref_axis',(-0.707106781186547,0.707106781186548,0.));
#525=DIRECTION('',(0.,0.,-1.));
#526=DIRECTION('center_axis',(0.,0.,1.));
#527=DIRECTION('ref_axis',(0.707106781186548,0.707106781186547,0.));
#528=DIRECTION('center_axis',(0.,0.,-1.));
#529=DIRECTION('ref_axis',(0.707106781186548,0.707106781186547,0.));
#530=DIRECTION('',(0.,0.,1.));
#531=DIRECTION('center_axis',(0.,0.,1.));
#532=DIRECTION('ref_axis',(-1.,0.,0.));
#533=DIRECTION('center_axis',(0.,0.,1.));
#534=DIRECTION('ref_axis',(-1.,0.,0.));
#535=DIRECTION('',(0.,0.,1.));
#536=DIRECTION('center_axis',(0.,0.,-1.));
#537=DIRECTION('ref_axis',(-1.,0.,0.));
#538=DIRECTION('center_axis',(0.,0.,1.));
#539=DIRECTION('ref_axis',(-1.,0.,0.));
#540=DIRECTION('center_axis',(0.,0.,1.));
#541=DIRECTION('ref_axis',(-1.,0.,0.));
#542=DIRECTION('',(0.,0.,1.));
#543=DIRECTION('center_axis',(0.,0.,-1.));
#544=DIRECTION('ref_axis',(-1.,0.,0.));
#545=DIRECTION('center_axis',(0.,0.,1.));
#546=DIRECTION('ref_axis',(-1.,0.,0.));
#547=DIRECTION('center_axis',(0.,0.,1.));
#548=DIRECTION('ref_axis',(-1.,0.,0.));
#549=DIRECTION('',(0.,0.,1.));
#550=DIRECTION('center_axis',(0.,0.,-1.));
#551=DIRECTION('ref_axis',(-1.,0.,0.));
#552=DIRECTION('center_axis',(0.,0.,1.));
#553=DIRECTION('ref_axis',(-1.,0.,0.));
#554=DIRECTION('',(0.,0.,1.));
#555=DIRECTION('center_axis',(0.,0.,1.));
#556=DIRECTION('ref_axis',(-1.,0.,0.));
#557=DIRECTION('center_axis',(0.,0.,-1.));
#558=DIRECTION('ref_axis',(-1.,0.,0.));
#559=DIRECTION('center_axis',(3.41607084500048E-16,1.,0.));
#560=DIRECTION('ref_axis',(-1.,3.41607084500048E-16,0.));
#561=DIRECTION('',(-1.,3.41607084500048E-16,0.));
#562=DIRECTION('center_axis',(-5.12410626750072E-16,-1.,0.));
#563=DIRECTION('ref_axis',(1.,-5.12410626750072E-16,0.));
#564=DIRECTION('',(1.,-5.12410626750072E-16,0.));
#565=DIRECTION('center_axis',(0.,0.,1.));
#566=DIRECTION('ref_axis',(1.,0.,0.));
#567=CARTESIAN_POINT('',(0.,0.,0.));
#568=CARTESIAN_POINT('Origin',(7.5,3.25,7.5));
#569=CARTESIAN_POINT('',(10.,7.,5.));
#570=CARTESIAN_POINT('',(5.,7.,10.));
#571=CARTESIAN_POINT('',(8.75,7.,6.25));
#572=CARTESIAN_POINT('',(5.,2.,10.));
#573=CARTESIAN_POINT('',(5.,3.25,10.));
#574=CARTESIAN_POINT('',(10.,2.,5.));
#575=CARTESIAN_POINT('',(3.75,2.,11.25));
#576=CARTESIAN_POINT('',(10.,0.999999999999998,5.));
#577=CARTESIAN_POINT('Origin',(-10.,2.,5.));
#578=CARTESIAN_POINT('',(-5.,2.,10.));
#579=CARTESIAN_POINT('',(-10.,2.,10.));
#580=CARTESIAN_POINT('',(-10.,2.,5.));
#581=CARTESIAN_POINT('',(-8.75,2.,6.25));
#582=CARTESIAN_POINT('',(-5.,2.,5.));
#583=CARTESIAN_POINT('Origin',(0.,4.5,10.));
#584=CARTESIAN_POINT('',(-5.,7.,10.));
#585=CARTESIAN_POINT('',(10.,7.,10.));
#586=CARTESIAN_POINT('',(-5.,5.75,10.));
#587=CARTESIAN_POINT('',(-1.5,4.5,10.));
#588=CARTESIAN_POINT('Origin',(0.,4.5,10.));
#589=CARTESIAN_POINT('Origin',(-7.5,5.75,7.5));
#590=CARTESIAN_POINT('',(-10.,7.,5.));
#591=CARTESIAN_POINT('',(-3.75,7.,11.25));
#592=CARTESIAN_POINT('',(-10.,3.5,5.));
#593=CARTESIAN_POINT('Origin',(0.,4.5,10.));
#594=CARTESIAN_POINT('',(-1.5,4.5,5.));
#595=CARTESIAN_POINT('',(-1.5,4.5,10.));
#596=CARTESIAN_POINT('Origin',(0.,4.5,5.));
#597=CARTESIAN_POINT('Origin',(0.,4.5,5.));
#598=CARTESIAN_POINT('Origin',(10.,7.,5.));
#599=CARTESIAN_POINT('',(5.,7.,5.));
#600=CARTESIAN_POINT('Origin',(3.,-3.,0.));
#601=CARTESIAN_POINT('',(13.,-3.00000000000001,5.));
#602=CARTESIAN_POINT('',(3.,-13.,5.));
#603=CARTESIAN_POINT('Origin',(3.,-3.,5.));
#604=CARTESIAN_POINT('',(3.,-13.,0.));
#605=CARTESIAN_POINT('',(3.,-13.,0.));
#606=CARTESIAN_POINT('',(13.,-3.00000000000001,0.));
#607=CARTESIAN_POINT('Origin',(3.,-3.,0.));
#608=CARTESIAN_POINT('',(13.,-3.00000000000001,0.));
#609=CARTESIAN_POINT('Origin',(13.,-13.,0.));
#610=CARTESIAN_POINT('',(13.,2.99999999999999,0.));
#611=CARTESIAN_POINT('',(13.,-13.,0.));
#612=CARTESIAN_POINT('',(13.,2.99999999999999,5.));
#613=CARTESIAN_POINT('',(13.,2.99999999999999,0.));
#614=CARTESIAN_POINT('',(13.,-13.,5.));
#615=CARTESIAN_POINT('Origin',(3.33066907387547E-15,-4.44089209850063E-15,
0.));
#616=CARTESIAN_POINT('',(-3.00000000000001,-13.,0.));
#617=CARTESIAN_POINT('',(-13.,-13.,0.));
#618=CARTESIAN_POINT('',(-13.,-3.,0.));
#619=CARTESIAN_POINT('Origin',(-3.,-3.,0.));
#620=CARTESIAN_POINT('',(-13.,3.,0.));
#621=CARTESIAN_POINT('',(-13.,13.,0.));
#622=CARTESIAN_POINT('',(-3.,13.,0.));
#623=CARTESIAN_POINT('Origin',(-3.,3.,0.));
#624=CARTESIAN_POINT('',(3.00000000000001,13.,0.));
#625=CARTESIAN_POINT('',(13.,13.,0.));
#626=CARTESIAN_POINT('Origin',(3.00000000000001,2.99999999999999,0.));
#627=CARTESIAN_POINT('',(10.5,1.28587913910472E-15,0.));
#628=CARTESIAN_POINT('Origin',(0.,0.,0.));
#629=CARTESIAN_POINT('Origin',(-3.,-3.,0.));
#630=CARTESIAN_POINT('',(-3.00000000000001,-13.,5.));
#631=CARTESIAN_POINT('',(-13.,-3.,5.));
#632=CARTESIAN_POINT('Origin',(-3.,-3.,5.));
#633=CARTESIAN_POINT('',(-13.,-3.,0.));
#634=CARTESIAN_POINT('',(-3.00000000000001,-13.,0.));
#635=CARTESIAN_POINT('Origin',(-13.,13.,0.));
#636=CARTESIAN_POINT('',(-13.,3.,5.));
#637=CARTESIAN_POINT('',(-13.,13.,5.));
#638=CARTESIAN_POINT('',(-13.,3.,0.));
#639=CARTESIAN_POINT('Origin',(-3.,3.,0.));
#640=CARTESIAN_POINT('',(-3.,13.,5.));
#641=CARTESIAN_POINT('Origin',(-3.,3.,5.));
#642=CARTESIAN_POINT('',(-3.,13.,0.));
#643=CARTESIAN_POINT('Origin',(3.00000000000001,2.99999999999999,0.));
#644=CARTESIAN_POINT('',(3.00000000000001,13.,5.));
#645=CARTESIAN_POINT('Origin',(3.00000000000001,2.99999999999999,5.));
#646=CARTESIAN_POINT('',(3.00000000000001,13.,0.));
#647=CARTESIAN_POINT('Origin',(-6.95,0.,2.34));
#648=CARTESIAN_POINT('',(-5.97,1.20015386316441E-16,2.34));
#649=CARTESIAN_POINT('Origin',(-6.95,0.,2.34));
#650=CARTESIAN_POINT('',(-5.97,-1.20015386316441E-16,5.));
#651=CARTESIAN_POINT('',(-5.97,1.20015386316441E-16,2.34));
#652=CARTESIAN_POINT('Origin',(-6.95,0.,5.));
#653=CARTESIAN_POINT('Origin',(0.,0.,2.34));
#654=CARTESIAN_POINT('',(1.5,1.83697019872103E-16,2.34));
#655=CARTESIAN_POINT('Origin',(0.,0.,2.34));
#656=CARTESIAN_POINT('',(1.5,-1.83697019872103E-16,5.));
#657=CARTESIAN_POINT('',(1.5,1.83697019872103E-16,2.34));
#658=CARTESIAN_POINT('Origin',(0.,0.,5.));
#659=CARTESIAN_POINT('Origin',(6.95,0.,2.34));
#660=CARTESIAN_POINT('',(7.93,1.20015386316441E-16,2.34));
#661=CARTESIAN_POINT('Origin',(6.95,0.,2.34));
#662=CARTESIAN_POINT('',(7.93,-1.20015386316441E-16,5.));
#663=CARTESIAN_POINT('',(7.93,1.20015386316441E-16,2.34));
#664=CARTESIAN_POINT('Origin',(6.95,0.,5.));
#665=CARTESIAN_POINT('Origin',(0.,0.,0.));
#666=CARTESIAN_POINT('',(10.5,1.28587913910472E-15,2.34));
#667=CARTESIAN_POINT('',(10.5,1.28587913910472E-15,0.));
#668=CARTESIAN_POINT('Origin',(0.,0.,2.34));
#669=CARTESIAN_POINT('Origin',(0.,0.,2.34));
#670=CARTESIAN_POINT('Origin',(13.,13.,0.));
#671=CARTESIAN_POINT('',(13.,13.,5.));
#672=CARTESIAN_POINT('Origin',(-13.,-13.,0.));
#673=CARTESIAN_POINT('',(-13.,-13.,5.));
#674=CARTESIAN_POINT('Origin',(4.44089209850063E-15,-4.44089209850063E-15,
5.));
#675=UNCERTAINTY_MEASURE_WITH_UNIT(LENGTH_MEASURE(0.01),#679,
'DISTANCE_ACCURACY_VALUE',
'Maximum model space distance between geometric entities at asserted c
onnectivities');
#676=UNCERTAINTY_MEASURE_WITH_UNIT(LENGTH_MEASURE(0.01),#679,
'DISTANCE_ACCURACY_VALUE',
'Maximum model space distance between geometric entities at asserted c
onnectivities');
#677=(
GEOMETRIC_REPRESENTATION_CONTEXT(3)
GLOBAL_UNCERTAINTY_ASSIGNED_CONTEXT((#675))
GLOBAL_UNIT_ASSIGNED_CONTEXT((#679,#681,#682))
REPRESENTATION_CONTEXT('','3D')
);
#678=(
GEOMETRIC_REPRESENTATION_CONTEXT(3)
GLOBAL_UNCERTAINTY_ASSIGNED_CONTEXT((#676))
GLOBAL_UNIT_ASSIGNED_CONTEXT((#679,#681,#682))
REPRESENTATION_CONTEXT('','3D')
);
#679=(
LENGTH_UNIT()
NAMED_UNIT(*)
SI_UNIT(.MILLI.,.METRE.)
);
#680=(
LENGTH_UNIT()
NAMED_UNIT(*)
SI_UNIT(.CENTI.,.METRE.)
);
#681=(
NAMED_UNIT(*)
PLANE_ANGLE_UNIT()
SI_UNIT($,.RADIAN.)
);
#682=(
NAMED_UNIT(*)
SI_UNIT($,.STERADIAN.)
SOLID_ANGLE_UNIT()
);
#683=SHAPE_DEFINITION_REPRESENTATION(#684,#685);
#684=PRODUCT_DEFINITION_SHAPE('',$,#687);
#685=SHAPE_REPRESENTATION('',(#411),#677);
#686=PRODUCT_DEFINITION_CONTEXT('part definition',#691,'design');
#687=PRODUCT_DEFINITION('l_6','l_6',#688,#686);
#688=PRODUCT_DEFINITION_FORMATION('',$,#693);
#689=PRODUCT_RELATED_PRODUCT_CATEGORY('l_6','l_6',(#693));
#690=APPLICATION_PROTOCOL_DEFINITION('international standard',
'automotive_design',2009,#691);
#691=APPLICATION_CONTEXT(
'Core Data for Automotive Mechanical Design Process');
#692=PRODUCT_CONTEXT('part definition',#691,'mechanical');
#693=PRODUCT('l_6','l_6',$,(#692));
#694=PRESENTATION_STYLE_ASSIGNMENT((#695));
#695=SURFACE_STYLE_USAGE(.BOTH.,#698);
#696=SURFACE_STYLE_RENDERING_WITH_PROPERTIES($,#702,(#697));
#697=SURFACE_STYLE_TRANSPARENT(0.);
#698=SURFACE_SIDE_STYLE('',(#699,#696));
#699=SURFACE_STYLE_FILL_AREA(#700);
#700=FILL_AREA_STYLE('',(#701));
#701=FILL_AREA_STYLE_COLOUR('',#702);
#702=COLOUR_RGB('',0.92156862745098,0.92156862745098,0.92156862745098);
ENDSEC;
END-ISO-10303-21;
