ISO-10303-21;
HEADER;
/* Generated by software containing ST-Developer
 * from STEP Tools, Inc. (www.steptools.com) 
 */

FILE_DESCRIPTION(
/* description */ (''),
/* implementation_level */ '2;1');

FILE_NAME(
/* name */ 
'C:\\Users\\eyome\\OneDrive\\Documents\\Inventor\\6DOFArmV3\\\\base_ip
t_ed578c6.STEP',
/* time_stamp */ '2025-09-17T16:20:02+03:00',
/* author */ ('eyome'),
/* organization */ (''),
/* preprocessor_version */ 'ST-DEVELOPER v18.1',
/* originating_system */ 'Autodesk Inventor 2021',
/* authorisation */ '');

FILE_SCHEMA (('AUTOMOTIVE_DESIGN { 1 0 10303 214 3 1 1 }'));
ENDSEC;

DATA;
#10=MECHANICAL_DESIGN_GEOMETRIC_PRESENTATION_REPRESENTATION('',(#239,#240,
#241,#242,#243,#244,#245,#246,#247,#248,#249,#250,#251,#252,#253),#450);
#11=SHAPE_REPRESENTATION_RELATIONSHIP('SRR','None',#457,#12);
#12=ADVANCED_BREP_SHAPE_REPRESENTATION('',(#13),#449);
#13=MANIFOLD_SOLID_BREP('Solid1',#268);
#14=CYLINDRICAL_SURFACE('',#296,10.);
#15=CYLINDRICAL_SURFACE('',#303,25.);
#16=CYLINDRICAL_SURFACE('',#305,25.);
#17=FACE_BOUND('',#41,.T.);
#18=CIRCLE('',#291,25.);
#19=CIRCLE('',#292,25.);
#20=CIRCLE('',#293,10.);
#21=CIRCLE('',#297,10.);
#22=CIRCLE('',#304,25.);
#23=CIRCLE('',#306,25.);
#24=FACE_OUTER_BOUND('',#38,.T.);
#25=FACE_OUTER_BOUND('',#39,.T.);
#26=FACE_OUTER_BOUND('',#40,.T.);
#27=FACE_OUTER_BOUND('',#42,.T.);
#28=FACE_OUTER_BOUND('',#43,.T.);
#29=FACE_OUTER_BOUND('',#44,.T.);
#30=FACE_OUTER_BOUND('',#45,.T.);
#31=FACE_OUTER_BOUND('',#46,.T.);
#32=FACE_OUTER_BOUND('',#47,.T.);
#33=FACE_OUTER_BOUND('',#48,.T.);
#34=FACE_OUTER_BOUND('',#49,.T.);
#35=FACE_OUTER_BOUND('',#50,.T.);
#36=FACE_OUTER_BOUND('',#51,.T.);
#37=FACE_OUTER_BOUND('',#52,.T.);
#38=EDGE_LOOP('',(#162,#163,#164,#165));
#39=EDGE_LOOP('',(#166,#167,#168,#169,#170));
#40=EDGE_LOOP('',(#171,#172,#173,#174,#175,#176,#177,#178));
#41=EDGE_LOOP('',(#179));
#42=EDGE_LOOP('',(#180,#181,#182,#183));
#43=EDGE_LOOP('',(#184,#185,#186,#187,#188));
#44=EDGE_LOOP('',(#189,#190,#191,#192));
#45=EDGE_LOOP('',(#193));
#46=EDGE_LOOP('',(#194,#195,#196,#197,#198));
#47=EDGE_LOOP('',(#199,#200,#201,#202));
#48=EDGE_LOOP('',(#203,#204,#205,#206,#207));
#49=EDGE_LOOP('',(#208,#209,#210,#211));
#50=EDGE_LOOP('',(#212,#213,#214,#215));
#51=EDGE_LOOP('',(#216,#217,#218,#219));
#52=EDGE_LOOP('',(#220,#221,#222,#223,#224,#225,#226,#227));
#53=LINE('',#381,#80);
#54=LINE('',#383,#81);
#55=LINE('',#385,#82);
#56=LINE('',#386,#83);
#57=LINE('',#389,#84);
#58=LINE('',#391,#85);
#59=LINE('',#393,#86);
#60=LINE('',#394,#87);
#61=LINE('',#397,#88);
#62=LINE('',#401,#89);
#63=LINE('',#403,#90);
#64=LINE('',#405,#91);
#65=LINE('',#411,#92);
#66=LINE('',#413,#93);
#67=LINE('',#414,#94);
#68=LINE('',#417,#95);
#69=LINE('',#419,#96);
#70=LINE('',#420,#97);
#71=LINE('',#423,#98);
#72=LINE('',#428,#99);
#73=LINE('',#430,#100);
#74=LINE('',#431,#101);
#75=LINE('',#433,#102);
#76=LINE('',#436,#103);
#77=LINE('',#438,#104);
#78=LINE('',#439,#105);
#79=LINE('',#441,#106);
#80=VECTOR('',#312,10.);
#81=VECTOR('',#313,10.);
#82=VECTOR('',#314,10.);
#83=VECTOR('',#315,10.);
#84=VECTOR('',#318,10.);
#85=VECTOR('',#319,10.);
#86=VECTOR('',#320,10.);
#87=VECTOR('',#321,10.);
#88=VECTOR('',#324,10.);
#89=VECTOR('',#327,10.);
#90=VECTOR('',#328,10.);
#91=VECTOR('',#329,10.);
#92=VECTOR('',#336,10.);
#93=VECTOR('',#337,10.);
#94=VECTOR('',#338,10.);
#95=VECTOR('',#341,10.);
#96=VECTOR('',#342,10.);
#97=VECTOR('',#343,10.);
#98=VECTOR('',#346,10.);
#99=VECTOR('',#353,10.);
#100=VECTOR('',#354,10.);
#101=VECTOR('',#355,10.);
#102=VECTOR('',#358,10.);
#103=VECTOR('',#361,10.);
#104=VECTOR('',#362,10.);
#105=VECTOR('',#363,10.);
#106=VECTOR('',#366,10.);
#107=VERTEX_POINT('',#379);
#108=VERTEX_POINT('',#380);
#109=VERTEX_POINT('',#382);
#110=VERTEX_POINT('',#384);
#111=VERTEX_POINT('',#388);
#112=VERTEX_POINT('',#390);
#113=VERTEX_POINT('',#392);
#114=VERTEX_POINT('',#396);
#115=VERTEX_POINT('',#398);
#116=VERTEX_POINT('',#400);
#117=VERTEX_POINT('',#402);
#118=VERTEX_POINT('',#404);
#119=VERTEX_POINT('',#407);
#120=VERTEX_POINT('',#410);
#121=VERTEX_POINT('',#412);
#122=VERTEX_POINT('',#416);
#123=VERTEX_POINT('',#418);
#124=VERTEX_POINT('',#422);
#125=VERTEX_POINT('',#427);
#126=VERTEX_POINT('',#429);
#127=VERTEX_POINT('',#435);
#128=VERTEX_POINT('',#437);
#129=EDGE_CURVE('',#107,#108,#53,.T.);
#130=EDGE_CURVE('',#108,#109,#54,.T.);
#131=EDGE_CURVE('',#109,#110,#55,.T.);
#132=EDGE_CURVE('',#110,#107,#56,.T.);
#133=EDGE_CURVE('',#111,#109,#57,.T.);
#134=EDGE_CURVE('',#112,#111,#58,.T.);
#135=EDGE_CURVE('',#113,#112,#59,.T.);
#136=EDGE_CURVE('',#110,#113,#60,.T.);
#137=EDGE_CURVE('',#108,#114,#61,.T.);
#138=EDGE_CURVE('',#114,#115,#18,.T.);
#139=EDGE_CURVE('',#115,#116,#62,.T.);
#140=EDGE_CURVE('',#117,#116,#63,.T.);
#141=EDGE_CURVE('',#117,#118,#64,.T.);
#142=EDGE_CURVE('',#118,#111,#19,.T.);
#143=EDGE_CURVE('',#119,#119,#20,.T.);
#144=EDGE_CURVE('',#120,#117,#65,.T.);
#145=EDGE_CURVE('',#116,#121,#66,.T.);
#146=EDGE_CURVE('',#121,#120,#67,.T.);
#147=EDGE_CURVE('',#120,#122,#68,.T.);
#148=EDGE_CURVE('',#123,#122,#69,.T.);
#149=EDGE_CURVE('',#118,#123,#70,.T.);
#150=EDGE_CURVE('',#119,#124,#71,.T.);
#151=EDGE_CURVE('',#124,#124,#21,.T.);
#152=EDGE_CURVE('',#125,#115,#72,.T.);
#153=EDGE_CURVE('',#126,#125,#73,.T.);
#154=EDGE_CURVE('',#121,#126,#74,.T.);
#155=EDGE_CURVE('',#122,#126,#75,.T.);
#156=EDGE_CURVE('',#107,#127,#76,.T.);
#157=EDGE_CURVE('',#128,#127,#77,.T.);
#158=EDGE_CURVE('',#114,#128,#78,.T.);
#159=EDGE_CURVE('',#127,#113,#79,.T.);
#160=EDGE_CURVE('',#123,#112,#22,.T.);
#161=EDGE_CURVE('',#128,#125,#23,.T.);
#162=ORIENTED_EDGE('',*,*,#129,.T.);
#163=ORIENTED_EDGE('',*,*,#130,.T.);
#164=ORIENTED_EDGE('',*,*,#131,.T.);
#165=ORIENTED_EDGE('',*,*,#132,.T.);
#166=ORIENTED_EDGE('',*,*,#131,.F.);
#167=ORIENTED_EDGE('',*,*,#133,.F.);
#168=ORIENTED_EDGE('',*,*,#134,.F.);
#169=ORIENTED_EDGE('',*,*,#135,.F.);
#170=ORIENTED_EDGE('',*,*,#136,.F.);
#171=ORIENTED_EDGE('',*,*,#130,.F.);
#172=ORIENTED_EDGE('',*,*,#137,.T.);
#173=ORIENTED_EDGE('',*,*,#138,.T.);
#174=ORIENTED_EDGE('',*,*,#139,.T.);
#175=ORIENTED_EDGE('',*,*,#140,.F.);
#176=ORIENTED_EDGE('',*,*,#141,.T.);
#177=ORIENTED_EDGE('',*,*,#142,.T.);
#178=ORIENTED_EDGE('',*,*,#133,.T.);
#179=ORIENTED_EDGE('',*,*,#143,.T.);
#180=ORIENTED_EDGE('',*,*,#144,.T.);
#181=ORIENTED_EDGE('',*,*,#140,.T.);
#182=ORIENTED_EDGE('',*,*,#145,.T.);
#183=ORIENTED_EDGE('',*,*,#146,.T.);
#184=ORIENTED_EDGE('',*,*,#144,.F.);
#185=ORIENTED_EDGE('',*,*,#147,.T.);
#186=ORIENTED_EDGE('',*,*,#148,.F.);
#187=ORIENTED_EDGE('',*,*,#149,.F.);
#188=ORIENTED_EDGE('',*,*,#141,.F.);
#189=ORIENTED_EDGE('',*,*,#143,.F.);
#190=ORIENTED_EDGE('',*,*,#150,.T.);
#191=ORIENTED_EDGE('',*,*,#151,.T.);
#192=ORIENTED_EDGE('',*,*,#150,.F.);
#193=ORIENTED_EDGE('',*,*,#151,.F.);
#194=ORIENTED_EDGE('',*,*,#145,.F.);
#195=ORIENTED_EDGE('',*,*,#139,.F.);
#196=ORIENTED_EDGE('',*,*,#152,.F.);
#197=ORIENTED_EDGE('',*,*,#153,.F.);
#198=ORIENTED_EDGE('',*,*,#154,.F.);
#199=ORIENTED_EDGE('',*,*,#146,.F.);
#200=ORIENTED_EDGE('',*,*,#154,.T.);
#201=ORIENTED_EDGE('',*,*,#155,.F.);
#202=ORIENTED_EDGE('',*,*,#147,.F.);
#203=ORIENTED_EDGE('',*,*,#129,.F.);
#204=ORIENTED_EDGE('',*,*,#156,.T.);
#205=ORIENTED_EDGE('',*,*,#157,.F.);
#206=ORIENTED_EDGE('',*,*,#158,.F.);
#207=ORIENTED_EDGE('',*,*,#137,.F.);
#208=ORIENTED_EDGE('',*,*,#132,.F.);
#209=ORIENTED_EDGE('',*,*,#136,.T.);
#210=ORIENTED_EDGE('',*,*,#159,.F.);
#211=ORIENTED_EDGE('',*,*,#156,.F.);
#212=ORIENTED_EDGE('',*,*,#149,.T.);
#213=ORIENTED_EDGE('',*,*,#160,.T.);
#214=ORIENTED_EDGE('',*,*,#134,.T.);
#215=ORIENTED_EDGE('',*,*,#142,.F.);
#216=ORIENTED_EDGE('',*,*,#152,.T.);
#217=ORIENTED_EDGE('',*,*,#138,.F.);
#218=ORIENTED_EDGE('',*,*,#158,.T.);
#219=ORIENTED_EDGE('',*,*,#161,.T.);
#220=ORIENTED_EDGE('',*,*,#160,.F.);
#221=ORIENTED_EDGE('',*,*,#148,.T.);
#222=ORIENTED_EDGE('',*,*,#155,.T.);
#223=ORIENTED_EDGE('',*,*,#153,.T.);
#224=ORIENTED_EDGE('',*,*,#161,.F.);
#225=ORIENTED_EDGE('',*,*,#157,.T.);
#226=ORIENTED_EDGE('',*,*,#159,.T.);
#227=ORIENTED_EDGE('',*,*,#135,.T.);
#228=PLANE('',#288);
#229=PLANE('',#289);
#230=PLANE('',#290);
#231=PLANE('',#294);
#232=PLANE('',#295);
#233=PLANE('',#298);
#234=PLANE('',#299);
#235=PLANE('',#300);
#236=PLANE('',#301);
#237=PLANE('',#302);
#238=PLANE('',#307);
#239=STYLED_ITEM('',(#467),#254);
#240=STYLED_ITEM('',(#467),#255);
#241=STYLED_ITEM('',(#467),#256);
#242=STYLED_ITEM('',(#467),#257);
#243=STYLED_ITEM('',(#467),#258);
#244=STYLED_ITEM('',(#467),#259);
#245=STYLED_ITEM('',(#467),#260);
#246=STYLED_ITEM('',(#467),#261);
#247=STYLED_ITEM('',(#467),#262);
#248=STYLED_ITEM('',(#467),#263);
#249=STYLED_ITEM('',(#467),#264);
#250=STYLED_ITEM('',(#467),#265);
#251=STYLED_ITEM('',(#467),#266);
#252=STYLED_ITEM('',(#467),#267);
#253=STYLED_ITEM('',(#466),#13);
#254=ADVANCED_FACE('',(#24),#228,.T.);
#255=ADVANCED_FACE('',(#25),#229,.T.);
#256=ADVANCED_FACE('',(#26,#17),#230,.T.);
#257=ADVANCED_FACE('',(#27),#231,.T.);
#258=ADVANCED_FACE('',(#28),#232,.T.);
#259=ADVANCED_FACE('',(#29),#14,.F.);
#260=ADVANCED_FACE('',(#30),#233,.T.);
#261=ADVANCED_FACE('',(#31),#234,.T.);
#262=ADVANCED_FACE('',(#32),#235,.T.);
#263=ADVANCED_FACE('',(#33),#236,.T.);
#264=ADVANCED_FACE('',(#34),#237,.T.);
#265=ADVANCED_FACE('',(#35),#15,.T.);
#266=ADVANCED_FACE('',(#36),#16,.T.);
#267=ADVANCED_FACE('',(#37),#238,.F.);
#268=CLOSED_SHELL('',(#254,#255,#256,#257,#258,#259,#260,#261,#262,#263,
#264,#265,#266,#267));
#269=DERIVED_UNIT_ELEMENT(#271,1.);
#270=DERIVED_UNIT_ELEMENT(#452,3.);
#271=(
MASS_UNIT()
NAMED_UNIT(*)
SI_UNIT($,.GRAM.)
);
#272=DERIVED_UNIT((#269,#270));
#273=MEASURE_REPRESENTATION_ITEM('density measure',
POSITIVE_RATIO_MEASURE(1.06),#272);
#274=PROPERTY_DEFINITION_REPRESENTATION(#279,#276);
#275=PROPERTY_DEFINITION_REPRESENTATION(#280,#277);
#276=REPRESENTATION('material name',(#278),#449);
#277=REPRESENTATION('density',(#273),#449);
#278=DESCRIPTIVE_REPRESENTATION_ITEM('ABS Plastic','ABS Plastic');
#279=PROPERTY_DEFINITION('material property','material name',#459);
#280=PROPERTY_DEFINITION('material property','density of part',#459);
#281=DATE_TIME_ROLE('creation_date');
#282=APPLIED_DATE_AND_TIME_ASSIGNMENT(#283,#281,(#459));
#283=DATE_AND_TIME(#284,#285);
#284=CALENDAR_DATE(2025,16,9);
#285=LOCAL_TIME(0,0,0.,#286);
#286=COORDINATED_UNIVERSAL_TIME_OFFSET(0,0,.BEHIND.);
#287=AXIS2_PLACEMENT_3D('placement',#377,#308,#309);
#288=AXIS2_PLACEMENT_3D('',#378,#310,#311);
#289=AXIS2_PLACEMENT_3D('',#387,#316,#317);
#290=AXIS2_PLACEMENT_3D('',#395,#322,#323);
#291=AXIS2_PLACEMENT_3D('',#399,#325,#326);
#292=AXIS2_PLACEMENT_3D('',#406,#330,#331);
#293=AXIS2_PLACEMENT_3D('',#408,#332,#333);
#294=AXIS2_PLACEMENT_3D('',#409,#334,#335);
#295=AXIS2_PLACEMENT_3D('',#415,#339,#340);
#296=AXIS2_PLACEMENT_3D('',#421,#344,#345);
#297=AXIS2_PLACEMENT_3D('',#424,#347,#348);
#298=AXIS2_PLACEMENT_3D('',#425,#349,#350);
#299=AXIS2_PLACEMENT_3D('',#426,#351,#352);
#300=AXIS2_PLACEMENT_3D('',#432,#356,#357);
#301=AXIS2_PLACEMENT_3D('',#434,#359,#360);
#302=AXIS2_PLACEMENT_3D('',#440,#364,#365);
#303=AXIS2_PLACEMENT_3D('',#442,#367,#368);
#304=AXIS2_PLACEMENT_3D('',#443,#369,#370);
#305=AXIS2_PLACEMENT_3D('',#444,#371,#372);
#306=AXIS2_PLACEMENT_3D('',#445,#373,#374);
#307=AXIS2_PLACEMENT_3D('',#446,#375,#376);
#308=DIRECTION('axis',(0.,0.,1.));
#309=DIRECTION('refdir',(1.,0.,0.));
#310=DIRECTION('center_axis',(-0.707106781186548,0.,0.707106781186548));
#311=DIRECTION('ref_axis',(0.707106781186548,0.,0.707106781186548));
#312=DIRECTION('',(0.707106781186548,0.,0.707106781186548));
#313=DIRECTION('',(0.,1.,0.));
#314=DIRECTION('',(-0.707106781186547,3.92523114670944E-17,-0.707106781186547));
#315=DIRECTION('',(0.,-1.,0.));
#316=DIRECTION('center_axis',(5.55111512312578E-17,1.,0.));
#317=DIRECTION('ref_axis',(1.,-5.55111512312578E-17,0.));
#318=DIRECTION('',(-1.,5.55111512312578E-17,0.));
#319=DIRECTION('',(0.,0.,1.));
#320=DIRECTION('',(1.,-5.55111512312578E-17,0.));
#321=DIRECTION('',(0.,0.,-1.));
#322=DIRECTION('center_axis',(0.,0.,1.));
#323=DIRECTION('ref_axis',(1.,0.,0.));
#324=DIRECTION('',(1.,0.,0.));
#325=DIRECTION('center_axis',(0.,0.,1.));
#326=DIRECTION('ref_axis',(1.,0.,0.));
#327=DIRECTION('',(1.,2.77555756156289E-16,0.));
#328=DIRECTION('',(0.,-1.,0.));
#329=DIRECTION('',(-1.,-2.22044604925031E-16,0.));
#330=DIRECTION('center_axis',(0.,0.,1.));
#331=DIRECTION('ref_axis',(1.,0.,0.));
#332=DIRECTION('center_axis',(0.,0.,-1.));
#333=DIRECTION('ref_axis',(1.,0.,0.));
#334=DIRECTION('center_axis',(0.707106781186548,0.,0.707106781186548));
#335=DIRECTION('ref_axis',(0.707106781186548,0.,-0.707106781186548));
#336=DIRECTION('',(-0.707106781186547,-1.57009245868377E-16,0.707106781186547));
#337=DIRECTION('',(0.707106781186547,1.96261557335472E-16,-0.707106781186547));
#338=DIRECTION('',(0.,1.,0.));
#339=DIRECTION('center_axis',(-2.22044604925031E-16,1.,0.));
#340=DIRECTION('ref_axis',(1.,2.22044604925031E-16,0.));
#341=DIRECTION('',(0.,0.,-1.));
#342=DIRECTION('',(1.,2.22044604925031E-16,0.));
#343=DIRECTION('',(0.,0.,-1.));
#344=DIRECTION('center_axis',(0.,0.,-1.));
#345=DIRECTION('ref_axis',(1.,0.,0.));
#346=DIRECTION('',(0.,0.,-1.));
#347=DIRECTION('center_axis',(0.,0.,-1.));
#348=DIRECTION('ref_axis',(1.,0.,0.));
#349=DIRECTION('center_axis',(0.,0.,1.));
#350=DIRECTION('ref_axis',(1.,0.,0.));
#351=DIRECTION('center_axis',(2.77555756156289E-16,-1.,0.));
#352=DIRECTION('ref_axis',(-1.,-2.77555756156289E-16,0.));
#353=DIRECTION('',(0.,0.,1.));
#354=DIRECTION('',(-1.,-2.77555756156289E-16,0.));
#355=DIRECTION('',(0.,0.,-1.));
#356=DIRECTION('center_axis',(1.,0.,0.));
#357=DIRECTION('ref_axis',(0.,-1.,0.));
#358=DIRECTION('',(0.,-1.,0.));
#359=DIRECTION('center_axis',(0.,-1.,0.));
#360=DIRECTION('ref_axis',(-1.,0.,0.));
#361=DIRECTION('',(0.,0.,-1.));
#362=DIRECTION('',(-1.,0.,0.));
#363=DIRECTION('',(0.,0.,-1.));
#364=DIRECTION('center_axis',(-1.,0.,0.));
#365=DIRECTION('ref_axis',(0.,1.,0.));
#366=DIRECTION('',(0.,1.,0.));
#367=DIRECTION('center_axis',(0.,0.,1.));
#368=DIRECTION('ref_axis',(1.,0.,0.));
#369=DIRECTION('center_axis',(0.,0.,1.));
#370=DIRECTION('ref_axis',(1.,0.,0.));
#371=DIRECTION('center_axis',(0.,0.,1.));
#372=DIRECTION('ref_axis',(1.,0.,0.));
#373=DIRECTION('center_axis',(0.,0.,1.));
#374=DIRECTION('ref_axis',(1.,0.,0.));
#375=DIRECTION('center_axis',(0.,0.,1.));
#376=DIRECTION('ref_axis',(1.,0.,0.));
#377=CARTESIAN_POINT('',(0.,0.,0.));
#378=CARTESIAN_POINT('Origin',(-29.5,-2.5,6.5));
#379=CARTESIAN_POINT('',(-33.,-5.,3.));
#380=CARTESIAN_POINT('',(-26.,-5.,10.));
#381=CARTESIAN_POINT('',(-27.,-5.,9.));
#382=CARTESIAN_POINT('',(-26.,5.,10.));
#383=CARTESIAN_POINT('',(-26.,-2.5,10.));
#384=CARTESIAN_POINT('',(-33.,5.,3.));
#385=CARTESIAN_POINT('',(-29.5,5.,6.5));
#386=CARTESIAN_POINT('',(-33.,-2.5,3.));
#387=CARTESIAN_POINT('Origin',(-33.,5.,10.));
#388=CARTESIAN_POINT('',(-24.4948974278318,5.,10.));
#389=CARTESIAN_POINT('',(-23.,5.,10.));
#390=CARTESIAN_POINT('',(-24.4948974278318,5.,0.));
#391=CARTESIAN_POINT('',(-24.4948974278318,5.,0.));
#392=CARTESIAN_POINT('',(-33.,5.,0.));
#393=CARTESIAN_POINT('',(-23.,5.,0.));
#394=CARTESIAN_POINT('',(-33.,5.,10.));
#395=CARTESIAN_POINT('Origin',(0.,0.,10.));
#396=CARTESIAN_POINT('',(-24.4948974278318,-5.,10.));
#397=CARTESIAN_POINT('',(-33.,-5.,10.));
#398=CARTESIAN_POINT('',(24.4948974278318,-5.,10.));
#399=CARTESIAN_POINT('Origin',(0.,0.,10.));
#400=CARTESIAN_POINT('',(26.,-5.,10.));
#401=CARTESIAN_POINT('',(23.,-5.,10.));
#402=CARTESIAN_POINT('',(26.,5.,10.));
#403=CARTESIAN_POINT('',(26.,2.5,10.));
#404=CARTESIAN_POINT('',(24.4948974278318,5.,10.));
#405=CARTESIAN_POINT('',(33.,5.,10.));
#406=CARTESIAN_POINT('Origin',(0.,0.,10.));
#407=CARTESIAN_POINT('',(-10.,1.22464679914735E-15,10.));
#408=CARTESIAN_POINT('Origin',(0.,0.,10.));
#409=CARTESIAN_POINT('Origin',(29.5,2.5,6.5));
#410=CARTESIAN_POINT('',(33.,5.,3.));
#411=CARTESIAN_POINT('',(27.,5.,9.));
#412=CARTESIAN_POINT('',(33.,-4.99999999999999,3.));
#413=CARTESIAN_POINT('',(29.5,-4.99999999999999,6.5));
#414=CARTESIAN_POINT('',(33.,2.5,3.));
#415=CARTESIAN_POINT('Origin',(23.,5.,10.));
#416=CARTESIAN_POINT('',(33.,5.,0.));
#417=CARTESIAN_POINT('',(33.,5.,10.));
#418=CARTESIAN_POINT('',(24.4948974278318,5.,0.));
#419=CARTESIAN_POINT('',(33.,5.,0.));
#420=CARTESIAN_POINT('',(24.4948974278318,5.,0.));
#421=CARTESIAN_POINT('Origin',(0.,0.,10.));
#422=CARTESIAN_POINT('',(-10.,1.22464679914735E-15,7.));
#423=CARTESIAN_POINT('',(-10.,1.22464679914735E-15,10.));
#424=CARTESIAN_POINT('Origin',(0.,0.,7.));
#425=CARTESIAN_POINT('Origin',(0.,0.,7.));
#426=CARTESIAN_POINT('Origin',(33.,-4.99999999999999,10.));
#427=CARTESIAN_POINT('',(24.4948974278318,-5.,0.));
#428=CARTESIAN_POINT('',(24.4948974278318,-5.,0.));
#429=CARTESIAN_POINT('',(33.,-4.99999999999999,0.));
#430=CARTESIAN_POINT('',(23.,-5.,0.));
#431=CARTESIAN_POINT('',(33.,-4.99999999999999,10.));
#432=CARTESIAN_POINT('Origin',(33.,5.,10.));
#433=CARTESIAN_POINT('',(33.,-4.99999999999999,0.));
#434=CARTESIAN_POINT('Origin',(-23.,-5.,10.));
#435=CARTESIAN_POINT('',(-33.,-5.,0.));
#436=CARTESIAN_POINT('',(-33.,-5.,10.));
#437=CARTESIAN_POINT('',(-24.4948974278318,-5.,0.));
#438=CARTESIAN_POINT('',(-33.,-5.,0.));
#439=CARTESIAN_POINT('',(-24.4948974278318,-5.,0.));
#440=CARTESIAN_POINT('Origin',(-33.,-5.,10.));
#441=CARTESIAN_POINT('',(-33.,5.,0.));
#442=CARTESIAN_POINT('Origin',(0.,0.,0.));
#443=CARTESIAN_POINT('Origin',(0.,0.,0.));
#444=CARTESIAN_POINT('Origin',(0.,0.,0.));
#445=CARTESIAN_POINT('Origin',(0.,0.,0.));
#446=CARTESIAN_POINT('Origin',(0.,0.,0.));
#447=UNCERTAINTY_MEASURE_WITH_UNIT(LENGTH_MEASURE(0.01),#451,
'DISTANCE_ACCURACY_VALUE',
'Maximum model space distance between geometric entities at asserted c
onnectivities');
#448=UNCERTAINTY_MEASURE_WITH_UNIT(LENGTH_MEASURE(0.01),#451,
'DISTANCE_ACCURACY_VALUE',
'Maximum model space distance between geometric entities at asserted c
onnectivities');
#449=(
GEOMETRIC_REPRESENTATION_CONTEXT(3)
GLOBAL_UNCERTAINTY_ASSIGNED_CONTEXT((#447))
GLOBAL_UNIT_ASSIGNED_CONTEXT((#451,#453,#454))
REPRESENTATION_CONTEXT('','3D')
);
#450=(
GEOMETRIC_REPRESENTATION_CONTEXT(3)
GLOBAL_UNCERTAINTY_ASSIGNED_CONTEXT((#448))
GLOBAL_UNIT_ASSIGNED_CONTEXT((#451,#453,#454))
REPRESENTATION_CONTEXT('','3D')
);
#451=(
LENGTH_UNIT()
NAMED_UNIT(*)
SI_UNIT(.MILLI.,.METRE.)
);
#452=(
LENGTH_UNIT()
NAMED_UNIT(*)
SI_UNIT(.CENTI.,.METRE.)
);
#453=(
NAMED_UNIT(*)
PLANE_ANGLE_UNIT()
SI_UNIT($,.RADIAN.)
);
#454=(
NAMED_UNIT(*)
SI_UNIT($,.STERADIAN.)
SOLID_ANGLE_UNIT()
);
#455=SHAPE_DEFINITION_REPRESENTATION(#456,#457);
#456=PRODUCT_DEFINITION_SHAPE('',$,#459);
#457=SHAPE_REPRESENTATION('',(#287),#449);
#458=PRODUCT_DEFINITION_CONTEXT('part definition',#463,'design');
#459=PRODUCT_DEFINITION('base','base',#460,#458);
#460=PRODUCT_DEFINITION_FORMATION('',$,#465);
#461=PRODUCT_RELATED_PRODUCT_CATEGORY('base','base',(#465));
#462=APPLICATION_PROTOCOL_DEFINITION('international standard',
'automotive_design',2009,#463);
#463=APPLICATION_CONTEXT(
'Core Data for Automotive Mechanical Design Process');
#464=PRODUCT_CONTEXT('part definition',#463,'mechanical');
#465=PRODUCT('base','base',$,(#464));
#466=PRESENTATION_STYLE_ASSIGNMENT((#468));
#467=PRESENTATION_STYLE_ASSIGNMENT((#469));
#468=SURFACE_STYLE_USAGE(.BOTH.,#474);
#469=SURFACE_STYLE_USAGE(.BOTH.,#475);
#470=SURFACE_STYLE_RENDERING_WITH_PROPERTIES($,#482,(#472));
#471=SURFACE_STYLE_RENDERING_WITH_PROPERTIES($,#483,(#473));
#472=SURFACE_STYLE_TRANSPARENT(0.);
#473=SURFACE_STYLE_TRANSPARENT(0.);
#474=SURFACE_SIDE_STYLE('',(#476,#470));
#475=SURFACE_SIDE_STYLE('',(#477,#471));
#476=SURFACE_STYLE_FILL_AREA(#478);
#477=SURFACE_STYLE_FILL_AREA(#479);
#478=FILL_AREA_STYLE('',(#480));
#479=FILL_AREA_STYLE('',(#481));
#480=FILL_AREA_STYLE_COLOUR('',#482);
#481=FILL_AREA_STYLE_COLOUR('',#483);
#482=COLOUR_RGB('',0.92156862745098,0.92156862745098,0.92156862745098);
#483=COLOUR_RGB('',0.180392156862745,0.541176470588235,0.341176470588235);
ENDSEC;
END-ISO-10303-21;
