ISO-10303-21;
HEADER;
/* Generated by software containing ST-Developer
 * from STEP Tools, Inc. (www.steptools.com) 
 */

FILE_DESCRIPTION(
/* description */ (''),
/* implementation_level */ '2;1');

FILE_NAME(
/* name */ 
'C:\\Users\\eyome\\OneDrive\\Documents\\Inventor\\6DOFArmV3\\\\ef_ipt_
f4b23f4.STEP',
/* time_stamp */ '2025-09-17T16:20:03+03:00',
/* author */ ('eyome'),
/* organization */ (''),
/* preprocessor_version */ 'ST-DEVELOPER v18.1',
/* originating_system */ 'Autodesk Inventor 2021',
/* authorisation */ '');

FILE_SCHEMA (('AUTOMOTIVE_DESIGN { 1 0 10303 214 3 1 1 }'));
ENDSEC;

DATA;
#10=MECHANICAL_DESIGN_GEOMETRIC_PRESENTATION_REPRESENTATION('',(#455,#456,
#457,#458,#459,#460,#461,#462,#463,#464,#465,#466,#467,#468,#469,#470,#471,
#472,#473,#474,#475,#476,#477,#478,#479,#480,#481,#482),#1196);
#11=SHAPE_REPRESENTATION_RELATIONSHIP('SRR','None',#1203,#12);
#12=ADVANCED_BREP_SHAPE_REPRESENTATION('',(#13),#1195);
#13=MANIFOLD_SOLID_BREP('Solid1',#510);
#14=FACE_BOUND('',#103,.T.);
#15=ELLIPSE('',#541,4.24264068711929,3.);
#16=ELLIPSE('',#543,4.24264068711928,3.);
#17=ELLIPSE('',#559,4.24264068711929,3.);
#18=ELLIPSE('',#561,4.24264068711929,3.);
#19=B_SPLINE_CURVE_WITH_KNOTS('',3,(#781,#782,#783,#784,#785,#786,#787,
#788,#789,#790,#791,#792,#793,#794,#795,#796,#797,#798,#799,#800,#801,#802,
#803,#804,#805,#806,#807,#808,#809,#810,#811,#812,#813,#814,#815,#816,#817),
 .UNSPECIFIED.,.F.,.F.,(4,3,3,3,3,3,3,3,3,3,3,3,4),(0.291060047567235,0.293514363726791,
0.294891422740293,0.296177721523537,0.296268481753796,0.296920844618822,
0.297481713680999,0.297753093377392,0.297967227386878,0.298024473073784,
0.29809944671905,0.298117100827056,0.298131485974059),.UNSPECIFIED.);
#20=B_SPLINE_CURVE_WITH_KNOTS('',3,(#821,#822,#823,#824,#825,#826,#827,
#828,#829,#830,#831,#832,#833,#834,#835,#836,#837,#838,#839,#840,#841,#842,
#843,#844,#845,#846,#847,#848,#849,#850,#851,#852,#853,#854),
 .UNSPECIFIED.,.F.,.F.,(4,3,3,3,3,3,3,3,3,3,3,4),(-1.13656578626469E-5,
-4.82631830005189E-6,0.,3.25327593109727E-5,0.000124468087874255,0.000236779334097845,
0.000265420456673031,0.00053009891489218,0.000787691475213272,0.00133983439153909,
0.00197325678665684,0.00302636986420539),.UNSPECIFIED.);
#21=B_SPLINE_CURVE_WITH_KNOTS('',3,(#856,#857,#858,#859,#860,#861,#862,
#863,#864,#865,#866,#867,#868,#869,#870,#871,#872,#873,#874,#875,#876,#877),
 .UNSPECIFIED.,.F.,.F.,(4,2,2,2,2,2,2,2,2,2,4),(0.196013441551467,0.196782633075176,
0.20095269139638,0.208410781591063,0.239807732571035,0.284501378298198,
0.326739029406462,0.384961355496619,0.488438303445682,0.548800033087796,
0.607077755086338),.UNSPECIFIED.);
#22=B_SPLINE_CURVE_WITH_KNOTS('',3,(#879,#880,#881,#882,#883,#884),
 .UNSPECIFIED.,.F.,.F.,(4,1,1,4),(-3.10857496460149,-3.06318602145879,-2.85189570403803,
-2.80710468448975),.UNSPECIFIED.);
#23=B_SPLINE_CURVE_WITH_KNOTS('',3,(#885,#886,#887,#888,#889,#890,#891,
#892,#893,#894,#895,#896,#897,#898,#899,#900,#901,#902,#903,#904),
 .UNSPECIFIED.,.F.,.F.,(4,2,2,2,2,2,2,2,2,4),(0.,0.0855255457466637,0.186512223995733,
0.314988198056526,0.395858949345991,0.484926187736646,0.551482312978825,
0.580030039353629,0.58604949428716,0.586371762191212),.UNSPECIFIED.);
#24=B_SPLINE_CURVE_WITH_KNOTS('',3,(#925,#926,#927,#928),.UNSPECIFIED.,
 .F.,.F.,(4,4),(-0.69972401476492,-0.675438497353231),.UNSPECIFIED.);
#25=B_SPLINE_CURVE_WITH_KNOTS('',3,(#934,#935,#936,#937),.UNSPECIFIED.,
 .F.,.F.,(4,4),(0.675438497353313,0.699724018944767),.UNSPECIFIED.);
#26=B_SPLINE_CURVE_WITH_KNOTS('',3,(#1022,#1023,#1024,#1025,#1026,#1027,
#1028,#1029,#1030,#1031,#1032,#1033,#1034,#1035),.UNSPECIFIED.,.F.,.F.,
(4,2,2,2,2,2,4),(0.291087683259604,0.294334707898222,0.296635161442477,
0.297619101778764,0.297919054591032,0.298091376168995,0.298115766411692),
 .UNSPECIFIED.);
#27=B_SPLINE_CURVE_WITH_KNOTS('',3,(#1041,#1042,#1043,#1044,#1045,#1046,
#1047,#1048,#1049,#1050,#1051,#1052,#1053,#1054,#1055,#1056,#1057,#1058,
#1059,#1060,#1061,#1062,#1063,#1064,#1065,#1066,#1067,#1068,#1069,#1070,
#1071,#1072,#1073,#1074,#1075,#1076,#1077),.UNSPECIFIED.,.F.,.F.,(4,3,3,
3,3,3,3,3,3,3,3,3,4),(-7.99753843463377E-6,-2.97500801246448E-6,0.,3.18596443772586E-5,
6.58969249205447E-5,0.000166369642648345,0.000188876599930876,0.000396879600851048,
0.000587567343345564,0.00103364765929321,0.00152568789217085,0.00240880482456278,
0.00294994694612052),.UNSPECIFIED.);
#28=B_SPLINE_CURVE_WITH_KNOTS('',3,(#1079,#1080,#1081,#1082,#1083,#1084,
#1085,#1086,#1087,#1088,#1089,#1090,#1091,#1092,#1093,#1094,#1095,#1096,
#1097,#1098,#1099,#1100),.UNSPECIFIED.,.F.,.F.,(4,2,2,2,2,2,2,2,2,2,4),
(0.196013441551459,0.196782633075171,0.200952691396413,0.208410781591194,
0.239807732571554,0.284501378299279,0.326739029408066,0.384961355498949,
0.488438303449291,0.548800033092115,0.607077755091341),.UNSPECIFIED.);
#29=B_SPLINE_CURVE_WITH_KNOTS('',3,(#1102,#1103,#1104,#1105,#1106,#1107),
 .UNSPECIFIED.,.F.,.F.,(4,1,1,4),(-3.10857496460151,-3.0631860214588,-2.85189570403805,
-2.80710468448977),.UNSPECIFIED.);
#30=B_SPLINE_CURVE_WITH_KNOTS('',3,(#1108,#1109,#1110,#1111,#1112,#1113,
#1114,#1115,#1116,#1117,#1118,#1119,#1120,#1121,#1122,#1123,#1124,#1125,
#1126,#1127),.UNSPECIFIED.,.F.,.F.,(4,2,2,2,2,2,2,2,2,4),(0.,0.0855255457466614,
0.186512223995722,0.314988198056511,0.395858949346166,0.484926187737356,
0.55148231297993,0.580030039354926,0.586049494288459,0.586371762192497),
 .UNSPECIFIED.);
#31=B_SPLINE_CURVE_WITH_KNOTS('',3,(#1145,#1146,#1147,#1148),
 .UNSPECIFIED.,.F.,.F.,(4,4),(3.96157050688106,3.98585602429285),
 .UNSPECIFIED.);
#32=B_SPLINE_CURVE_WITH_KNOTS('',3,(#1155,#1156,#1157,#1158),
 .UNSPECIFIED.,.F.,.F.,(4,4),(0.675438497353231,0.699724018944771),
 .UNSPECIFIED.);
#33=B_SPLINE_SURFACE_WITH_KNOTS('',3,3,((#719,#720,#721,#722,#723,#724,
#725,#726,#727,#728,#729,#730),(#731,#732,#733,#734,#735,#736,#737,#738,
#739,#740,#741,#742),(#743,#744,#745,#746,#747,#748,#749,#750,#751,#752,
#753,#754),(#755,#756,#757,#758,#759,#760,#761,#762,#763,#764,#765,#766),
(#767,#768,#769,#770,#771,#772,#773,#774,#775,#776,#777,#778)),
 .UNSPECIFIED.,.F.,.F.,.F.,(4,1,4),(4,1,1,1,1,1,1,1,1,4),(0.,0.571428571428571,
1.),(-3.69705697372107,-3.59141181501069,-3.48576665630031,-3.27447633887955,
-3.06318602145879,-2.85189570403803,-2.64060538661727,-2.42931506919651,
-2.32366991048613,-2.21802475177575),.UNSPECIFIED.);
#34=B_SPLINE_SURFACE_WITH_KNOTS('',3,3,((#960,#961,#962,#963,#964,#965,
#966,#967,#968,#969,#970,#971),(#972,#973,#974,#975,#976,#977,#978,#979,
#980,#981,#982,#983),(#984,#985,#986,#987,#988,#989,#990,#991,#992,#993,
#994,#995),(#996,#997,#998,#999,#1000,#1001,#1002,#1003,#1004,#1005,#1006,
#1007),(#1008,#1009,#1010,#1011,#1012,#1013,#1014,#1015,#1016,#1017,#1018,
#1019)),.UNSPECIFIED.,.F.,.F.,.F.,(4,1,4),(4,1,1,1,1,1,1,1,1,4),(0.,0.571428571428571,
1.),(-3.69705697372108,-3.5914118150107,-3.48576665630032,-3.27447633887956,
-3.0631860214588,-2.85189570403805,-2.64060538661729,-2.42931506919653,
-2.32366991048615,-2.21802475177577),.UNSPECIFIED.);
#35=PLANE('',#533);
#36=PLANE('',#535);
#37=PLANE('',#538);
#38=PLANE('',#544);
#39=PLANE('',#547);
#40=PLANE('',#548);
#41=PLANE('',#553);
#42=PLANE('',#555);
#43=PLANE('',#563);
#44=PLANE('',#566);
#45=PLANE('',#567);
#46=PLANE('',#573);
#47=PLANE('',#575);
#48=PLANE('',#578);
#49=FACE_OUTER_BOUND('',#76,.T.);
#50=FACE_OUTER_BOUND('',#77,.T.);
#51=FACE_OUTER_BOUND('',#78,.T.);
#52=FACE_OUTER_BOUND('',#79,.T.);
#53=FACE_OUTER_BOUND('',#80,.T.);
#54=FACE_OUTER_BOUND('',#81,.T.);
#55=FACE_OUTER_BOUND('',#82,.T.);
#56=FACE_OUTER_BOUND('',#83,.T.);
#57=FACE_OUTER_BOUND('',#84,.T.);
#58=FACE_OUTER_BOUND('',#85,.T.);
#59=FACE_OUTER_BOUND('',#86,.T.);
#60=FACE_OUTER_BOUND('',#87,.T.);
#61=FACE_OUTER_BOUND('',#88,.T.);
#62=FACE_OUTER_BOUND('',#89,.T.);
#63=FACE_OUTER_BOUND('',#90,.T.);
#64=FACE_OUTER_BOUND('',#91,.T.);
#65=FACE_OUTER_BOUND('',#92,.T.);
#66=FACE_OUTER_BOUND('',#93,.T.);
#67=FACE_OUTER_BOUND('',#94,.T.);
#68=FACE_OUTER_BOUND('',#95,.T.);
#69=FACE_OUTER_BOUND('',#96,.T.);
#70=FACE_OUTER_BOUND('',#97,.T.);
#71=FACE_OUTER_BOUND('',#98,.T.);
#72=FACE_OUTER_BOUND('',#99,.T.);
#73=FACE_OUTER_BOUND('',#100,.T.);
#74=FACE_OUTER_BOUND('',#101,.T.);
#75=FACE_OUTER_BOUND('',#102,.T.);
#76=EDGE_LOOP('',(#304,#305,#306,#307));
#77=EDGE_LOOP('',(#308));
#78=EDGE_LOOP('',(#309,#310,#311,#312,#313,#314));
#79=EDGE_LOOP('',(#315,#316,#317,#318,#319,#320));
#80=EDGE_LOOP('',(#321,#322,#323));
#81=EDGE_LOOP('',(#324,#325,#326,#327,#328,#329));
#82=EDGE_LOOP('',(#330,#331,#332,#333,#334,#335));
#83=EDGE_LOOP('',(#336,#337,#338,#339,#340,#341));
#84=EDGE_LOOP('',(#342,#343,#344,#345));
#85=EDGE_LOOP('',(#346,#347,#348,#349,#350,#351));
#86=EDGE_LOOP('',(#352,#353,#354,#355,#356,#357,#358));
#87=EDGE_LOOP('',(#359,#360,#361));
#88=EDGE_LOOP('',(#362,#363,#364,#365,#366,#367));
#89=EDGE_LOOP('',(#368,#369,#370,#371,#372,#373));
#90=EDGE_LOOP('',(#374,#375,#376,#377,#378,#379));
#91=EDGE_LOOP('',(#380,#381,#382,#383,#384,#385));
#92=EDGE_LOOP('',(#386,#387,#388,#389,#390,#391));
#93=EDGE_LOOP('',(#392,#393,#394,#395));
#94=EDGE_LOOP('',(#396,#397,#398,#399,#400,#401));
#95=EDGE_LOOP('',(#402,#403,#404,#405));
#96=EDGE_LOOP('',(#406,#407,#408,#409));
#97=EDGE_LOOP('',(#410,#411,#412,#413));
#98=EDGE_LOOP('',(#414,#415,#416,#417));
#99=EDGE_LOOP('',(#418,#419,#420,#421));
#100=EDGE_LOOP('',(#422,#423,#424,#425));
#101=EDGE_LOOP('',(#426,#427,#428,#429,#430,#431,#432,#433,#434,#435,#436,
#437,#438,#439,#440,#441));
#102=EDGE_LOOP('',(#442));
#103=EDGE_LOOP('',(#443));
#104=LINE('',#716,#136);
#105=LINE('',#909,#137);
#106=LINE('',#911,#138);
#107=LINE('',#913,#139);
#108=LINE('',#918,#140);
#109=LINE('',#921,#141);
#110=LINE('',#924,#142);
#111=LINE('',#933,#143);
#112=LINE('',#939,#144);
#113=LINE('',#943,#145);
#114=LINE('',#947,#146);
#115=LINE('',#950,#147);
#116=LINE('',#952,#148);
#117=LINE('',#953,#149);
#118=LINE('',#958,#150);
#119=LINE('',#1130,#151);
#120=LINE('',#1136,#152);
#121=LINE('',#1138,#153);
#122=LINE('',#1140,#154);
#123=LINE('',#1144,#155);
#124=LINE('',#1153,#156);
#125=LINE('',#1159,#157);
#126=LINE('',#1162,#158);
#127=LINE('',#1166,#159);
#128=LINE('',#1170,#160);
#129=LINE('',#1171,#161);
#130=LINE('',#1176,#162);
#131=LINE('',#1179,#163);
#132=LINE('',#1181,#164);
#133=LINE('',#1183,#165);
#134=LINE('',#1186,#166);
#135=LINE('',#1190,#167);
#136=VECTOR('',#585,1.5);
#137=VECTOR('',#596,10.);
#138=VECTOR('',#597,10.);
#139=VECTOR('',#598,10.);
#140=VECTOR('',#603,10.);
#141=VECTOR('',#606,10.);
#142=VECTOR('',#609,10.);
#143=VECTOR('',#614,10.);
#144=VECTOR('',#615,10.);
#145=VECTOR('',#620,10.);
#146=VECTOR('',#623,10.);
#147=VECTOR('',#628,10.);
#148=VECTOR('',#629,10.);
#149=VECTOR('',#630,10.);
#150=VECTOR('',#635,10.);
#151=VECTOR('',#644,10.);
#152=VECTOR('',#651,10.);
#153=VECTOR('',#652,10.);
#154=VECTOR('',#653,10.);
#155=VECTOR('',#658,10.);
#156=VECTOR('',#665,10.);
#157=VECTOR('',#668,10.);
#158=VECTOR('',#671,10.);
#159=VECTOR('',#674,10.);
#160=VECTOR('',#679,10.);
#161=VECTOR('',#680,10.);
#162=VECTOR('',#685,10.);
#163=VECTOR('',#690,10.);
#164=VECTOR('',#693,10.);
#165=VECTOR('',#696,10.);
#166=VECTOR('',#701,10.);
#167=VECTOR('',#706,7.07106781186547);
#168=CIRCLE('',#531,1.5);
#169=CIRCLE('',#532,1.5);
#170=CIRCLE('',#534,7.07106781186547);
#171=CIRCLE('',#536,3.);
#172=CIRCLE('',#537,3.);
#173=CIRCLE('',#539,7.07106781186547);
#174=CIRCLE('',#545,3.);
#175=CIRCLE('',#546,3.);
#176=CIRCLE('',#549,3.);
#177=CIRCLE('',#550,3.);
#178=CIRCLE('',#551,7.07106781186547);
#179=CIRCLE('',#552,7.07106781186547);
#180=CIRCLE('',#554,7.07106781186547);
#181=CIRCLE('',#556,3.);
#182=CIRCLE('',#557,3.);
#183=CIRCLE('',#564,3.);
#184=CIRCLE('',#565,3.);
#185=CIRCLE('',#568,3.);
#186=CIRCLE('',#569,3.);
#187=CIRCLE('',#577,7.07106781186547);
#188=VERTEX_POINT('',#713);
#189=VERTEX_POINT('',#715);
#190=VERTEX_POINT('',#779);
#191=VERTEX_POINT('',#780);
#192=VERTEX_POINT('',#818);
#193=VERTEX_POINT('',#820);
#194=VERTEX_POINT('',#855);
#195=VERTEX_POINT('',#878);
#196=VERTEX_POINT('',#906);
#197=VERTEX_POINT('',#908);
#198=VERTEX_POINT('',#910);
#199=VERTEX_POINT('',#912);
#200=VERTEX_POINT('',#916);
#201=VERTEX_POINT('',#917);
#202=VERTEX_POINT('',#919);
#203=VERTEX_POINT('',#923);
#204=VERTEX_POINT('',#931);
#205=VERTEX_POINT('',#932);
#206=VERTEX_POINT('',#938);
#207=VERTEX_POINT('',#942);
#208=VERTEX_POINT('',#944);
#209=VERTEX_POINT('',#946);
#210=VERTEX_POINT('',#951);
#211=VERTEX_POINT('',#955);
#212=VERTEX_POINT('',#957);
#213=VERTEX_POINT('',#1020);
#214=VERTEX_POINT('',#1021);
#215=VERTEX_POINT('',#1036);
#216=VERTEX_POINT('',#1038);
#217=VERTEX_POINT('',#1040);
#218=VERTEX_POINT('',#1078);
#219=VERTEX_POINT('',#1101);
#220=VERTEX_POINT('',#1129);
#221=VERTEX_POINT('',#1133);
#222=VERTEX_POINT('',#1135);
#223=VERTEX_POINT('',#1137);
#224=VERTEX_POINT('',#1139);
#225=VERTEX_POINT('',#1143);
#226=VERTEX_POINT('',#1151);
#227=VERTEX_POINT('',#1161);
#228=VERTEX_POINT('',#1163);
#229=VERTEX_POINT('',#1165);
#230=VERTEX_POINT('',#1169);
#231=VERTEX_POINT('',#1173);
#232=VERTEX_POINT('',#1175);
#233=VERTEX_POINT('',#1189);
#234=EDGE_CURVE('',#188,#188,#168,.T.);
#235=EDGE_CURVE('',#188,#189,#104,.T.);
#236=EDGE_CURVE('',#189,#189,#169,.T.);
#237=EDGE_CURVE('',#190,#191,#19,.F.);
#238=EDGE_CURVE('',#190,#192,#170,.T.);
#239=EDGE_CURVE('',#192,#193,#20,.T.);
#240=EDGE_CURVE('',#194,#193,#21,.F.);
#241=EDGE_CURVE('',#194,#195,#22,.T.);
#242=EDGE_CURVE('',#195,#191,#23,.T.);
#243=EDGE_CURVE('',#196,#194,#171,.T.);
#244=EDGE_CURVE('',#196,#197,#105,.T.);
#245=EDGE_CURVE('',#198,#197,#106,.T.);
#246=EDGE_CURVE('',#199,#198,#107,.T.);
#247=EDGE_CURVE('',#195,#199,#172,.T.);
#248=EDGE_CURVE('',#200,#201,#108,.T.);
#249=EDGE_CURVE('',#200,#202,#173,.T.);
#250=EDGE_CURVE('',#201,#202,#109,.T.);
#251=EDGE_CURVE('',#203,#196,#110,.T.);
#252=EDGE_CURVE('',#193,#200,#24,.T.);
#253=EDGE_CURVE('',#201,#203,#15,.T.);
#254=EDGE_CURVE('',#204,#205,#111,.T.);
#255=EDGE_CURVE('',#191,#205,#25,.F.);
#256=EDGE_CURVE('',#199,#206,#112,.T.);
#257=EDGE_CURVE('',#204,#206,#16,.T.);
#258=EDGE_CURVE('',#203,#207,#113,.T.);
#259=EDGE_CURVE('',#208,#207,#174,.T.);
#260=EDGE_CURVE('',#209,#208,#114,.T.);
#261=EDGE_CURVE('',#197,#209,#175,.T.);
#262=EDGE_CURVE('',#206,#203,#115,.T.);
#263=EDGE_CURVE('',#210,#206,#116,.T.);
#264=EDGE_CURVE('',#210,#207,#117,.T.);
#265=EDGE_CURVE('',#211,#198,#176,.T.);
#266=EDGE_CURVE('',#212,#211,#118,.T.);
#267=EDGE_CURVE('',#210,#212,#177,.T.);
#268=EDGE_CURVE('',#213,#214,#26,.F.);
#269=EDGE_CURVE('',#213,#215,#178,.T.);
#270=EDGE_CURVE('',#215,#216,#179,.T.);
#271=EDGE_CURVE('',#216,#217,#27,.T.);
#272=EDGE_CURVE('',#218,#217,#28,.F.);
#273=EDGE_CURVE('',#218,#219,#29,.T.);
#274=EDGE_CURVE('',#219,#214,#30,.T.);
#275=EDGE_CURVE('',#220,#204,#119,.T.);
#276=EDGE_CURVE('',#220,#205,#180,.T.);
#277=EDGE_CURVE('',#221,#218,#181,.T.);
#278=EDGE_CURVE('',#221,#222,#120,.T.);
#279=EDGE_CURVE('',#223,#222,#121,.T.);
#280=EDGE_CURVE('',#224,#223,#122,.T.);
#281=EDGE_CURVE('',#219,#224,#182,.T.);
#282=EDGE_CURVE('',#225,#221,#123,.T.);
#283=EDGE_CURVE('',#217,#220,#31,.T.);
#284=EDGE_CURVE('',#204,#225,#17,.T.);
#285=EDGE_CURVE('',#201,#226,#18,.T.);
#286=EDGE_CURVE('',#226,#225,#124,.T.);
#287=EDGE_CURVE('',#214,#202,#32,.F.);
#288=EDGE_CURVE('',#224,#226,#125,.T.);
#289=EDGE_CURVE('',#225,#227,#126,.T.);
#290=EDGE_CURVE('',#228,#227,#183,.T.);
#291=EDGE_CURVE('',#229,#228,#127,.T.);
#292=EDGE_CURVE('',#222,#229,#184,.T.);
#293=EDGE_CURVE('',#230,#226,#128,.T.);
#294=EDGE_CURVE('',#227,#230,#129,.T.);
#295=EDGE_CURVE('',#231,#223,#185,.T.);
#296=EDGE_CURVE('',#232,#231,#130,.T.);
#297=EDGE_CURVE('',#230,#232,#186,.T.);
#298=EDGE_CURVE('',#208,#212,#131,.T.);
#299=EDGE_CURVE('',#228,#232,#132,.T.);
#300=EDGE_CURVE('',#209,#211,#133,.T.);
#301=EDGE_CURVE('',#229,#231,#134,.T.);
#302=EDGE_CURVE('',#215,#233,#135,.T.);
#303=EDGE_CURVE('',#233,#233,#187,.T.);
#304=ORIENTED_EDGE('',*,*,#234,.F.);
#305=ORIENTED_EDGE('',*,*,#235,.T.);
#306=ORIENTED_EDGE('',*,*,#236,.F.);
#307=ORIENTED_EDGE('',*,*,#235,.F.);
#308=ORIENTED_EDGE('',*,*,#234,.T.);
#309=ORIENTED_EDGE('',*,*,#237,.F.);
#310=ORIENTED_EDGE('',*,*,#238,.T.);
#311=ORIENTED_EDGE('',*,*,#239,.T.);
#312=ORIENTED_EDGE('',*,*,#240,.F.);
#313=ORIENTED_EDGE('',*,*,#241,.T.);
#314=ORIENTED_EDGE('',*,*,#242,.T.);
#315=ORIENTED_EDGE('',*,*,#241,.F.);
#316=ORIENTED_EDGE('',*,*,#243,.F.);
#317=ORIENTED_EDGE('',*,*,#244,.T.);
#318=ORIENTED_EDGE('',*,*,#245,.F.);
#319=ORIENTED_EDGE('',*,*,#246,.F.);
#320=ORIENTED_EDGE('',*,*,#247,.F.);
#321=ORIENTED_EDGE('',*,*,#248,.F.);
#322=ORIENTED_EDGE('',*,*,#249,.T.);
#323=ORIENTED_EDGE('',*,*,#250,.F.);
#324=ORIENTED_EDGE('',*,*,#251,.T.);
#325=ORIENTED_EDGE('',*,*,#243,.T.);
#326=ORIENTED_EDGE('',*,*,#240,.T.);
#327=ORIENTED_EDGE('',*,*,#252,.T.);
#328=ORIENTED_EDGE('',*,*,#248,.T.);
#329=ORIENTED_EDGE('',*,*,#253,.T.);
#330=ORIENTED_EDGE('',*,*,#254,.T.);
#331=ORIENTED_EDGE('',*,*,#255,.F.);
#332=ORIENTED_EDGE('',*,*,#242,.F.);
#333=ORIENTED_EDGE('',*,*,#247,.T.);
#334=ORIENTED_EDGE('',*,*,#256,.T.);
#335=ORIENTED_EDGE('',*,*,#257,.F.);
#336=ORIENTED_EDGE('',*,*,#251,.F.);
#337=ORIENTED_EDGE('',*,*,#258,.T.);
#338=ORIENTED_EDGE('',*,*,#259,.F.);
#339=ORIENTED_EDGE('',*,*,#260,.F.);
#340=ORIENTED_EDGE('',*,*,#261,.F.);
#341=ORIENTED_EDGE('',*,*,#244,.F.);
#342=ORIENTED_EDGE('',*,*,#262,.F.);
#343=ORIENTED_EDGE('',*,*,#263,.F.);
#344=ORIENTED_EDGE('',*,*,#264,.T.);
#345=ORIENTED_EDGE('',*,*,#258,.F.);
#346=ORIENTED_EDGE('',*,*,#256,.F.);
#347=ORIENTED_EDGE('',*,*,#246,.T.);
#348=ORIENTED_EDGE('',*,*,#265,.F.);
#349=ORIENTED_EDGE('',*,*,#266,.F.);
#350=ORIENTED_EDGE('',*,*,#267,.F.);
#351=ORIENTED_EDGE('',*,*,#263,.T.);
#352=ORIENTED_EDGE('',*,*,#268,.F.);
#353=ORIENTED_EDGE('',*,*,#269,.T.);
#354=ORIENTED_EDGE('',*,*,#270,.T.);
#355=ORIENTED_EDGE('',*,*,#271,.T.);
#356=ORIENTED_EDGE('',*,*,#272,.F.);
#357=ORIENTED_EDGE('',*,*,#273,.T.);
#358=ORIENTED_EDGE('',*,*,#274,.T.);
#359=ORIENTED_EDGE('',*,*,#254,.F.);
#360=ORIENTED_EDGE('',*,*,#275,.F.);
#361=ORIENTED_EDGE('',*,*,#276,.T.);
#362=ORIENTED_EDGE('',*,*,#273,.F.);
#363=ORIENTED_EDGE('',*,*,#277,.F.);
#364=ORIENTED_EDGE('',*,*,#278,.T.);
#365=ORIENTED_EDGE('',*,*,#279,.F.);
#366=ORIENTED_EDGE('',*,*,#280,.F.);
#367=ORIENTED_EDGE('',*,*,#281,.F.);
#368=ORIENTED_EDGE('',*,*,#282,.T.);
#369=ORIENTED_EDGE('',*,*,#277,.T.);
#370=ORIENTED_EDGE('',*,*,#272,.T.);
#371=ORIENTED_EDGE('',*,*,#283,.T.);
#372=ORIENTED_EDGE('',*,*,#275,.T.);
#373=ORIENTED_EDGE('',*,*,#284,.T.);
#374=ORIENTED_EDGE('',*,*,#285,.T.);
#375=ORIENTED_EDGE('',*,*,#286,.T.);
#376=ORIENTED_EDGE('',*,*,#284,.F.);
#377=ORIENTED_EDGE('',*,*,#257,.T.);
#378=ORIENTED_EDGE('',*,*,#262,.T.);
#379=ORIENTED_EDGE('',*,*,#253,.F.);
#380=ORIENTED_EDGE('',*,*,#250,.T.);
#381=ORIENTED_EDGE('',*,*,#287,.F.);
#382=ORIENTED_EDGE('',*,*,#274,.F.);
#383=ORIENTED_EDGE('',*,*,#281,.T.);
#384=ORIENTED_EDGE('',*,*,#288,.T.);
#385=ORIENTED_EDGE('',*,*,#285,.F.);
#386=ORIENTED_EDGE('',*,*,#282,.F.);
#387=ORIENTED_EDGE('',*,*,#289,.T.);
#388=ORIENTED_EDGE('',*,*,#290,.F.);
#389=ORIENTED_EDGE('',*,*,#291,.F.);
#390=ORIENTED_EDGE('',*,*,#292,.F.);
#391=ORIENTED_EDGE('',*,*,#278,.F.);
#392=ORIENTED_EDGE('',*,*,#286,.F.);
#393=ORIENTED_EDGE('',*,*,#293,.F.);
#394=ORIENTED_EDGE('',*,*,#294,.F.);
#395=ORIENTED_EDGE('',*,*,#289,.F.);
#396=ORIENTED_EDGE('',*,*,#288,.F.);
#397=ORIENTED_EDGE('',*,*,#280,.T.);
#398=ORIENTED_EDGE('',*,*,#295,.F.);
#399=ORIENTED_EDGE('',*,*,#296,.F.);
#400=ORIENTED_EDGE('',*,*,#297,.F.);
#401=ORIENTED_EDGE('',*,*,#293,.T.);
#402=ORIENTED_EDGE('',*,*,#267,.T.);
#403=ORIENTED_EDGE('',*,*,#298,.F.);
#404=ORIENTED_EDGE('',*,*,#259,.T.);
#405=ORIENTED_EDGE('',*,*,#264,.F.);
#406=ORIENTED_EDGE('',*,*,#297,.T.);
#407=ORIENTED_EDGE('',*,*,#299,.F.);
#408=ORIENTED_EDGE('',*,*,#290,.T.);
#409=ORIENTED_EDGE('',*,*,#294,.T.);
#410=ORIENTED_EDGE('',*,*,#261,.T.);
#411=ORIENTED_EDGE('',*,*,#300,.T.);
#412=ORIENTED_EDGE('',*,*,#265,.T.);
#413=ORIENTED_EDGE('',*,*,#245,.T.);
#414=ORIENTED_EDGE('',*,*,#300,.F.);
#415=ORIENTED_EDGE('',*,*,#260,.T.);
#416=ORIENTED_EDGE('',*,*,#298,.T.);
#417=ORIENTED_EDGE('',*,*,#266,.T.);
#418=ORIENTED_EDGE('',*,*,#292,.T.);
#419=ORIENTED_EDGE('',*,*,#301,.T.);
#420=ORIENTED_EDGE('',*,*,#295,.T.);
#421=ORIENTED_EDGE('',*,*,#279,.T.);
#422=ORIENTED_EDGE('',*,*,#301,.F.);
#423=ORIENTED_EDGE('',*,*,#291,.T.);
#424=ORIENTED_EDGE('',*,*,#299,.T.);
#425=ORIENTED_EDGE('',*,*,#296,.T.);
#426=ORIENTED_EDGE('',*,*,#276,.F.);
#427=ORIENTED_EDGE('',*,*,#283,.F.);
#428=ORIENTED_EDGE('',*,*,#271,.F.);
#429=ORIENTED_EDGE('',*,*,#270,.F.);
#430=ORIENTED_EDGE('',*,*,#302,.T.);
#431=ORIENTED_EDGE('',*,*,#303,.T.);
#432=ORIENTED_EDGE('',*,*,#302,.F.);
#433=ORIENTED_EDGE('',*,*,#269,.F.);
#434=ORIENTED_EDGE('',*,*,#268,.T.);
#435=ORIENTED_EDGE('',*,*,#287,.T.);
#436=ORIENTED_EDGE('',*,*,#249,.F.);
#437=ORIENTED_EDGE('',*,*,#252,.F.);
#438=ORIENTED_EDGE('',*,*,#239,.F.);
#439=ORIENTED_EDGE('',*,*,#238,.F.);
#440=ORIENTED_EDGE('',*,*,#237,.T.);
#441=ORIENTED_EDGE('',*,*,#255,.T.);
#442=ORIENTED_EDGE('',*,*,#303,.F.);
#443=ORIENTED_EDGE('',*,*,#236,.T.);
#444=CYLINDRICAL_SURFACE('',#530,1.5);
#445=CYLINDRICAL_SURFACE('',#540,3.);
#446=CYLINDRICAL_SURFACE('',#542,3.);
#447=CYLINDRICAL_SURFACE('',#558,3.);
#448=CYLINDRICAL_SURFACE('',#560,3.);
#449=CYLINDRICAL_SURFACE('',#562,3.);
#450=CYLINDRICAL_SURFACE('',#570,3.);
#451=CYLINDRICAL_SURFACE('',#571,3.);
#452=CYLINDRICAL_SURFACE('',#572,3.);
#453=CYLINDRICAL_SURFACE('',#574,3.);
#454=CYLINDRICAL_SURFACE('',#576,7.07106781186547);
#455=STYLED_ITEM('',(#1213),#483);
#456=STYLED_ITEM('',(#1213),#484);
#457=STYLED_ITEM('',(#1213),#485);
#458=STYLED_ITEM('',(#1213),#486);
#459=STYLED_ITEM('',(#1213),#487);
#460=STYLED_ITEM('',(#1213),#488);
#461=STYLED_ITEM('',(#1213),#489);
#462=STYLED_ITEM('',(#1213),#490);
#463=STYLED_ITEM('',(#1213),#491);
#464=STYLED_ITEM('',(#1213),#492);
#465=STYLED_ITEM('',(#1213),#493);
#466=STYLED_ITEM('',(#1213),#494);
#467=STYLED_ITEM('',(#1213),#495);
#468=STYLED_ITEM('',(#1213),#496);
#469=STYLED_ITEM('',(#1213),#497);
#470=STYLED_ITEM('',(#1213),#498);
#471=STYLED_ITEM('',(#1213),#499);
#472=STYLED_ITEM('',(#1213),#500);
#473=STYLED_ITEM('',(#1213),#501);
#474=STYLED_ITEM('',(#1213),#502);
#475=STYLED_ITEM('',(#1213),#503);
#476=STYLED_ITEM('',(#1213),#504);
#477=STYLED_ITEM('',(#1213),#505);
#478=STYLED_ITEM('',(#1213),#506);
#479=STYLED_ITEM('',(#1213),#507);
#480=STYLED_ITEM('',(#1213),#508);
#481=STYLED_ITEM('',(#1213),#509);
#482=STYLED_ITEM('',(#1212),#13);
#483=ADVANCED_FACE('',(#49),#444,.T.);
#484=ADVANCED_FACE('',(#50),#35,.T.);
#485=ADVANCED_FACE('',(#51),#33,.T.);
#486=ADVANCED_FACE('',(#52),#36,.T.);
#487=ADVANCED_FACE('',(#53),#37,.T.);
#488=ADVANCED_FACE('',(#54),#445,.F.);
#489=ADVANCED_FACE('',(#55),#446,.F.);
#490=ADVANCED_FACE('',(#56),#38,.T.);
#491=ADVANCED_FACE('',(#57),#39,.F.);
#492=ADVANCED_FACE('',(#58),#40,.T.);
#493=ADVANCED_FACE('',(#59),#34,.T.);
#494=ADVANCED_FACE('',(#60),#41,.T.);
#495=ADVANCED_FACE('',(#61),#42,.T.);
#496=ADVANCED_FACE('',(#62),#447,.F.);
#497=ADVANCED_FACE('',(#63),#448,.F.);
#498=ADVANCED_FACE('',(#64),#449,.F.);
#499=ADVANCED_FACE('',(#65),#43,.T.);
#500=ADVANCED_FACE('',(#66),#44,.F.);
#501=ADVANCED_FACE('',(#67),#45,.T.);
#502=ADVANCED_FACE('',(#68),#450,.T.);
#503=ADVANCED_FACE('',(#69),#451,.T.);
#504=ADVANCED_FACE('',(#70),#452,.T.);
#505=ADVANCED_FACE('',(#71),#46,.T.);
#506=ADVANCED_FACE('',(#72),#453,.T.);
#507=ADVANCED_FACE('',(#73),#47,.T.);
#508=ADVANCED_FACE('',(#74),#454,.T.);
#509=ADVANCED_FACE('',(#75,#14),#48,.F.);
#510=CLOSED_SHELL('',(#483,#484,#485,#486,#487,#488,#489,#490,#491,#492,
#493,#494,#495,#496,#497,#498,#499,#500,#501,#502,#503,#504,#505,#506,#507,
#508,#509));
#511=DERIVED_UNIT_ELEMENT(#513,1.);
#512=DERIVED_UNIT_ELEMENT(#1198,3.);
#513=(
MASS_UNIT()
NAMED_UNIT(*)
SI_UNIT($,.GRAM.)
);
#514=DERIVED_UNIT((#511,#512));
#515=MEASURE_REPRESENTATION_ITEM('density measure',
POSITIVE_RATIO_MEASURE(1.06),#514);
#516=PROPERTY_DEFINITION_REPRESENTATION(#521,#518);
#517=PROPERTY_DEFINITION_REPRESENTATION(#522,#519);
#518=REPRESENTATION('material name',(#520),#1195);
#519=REPRESENTATION('density',(#515),#1195);
#520=DESCRIPTIVE_REPRESENTATION_ITEM('ABS Plastic','ABS Plastic');
#521=PROPERTY_DEFINITION('material property','material name',#1205);
#522=PROPERTY_DEFINITION('material property','density of part',#1205);
#523=DATE_TIME_ROLE('creation_date');
#524=APPLIED_DATE_AND_TIME_ASSIGNMENT(#525,#523,(#1205));
#525=DATE_AND_TIME(#526,#527);
#526=CALENDAR_DATE(2025,17,9);
#527=LOCAL_TIME(0,0,0.,#528);
#528=COORDINATED_UNIVERSAL_TIME_OFFSET(0,0,.BEHIND.);
#529=AXIS2_PLACEMENT_3D('placement',#711,#579,#580);
#530=AXIS2_PLACEMENT_3D('',#712,#581,#582);
#531=AXIS2_PLACEMENT_3D('',#714,#583,#584);
#532=AXIS2_PLACEMENT_3D('',#717,#586,#587);
#533=AXIS2_PLACEMENT_3D('',#718,#588,#589);
#534=AXIS2_PLACEMENT_3D('',#819,#590,#591);
#535=AXIS2_PLACEMENT_3D('',#905,#592,#593);
#536=AXIS2_PLACEMENT_3D('',#907,#594,#595);
#537=AXIS2_PLACEMENT_3D('',#914,#599,#600);
#538=AXIS2_PLACEMENT_3D('',#915,#601,#602);
#539=AXIS2_PLACEMENT_3D('',#920,#604,#605);
#540=AXIS2_PLACEMENT_3D('',#922,#607,#608);
#541=AXIS2_PLACEMENT_3D('',#929,#610,#611);
#542=AXIS2_PLACEMENT_3D('',#930,#612,#613);
#543=AXIS2_PLACEMENT_3D('',#940,#616,#617);
#544=AXIS2_PLACEMENT_3D('',#941,#618,#619);
#545=AXIS2_PLACEMENT_3D('',#945,#621,#622);
#546=AXIS2_PLACEMENT_3D('',#948,#624,#625);
#547=AXIS2_PLACEMENT_3D('',#949,#626,#627);
#548=AXIS2_PLACEMENT_3D('',#954,#631,#632);
#549=AXIS2_PLACEMENT_3D('',#956,#633,#634);
#550=AXIS2_PLACEMENT_3D('',#959,#636,#637);
#551=AXIS2_PLACEMENT_3D('',#1037,#638,#639);
#552=AXIS2_PLACEMENT_3D('',#1039,#640,#641);
#553=AXIS2_PLACEMENT_3D('',#1128,#642,#643);
#554=AXIS2_PLACEMENT_3D('',#1131,#645,#646);
#555=AXIS2_PLACEMENT_3D('',#1132,#647,#648);
#556=AXIS2_PLACEMENT_3D('',#1134,#649,#650);
#557=AXIS2_PLACEMENT_3D('',#1141,#654,#655);
#558=AXIS2_PLACEMENT_3D('',#1142,#656,#657);
#559=AXIS2_PLACEMENT_3D('',#1149,#659,#660);
#560=AXIS2_PLACEMENT_3D('',#1150,#661,#662);
#561=AXIS2_PLACEMENT_3D('',#1152,#663,#664);
#562=AXIS2_PLACEMENT_3D('',#1154,#666,#667);
#563=AXIS2_PLACEMENT_3D('',#1160,#669,#670);
#564=AXIS2_PLACEMENT_3D('',#1164,#672,#673);
#565=AXIS2_PLACEMENT_3D('',#1167,#675,#676);
#566=AXIS2_PLACEMENT_3D('',#1168,#677,#678);
#567=AXIS2_PLACEMENT_3D('',#1172,#681,#682);
#568=AXIS2_PLACEMENT_3D('',#1174,#683,#684);
#569=AXIS2_PLACEMENT_3D('',#1177,#686,#687);
#570=AXIS2_PLACEMENT_3D('',#1178,#688,#689);
#571=AXIS2_PLACEMENT_3D('',#1180,#691,#692);
#572=AXIS2_PLACEMENT_3D('',#1182,#694,#695);
#573=AXIS2_PLACEMENT_3D('',#1184,#697,#698);
#574=AXIS2_PLACEMENT_3D('',#1185,#699,#700);
#575=AXIS2_PLACEMENT_3D('',#1187,#702,#703);
#576=AXIS2_PLACEMENT_3D('',#1188,#704,#705);
#577=AXIS2_PLACEMENT_3D('',#1191,#707,#708);
#578=AXIS2_PLACEMENT_3D('',#1192,#709,#710);
#579=DIRECTION('axis',(0.,0.,1.));
#580=DIRECTION('refdir',(1.,0.,0.));
#581=DIRECTION('center_axis',(0.,0.,-1.));
#582=DIRECTION('ref_axis',(-1.,0.,0.));
#583=DIRECTION('center_axis',(0.,0.,-1.));
#584=DIRECTION('ref_axis',(-1.,0.,0.));
#585=DIRECTION('',(0.,0.,1.));
#586=DIRECTION('center_axis',(0.,0.,1.));
#587=DIRECTION('ref_axis',(-1.,0.,0.));
#588=DIRECTION('center_axis',(0.,0.,-1.));
#589=DIRECTION('ref_axis',(-1.,0.,0.));
#590=DIRECTION('center_axis',(0.,0.,1.));
#591=DIRECTION('ref_axis',(1.,0.,0.));
#592=DIRECTION('center_axis',(1.,-7.40148683083438E-16,0.));
#593=DIRECTION('ref_axis',(7.40148683083438E-16,1.,0.));
#594=DIRECTION('center_axis',(1.,-7.40148683083438E-16,0.));
#595=DIRECTION('ref_axis',(0.,-0.707106781186547,-0.707106781186548));
#596=DIRECTION('',(0.,0.,1.));
#597=DIRECTION('',(7.40148683083438E-16,1.,0.));
#598=DIRECTION('',(0.,0.,1.));
#599=DIRECTION('center_axis',(1.,-7.40148683083438E-16,0.));
#600=DIRECTION('ref_axis',(2.61682076447296E-16,0.707106781186548,-0.707106781186548));
#601=DIRECTION('center_axis',(0.,0.,1.));
#602=DIRECTION('ref_axis',(1.,0.,0.));
#603=DIRECTION('',(-1.,1.94289029309402E-16,0.));
#604=DIRECTION('center_axis',(0.,0.,1.));
#605=DIRECTION('ref_axis',(1.,0.,0.));
#606=DIRECTION('',(-1.,1.94289029309402E-16,0.));
#607=DIRECTION('center_axis',(1.,-1.94289029309402E-16,0.));
#608=DIRECTION('ref_axis',(0.,-0.707106781186547,-0.707106781186548));
#609=DIRECTION('',(1.,-1.94289029309402E-16,0.));
#610=DIRECTION('center_axis',(-0.707106781186548,-0.707106781186547,-3.11526281484877E-17));
#611=DIRECTION('ref_axis',(-0.707106781186548,0.707106781186548,3.11526281484877E-17));
#612=DIRECTION('center_axis',(-1.,2.77555756156289E-16,0.));
#613=DIRECTION('ref_axis',(2.61682076447296E-16,0.707106781186548,-0.707106781186548));
#614=DIRECTION('',(1.,-2.77555756156289E-16,0.));
#615=DIRECTION('',(-1.,2.77555756156289E-16,0.));
#616=DIRECTION('center_axis',(0.707106781186547,-0.707106781186548,9.96884100751603E-17));
#617=DIRECTION('ref_axis',(-0.707106781186548,-0.707106781186547,-9.96884100751604E-17));
#618=DIRECTION('center_axis',(1.94289029309402E-16,1.,0.));
#619=DIRECTION('ref_axis',(-1.,1.94289029309402E-16,0.));
#620=DIRECTION('',(4.75809867696496E-16,-9.24446373305873E-32,1.));
#621=DIRECTION('center_axis',(-1.94289029309402E-16,-1.,0.));
#622=DIRECTION('ref_axis',(-0.111663524906664,0.,-0.993746072799998));
#623=DIRECTION('',(-1.,1.94289029309402E-16,0.));
#624=DIRECTION('center_axis',(-1.94289029309402E-16,-1.,0.));
#625=DIRECTION('ref_axis',(0.707106781186547,-5.23364152894592E-16,0.707106781186548));
#626=DIRECTION('center_axis',(1.,-2.46716227694479E-16,-4.75809867696496E-16));
#627=DIRECTION('ref_axis',(-4.75809867696496E-16,1.32063767615125E-31,-1.));
#628=DIRECTION('',(2.46716227694479E-16,1.,0.));
#629=DIRECTION('',(-4.75809867696496E-16,1.32063767615125E-31,-1.));
#630=DIRECTION('',(2.46716227694479E-16,1.,0.));
#631=DIRECTION('center_axis',(-2.77555756156289E-16,-1.,0.));
#632=DIRECTION('ref_axis',(1.,-2.77555756156289E-16,0.));
#633=DIRECTION('center_axis',(2.77555756156289E-16,1.,0.));
#634=DIRECTION('ref_axis',(0.707106781186547,-5.23364152894592E-16,0.707106781186548));
#635=DIRECTION('',(1.,-2.77555756156289E-16,0.));
#636=DIRECTION('center_axis',(2.77555756156289E-16,1.,0.));
#637=DIRECTION('ref_axis',(-0.111663524906664,0.,-0.993746072799998));
#638=DIRECTION('center_axis',(0.,0.,1.));
#639=DIRECTION('ref_axis',(1.,0.,0.));
#640=DIRECTION('center_axis',(0.,0.,1.));
#641=DIRECTION('ref_axis',(1.,0.,0.));
#642=DIRECTION('center_axis',(0.,0.,1.));
#643=DIRECTION('ref_axis',(1.,0.,0.));
#644=DIRECTION('',(1.,-2.77555756156289E-16,0.));
#645=DIRECTION('center_axis',(0.,0.,1.));
#646=DIRECTION('ref_axis',(1.,0.,0.));
#647=DIRECTION('center_axis',(-1.,0.,0.));
#648=DIRECTION('ref_axis',(0.,-1.,0.));
#649=DIRECTION('center_axis',(-1.,0.,0.));
#650=DIRECTION('ref_axis',(2.61682076447296E-16,0.707106781186548,-0.707106781186548));
#651=DIRECTION('',(0.,0.,1.));
#652=DIRECTION('',(0.,-1.,0.));
#653=DIRECTION('',(0.,0.,1.));
#654=DIRECTION('center_axis',(-1.,0.,0.));
#655=DIRECTION('ref_axis',(0.,-0.707106781186547,-0.707106781186548));
#656=DIRECTION('center_axis',(-1.,2.77555756156289E-16,0.));
#657=DIRECTION('ref_axis',(2.61682076447296E-16,0.707106781186548,-0.707106781186548));
#658=DIRECTION('',(-1.,2.77555756156289E-16,0.));
#659=DIRECTION('center_axis',(0.707106781186548,0.707106781186547,-1.46417352297892E-16));
#660=DIRECTION('ref_axis',(0.707106781186547,-0.707106781186548,1.46417352297892E-16));
#661=DIRECTION('center_axis',(2.46716227694479E-16,1.,0.));
#662=DIRECTION('ref_axis',(-0.707106781186548,1.30841038223648E-16,-0.707106781186547));
#663=DIRECTION('center_axis',(-0.707106781186547,0.707106781186548,3.11526281484876E-16));
#664=DIRECTION('ref_axis',(-0.707106781186548,-0.707106781186547,3.11526281484876E-16));
#665=DIRECTION('',(-2.46716227694479E-16,-1.,0.));
#666=DIRECTION('center_axis',(1.,-1.94289029309402E-16,0.));
#667=DIRECTION('ref_axis',(0.,-0.707106781186547,-0.707106781186548));
#668=DIRECTION('',(1.,-1.94289029309402E-16,0.));
#669=DIRECTION('center_axis',(-2.77555756156289E-16,-1.,0.));
#670=DIRECTION('ref_axis',(1.,-2.77555756156289E-16,0.));
#671=DIRECTION('',(3.17206578464331E-16,-8.80425117434165E-32,1.));
#672=DIRECTION('center_axis',(2.77555756156289E-16,1.,0.));
#673=DIRECTION('ref_axis',(0.111663524906665,0.,-0.993746072799998));
#674=DIRECTION('',(1.,-2.77555756156289E-16,0.));
#675=DIRECTION('center_axis',(2.77555756156289E-16,1.,0.));
#676=DIRECTION('ref_axis',(-0.707106781186548,0.,0.707106781186548));
#677=DIRECTION('center_axis',(-1.,2.46716227694479E-16,3.17206578464331E-16));
#678=DIRECTION('ref_axis',(3.17206578464331E-16,-8.80425117434165E-32,1.));
#679=DIRECTION('',(-3.17206578464331E-16,6.16297582203915E-32,-1.));
#680=DIRECTION('',(2.46716227694479E-16,1.,0.));
#681=DIRECTION('center_axis',(1.94289029309402E-16,1.,0.));
#682=DIRECTION('ref_axis',(-1.,1.94289029309402E-16,0.));
#683=DIRECTION('center_axis',(-1.94289029309402E-16,-1.,0.));
#684=DIRECTION('ref_axis',(-0.707106781186548,0.,0.707106781186548));
#685=DIRECTION('',(-1.,1.94289029309402E-16,0.));
#686=DIRECTION('center_axis',(-1.94289029309402E-16,-1.,0.));
#687=DIRECTION('ref_axis',(0.111663524906665,0.,-0.993746072799998));
#688=DIRECTION('center_axis',(2.31672555274084E-16,1.,1.20349379363162E-17));
#689=DIRECTION('ref_axis',(-0.111663524906664,0.,-0.993746072799998));
#690=DIRECTION('',(-2.77555756156289E-16,-1.,0.));
#691=DIRECTION('center_axis',(-2.31672555274084E-16,-1.,1.20349379363161E-17));
#692=DIRECTION('ref_axis',(0.111663524906665,0.,-0.993746072799998));
#693=DIRECTION('',(2.77555756156289E-16,1.,0.));
#694=DIRECTION('center_axis',(7.40148683083438E-16,1.,0.));
#695=DIRECTION('ref_axis',(0.707106781186547,-5.23364152894592E-16,0.707106781186548));
#696=DIRECTION('',(-7.40148683083438E-16,-1.,0.));
#697=DIRECTION('center_axis',(0.,0.,1.));
#698=DIRECTION('ref_axis',(1.,0.,0.));
#699=DIRECTION('center_axis',(0.,-1.,0.));
#700=DIRECTION('ref_axis',(-0.707106781186548,0.,0.707106781186548));
#701=DIRECTION('',(0.,1.,0.));
#702=DIRECTION('center_axis',(0.,0.,1.));
#703=DIRECTION('ref_axis',(1.,0.,0.));
#704=DIRECTION('center_axis',(0.,0.,1.));
#705=DIRECTION('ref_axis',(1.,0.,0.));
#706=DIRECTION('',(0.,0.,-1.));
#707=DIRECTION('center_axis',(0.,0.,1.));
#708=DIRECTION('ref_axis',(1.,0.,0.));
#709=DIRECTION('center_axis',(0.,0.,1.));
#710=DIRECTION('ref_axis',(1.,0.,0.));
#711=CARTESIAN_POINT('',(0.,0.,0.));
#712=CARTESIAN_POINT('Origin',(0.,0.,0.));
#713=CARTESIAN_POINT('',(1.5,-1.83697019872103E-16,-2.));
#714=CARTESIAN_POINT('Origin',(0.,0.,-2.));
#715=CARTESIAN_POINT('',(1.5,-1.83697019872103E-16,0.));
#716=CARTESIAN_POINT('',(1.5,-1.83697019872103E-16,0.));
#717=CARTESIAN_POINT('Origin',(0.,0.,0.));
#718=CARTESIAN_POINT('Origin',(0.,0.,-2.));
#719=CARTESIAN_POINT('Ctrl Pts',(5.61693615157614,4.29535391200598,1.));
#720=CARTESIAN_POINT('Ctrl Pts',(5.61693591500558,4.29534991900781,1.));
#721=CARTESIAN_POINT('Ctrl Pts',(5.69091367018113,4.20057505896917,1.));
#722=CARTESIAN_POINT('Ctrl Pts',(6.04126166878211,3.70544583519565,1.));
#723=CARTESIAN_POINT('Ctrl Pts',(6.61369487559926,2.67046209963397,1.));
#724=CARTESIAN_POINT('Ctrl Pts',(7.09140433765316,0.958787684810855,1.));
#725=CARTESIAN_POINT('Ctrl Pts',(7.08891763419594,-0.963377948525052,1.));
#726=CARTESIAN_POINT('Ctrl Pts',(6.61325465591922,-2.67432676425079,1.));
#727=CARTESIAN_POINT('Ctrl Pts',(6.03982141207123,-3.70665906757243,1.));
#728=CARTESIAN_POINT('Ctrl Pts',(5.69055500605557,-4.20120317286163,1.));
#729=CARTESIAN_POINT('Ctrl Pts',(5.61693591500557,-4.29534991900782,1.));
#730=CARTESIAN_POINT('Ctrl Pts',(5.61693615157613,-4.29535391200599,1.));
#731=CARTESIAN_POINT('Ctrl Pts',(5.39032015887524,4.59169042758474,1.));
#732=CARTESIAN_POINT('Ctrl Pts',(5.39032015887524,4.59169042758474,1.05760713980878));
#733=CARTESIAN_POINT('Ctrl Pts',(5.43820387038057,4.47003131821661,1.17110196745695));
#734=CARTESIAN_POINT('Ctrl Pts',(5.66737366650194,3.8642209304341,1.30244192576587));
#735=CARTESIAN_POINT('Ctrl Pts',(6.0567538968683,2.71601940685329,1.29698715986646));
#736=CARTESIAN_POINT('Ctrl Pts',(6.402601319686,0.965521019348407,1.21760508704604));
#737=CARTESIAN_POINT('Ctrl Pts',(6.40100892727762,-0.969968840201504,1.21910141777369));
#738=CARTESIAN_POINT('Ctrl Pts',(6.05608364979356,-2.71915279458587,1.29682386916201));
#739=CARTESIAN_POINT('Ctrl Pts',(5.66638290608246,-3.86620824593401,1.30217554336496));
#740=CARTESIAN_POINT('Ctrl Pts',(5.43802784830943,-4.47090339268838,1.1712391411156));
#741=CARTESIAN_POINT('Ctrl Pts',(5.39032015887524,-4.59169042758475,1.05778281886819));
#742=CARTESIAN_POINT('Ctrl Pts',(5.39032015887524,-4.59169042758475,1.));
#743=CARTESIAN_POINT('Ctrl Pts',(5.09177320603375,5.18500356739849,1.));
#744=CARTESIAN_POINT('Ctrl Pts',(5.09177320603375,5.18500356739849,1.17303916921416));
#745=CARTESIAN_POINT('Ctrl Pts',(5.10313766200868,5.02107363750313,1.51428829429657));
#746=CARTESIAN_POINT('Ctrl Pts',(5.1586192755735,4.23362066496912,1.96726791430582));
#747=CARTESIAN_POINT('Ctrl Pts',(5.25645798306733,2.86348435449573,2.11794560312532));
#748=CARTESIAN_POINT('Ctrl Pts',(5.3493006588984,0.993670061102879,2.05449954824042));
#749=CARTESIAN_POINT('Ctrl Pts',(5.34859559795972,-0.998286262807949,2.0561600108538));
#750=CARTESIAN_POINT('Ctrl Pts',(5.2562630062683,-2.86588432221801,2.11724676693491));
#751=CARTESIAN_POINT('Ctrl Pts',(5.15848129233177,-4.23663687922035,1.96688624443611));
#752=CARTESIAN_POINT('Ctrl Pts',(5.10305839324408,-5.0222557712601,1.51448548932025));
#753=CARTESIAN_POINT('Ctrl Pts',(5.09177320603374,-5.1850035673985,1.17356687044335));
#754=CARTESIAN_POINT('Ctrl Pts',(5.09177320603374,-5.1850035673985,1.));
#755=CARTESIAN_POINT('Ctrl Pts',(5.00000000000001,5.83791892494243,0.999999999999999));
#756=CARTESIAN_POINT('Ctrl Pts',(5.00000000000001,5.83791892494243,1.3000194047481));
#757=CARTESIAN_POINT('Ctrl Pts',(5.00003696657075,5.63596801451255,1.8929894647563));
#758=CARTESIAN_POINT('Ctrl Pts',(5.00006718749673,4.67891863142647,2.74457275012616));
#759=CARTESIAN_POINT('Ctrl Pts',(5.00002742810095,3.07185003530264,3.20292479203844));
#760=CARTESIAN_POINT('Ctrl Pts',(4.99972013795599,1.03774614847358,3.3188960044763));
#761=CARTESIAN_POINT('Ctrl Pts',(4.99983935683796,-1.04300636915846,3.32049588777259));
#762=CARTESIAN_POINT('Ctrl Pts',(5.00002378515926,-3.07366807256965,3.20094189771804));
#763=CARTESIAN_POINT('Ctrl Pts',(5.00002598633174,-4.68276600433193,2.74366044164565));
#764=CARTESIAN_POINT('Ctrl Pts',(5.00005313325125,-5.63734432406647,1.89337866947736));
#765=CARTESIAN_POINT('Ctrl Pts',(5.,-5.83791892494244,1.30093434562181));
#766=CARTESIAN_POINT('Ctrl Pts',(5.,-5.83791892494244,1.));
#767=CARTESIAN_POINT('Ctrl Pts',(5.00000000000001,6.11771255218752,0.999999999999999));
#768=CARTESIAN_POINT('Ctrl Pts',(5.00000000000001,6.11771255218752,1.35443217045208));
#769=CARTESIAN_POINT('Ctrl Pts',(5.,5.89946287967049,2.05528224073332));
#770=CARTESIAN_POINT('Ctrl Pts',(5.,4.86969668433068,3.07764882835224));
#771=CARTESIAN_POINT('Ctrl Pts',(5.,3.16106959703116,3.66764769320197));
#772=CARTESIAN_POINT('Ctrl Pts',(5.,1.05660888694747,3.86012883167794));
#773=CARTESIAN_POINT('Ctrl Pts',(5.,-1.06214658042267,3.86173695229336));
#774=CARTESIAN_POINT('Ctrl Pts',(5.,-3.1626321058069,3.66511322373597));
#775=CARTESIAN_POINT('Ctrl Pts',(5.,-4.87390248890927,3.07649722075355));
#776=CARTESIAN_POINT('Ctrl Pts',(5.,-5.90092219587384,2.05575798839565));
#777=CARTESIAN_POINT('Ctrl Pts',(5.,-6.11771255218753,1.35551304880385));
#778=CARTESIAN_POINT('Ctrl Pts',(5.,-6.11771255218753,1.));
#779=CARTESIAN_POINT('',(5.61693591500557,-4.29534991900782,1.));
#780=CARTESIAN_POINT('',(5.59669758256255,-4.32175278419965,1.00529464862394));
#781=CARTESIAN_POINT('Ctrl Pts',(5.59676515406179,-4.32170292420119,1.00529455075221));
#782=CARTESIAN_POINT('Ctrl Pts',(5.59911004439594,-4.31865961222901,1.00437011955814));
#783=CARTESIAN_POINT('Ctrl Pts',(5.60145361009539,-4.31561214413964,1.003524184253));
#784=CARTESIAN_POINT('Ctrl Pts',(5.60377107678906,-4.31259166382036,1.00278704051838));
#785=CARTESIAN_POINT('Ctrl Pts',(5.60507328772149,-4.31089442152399,1.00237283105742));
#786=CARTESIAN_POINT('Ctrl Pts',(5.60640486220228,-4.3091564295044,1.00198521979725));
#787=CARTESIAN_POINT('Ctrl Pts',(5.60772819862049,-4.30742723460521,1.00163359748477));
#788=CARTESIAN_POINT('Ctrl Pts',(5.60896431559723,-4.3058120087703,1.00130515015733));
#789=CARTESIAN_POINT('Ctrl Pts',(5.61019269159864,-4.30420500755051,1.00100828087903));
#790=CARTESIAN_POINT('Ctrl Pts',(5.61140821950616,-4.30261250972751,1.00075784526322));
#791=CARTESIAN_POINT('Ctrl Pts',(5.6114939861991,-4.30250014433388,1.00074017472317));
#792=CARTESIAN_POINT('Ctrl Pts',(5.61157970242314,-4.30238783387268,1.00072273783205));
#793=CARTESIAN_POINT('Ctrl Pts',(5.61166537290527,-4.30227557227024,1.00070554088377));
#794=CARTESIAN_POINT('Ctrl Pts',(5.61228115187601,-4.30146866267569,1.00058193332553));
#795=CARTESIAN_POINT('Ctrl Pts',(5.61291585393676,-4.30063640626597,1.00046771678961));
#796=CARTESIAN_POINT('Ctrl Pts',(5.6135409625826,-4.29981609698978,1.00036670986313));
#797=CARTESIAN_POINT('Ctrl Pts',(5.61407839982611,-4.2991108359777,1.00027986914432));
#798=CARTESIAN_POINT('Ctrl Pts',(5.61460851805228,-4.29841463397238,1.00020293328402));
#799=CARTESIAN_POINT('Ctrl Pts',(5.61513195942462,-4.29772677698434,1.00014142903689));
#800=CARTESIAN_POINT('Ctrl Pts',(5.6153852295197,-4.29739395345535,1.00011166985593));
#801=CARTESIAN_POINT('Ctrl Pts',(5.61565980858742,-4.29703329372988,1.00008525001005));
#802=CARTESIAN_POINT('Ctrl Pts',(5.61591872600348,-4.29669283929133,1.00006223749765));
#803=CARTESIAN_POINT('Ctrl Pts',(5.61612302656525,-4.29642420138309,1.00004407931701));
#804=CARTESIAN_POINT('Ctrl Pts',(5.61631719768163,-4.29616859147738,1.00002818966087));
#805=CARTESIAN_POINT('Ctrl Pts',(5.61650494808545,-4.29592138790943,1.00001679744908));
#806=CARTESIAN_POINT('Ctrl Pts',(5.61655514049001,-4.29585530154563,1.00001375190302));
#807=CARTESIAN_POINT('Ctrl Pts',(5.61660504006694,-4.29578960353949,1.00001103612832));
#808=CARTESIAN_POINT('Ctrl Pts',(5.61665514861108,-4.2957236561617,1.00000870794748));
#809=CARTESIAN_POINT('Ctrl Pts',(5.616720774869,-4.29563728606859,1.00000565877096));
#810=CARTESIAN_POINT('Ctrl Pts',(5.61678933721489,-4.29554703979602,1.00000300630606));
#811=CARTESIAN_POINT('Ctrl Pts',(5.61685367723777,-4.29546236437685,1.00000138544234));
#812=CARTESIAN_POINT('Ctrl Pts',(5.61686882743767,-4.29544242578389,1.00000100377618));
#813=CARTESIAN_POINT('Ctrl Pts',(5.61689454345976,-4.29540845555411,1.00000030406565));
#814=CARTESIAN_POINT('Ctrl Pts',(5.61691662231477,-4.29537948546687,1.00000010736219));
#815=CARTESIAN_POINT('Ctrl Pts',(5.61693461289095,-4.29535587968834,0.99999994708174));
#816=CARTESIAN_POINT('Ctrl Pts',(5.61694867242372,-4.2953375390029,1.));
#817=CARTESIAN_POINT('Ctrl Pts',(5.61693615157613,-4.29535391200599,1.));
#818=CARTESIAN_POINT('',(5.61693591500558,4.29534991900781,1.));
#819=CARTESIAN_POINT('Origin',(0.,0.,1.));
#820=CARTESIAN_POINT('',(5.59668933729447,4.3217538063153,1.00527755474521));
#821=CARTESIAN_POINT('Ctrl Pts',(5.61693615157614,4.29535391200598,1.));
#822=CARTESIAN_POINT('Ctrl Pts',(5.6169229103978,4.29537122695628,1.));
#823=CARTESIAN_POINT('Ctrl Pts',(5.6168985525046,4.29540302955048,1.00000005281067));
#824=CARTESIAN_POINT('Ctrl Pts',(5.61688288760383,4.29542368313166,1.00000042737758));
#825=CARTESIAN_POINT('Ctrl Pts',(5.61687132622267,4.29543892637693,1.00000070382432));
#826=CARTESIAN_POINT('Ctrl Pts',(5.61686389261953,4.29544887082883,1.00000113484637));
#827=CARTESIAN_POINT('Ctrl Pts',(5.61685429077243,4.29546150088247,1.00000137700567));
#828=CARTESIAN_POINT('Ctrl Pts',(5.61678956761054,4.2955466362734,1.00000300932858));
#829=CARTESIAN_POINT('Ctrl Pts',(5.61672051787287,4.29563747691826,1.00000569358317));
#830=CARTESIAN_POINT('Ctrl Pts',(5.61665444680776,4.29572438683126,1.00000877948261));
#831=CARTESIAN_POINT('Ctrl Pts',(5.6164677345458,4.29596998823661,1.00001750002106));
#832=CARTESIAN_POINT('Ctrl Pts',(5.6162810805862,4.29621571920047,1.00003151868161));
#833=CARTESIAN_POINT('Ctrl Pts',(5.61608223595707,4.29647715787557,1.00004824337019));
#834=CARTESIAN_POINT('Ctrl Pts',(5.61583932076384,4.29679654003115,1.0000686748044));
#835=CARTESIAN_POINT('Ctrl Pts',(5.61557916839958,4.29713819594658,1.00009294026131));
#836=CARTESIAN_POINT('Ctrl Pts',(5.61532744469076,4.29746876844421,1.00011986105447));
#837=CARTESIAN_POINT('Ctrl Pts',(5.61526325121199,4.29755306959608,1.00012672627735));
#838=CARTESIAN_POINT('Ctrl Pts',(5.61519976788515,4.29763643897431,1.00013378791492));
#839=CARTESIAN_POINT('Ctrl Pts',(5.61513771353148,4.29771793985631,1.00014107565633));
#840=CARTESIAN_POINT('Ctrl Pts',(5.61456425658649,4.29847110613788,1.00020842316178));
#841=CARTESIAN_POINT('Ctrl Pts',(5.6139821365576,4.29923509612645,1.0002942472698));
#842=CARTESIAN_POINT('Ctrl Pts',(5.61339176627473,4.30000927491413,1.0003913991803));
#843=CARTESIAN_POINT('Ctrl Pts',(5.6128172012205,4.30076272760313,1.00048595016694));
#844=CARTESIAN_POINT('Ctrl Pts',(5.61223576491908,4.30152467849544,1.00059118542451));
#845=CARTESIAN_POINT('Ctrl Pts',(5.61167047777851,4.3022649975164,1.00070434664815));
#846=CARTESIAN_POINT('Ctrl Pts',(5.61045879957645,4.30385185197653,1.00094690477155));
#847=CARTESIAN_POINT('Ctrl Pts',(5.60923457511851,4.30545280184627,1.00123669994972));
#848=CARTESIAN_POINT('Ctrl Pts',(5.60800064008712,4.30706455787403,1.00155852483271));
#849=CARTESIAN_POINT('Ctrl Pts',(5.60658506078711,4.30891357618661,1.00192772469413));
#850=CARTESIAN_POINT('Ctrl Pts',(5.60515711364611,4.31077654558711,1.00233869829181));
#851=CARTESIAN_POINT('Ctrl Pts',(5.60376197247506,4.31259402396223,1.00277962358973));
#852=CARTESIAN_POINT('Ctrl Pts',(5.60144581840975,4.31561132430033,1.00351162902579));
#853=CARTESIAN_POINT('Ctrl Pts',(5.59910222065914,4.31865760251739,1.00435070982311));
#854=CARTESIAN_POINT('Ctrl Pts',(5.59675639717894,4.32170123878939,1.00526706352359));
#855=CARTESIAN_POINT('',(5.,1.50648366217362,3.80287076402763));
#856=CARTESIAN_POINT('Ctrl Pts',(5.59657898754301,4.32184030830475,1.0052948184746));
#857=CARTESIAN_POINT('Ctrl Pts',(5.59814869583736,4.31969666340586,1.00542234725996));
#858=CARTESIAN_POINT('Ctrl Pts',(5.59971785595902,4.31755369210958,1.00555214526382));
#859=CARTESIAN_POINT('Ctrl Pts',(5.60978815528214,4.30379259168879,1.00640047006446));
#860=CARTESIAN_POINT('Ctrl Pts',(5.61812148049671,4.29235737536085,1.00717114442065));
#861=CARTESIAN_POINT('Ctrl Pts',(5.64178621938344,4.25944979619572,1.00958473225219));
#862=CARTESIAN_POINT('Ctrl Pts',(5.65643746332707,4.23859984655108,1.01133342709249));
#863=CARTESIAN_POINT('Ctrl Pts',(5.73213005224057,4.12761092311469,1.02183918521391));
#864=CARTESIAN_POINT('Ctrl Pts',(5.78761819847675,4.03492685018755,1.03464006418541));
#865=CARTESIAN_POINT('Ctrl Pts',(5.89955042717687,3.80103260170625,1.07921171840197));
#866=CARTESIAN_POINT('Ctrl Pts',(5.94396012212512,3.66072014707425,1.11568458483222));
#867=CARTESIAN_POINT('Ctrl Pts',(5.97759283881862,3.37807240477375,1.21388890478048));
#868=CARTESIAN_POINT('Ctrl Pts',(5.96858097151034,3.2461752169903,1.27079982455993));
#869=CARTESIAN_POINT('Ctrl Pts',(5.90517459495666,2.94306497064716,1.42801341227918));
#870=CARTESIAN_POINT('Ctrl Pts',(5.8360461968574,2.77947645198449,1.53530032357764));
#871=CARTESIAN_POINT('Ctrl Pts',(5.62522379047874,2.37306934749398,1.8583769824033));
#872=CARTESIAN_POINT('Ctrl Pts',(5.4445970379072,2.1229272430563,2.12763621752065));
#873=CARTESIAN_POINT('Ctrl Pts',(5.20523700367346,1.80322515283404,2.6656221380903));
#874=CARTESIAN_POINT('Ctrl Pts',(5.13015977097335,1.70616950825456,2.88077018185728));
#875=CARTESIAN_POINT('Ctrl Pts',(5.02781539133848,1.56571989479142,3.333503545766));
#876=CARTESIAN_POINT('Ctrl Pts',(5.,1.52212464816754,3.56535375331236));
#877=CARTESIAN_POINT('Ctrl Pts',(5.,1.50648366225971,3.80287076401001));
#878=CARTESIAN_POINT('',(5.,-1.50648366216064,3.80287076403029));
#879=CARTESIAN_POINT('Ctrl Pts',(5.,1.50744204370324,3.80252928052486));
#880=CARTESIAN_POINT('Ctrl Pts',(5.,1.35652396726332,3.81295068508885));
#881=CARTESIAN_POINT('Ctrl Pts',(5.,0.5020726007502,3.8605497208497));
#882=CARTESIAN_POINT('Ctrl Pts',(5.,-0.505611695172654,3.86131454619886));
#883=CARTESIAN_POINT('Ctrl Pts',(5.,-1.3571076228612,3.81343326436275));
#884=CARTESIAN_POINT('Ctrl Pts',(5.,-1.50585982694203,3.80307910057072));
#885=CARTESIAN_POINT('Ctrl Pts',(5.,-1.50648366225972,3.80287076401002));
#886=CARTESIAN_POINT('Ctrl Pts',(5.,-1.52521653502712,3.51840174346914));
#887=CARTESIAN_POINT('Ctrl Pts',(5.03990145625421,-1.58392917286283,3.2429513033355));
#888=CARTESIAN_POINT('Ctrl Pts',(5.19251131854276,-1.78860808947814,2.67518265697479));
#889=CARTESIAN_POINT('Ctrl Pts',(5.31519049640931,-1.94485020277521,2.39800427082701));
#890=CARTESIAN_POINT('Ctrl Pts',(5.62005038509024,-2.37602756993032,1.84528602938607));
#891=CARTESIAN_POINT('Ctrl Pts',(5.80028137755425,-2.65939122020713,1.60661915378368));
#892=CARTESIAN_POINT('Ctrl Pts',(5.95718783192353,-3.13492021245454,1.31996948173651));
#893=CARTESIAN_POINT('Ctrl Pts',(5.9739874943098,-3.29124099430864,1.25053228668292));
#894=CARTESIAN_POINT('Ctrl Pts',(5.96235035203038,-3.57331718973448,1.1423204357639));
#895=CARTESIAN_POINT('Ctrl Pts',(5.9280798192583,-3.7174039323882,1.10016371957723));
#896=CARTESIAN_POINT('Ctrl Pts',(5.8240843750918,-3.96775820440949,1.04555790965655));
#897=CARTESIAN_POINT('Ctrl Pts',(5.76715303769292,-4.07058334093856,1.02923038302898));
#898=CARTESIAN_POINT('Ctrl Pts',(5.67538121435314,-4.21168482527471,1.01358235142085));
#899=CARTESIAN_POINT('Ctrl Pts',(5.64770841238907,-4.25152374630423,1.01000532417988));
#900=CARTESIAN_POINT('Ctrl Pts',(5.61044292776918,-4.30289712539871,1.00646849557814));
#901=CARTESIAN_POINT('Ctrl Pts',(5.60400725639647,-4.31169563668021,1.00590278527569));
#902=CARTESIAN_POINT('Ctrl Pts',(5.59726483501059,-4.32090368943268,1.00535064969476));
#903=CARTESIAN_POINT('Ctrl Pts',(5.59692201232864,-4.32137186245734,1.00532268705519));
#904=CARTESIAN_POINT('Ctrl Pts',(5.59657901081289,-4.32184027652664,1.00529482036513));
#905=CARTESIAN_POINT('Origin',(5.,-1.5,1.));
#906=CARTESIAN_POINT('',(5.,1.5,4.));
#907=CARTESIAN_POINT('Origin',(5.,4.5,4.));
#908=CARTESIAN_POINT('',(5.,1.5,7.));
#909=CARTESIAN_POINT('',(5.,1.5,1.));
#910=CARTESIAN_POINT('',(5.,-1.5,7.));
#911=CARTESIAN_POINT('',(5.,-0.750000000000003,7.));
#912=CARTESIAN_POINT('',(5.,-1.5,4.));
#913=CARTESIAN_POINT('',(5.,-1.5,1.));
#914=CARTESIAN_POINT('Origin',(5.,-4.5,4.));
#915=CARTESIAN_POINT('Origin',(0.,0.,1.));
#916=CARTESIAN_POINT('',(5.45435605731786,4.5,1.));
#917=CARTESIAN_POINT('',(0.,4.5,1.));
#918=CARTESIAN_POINT('',(2.5,4.5,1.));
#919=CARTESIAN_POINT('',(-5.45435605731785,4.5,1.));
#920=CARTESIAN_POINT('Origin',(0.,0.,1.));
#921=CARTESIAN_POINT('',(2.5,4.5,1.));
#922=CARTESIAN_POINT('Origin',(2.5,4.5,4.));
#923=CARTESIAN_POINT('',(3.,1.5,4.));
#924=CARTESIAN_POINT('',(2.5,1.5,4.));
#925=CARTESIAN_POINT('Ctrl Pts',(5.59657898673392,4.3218403076986,1.00529481851067));
#926=CARTESIAN_POINT('Ctrl Pts',(5.54993107764008,4.38224714580981,1.00170112128888));
#927=CARTESIAN_POINT('Ctrl Pts',(5.50256039240995,4.44157253175588,1.));
#928=CARTESIAN_POINT('Ctrl Pts',(5.45435605731786,4.5,1.));
#929=CARTESIAN_POINT('Origin',(5.55111512312578E-16,4.5,4.));
#930=CARTESIAN_POINT('Origin',(-2.5,-4.5,4.));
#931=CARTESIAN_POINT('',(-2.00897499694076E-15,-4.5,1.));
#932=CARTESIAN_POINT('',(5.45435605731834,-4.49999999999941,1.));
#933=CARTESIAN_POINT('',(-2.5,-4.5,1.));
#934=CARTESIAN_POINT('Ctrl Pts',(5.45435605731834,-4.49999999999941,1.));
#935=CARTESIAN_POINT('Ctrl Pts',(5.50256414220118,-4.4415679867122,1.00000000000001));
#936=CARTESIAN_POINT('Ctrl Pts',(5.54993600645567,-4.38224076392203,1.00170150032635));
#937=CARTESIAN_POINT('Ctrl Pts',(5.5965790108084,-4.32184027652328,1.00529482036533));
#938=CARTESIAN_POINT('',(3.,-1.5,4.));
#939=CARTESIAN_POINT('',(-2.5,-1.5,4.));
#940=CARTESIAN_POINT('Origin',(-1.53316512924426E-15,-4.5,4.));
#941=CARTESIAN_POINT('Origin',(5.,1.5,1.));
#942=CARTESIAN_POINT('',(3.,1.5,8.));
#943=CARTESIAN_POINT('',(3.,1.5,4.5));
#944=CARTESIAN_POINT('',(0.5,1.5,10.));
#945=CARTESIAN_POINT('Origin',(3.33499057472,1.5,10.9812382184));
#946=CARTESIAN_POINT('',(2.,1.5,10.));
#947=CARTESIAN_POINT('',(5.,1.5,10.));
#948=CARTESIAN_POINT('Origin',(2.,1.5,7.));
#949=CARTESIAN_POINT('Origin',(3.,-1.5,8.));
#950=CARTESIAN_POINT('',(3.,-0.750000000000001,4.));
#951=CARTESIAN_POINT('',(3.,-1.5,8.));
#952=CARTESIAN_POINT('',(3.,-1.5,4.5));
#953=CARTESIAN_POINT('',(3.,-1.5,8.));
#954=CARTESIAN_POINT('Origin',(-5.,-1.5,1.));
#955=CARTESIAN_POINT('',(2.,-1.5,10.));
#956=CARTESIAN_POINT('Origin',(2.,-1.5,7.));
#957=CARTESIAN_POINT('',(0.499999999999999,-1.5,10.));
#958=CARTESIAN_POINT('',(-5.,-1.5,10.));
#959=CARTESIAN_POINT('Origin',(3.33499057471999,-1.5,10.9812382184));
#960=CARTESIAN_POINT('Ctrl Pts',(-5.61693615157613,-4.29535391200598,1.));
#961=CARTESIAN_POINT('Ctrl Pts',(-5.61693591500558,-4.29534991900782,1.));
#962=CARTESIAN_POINT('Ctrl Pts',(-5.69092417795391,-4.20044257380652,1.));
#963=CARTESIAN_POINT('Ctrl Pts',(-6.04126123493797,-3.70485842359026,1.));
#964=CARTESIAN_POINT('Ctrl Pts',(-6.6138155988433,-2.67113736081338,1.));
#965=CARTESIAN_POINT('Ctrl Pts',(-7.09141336685164,-0.958708294272201,1.));
#966=CARTESIAN_POINT('Ctrl Pts',(-7.08892856118577,0.963299859689507,1.));
#967=CARTESIAN_POINT('Ctrl Pts',(-6.61325540668163,2.67435221870363,1.));
#968=CARTESIAN_POINT('Ctrl Pts',(-6.03982240780537,3.70664906768983,1.));
#969=CARTESIAN_POINT('Ctrl Pts',(-5.69055514072235,4.20120687879578,1.));
#970=CARTESIAN_POINT('Ctrl Pts',(-5.61693591500558,4.29534991900782,1.));
#971=CARTESIAN_POINT('Ctrl Pts',(-5.61693615157613,4.29535391200598,1.));
#972=CARTESIAN_POINT('Ctrl Pts',(-5.39032015887524,-4.59169042758474,1.));
#973=CARTESIAN_POINT('Ctrl Pts',(-5.39032015887524,-4.59169042758474,1.05760713980878));
#974=CARTESIAN_POINT('Ctrl Pts',(-5.43828224444201,-4.47000447055364,1.17119383445349));
#975=CARTESIAN_POINT('Ctrl Pts',(-5.6673954006344,-3.86411735602301,1.30232558377906));
#976=CARTESIAN_POINT('Ctrl Pts',(-6.05661396139083,-2.7158635218913,1.29689432079685));
#977=CARTESIAN_POINT('Ctrl Pts',(-6.40264996792391,-0.965501085414303,1.21766155124458));
#978=CARTESIAN_POINT('Ctrl Pts',(-6.4009865593419,0.969982409044908,1.21908148129182));
#979=CARTESIAN_POINT('Ctrl Pts',(-6.05609663433676,2.71915555496596,1.29683835751435));
#980=CARTESIAN_POINT('Ctrl Pts',(-5.66637950456087,3.86620931254192,1.30217223551339));
#981=CARTESIAN_POINT('Ctrl Pts',(-5.43802977246042,4.47090383675534,1.17124129786555));
#982=CARTESIAN_POINT('Ctrl Pts',(-5.39032015887524,4.59169042758474,1.05778281886819));
#983=CARTESIAN_POINT('Ctrl Pts',(-5.39032015887524,4.59169042758474,1.));
#984=CARTESIAN_POINT('Ctrl Pts',(-5.09177320603374,-5.18500356739849,1.));
#985=CARTESIAN_POINT('Ctrl Pts',(-5.09177320603374,-5.18500356739849,1.17303916921416));
#986=CARTESIAN_POINT('Ctrl Pts',(-5.10311932697121,-5.02114032238671,1.51436352529737));
#987=CARTESIAN_POINT('Ctrl Pts',(-5.15873447458822,-4.23406128211595,1.96764273113315));
#988=CARTESIAN_POINT('Ctrl Pts',(-5.25638650065667,-2.86241055055589,2.11737078695478));
#989=CARTESIAN_POINT('Ctrl Pts',(-5.34928883830239,-0.993697223608248,2.05454805120745));
#990=CARTESIAN_POINT('Ctrl Pts',(-5.34859113795052,0.99839787778151,2.05609571252835));
#991=CARTESIAN_POINT('Ctrl Pts',(-5.25626087225102,2.86586639517663,2.11726413732944));
#992=CARTESIAN_POINT('Ctrl Pts',(-5.15848105950181,4.23664944622756,1.96687834565338));
#993=CARTESIAN_POINT('Ctrl Pts',(-5.10305806131033,5.02225326974207,1.51448799722211));
#994=CARTESIAN_POINT('Ctrl Pts',(-5.09177320603374,5.18500356739849,1.17356687044335));
#995=CARTESIAN_POINT('Ctrl Pts',(-5.09177320603374,5.18500356739849,1.));
#996=CARTESIAN_POINT('Ctrl Pts',(-5.,-5.83791892494244,1.));
#997=CARTESIAN_POINT('Ctrl Pts',(-5.,-5.83791892494244,1.3000194047481));
#998=CARTESIAN_POINT('Ctrl Pts',(-5.00005339490628,-5.63606673512173,1.89321702784568));
#999=CARTESIAN_POINT('Ctrl Pts',(-5.00002990530764,-4.67967424413351,2.74546265185441));
#1000=CARTESIAN_POINT('Ctrl Pts',(-5.00003221591382,-3.07020578753434,3.2014599296235));
#1001=CARTESIAN_POINT('Ctrl Pts',(-4.99972993169908,-1.03778781748667,3.31903572501798));
#1002=CARTESIAN_POINT('Ctrl Pts',(-4.99983791312156,1.04317663706252,3.32032881067762));
#1003=CARTESIAN_POINT('Ctrl Pts',(-5.00002608605164,3.07364072274805,3.20099004578673));
#1004=CARTESIAN_POINT('Ctrl Pts',(-5.00002562875708,4.68278517399116,2.74363963267009));
#1005=CARTESIAN_POINT('Ctrl Pts',(-5.00005347908162,5.63734050775623,1.89338564249325));
#1006=CARTESIAN_POINT('Ctrl Pts',(-5.,5.83791892494244,1.30093434562182));
#1007=CARTESIAN_POINT('Ctrl Pts',(-5.,5.83791892494244,1.));
#1008=CARTESIAN_POINT('Ctrl Pts',(-5.,-6.11771255218753,1.));
#1009=CARTESIAN_POINT('Ctrl Pts',(-5.,-6.11771255218753,1.35443217045208));
#1010=CARTESIAN_POINT('Ctrl Pts',(-5.,-5.89957561776802,2.05557962031129));
#1011=CARTESIAN_POINT('Ctrl Pts',(-5.,-4.87058853183796,3.07874810676782));
#1012=CARTESIAN_POINT('Ctrl Pts',(-5.,-3.15917814829575,3.66580351070708));
#1013=CARTESIAN_POINT('Ctrl Pts',(-5.,-1.05665703464388,3.86031040373912));
#1014=CARTESIAN_POINT('Ctrl Pts',(-5.,1.06234229977137,3.86152549384499));
#1015=CARTESIAN_POINT('Ctrl Pts',(-5.,3.16260062707083,3.665175202678));
#1016=CARTESIAN_POINT('Ctrl Pts',(-5.,4.87392452744674,3.07647078598016));
#1017=CARTESIAN_POINT('Ctrl Pts',(-5.,5.9009178029629,2.05576697142418));
#1018=CARTESIAN_POINT('Ctrl Pts',(-5.,6.11771255218753,1.35551304880386));
#1019=CARTESIAN_POINT('Ctrl Pts',(-5.,6.11771255218753,1.));
#1020=CARTESIAN_POINT('',(-5.61693591500558,4.29534991900782,1.));
#1021=CARTESIAN_POINT('',(-5.59657901081065,4.32184027652496,1.00529482036513));
#1022=CARTESIAN_POINT('Ctrl Pts',(-5.59657901081717,4.32184027651192,1.00529482042486));
#1023=CARTESIAN_POINT('Ctrl Pts',(-5.59971512113584,4.31777916178714,1.00406612394599));
#1024=CARTESIAN_POINT('Ctrl Pts',(-5.60287896936647,4.31367283918685,1.00297095622659));
#1025=CARTESIAN_POINT('Ctrl Pts',(-5.60819954387868,4.30675179006911,1.00145004950059));
#1026=CARTESIAN_POINT('Ctrl Pts',(-5.61048151191455,4.30377860749638,1.00089414515428));
#1027=CARTESIAN_POINT('Ctrl Pts',(-5.61362431512336,4.29967724890977,1.00033594968918));
#1028=CARTESIAN_POINT('Ctrl Pts',(-5.61460405507886,4.29839780026588,1.00018981437055));
#1029=CARTESIAN_POINT('Ctrl Pts',(-5.61581827343983,4.2968110660806,1.00006620127263));
#1030=CARTESIAN_POINT('Ctrl Pts',(-5.61611075733032,4.29642877001571,1.00004081557291));
#1031=CARTESIAN_POINT('Ctrl Pts',(-5.61655371232756,4.29584967931931,1.0000127350434));
#1032=CARTESIAN_POINT('Ctrl Pts',(-5.61672697964751,4.29562313225766,1.00000403588076));
#1033=CARTESIAN_POINT('Ctrl Pts',(-5.61689439667948,4.29540421121439,1.00000044522686));
#1034=CARTESIAN_POINT('Ctrl Pts',(-5.61695667436386,4.2953227724453,1.));
#1035=CARTESIAN_POINT('Ctrl Pts',(-5.61693591500558,4.29534991900782,1.));
#1036=CARTESIAN_POINT('',(-7.07106781186547,-8.65956056235493E-16,1.));
#1037=CARTESIAN_POINT('Origin',(0.,0.,1.));
#1038=CARTESIAN_POINT('',(-5.61693591500558,-4.29534991900782,1.));
#1039=CARTESIAN_POINT('Origin',(0.,0.,1.));
#1040=CARTESIAN_POINT('',(-5.59668741421819,-4.32174933037393,1.00527851235861));
#1041=CARTESIAN_POINT('Ctrl Pts',(-5.61693615157613,-4.29535391200598,1.));
#1042=CARTESIAN_POINT('Ctrl Pts',(-5.616925981708,-4.29536721072886,1.));
#1043=CARTESIAN_POINT('Ctrl Pts',(-5.61690694707948,-4.29539206108991,1.00000005010429));
#1044=CARTESIAN_POINT('Ctrl Pts',(-5.61689575334262,-4.29540682850882,1.00000031619324));
#1045=CARTESIAN_POINT('Ctrl Pts',(-5.61688912292846,-4.29541557573101,1.00000047380636));
#1046=CARTESIAN_POINT('Ctrl Pts',(-5.61688447492278,-4.29542177016685,1.00000068764329));
#1047=CARTESIAN_POINT('Ctrl Pts',(-5.61687855740222,-4.29542954967743,1.00000081287518));
#1048=CARTESIAN_POINT('Ctrl Pts',(-5.61681518611049,-4.29551286119777,1.00000215399548));
#1049=CARTESIAN_POINT('Ctrl Pts',(-5.61675232250619,-4.295595695591,1.00000484710456));
#1050=CARTESIAN_POINT('Ctrl Pts',(-5.61668168468504,-4.29568856796306,1.0000080399818));
#1051=CARTESIAN_POINT('Ctrl Pts',(-5.61660621870346,-4.29578778824767,1.00001145109516));
#1052=CARTESIAN_POINT('Ctrl Pts',(-5.61652336689919,-4.29589656825556,1.00001538693478));
#1053=CARTESIAN_POINT('Ctrl Pts',(-5.61644891960554,-4.29599443439143,1.0000199552865));
#1054=CARTESIAN_POINT('Ctrl Pts',(-5.61622916286231,-4.2962833198866,1.00003344034481));
#1055=CARTESIAN_POINT('Ctrl Pts',(-5.61600274257566,-4.29658088536067,1.00005200519248));
#1056=CARTESIAN_POINT('Ctrl Pts',(-5.6157775555027,-4.29687668395886,1.00007311000537));
#1057=CARTESIAN_POINT('Ctrl Pts',(-5.61572711120353,-4.29694294599062,1.00007783770791));
#1058=CARTESIAN_POINT('Ctrl Pts',(-5.61567685709099,-4.29700895384035,1.00008270327271));
#1059=CARTESIAN_POINT('Ctrl Pts',(-5.61562707514627,-4.29707434000654,1.00008769722415));
#1060=CARTESIAN_POINT('Ctrl Pts',(-5.61516700434393,-4.29767862065702,1.00013384992587));
#1061=CARTESIAN_POINT('Ctrl Pts',(-5.61469928895788,-4.29829259738929,1.00019400953218));
#1062=CARTESIAN_POINT('Ctrl Pts',(-5.614223978895,-4.29891607429167,1.00026245455005));
#1063=CARTESIAN_POINT('Ctrl Pts',(-5.6137882361294,-4.29948764971359,1.00032520184642));
#1064=CARTESIAN_POINT('Ctrl Pts',(-5.61334710726643,-4.3000659640468,1.00039490635483));
#1065=CARTESIAN_POINT('Ctrl Pts',(-5.6129189081657,-4.30062706677867,1.00046986302384));
#1066=CARTESIAN_POINT('Ctrl Pts',(-5.61191721194945,-4.30193966758163,1.00064521092065));
#1067=CARTESIAN_POINT('Ctrl Pts',(-5.61090395951139,-4.30326576177572,1.0008577350208));
#1068=CARTESIAN_POINT('Ctrl Pts',(-5.6098812274475,-4.30460288746043,1.00109491056064));
#1069=CARTESIAN_POINT('Ctrl Pts',(-5.60875312269843,-4.30607777798971,1.00135652243563));
#1070=CARTESIAN_POINT('Ctrl Pts',(-5.60761408541096,-4.30756549551452,1.00164787765437));
#1071=CARTESIAN_POINT('Ctrl Pts',(-5.60650232161133,-4.30901582542412,1.00196069437974));
#1072=CARTESIAN_POINT('Ctrl Pts',(-5.60450819416509,-4.31161722572136,1.00252178156203));
#1073=CARTESIAN_POINT('Ctrl Pts',(-5.60249652903643,-4.31423596928067,1.00317258680282));
#1074=CARTESIAN_POINT('Ctrl Pts',(-5.60047515972044,-4.3168632237095,1.00388690505485));
#1075=CARTESIAN_POINT('Ctrl Pts',(-5.59923653769884,-4.31847311021869,1.00432461344906));
#1076=CARTESIAN_POINT('Ctrl Pts',(-5.59799502581456,-4.32008523675649,1.00478633915505));
#1077=CARTESIAN_POINT('Ctrl Pts',(-5.59675789970437,-4.32169018788269,1.00526791215796));
#1078=CARTESIAN_POINT('',(-5.,-1.50648366217362,3.80287076402763));
#1079=CARTESIAN_POINT('Ctrl Pts',(-5.59657898754299,-4.32184030830478,1.0052948184746));
#1080=CARTESIAN_POINT('Ctrl Pts',(-5.59814869583733,-4.31969666340589,1.00542234725995));
#1081=CARTESIAN_POINT('Ctrl Pts',(-5.599717855959,-4.31755369210961,1.00555214526382));
#1082=CARTESIAN_POINT('Ctrl Pts',(-5.60978815528222,-4.30379259168869,1.00640047006447));
#1083=CARTESIAN_POINT('Ctrl Pts',(-5.61812148049674,-4.2923573753608,1.00717114442065));
#1084=CARTESIAN_POINT('Ctrl Pts',(-5.64178621938346,-4.25944979619569,1.00958473225219));
#1085=CARTESIAN_POINT('Ctrl Pts',(-5.6564374633271,-4.23859984655103,1.01133342709249));
#1086=CARTESIAN_POINT('Ctrl Pts',(-5.73213005224062,-4.12761092311461,1.02183918521392));
#1087=CARTESIAN_POINT('Ctrl Pts',(-5.7876181984768,-4.03492685018747,1.03464006418542));
#1088=CARTESIAN_POINT('Ctrl Pts',(-5.89955042717691,-3.80103260170614,1.079211718402));
#1089=CARTESIAN_POINT('Ctrl Pts',(-5.94396012212516,-3.66072014707412,1.11568458483226));
#1090=CARTESIAN_POINT('Ctrl Pts',(-5.97759283881862,-3.3780724047736,1.21388890478055));
#1091=CARTESIAN_POINT('Ctrl Pts',(-5.96858097151032,-3.24617521699016,1.27079982455999));
#1092=CARTESIAN_POINT('Ctrl Pts',(-5.9051745949566,-2.94306497064698,1.42801341227928));
#1093=CARTESIAN_POINT('Ctrl Pts',(-5.83604619685731,-2.77947645198429,1.53530032357777));
#1094=CARTESIAN_POINT('Ctrl Pts',(-5.62522379047858,-2.37306934749373,1.85837698240354));
#1095=CARTESIAN_POINT('Ctrl Pts',(-5.444597037907,-2.12292724305601,2.12763621752099));
#1096=CARTESIAN_POINT('Ctrl Pts',(-5.2052370036733,-1.80322515283384,2.66562213809073));
#1097=CARTESIAN_POINT('Ctrl Pts',(-5.13015977097325,-1.70616950825443,2.88077018185763));
#1098=CARTESIAN_POINT('Ctrl Pts',(-5.02781539133846,-1.5657198947914,3.33350354576618));
#1099=CARTESIAN_POINT('Ctrl Pts',(-5.,-1.52212464816754,3.56535375331245));
#1100=CARTESIAN_POINT('Ctrl Pts',(-5.,-1.50648366225971,3.80287076401001));
#1101=CARTESIAN_POINT('',(-5.,1.50648366216064,3.80287076403029));
#1102=CARTESIAN_POINT('Ctrl Pts',(-5.,-1.5069060947766,3.80208972206752));
#1103=CARTESIAN_POINT('Ctrl Pts',(-5.,-1.35606998675203,3.81259361034889));
#1104=CARTESIAN_POINT('Ctrl Pts',(-5.,-0.502056921767408,3.86062842607114));
#1105=CARTESIAN_POINT('Ctrl Pts',(-5.,0.505743357805014,3.86120632533166));
#1106=CARTESIAN_POINT('Ctrl Pts',(-5.,1.35722248103468,3.81332942485299));
#1107=CARTESIAN_POINT('Ctrl Pts',(-5.,1.50596942830072,3.8029793583349));
#1108=CARTESIAN_POINT('Ctrl Pts',(-5.,1.50648366225972,3.80287076401001));
#1109=CARTESIAN_POINT('Ctrl Pts',(-5.,1.52521653502712,3.51840174346914));
#1110=CARTESIAN_POINT('Ctrl Pts',(-5.03990145625421,1.58392917286282,3.24295130333552));
#1111=CARTESIAN_POINT('Ctrl Pts',(-5.19251131854276,1.78860808947814,2.67518265697479));
#1112=CARTESIAN_POINT('Ctrl Pts',(-5.31519049640931,1.94485020277521,2.398004270827));
#1113=CARTESIAN_POINT('Ctrl Pts',(-5.62005038509024,2.37602756993032,1.84528602938606));
#1114=CARTESIAN_POINT('Ctrl Pts',(-5.80028137755425,2.65939122020713,1.60661915378368));
#1115=CARTESIAN_POINT('Ctrl Pts',(-5.95718783192368,3.13492021245497,1.31996948173625));
#1116=CARTESIAN_POINT('Ctrl Pts',(-5.97398749430978,3.29124099430913,1.25053228668273));
#1117=CARTESIAN_POINT('Ctrl Pts',(-5.96235035203038,3.57331718973448,1.14232043576389));
#1118=CARTESIAN_POINT('Ctrl Pts',(-5.9280798192583,3.71740393238821,1.10016371957723));
#1119=CARTESIAN_POINT('Ctrl Pts',(-5.8240843750918,3.96775820440949,1.04555790965655));
#1120=CARTESIAN_POINT('Ctrl Pts',(-5.76715303769293,4.07058334093854,1.02923038302898));
#1121=CARTESIAN_POINT('Ctrl Pts',(-5.67538121435314,4.21168482527472,1.01358235142084));
#1122=CARTESIAN_POINT('Ctrl Pts',(-5.64770841238904,4.25152374630427,1.01000532417987));
#1123=CARTESIAN_POINT('Ctrl Pts',(-5.61044292776919,4.30289712539869,1.00646849557814));
#1124=CARTESIAN_POINT('Ctrl Pts',(-5.60400725639655,4.3116956366801,1.00590278527569));
#1125=CARTESIAN_POINT('Ctrl Pts',(-5.59726483501059,4.32090368943268,1.00535064969476));
#1126=CARTESIAN_POINT('Ctrl Pts',(-5.59692201232865,4.32137186245732,1.00532268705519));
#1127=CARTESIAN_POINT('Ctrl Pts',(-5.59657901081291,4.32184027652662,1.00529482036514));
#1128=CARTESIAN_POINT('Origin',(0.,0.,1.));
#1129=CARTESIAN_POINT('',(-5.45435605731723,-4.50000000000076,1.));
#1130=CARTESIAN_POINT('',(-2.5,-4.5,1.));
#1131=CARTESIAN_POINT('Origin',(0.,0.,1.));
#1132=CARTESIAN_POINT('Origin',(-5.,1.5,1.));
#1133=CARTESIAN_POINT('',(-5.,-1.5,4.));
#1134=CARTESIAN_POINT('Origin',(-5.,-4.5,4.));
#1135=CARTESIAN_POINT('',(-5.,-1.5,7.));
#1136=CARTESIAN_POINT('',(-5.,-1.5,1.));
#1137=CARTESIAN_POINT('',(-5.,1.5,7.));
#1138=CARTESIAN_POINT('',(-5.,0.75,7.));
#1139=CARTESIAN_POINT('',(-5.,1.5,4.));
#1140=CARTESIAN_POINT('',(-5.,1.5,1.));
#1141=CARTESIAN_POINT('Origin',(-5.,4.5,4.));
#1142=CARTESIAN_POINT('Origin',(-2.5,-4.5,4.));
#1143=CARTESIAN_POINT('',(-3.,-1.5,4.));
#1144=CARTESIAN_POINT('',(-2.5,-1.5,4.));
#1145=CARTESIAN_POINT('Ctrl Pts',(-5.5965789867339,-4.32184030769862,1.00529481851066));
#1146=CARTESIAN_POINT('Ctrl Pts',(-5.54993107763987,-4.38224714581008,1.00170112128886));
#1147=CARTESIAN_POINT('Ctrl Pts',(-5.50256039240953,-4.4415725317564,0.999999999999985));
#1148=CARTESIAN_POINT('Ctrl Pts',(-5.45435605731723,-4.50000000000076,1.));
#1149=CARTESIAN_POINT('Origin',(-1.94289029309402E-15,-4.5,4.));
#1150=CARTESIAN_POINT('Origin',(-1.08378914308646E-15,-0.75,4.));
#1151=CARTESIAN_POINT('',(-3.,1.5,4.));
#1152=CARTESIAN_POINT('Origin',(2.11471052309554E-16,4.5,4.));
#1153=CARTESIAN_POINT('',(-3.,-0.75,4.));
#1154=CARTESIAN_POINT('Origin',(2.5,4.5,4.));
#1155=CARTESIAN_POINT('Ctrl Pts',(-5.45435605731786,4.5,1.));
#1156=CARTESIAN_POINT('Ctrl Pts',(-5.50256414220087,4.44156798671259,1.));
#1157=CARTESIAN_POINT('Ctrl Pts',(-5.54993600645552,4.38224076392222,1.00170150032634));
#1158=CARTESIAN_POINT('Ctrl Pts',(-5.59657901080842,4.32184027652325,1.00529482036534));
#1159=CARTESIAN_POINT('',(2.5,1.5,4.));
#1160=CARTESIAN_POINT('Origin',(-5.,-1.5,1.));
#1161=CARTESIAN_POINT('',(-3.,-1.5,8.));
#1162=CARTESIAN_POINT('',(-3.,-1.5,1.));
#1163=CARTESIAN_POINT('',(-0.5,-1.5,10.));
#1164=CARTESIAN_POINT('Origin',(-3.33499057472,-1.5,10.9812382184));
#1165=CARTESIAN_POINT('',(-2.,-1.5,10.));
#1166=CARTESIAN_POINT('',(-5.,-1.5,10.));
#1167=CARTESIAN_POINT('Origin',(-2.,-1.5,7.));
#1168=CARTESIAN_POINT('Origin',(-3.,-1.5,1.));
#1169=CARTESIAN_POINT('',(-3.,1.5,8.));
#1170=CARTESIAN_POINT('',(-3.,1.5,1.));
#1171=CARTESIAN_POINT('',(-3.,-1.5,8.));
#1172=CARTESIAN_POINT('Origin',(5.,1.5,1.));
#1173=CARTESIAN_POINT('',(-2.,1.5,10.));
#1174=CARTESIAN_POINT('Origin',(-2.,1.5,7.));
#1175=CARTESIAN_POINT('',(-0.5,1.5,10.));
#1176=CARTESIAN_POINT('',(5.,1.5,10.));
#1177=CARTESIAN_POINT('Origin',(-3.33499057472,1.5,10.9812382184));
#1178=CARTESIAN_POINT('Origin',(3.33499057471999,-1.5,10.9812382184));
#1179=CARTESIAN_POINT('',(0.5,-0.750000000000001,10.));
#1180=CARTESIAN_POINT('Origin',(-3.33499057472,-1.5,10.9812382184));
#1181=CARTESIAN_POINT('',(-0.5,-0.750000000000001,10.));
#1182=CARTESIAN_POINT('Origin',(2.,-0.750000000000001,7.));
#1183=CARTESIAN_POINT('',(2.,-0.750000000000001,10.));
#1184=CARTESIAN_POINT('Origin',(1.11022302462516E-15,-8.32667268468867E-16,
10.));
#1185=CARTESIAN_POINT('Origin',(-2.,0.75,7.));
#1186=CARTESIAN_POINT('',(-2.,0.75,10.));
#1187=CARTESIAN_POINT('Origin',(1.11022302462516E-15,-8.32667268468867E-16,
10.));
#1188=CARTESIAN_POINT('Origin',(0.,0.,0.));
#1189=CARTESIAN_POINT('',(-7.07106781186547,-8.65956056235493E-16,0.));
#1190=CARTESIAN_POINT('',(-7.07106781186547,-8.65956056235493E-16,0.));
#1191=CARTESIAN_POINT('Origin',(0.,0.,0.));
#1192=CARTESIAN_POINT('Origin',(0.,0.,0.));
#1193=UNCERTAINTY_MEASURE_WITH_UNIT(LENGTH_MEASURE(0.01),#1197,
'DISTANCE_ACCURACY_VALUE',
'Maximum model space distance between geometric entities at asserted c
onnectivities');
#1194=UNCERTAINTY_MEASURE_WITH_UNIT(LENGTH_MEASURE(0.01),#1197,
'DISTANCE_ACCURACY_VALUE',
'Maximum model space distance between geometric entities at asserted c
onnectivities');
#1195=(
GEOMETRIC_REPRESENTATION_CONTEXT(3)
GLOBAL_UNCERTAINTY_ASSIGNED_CONTEXT((#1193))
GLOBAL_UNIT_ASSIGNED_CONTEXT((#1197,#1199,#1200))
REPRESENTATION_CONTEXT('','3D')
);
#1196=(
GEOMETRIC_REPRESENTATION_CONTEXT(3)
GLOBAL_UNCERTAINTY_ASSIGNED_CONTEXT((#1194))
GLOBAL_UNIT_ASSIGNED_CONTEXT((#1197,#1199,#1200))
REPRESENTATION_CONTEXT('','3D')
);
#1197=(
LENGTH_UNIT()
NAMED_UNIT(*)
SI_UNIT(.MILLI.,.METRE.)
);
#1198=(
LENGTH_UNIT()
NAMED_UNIT(*)
SI_UNIT(.CENTI.,.METRE.)
);
#1199=(
NAMED_UNIT(*)
PLANE_ANGLE_UNIT()
SI_UNIT($,.RADIAN.)
);
#1200=(
NAMED_UNIT(*)
SI_UNIT($,.STERADIAN.)
SOLID_ANGLE_UNIT()
);
#1201=SHAPE_DEFINITION_REPRESENTATION(#1202,#1203);
#1202=PRODUCT_DEFINITION_SHAPE('',$,#1205);
#1203=SHAPE_REPRESENTATION('',(#529),#1195);
#1204=PRODUCT_DEFINITION_CONTEXT('part definition',#1209,'design');
#1205=PRODUCT_DEFINITION('ef','ef',#1206,#1204);
#1206=PRODUCT_DEFINITION_FORMATION('',$,#1211);
#1207=PRODUCT_RELATED_PRODUCT_CATEGORY('ef','ef',(#1211));
#1208=APPLICATION_PROTOCOL_DEFINITION('international standard',
'automotive_design',2009,#1209);
#1209=APPLICATION_CONTEXT(
'Core Data for Automotive Mechanical Design Process');
#1210=PRODUCT_CONTEXT('part definition',#1209,'mechanical');
#1211=PRODUCT('ef','ef',$,(#1210));
#1212=PRESENTATION_STYLE_ASSIGNMENT((#1214));
#1213=PRESENTATION_STYLE_ASSIGNMENT((#1215));
#1214=SURFACE_STYLE_USAGE(.BOTH.,#1220);
#1215=SURFACE_STYLE_USAGE(.BOTH.,#1221);
#1216=SURFACE_STYLE_RENDERING_WITH_PROPERTIES($,#1228,(#1218));
#1217=SURFACE_STYLE_RENDERING_WITH_PROPERTIES($,#1229,(#1219));
#1218=SURFACE_STYLE_TRANSPARENT(0.);
#1219=SURFACE_STYLE_TRANSPARENT(0.);
#1220=SURFACE_SIDE_STYLE('',(#1222,#1216));
#1221=SURFACE_SIDE_STYLE('',(#1223,#1217));
#1222=SURFACE_STYLE_FILL_AREA(#1224);
#1223=SURFACE_STYLE_FILL_AREA(#1225);
#1224=FILL_AREA_STYLE('',(#1226));
#1225=FILL_AREA_STYLE('',(#1227));
#1226=FILL_AREA_STYLE_COLOUR('',#1228);
#1227=FILL_AREA_STYLE_COLOUR('',#1229);
#1228=COLOUR_RGB('',0.92156862745098,0.92156862745098,0.92156862745098);
#1229=COLOUR_RGB('',0.129411764705882,0.541176470588235,0.129411764705882);
ENDSEC;
END-ISO-10303-21;
