ISO-10303-21;
HEADER;
/* Generated by software containing ST-Developer
 * from STEP Tools, Inc. (www.steptools.com) 
 */

FILE_DESCRIPTION(
/* description */ (''),
/* implementation_level */ '2;1');

FILE_NAME(
/* name */ 
'C:\\Users\\eyome\\OneDrive\\Documents\\Inventor\\6DOFArmV3\\\\link5_i
pt_3767d4dc.STEP',
/* time_stamp */ '2025-09-17T16:20:04+03:00',
/* author */ ('eyome'),
/* organization */ (''),
/* preprocessor_version */ 'ST-DEVELOPER v18.1',
/* originating_system */ 'Autodesk Inventor 2021',
/* authorisation */ '');

FILE_SCHEMA (('AUTOMOTIVE_DESIGN { 1 0 10303 214 3 1 1 }'));
ENDSEC;

DATA;
#10=MECHANICAL_DESIGN_GEOMETRIC_PRESENTATION_REPRESENTATION('',(#249,#250,
#251,#252,#253,#254,#255,#256,#257,#258,#259,#260,#261,#262,#263,#264,#265,
#266),#526);
#11=SHAPE_REPRESENTATION_RELATIONSHIP('SRR','None',#533,#12);
#12=ADVANCED_BREP_SHAPE_REPRESENTATION('',(#13),#525);
#13=MANIFOLD_SOLID_BREP('Solid1',#284);
#14=FACE_BOUND('',#52,.T.);
#15=FACE_BOUND('',#55,.T.);
#16=PLANE('',#312);
#17=PLANE('',#321);
#18=PLANE('',#322);
#19=PLANE('',#324);
#20=PLANE('',#325);
#21=PLANE('',#328);
#22=PLANE('',#332);
#23=PLANE('',#335);
#24=(
BOUNDED_SURFACE()
B_SPLINE_SURFACE(2,2,((#430,#431,#432,#433,#434),(#435,#436,#437,#438,#439),
(#440,#441,#442,#443,#444)),.UNSPECIFIED.,.F.,.F.,.F.)
B_SPLINE_SURFACE_WITH_KNOTS((3,3),(3,2,3),(-1.5707963267949,4.64929314438094E-18),
(-1.5707963267949,0.,1.5707963267949),.UNSPECIFIED.)
GEOMETRIC_REPRESENTATION_ITEM()
RATIONAL_B_SPLINE_SURFACE(((1.,0.707106781186548,1.,0.707106781186548,1.),
(0.707106781186547,0.5,0.707106781186547,0.5,0.707106781186547),(1.,0.707106781186548,
1.,0.707106781186548,1.)))
REPRESENTATION_ITEM('')
SURFACE()
);
#25=(
BOUNDED_SURFACE()
B_SPLINE_SURFACE(2,2,((#469,#470,#471,#472,#473),(#474,#475,#476,#477,#478),
(#479,#480,#481,#482,#483)),.UNSPECIFIED.,.F.,.F.,.F.)
B_SPLINE_SURFACE_WITH_KNOTS((3,3),(3,2,3),(-1.5707963267949,-9.25185853854297E-17),
(-1.5707963267949,0.,1.5707963267949),.UNSPECIFIED.)
GEOMETRIC_REPRESENTATION_ITEM()
RATIONAL_B_SPLINE_SURFACE(((1.,0.707106781186548,1.,0.707106781186548,1.),
(0.707106781186548,0.5,0.707106781186548,0.5,0.707106781186548),(1.,0.707106781186548,
1.,0.707106781186548,1.)))
REPRESENTATION_ITEM('')
SURFACE()
);
#26=FACE_OUTER_BOUND('',#43,.T.);
#27=FACE_OUTER_BOUND('',#44,.T.);
#28=FACE_OUTER_BOUND('',#45,.T.);
#29=FACE_OUTER_BOUND('',#46,.T.);
#30=FACE_OUTER_BOUND('',#47,.T.);
#31=FACE_OUTER_BOUND('',#48,.T.);
#32=FACE_OUTER_BOUND('',#49,.T.);
#33=FACE_OUTER_BOUND('',#50,.T.);
#34=FACE_OUTER_BOUND('',#51,.T.);
#35=FACE_OUTER_BOUND('',#53,.T.);
#36=FACE_OUTER_BOUND('',#54,.T.);
#37=FACE_OUTER_BOUND('',#56,.T.);
#38=FACE_OUTER_BOUND('',#57,.T.);
#39=FACE_OUTER_BOUND('',#58,.T.);
#40=FACE_OUTER_BOUND('',#59,.T.);
#41=FACE_OUTER_BOUND('',#60,.T.);
#42=FACE_OUTER_BOUND('',#61,.T.);
#43=EDGE_LOOP('',(#172,#173,#174,#175));
#44=EDGE_LOOP('',(#176,#177,#178,#179));
#45=EDGE_LOOP('',(#180,#181,#182,#183));
#46=EDGE_LOOP('',(#184,#185,#186,#187));
#47=EDGE_LOOP('',(#188,#189,#190,#191,#192));
#48=EDGE_LOOP('',(#193,#194,#195,#196));
#49=EDGE_LOOP('',(#197,#198,#199,#200,#201));
#50=EDGE_LOOP('',(#202,#203,#204,#205));
#51=EDGE_LOOP('',(#206,#207,#208,#209,#210,#211,#212,#213));
#52=EDGE_LOOP('',(#214));
#53=EDGE_LOOP('',(#215,#216,#217,#218));
#54=EDGE_LOOP('',(#219,#220,#221,#222));
#55=EDGE_LOOP('',(#223));
#56=EDGE_LOOP('',(#224,#225,#226,#227));
#57=EDGE_LOOP('',(#228,#229,#230,#231));
#58=EDGE_LOOP('',(#232,#233,#234,#235));
#59=EDGE_LOOP('',(#236));
#60=EDGE_LOOP('',(#237,#238,#239,#240));
#61=EDGE_LOOP('',(#241));
#62=LINE('',#426,#80);
#63=LINE('',#429,#81);
#64=LINE('',#454,#82);
#65=LINE('',#455,#83);
#66=LINE('',#457,#84);
#67=LINE('',#463,#85);
#68=LINE('',#465,#86);
#69=LINE('',#468,#87);
#70=LINE('',#493,#88);
#71=LINE('',#495,#89);
#72=LINE('',#496,#90);
#73=LINE('',#498,#91);
#74=LINE('',#499,#92);
#75=LINE('',#501,#93);
#76=LINE('',#502,#94);
#77=LINE('',#511,#95);
#78=LINE('',#515,#96);
#79=LINE('',#521,#97);
#80=VECTOR('',#342,10.);
#81=VECTOR('',#345,10.);
#82=VECTOR('',#356,10.);
#83=VECTOR('',#357,10.);
#84=VECTOR('',#360,10.);
#85=VECTOR('',#365,10.);
#86=VECTOR('',#366,10.);
#87=VECTOR('',#369,10.);
#88=VECTOR('',#380,10.);
#89=VECTOR('',#381,10.);
#90=VECTOR('',#382,10.);
#91=VECTOR('',#385,10.);
#92=VECTOR('',#386,10.);
#93=VECTOR('',#389,10.);
#94=VECTOR('',#390,10.);
#95=VECTOR('',#403,10.);
#96=VECTOR('',#408,1.5);
#97=VECTOR('',#417,1.5);
#98=CIRCLE('',#305,3.);
#99=CIRCLE('',#306,3.);
#100=CIRCLE('',#307,3.);
#101=CIRCLE('',#308,2.);
#102=CIRCLE('',#309,5.);
#103=CIRCLE('',#311,3.);
#104=CIRCLE('',#314,3.);
#105=CIRCLE('',#315,3.);
#106=CIRCLE('',#316,3.);
#107=CIRCLE('',#317,2.);
#108=CIRCLE('',#318,5.);
#109=CIRCLE('',#320,3.);
#110=CIRCLE('',#323,1.5);
#111=CIRCLE('',#326,5.);
#112=CIRCLE('',#327,1.5);
#113=CIRCLE('',#331,1.5);
#114=CIRCLE('',#334,1.5);
#115=VERTEX_POINT('',#422);
#116=VERTEX_POINT('',#423);
#117=VERTEX_POINT('',#425);
#118=VERTEX_POINT('',#427);
#119=VERTEX_POINT('',#445);
#120=VERTEX_POINT('',#446);
#121=VERTEX_POINT('',#451);
#122=VERTEX_POINT('',#452);
#123=VERTEX_POINT('',#459);
#124=VERTEX_POINT('',#460);
#125=VERTEX_POINT('',#462);
#126=VERTEX_POINT('',#464);
#127=VERTEX_POINT('',#466);
#128=VERTEX_POINT('',#484);
#129=VERTEX_POINT('',#485);
#130=VERTEX_POINT('',#490);
#131=VERTEX_POINT('',#491);
#132=VERTEX_POINT('',#494);
#133=VERTEX_POINT('',#503);
#134=VERTEX_POINT('',#508);
#135=VERTEX_POINT('',#514);
#136=VERTEX_POINT('',#519);
#137=EDGE_CURVE('',#115,#116,#98,.T.);
#138=EDGE_CURVE('',#116,#117,#62,.T.);
#139=EDGE_CURVE('',#117,#118,#99,.T.);
#140=EDGE_CURVE('',#118,#115,#63,.T.);
#141=EDGE_CURVE('',#119,#120,#100,.T.);
#142=EDGE_CURVE('',#120,#118,#101,.T.);
#143=EDGE_CURVE('',#117,#119,#102,.T.);
#144=EDGE_CURVE('',#121,#122,#103,.T.);
#145=EDGE_CURVE('',#122,#120,#64,.T.);
#146=EDGE_CURVE('',#119,#121,#65,.T.);
#147=EDGE_CURVE('',#115,#122,#66,.T.);
#148=EDGE_CURVE('',#123,#124,#104,.T.);
#149=EDGE_CURVE('',#124,#125,#67,.T.);
#150=EDGE_CURVE('',#125,#126,#68,.T.);
#151=EDGE_CURVE('',#126,#127,#105,.T.);
#152=EDGE_CURVE('',#127,#123,#69,.T.);
#153=EDGE_CURVE('',#128,#129,#106,.T.);
#154=EDGE_CURVE('',#129,#127,#107,.T.);
#155=EDGE_CURVE('',#126,#128,#108,.T.);
#156=EDGE_CURVE('',#130,#131,#109,.T.);
#157=EDGE_CURVE('',#131,#129,#70,.T.);
#158=EDGE_CURVE('',#128,#132,#71,.T.);
#159=EDGE_CURVE('',#132,#130,#72,.T.);
#160=EDGE_CURVE('',#130,#116,#73,.T.);
#161=EDGE_CURVE('',#117,#132,#74,.T.);
#162=EDGE_CURVE('',#121,#124,#75,.T.);
#163=EDGE_CURVE('',#123,#131,#76,.T.);
#164=EDGE_CURVE('',#133,#133,#110,.T.);
#165=EDGE_CURVE('',#132,#125,#111,.F.);
#166=EDGE_CURVE('',#134,#134,#112,.T.);
#167=EDGE_CURVE('',#125,#119,#77,.T.);
#168=EDGE_CURVE('',#133,#135,#78,.T.);
#169=EDGE_CURVE('',#135,#135,#113,.T.);
#170=EDGE_CURVE('',#136,#136,#114,.T.);
#171=EDGE_CURVE('',#136,#134,#79,.T.);
#172=ORIENTED_EDGE('',*,*,#137,.T.);
#173=ORIENTED_EDGE('',*,*,#138,.T.);
#174=ORIENTED_EDGE('',*,*,#139,.T.);
#175=ORIENTED_EDGE('',*,*,#140,.T.);
#176=ORIENTED_EDGE('',*,*,#141,.T.);
#177=ORIENTED_EDGE('',*,*,#142,.T.);
#178=ORIENTED_EDGE('',*,*,#139,.F.);
#179=ORIENTED_EDGE('',*,*,#143,.T.);
#180=ORIENTED_EDGE('',*,*,#144,.T.);
#181=ORIENTED_EDGE('',*,*,#145,.T.);
#182=ORIENTED_EDGE('',*,*,#141,.F.);
#183=ORIENTED_EDGE('',*,*,#146,.T.);
#184=ORIENTED_EDGE('',*,*,#140,.F.);
#185=ORIENTED_EDGE('',*,*,#142,.F.);
#186=ORIENTED_EDGE('',*,*,#145,.F.);
#187=ORIENTED_EDGE('',*,*,#147,.F.);
#188=ORIENTED_EDGE('',*,*,#148,.T.);
#189=ORIENTED_EDGE('',*,*,#149,.T.);
#190=ORIENTED_EDGE('',*,*,#150,.T.);
#191=ORIENTED_EDGE('',*,*,#151,.T.);
#192=ORIENTED_EDGE('',*,*,#152,.T.);
#193=ORIENTED_EDGE('',*,*,#153,.T.);
#194=ORIENTED_EDGE('',*,*,#154,.T.);
#195=ORIENTED_EDGE('',*,*,#151,.F.);
#196=ORIENTED_EDGE('',*,*,#155,.T.);
#197=ORIENTED_EDGE('',*,*,#156,.T.);
#198=ORIENTED_EDGE('',*,*,#157,.T.);
#199=ORIENTED_EDGE('',*,*,#153,.F.);
#200=ORIENTED_EDGE('',*,*,#158,.T.);
#201=ORIENTED_EDGE('',*,*,#159,.T.);
#202=ORIENTED_EDGE('',*,*,#138,.F.);
#203=ORIENTED_EDGE('',*,*,#160,.F.);
#204=ORIENTED_EDGE('',*,*,#159,.F.);
#205=ORIENTED_EDGE('',*,*,#161,.F.);
#206=ORIENTED_EDGE('',*,*,#137,.F.);
#207=ORIENTED_EDGE('',*,*,#147,.T.);
#208=ORIENTED_EDGE('',*,*,#144,.F.);
#209=ORIENTED_EDGE('',*,*,#162,.T.);
#210=ORIENTED_EDGE('',*,*,#148,.F.);
#211=ORIENTED_EDGE('',*,*,#163,.T.);
#212=ORIENTED_EDGE('',*,*,#156,.F.);
#213=ORIENTED_EDGE('',*,*,#160,.T.);
#214=ORIENTED_EDGE('',*,*,#164,.T.);
#215=ORIENTED_EDGE('',*,*,#157,.F.);
#216=ORIENTED_EDGE('',*,*,#163,.F.);
#217=ORIENTED_EDGE('',*,*,#152,.F.);
#218=ORIENTED_EDGE('',*,*,#154,.F.);
#219=ORIENTED_EDGE('',*,*,#155,.F.);
#220=ORIENTED_EDGE('',*,*,#150,.F.);
#221=ORIENTED_EDGE('',*,*,#165,.F.);
#222=ORIENTED_EDGE('',*,*,#158,.F.);
#223=ORIENTED_EDGE('',*,*,#166,.T.);
#224=ORIENTED_EDGE('',*,*,#146,.F.);
#225=ORIENTED_EDGE('',*,*,#167,.F.);
#226=ORIENTED_EDGE('',*,*,#149,.F.);
#227=ORIENTED_EDGE('',*,*,#162,.F.);
#228=ORIENTED_EDGE('',*,*,#143,.F.);
#229=ORIENTED_EDGE('',*,*,#161,.T.);
#230=ORIENTED_EDGE('',*,*,#165,.T.);
#231=ORIENTED_EDGE('',*,*,#167,.T.);
#232=ORIENTED_EDGE('',*,*,#164,.F.);
#233=ORIENTED_EDGE('',*,*,#168,.T.);
#234=ORIENTED_EDGE('',*,*,#169,.T.);
#235=ORIENTED_EDGE('',*,*,#168,.F.);
#236=ORIENTED_EDGE('',*,*,#169,.F.);
#237=ORIENTED_EDGE('',*,*,#170,.F.);
#238=ORIENTED_EDGE('',*,*,#171,.T.);
#239=ORIENTED_EDGE('',*,*,#166,.F.);
#240=ORIENTED_EDGE('',*,*,#171,.F.);
#241=ORIENTED_EDGE('',*,*,#170,.T.);
#242=CYLINDRICAL_SURFACE('',#304,3.);
#243=CYLINDRICAL_SURFACE('',#310,3.);
#244=CYLINDRICAL_SURFACE('',#313,3.);
#245=CYLINDRICAL_SURFACE('',#319,3.);
#246=CYLINDRICAL_SURFACE('',#329,5.);
#247=CYLINDRICAL_SURFACE('',#330,1.5);
#248=CYLINDRICAL_SURFACE('',#333,1.5);
#249=STYLED_ITEM('',(#543),#267);
#250=STYLED_ITEM('',(#543),#268);
#251=STYLED_ITEM('',(#543),#269);
#252=STYLED_ITEM('',(#543),#270);
#253=STYLED_ITEM('',(#543),#271);
#254=STYLED_ITEM('',(#543),#272);
#255=STYLED_ITEM('',(#543),#273);
#256=STYLED_ITEM('',(#543),#274);
#257=STYLED_ITEM('',(#543),#275);
#258=STYLED_ITEM('',(#543),#276);
#259=STYLED_ITEM('',(#543),#277);
#260=STYLED_ITEM('',(#543),#278);
#261=STYLED_ITEM('',(#543),#279);
#262=STYLED_ITEM('',(#543),#280);
#263=STYLED_ITEM('',(#543),#281);
#264=STYLED_ITEM('',(#543),#282);
#265=STYLED_ITEM('',(#543),#283);
#266=STYLED_ITEM('',(#542),#13);
#267=ADVANCED_FACE('',(#26),#242,.T.);
#268=ADVANCED_FACE('',(#27),#24,.F.);
#269=ADVANCED_FACE('',(#28),#243,.T.);
#270=ADVANCED_FACE('',(#29),#16,.T.);
#271=ADVANCED_FACE('',(#30),#244,.T.);
#272=ADVANCED_FACE('',(#31),#25,.F.);
#273=ADVANCED_FACE('',(#32),#245,.T.);
#274=ADVANCED_FACE('',(#33),#17,.T.);
#275=ADVANCED_FACE('',(#34,#14),#18,.T.);
#276=ADVANCED_FACE('',(#35),#19,.T.);
#277=ADVANCED_FACE('',(#36,#15),#20,.F.);
#278=ADVANCED_FACE('',(#37),#21,.T.);
#279=ADVANCED_FACE('',(#38),#246,.T.);
#280=ADVANCED_FACE('',(#39),#247,.F.);
#281=ADVANCED_FACE('',(#40),#22,.T.);
#282=ADVANCED_FACE('',(#41),#248,.T.);
#283=ADVANCED_FACE('',(#42),#23,.T.);
#284=CLOSED_SHELL('',(#267,#268,#269,#270,#271,#272,#273,#274,#275,#276,
#277,#278,#279,#280,#281,#282,#283));
#285=DERIVED_UNIT_ELEMENT(#287,1.);
#286=DERIVED_UNIT_ELEMENT(#528,3.);
#287=(
MASS_UNIT()
NAMED_UNIT(*)
SI_UNIT($,.GRAM.)
);
#288=DERIVED_UNIT((#285,#286));
#289=MEASURE_REPRESENTATION_ITEM('density measure',
POSITIVE_RATIO_MEASURE(1.06),#288);
#290=PROPERTY_DEFINITION_REPRESENTATION(#295,#292);
#291=PROPERTY_DEFINITION_REPRESENTATION(#296,#293);
#292=REPRESENTATION('material name',(#294),#525);
#293=REPRESENTATION('density',(#289),#525);
#294=DESCRIPTIVE_REPRESENTATION_ITEM('ABS Plastic','ABS Plastic');
#295=PROPERTY_DEFINITION('material property','material name',#535);
#296=PROPERTY_DEFINITION('material property','density of part',#535);
#297=DATE_TIME_ROLE('creation_date');
#298=APPLIED_DATE_AND_TIME_ASSIGNMENT(#299,#297,(#535));
#299=DATE_AND_TIME(#300,#301);
#300=CALENDAR_DATE(2025,16,9);
#301=LOCAL_TIME(0,0,0.,#302);
#302=COORDINATED_UNIVERSAL_TIME_OFFSET(0,0,.BEHIND.);
#303=AXIS2_PLACEMENT_3D('placement',#420,#336,#337);
#304=AXIS2_PLACEMENT_3D('',#421,#338,#339);
#305=AXIS2_PLACEMENT_3D('',#424,#340,#341);
#306=AXIS2_PLACEMENT_3D('',#428,#343,#344);
#307=AXIS2_PLACEMENT_3D('',#447,#346,#347);
#308=AXIS2_PLACEMENT_3D('',#448,#348,#349);
#309=AXIS2_PLACEMENT_3D('',#449,#350,#351);
#310=AXIS2_PLACEMENT_3D('',#450,#352,#353);
#311=AXIS2_PLACEMENT_3D('',#453,#354,#355);
#312=AXIS2_PLACEMENT_3D('',#456,#358,#359);
#313=AXIS2_PLACEMENT_3D('',#458,#361,#362);
#314=AXIS2_PLACEMENT_3D('',#461,#363,#364);
#315=AXIS2_PLACEMENT_3D('',#467,#367,#368);
#316=AXIS2_PLACEMENT_3D('',#486,#370,#371);
#317=AXIS2_PLACEMENT_3D('',#487,#372,#373);
#318=AXIS2_PLACEMENT_3D('',#488,#374,#375);
#319=AXIS2_PLACEMENT_3D('',#489,#376,#377);
#320=AXIS2_PLACEMENT_3D('',#492,#378,#379);
#321=AXIS2_PLACEMENT_3D('',#497,#383,#384);
#322=AXIS2_PLACEMENT_3D('',#500,#387,#388);
#323=AXIS2_PLACEMENT_3D('',#504,#391,#392);
#324=AXIS2_PLACEMENT_3D('',#505,#393,#394);
#325=AXIS2_PLACEMENT_3D('',#506,#395,#396);
#326=AXIS2_PLACEMENT_3D('',#507,#397,#398);
#327=AXIS2_PLACEMENT_3D('',#509,#399,#400);
#328=AXIS2_PLACEMENT_3D('',#510,#401,#402);
#329=AXIS2_PLACEMENT_3D('',#512,#404,#405);
#330=AXIS2_PLACEMENT_3D('',#513,#406,#407);
#331=AXIS2_PLACEMENT_3D('',#516,#409,#410);
#332=AXIS2_PLACEMENT_3D('',#517,#411,#412);
#333=AXIS2_PLACEMENT_3D('',#518,#413,#414);
#334=AXIS2_PLACEMENT_3D('',#520,#415,#416);
#335=AXIS2_PLACEMENT_3D('',#522,#418,#419);
#336=DIRECTION('axis',(0.,0.,1.));
#337=DIRECTION('refdir',(1.,0.,0.));
#338=DIRECTION('center_axis',(0.,0.,1.));
#339=DIRECTION('ref_axis',(-0.707106781186548,-0.707106781186547,0.));
#340=DIRECTION('center_axis',(0.,0.,-1.));
#341=DIRECTION('ref_axis',(-0.707106781186548,-0.707106781186547,0.));
#342=DIRECTION('',(0.,0.,-1.));
#343=DIRECTION('center_axis',(0.,0.,1.));
#344=DIRECTION('ref_axis',(-1.,0.,0.));
#345=DIRECTION('',(0.,0.,1.));
#346=DIRECTION('center_axis',(0.,0.,-1.));
#347=DIRECTION('ref_axis',(1.,-3.70074341541719E-16,0.));
#348=DIRECTION('center_axis',(3.88578058618805E-16,1.,0.));
#349=DIRECTION('ref_axis',(8.88178419700126E-17,-3.45126646034193E-32,-1.));
#350=DIRECTION('center_axis',(-3.88578058618805E-16,-1.,0.));
#351=DIRECTION('ref_axis',(8.88178419700126E-17,0.,-1.));
#352=DIRECTION('center_axis',(0.,0.,1.));
#353=DIRECTION('ref_axis',(0.707106781186547,-0.707106781186548,0.));
#354=DIRECTION('center_axis',(0.,0.,-1.));
#355=DIRECTION('ref_axis',(0.707106781186547,-0.707106781186548,0.));
#356=DIRECTION('',(0.,0.,-1.));
#357=DIRECTION('',(0.,0.,1.));
#358=DIRECTION('center_axis',(-3.88578058618805E-16,-1.,0.));
#359=DIRECTION('ref_axis',(1.,-3.88578058618805E-16,0.));
#360=DIRECTION('',(1.,-3.88578058618805E-16,0.));
#361=DIRECTION('center_axis',(0.,0.,1.));
#362=DIRECTION('ref_axis',(0.707106781186548,0.707106781186547,0.));
#363=DIRECTION('center_axis',(0.,0.,-1.));
#364=DIRECTION('ref_axis',(0.707106781186548,0.707106781186547,0.));
#365=DIRECTION('',(0.,0.,-1.));
#366=DIRECTION('',(0.,0.,-1.));
#367=DIRECTION('center_axis',(0.,0.,1.));
#368=DIRECTION('ref_axis',(1.,2.77555756156289E-16,0.));
#369=DIRECTION('',(0.,0.,1.));
#370=DIRECTION('center_axis',(0.,0.,-1.));
#371=DIRECTION('ref_axis',(-1.,1.85037170770859E-16,0.));
#372=DIRECTION('center_axis',(-1.11022302462516E-16,-1.,0.));
#373=DIRECTION('ref_axis',(-3.33066907387547E-17,3.69778549322349E-33,-1.));
#374=DIRECTION('center_axis',(0.,1.,0.));
#375=DIRECTION('ref_axis',(-0.707106781186547,0.,-0.707106781186547));
#376=DIRECTION('center_axis',(0.,0.,1.));
#377=DIRECTION('ref_axis',(-0.707106781186548,0.707106781186548,0.));
#378=DIRECTION('center_axis',(0.,0.,-1.));
#379=DIRECTION('ref_axis',(-0.707106781186548,0.707106781186548,0.));
#380=DIRECTION('',(0.,0.,-1.));
#381=DIRECTION('',(0.,0.,1.));
#382=DIRECTION('',(0.,0.,1.));
#383=DIRECTION('center_axis',(-1.,5.55111512312578E-17,0.));
#384=DIRECTION('ref_axis',(-5.55111512312578E-17,-1.,0.));
#385=DIRECTION('',(-5.55111512312578E-17,-1.,0.));
#386=DIRECTION('',(5.55111512312578E-17,1.,0.));
#387=DIRECTION('center_axis',(0.,0.,1.));
#388=DIRECTION('ref_axis',(1.,0.,0.));
#389=DIRECTION('',(2.22044604925031E-16,1.,0.));
#390=DIRECTION('',(-1.,1.11022302462516E-16,0.));
#391=DIRECTION('center_axis',(0.,0.,-1.));
#392=DIRECTION('ref_axis',(1.,0.,0.));
#393=DIRECTION('center_axis',(1.11022302462516E-16,1.,0.));
#394=DIRECTION('ref_axis',(-1.,1.11022302462516E-16,0.));
#395=DIRECTION('center_axis',(0.,1.,0.));
#396=DIRECTION('ref_axis',(-1.,0.,0.));
#397=DIRECTION('center_axis',(0.,1.,0.));
#398=DIRECTION('ref_axis',(-0.707106781186547,0.,-0.707106781186548));
#399=DIRECTION('center_axis',(0.,1.,0.));
#400=DIRECTION('ref_axis',(1.,0.,0.));
#401=DIRECTION('center_axis',(1.,-2.22044604925031E-16,0.));
#402=DIRECTION('ref_axis',(2.22044604925031E-16,1.,0.));
#403=DIRECTION('',(-2.22044604925031E-16,-1.,0.));
#404=DIRECTION('center_axis',(-5.55111512312578E-17,-1.,0.));
#405=DIRECTION('ref_axis',(-0.707106781186547,0.,-0.707106781186548));
#406=DIRECTION('center_axis',(0.,0.,-1.));
#407=DIRECTION('ref_axis',(1.,0.,0.));
#408=DIRECTION('',(0.,0.,-1.));
#409=DIRECTION('center_axis',(0.,0.,-1.));
#410=DIRECTION('ref_axis',(1.,0.,0.));
#411=DIRECTION('center_axis',(0.,0.,1.));
#412=DIRECTION('ref_axis',(1.,0.,0.));
#413=DIRECTION('center_axis',(0.,-1.,0.));
#414=DIRECTION('ref_axis',(1.,0.,0.));
#415=DIRECTION('center_axis',(0.,-1.,0.));
#416=DIRECTION('ref_axis',(1.,0.,0.));
#417=DIRECTION('',(0.,1.,0.));
#418=DIRECTION('center_axis',(0.,-1.,0.));
#419=DIRECTION('ref_axis',(0.,0.,-1.));
#420=CARTESIAN_POINT('',(0.,0.,0.));
#421=CARTESIAN_POINT('Origin',(-2.,-2.,0.));
#422=CARTESIAN_POINT('',(-2.,-5.,25.));
#423=CARTESIAN_POINT('',(-5.,-2.,25.));
#424=CARTESIAN_POINT('Origin',(-2.,-2.,25.));
#425=CARTESIAN_POINT('',(-5.,-2.,16.));
#426=CARTESIAN_POINT('',(-5.,-2.,0.));
#427=CARTESIAN_POINT('',(-2.,-5.,16.));
#428=CARTESIAN_POINT('Origin',(-2.,-2.,16.));
#429=CARTESIAN_POINT('',(-2.,-5.,0.));
#430=CARTESIAN_POINT('Ctrl Pts',(2.,-5.,16.));
#431=CARTESIAN_POINT('Ctrl Pts',(2.,-5.,14.));
#432=CARTESIAN_POINT('Ctrl Pts',(-7.5427136233317E-16,-5.,14.));
#433=CARTESIAN_POINT('Ctrl Pts',(-2.,-5.,14.));
#434=CARTESIAN_POINT('Ctrl Pts',(-2.,-5.,16.));
#435=CARTESIAN_POINT('Ctrl Pts',(5.,-5.,16.));
#436=CARTESIAN_POINT('Ctrl Pts',(5.,-5.,11.));
#437=CARTESIAN_POINT('Ctrl Pts',(-3.86877322588965E-16,-5.,11.));
#438=CARTESIAN_POINT('Ctrl Pts',(-5.,-5.,11.));
#439=CARTESIAN_POINT('Ctrl Pts',(-5.,-5.,16.));
#440=CARTESIAN_POINT('Ctrl Pts',(5.,-2.,16.));
#441=CARTESIAN_POINT('Ctrl Pts',(5.,-2.,11.));
#442=CARTESIAN_POINT('Ctrl Pts',(7.7885685326745E-16,-2.,11.));
#443=CARTESIAN_POINT('Ctrl Pts',(-5.,-2.,11.));
#444=CARTESIAN_POINT('Ctrl Pts',(-5.,-2.,16.));
#445=CARTESIAN_POINT('',(5.,-2.,16.));
#446=CARTESIAN_POINT('',(2.,-5.,16.));
#447=CARTESIAN_POINT('Origin',(2.,-2.,16.));
#448=CARTESIAN_POINT('Origin',(-9.99200722162641E-16,-5.,16.));
#449=CARTESIAN_POINT('Origin',(1.66533453693774E-16,-2.,16.));
#450=CARTESIAN_POINT('Origin',(2.,-2.,0.));
#451=CARTESIAN_POINT('',(5.,-2.,25.));
#452=CARTESIAN_POINT('',(2.,-5.,25.));
#453=CARTESIAN_POINT('Origin',(2.,-2.,25.));
#454=CARTESIAN_POINT('',(2.,-5.,0.));
#455=CARTESIAN_POINT('',(5.,-2.,0.));
#456=CARTESIAN_POINT('Origin',(-5.,-5.,0.));
#457=CARTESIAN_POINT('',(-5.,-5.,25.));
#458=CARTESIAN_POINT('Origin',(2.,2.,0.));
#459=CARTESIAN_POINT('',(2.,5.,25.));
#460=CARTESIAN_POINT('',(5.,2.,25.));
#461=CARTESIAN_POINT('Origin',(2.,2.,25.));
#462=CARTESIAN_POINT('',(5.,2.,16.));
#463=CARTESIAN_POINT('',(5.,2.,0.));
#464=CARTESIAN_POINT('',(5.,2.,5.));
#465=CARTESIAN_POINT('',(5.,2.,0.));
#466=CARTESIAN_POINT('',(2.,5.,5.));
#467=CARTESIAN_POINT('Origin',(2.,2.,5.));
#468=CARTESIAN_POINT('',(2.,5.,0.));
#469=CARTESIAN_POINT('Ctrl Pts',(-2.,5.,5.));
#470=CARTESIAN_POINT('Ctrl Pts',(-2.,5.,3.));
#471=CARTESIAN_POINT('Ctrl Pts',(7.21644966006352E-16,5.,3.));
#472=CARTESIAN_POINT('Ctrl Pts',(2.,5.,3.));
#473=CARTESIAN_POINT('Ctrl Pts',(2.,5.,5.));
#474=CARTESIAN_POINT('Ctrl Pts',(-5.,5.,5.));
#475=CARTESIAN_POINT('Ctrl Pts',(-5.,5.,1.66533453693773E-15));
#476=CARTESIAN_POINT('Ctrl Pts',(7.21644966006352E-16,5.,5.55111512312578E-16));
#477=CARTESIAN_POINT('Ctrl Pts',(5.,5.,1.66533453693773E-15));
#478=CARTESIAN_POINT('Ctrl Pts',(5.,5.,5.));
#479=CARTESIAN_POINT('Ctrl Pts',(-5.,2.,5.));
#480=CARTESIAN_POINT('Ctrl Pts',(-5.,2.,1.11022302462516E-15));
#481=CARTESIAN_POINT('Ctrl Pts',(3.88578058618805E-16,2.,0.));
#482=CARTESIAN_POINT('Ctrl Pts',(5.,2.,1.11022302462516E-15));
#483=CARTESIAN_POINT('Ctrl Pts',(5.,2.,5.));
#484=CARTESIAN_POINT('',(-5.,2.,5.));
#485=CARTESIAN_POINT('',(-2.,5.,5.));
#486=CARTESIAN_POINT('Origin',(-2.,2.,5.));
#487=CARTESIAN_POINT('Origin',(7.21644966006352E-16,5.,5.));
#488=CARTESIAN_POINT('Origin',(3.88578058618805E-16,2.,5.));
#489=CARTESIAN_POINT('Origin',(-2.,2.,0.));
#490=CARTESIAN_POINT('',(-5.,2.,25.));
#491=CARTESIAN_POINT('',(-2.,5.,25.));
#492=CARTESIAN_POINT('Origin',(-2.,2.,25.));
#493=CARTESIAN_POINT('',(-2.,5.,0.));
#494=CARTESIAN_POINT('',(-5.,2.,16.));
#495=CARTESIAN_POINT('',(-5.,2.,0.));
#496=CARTESIAN_POINT('',(-5.,2.,0.));
#497=CARTESIAN_POINT('Origin',(-5.,5.,0.));
#498=CARTESIAN_POINT('',(-5.,5.,25.));
#499=CARTESIAN_POINT('',(-5.,1.75,16.));
#500=CARTESIAN_POINT('Origin',(1.11022302462516E-15,-5.55111512312578E-16,
25.));
#501=CARTESIAN_POINT('',(5.,-5.,25.));
#502=CARTESIAN_POINT('',(5.,5.,25.));
#503=CARTESIAN_POINT('',(-1.5,1.83697019872103E-16,25.));
#504=CARTESIAN_POINT('Origin',(0.,0.,25.));
#505=CARTESIAN_POINT('Origin',(5.,5.,0.));
#506=CARTESIAN_POINT('Origin',(5.,2.,0.));
#507=CARTESIAN_POINT('Origin',(3.88578058618805E-16,2.,16.));
#508=CARTESIAN_POINT('',(-1.5,2.,5.));
#509=CARTESIAN_POINT('Origin',(0.,2.,5.));
#510=CARTESIAN_POINT('Origin',(5.,-5.,0.));
#511=CARTESIAN_POINT('',(5.,-3.25,16.));
#512=CARTESIAN_POINT('Origin',(3.7470027081099E-16,1.75,16.));
#513=CARTESIAN_POINT('Origin',(0.,0.,25.));
#514=CARTESIAN_POINT('',(-1.5,1.83697019872103E-16,23.));
#515=CARTESIAN_POINT('',(-1.5,1.83697019872103E-16,25.));
#516=CARTESIAN_POINT('Origin',(0.,0.,23.));
#517=CARTESIAN_POINT('Origin',(0.,0.,23.));
#518=CARTESIAN_POINT('Origin',(0.,2.,5.));
#519=CARTESIAN_POINT('',(-1.5,-5.55111512312578E-16,5.));
#520=CARTESIAN_POINT('Origin',(0.,-5.55111512312578E-16,5.));
#521=CARTESIAN_POINT('',(-1.5,2.,5.));
#522=CARTESIAN_POINT('Origin',(0.,-5.55111512312578E-16,5.));
#523=UNCERTAINTY_MEASURE_WITH_UNIT(LENGTH_MEASURE(0.01),#527,
'DISTANCE_ACCURACY_VALUE',
'Maximum model space distance between geometric entities at asserted c
onnectivities');
#524=UNCERTAINTY_MEASURE_WITH_UNIT(LENGTH_MEASURE(0.01),#527,
'DISTANCE_ACCURACY_VALUE',
'Maximum model space distance between geometric entities at asserted c
onnectivities');
#525=(
GEOMETRIC_REPRESENTATION_CONTEXT(3)
GLOBAL_UNCERTAINTY_ASSIGNED_CONTEXT((#523))
GLOBAL_UNIT_ASSIGNED_CONTEXT((#527,#529,#530))
REPRESENTATION_CONTEXT('','3D')
);
#526=(
GEOMETRIC_REPRESENTATION_CONTEXT(3)
GLOBAL_UNCERTAINTY_ASSIGNED_CONTEXT((#524))
GLOBAL_UNIT_ASSIGNED_CONTEXT((#527,#529,#530))
REPRESENTATION_CONTEXT('','3D')
);
#527=(
LENGTH_UNIT()
NAMED_UNIT(*)
SI_UNIT(.MILLI.,.METRE.)
);
#528=(
LENGTH_UNIT()
NAMED_UNIT(*)
SI_UNIT(.CENTI.,.METRE.)
);
#529=(
NAMED_UNIT(*)
PLANE_ANGLE_UNIT()
SI_UNIT($,.RADIAN.)
);
#530=(
NAMED_UNIT(*)
SI_UNIT($,.STERADIAN.)
SOLID_ANGLE_UNIT()
);
#531=SHAPE_DEFINITION_REPRESENTATION(#532,#533);
#532=PRODUCT_DEFINITION_SHAPE('',$,#535);
#533=SHAPE_REPRESENTATION('',(#303),#525);
#534=PRODUCT_DEFINITION_CONTEXT('part definition',#539,'design');
#535=PRODUCT_DEFINITION('link5','link5',#536,#534);
#536=PRODUCT_DEFINITION_FORMATION('',$,#541);
#537=PRODUCT_RELATED_PRODUCT_CATEGORY('link5','link5',(#541));
#538=APPLICATION_PROTOCOL_DEFINITION('international standard',
'automotive_design',2009,#539);
#539=APPLICATION_CONTEXT(
'Core Data for Automotive Mechanical Design Process');
#540=PRODUCT_CONTEXT('part definition',#539,'mechanical');
#541=PRODUCT('link5','link5',$,(#540));
#542=PRESENTATION_STYLE_ASSIGNMENT((#544));
#543=PRESENTATION_STYLE_ASSIGNMENT((#545));
#544=SURFACE_STYLE_USAGE(.BOTH.,#550);
#545=SURFACE_STYLE_USAGE(.BOTH.,#551);
#546=SURFACE_STYLE_RENDERING_WITH_PROPERTIES($,#558,(#548));
#547=SURFACE_STYLE_RENDERING_WITH_PROPERTIES($,#559,(#549));
#548=SURFACE_STYLE_TRANSPARENT(0.);
#549=SURFACE_STYLE_TRANSPARENT(0.);
#550=SURFACE_SIDE_STYLE('',(#552,#546));
#551=SURFACE_SIDE_STYLE('',(#553,#547));
#552=SURFACE_STYLE_FILL_AREA(#554);
#553=SURFACE_STYLE_FILL_AREA(#555);
#554=FILL_AREA_STYLE('',(#556));
#555=FILL_AREA_STYLE('',(#557));
#556=FILL_AREA_STYLE_COLOUR('',#558);
#557=FILL_AREA_STYLE_COLOUR('',#559);
#558=COLOUR_RGB('',0.92156862745098,0.92156862745098,0.92156862745098);
#559=COLOUR_RGB('',0.772549019607843,0.76078431372549,0.580392156862745);
ENDSEC;
END-ISO-10303-21;
