ISO-10303-21;
HEADER;
/* Generated by software containing ST-Developer
 * from STEP Tools, Inc. (www.steptools.com) 
 */

FILE_DESCRIPTION(
/* description */ (''),
/* implementation_level */ '2;1');

FILE_NAME(
/* name */ 
'C:\\Users\\eyome\\OneDrive\\Documents\\Inventor\\6DOFArmV3\\\\link4_i
pt_70e4d665.STEP',
/* time_stamp */ '2025-09-17T16:20:04+03:00',
/* author */ ('eyome'),
/* organization */ (''),
/* preprocessor_version */ 'ST-DEVELOPER v18.1',
/* originating_system */ 'Autodesk Inventor 2021',
/* authorisation */ '');

FILE_SCHEMA (('AUTOMOTIVE_DESIGN { 1 0 10303 214 3 1 1 }'));
ENDSEC;

DATA;
#10=MECHANICAL_DESIGN_GEOMETRIC_PRESENTATION_REPRESENTATION('',(#249,#250,
#251,#252,#253,#254,#255,#256,#257,#258,#259,#260,#261,#262,#263,#264,#265,
#266),#526);
#11=SHAPE_REPRESENTATION_RELATIONSHIP('SRR','None',#533,#12);
#12=ADVANCED_BREP_SHAPE_REPRESENTATION('',(#13),#525);
#13=MANIFOLD_SOLID_BREP('Solid1',#284);
#14=FACE_BOUND('',#53,.T.);
#15=FACE_BOUND('',#56,.T.);
#16=PLANE('',#312);
#17=PLANE('',#315);
#18=PLANE('',#324);
#19=PLANE('',#326);
#20=PLANE('',#327);
#21=PLANE('',#331);
#22=PLANE('',#334);
#23=PLANE('',#335);
#24=(
BOUNDED_SURFACE()
B_SPLINE_SURFACE(2,2,((#430,#431,#432,#433,#434),(#435,#436,#437,#438,#439),
(#440,#441,#442,#443,#444)),.UNSPECIFIED.,.F.,.F.,.F.)
B_SPLINE_SURFACE_WITH_KNOTS((3,3),(3,2,3),(-1.5707963267949,3.83224528382182E-17),
(-1.5707963267949,0.,1.5707963267949),.UNSPECIFIED.)
GEOMETRIC_REPRESENTATION_ITEM()
RATIONAL_B_SPLINE_SURFACE(((1.,0.707106781186548,1.,0.707106781186548,1.),
(0.707106781186546,0.499999999999999,0.707106781186546,0.499999999999999,
0.707106781186546),(1.,0.707106781186548,1.,0.707106781186548,1.)))
REPRESENTATION_ITEM('')
SURFACE()
);
#25=(
BOUNDED_SURFACE()
B_SPLINE_SURFACE(2,2,((#474,#475,#476,#477,#478),(#479,#480,#481,#482,#483),
(#484,#485,#486,#487,#488)),.UNSPECIFIED.,.F.,.F.,.F.)
B_SPLINE_SURFACE_WITH_KNOTS((3,3),(3,2,3),(-1.5707963267949,5.55111512312578E-16),
(-1.5707963267949,0.,1.5707963267949),.UNSPECIFIED.)
GEOMETRIC_REPRESENTATION_ITEM()
RATIONAL_B_SPLINE_SURFACE(((1.,0.707106781186547,1.,0.707106781186547,1.),
(0.707106781186546,0.499999999999999,0.707106781186546,0.499999999999999,
0.707106781186546),(1.,0.707106781186547,1.,0.707106781186547,1.)))
REPRESENTATION_ITEM('')
SURFACE()
);
#26=FACE_OUTER_BOUND('',#43,.T.);
#27=FACE_OUTER_BOUND('',#44,.T.);
#28=FACE_OUTER_BOUND('',#45,.T.);
#29=FACE_OUTER_BOUND('',#46,.T.);
#30=FACE_OUTER_BOUND('',#47,.T.);
#31=FACE_OUTER_BOUND('',#48,.T.);
#32=FACE_OUTER_BOUND('',#49,.T.);
#33=FACE_OUTER_BOUND('',#50,.T.);
#34=FACE_OUTER_BOUND('',#51,.T.);
#35=FACE_OUTER_BOUND('',#52,.T.);
#36=FACE_OUTER_BOUND('',#54,.T.);
#37=FACE_OUTER_BOUND('',#55,.T.);
#38=FACE_OUTER_BOUND('',#57,.T.);
#39=FACE_OUTER_BOUND('',#58,.T.);
#40=FACE_OUTER_BOUND('',#59,.T.);
#41=FACE_OUTER_BOUND('',#60,.T.);
#42=FACE_OUTER_BOUND('',#61,.T.);
#43=EDGE_LOOP('',(#172,#173,#174,#175));
#44=EDGE_LOOP('',(#176,#177,#178,#179));
#45=EDGE_LOOP('',(#180,#181,#182,#183));
#46=EDGE_LOOP('',(#184,#185,#186,#187,#188));
#47=EDGE_LOOP('',(#189,#190,#191,#192));
#48=EDGE_LOOP('',(#193,#194,#195,#196,#197));
#49=EDGE_LOOP('',(#198,#199,#200,#201));
#50=EDGE_LOOP('',(#202,#203,#204,#205));
#51=EDGE_LOOP('',(#206,#207,#208,#209));
#52=EDGE_LOOP('',(#210,#211,#212,#213,#214,#215,#216,#217));
#53=EDGE_LOOP('',(#218));
#54=EDGE_LOOP('',(#219,#220,#221,#222));
#55=EDGE_LOOP('',(#223,#224,#225,#226));
#56=EDGE_LOOP('',(#227));
#57=EDGE_LOOP('',(#228,#229,#230,#231));
#58=EDGE_LOOP('',(#232));
#59=EDGE_LOOP('',(#233,#234,#235,#236));
#60=EDGE_LOOP('',(#237));
#61=EDGE_LOOP('',(#238,#239,#240,#241));
#62=LINE('',#426,#80);
#63=LINE('',#429,#81);
#64=LINE('',#454,#82);
#65=LINE('',#455,#83);
#66=LINE('',#458,#84);
#67=LINE('',#460,#85);
#68=LINE('',#462,#86);
#69=LINE('',#463,#87);
#70=LINE('',#466,#88);
#71=LINE('',#470,#89);
#72=LINE('',#472,#90);
#73=LINE('',#473,#91);
#74=LINE('',#498,#92);
#75=LINE('',#502,#93);
#76=LINE('',#504,#94);
#77=LINE('',#505,#95);
#78=LINE('',#514,#96);
#79=LINE('',#520,#97);
#80=VECTOR('',#342,10.);
#81=VECTOR('',#345,10.);
#82=VECTOR('',#356,10.);
#83=VECTOR('',#357,10.);
#84=VECTOR('',#360,10.);
#85=VECTOR('',#361,10.);
#86=VECTOR('',#362,10.);
#87=VECTOR('',#363,10.);
#88=VECTOR('',#366,10.);
#89=VECTOR('',#371,10.);
#90=VECTOR('',#372,10.);
#91=VECTOR('',#373,10.);
#92=VECTOR('',#386,10.);
#93=VECTOR('',#391,10.);
#94=VECTOR('',#394,10.);
#95=VECTOR('',#395,10.);
#96=VECTOR('',#406,1.5);
#97=VECTOR('',#415,1.5);
#98=CIRCLE('',#305,3.);
#99=CIRCLE('',#306,3.);
#100=CIRCLE('',#307,3.);
#101=CIRCLE('',#308,5.);
#102=CIRCLE('',#309,2.);
#103=CIRCLE('',#311,3.);
#104=CIRCLE('',#314,5.);
#105=CIRCLE('',#316,3.);
#106=CIRCLE('',#317,2.);
#107=CIRCLE('',#318,3.);
#108=CIRCLE('',#319,5.);
#109=CIRCLE('',#321,3.);
#110=CIRCLE('',#323,3.);
#111=CIRCLE('',#325,1.5);
#112=CIRCLE('',#328,1.5);
#113=CIRCLE('',#330,1.5);
#114=CIRCLE('',#333,1.5);
#115=VERTEX_POINT('',#422);
#116=VERTEX_POINT('',#423);
#117=VERTEX_POINT('',#425);
#118=VERTEX_POINT('',#427);
#119=VERTEX_POINT('',#445);
#120=VERTEX_POINT('',#446);
#121=VERTEX_POINT('',#451);
#122=VERTEX_POINT('',#452);
#123=VERTEX_POINT('',#457);
#124=VERTEX_POINT('',#459);
#125=VERTEX_POINT('',#461);
#126=VERTEX_POINT('',#465);
#127=VERTEX_POINT('',#469);
#128=VERTEX_POINT('',#471);
#129=VERTEX_POINT('',#489);
#130=VERTEX_POINT('',#491);
#131=VERTEX_POINT('',#496);
#132=VERTEX_POINT('',#500);
#133=VERTEX_POINT('',#506);
#134=VERTEX_POINT('',#510);
#135=VERTEX_POINT('',#513);
#136=VERTEX_POINT('',#518);
#137=EDGE_CURVE('',#115,#116,#98,.T.);
#138=EDGE_CURVE('',#116,#117,#62,.T.);
#139=EDGE_CURVE('',#117,#118,#99,.T.);
#140=EDGE_CURVE('',#118,#115,#63,.T.);
#141=EDGE_CURVE('',#119,#120,#100,.T.);
#142=EDGE_CURVE('',#120,#118,#101,.T.);
#143=EDGE_CURVE('',#117,#119,#102,.T.);
#144=EDGE_CURVE('',#121,#122,#103,.T.);
#145=EDGE_CURVE('',#122,#120,#64,.T.);
#146=EDGE_CURVE('',#119,#121,#65,.T.);
#147=EDGE_CURVE('',#123,#118,#66,.T.);
#148=EDGE_CURVE('',#123,#124,#67,.T.);
#149=EDGE_CURVE('',#125,#124,#68,.T.);
#150=EDGE_CURVE('',#125,#115,#69,.T.);
#151=EDGE_CURVE('',#120,#126,#70,.T.);
#152=EDGE_CURVE('',#126,#123,#104,.T.);
#153=EDGE_CURVE('',#122,#127,#71,.T.);
#154=EDGE_CURVE('',#128,#127,#72,.T.);
#155=EDGE_CURVE('',#128,#126,#73,.T.);
#156=EDGE_CURVE('',#128,#129,#105,.T.);
#157=EDGE_CURVE('',#129,#130,#106,.T.);
#158=EDGE_CURVE('',#130,#124,#107,.T.);
#159=EDGE_CURVE('',#124,#128,#108,.F.);
#160=EDGE_CURVE('',#127,#131,#109,.T.);
#161=EDGE_CURVE('',#131,#129,#74,.T.);
#162=EDGE_CURVE('',#132,#125,#110,.T.);
#163=EDGE_CURVE('',#130,#132,#75,.T.);
#164=EDGE_CURVE('',#131,#132,#76,.T.);
#165=EDGE_CURVE('',#116,#121,#77,.T.);
#166=EDGE_CURVE('',#133,#133,#111,.T.);
#167=EDGE_CURVE('',#134,#134,#112,.T.);
#168=EDGE_CURVE('',#134,#135,#78,.T.);
#169=EDGE_CURVE('',#135,#135,#113,.T.);
#170=EDGE_CURVE('',#136,#136,#114,.T.);
#171=EDGE_CURVE('',#136,#133,#79,.T.);
#172=ORIENTED_EDGE('',*,*,#137,.T.);
#173=ORIENTED_EDGE('',*,*,#138,.T.);
#174=ORIENTED_EDGE('',*,*,#139,.T.);
#175=ORIENTED_EDGE('',*,*,#140,.T.);
#176=ORIENTED_EDGE('',*,*,#141,.T.);
#177=ORIENTED_EDGE('',*,*,#142,.T.);
#178=ORIENTED_EDGE('',*,*,#139,.F.);
#179=ORIENTED_EDGE('',*,*,#143,.T.);
#180=ORIENTED_EDGE('',*,*,#144,.T.);
#181=ORIENTED_EDGE('',*,*,#145,.T.);
#182=ORIENTED_EDGE('',*,*,#141,.F.);
#183=ORIENTED_EDGE('',*,*,#146,.T.);
#184=ORIENTED_EDGE('',*,*,#140,.F.);
#185=ORIENTED_EDGE('',*,*,#147,.F.);
#186=ORIENTED_EDGE('',*,*,#148,.T.);
#187=ORIENTED_EDGE('',*,*,#149,.F.);
#188=ORIENTED_EDGE('',*,*,#150,.T.);
#189=ORIENTED_EDGE('',*,*,#142,.F.);
#190=ORIENTED_EDGE('',*,*,#151,.T.);
#191=ORIENTED_EDGE('',*,*,#152,.T.);
#192=ORIENTED_EDGE('',*,*,#147,.T.);
#193=ORIENTED_EDGE('',*,*,#145,.F.);
#194=ORIENTED_EDGE('',*,*,#153,.T.);
#195=ORIENTED_EDGE('',*,*,#154,.F.);
#196=ORIENTED_EDGE('',*,*,#155,.T.);
#197=ORIENTED_EDGE('',*,*,#151,.F.);
#198=ORIENTED_EDGE('',*,*,#156,.T.);
#199=ORIENTED_EDGE('',*,*,#157,.T.);
#200=ORIENTED_EDGE('',*,*,#158,.T.);
#201=ORIENTED_EDGE('',*,*,#159,.T.);
#202=ORIENTED_EDGE('',*,*,#160,.T.);
#203=ORIENTED_EDGE('',*,*,#161,.T.);
#204=ORIENTED_EDGE('',*,*,#156,.F.);
#205=ORIENTED_EDGE('',*,*,#154,.T.);
#206=ORIENTED_EDGE('',*,*,#162,.T.);
#207=ORIENTED_EDGE('',*,*,#149,.T.);
#208=ORIENTED_EDGE('',*,*,#158,.F.);
#209=ORIENTED_EDGE('',*,*,#163,.T.);
#210=ORIENTED_EDGE('',*,*,#137,.F.);
#211=ORIENTED_EDGE('',*,*,#150,.F.);
#212=ORIENTED_EDGE('',*,*,#162,.F.);
#213=ORIENTED_EDGE('',*,*,#164,.F.);
#214=ORIENTED_EDGE('',*,*,#160,.F.);
#215=ORIENTED_EDGE('',*,*,#153,.F.);
#216=ORIENTED_EDGE('',*,*,#144,.F.);
#217=ORIENTED_EDGE('',*,*,#165,.F.);
#218=ORIENTED_EDGE('',*,*,#166,.T.);
#219=ORIENTED_EDGE('',*,*,#163,.F.);
#220=ORIENTED_EDGE('',*,*,#157,.F.);
#221=ORIENTED_EDGE('',*,*,#161,.F.);
#222=ORIENTED_EDGE('',*,*,#164,.T.);
#223=ORIENTED_EDGE('',*,*,#152,.F.);
#224=ORIENTED_EDGE('',*,*,#155,.F.);
#225=ORIENTED_EDGE('',*,*,#159,.F.);
#226=ORIENTED_EDGE('',*,*,#148,.F.);
#227=ORIENTED_EDGE('',*,*,#167,.T.);
#228=ORIENTED_EDGE('',*,*,#167,.F.);
#229=ORIENTED_EDGE('',*,*,#168,.T.);
#230=ORIENTED_EDGE('',*,*,#169,.T.);
#231=ORIENTED_EDGE('',*,*,#168,.F.);
#232=ORIENTED_EDGE('',*,*,#169,.F.);
#233=ORIENTED_EDGE('',*,*,#170,.F.);
#234=ORIENTED_EDGE('',*,*,#171,.T.);
#235=ORIENTED_EDGE('',*,*,#166,.F.);
#236=ORIENTED_EDGE('',*,*,#171,.F.);
#237=ORIENTED_EDGE('',*,*,#170,.T.);
#238=ORIENTED_EDGE('',*,*,#138,.F.);
#239=ORIENTED_EDGE('',*,*,#165,.T.);
#240=ORIENTED_EDGE('',*,*,#146,.F.);
#241=ORIENTED_EDGE('',*,*,#143,.F.);
#242=CYLINDRICAL_SURFACE('',#304,3.);
#243=CYLINDRICAL_SURFACE('',#310,3.);
#244=CYLINDRICAL_SURFACE('',#313,5.);
#245=CYLINDRICAL_SURFACE('',#320,3.);
#246=CYLINDRICAL_SURFACE('',#322,3.);
#247=CYLINDRICAL_SURFACE('',#329,1.5);
#248=CYLINDRICAL_SURFACE('',#332,1.5);
#249=STYLED_ITEM('',(#543),#267);
#250=STYLED_ITEM('',(#543),#268);
#251=STYLED_ITEM('',(#543),#269);
#252=STYLED_ITEM('',(#543),#270);
#253=STYLED_ITEM('',(#543),#271);
#254=STYLED_ITEM('',(#543),#272);
#255=STYLED_ITEM('',(#543),#273);
#256=STYLED_ITEM('',(#543),#274);
#257=STYLED_ITEM('',(#543),#275);
#258=STYLED_ITEM('',(#543),#276);
#259=STYLED_ITEM('',(#543),#277);
#260=STYLED_ITEM('',(#543),#278);
#261=STYLED_ITEM('',(#543),#279);
#262=STYLED_ITEM('',(#543),#280);
#263=STYLED_ITEM('',(#543),#281);
#264=STYLED_ITEM('',(#543),#282);
#265=STYLED_ITEM('',(#543),#283);
#266=STYLED_ITEM('',(#542),#13);
#267=ADVANCED_FACE('',(#26),#242,.T.);
#268=ADVANCED_FACE('',(#27),#24,.F.);
#269=ADVANCED_FACE('',(#28),#243,.T.);
#270=ADVANCED_FACE('',(#29),#16,.T.);
#271=ADVANCED_FACE('',(#30),#244,.T.);
#272=ADVANCED_FACE('',(#31),#17,.T.);
#273=ADVANCED_FACE('',(#32),#25,.F.);
#274=ADVANCED_FACE('',(#33),#245,.T.);
#275=ADVANCED_FACE('',(#34),#246,.T.);
#276=ADVANCED_FACE('',(#35,#14),#18,.F.);
#277=ADVANCED_FACE('',(#36),#19,.T.);
#278=ADVANCED_FACE('',(#37,#15),#20,.F.);
#279=ADVANCED_FACE('',(#38),#247,.F.);
#280=ADVANCED_FACE('',(#39),#21,.T.);
#281=ADVANCED_FACE('',(#40),#248,.T.);
#282=ADVANCED_FACE('',(#41),#22,.T.);
#283=ADVANCED_FACE('',(#42),#23,.T.);
#284=CLOSED_SHELL('',(#267,#268,#269,#270,#271,#272,#273,#274,#275,#276,
#277,#278,#279,#280,#281,#282,#283));
#285=DERIVED_UNIT_ELEMENT(#287,1.);
#286=DERIVED_UNIT_ELEMENT(#528,3.);
#287=(
MASS_UNIT()
NAMED_UNIT(*)
SI_UNIT($,.GRAM.)
);
#288=DERIVED_UNIT((#285,#286));
#289=MEASURE_REPRESENTATION_ITEM('density measure',
POSITIVE_RATIO_MEASURE(1.06),#288);
#290=PROPERTY_DEFINITION_REPRESENTATION(#295,#292);
#291=PROPERTY_DEFINITION_REPRESENTATION(#296,#293);
#292=REPRESENTATION('material name',(#294),#525);
#293=REPRESENTATION('density',(#289),#525);
#294=DESCRIPTIVE_REPRESENTATION_ITEM('ABS Plastic','ABS Plastic');
#295=PROPERTY_DEFINITION('material property','material name',#535);
#296=PROPERTY_DEFINITION('material property','density of part',#535);
#297=DATE_TIME_ROLE('creation_date');
#298=APPLIED_DATE_AND_TIME_ASSIGNMENT(#299,#297,(#535));
#299=DATE_AND_TIME(#300,#301);
#300=CALENDAR_DATE(2025,16,9);
#301=LOCAL_TIME(0,0,0.,#302);
#302=COORDINATED_UNIVERSAL_TIME_OFFSET(0,0,.BEHIND.);
#303=AXIS2_PLACEMENT_3D('placement',#420,#336,#337);
#304=AXIS2_PLACEMENT_3D('',#421,#338,#339);
#305=AXIS2_PLACEMENT_3D('',#424,#340,#341);
#306=AXIS2_PLACEMENT_3D('',#428,#343,#344);
#307=AXIS2_PLACEMENT_3D('',#447,#346,#347);
#308=AXIS2_PLACEMENT_3D('',#448,#348,#349);
#309=AXIS2_PLACEMENT_3D('',#449,#350,#351);
#310=AXIS2_PLACEMENT_3D('',#450,#352,#353);
#311=AXIS2_PLACEMENT_3D('',#453,#354,#355);
#312=AXIS2_PLACEMENT_3D('',#456,#358,#359);
#313=AXIS2_PLACEMENT_3D('',#464,#364,#365);
#314=AXIS2_PLACEMENT_3D('',#467,#367,#368);
#315=AXIS2_PLACEMENT_3D('',#468,#369,#370);
#316=AXIS2_PLACEMENT_3D('',#490,#374,#375);
#317=AXIS2_PLACEMENT_3D('',#492,#376,#377);
#318=AXIS2_PLACEMENT_3D('',#493,#378,#379);
#319=AXIS2_PLACEMENT_3D('',#494,#380,#381);
#320=AXIS2_PLACEMENT_3D('',#495,#382,#383);
#321=AXIS2_PLACEMENT_3D('',#497,#384,#385);
#322=AXIS2_PLACEMENT_3D('',#499,#387,#388);
#323=AXIS2_PLACEMENT_3D('',#501,#389,#390);
#324=AXIS2_PLACEMENT_3D('',#503,#392,#393);
#325=AXIS2_PLACEMENT_3D('',#507,#396,#397);
#326=AXIS2_PLACEMENT_3D('',#508,#398,#399);
#327=AXIS2_PLACEMENT_3D('',#509,#400,#401);
#328=AXIS2_PLACEMENT_3D('',#511,#402,#403);
#329=AXIS2_PLACEMENT_3D('',#512,#404,#405);
#330=AXIS2_PLACEMENT_3D('',#515,#407,#408);
#331=AXIS2_PLACEMENT_3D('',#516,#409,#410);
#332=AXIS2_PLACEMENT_3D('',#517,#411,#412);
#333=AXIS2_PLACEMENT_3D('',#519,#413,#414);
#334=AXIS2_PLACEMENT_3D('',#521,#416,#417);
#335=AXIS2_PLACEMENT_3D('',#522,#418,#419);
#336=DIRECTION('axis',(0.,0.,1.));
#337=DIRECTION('refdir',(1.,0.,0.));
#338=DIRECTION('center_axis',(0.,0.,1.));
#339=DIRECTION('ref_axis',(-0.707106781186547,-0.707106781186547,0.));
#340=DIRECTION('center_axis',(0.,0.,1.));
#341=DIRECTION('ref_axis',(-0.707106781186547,-0.707106781186547,0.));
#342=DIRECTION('',(0.,0.,1.));
#343=DIRECTION('center_axis',(0.,0.,-1.));
#344=DIRECTION('ref_axis',(-9.25185853854297E-17,-1.,0.));
#345=DIRECTION('',(0.,0.,-1.));
#346=DIRECTION('center_axis',(0.,0.,1.));
#347=DIRECTION('ref_axis',(-9.25185853854297E-17,-1.,0.));
#348=DIRECTION('center_axis',(-1.11022302462516E-16,-1.,0.));
#349=DIRECTION('ref_axis',(6.66133814775094E-17,0.,1.));
#350=DIRECTION('center_axis',(1.11022302462516E-16,1.,0.));
#351=DIRECTION('ref_axis',(6.66133814775094E-17,-7.39557098644699E-33,1.));
#352=DIRECTION('center_axis',(0.,0.,1.));
#353=DIRECTION('ref_axis',(0.707106781186548,-0.707106781186548,0.));
#354=DIRECTION('center_axis',(0.,0.,1.));
#355=DIRECTION('ref_axis',(0.707106781186548,-0.707106781186548,0.));
#356=DIRECTION('',(0.,0.,1.));
#357=DIRECTION('',(0.,0.,-1.));
#358=DIRECTION('center_axis',(-1.,-2.22044604925031E-16,0.));
#359=DIRECTION('ref_axis',(2.22044604925031E-16,-1.,0.));
#360=DIRECTION('',(2.22044604925031E-16,-1.,0.));
#361=DIRECTION('',(0.,0.,-1.));
#362=DIRECTION('',(0.,0.,1.));
#363=DIRECTION('',(2.22044604925031E-16,-1.,0.));
#364=DIRECTION('center_axis',(0.,1.,0.));
#365=DIRECTION('ref_axis',(0.707106781186547,0.,0.707106781186547));
#366=DIRECTION('',(0.,1.,0.));
#367=DIRECTION('center_axis',(0.,-1.,0.));
#368=DIRECTION('ref_axis',(-0.707106781186547,-1.57009245868377E-16,0.707106781186547));
#369=DIRECTION('center_axis',(1.,0.,0.));
#370=DIRECTION('ref_axis',(0.,1.,0.));
#371=DIRECTION('',(0.,1.,0.));
#372=DIRECTION('',(0.,0.,-1.));
#373=DIRECTION('',(0.,0.,1.));
#374=DIRECTION('center_axis',(0.,0.,1.));
#375=DIRECTION('ref_axis',(1.,0.,0.));
#376=DIRECTION('center_axis',(1.11022302462516E-16,-1.,0.));
#377=DIRECTION('ref_axis',(4.44089209850062E-17,4.93038065763132E-33,1.));
#378=DIRECTION('center_axis',(0.,0.,1.));
#379=DIRECTION('ref_axis',(-9.25185853854297E-17,1.,0.));
#380=DIRECTION('center_axis',(0.,-1.,0.));
#381=DIRECTION('ref_axis',(-0.707106781186547,-1.57009245868377E-16,0.707106781186547));
#382=DIRECTION('center_axis',(0.,0.,1.));
#383=DIRECTION('ref_axis',(0.707106781186548,0.707106781186547,0.));
#384=DIRECTION('center_axis',(0.,0.,1.));
#385=DIRECTION('ref_axis',(0.707106781186548,0.707106781186547,0.));
#386=DIRECTION('',(0.,0.,1.));
#387=DIRECTION('center_axis',(0.,0.,1.));
#388=DIRECTION('ref_axis',(-0.707106781186548,0.707106781186547,0.));
#389=DIRECTION('center_axis',(0.,0.,1.));
#390=DIRECTION('ref_axis',(-0.707106781186548,0.707106781186547,0.));
#391=DIRECTION('',(0.,0.,-1.));
#392=DIRECTION('center_axis',(0.,0.,1.));
#393=DIRECTION('ref_axis',(1.,0.,0.));
#394=DIRECTION('',(-1.,-1.11022302462516E-16,0.));
#395=DIRECTION('',(1.,-1.11022302462516E-16,0.));
#396=DIRECTION('center_axis',(0.,0.,1.));
#397=DIRECTION('ref_axis',(-1.,0.,0.));
#398=DIRECTION('center_axis',(-1.11022302462516E-16,1.,0.));
#399=DIRECTION('ref_axis',(-1.,-1.11022302462516E-16,0.));
#400=DIRECTION('center_axis',(0.,-1.,0.));
#401=DIRECTION('ref_axis',(-1.,0.,0.));
#402=DIRECTION('center_axis',(0.,-1.,0.));
#403=DIRECTION('ref_axis',(1.,0.,0.));
#404=DIRECTION('center_axis',(0.,-1.,0.));
#405=DIRECTION('ref_axis',(1.,0.,0.));
#406=DIRECTION('',(0.,-1.,0.));
#407=DIRECTION('center_axis',(0.,-1.,0.));
#408=DIRECTION('ref_axis',(1.,0.,0.));
#409=DIRECTION('center_axis',(0.,1.,0.));
#410=DIRECTION('ref_axis',(0.,0.,1.));
#411=DIRECTION('center_axis',(0.,0.,-1.));
#412=DIRECTION('ref_axis',(-1.,0.,0.));
#413=DIRECTION('center_axis',(0.,0.,-1.));
#414=DIRECTION('ref_axis',(-1.,0.,0.));
#415=DIRECTION('',(0.,0.,1.));
#416=DIRECTION('center_axis',(0.,0.,-1.));
#417=DIRECTION('ref_axis',(-1.,0.,0.));
#418=DIRECTION('center_axis',(-1.11022302462516E-16,-1.,0.));
#419=DIRECTION('ref_axis',(1.,-1.11022302462516E-16,0.));
#420=CARTESIAN_POINT('',(0.,0.,0.));
#421=CARTESIAN_POINT('Origin',(-2.,-2.,0.));
#422=CARTESIAN_POINT('',(-5.,-2.,0.));
#423=CARTESIAN_POINT('',(-2.,-5.,0.));
#424=CARTESIAN_POINT('Origin',(-2.,-2.,0.));
#425=CARTESIAN_POINT('',(-2.,-5.,20.));
#426=CARTESIAN_POINT('',(-2.,-5.,0.));
#427=CARTESIAN_POINT('',(-5.,-2.,20.));
#428=CARTESIAN_POINT('Origin',(-2.,-2.,20.));
#429=CARTESIAN_POINT('',(-5.,-2.,0.));
#430=CARTESIAN_POINT('Ctrl Pts',(-2.,-5.,20.));
#431=CARTESIAN_POINT('Ctrl Pts',(-2.,-5.,22.));
#432=CARTESIAN_POINT('Ctrl Pts',(7.7715611723761E-16,-5.,22.));
#433=CARTESIAN_POINT('Ctrl Pts',(2.,-5.,22.));
#434=CARTESIAN_POINT('Ctrl Pts',(2.,-5.,20.));
#435=CARTESIAN_POINT('Ctrl Pts',(-5.,-5.,20.));
#436=CARTESIAN_POINT('Ctrl Pts',(-5.,-5.,25.));
#437=CARTESIAN_POINT('Ctrl Pts',(7.77156117237609E-16,-5.,25.));
#438=CARTESIAN_POINT('Ctrl Pts',(5.,-5.,25.));
#439=CARTESIAN_POINT('Ctrl Pts',(5.,-5.,20.));
#440=CARTESIAN_POINT('Ctrl Pts',(-5.,-2.,20.));
#441=CARTESIAN_POINT('Ctrl Pts',(-5.,-2.,25.));
#442=CARTESIAN_POINT('Ctrl Pts',(1.11022302462516E-15,-2.,25.));
#443=CARTESIAN_POINT('Ctrl Pts',(5.,-2.,25.));
#444=CARTESIAN_POINT('Ctrl Pts',(5.,-2.,20.));
#445=CARTESIAN_POINT('',(2.,-5.,20.));
#446=CARTESIAN_POINT('',(5.,-2.,20.));
#447=CARTESIAN_POINT('Origin',(2.,-2.,20.));
#448=CARTESIAN_POINT('Origin',(1.11022302462516E-15,-2.,20.));
#449=CARTESIAN_POINT('Origin',(7.7715611723761E-16,-5.,20.));
#450=CARTESIAN_POINT('Origin',(2.,-2.,0.));
#451=CARTESIAN_POINT('',(2.,-5.,0.));
#452=CARTESIAN_POINT('',(5.,-2.,0.));
#453=CARTESIAN_POINT('Origin',(2.,-2.,0.));
#454=CARTESIAN_POINT('',(5.,-2.,0.));
#455=CARTESIAN_POINT('',(2.,-5.,0.));
#456=CARTESIAN_POINT('Origin',(-5.,5.,0.));
#457=CARTESIAN_POINT('',(-5.,2.,20.));
#458=CARTESIAN_POINT('',(-5.,2.5,20.));
#459=CARTESIAN_POINT('',(-5.,2.,9.));
#460=CARTESIAN_POINT('',(-5.,2.,12.5));
#461=CARTESIAN_POINT('',(-5.,2.,0.));
#462=CARTESIAN_POINT('',(-5.,2.,0.));
#463=CARTESIAN_POINT('',(-5.,5.,0.));
#464=CARTESIAN_POINT('Origin',(1.11022302462516E-15,-2.5,20.));
#465=CARTESIAN_POINT('',(5.,2.,20.));
#466=CARTESIAN_POINT('',(5.,-2.5,20.));
#467=CARTESIAN_POINT('Origin',(-4.44089209850062E-16,2.,20.));
#468=CARTESIAN_POINT('Origin',(5.,-5.,0.));
#469=CARTESIAN_POINT('',(5.,2.,0.));
#470=CARTESIAN_POINT('',(5.,-5.,0.));
#471=CARTESIAN_POINT('',(5.,2.,9.));
#472=CARTESIAN_POINT('',(5.,2.,0.));
#473=CARTESIAN_POINT('',(5.,2.,12.5));
#474=CARTESIAN_POINT('Ctrl Pts',(2.,5.,9.));
#475=CARTESIAN_POINT('Ctrl Pts',(2.,5.,11.));
#476=CARTESIAN_POINT('Ctrl Pts',(-5.32226757408139E-16,5.,11.));
#477=CARTESIAN_POINT('Ctrl Pts',(-2.,5.,11.));
#478=CARTESIAN_POINT('Ctrl Pts',(-2.,5.,9.));
#479=CARTESIAN_POINT('Ctrl Pts',(5.,5.,9.));
#480=CARTESIAN_POINT('Ctrl Pts',(5.,5.,14.));
#481=CARTESIAN_POINT('Ctrl Pts',(-1.64832717663932E-16,5.,14.));
#482=CARTESIAN_POINT('Ctrl Pts',(-5.,5.,14.));
#483=CARTESIAN_POINT('Ctrl Pts',(-5.,5.,9.));
#484=CARTESIAN_POINT('Ctrl Pts',(5.,2.,9.));
#485=CARTESIAN_POINT('Ctrl Pts',(5.,2.,14.));
#486=CARTESIAN_POINT('Ctrl Pts',(1.68234189723615E-16,2.,14.));
#487=CARTESIAN_POINT('Ctrl Pts',(-5.,2.,14.));
#488=CARTESIAN_POINT('Ctrl Pts',(-5.,2.,9.));
#489=CARTESIAN_POINT('',(2.,5.,9.));
#490=CARTESIAN_POINT('Origin',(2.,2.,9.));
#491=CARTESIAN_POINT('',(-2.,5.,9.));
#492=CARTESIAN_POINT('Origin',(-7.77156117237609E-16,5.,9.));
#493=CARTESIAN_POINT('Origin',(-2.,2.,9.));
#494=CARTESIAN_POINT('Origin',(-4.44089209850062E-16,2.,9.));
#495=CARTESIAN_POINT('Origin',(2.,2.,0.));
#496=CARTESIAN_POINT('',(2.,5.,0.));
#497=CARTESIAN_POINT('Origin',(2.,2.,0.));
#498=CARTESIAN_POINT('',(2.,5.,0.));
#499=CARTESIAN_POINT('Origin',(-2.,2.,0.));
#500=CARTESIAN_POINT('',(-2.,5.,0.));
#501=CARTESIAN_POINT('Origin',(-2.,2.,0.));
#502=CARTESIAN_POINT('',(-2.,5.,0.));
#503=CARTESIAN_POINT('Origin',(0.,1.11022302462516E-15,0.));
#504=CARTESIAN_POINT('',(5.,5.,0.));
#505=CARTESIAN_POINT('',(-5.,-5.,0.));
#506=CARTESIAN_POINT('',(1.5,-1.83697019872103E-16,0.));
#507=CARTESIAN_POINT('Origin',(0.,0.,0.));
#508=CARTESIAN_POINT('Origin',(5.,5.,0.));
#509=CARTESIAN_POINT('Origin',(5.,2.,25.));
#510=CARTESIAN_POINT('',(-1.5,2.,20.));
#511=CARTESIAN_POINT('Origin',(1.11022302462516E-15,2.,20.));
#512=CARTESIAN_POINT('Origin',(1.11022302462516E-15,2.,20.));
#513=CARTESIAN_POINT('',(-1.5,-5.55111512312578E-16,20.));
#514=CARTESIAN_POINT('',(-1.5,2.,20.));
#515=CARTESIAN_POINT('Origin',(1.11022302462516E-15,-5.55111512312578E-16,
20.));
#516=CARTESIAN_POINT('Origin',(1.11022302462516E-15,-5.55111512312578E-16,
20.));
#517=CARTESIAN_POINT('Origin',(0.,0.,0.));
#518=CARTESIAN_POINT('',(1.5,-1.83697019872103E-16,-2.));
#519=CARTESIAN_POINT('Origin',(0.,0.,-2.));
#520=CARTESIAN_POINT('',(1.5,-1.83697019872103E-16,0.));
#521=CARTESIAN_POINT('Origin',(0.,0.,-2.));
#522=CARTESIAN_POINT('Origin',(-5.,-5.,0.));
#523=UNCERTAINTY_MEASURE_WITH_UNIT(LENGTH_MEASURE(0.01),#527,
'DISTANCE_ACCURACY_VALUE',
'Maximum model space distance between geometric entities at asserted c
onnectivities');
#524=UNCERTAINTY_MEASURE_WITH_UNIT(LENGTH_MEASURE(0.01),#527,
'DISTANCE_ACCURACY_VALUE',
'Maximum model space distance between geometric entities at asserted c
onnectivities');
#525=(
GEOMETRIC_REPRESENTATION_CONTEXT(3)
GLOBAL_UNCERTAINTY_ASSIGNED_CONTEXT((#523))
GLOBAL_UNIT_ASSIGNED_CONTEXT((#527,#529,#530))
REPRESENTATION_CONTEXT('','3D')
);
#526=(
GEOMETRIC_REPRESENTATION_CONTEXT(3)
GLOBAL_UNCERTAINTY_ASSIGNED_CONTEXT((#524))
GLOBAL_UNIT_ASSIGNED_CONTEXT((#527,#529,#530))
REPRESENTATION_CONTEXT('','3D')
);
#527=(
LENGTH_UNIT()
NAMED_UNIT(*)
SI_UNIT(.MILLI.,.METRE.)
);
#528=(
LENGTH_UNIT()
NAMED_UNIT(*)
SI_UNIT(.CENTI.,.METRE.)
);
#529=(
NAMED_UNIT(*)
PLANE_ANGLE_UNIT()
SI_UNIT($,.RADIAN.)
);
#530=(
NAMED_UNIT(*)
SI_UNIT($,.STERADIAN.)
SOLID_ANGLE_UNIT()
);
#531=SHAPE_DEFINITION_REPRESENTATION(#532,#533);
#532=PRODUCT_DEFINITION_SHAPE('',$,#535);
#533=SHAPE_REPRESENTATION('',(#303),#525);
#534=PRODUCT_DEFINITION_CONTEXT('part definition',#539,'design');
#535=PRODUCT_DEFINITION('link4','link4',#536,#534);
#536=PRODUCT_DEFINITION_FORMATION('',$,#541);
#537=PRODUCT_RELATED_PRODUCT_CATEGORY('link4','link4',(#541));
#538=APPLICATION_PROTOCOL_DEFINITION('international standard',
'automotive_design',2009,#539);
#539=APPLICATION_CONTEXT(
'Core Data for Automotive Mechanical Design Process');
#540=PRODUCT_CONTEXT('part definition',#539,'mechanical');
#541=PRODUCT('link4','link4',$,(#540));
#542=PRESENTATION_STYLE_ASSIGNMENT((#544));
#543=PRESENTATION_STYLE_ASSIGNMENT((#545));
#544=SURFACE_STYLE_USAGE(.BOTH.,#550);
#545=SURFACE_STYLE_USAGE(.BOTH.,#551);
#546=SURFACE_STYLE_RENDERING_WITH_PROPERTIES($,#558,(#548));
#547=SURFACE_STYLE_RENDERING_WITH_PROPERTIES($,#559,(#549));
#548=SURFACE_STYLE_TRANSPARENT(0.);
#549=SURFACE_STYLE_TRANSPARENT(0.);
#550=SURFACE_SIDE_STYLE('',(#552,#546));
#551=SURFACE_SIDE_STYLE('',(#553,#547));
#552=SURFACE_STYLE_FILL_AREA(#554);
#553=SURFACE_STYLE_FILL_AREA(#555);
#554=FILL_AREA_STYLE('',(#556));
#555=FILL_AREA_STYLE('',(#557));
#556=FILL_AREA_STYLE_COLOUR('',#558);
#557=FILL_AREA_STYLE_COLOUR('',#559);
#558=COLOUR_RGB('',0.92156862745098,0.92156862745098,0.92156862745098);
#559=COLOUR_RGB('',0.180392156862745,0.541176470588235,0.341176470588235);
ENDSEC;
END-ISO-10303-21;
