ISO-10303-21;
HEADER;
/* Generated by software containing ST-Developer
 * from STEP Tools, Inc. (www.steptools.com) 
 */

FILE_DESCRIPTION(
/* description */ (''),
/* implementation_level */ '2;1');

FILE_NAME(
/* name */ 
'C:\\Users\\eyome\\OneDrive\\Documents\\Inventor\\6DOFArmV3\\\\link2_i
pt_3256141d.STEP',
/* time_stamp */ '2025-09-17T16:20:03+03:00',
/* author */ ('eyome'),
/* organization */ (''),
/* preprocessor_version */ 'ST-DEVELOPER v18.1',
/* originating_system */ 'Autodesk Inventor 2021',
/* authorisation */ '');

FILE_SCHEMA (('AUTOMOTIVE_DESIGN { 1 0 10303 214 3 1 1 }'));
ENDSEC;

DATA;
#10=MECHANICAL_DESIGN_GEOMETRIC_PRESENTATION_REPRESENTATION('',(#280,#281,
#282,#283,#284,#285,#286,#287,#288,#289,#290,#291,#292,#293,#294,#295,#296,
#297,#298,#299,#300),#619);
#11=SHAPE_REPRESENTATION_RELATIONSHIP('SRR','None',#626,#12);
#12=ADVANCED_BREP_SHAPE_REPRESENTATION('',(#13),#618);
#13=MANIFOLD_SOLID_BREP('Solid1',#321);
#14=FACE_BOUND('',#107,.T.);
#15=FACE_BOUND('',#109,.T.);
#16=PLANE('',#351);
#17=PLANE('',#354);
#18=PLANE('',#365);
#19=PLANE('',#366);
#20=PLANE('',#372);
#21=PLANE('',#376);
#22=PLANE('',#377);
#23=PLANE('',#378);
#24=LINE('',#503,#42);
#25=LINE('',#504,#43);
#26=LINE('',#526,#44);
#27=LINE('',#527,#45);
#28=LINE('',#530,#46);
#29=LINE('',#532,#47);
#30=LINE('',#534,#48);
#31=LINE('',#535,#49);
#32=LINE('',#538,#50);
#33=LINE('',#587,#51);
#34=LINE('',#588,#52);
#35=LINE('',#591,#53);
#36=LINE('',#592,#54);
#37=LINE('',#593,#55);
#38=LINE('',#595,#56);
#39=LINE('',#596,#57);
#40=LINE('',#604,#58);
#41=LINE('',#611,#59);
#42=VECTOR('',#393,10.);
#43=VECTOR('',#394,10.);
#44=VECTOR('',#403,10.);
#45=VECTOR('',#404,10.);
#46=VECTOR('',#407,10.);
#47=VECTOR('',#408,10.);
#48=VECTOR('',#409,10.);
#49=VECTOR('',#410,10.);
#50=VECTOR('',#413,10.);
#51=VECTOR('',#436,10.);
#52=VECTOR('',#437,10.);
#53=VECTOR('',#440,10.);
#54=VECTOR('',#441,10.);
#55=VECTOR('',#442,10.);
#56=VECTOR('',#445,10.);
#57=VECTOR('',#446,10.);
#58=VECTOR('',#457,1.5);
#59=VECTOR('',#466,1.5);
#60=CYLINDRICAL_SURFACE('',#345,3.);
#61=CYLINDRICAL_SURFACE('',#350,3.);
#62=CYLINDRICAL_SURFACE('',#352,5.);
#63=CYLINDRICAL_SURFACE('',#363,3.);
#64=CYLINDRICAL_SURFACE('',#364,3.);
#65=CYLINDRICAL_SURFACE('',#367,5.);
#66=CYLINDRICAL_SURFACE('',#369,1.5);
#67=CYLINDRICAL_SURFACE('',#373,1.5);
#68=FACE_OUTER_BOUND('',#88,.T.);
#69=FACE_OUTER_BOUND('',#89,.T.);
#70=FACE_OUTER_BOUND('',#90,.T.);
#71=FACE_OUTER_BOUND('',#91,.T.);
#72=FACE_OUTER_BOUND('',#92,.T.);
#73=FACE_OUTER_BOUND('',#93,.T.);
#74=FACE_OUTER_BOUND('',#94,.T.);
#75=FACE_OUTER_BOUND('',#95,.T.);
#76=FACE_OUTER_BOUND('',#96,.T.);
#77=FACE_OUTER_BOUND('',#97,.T.);
#78=FACE_OUTER_BOUND('',#98,.T.);
#79=FACE_OUTER_BOUND('',#99,.T.);
#80=FACE_OUTER_BOUND('',#100,.T.);
#81=FACE_OUTER_BOUND('',#101,.T.);
#82=FACE_OUTER_BOUND('',#102,.T.);
#83=FACE_OUTER_BOUND('',#103,.T.);
#84=FACE_OUTER_BOUND('',#104,.T.);
#85=FACE_OUTER_BOUND('',#105,.T.);
#86=FACE_OUTER_BOUND('',#106,.T.);
#87=FACE_OUTER_BOUND('',#108,.T.);
#88=EDGE_LOOP('',(#196,#197,#198,#199));
#89=EDGE_LOOP('',(#200,#201,#202,#203));
#90=EDGE_LOOP('',(#204,#205,#206,#207));
#91=EDGE_LOOP('',(#208,#209,#210,#211));
#92=EDGE_LOOP('',(#212,#213,#214,#215,#216));
#93=EDGE_LOOP('',(#217,#218,#219,#220));
#94=EDGE_LOOP('',(#221,#222,#223,#224));
#95=EDGE_LOOP('',(#225,#226,#227,#228));
#96=EDGE_LOOP('',(#229,#230,#231,#232));
#97=EDGE_LOOP('',(#233,#234,#235,#236,#237));
#98=EDGE_LOOP('',(#238,#239,#240,#241,#242));
#99=EDGE_LOOP('',(#243,#244,#245,#246,#247));
#100=EDGE_LOOP('',(#248,#249,#250,#251));
#101=EDGE_LOOP('',(#252,#253,#254,#255));
#102=EDGE_LOOP('',(#256,#257,#258,#259));
#103=EDGE_LOOP('',(#260));
#104=EDGE_LOOP('',(#261,#262,#263,#264));
#105=EDGE_LOOP('',(#265));
#106=EDGE_LOOP('',(#266,#267,#268,#269));
#107=EDGE_LOOP('',(#270));
#108=EDGE_LOOP('',(#271,#272,#273,#274));
#109=EDGE_LOOP('',(#275));
#110=CIRCLE('',#341,3.);
#111=CIRCLE('',#342,2.);
#112=CIRCLE('',#343,3.);
#113=CIRCLE('',#344,5.);
#114=CIRCLE('',#346,3.);
#115=CIRCLE('',#347,3.);
#116=CIRCLE('',#348,5.);
#117=CIRCLE('',#349,2.);
#118=CIRCLE('',#353,5.);
#119=CIRCLE('',#355,3.);
#120=CIRCLE('',#356,2.);
#121=CIRCLE('',#357,3.);
#122=CIRCLE('',#358,5.);
#123=CIRCLE('',#359,3.);
#124=CIRCLE('',#360,2.);
#125=CIRCLE('',#361,3.);
#126=CIRCLE('',#362,5.);
#127=CIRCLE('',#368,5.);
#128=CIRCLE('',#370,1.5);
#129=CIRCLE('',#371,1.5);
#130=CIRCLE('',#374,1.5);
#131=CIRCLE('',#375,1.5);
#132=VERTEX_POINT('',#491);
#133=VERTEX_POINT('',#492);
#134=VERTEX_POINT('',#494);
#135=VERTEX_POINT('',#496);
#136=VERTEX_POINT('',#500);
#137=VERTEX_POINT('',#501);
#138=VERTEX_POINT('',#520);
#139=VERTEX_POINT('',#521);
#140=VERTEX_POINT('',#529);
#141=VERTEX_POINT('',#531);
#142=VERTEX_POINT('',#533);
#143=VERTEX_POINT('',#537);
#144=VERTEX_POINT('',#556);
#145=VERTEX_POINT('',#557);
#146=VERTEX_POINT('',#559);
#147=VERTEX_POINT('',#561);
#148=VERTEX_POINT('',#579);
#149=VERTEX_POINT('',#580);
#150=VERTEX_POINT('',#582);
#151=VERTEX_POINT('',#590);
#152=VERTEX_POINT('',#601);
#153=VERTEX_POINT('',#603);
#154=VERTEX_POINT('',#608);
#155=VERTEX_POINT('',#610);
#156=EDGE_CURVE('',#132,#133,#110,.T.);
#157=EDGE_CURVE('',#133,#134,#111,.T.);
#158=EDGE_CURVE('',#134,#135,#112,.T.);
#159=EDGE_CURVE('',#135,#132,#113,.T.);
#160=EDGE_CURVE('',#136,#137,#114,.T.);
#161=EDGE_CURVE('',#137,#135,#24,.T.);
#162=EDGE_CURVE('',#134,#136,#25,.T.);
#163=EDGE_CURVE('',#138,#139,#115,.T.);
#164=EDGE_CURVE('',#139,#137,#116,.T.);
#165=EDGE_CURVE('',#136,#138,#117,.T.);
#166=EDGE_CURVE('',#132,#139,#26,.T.);
#167=EDGE_CURVE('',#138,#133,#27,.T.);
#168=EDGE_CURVE('',#140,#132,#28,.T.);
#169=EDGE_CURVE('',#140,#141,#29,.T.);
#170=EDGE_CURVE('',#142,#141,#30,.T.);
#171=EDGE_CURVE('',#139,#142,#31,.T.);
#172=EDGE_CURVE('',#135,#143,#32,.T.);
#173=EDGE_CURVE('',#143,#140,#118,.T.);
#174=EDGE_CURVE('',#144,#145,#119,.T.);
#175=EDGE_CURVE('',#145,#146,#120,.T.);
#176=EDGE_CURVE('',#146,#147,#121,.T.);
#177=EDGE_CURVE('',#147,#144,#122,.T.);
#178=EDGE_CURVE('',#148,#149,#123,.T.);
#179=EDGE_CURVE('',#149,#150,#124,.T.);
#180=EDGE_CURVE('',#150,#141,#125,.T.);
#181=EDGE_CURVE('',#141,#148,#126,.F.);
#182=EDGE_CURVE('',#150,#145,#33,.T.);
#183=EDGE_CURVE('',#144,#142,#34,.T.);
#184=EDGE_CURVE('',#148,#151,#35,.T.);
#185=EDGE_CURVE('',#151,#147,#36,.T.);
#186=EDGE_CURVE('',#146,#149,#37,.T.);
#187=EDGE_CURVE('',#151,#137,#38,.T.);
#188=EDGE_CURVE('',#148,#143,#39,.T.);
#189=EDGE_CURVE('',#142,#151,#127,.F.);
#190=EDGE_CURVE('',#152,#152,#128,.T.);
#191=EDGE_CURVE('',#152,#153,#40,.T.);
#192=EDGE_CURVE('',#153,#153,#129,.T.);
#193=EDGE_CURVE('',#154,#154,#130,.T.);
#194=EDGE_CURVE('',#154,#155,#41,.T.);
#195=EDGE_CURVE('',#155,#155,#131,.T.);
#196=ORIENTED_EDGE('',*,*,#156,.T.);
#197=ORIENTED_EDGE('',*,*,#157,.T.);
#198=ORIENTED_EDGE('',*,*,#158,.T.);
#199=ORIENTED_EDGE('',*,*,#159,.T.);
#200=ORIENTED_EDGE('',*,*,#160,.T.);
#201=ORIENTED_EDGE('',*,*,#161,.T.);
#202=ORIENTED_EDGE('',*,*,#158,.F.);
#203=ORIENTED_EDGE('',*,*,#162,.T.);
#204=ORIENTED_EDGE('',*,*,#163,.T.);
#205=ORIENTED_EDGE('',*,*,#164,.T.);
#206=ORIENTED_EDGE('',*,*,#160,.F.);
#207=ORIENTED_EDGE('',*,*,#165,.T.);
#208=ORIENTED_EDGE('',*,*,#156,.F.);
#209=ORIENTED_EDGE('',*,*,#166,.T.);
#210=ORIENTED_EDGE('',*,*,#163,.F.);
#211=ORIENTED_EDGE('',*,*,#167,.T.);
#212=ORIENTED_EDGE('',*,*,#166,.F.);
#213=ORIENTED_EDGE('',*,*,#168,.F.);
#214=ORIENTED_EDGE('',*,*,#169,.T.);
#215=ORIENTED_EDGE('',*,*,#170,.F.);
#216=ORIENTED_EDGE('',*,*,#171,.F.);
#217=ORIENTED_EDGE('',*,*,#159,.F.);
#218=ORIENTED_EDGE('',*,*,#172,.T.);
#219=ORIENTED_EDGE('',*,*,#173,.T.);
#220=ORIENTED_EDGE('',*,*,#168,.T.);
#221=ORIENTED_EDGE('',*,*,#157,.F.);
#222=ORIENTED_EDGE('',*,*,#167,.F.);
#223=ORIENTED_EDGE('',*,*,#165,.F.);
#224=ORIENTED_EDGE('',*,*,#162,.F.);
#225=ORIENTED_EDGE('',*,*,#174,.T.);
#226=ORIENTED_EDGE('',*,*,#175,.T.);
#227=ORIENTED_EDGE('',*,*,#176,.T.);
#228=ORIENTED_EDGE('',*,*,#177,.T.);
#229=ORIENTED_EDGE('',*,*,#178,.T.);
#230=ORIENTED_EDGE('',*,*,#179,.T.);
#231=ORIENTED_EDGE('',*,*,#180,.T.);
#232=ORIENTED_EDGE('',*,*,#181,.T.);
#233=ORIENTED_EDGE('',*,*,#180,.F.);
#234=ORIENTED_EDGE('',*,*,#182,.T.);
#235=ORIENTED_EDGE('',*,*,#174,.F.);
#236=ORIENTED_EDGE('',*,*,#183,.T.);
#237=ORIENTED_EDGE('',*,*,#170,.T.);
#238=ORIENTED_EDGE('',*,*,#178,.F.);
#239=ORIENTED_EDGE('',*,*,#184,.T.);
#240=ORIENTED_EDGE('',*,*,#185,.T.);
#241=ORIENTED_EDGE('',*,*,#176,.F.);
#242=ORIENTED_EDGE('',*,*,#186,.T.);
#243=ORIENTED_EDGE('',*,*,#161,.F.);
#244=ORIENTED_EDGE('',*,*,#187,.F.);
#245=ORIENTED_EDGE('',*,*,#184,.F.);
#246=ORIENTED_EDGE('',*,*,#188,.T.);
#247=ORIENTED_EDGE('',*,*,#172,.F.);
#248=ORIENTED_EDGE('',*,*,#179,.F.);
#249=ORIENTED_EDGE('',*,*,#186,.F.);
#250=ORIENTED_EDGE('',*,*,#175,.F.);
#251=ORIENTED_EDGE('',*,*,#182,.F.);
#252=ORIENTED_EDGE('',*,*,#164,.F.);
#253=ORIENTED_EDGE('',*,*,#171,.T.);
#254=ORIENTED_EDGE('',*,*,#189,.T.);
#255=ORIENTED_EDGE('',*,*,#187,.T.);
#256=ORIENTED_EDGE('',*,*,#190,.F.);
#257=ORIENTED_EDGE('',*,*,#191,.T.);
#258=ORIENTED_EDGE('',*,*,#192,.F.);
#259=ORIENTED_EDGE('',*,*,#191,.F.);
#260=ORIENTED_EDGE('',*,*,#190,.T.);
#261=ORIENTED_EDGE('',*,*,#193,.F.);
#262=ORIENTED_EDGE('',*,*,#194,.T.);
#263=ORIENTED_EDGE('',*,*,#195,.T.);
#264=ORIENTED_EDGE('',*,*,#194,.F.);
#265=ORIENTED_EDGE('',*,*,#195,.F.);
#266=ORIENTED_EDGE('',*,*,#173,.F.);
#267=ORIENTED_EDGE('',*,*,#188,.F.);
#268=ORIENTED_EDGE('',*,*,#181,.F.);
#269=ORIENTED_EDGE('',*,*,#169,.F.);
#270=ORIENTED_EDGE('',*,*,#193,.T.);
#271=ORIENTED_EDGE('',*,*,#177,.F.);
#272=ORIENTED_EDGE('',*,*,#185,.F.);
#273=ORIENTED_EDGE('',*,*,#189,.F.);
#274=ORIENTED_EDGE('',*,*,#183,.F.);
#275=ORIENTED_EDGE('',*,*,#192,.T.);
#276=(
BOUNDED_SURFACE()
B_SPLINE_SURFACE(2,2,((#476,#477,#478,#479,#480),(#481,#482,#483,#484,#485),
(#486,#487,#488,#489,#490)),.UNSPECIFIED.,.F.,.F.,.F.)
B_SPLINE_SURFACE_WITH_KNOTS((3,3),(3,2,3),(-1.5707963267949,3.83224528382184E-17),
(-1.5707963267949,0.,1.5707963267949),.UNSPECIFIED.)
GEOMETRIC_REPRESENTATION_ITEM()
RATIONAL_B_SPLINE_SURFACE(((1.,0.707106781186548,1.,0.707106781186548,1.),
(0.707106781186538,0.499999999999993,0.707106781186538,0.499999999999993,
0.707106781186538),(1.,0.707106781186548,1.,0.707106781186548,1.)))
REPRESENTATION_ITEM('')
SURFACE()
);
#277=(
BOUNDED_SURFACE()
B_SPLINE_SURFACE(2,2,((#505,#506,#507,#508,#509),(#510,#511,#512,#513,#514),
(#515,#516,#517,#518,#519)),.UNSPECIFIED.,.F.,.F.,.F.)
B_SPLINE_SURFACE_WITH_KNOTS((3,3),(3,2,3),(-1.5707963267949,2.77555756156289E-16),
(-1.5707963267949,-2.22044604925031E-16,1.5707963267949),.UNSPECIFIED.)
GEOMETRIC_REPRESENTATION_ITEM()
RATIONAL_B_SPLINE_SURFACE(((1.,0.707106781186548,1.,0.707106781186548,1.),
(0.707106781186548,0.5,0.707106781186548,0.5,0.707106781186548),(1.,0.707106781186548,
1.,0.707106781186548,1.)))
REPRESENTATION_ITEM('')
SURFACE()
);
#278=(
BOUNDED_SURFACE()
B_SPLINE_SURFACE(2,2,((#541,#542,#543,#544,#545),(#546,#547,#548,#549,#550),
(#551,#552,#553,#554,#555)),.UNSPECIFIED.,.F.,.F.,.F.)
B_SPLINE_SURFACE_WITH_KNOTS((3,3),(3,2,3),(-1.5707963267949,-1.85037170770859E-16),
(-1.5707963267949,4.44089209850063E-16,1.5707963267949),.UNSPECIFIED.)
GEOMETRIC_REPRESENTATION_ITEM()
RATIONAL_B_SPLINE_SURFACE(((1.,0.707106781186547,1.,0.707106781186547,1.),
(0.707106781186548,0.5,0.707106781186548,0.5,0.707106781186548),(1.,0.707106781186547,
1.,0.707106781186547,1.)))
REPRESENTATION_ITEM('')
SURFACE()
);
#279=(
BOUNDED_SURFACE()
B_SPLINE_SURFACE(2,2,((#564,#565,#566,#567,#568),(#569,#570,#571,#572,#573),
(#574,#575,#576,#577,#578)),.UNSPECIFIED.,.F.,.F.,.F.)
B_SPLINE_SURFACE_WITH_KNOTS((3,3),(3,2,3),(-1.5707963267949,5.55111512312578E-16),
(-1.5707963267949,0.,1.5707963267949),.UNSPECIFIED.)
GEOMETRIC_REPRESENTATION_ITEM()
RATIONAL_B_SPLINE_SURFACE(((1.,0.707106781186548,1.,0.707106781186548,1.),
(0.707106781186553,0.500000000000004,0.707106781186553,0.500000000000004,
0.707106781186553),(1.,0.707106781186548,1.,0.707106781186548,1.)))
REPRESENTATION_ITEM('')
SURFACE()
);
#280=STYLED_ITEM('',(#636),#301);
#281=STYLED_ITEM('',(#636),#302);
#282=STYLED_ITEM('',(#636),#303);
#283=STYLED_ITEM('',(#636),#304);
#284=STYLED_ITEM('',(#636),#305);
#285=STYLED_ITEM('',(#636),#306);
#286=STYLED_ITEM('',(#636),#307);
#287=STYLED_ITEM('',(#636),#308);
#288=STYLED_ITEM('',(#636),#309);
#289=STYLED_ITEM('',(#636),#310);
#290=STYLED_ITEM('',(#636),#311);
#291=STYLED_ITEM('',(#636),#312);
#292=STYLED_ITEM('',(#636),#313);
#293=STYLED_ITEM('',(#636),#314);
#294=STYLED_ITEM('',(#636),#315);
#295=STYLED_ITEM('',(#636),#316);
#296=STYLED_ITEM('',(#636),#317);
#297=STYLED_ITEM('',(#636),#318);
#298=STYLED_ITEM('',(#636),#319);
#299=STYLED_ITEM('',(#636),#320);
#300=STYLED_ITEM('',(#635),#13);
#301=ADVANCED_FACE('',(#68),#276,.F.);
#302=ADVANCED_FACE('',(#69),#60,.T.);
#303=ADVANCED_FACE('',(#70),#277,.F.);
#304=ADVANCED_FACE('',(#71),#61,.T.);
#305=ADVANCED_FACE('',(#72),#16,.T.);
#306=ADVANCED_FACE('',(#73),#62,.T.);
#307=ADVANCED_FACE('',(#74),#17,.T.);
#308=ADVANCED_FACE('',(#75),#278,.F.);
#309=ADVANCED_FACE('',(#76),#279,.F.);
#310=ADVANCED_FACE('',(#77),#63,.T.);
#311=ADVANCED_FACE('',(#78),#64,.T.);
#312=ADVANCED_FACE('',(#79),#18,.T.);
#313=ADVANCED_FACE('',(#80),#19,.T.);
#314=ADVANCED_FACE('',(#81),#65,.T.);
#315=ADVANCED_FACE('',(#82),#66,.T.);
#316=ADVANCED_FACE('',(#83),#20,.T.);
#317=ADVANCED_FACE('',(#84),#67,.F.);
#318=ADVANCED_FACE('',(#85),#21,.T.);
#319=ADVANCED_FACE('',(#86,#14),#22,.F.);
#320=ADVANCED_FACE('',(#87,#15),#23,.F.);
#321=CLOSED_SHELL('',(#301,#302,#303,#304,#305,#306,#307,#308,#309,#310,
#311,#312,#313,#314,#315,#316,#317,#318,#319,#320));
#322=DERIVED_UNIT_ELEMENT(#324,1.);
#323=DERIVED_UNIT_ELEMENT(#621,3.);
#324=(
MASS_UNIT()
NAMED_UNIT(*)
SI_UNIT($,.GRAM.)
);
#325=DERIVED_UNIT((#322,#323));
#326=MEASURE_REPRESENTATION_ITEM('density measure',
POSITIVE_RATIO_MEASURE(1.06),#325);
#327=PROPERTY_DEFINITION_REPRESENTATION(#332,#329);
#328=PROPERTY_DEFINITION_REPRESENTATION(#333,#330);
#329=REPRESENTATION('material name',(#331),#618);
#330=REPRESENTATION('density',(#326),#618);
#331=DESCRIPTIVE_REPRESENTATION_ITEM('ABS Plastic','ABS Plastic');
#332=PROPERTY_DEFINITION('material property','material name',#628);
#333=PROPERTY_DEFINITION('material property','density of part',#628);
#334=DATE_TIME_ROLE('creation_date');
#335=APPLIED_DATE_AND_TIME_ASSIGNMENT(#336,#334,(#628));
#336=DATE_AND_TIME(#337,#338);
#337=CALENDAR_DATE(2025,16,9);
#338=LOCAL_TIME(0,0,0.,#339);
#339=COORDINATED_UNIVERSAL_TIME_OFFSET(0,0,.BEHIND.);
#340=AXIS2_PLACEMENT_3D('placement',#475,#379,#380);
#341=AXIS2_PLACEMENT_3D('',#493,#381,#382);
#342=AXIS2_PLACEMENT_3D('',#495,#383,#384);
#343=AXIS2_PLACEMENT_3D('',#497,#385,#386);
#344=AXIS2_PLACEMENT_3D('',#498,#387,#388);
#345=AXIS2_PLACEMENT_3D('',#499,#389,#390);
#346=AXIS2_PLACEMENT_3D('',#502,#391,#392);
#347=AXIS2_PLACEMENT_3D('',#522,#395,#396);
#348=AXIS2_PLACEMENT_3D('',#523,#397,#398);
#349=AXIS2_PLACEMENT_3D('',#524,#399,#400);
#350=AXIS2_PLACEMENT_3D('',#525,#401,#402);
#351=AXIS2_PLACEMENT_3D('',#528,#405,#406);
#352=AXIS2_PLACEMENT_3D('',#536,#411,#412);
#353=AXIS2_PLACEMENT_3D('',#539,#414,#415);
#354=AXIS2_PLACEMENT_3D('',#540,#416,#417);
#355=AXIS2_PLACEMENT_3D('',#558,#418,#419);
#356=AXIS2_PLACEMENT_3D('',#560,#420,#421);
#357=AXIS2_PLACEMENT_3D('',#562,#422,#423);
#358=AXIS2_PLACEMENT_3D('',#563,#424,#425);
#359=AXIS2_PLACEMENT_3D('',#581,#426,#427);
#360=AXIS2_PLACEMENT_3D('',#583,#428,#429);
#361=AXIS2_PLACEMENT_3D('',#584,#430,#431);
#362=AXIS2_PLACEMENT_3D('',#585,#432,#433);
#363=AXIS2_PLACEMENT_3D('',#586,#434,#435);
#364=AXIS2_PLACEMENT_3D('',#589,#438,#439);
#365=AXIS2_PLACEMENT_3D('',#594,#443,#444);
#366=AXIS2_PLACEMENT_3D('',#597,#447,#448);
#367=AXIS2_PLACEMENT_3D('',#598,#449,#450);
#368=AXIS2_PLACEMENT_3D('',#599,#451,#452);
#369=AXIS2_PLACEMENT_3D('',#600,#453,#454);
#370=AXIS2_PLACEMENT_3D('',#602,#455,#456);
#371=AXIS2_PLACEMENT_3D('',#605,#458,#459);
#372=AXIS2_PLACEMENT_3D('',#606,#460,#461);
#373=AXIS2_PLACEMENT_3D('',#607,#462,#463);
#374=AXIS2_PLACEMENT_3D('',#609,#464,#465);
#375=AXIS2_PLACEMENT_3D('',#612,#467,#468);
#376=AXIS2_PLACEMENT_3D('',#613,#469,#470);
#377=AXIS2_PLACEMENT_3D('',#614,#471,#472);
#378=AXIS2_PLACEMENT_3D('',#615,#473,#474);
#379=DIRECTION('axis',(0.,0.,1.));
#380=DIRECTION('refdir',(1.,0.,0.));
#381=DIRECTION('center_axis',(0.,0.,1.));
#382=DIRECTION('ref_axis',(-1.,9.25185853854297E-17,0.));
#383=DIRECTION('center_axis',(1.11022302462516E-16,1.,0.));
#384=DIRECTION('ref_axis',(1.66533453693774E-16,-1.84889274661175E-32,1.));
#385=DIRECTION('center_axis',(0.,0.,1.));
#386=DIRECTION('ref_axis',(-9.25185853854297E-17,-1.,0.));
#387=DIRECTION('center_axis',(-1.11022302462516E-16,-1.,0.));
#388=DIRECTION('ref_axis',(1.66533453693774E-16,0.,1.));
#389=DIRECTION('center_axis',(0.,0.,1.));
#390=DIRECTION('ref_axis',(0.707106781186547,-0.707106781186548,0.));
#391=DIRECTION('center_axis',(0.,0.,1.));
#392=DIRECTION('ref_axis',(-9.25185853854297E-17,-1.,0.));
#393=DIRECTION('',(0.,0.,1.));
#394=DIRECTION('',(0.,0.,-1.));
#395=DIRECTION('center_axis',(0.,0.,-1.));
#396=DIRECTION('ref_axis',(-9.25185853854297E-17,-1.,0.));
#397=DIRECTION('center_axis',(-1.11022302462516E-16,-1.,0.));
#398=DIRECTION('ref_axis',(-1.77635683940025E-16,0.,-1.));
#399=DIRECTION('center_axis',(1.11022302462516E-16,1.,0.));
#400=DIRECTION('ref_axis',(-1.77635683940025E-16,1.97215226305253E-32,-1.));
#401=DIRECTION('center_axis',(0.,0.,1.));
#402=DIRECTION('ref_axis',(-0.707106781186547,-0.707106781186548,0.));
#403=DIRECTION('',(0.,0.,-1.));
#404=DIRECTION('',(0.,0.,1.));
#405=DIRECTION('center_axis',(-1.,-1.66533453693774E-16,0.));
#406=DIRECTION('ref_axis',(1.66533453693774E-16,-1.,0.));
#407=DIRECTION('',(1.66533453693774E-16,-1.,0.));
#408=DIRECTION('',(0.,0.,-1.));
#409=DIRECTION('',(0.,0.,1.));
#410=DIRECTION('',(-1.66533453693774E-16,1.,0.));
#411=DIRECTION('center_axis',(1.66533453693774E-16,-1.,0.));
#412=DIRECTION('ref_axis',(-0.707106781186547,-1.57009245868377E-16,0.707106781186547));
#413=DIRECTION('',(2.22044604925031E-16,1.,0.));
#414=DIRECTION('center_axis',(0.,-1.,0.));
#415=DIRECTION('ref_axis',(-0.707106781186547,-1.57009245868377E-16,0.707106781186547));
#416=DIRECTION('center_axis',(-1.11022302462516E-16,-1.,0.));
#417=DIRECTION('ref_axis',(1.,-1.11022302462516E-16,0.));
#418=DIRECTION('center_axis',(0.,0.,-1.));
#419=DIRECTION('ref_axis',(-1.,7.40148683083438E-16,0.));
#420=DIRECTION('center_axis',(1.11022302462516E-16,-1.,0.));
#421=DIRECTION('ref_axis',(2.99760216648792E-16,3.32800694390114E-32,-1.));
#422=DIRECTION('center_axis',(0.,0.,-1.));
#423=DIRECTION('ref_axis',(-9.25185853854297E-17,1.,0.));
#424=DIRECTION('center_axis',(0.,1.,0.));
#425=DIRECTION('ref_axis',(-0.707106781186547,-1.57009245868377E-16,-0.707106781186547));
#426=DIRECTION('center_axis',(0.,0.,1.));
#427=DIRECTION('ref_axis',(1.,-2.77555756156289E-16,0.));
#428=DIRECTION('center_axis',(1.11022302462516E-16,-1.,0.));
#429=DIRECTION('ref_axis',(5.21804821573824E-16,5.7931972727168E-32,1.));
#430=DIRECTION('center_axis',(0.,0.,1.));
#431=DIRECTION('ref_axis',(-9.25185853854297E-17,1.,0.));
#432=DIRECTION('center_axis',(0.,-1.,0.));
#433=DIRECTION('ref_axis',(-0.707106781186547,-1.57009245868377E-16,0.707106781186547));
#434=DIRECTION('center_axis',(0.,0.,1.));
#435=DIRECTION('ref_axis',(-0.707106781186548,0.707106781186547,0.));
#436=DIRECTION('',(0.,0.,-1.));
#437=DIRECTION('',(0.,0.,1.));
#438=DIRECTION('center_axis',(0.,0.,1.));
#439=DIRECTION('ref_axis',(0.707106781186548,0.707106781186548,0.));
#440=DIRECTION('',(0.,0.,-1.));
#441=DIRECTION('',(0.,0.,-1.));
#442=DIRECTION('',(0.,0.,1.));
#443=DIRECTION('center_axis',(1.,-2.22044604925031E-16,0.));
#444=DIRECTION('ref_axis',(2.22044604925031E-16,1.,0.));
#445=DIRECTION('',(-2.22044604925031E-16,-1.,0.));
#446=DIRECTION('',(0.,0.,1.));
#447=DIRECTION('center_axis',(-1.11022302462516E-16,1.,0.));
#448=DIRECTION('ref_axis',(-1.,-1.11022302462516E-16,0.));
#449=DIRECTION('center_axis',(2.22044604925031E-16,1.,0.));
#450=DIRECTION('ref_axis',(0.707106781186547,-1.57009245868378E-16,-0.707106781186548));
#451=DIRECTION('center_axis',(0.,1.,0.));
#452=DIRECTION('ref_axis',(-0.707106781186547,-7.85046229341887E-17,-0.707106781186547));
#453=DIRECTION('center_axis',(0.,-1.,0.));
#454=DIRECTION('ref_axis',(1.,0.,0.));
#455=DIRECTION('center_axis',(0.,-1.,0.));
#456=DIRECTION('ref_axis',(1.,0.,0.));
#457=DIRECTION('',(0.,1.,0.));
#458=DIRECTION('center_axis',(0.,1.,0.));
#459=DIRECTION('ref_axis',(1.,0.,0.));
#460=DIRECTION('center_axis',(0.,-1.,0.));
#461=DIRECTION('ref_axis',(0.,0.,-1.));
#462=DIRECTION('center_axis',(0.,-1.,0.));
#463=DIRECTION('ref_axis',(1.,0.,0.));
#464=DIRECTION('center_axis',(0.,-1.,0.));
#465=DIRECTION('ref_axis',(1.,0.,0.));
#466=DIRECTION('',(0.,-1.,0.));
#467=DIRECTION('center_axis',(0.,-1.,0.));
#468=DIRECTION('ref_axis',(1.,0.,0.));
#469=DIRECTION('center_axis',(0.,1.,0.));
#470=DIRECTION('ref_axis',(0.,0.,1.));
#471=DIRECTION('center_axis',(0.,-1.,0.));
#472=DIRECTION('ref_axis',(-1.,0.,0.));
#473=DIRECTION('center_axis',(0.,1.,0.));
#474=DIRECTION('ref_axis',(-1.,0.,0.));
#475=CARTESIAN_POINT('',(0.,0.,0.));
#476=CARTESIAN_POINT('Ctrl Pts',(-1.99999999999999,-5.,80.));
#477=CARTESIAN_POINT('Ctrl Pts',(-1.99999999999999,-5.,82.));
#478=CARTESIAN_POINT('Ctrl Pts',(-2.77555756156289E-16,-5.,82.));
#479=CARTESIAN_POINT('Ctrl Pts',(1.99999999999999,-5.,82.));
#480=CARTESIAN_POINT('Ctrl Pts',(1.99999999999999,-5.,80.));
#481=CARTESIAN_POINT('Ctrl Pts',(-5.,-5.,80.));
#482=CARTESIAN_POINT('Ctrl Pts',(-5.,-5.,85.));
#483=CARTESIAN_POINT('Ctrl Pts',(-2.7755575615629E-16,-5.,85.));
#484=CARTESIAN_POINT('Ctrl Pts',(5.,-5.,85.));
#485=CARTESIAN_POINT('Ctrl Pts',(5.,-5.,80.));
#486=CARTESIAN_POINT('Ctrl Pts',(-5.,-2.,80.));
#487=CARTESIAN_POINT('Ctrl Pts',(-5.,-2.,85.));
#488=CARTESIAN_POINT('Ctrl Pts',(5.55111512312578E-17,-2.,85.));
#489=CARTESIAN_POINT('Ctrl Pts',(5.,-2.,85.));
#490=CARTESIAN_POINT('Ctrl Pts',(5.,-2.,80.));
#491=CARTESIAN_POINT('',(-5.,-2.,80.));
#492=CARTESIAN_POINT('',(-2.,-5.,80.));
#493=CARTESIAN_POINT('Origin',(-2.,-2.,80.));
#494=CARTESIAN_POINT('',(2.,-5.,80.));
#495=CARTESIAN_POINT('Origin',(-2.77555756156289E-16,-5.,80.));
#496=CARTESIAN_POINT('',(5.,-2.,80.));
#497=CARTESIAN_POINT('Origin',(2.,-2.,80.));
#498=CARTESIAN_POINT('Origin',(5.55111512312578E-17,-2.,80.));
#499=CARTESIAN_POINT('Origin',(2.,-2.,0.));
#500=CARTESIAN_POINT('',(2.,-5.,16.));
#501=CARTESIAN_POINT('',(5.,-2.,16.));
#502=CARTESIAN_POINT('Origin',(2.,-2.,16.));
#503=CARTESIAN_POINT('',(5.,-2.,0.));
#504=CARTESIAN_POINT('',(2.,-5.,0.));
#505=CARTESIAN_POINT('Ctrl Pts',(2.,-5.,16.));
#506=CARTESIAN_POINT('Ctrl Pts',(2.,-5.,14.));
#507=CARTESIAN_POINT('Ctrl Pts',(1.19836057218323E-15,-5.,14.));
#508=CARTESIAN_POINT('Ctrl Pts',(-2.,-5.,14.));
#509=CARTESIAN_POINT('Ctrl Pts',(-2.,-5.,16.));
#510=CARTESIAN_POINT('Ctrl Pts',(5.,-5.,16.));
#511=CARTESIAN_POINT('Ctrl Pts',(5.,-5.,11.));
#512=CARTESIAN_POINT('Ctrl Pts',(8.30966532439027E-16,-5.,11.));
#513=CARTESIAN_POINT('Ctrl Pts',(-5.,-5.,11.));
#514=CARTESIAN_POINT('Ctrl Pts',(-5.,-5.,16.));
#515=CARTESIAN_POINT('Ctrl Pts',(5.,-2.,16.));
#516=CARTESIAN_POINT('Ctrl Pts',(5.,-2.,11.));
#517=CARTESIAN_POINT('Ctrl Pts',(1.16403343982657E-15,-2.,11.));
#518=CARTESIAN_POINT('Ctrl Pts',(-5.,-2.,11.));
#519=CARTESIAN_POINT('Ctrl Pts',(-5.,-2.,16.));
#520=CARTESIAN_POINT('',(-2.,-5.,16.));
#521=CARTESIAN_POINT('',(-5.,-2.,16.));
#522=CARTESIAN_POINT('Origin',(-2.,-2.,16.));
#523=CARTESIAN_POINT('Origin',(1.77635683940025E-15,-2.,16.));
#524=CARTESIAN_POINT('Origin',(1.4432899320127E-15,-5.,16.));
#525=CARTESIAN_POINT('Origin',(-2.,-2.,0.));
#526=CARTESIAN_POINT('',(-5.,-2.,0.));
#527=CARTESIAN_POINT('',(-2.,-5.,0.));
#528=CARTESIAN_POINT('Origin',(-5.,5.,0.));
#529=CARTESIAN_POINT('',(-5.,2.,80.));
#530=CARTESIAN_POINT('',(-5.,2.5,80.));
#531=CARTESIAN_POINT('',(-5.,2.,69.));
#532=CARTESIAN_POINT('',(-5.,2.,42.5));
#533=CARTESIAN_POINT('',(-5.,2.,16.));
#534=CARTESIAN_POINT('',(-5.,2.,0.));
#535=CARTESIAN_POINT('',(-5.,1.75,16.));
#536=CARTESIAN_POINT('Origin',(-6.93889390390723E-16,2.5,80.));
#537=CARTESIAN_POINT('',(5.,2.,80.));
#538=CARTESIAN_POINT('',(5.,-2.5,80.));
#539=CARTESIAN_POINT('Origin',(-6.10622663543836E-16,2.,80.));
#540=CARTESIAN_POINT('Origin',(-5.,-5.,0.));
#541=CARTESIAN_POINT('Ctrl Pts',(-2.,5.,5.));
#542=CARTESIAN_POINT('Ctrl Pts',(-2.,5.,3.));
#543=CARTESIAN_POINT('Ctrl Pts',(-9.43689570931383E-16,5.,3.));
#544=CARTESIAN_POINT('Ctrl Pts',(2.,5.,3.));
#545=CARTESIAN_POINT('Ctrl Pts',(2.,5.,5.));
#546=CARTESIAN_POINT('Ctrl Pts',(-5.,5.,5.));
#547=CARTESIAN_POINT('Ctrl Pts',(-5.,5.,0.));
#548=CARTESIAN_POINT('Ctrl Pts',(-9.43689570931383E-16,5.,5.55111512312578E-16));
#549=CARTESIAN_POINT('Ctrl Pts',(5.,5.,0.));
#550=CARTESIAN_POINT('Ctrl Pts',(5.,5.,5.));
#551=CARTESIAN_POINT('Ctrl Pts',(-5.,2.,5.));
#552=CARTESIAN_POINT('Ctrl Pts',(-5.,2.,-1.11022302462516E-15));
#553=CARTESIAN_POINT('Ctrl Pts',(-6.10622663543836E-16,2.,0.));
#554=CARTESIAN_POINT('Ctrl Pts',(5.,2.,-1.11022302462516E-15));
#555=CARTESIAN_POINT('Ctrl Pts',(5.,2.,5.));
#556=CARTESIAN_POINT('',(-5.,2.,5.));
#557=CARTESIAN_POINT('',(-2.,5.,5.));
#558=CARTESIAN_POINT('Origin',(-2.,2.,5.));
#559=CARTESIAN_POINT('',(2.,5.,5.));
#560=CARTESIAN_POINT('Origin',(-9.43689570931383E-16,5.,5.));
#561=CARTESIAN_POINT('',(5.,2.,5.));
#562=CARTESIAN_POINT('Origin',(2.,2.,5.));
#563=CARTESIAN_POINT('Origin',(-6.10622663543836E-16,2.,5.));
#564=CARTESIAN_POINT('Ctrl Pts',(2.,5.,69.));
#565=CARTESIAN_POINT('Ctrl Pts',(2.,5.,71.));
#566=CARTESIAN_POINT('Ctrl Pts',(-6.98760211101912E-16,5.,71.));
#567=CARTESIAN_POINT('Ctrl Pts',(-2.,5.,71.));
#568=CARTESIAN_POINT('Ctrl Pts',(-2.,5.,69.));
#569=CARTESIAN_POINT('Ctrl Pts',(5.,5.,69.));
#570=CARTESIAN_POINT('Ctrl Pts',(5.,5.,74.));
#571=CARTESIAN_POINT('Ctrl Pts',(-3.31366171357706E-16,5.,74.));
#572=CARTESIAN_POINT('Ctrl Pts',(-5.,5.,74.));
#573=CARTESIAN_POINT('Ctrl Pts',(-5.,5.,69.));
#574=CARTESIAN_POINT('Ctrl Pts',(5.,2.,69.));
#575=CARTESIAN_POINT('Ctrl Pts',(5.,2.,74.));
#576=CARTESIAN_POINT('Ctrl Pts',(1.70073602984095E-18,2.,74.));
#577=CARTESIAN_POINT('Ctrl Pts',(-5.,2.,74.));
#578=CARTESIAN_POINT('Ctrl Pts',(-5.,2.,69.));
#579=CARTESIAN_POINT('',(5.,2.,69.));
#580=CARTESIAN_POINT('',(2.,5.,69.));
#581=CARTESIAN_POINT('Origin',(2.,2.,69.));
#582=CARTESIAN_POINT('',(-2.,5.,69.));
#583=CARTESIAN_POINT('Origin',(-9.43689570931383E-16,5.,69.));
#584=CARTESIAN_POINT('Origin',(-2.,2.,69.));
#585=CARTESIAN_POINT('Origin',(-6.10622663543836E-16,2.,69.));
#586=CARTESIAN_POINT('Origin',(-2.,2.,0.));
#587=CARTESIAN_POINT('',(-2.,5.,0.));
#588=CARTESIAN_POINT('',(-5.,2.,0.));
#589=CARTESIAN_POINT('Origin',(2.,2.,0.));
#590=CARTESIAN_POINT('',(5.,2.,16.));
#591=CARTESIAN_POINT('',(5.,2.,0.));
#592=CARTESIAN_POINT('',(5.,2.,0.));
#593=CARTESIAN_POINT('',(2.,5.,0.));
#594=CARTESIAN_POINT('Origin',(5.,-5.,0.));
#595=CARTESIAN_POINT('',(5.,-3.25,16.));
#596=CARTESIAN_POINT('',(5.,2.,42.5));
#597=CARTESIAN_POINT('Origin',(5.,5.,0.));
#598=CARTESIAN_POINT('Origin',(1.49880108324396E-15,-3.25,16.));
#599=CARTESIAN_POINT('Origin',(-6.10622663543836E-16,2.,16.));
#600=CARTESIAN_POINT('Origin',(-1.11022302462516E-15,2.,5.));
#601=CARTESIAN_POINT('',(-1.5,1.66533453693773E-15,5.));
#602=CARTESIAN_POINT('Origin',(-1.11022302462516E-15,1.66533453693773E-15,
5.));
#603=CARTESIAN_POINT('',(-1.5,2.,5.));
#604=CARTESIAN_POINT('',(-1.5,2.,5.));
#605=CARTESIAN_POINT('Origin',(-1.11022302462516E-15,2.,5.));
#606=CARTESIAN_POINT('Origin',(-1.11022302462516E-15,1.66533453693773E-15,
5.));
#607=CARTESIAN_POINT('Origin',(1.11022302462516E-15,2.,80.));
#608=CARTESIAN_POINT('',(-1.5,2.,80.));
#609=CARTESIAN_POINT('Origin',(1.11022302462516E-15,2.,80.));
#610=CARTESIAN_POINT('',(-1.5,-5.55111512312578E-16,80.));
#611=CARTESIAN_POINT('',(-1.5,2.,80.));
#612=CARTESIAN_POINT('Origin',(1.11022302462516E-15,-5.55111512312578E-16,
80.));
#613=CARTESIAN_POINT('Origin',(1.11022302462516E-15,-5.55111512312578E-16,
80.));
#614=CARTESIAN_POINT('Origin',(5.,2.,85.));
#615=CARTESIAN_POINT('Origin',(5.,2.,0.));
#616=UNCERTAINTY_MEASURE_WITH_UNIT(LENGTH_MEASURE(0.01),#620,
'DISTANCE_ACCURACY_VALUE',
'Maximum model space distance between geometric entities at asserted c
onnectivities');
#617=UNCERTAINTY_MEASURE_WITH_UNIT(LENGTH_MEASURE(0.01),#620,
'DISTANCE_ACCURACY_VALUE',
'Maximum model space distance between geometric entities at asserted c
onnectivities');
#618=(
GEOMETRIC_REPRESENTATION_CONTEXT(3)
GLOBAL_UNCERTAINTY_ASSIGNED_CONTEXT((#616))
GLOBAL_UNIT_ASSIGNED_CONTEXT((#620,#622,#623))
REPRESENTATION_CONTEXT('','3D')
);
#619=(
GEOMETRIC_REPRESENTATION_CONTEXT(3)
GLOBAL_UNCERTAINTY_ASSIGNED_CONTEXT((#617))
GLOBAL_UNIT_ASSIGNED_CONTEXT((#620,#622,#623))
REPRESENTATION_CONTEXT('','3D')
);
#620=(
LENGTH_UNIT()
NAMED_UNIT(*)
SI_UNIT(.MILLI.,.METRE.)
);
#621=(
LENGTH_UNIT()
NAMED_UNIT(*)
SI_UNIT(.CENTI.,.METRE.)
);
#622=(
NAMED_UNIT(*)
PLANE_ANGLE_UNIT()
SI_UNIT($,.RADIAN.)
);
#623=(
NAMED_UNIT(*)
SI_UNIT($,.STERADIAN.)
SOLID_ANGLE_UNIT()
);
#624=SHAPE_DEFINITION_REPRESENTATION(#625,#626);
#625=PRODUCT_DEFINITION_SHAPE('',$,#628);
#626=SHAPE_REPRESENTATION('',(#340),#618);
#627=PRODUCT_DEFINITION_CONTEXT('part definition',#632,'design');
#628=PRODUCT_DEFINITION('link2','link2',#629,#627);
#629=PRODUCT_DEFINITION_FORMATION('',$,#634);
#630=PRODUCT_RELATED_PRODUCT_CATEGORY('link2','link2',(#634));
#631=APPLICATION_PROTOCOL_DEFINITION('international standard',
'automotive_design',2009,#632);
#632=APPLICATION_CONTEXT(
'Core Data for Automotive Mechanical Design Process');
#633=PRODUCT_CONTEXT('part definition',#632,'mechanical');
#634=PRODUCT('link2','link2',$,(#633));
#635=PRESENTATION_STYLE_ASSIGNMENT((#637));
#636=PRESENTATION_STYLE_ASSIGNMENT((#638));
#637=SURFACE_STYLE_USAGE(.BOTH.,#643);
#638=SURFACE_STYLE_USAGE(.BOTH.,#644);
#639=SURFACE_STYLE_RENDERING_WITH_PROPERTIES($,#651,(#641));
#640=SURFACE_STYLE_RENDERING_WITH_PROPERTIES($,#652,(#642));
#641=SURFACE_STYLE_TRANSPARENT(0.);
#642=SURFACE_STYLE_TRANSPARENT(0.);
#643=SURFACE_SIDE_STYLE('',(#645,#639));
#644=SURFACE_SIDE_STYLE('',(#646,#640));
#645=SURFACE_STYLE_FILL_AREA(#647);
#646=SURFACE_STYLE_FILL_AREA(#648);
#647=FILL_AREA_STYLE('',(#649));
#648=FILL_AREA_STYLE('',(#650));
#649=FILL_AREA_STYLE_COLOUR('',#651);
#650=FILL_AREA_STYLE_COLOUR('',#652);
#651=COLOUR_RGB('',0.92156862745098,0.92156862745098,0.92156862745098);
#652=COLOUR_RGB('',0.501960784313725,0.,0.501960784313725);
ENDSEC;
END-ISO-10303-21;
