ISO-10303-21;
HEADER;
/* Generated by software containing ST-Developer
 * from STEP Tools, Inc. (www.steptools.com) 
 */

FILE_DESCRIPTION(
/* description */ (''),
/* implementation_level */ '2;1');

FILE_NAME(
/* name */ 
'C:\\Users\\eyome\\OneDrive\\Documents\\Inventor\\6DOFArmV3\\\\link6_i
pt_f24f9d76.STEP',
/* time_stamp */ '2025-09-17T16:20:04+03:00',
/* author */ ('eyome'),
/* organization */ (''),
/* preprocessor_version */ 'ST-DEVELOPER v18.1',
/* originating_system */ 'Autodesk Inventor 2021',
/* authorisation */ '');

FILE_SCHEMA (('AUTOMOTIVE_DESIGN { 1 0 10303 214 3 1 1 }'));
ENDSEC;

DATA;
#10=MECHANICAL_DESIGN_GEOMETRIC_PRESENTATION_REPRESENTATION('',(#218,#219,
#220,#221,#222,#223,#224,#225,#226,#227,#228,#229,#230,#231,#232),#433);
#11=SHAPE_REPRESENTATION_RELATIONSHIP('SRR','None',#440,#12);
#12=ADVANCED_BREP_SHAPE_REPRESENTATION('',(#13),#432);
#13=MANIFOLD_SOLID_BREP('Solid1',#247);
#14=FACE_BOUND('',#41,.T.);
#15=FACE_BOUND('',#53,.T.);
#16=PLANE('',#270);
#17=PLANE('',#271);
#18=PLANE('',#278);
#19=PLANE('',#281);
#20=PLANE('',#287);
#21=PLANE('',#290);
#22=PLANE('',#291);
#23=PLANE('',#292);
#24=FACE_OUTER_BOUND('',#38,.T.);
#25=FACE_OUTER_BOUND('',#39,.T.);
#26=FACE_OUTER_BOUND('',#40,.T.);
#27=FACE_OUTER_BOUND('',#42,.T.);
#28=FACE_OUTER_BOUND('',#43,.T.);
#29=FACE_OUTER_BOUND('',#44,.T.);
#30=FACE_OUTER_BOUND('',#45,.T.);
#31=FACE_OUTER_BOUND('',#46,.T.);
#32=FACE_OUTER_BOUND('',#47,.T.);
#33=FACE_OUTER_BOUND('',#48,.T.);
#34=FACE_OUTER_BOUND('',#49,.T.);
#35=FACE_OUTER_BOUND('',#50,.T.);
#36=FACE_OUTER_BOUND('',#51,.T.);
#37=FACE_OUTER_BOUND('',#52,.T.);
#38=EDGE_LOOP('',(#152,#153,#154,#155));
#39=EDGE_LOOP('',(#156,#157,#158,#159));
#40=EDGE_LOOP('',(#160,#161,#162,#163,#164,#165,#166,#167));
#41=EDGE_LOOP('',(#168));
#42=EDGE_LOOP('',(#169,#170,#171,#172));
#43=EDGE_LOOP('',(#173,#174,#175,#176));
#44=EDGE_LOOP('',(#177,#178,#179,#180));
#45=EDGE_LOOP('',(#181,#182,#183,#184));
#46=EDGE_LOOP('',(#185,#186,#187,#188));
#47=EDGE_LOOP('',(#189,#190,#191,#192));
#48=EDGE_LOOP('',(#193));
#49=EDGE_LOOP('',(#194,#195,#196,#197));
#50=EDGE_LOOP('',(#198));
#51=EDGE_LOOP('',(#199,#200,#201,#202));
#52=EDGE_LOOP('',(#203,#204,#205,#206,#207,#208,#209,#210));
#53=EDGE_LOOP('',(#211));
#54=LINE('',#371,#72);
#55=LINE('',#374,#73);
#56=LINE('',#377,#74);
#57=LINE('',#379,#75);
#58=LINE('',#380,#76);
#59=LINE('',#383,#77);
#60=LINE('',#387,#78);
#61=LINE('',#391,#79);
#62=LINE('',#398,#80);
#63=LINE('',#401,#81);
#64=LINE('',#402,#82);
#65=LINE('',#406,#83);
#66=LINE('',#409,#84);
#67=LINE('',#410,#85);
#68=LINE('',#414,#86);
#69=LINE('',#419,#87);
#70=LINE('',#425,#88);
#71=LINE('',#428,#89);
#72=VECTOR('',#299,10.);
#73=VECTOR('',#302,10.);
#74=VECTOR('',#305,10.);
#75=VECTOR('',#306,10.);
#76=VECTOR('',#307,10.);
#77=VECTOR('',#310,10.);
#78=VECTOR('',#313,10.);
#79=VECTOR('',#316,10.);
#80=VECTOR('',#325,10.);
#81=VECTOR('',#328,10.);
#82=VECTOR('',#329,10.);
#83=VECTOR('',#334,10.);
#84=VECTOR('',#337,10.);
#85=VECTOR('',#338,10.);
#86=VECTOR('',#343,10.);
#87=VECTOR('',#348,1.5);
#88=VECTOR('',#357,1.5);
#89=VECTOR('',#362,10.);
#90=CIRCLE('',#268,3.);
#91=CIRCLE('',#269,3.);
#92=CIRCLE('',#272,3.);
#93=CIRCLE('',#273,3.);
#94=CIRCLE('',#274,3.);
#95=CIRCLE('',#275,1.5);
#96=CIRCLE('',#277,3.);
#97=CIRCLE('',#280,3.);
#98=CIRCLE('',#283,3.);
#99=CIRCLE('',#285,1.5);
#100=CIRCLE('',#286,1.5);
#101=CIRCLE('',#289,1.5);
#102=VERTEX_POINT('',#367);
#103=VERTEX_POINT('',#368);
#104=VERTEX_POINT('',#370);
#105=VERTEX_POINT('',#372);
#106=VERTEX_POINT('',#376);
#107=VERTEX_POINT('',#378);
#108=VERTEX_POINT('',#382);
#109=VERTEX_POINT('',#384);
#110=VERTEX_POINT('',#386);
#111=VERTEX_POINT('',#388);
#112=VERTEX_POINT('',#390);
#113=VERTEX_POINT('',#393);
#114=VERTEX_POINT('',#396);
#115=VERTEX_POINT('',#400);
#116=VERTEX_POINT('',#404);
#117=VERTEX_POINT('',#408);
#118=VERTEX_POINT('',#412);
#119=VERTEX_POINT('',#416);
#120=VERTEX_POINT('',#418);
#121=VERTEX_POINT('',#423);
#122=EDGE_CURVE('',#102,#103,#90,.T.);
#123=EDGE_CURVE('',#103,#104,#54,.T.);
#124=EDGE_CURVE('',#104,#105,#91,.T.);
#125=EDGE_CURVE('',#105,#102,#55,.T.);
#126=EDGE_CURVE('',#105,#106,#56,.T.);
#127=EDGE_CURVE('',#107,#106,#57,.T.);
#128=EDGE_CURVE('',#102,#107,#58,.T.);
#129=EDGE_CURVE('',#108,#104,#59,.T.);
#130=EDGE_CURVE('',#109,#108,#92,.T.);
#131=EDGE_CURVE('',#110,#109,#60,.T.);
#132=EDGE_CURVE('',#111,#110,#93,.T.);
#133=EDGE_CURVE('',#112,#111,#61,.T.);
#134=EDGE_CURVE('',#106,#112,#94,.T.);
#135=EDGE_CURVE('',#113,#113,#95,.T.);
#136=EDGE_CURVE('',#114,#107,#96,.T.);
#137=EDGE_CURVE('',#112,#114,#62,.T.);
#138=EDGE_CURVE('',#115,#111,#63,.T.);
#139=EDGE_CURVE('',#114,#115,#64,.T.);
#140=EDGE_CURVE('',#116,#115,#97,.T.);
#141=EDGE_CURVE('',#110,#116,#65,.T.);
#142=EDGE_CURVE('',#117,#109,#66,.T.);
#143=EDGE_CURVE('',#116,#117,#67,.T.);
#144=EDGE_CURVE('',#118,#117,#98,.T.);
#145=EDGE_CURVE('',#108,#118,#68,.T.);
#146=EDGE_CURVE('',#119,#119,#99,.T.);
#147=EDGE_CURVE('',#119,#120,#69,.T.);
#148=EDGE_CURVE('',#120,#120,#100,.T.);
#149=EDGE_CURVE('',#121,#121,#101,.T.);
#150=EDGE_CURVE('',#121,#113,#70,.T.);
#151=EDGE_CURVE('',#118,#103,#71,.T.);
#152=ORIENTED_EDGE('',*,*,#122,.T.);
#153=ORIENTED_EDGE('',*,*,#123,.T.);
#154=ORIENTED_EDGE('',*,*,#124,.T.);
#155=ORIENTED_EDGE('',*,*,#125,.T.);
#156=ORIENTED_EDGE('',*,*,#125,.F.);
#157=ORIENTED_EDGE('',*,*,#126,.T.);
#158=ORIENTED_EDGE('',*,*,#127,.F.);
#159=ORIENTED_EDGE('',*,*,#128,.F.);
#160=ORIENTED_EDGE('',*,*,#124,.F.);
#161=ORIENTED_EDGE('',*,*,#129,.F.);
#162=ORIENTED_EDGE('',*,*,#130,.F.);
#163=ORIENTED_EDGE('',*,*,#131,.F.);
#164=ORIENTED_EDGE('',*,*,#132,.F.);
#165=ORIENTED_EDGE('',*,*,#133,.F.);
#166=ORIENTED_EDGE('',*,*,#134,.F.);
#167=ORIENTED_EDGE('',*,*,#126,.F.);
#168=ORIENTED_EDGE('',*,*,#135,.T.);
#169=ORIENTED_EDGE('',*,*,#136,.T.);
#170=ORIENTED_EDGE('',*,*,#127,.T.);
#171=ORIENTED_EDGE('',*,*,#134,.T.);
#172=ORIENTED_EDGE('',*,*,#137,.T.);
#173=ORIENTED_EDGE('',*,*,#137,.F.);
#174=ORIENTED_EDGE('',*,*,#133,.T.);
#175=ORIENTED_EDGE('',*,*,#138,.F.);
#176=ORIENTED_EDGE('',*,*,#139,.F.);
#177=ORIENTED_EDGE('',*,*,#140,.T.);
#178=ORIENTED_EDGE('',*,*,#138,.T.);
#179=ORIENTED_EDGE('',*,*,#132,.T.);
#180=ORIENTED_EDGE('',*,*,#141,.T.);
#181=ORIENTED_EDGE('',*,*,#141,.F.);
#182=ORIENTED_EDGE('',*,*,#131,.T.);
#183=ORIENTED_EDGE('',*,*,#142,.F.);
#184=ORIENTED_EDGE('',*,*,#143,.F.);
#185=ORIENTED_EDGE('',*,*,#144,.T.);
#186=ORIENTED_EDGE('',*,*,#142,.T.);
#187=ORIENTED_EDGE('',*,*,#130,.T.);
#188=ORIENTED_EDGE('',*,*,#145,.T.);
#189=ORIENTED_EDGE('',*,*,#146,.F.);
#190=ORIENTED_EDGE('',*,*,#147,.T.);
#191=ORIENTED_EDGE('',*,*,#148,.T.);
#192=ORIENTED_EDGE('',*,*,#147,.F.);
#193=ORIENTED_EDGE('',*,*,#148,.F.);
#194=ORIENTED_EDGE('',*,*,#149,.F.);
#195=ORIENTED_EDGE('',*,*,#150,.T.);
#196=ORIENTED_EDGE('',*,*,#135,.F.);
#197=ORIENTED_EDGE('',*,*,#150,.F.);
#198=ORIENTED_EDGE('',*,*,#149,.T.);
#199=ORIENTED_EDGE('',*,*,#123,.F.);
#200=ORIENTED_EDGE('',*,*,#151,.F.);
#201=ORIENTED_EDGE('',*,*,#145,.F.);
#202=ORIENTED_EDGE('',*,*,#129,.T.);
#203=ORIENTED_EDGE('',*,*,#122,.F.);
#204=ORIENTED_EDGE('',*,*,#128,.T.);
#205=ORIENTED_EDGE('',*,*,#136,.F.);
#206=ORIENTED_EDGE('',*,*,#139,.T.);
#207=ORIENTED_EDGE('',*,*,#140,.F.);
#208=ORIENTED_EDGE('',*,*,#143,.T.);
#209=ORIENTED_EDGE('',*,*,#144,.F.);
#210=ORIENTED_EDGE('',*,*,#151,.T.);
#211=ORIENTED_EDGE('',*,*,#146,.T.);
#212=CYLINDRICAL_SURFACE('',#267,3.);
#213=CYLINDRICAL_SURFACE('',#276,3.);
#214=CYLINDRICAL_SURFACE('',#279,3.);
#215=CYLINDRICAL_SURFACE('',#282,3.);
#216=CYLINDRICAL_SURFACE('',#284,1.5);
#217=CYLINDRICAL_SURFACE('',#288,1.5);
#218=STYLED_ITEM('',(#450),#233);
#219=STYLED_ITEM('',(#450),#234);
#220=STYLED_ITEM('',(#450),#235);
#221=STYLED_ITEM('',(#450),#236);
#222=STYLED_ITEM('',(#450),#237);
#223=STYLED_ITEM('',(#450),#238);
#224=STYLED_ITEM('',(#450),#239);
#225=STYLED_ITEM('',(#450),#240);
#226=STYLED_ITEM('',(#450),#241);
#227=STYLED_ITEM('',(#450),#242);
#228=STYLED_ITEM('',(#450),#243);
#229=STYLED_ITEM('',(#450),#244);
#230=STYLED_ITEM('',(#450),#245);
#231=STYLED_ITEM('',(#450),#246);
#232=STYLED_ITEM('',(#449),#13);
#233=ADVANCED_FACE('',(#24),#212,.T.);
#234=ADVANCED_FACE('',(#25),#16,.T.);
#235=ADVANCED_FACE('',(#26,#14),#17,.F.);
#236=ADVANCED_FACE('',(#27),#213,.T.);
#237=ADVANCED_FACE('',(#28),#18,.T.);
#238=ADVANCED_FACE('',(#29),#214,.T.);
#239=ADVANCED_FACE('',(#30),#19,.T.);
#240=ADVANCED_FACE('',(#31),#215,.T.);
#241=ADVANCED_FACE('',(#32),#216,.F.);
#242=ADVANCED_FACE('',(#33),#20,.T.);
#243=ADVANCED_FACE('',(#34),#217,.T.);
#244=ADVANCED_FACE('',(#35),#21,.T.);
#245=ADVANCED_FACE('',(#36),#22,.T.);
#246=ADVANCED_FACE('',(#37,#15),#23,.T.);
#247=CLOSED_SHELL('',(#233,#234,#235,#236,#237,#238,#239,#240,#241,#242,
#243,#244,#245,#246));
#248=DERIVED_UNIT_ELEMENT(#250,1.);
#249=DERIVED_UNIT_ELEMENT(#435,3.);
#250=(
MASS_UNIT()
NAMED_UNIT(*)
SI_UNIT($,.GRAM.)
);
#251=DERIVED_UNIT((#248,#249));
#252=MEASURE_REPRESENTATION_ITEM('density measure',
POSITIVE_RATIO_MEASURE(1.06),#251);
#253=PROPERTY_DEFINITION_REPRESENTATION(#258,#255);
#254=PROPERTY_DEFINITION_REPRESENTATION(#259,#256);
#255=REPRESENTATION('material name',(#257),#432);
#256=REPRESENTATION('density',(#252),#432);
#257=DESCRIPTIVE_REPRESENTATION_ITEM('ABS Plastic','ABS Plastic');
#258=PROPERTY_DEFINITION('material property','material name',#442);
#259=PROPERTY_DEFINITION('material property','density of part',#442);
#260=DATE_TIME_ROLE('creation_date');
#261=APPLIED_DATE_AND_TIME_ASSIGNMENT(#262,#260,(#442));
#262=DATE_AND_TIME(#263,#264);
#263=CALENDAR_DATE(2025,16,9);
#264=LOCAL_TIME(0,0,0.,#265);
#265=COORDINATED_UNIVERSAL_TIME_OFFSET(0,0,.BEHIND.);
#266=AXIS2_PLACEMENT_3D('placement',#365,#293,#294);
#267=AXIS2_PLACEMENT_3D('',#366,#295,#296);
#268=AXIS2_PLACEMENT_3D('',#369,#297,#298);
#269=AXIS2_PLACEMENT_3D('',#373,#300,#301);
#270=AXIS2_PLACEMENT_3D('',#375,#303,#304);
#271=AXIS2_PLACEMENT_3D('',#381,#308,#309);
#272=AXIS2_PLACEMENT_3D('',#385,#311,#312);
#273=AXIS2_PLACEMENT_3D('',#389,#314,#315);
#274=AXIS2_PLACEMENT_3D('',#392,#317,#318);
#275=AXIS2_PLACEMENT_3D('',#394,#319,#320);
#276=AXIS2_PLACEMENT_3D('',#395,#321,#322);
#277=AXIS2_PLACEMENT_3D('',#397,#323,#324);
#278=AXIS2_PLACEMENT_3D('',#399,#326,#327);
#279=AXIS2_PLACEMENT_3D('',#403,#330,#331);
#280=AXIS2_PLACEMENT_3D('',#405,#332,#333);
#281=AXIS2_PLACEMENT_3D('',#407,#335,#336);
#282=AXIS2_PLACEMENT_3D('',#411,#339,#340);
#283=AXIS2_PLACEMENT_3D('',#413,#341,#342);
#284=AXIS2_PLACEMENT_3D('',#415,#344,#345);
#285=AXIS2_PLACEMENT_3D('',#417,#346,#347);
#286=AXIS2_PLACEMENT_3D('',#420,#349,#350);
#287=AXIS2_PLACEMENT_3D('',#421,#351,#352);
#288=AXIS2_PLACEMENT_3D('',#422,#353,#354);
#289=AXIS2_PLACEMENT_3D('',#424,#355,#356);
#290=AXIS2_PLACEMENT_3D('',#426,#358,#359);
#291=AXIS2_PLACEMENT_3D('',#427,#360,#361);
#292=AXIS2_PLACEMENT_3D('',#429,#363,#364);
#293=DIRECTION('axis',(0.,0.,1.));
#294=DIRECTION('refdir',(1.,0.,0.));
#295=DIRECTION('center_axis',(0.,0.,1.));
#296=DIRECTION('ref_axis',(0.707106781186548,0.707106781186547,0.));
#297=DIRECTION('center_axis',(0.,0.,-1.));
#298=DIRECTION('ref_axis',(0.707106781186548,0.707106781186547,0.));
#299=DIRECTION('',(0.,0.,-1.));
#300=DIRECTION('center_axis',(0.,0.,1.));
#301=DIRECTION('ref_axis',(0.707106781186548,0.707106781186547,0.));
#302=DIRECTION('',(0.,0.,1.));
#303=DIRECTION('center_axis',(0.,1.,0.));
#304=DIRECTION('ref_axis',(-1.,0.,0.));
#305=DIRECTION('',(-1.,0.,0.));
#306=DIRECTION('',(0.,0.,-1.));
#307=DIRECTION('',(-1.,0.,0.));
#308=DIRECTION('center_axis',(0.,0.,1.));
#309=DIRECTION('ref_axis',(1.,0.,0.));
#310=DIRECTION('',(1.11022302462516E-16,1.,0.));
#311=DIRECTION('center_axis',(0.,0.,1.));
#312=DIRECTION('ref_axis',(0.707106781186548,-0.707106781186547,0.));
#313=DIRECTION('',(1.,-2.22044604925031E-16,0.));
#314=DIRECTION('center_axis',(0.,0.,1.));
#315=DIRECTION('ref_axis',(-0.707106781186547,-0.707106781186547,0.));
#316=DIRECTION('',(2.22044604925031E-16,-1.,0.));
#317=DIRECTION('center_axis',(0.,0.,1.));
#318=DIRECTION('ref_axis',(-0.707106781186547,0.707106781186548,0.));
#319=DIRECTION('center_axis',(0.,0.,1.));
#320=DIRECTION('ref_axis',(-1.,0.,0.));
#321=DIRECTION('center_axis',(0.,0.,1.));
#322=DIRECTION('ref_axis',(-0.707106781186547,0.707106781186548,0.));
#323=DIRECTION('center_axis',(0.,0.,-1.));
#324=DIRECTION('ref_axis',(-0.707106781186547,0.707106781186548,0.));
#325=DIRECTION('',(0.,0.,1.));
#326=DIRECTION('center_axis',(-1.,-2.22044604925031E-16,0.));
#327=DIRECTION('ref_axis',(2.22044604925031E-16,-1.,0.));
#328=DIRECTION('',(0.,0.,-1.));
#329=DIRECTION('',(2.22044604925031E-16,-1.,0.));
#330=DIRECTION('center_axis',(0.,0.,1.));
#331=DIRECTION('ref_axis',(-0.707106781186547,-0.707106781186547,0.));
#332=DIRECTION('center_axis',(0.,0.,-1.));
#333=DIRECTION('ref_axis',(-0.707106781186547,-0.707106781186547,0.));
#334=DIRECTION('',(0.,0.,1.));
#335=DIRECTION('center_axis',(-2.22044604925031E-16,-1.,0.));
#336=DIRECTION('ref_axis',(1.,-2.22044604925031E-16,0.));
#337=DIRECTION('',(0.,0.,-1.));
#338=DIRECTION('',(1.,-2.22044604925031E-16,0.));
#339=DIRECTION('center_axis',(0.,0.,1.));
#340=DIRECTION('ref_axis',(0.707106781186548,-0.707106781186547,0.));
#341=DIRECTION('center_axis',(0.,0.,-1.));
#342=DIRECTION('ref_axis',(0.707106781186548,-0.707106781186547,0.));
#343=DIRECTION('',(0.,0.,1.));
#344=DIRECTION('center_axis',(0.,0.,-1.));
#345=DIRECTION('ref_axis',(1.,0.,0.));
#346=DIRECTION('center_axis',(0.,0.,-1.));
#347=DIRECTION('ref_axis',(1.,0.,0.));
#348=DIRECTION('',(0.,0.,-1.));
#349=DIRECTION('center_axis',(0.,0.,-1.));
#350=DIRECTION('ref_axis',(1.,0.,0.));
#351=DIRECTION('center_axis',(0.,0.,1.));
#352=DIRECTION('ref_axis',(1.,0.,0.));
#353=DIRECTION('center_axis',(0.,0.,-1.));
#354=DIRECTION('ref_axis',(-1.,0.,0.));
#355=DIRECTION('center_axis',(0.,0.,-1.));
#356=DIRECTION('ref_axis',(-1.,0.,0.));
#357=DIRECTION('',(0.,0.,1.));
#358=DIRECTION('center_axis',(0.,0.,-1.));
#359=DIRECTION('ref_axis',(-1.,0.,0.));
#360=DIRECTION('center_axis',(1.,-1.11022302462516E-16,0.));
#361=DIRECTION('ref_axis',(1.11022302462516E-16,1.,0.));
#362=DIRECTION('',(1.11022302462516E-16,1.,0.));
#363=DIRECTION('center_axis',(0.,0.,1.));
#364=DIRECTION('ref_axis',(1.,0.,0.));
#365=CARTESIAN_POINT('',(0.,0.,0.));
#366=CARTESIAN_POINT('Origin',(2.,2.,0.));
#367=CARTESIAN_POINT('',(2.,5.,20.));
#368=CARTESIAN_POINT('',(5.,2.,20.));
#369=CARTESIAN_POINT('Origin',(2.,2.,20.));
#370=CARTESIAN_POINT('',(5.,2.,0.));
#371=CARTESIAN_POINT('',(5.,2.,0.));
#372=CARTESIAN_POINT('',(2.,5.,0.));
#373=CARTESIAN_POINT('Origin',(2.,2.,0.));
#374=CARTESIAN_POINT('',(2.,5.,0.));
#375=CARTESIAN_POINT('Origin',(5.,5.,0.));
#376=CARTESIAN_POINT('',(-2.,5.,0.));
#377=CARTESIAN_POINT('',(5.,5.,0.));
#378=CARTESIAN_POINT('',(-2.,5.,20.));
#379=CARTESIAN_POINT('',(-2.,5.,0.));
#380=CARTESIAN_POINT('',(5.,5.,20.));
#381=CARTESIAN_POINT('Origin',(5.55111512312578E-16,0.,0.));
#382=CARTESIAN_POINT('',(5.,-2.,0.));
#383=CARTESIAN_POINT('',(5.,-5.,0.));
#384=CARTESIAN_POINT('',(2.,-5.,0.));
#385=CARTESIAN_POINT('Origin',(2.,-2.,0.));
#386=CARTESIAN_POINT('',(-2.,-5.,0.));
#387=CARTESIAN_POINT('',(-5.,-5.,0.));
#388=CARTESIAN_POINT('',(-5.,-2.,0.));
#389=CARTESIAN_POINT('Origin',(-2.,-2.,0.));
#390=CARTESIAN_POINT('',(-5.,2.,0.));
#391=CARTESIAN_POINT('',(-5.,5.,0.));
#392=CARTESIAN_POINT('Origin',(-2.,2.,0.));
#393=CARTESIAN_POINT('',(1.5,-1.83697019872103E-16,0.));
#394=CARTESIAN_POINT('Origin',(0.,0.,0.));
#395=CARTESIAN_POINT('Origin',(-2.,2.,0.));
#396=CARTESIAN_POINT('',(-5.,2.,20.));
#397=CARTESIAN_POINT('Origin',(-2.,2.,20.));
#398=CARTESIAN_POINT('',(-5.,2.,0.));
#399=CARTESIAN_POINT('Origin',(-5.,5.,0.));
#400=CARTESIAN_POINT('',(-5.,-2.,20.));
#401=CARTESIAN_POINT('',(-5.,-2.,0.));
#402=CARTESIAN_POINT('',(-5.,5.,20.));
#403=CARTESIAN_POINT('Origin',(-2.,-2.,0.));
#404=CARTESIAN_POINT('',(-2.,-5.,20.));
#405=CARTESIAN_POINT('Origin',(-2.,-2.,20.));
#406=CARTESIAN_POINT('',(-2.,-5.,0.));
#407=CARTESIAN_POINT('Origin',(-5.,-5.,0.));
#408=CARTESIAN_POINT('',(2.,-5.,20.));
#409=CARTESIAN_POINT('',(2.,-5.,0.));
#410=CARTESIAN_POINT('',(-5.,-5.,20.));
#411=CARTESIAN_POINT('Origin',(2.,-2.,0.));
#412=CARTESIAN_POINT('',(5.,-2.,20.));
#413=CARTESIAN_POINT('Origin',(2.,-2.,20.));
#414=CARTESIAN_POINT('',(5.,-2.,0.));
#415=CARTESIAN_POINT('Origin',(0.,0.,20.));
#416=CARTESIAN_POINT('',(-1.5,1.83697019872103E-16,20.));
#417=CARTESIAN_POINT('Origin',(0.,0.,20.));
#418=CARTESIAN_POINT('',(-1.5,1.83697019872103E-16,18.));
#419=CARTESIAN_POINT('',(-1.5,1.83697019872103E-16,20.));
#420=CARTESIAN_POINT('Origin',(0.,0.,18.));
#421=CARTESIAN_POINT('Origin',(0.,0.,18.));
#422=CARTESIAN_POINT('Origin',(0.,0.,0.));
#423=CARTESIAN_POINT('',(1.5,-1.83697019872103E-16,-2.));
#424=CARTESIAN_POINT('Origin',(0.,0.,-2.));
#425=CARTESIAN_POINT('',(1.5,-1.83697019872103E-16,0.));
#426=CARTESIAN_POINT('Origin',(0.,0.,-2.));
#427=CARTESIAN_POINT('Origin',(5.,-5.,0.));
#428=CARTESIAN_POINT('',(5.,-5.,20.));
#429=CARTESIAN_POINT('Origin',(5.55111512312578E-16,0.,20.));
#430=UNCERTAINTY_MEASURE_WITH_UNIT(LENGTH_MEASURE(0.01),#434,
'DISTANCE_ACCURACY_VALUE',
'Maximum model space distance between geometric entities at asserted c
onnectivities');
#431=UNCERTAINTY_MEASURE_WITH_UNIT(LENGTH_MEASURE(0.01),#434,
'DISTANCE_ACCURACY_VALUE',
'Maximum model space distance between geometric entities at asserted c
onnectivities');
#432=(
GEOMETRIC_REPRESENTATION_CONTEXT(3)
GLOBAL_UNCERTAINTY_ASSIGNED_CONTEXT((#430))
GLOBAL_UNIT_ASSIGNED_CONTEXT((#434,#436,#437))
REPRESENTATION_CONTEXT('','3D')
);
#433=(
GEOMETRIC_REPRESENTATION_CONTEXT(3)
GLOBAL_UNCERTAINTY_ASSIGNED_CONTEXT((#431))
GLOBAL_UNIT_ASSIGNED_CONTEXT((#434,#436,#437))
REPRESENTATION_CONTEXT('','3D')
);
#434=(
LENGTH_UNIT()
NAMED_UNIT(*)
SI_UNIT(.MILLI.,.METRE.)
);
#435=(
LENGTH_UNIT()
NAMED_UNIT(*)
SI_UNIT(.CENTI.,.METRE.)
);
#436=(
NAMED_UNIT(*)
PLANE_ANGLE_UNIT()
SI_UNIT($,.RADIAN.)
);
#437=(
NAMED_UNIT(*)
SI_UNIT($,.STERADIAN.)
SOLID_ANGLE_UNIT()
);
#438=SHAPE_DEFINITION_REPRESENTATION(#439,#440);
#439=PRODUCT_DEFINITION_SHAPE('',$,#442);
#440=SHAPE_REPRESENTATION('',(#266),#432);
#441=PRODUCT_DEFINITION_CONTEXT('part definition',#446,'design');
#442=PRODUCT_DEFINITION('link6','link6',#443,#441);
#443=PRODUCT_DEFINITION_FORMATION('',$,#448);
#444=PRODUCT_RELATED_PRODUCT_CATEGORY('link6','link6',(#448));
#445=APPLICATION_PROTOCOL_DEFINITION('international standard',
'automotive_design',2009,#446);
#446=APPLICATION_CONTEXT(
'Core Data for Automotive Mechanical Design Process');
#447=PRODUCT_CONTEXT('part definition',#446,'mechanical');
#448=PRODUCT('link6','link6',$,(#447));
#449=PRESENTATION_STYLE_ASSIGNMENT((#451));
#450=PRESENTATION_STYLE_ASSIGNMENT((#452));
#451=SURFACE_STYLE_USAGE(.BOTH.,#457);
#452=SURFACE_STYLE_USAGE(.BOTH.,#458);
#453=SURFACE_STYLE_RENDERING_WITH_PROPERTIES($,#465,(#455));
#454=SURFACE_STYLE_RENDERING_WITH_PROPERTIES($,#466,(#456));
#455=SURFACE_STYLE_TRANSPARENT(0.);
#456=SURFACE_STYLE_TRANSPARENT(0.);
#457=SURFACE_SIDE_STYLE('',(#459,#453));
#458=SURFACE_SIDE_STYLE('',(#460,#454));
#459=SURFACE_STYLE_FILL_AREA(#461);
#460=SURFACE_STYLE_FILL_AREA(#462);
#461=FILL_AREA_STYLE('',(#463));
#462=FILL_AREA_STYLE('',(#464));
#463=FILL_AREA_STYLE_COLOUR('',#465);
#464=FILL_AREA_STYLE_COLOUR('',#466);
#465=COLOUR_RGB('',0.92156862745098,0.92156862745098,0.92156862745098);
#466=COLOUR_RGB('',0.8,0.,0.);
ENDSEC;
END-ISO-10303-21;
