ISO-10303-21;
HEADER;
/* Generated by software containing ST-Developer
 * from STEP Tools, Inc. (www.steptools.com) 
 */

FILE_DESCRIPTION(
/* description */ (''),
/* implementation_level */ '2;1');

FILE_NAME(
/* name */ 
'C:\\Users\\eyome\\OneDrive\\Documents\\Inventor\\6DOFArmV3\\\\link1_i
pt_856bf8e2.STEP',
/* time_stamp */ '2025-09-17T16:20:03+03:00',
/* author */ ('eyome'),
/* organization */ (''),
/* preprocessor_version */ 'ST-DEVELOPER v18.1',
/* originating_system */ 'Autodesk Inventor 2021',
/* authorisation */ '');

FILE_SCHEMA (('AUTOMOTIVE_DESIGN { 1 0 10303 214 3 1 1 }'));
ENDSEC;

DATA;
#10=MECHANICAL_DESIGN_GEOMETRIC_PRESENTATION_REPRESENTATION('',(#271,#272,
#273,#274,#275,#276,#277,#278,#279,#280,#281,#282,#283,#284,#285,#286,#287,
#288,#289,#290),#574);
#11=SHAPE_REPRESENTATION_RELATIONSHIP('SRR','None',#581,#12);
#12=ADVANCED_BREP_SHAPE_REPRESENTATION('',(#13),#573);
#13=MANIFOLD_SOLID_BREP('Solid1',#310);
#14=CYLINDRICAL_SURFACE('',#343,3.);
#15=CYLINDRICAL_SURFACE('',#344,3.);
#16=CYLINDRICAL_SURFACE('',#347,3.);
#17=CYLINDRICAL_SURFACE('',#352,3.);
#18=CYLINDRICAL_SURFACE('',#355,5.);
#19=CYLINDRICAL_SURFACE('',#359,1.5);
#20=CYLINDRICAL_SURFACE('',#364,10.);
#21=(
BOUNDED_SURFACE()
B_SPLINE_SURFACE(2,2,((#485,#486,#487,#488,#489),(#490,#491,#492,#493,#494),
(#495,#496,#497,#498,#499)),.UNSPECIFIED.,.F.,.F.,.F.)
B_SPLINE_SURFACE_WITH_KNOTS((3,3),(3,2,3),(-1.5707963267949,-9.25185853854297E-17),
(-1.5707963267949,0.,1.5707963267949),.UNSPECIFIED.)
GEOMETRIC_REPRESENTATION_ITEM()
RATIONAL_B_SPLINE_SURFACE(((1.,0.707106781186548,1.,0.707106781186548,1.),
(0.707106781186544,0.499999999999998,0.707106781186544,0.499999999999998,
0.707106781186544),(1.,0.707106781186548,1.,0.707106781186548,1.)))
REPRESENTATION_ITEM('')
SURFACE()
);
#22=(
BOUNDED_SURFACE()
B_SPLINE_SURFACE(2,2,((#525,#526,#527,#528,#529),(#530,#531,#532,#533,#534),
(#535,#536,#537,#538,#539)),.UNSPECIFIED.,.F.,.F.,.F.)
B_SPLINE_SURFACE_WITH_KNOTS((3,3),(3,2,3),(-1.5707963267949,9.25185853854297E-17),
(-1.5707963267949,0.,1.5707963267949),.UNSPECIFIED.)
GEOMETRIC_REPRESENTATION_ITEM()
RATIONAL_B_SPLINE_SURFACE(((1.,0.707106781186548,1.,0.707106781186548,1.),
(0.707106781186544,0.499999999999998,0.707106781186544,0.499999999999998,
0.707106781186544),(1.,0.707106781186548,1.,0.707106781186548,1.)))
REPRESENTATION_ITEM('')
SURFACE()
);
#23=FACE_BOUND('',#92,.T.);
#24=FACE_BOUND('',#105,.T.);
#25=FACE_BOUND('',#109,.T.);
#26=LINE('',#471,#44);
#27=LINE('',#475,#45);
#28=LINE('',#479,#46);
#29=LINE('',#483,#47);
#30=LINE('',#509,#48);
#31=LINE('',#510,#49);
#32=LINE('',#512,#50);
#33=LINE('',#513,#51);
#34=LINE('',#516,#52);
#35=LINE('',#518,#53);
#36=LINE('',#519,#54);
#37=LINE('',#524,#55);
#38=LINE('',#546,#56);
#39=LINE('',#547,#57);
#40=LINE('',#551,#58);
#41=LINE('',#552,#59);
#42=LINE('',#560,#60);
#43=LINE('',#568,#61);
#44=VECTOR('',#379,10.);
#45=VECTOR('',#382,10.);
#46=VECTOR('',#385,10.);
#47=VECTOR('',#388,10.);
#48=VECTOR('',#401,10.);
#49=VECTOR('',#402,10.);
#50=VECTOR('',#405,10.);
#51=VECTOR('',#406,10.);
#52=VECTOR('',#409,10.);
#53=VECTOR('',#410,10.);
#54=VECTOR('',#411,10.);
#55=VECTOR('',#418,10.);
#56=VECTOR('',#427,10.);
#57=VECTOR('',#428,10.);
#58=VECTOR('',#433,10.);
#59=VECTOR('',#434,10.);
#60=VECTOR('',#445,1.5);
#61=VECTOR('',#456,10.);
#62=PLANE('',#334);
#63=PLANE('',#345);
#64=PLANE('',#346);
#65=PLANE('',#353);
#66=PLANE('',#354);
#67=PLANE('',#357);
#68=PLANE('',#361);
#69=PLANE('',#362);
#70=PLANE('',#366);
#71=FACE_OUTER_BOUND('',#90,.T.);
#72=FACE_OUTER_BOUND('',#91,.T.);
#73=FACE_OUTER_BOUND('',#93,.T.);
#74=FACE_OUTER_BOUND('',#94,.T.);
#75=FACE_OUTER_BOUND('',#95,.T.);
#76=FACE_OUTER_BOUND('',#96,.T.);
#77=FACE_OUTER_BOUND('',#97,.T.);
#78=FACE_OUTER_BOUND('',#98,.T.);
#79=FACE_OUTER_BOUND('',#99,.T.);
#80=FACE_OUTER_BOUND('',#100,.T.);
#81=FACE_OUTER_BOUND('',#101,.T.);
#82=FACE_OUTER_BOUND('',#102,.T.);
#83=FACE_OUTER_BOUND('',#103,.T.);
#84=FACE_OUTER_BOUND('',#104,.T.);
#85=FACE_OUTER_BOUND('',#106,.T.);
#86=FACE_OUTER_BOUND('',#107,.T.);
#87=FACE_OUTER_BOUND('',#108,.T.);
#88=FACE_OUTER_BOUND('',#110,.T.);
#89=FACE_OUTER_BOUND('',#111,.T.);
#90=EDGE_LOOP('',(#194,#195,#196,#197));
#91=EDGE_LOOP('',(#198));
#92=EDGE_LOOP('',(#199,#200,#201,#202,#203,#204,#205,#206));
#93=EDGE_LOOP('',(#207,#208,#209,#210));
#94=EDGE_LOOP('',(#211,#212,#213,#214));
#95=EDGE_LOOP('',(#215,#216,#217,#218));
#96=EDGE_LOOP('',(#219,#220,#221,#222,#223));
#97=EDGE_LOOP('',(#224,#225,#226,#227));
#98=EDGE_LOOP('',(#228,#229,#230,#231));
#99=EDGE_LOOP('',(#232,#233,#234,#235));
#100=EDGE_LOOP('',(#236,#237,#238,#239));
#101=EDGE_LOOP('',(#240,#241,#242,#243));
#102=EDGE_LOOP('',(#244,#245,#246,#247,#248));
#103=EDGE_LOOP('',(#249,#250,#251,#252));
#104=EDGE_LOOP('',(#253,#254,#255,#256));
#105=EDGE_LOOP('',(#257));
#106=EDGE_LOOP('',(#258,#259,#260,#261));
#107=EDGE_LOOP('',(#262));
#108=EDGE_LOOP('',(#263));
#109=EDGE_LOOP('',(#264));
#110=EDGE_LOOP('',(#265,#266,#267,#268));
#111=EDGE_LOOP('',(#269));
#112=CIRCLE('',#331,11.5);
#113=CIRCLE('',#332,1.);
#114=CIRCLE('',#333,12.5);
#115=CIRCLE('',#335,3.);
#116=CIRCLE('',#336,3.);
#117=CIRCLE('',#337,3.);
#118=CIRCLE('',#338,3.);
#119=CIRCLE('',#339,3.);
#120=CIRCLE('',#340,2.);
#121=CIRCLE('',#341,3.);
#122=CIRCLE('',#342,5.);
#123=CIRCLE('',#348,3.);
#124=CIRCLE('',#349,3.);
#125=CIRCLE('',#350,5.);
#126=CIRCLE('',#351,2.);
#127=CIRCLE('',#356,5.);
#128=CIRCLE('',#358,1.5);
#129=CIRCLE('',#360,1.5);
#130=CIRCLE('',#363,10.);
#131=CIRCLE('',#365,10.);
#132=VERTEX_POINT('',#463);
#133=VERTEX_POINT('',#465);
#134=VERTEX_POINT('',#469);
#135=VERTEX_POINT('',#470);
#136=VERTEX_POINT('',#472);
#137=VERTEX_POINT('',#474);
#138=VERTEX_POINT('',#476);
#139=VERTEX_POINT('',#478);
#140=VERTEX_POINT('',#480);
#141=VERTEX_POINT('',#482);
#142=VERTEX_POINT('',#500);
#143=VERTEX_POINT('',#501);
#144=VERTEX_POINT('',#503);
#145=VERTEX_POINT('',#505);
#146=VERTEX_POINT('',#515);
#147=VERTEX_POINT('',#517);
#148=VERTEX_POINT('',#522);
#149=VERTEX_POINT('',#540);
#150=VERTEX_POINT('',#541);
#151=VERTEX_POINT('',#550);
#152=VERTEX_POINT('',#556);
#153=VERTEX_POINT('',#559);
#154=VERTEX_POINT('',#564);
#155=VERTEX_POINT('',#567);
#156=EDGE_CURVE('',#132,#132,#112,.T.);
#157=EDGE_CURVE('',#132,#133,#113,.T.);
#158=EDGE_CURVE('',#133,#133,#114,.T.);
#159=EDGE_CURVE('',#134,#135,#26,.T.);
#160=EDGE_CURVE('',#136,#135,#115,.F.);
#161=EDGE_CURVE('',#136,#137,#27,.T.);
#162=EDGE_CURVE('',#138,#137,#116,.F.);
#163=EDGE_CURVE('',#138,#139,#28,.T.);
#164=EDGE_CURVE('',#140,#139,#117,.F.);
#165=EDGE_CURVE('',#140,#141,#29,.T.);
#166=EDGE_CURVE('',#134,#141,#118,.F.);
#167=EDGE_CURVE('',#142,#143,#119,.T.);
#168=EDGE_CURVE('',#143,#144,#120,.T.);
#169=EDGE_CURVE('',#144,#145,#121,.T.);
#170=EDGE_CURVE('',#145,#142,#122,.F.);
#171=EDGE_CURVE('',#137,#143,#30,.T.);
#172=EDGE_CURVE('',#142,#138,#31,.T.);
#173=EDGE_CURVE('',#135,#145,#32,.T.);
#174=EDGE_CURVE('',#144,#136,#33,.T.);
#175=EDGE_CURVE('',#146,#134,#34,.T.);
#176=EDGE_CURVE('',#147,#146,#35,.T.);
#177=EDGE_CURVE('',#147,#145,#36,.T.);
#178=EDGE_CURVE('',#148,#146,#123,.T.);
#179=EDGE_CURVE('',#141,#148,#37,.T.);
#180=EDGE_CURVE('',#149,#150,#124,.T.);
#181=EDGE_CURVE('',#150,#146,#125,.T.);
#182=EDGE_CURVE('',#148,#149,#126,.T.);
#183=EDGE_CURVE('',#139,#150,#38,.T.);
#184=EDGE_CURVE('',#149,#140,#39,.T.);
#185=EDGE_CURVE('',#142,#151,#40,.T.);
#186=EDGE_CURVE('',#150,#151,#41,.T.);
#187=EDGE_CURVE('',#151,#147,#127,.T.);
#188=EDGE_CURVE('',#152,#152,#128,.T.);
#189=EDGE_CURVE('',#152,#153,#42,.T.);
#190=EDGE_CURVE('',#153,#153,#129,.T.);
#191=EDGE_CURVE('',#154,#154,#130,.T.);
#192=EDGE_CURVE('',#154,#155,#43,.T.);
#193=EDGE_CURVE('',#155,#155,#131,.T.);
#194=ORIENTED_EDGE('',*,*,#156,.T.);
#195=ORIENTED_EDGE('',*,*,#157,.T.);
#196=ORIENTED_EDGE('',*,*,#158,.T.);
#197=ORIENTED_EDGE('',*,*,#157,.F.);
#198=ORIENTED_EDGE('',*,*,#156,.F.);
#199=ORIENTED_EDGE('',*,*,#159,.T.);
#200=ORIENTED_EDGE('',*,*,#160,.F.);
#201=ORIENTED_EDGE('',*,*,#161,.T.);
#202=ORIENTED_EDGE('',*,*,#162,.F.);
#203=ORIENTED_EDGE('',*,*,#163,.T.);
#204=ORIENTED_EDGE('',*,*,#164,.F.);
#205=ORIENTED_EDGE('',*,*,#165,.T.);
#206=ORIENTED_EDGE('',*,*,#166,.F.);
#207=ORIENTED_EDGE('',*,*,#167,.T.);
#208=ORIENTED_EDGE('',*,*,#168,.T.);
#209=ORIENTED_EDGE('',*,*,#169,.T.);
#210=ORIENTED_EDGE('',*,*,#170,.T.);
#211=ORIENTED_EDGE('',*,*,#162,.T.);
#212=ORIENTED_EDGE('',*,*,#171,.T.);
#213=ORIENTED_EDGE('',*,*,#167,.F.);
#214=ORIENTED_EDGE('',*,*,#172,.T.);
#215=ORIENTED_EDGE('',*,*,#160,.T.);
#216=ORIENTED_EDGE('',*,*,#173,.T.);
#217=ORIENTED_EDGE('',*,*,#169,.F.);
#218=ORIENTED_EDGE('',*,*,#174,.T.);
#219=ORIENTED_EDGE('',*,*,#173,.F.);
#220=ORIENTED_EDGE('',*,*,#159,.F.);
#221=ORIENTED_EDGE('',*,*,#175,.F.);
#222=ORIENTED_EDGE('',*,*,#176,.F.);
#223=ORIENTED_EDGE('',*,*,#177,.T.);
#224=ORIENTED_EDGE('',*,*,#174,.F.);
#225=ORIENTED_EDGE('',*,*,#168,.F.);
#226=ORIENTED_EDGE('',*,*,#171,.F.);
#227=ORIENTED_EDGE('',*,*,#161,.F.);
#228=ORIENTED_EDGE('',*,*,#178,.T.);
#229=ORIENTED_EDGE('',*,*,#175,.T.);
#230=ORIENTED_EDGE('',*,*,#166,.T.);
#231=ORIENTED_EDGE('',*,*,#179,.T.);
#232=ORIENTED_EDGE('',*,*,#180,.T.);
#233=ORIENTED_EDGE('',*,*,#181,.T.);
#234=ORIENTED_EDGE('',*,*,#178,.F.);
#235=ORIENTED_EDGE('',*,*,#182,.T.);
#236=ORIENTED_EDGE('',*,*,#164,.T.);
#237=ORIENTED_EDGE('',*,*,#183,.T.);
#238=ORIENTED_EDGE('',*,*,#180,.F.);
#239=ORIENTED_EDGE('',*,*,#184,.T.);
#240=ORIENTED_EDGE('',*,*,#184,.F.);
#241=ORIENTED_EDGE('',*,*,#182,.F.);
#242=ORIENTED_EDGE('',*,*,#179,.F.);
#243=ORIENTED_EDGE('',*,*,#165,.F.);
#244=ORIENTED_EDGE('',*,*,#172,.F.);
#245=ORIENTED_EDGE('',*,*,#185,.T.);
#246=ORIENTED_EDGE('',*,*,#186,.F.);
#247=ORIENTED_EDGE('',*,*,#183,.F.);
#248=ORIENTED_EDGE('',*,*,#163,.F.);
#249=ORIENTED_EDGE('',*,*,#181,.F.);
#250=ORIENTED_EDGE('',*,*,#186,.T.);
#251=ORIENTED_EDGE('',*,*,#187,.T.);
#252=ORIENTED_EDGE('',*,*,#176,.T.);
#253=ORIENTED_EDGE('',*,*,#187,.F.);
#254=ORIENTED_EDGE('',*,*,#185,.F.);
#255=ORIENTED_EDGE('',*,*,#170,.F.);
#256=ORIENTED_EDGE('',*,*,#177,.F.);
#257=ORIENTED_EDGE('',*,*,#188,.T.);
#258=ORIENTED_EDGE('',*,*,#188,.F.);
#259=ORIENTED_EDGE('',*,*,#189,.T.);
#260=ORIENTED_EDGE('',*,*,#190,.T.);
#261=ORIENTED_EDGE('',*,*,#189,.F.);
#262=ORIENTED_EDGE('',*,*,#190,.F.);
#263=ORIENTED_EDGE('',*,*,#158,.F.);
#264=ORIENTED_EDGE('',*,*,#191,.T.);
#265=ORIENTED_EDGE('',*,*,#191,.F.);
#266=ORIENTED_EDGE('',*,*,#192,.T.);
#267=ORIENTED_EDGE('',*,*,#193,.T.);
#268=ORIENTED_EDGE('',*,*,#192,.F.);
#269=ORIENTED_EDGE('',*,*,#193,.F.);
#270=TOROIDAL_SURFACE('',#330,11.5,1.);
#271=STYLED_ITEM('',(#591),#291);
#272=STYLED_ITEM('',(#591),#292);
#273=STYLED_ITEM('',(#591),#293);
#274=STYLED_ITEM('',(#591),#294);
#275=STYLED_ITEM('',(#591),#295);
#276=STYLED_ITEM('',(#591),#296);
#277=STYLED_ITEM('',(#591),#297);
#278=STYLED_ITEM('',(#591),#298);
#279=STYLED_ITEM('',(#591),#299);
#280=STYLED_ITEM('',(#591),#300);
#281=STYLED_ITEM('',(#591),#301);
#282=STYLED_ITEM('',(#591),#302);
#283=STYLED_ITEM('',(#591),#303);
#284=STYLED_ITEM('',(#591),#304);
#285=STYLED_ITEM('',(#591),#305);
#286=STYLED_ITEM('',(#591),#306);
#287=STYLED_ITEM('',(#591),#307);
#288=STYLED_ITEM('',(#591),#308);
#289=STYLED_ITEM('',(#591),#309);
#290=STYLED_ITEM('',(#590),#13);
#291=ADVANCED_FACE('',(#71),#270,.T.);
#292=ADVANCED_FACE('',(#72,#23),#62,.T.);
#293=ADVANCED_FACE('',(#73),#21,.F.);
#294=ADVANCED_FACE('',(#74),#14,.T.);
#295=ADVANCED_FACE('',(#75),#15,.T.);
#296=ADVANCED_FACE('',(#76),#63,.T.);
#297=ADVANCED_FACE('',(#77),#64,.T.);
#298=ADVANCED_FACE('',(#78),#16,.T.);
#299=ADVANCED_FACE('',(#79),#22,.F.);
#300=ADVANCED_FACE('',(#80),#17,.T.);
#301=ADVANCED_FACE('',(#81),#65,.T.);
#302=ADVANCED_FACE('',(#82),#66,.T.);
#303=ADVANCED_FACE('',(#83),#18,.T.);
#304=ADVANCED_FACE('',(#84,#24),#67,.F.);
#305=ADVANCED_FACE('',(#85),#19,.F.);
#306=ADVANCED_FACE('',(#86),#68,.T.);
#307=ADVANCED_FACE('',(#87,#25),#69,.F.);
#308=ADVANCED_FACE('',(#88),#20,.T.);
#309=ADVANCED_FACE('',(#89),#70,.F.);
#310=CLOSED_SHELL('',(#291,#292,#293,#294,#295,#296,#297,#298,#299,#300,
#301,#302,#303,#304,#305,#306,#307,#308,#309));
#311=DERIVED_UNIT_ELEMENT(#313,1.);
#312=DERIVED_UNIT_ELEMENT(#576,3.);
#313=(
MASS_UNIT()
NAMED_UNIT(*)
SI_UNIT($,.GRAM.)
);
#314=DERIVED_UNIT((#311,#312));
#315=MEASURE_REPRESENTATION_ITEM('density measure',
POSITIVE_RATIO_MEASURE(1.06),#314);
#316=PROPERTY_DEFINITION_REPRESENTATION(#321,#318);
#317=PROPERTY_DEFINITION_REPRESENTATION(#322,#319);
#318=REPRESENTATION('material name',(#320),#573);
#319=REPRESENTATION('density',(#315),#573);
#320=DESCRIPTIVE_REPRESENTATION_ITEM('ABS Plastic','ABS Plastic');
#321=PROPERTY_DEFINITION('material property','material name',#583);
#322=PROPERTY_DEFINITION('material property','density of part',#583);
#323=DATE_TIME_ROLE('creation_date');
#324=APPLIED_DATE_AND_TIME_ASSIGNMENT(#325,#323,(#583));
#325=DATE_AND_TIME(#326,#327);
#326=CALENDAR_DATE(2025,16,9);
#327=LOCAL_TIME(0,0,0.,#328);
#328=COORDINATED_UNIVERSAL_TIME_OFFSET(0,0,.BEHIND.);
#329=AXIS2_PLACEMENT_3D('placement',#461,#367,#368);
#330=AXIS2_PLACEMENT_3D('',#462,#369,#370);
#331=AXIS2_PLACEMENT_3D('',#464,#371,#372);
#332=AXIS2_PLACEMENT_3D('',#466,#373,#374);
#333=AXIS2_PLACEMENT_3D('',#467,#375,#376);
#334=AXIS2_PLACEMENT_3D('',#468,#377,#378);
#335=AXIS2_PLACEMENT_3D('',#473,#380,#381);
#336=AXIS2_PLACEMENT_3D('',#477,#383,#384);
#337=AXIS2_PLACEMENT_3D('',#481,#386,#387);
#338=AXIS2_PLACEMENT_3D('',#484,#389,#390);
#339=AXIS2_PLACEMENT_3D('',#502,#391,#392);
#340=AXIS2_PLACEMENT_3D('',#504,#393,#394);
#341=AXIS2_PLACEMENT_3D('',#506,#395,#396);
#342=AXIS2_PLACEMENT_3D('',#507,#397,#398);
#343=AXIS2_PLACEMENT_3D('',#508,#399,#400);
#344=AXIS2_PLACEMENT_3D('',#511,#403,#404);
#345=AXIS2_PLACEMENT_3D('',#514,#407,#408);
#346=AXIS2_PLACEMENT_3D('',#520,#412,#413);
#347=AXIS2_PLACEMENT_3D('',#521,#414,#415);
#348=AXIS2_PLACEMENT_3D('',#523,#416,#417);
#349=AXIS2_PLACEMENT_3D('',#542,#419,#420);
#350=AXIS2_PLACEMENT_3D('',#543,#421,#422);
#351=AXIS2_PLACEMENT_3D('',#544,#423,#424);
#352=AXIS2_PLACEMENT_3D('',#545,#425,#426);
#353=AXIS2_PLACEMENT_3D('',#548,#429,#430);
#354=AXIS2_PLACEMENT_3D('',#549,#431,#432);
#355=AXIS2_PLACEMENT_3D('',#553,#435,#436);
#356=AXIS2_PLACEMENT_3D('',#554,#437,#438);
#357=AXIS2_PLACEMENT_3D('',#555,#439,#440);
#358=AXIS2_PLACEMENT_3D('',#557,#441,#442);
#359=AXIS2_PLACEMENT_3D('',#558,#443,#444);
#360=AXIS2_PLACEMENT_3D('',#561,#446,#447);
#361=AXIS2_PLACEMENT_3D('',#562,#448,#449);
#362=AXIS2_PLACEMENT_3D('',#563,#450,#451);
#363=AXIS2_PLACEMENT_3D('',#565,#452,#453);
#364=AXIS2_PLACEMENT_3D('',#566,#454,#455);
#365=AXIS2_PLACEMENT_3D('',#569,#457,#458);
#366=AXIS2_PLACEMENT_3D('',#570,#459,#460);
#367=DIRECTION('axis',(0.,0.,1.));
#368=DIRECTION('refdir',(1.,0.,0.));
#369=DIRECTION('center_axis',(0.,0.,1.));
#370=DIRECTION('ref_axis',(1.,0.,0.));
#371=DIRECTION('center_axis',(0.,0.,-1.));
#372=DIRECTION('ref_axis',(-1.,1.22464679914735E-16,0.));
#373=DIRECTION('center_axis',(1.22464679914735E-16,-1.,0.));
#374=DIRECTION('ref_axis',(-1.,-1.22464679914735E-16,0.));
#375=DIRECTION('center_axis',(0.,0.,1.));
#376=DIRECTION('ref_axis',(1.,0.,0.));
#377=DIRECTION('center_axis',(0.,0.,1.));
#378=DIRECTION('ref_axis',(1.,0.,0.));
#379=DIRECTION('',(5.55111512312578E-17,1.,0.));
#380=DIRECTION('center_axis',(0.,0.,-1.));
#381=DIRECTION('ref_axis',(-0.707106781186548,0.707106781186548,0.));
#382=DIRECTION('',(1.,-1.11022302462516E-16,0.));
#383=DIRECTION('center_axis',(0.,0.,-1.));
#384=DIRECTION('ref_axis',(0.707106781186547,0.707106781186548,0.));
#385=DIRECTION('',(-1.11022302462516E-16,-1.,0.));
#386=DIRECTION('center_axis',(0.,0.,-1.));
#387=DIRECTION('ref_axis',(0.707106781186547,-0.707106781186548,0.));
#388=DIRECTION('',(-1.,4.9960036108132E-16,0.));
#389=DIRECTION('center_axis',(0.,0.,-1.));
#390=DIRECTION('ref_axis',(-0.707106781186548,-0.707106781186547,0.));
#391=DIRECTION('center_axis',(0.,0.,1.));
#392=DIRECTION('ref_axis',(1.,2.77555756156289E-16,0.));
#393=DIRECTION('center_axis',(-1.11022302462516E-16,-1.,0.));
#394=DIRECTION('ref_axis',(-1.11022302462516E-16,1.23259516440783E-32,1.));
#395=DIRECTION('center_axis',(0.,0.,1.));
#396=DIRECTION('ref_axis',(9.25185853854297E-17,1.,0.));
#397=DIRECTION('center_axis',(0.,-1.,0.));
#398=DIRECTION('ref_axis',(-0.707106781186547,0.,0.707106781186547));
#399=DIRECTION('center_axis',(0.,0.,1.));
#400=DIRECTION('ref_axis',(0.707106781186547,0.707106781186548,0.));
#401=DIRECTION('',(0.,0.,1.));
#402=DIRECTION('',(0.,0.,-1.));
#403=DIRECTION('center_axis',(0.,0.,1.));
#404=DIRECTION('ref_axis',(-0.707106781186548,0.707106781186548,0.));
#405=DIRECTION('',(0.,0.,1.));
#406=DIRECTION('',(0.,0.,-1.));
#407=DIRECTION('center_axis',(-1.,5.55111512312578E-17,0.));
#408=DIRECTION('ref_axis',(-5.55111512312578E-17,-1.,0.));
#409=DIRECTION('',(0.,0.,-1.));
#410=DIRECTION('',(-5.55111512312578E-17,-1.,0.));
#411=DIRECTION('',(0.,0.,-1.));
#412=DIRECTION('center_axis',(1.11022302462516E-16,1.,0.));
#413=DIRECTION('ref_axis',(-1.,1.11022302462516E-16,0.));
#414=DIRECTION('center_axis',(0.,0.,1.));
#415=DIRECTION('ref_axis',(-0.707106781186548,-0.707106781186547,0.));
#416=DIRECTION('center_axis',(0.,0.,-1.));
#417=DIRECTION('ref_axis',(-4.62592926927148E-16,-1.,0.));
#418=DIRECTION('',(0.,0.,1.));
#419=DIRECTION('center_axis',(0.,0.,1.));
#420=DIRECTION('ref_axis',(-5.55111512312578E-16,-1.,0.));
#421=DIRECTION('center_axis',(-4.9960036108132E-16,-1.,0.));
#422=DIRECTION('ref_axis',(1.55431223447522E-16,0.,1.));
#423=DIRECTION('center_axis',(4.9960036108132E-16,1.,0.));
#424=DIRECTION('ref_axis',(1.55431223447522E-16,-7.76534953576933E-32,1.));
#425=DIRECTION('center_axis',(0.,0.,1.));
#426=DIRECTION('ref_axis',(0.707106781186547,-0.707106781186548,0.));
#427=DIRECTION('',(0.,0.,1.));
#428=DIRECTION('',(0.,0.,-1.));
#429=DIRECTION('center_axis',(-4.9960036108132E-16,-1.,0.));
#430=DIRECTION('ref_axis',(1.,-4.9960036108132E-16,0.));
#431=DIRECTION('center_axis',(1.,-1.11022302462516E-16,0.));
#432=DIRECTION('ref_axis',(1.11022302462516E-16,1.,0.));
#433=DIRECTION('',(0.,0.,1.));
#434=DIRECTION('',(1.11022302462516E-16,1.,0.));
#435=DIRECTION('center_axis',(-5.55111512312578E-17,-1.,0.));
#436=DIRECTION('ref_axis',(-0.707106781186547,7.85046229341887E-17,0.707106781186547));
#437=DIRECTION('center_axis',(0.,-1.,0.));
#438=DIRECTION('ref_axis',(-0.707106781186547,7.85046229341887E-17,0.707106781186547));
#439=DIRECTION('center_axis',(0.,-1.,0.));
#440=DIRECTION('ref_axis',(-1.,0.,0.));
#441=DIRECTION('center_axis',(0.,-1.,0.));
#442=DIRECTION('ref_axis',(1.,0.,0.));
#443=DIRECTION('center_axis',(0.,-1.,0.));
#444=DIRECTION('ref_axis',(1.,0.,0.));
#445=DIRECTION('',(0.,-1.,0.));
#446=DIRECTION('center_axis',(0.,-1.,0.));
#447=DIRECTION('ref_axis',(1.,0.,0.));
#448=DIRECTION('center_axis',(0.,1.,0.));
#449=DIRECTION('ref_axis',(0.,0.,1.));
#450=DIRECTION('center_axis',(0.,0.,1.));
#451=DIRECTION('ref_axis',(1.,0.,0.));
#452=DIRECTION('center_axis',(0.,0.,1.));
#453=DIRECTION('ref_axis',(1.,0.,0.));
#454=DIRECTION('center_axis',(0.,0.,1.));
#455=DIRECTION('ref_axis',(1.,0.,0.));
#456=DIRECTION('',(0.,0.,-1.));
#457=DIRECTION('center_axis',(0.,0.,1.));
#458=DIRECTION('ref_axis',(1.,0.,0.));
#459=DIRECTION('center_axis',(0.,0.,1.));
#460=DIRECTION('ref_axis',(1.,0.,0.));
#461=CARTESIAN_POINT('',(0.,0.,0.));
#462=CARTESIAN_POINT('Origin',(0.,0.,3.));
#463=CARTESIAN_POINT('',(-11.5,-1.40834381901946E-15,4.));
#464=CARTESIAN_POINT('Origin',(0.,0.,4.));
#465=CARTESIAN_POINT('',(-12.5,-1.53080849893419E-15,3.));
#466=CARTESIAN_POINT('Origin',(-11.5,-1.40834381901946E-15,3.));
#467=CARTESIAN_POINT('Origin',(0.,0.,3.));
#468=CARTESIAN_POINT('Origin',(0.,0.,4.));
#469=CARTESIAN_POINT('',(-5.,-2.,4.));
#470=CARTESIAN_POINT('',(-5.,2.,4.));
#471=CARTESIAN_POINT('',(-5.,2.5,4.));
#472=CARTESIAN_POINT('',(-2.,5.,4.));
#473=CARTESIAN_POINT('Origin',(-2.,2.,4.));
#474=CARTESIAN_POINT('',(2.,5.,4.));
#475=CARTESIAN_POINT('',(2.5,5.,4.));
#476=CARTESIAN_POINT('',(5.,2.,4.));
#477=CARTESIAN_POINT('Origin',(2.,2.,4.));
#478=CARTESIAN_POINT('',(5.,-2.,4.));
#479=CARTESIAN_POINT('',(5.,-2.5,4.));
#480=CARTESIAN_POINT('',(2.,-5.,4.));
#481=CARTESIAN_POINT('Origin',(2.,-2.,4.));
#482=CARTESIAN_POINT('',(-2.,-5.,4.));
#483=CARTESIAN_POINT('',(-2.5,-5.,4.));
#484=CARTESIAN_POINT('Origin',(-2.,-2.,4.));
#485=CARTESIAN_POINT('Ctrl Pts',(2.,5.,42.));
#486=CARTESIAN_POINT('Ctrl Pts',(2.,5.,44.));
#487=CARTESIAN_POINT('Ctrl Pts',(1.35515238445463E-15,5.,44.));
#488=CARTESIAN_POINT('Ctrl Pts',(-2.,5.,44.));
#489=CARTESIAN_POINT('Ctrl Pts',(-2.,5.,42.));
#490=CARTESIAN_POINT('Ctrl Pts',(5.,5.,42.));
#491=CARTESIAN_POINT('Ctrl Pts',(5.,5.,47.));
#492=CARTESIAN_POINT('Ctrl Pts',(1.72254642419883E-15,5.,47.));
#493=CARTESIAN_POINT('Ctrl Pts',(-5.,5.,47.));
#494=CARTESIAN_POINT('Ctrl Pts',(-5.,5.,42.));
#495=CARTESIAN_POINT('Ctrl Pts',(5.,2.,42.));
#496=CARTESIAN_POINT('Ctrl Pts',(5.,2.,47.));
#497=CARTESIAN_POINT('Ctrl Pts',(1.38947951681129E-15,2.,47.));
#498=CARTESIAN_POINT('Ctrl Pts',(-5.,2.,47.));
#499=CARTESIAN_POINT('Ctrl Pts',(-5.,2.,42.));
#500=CARTESIAN_POINT('',(5.,2.,42.));
#501=CARTESIAN_POINT('',(2.,5.,42.));
#502=CARTESIAN_POINT('Origin',(2.,2.,42.));
#503=CARTESIAN_POINT('',(-2.,5.,42.));
#504=CARTESIAN_POINT('Origin',(1.11022302462516E-15,5.,42.));
#505=CARTESIAN_POINT('',(-5.,2.,42.));
#506=CARTESIAN_POINT('Origin',(-2.,2.,42.));
#507=CARTESIAN_POINT('Origin',(3.88578058618805E-16,2.,42.));
#508=CARTESIAN_POINT('Origin',(2.,2.,4.));
#509=CARTESIAN_POINT('',(2.,5.,4.));
#510=CARTESIAN_POINT('',(5.,2.,4.));
#511=CARTESIAN_POINT('Origin',(-2.,2.,4.));
#512=CARTESIAN_POINT('',(-5.,2.,4.));
#513=CARTESIAN_POINT('',(-2.,5.,4.));
#514=CARTESIAN_POINT('Origin',(-5.,5.,4.));
#515=CARTESIAN_POINT('',(-5.,-2.,53.));
#516=CARTESIAN_POINT('',(-5.,-2.,4.));
#517=CARTESIAN_POINT('',(-5.,2.,53.));
#518=CARTESIAN_POINT('',(-5.,2.5,53.));
#519=CARTESIAN_POINT('',(-5.,2.,31.));
#520=CARTESIAN_POINT('Origin',(5.,5.,4.));
#521=CARTESIAN_POINT('Origin',(-2.,-2.,4.));
#522=CARTESIAN_POINT('',(-2.,-5.,53.));
#523=CARTESIAN_POINT('Origin',(-2.,-2.,53.));
#524=CARTESIAN_POINT('',(-2.,-5.,4.));
#525=CARTESIAN_POINT('Ctrl Pts',(-2.,-5.,53.));
#526=CARTESIAN_POINT('Ctrl Pts',(-2.,-5.,55.));
#527=CARTESIAN_POINT('Ctrl Pts',(-1.33226762955019E-15,-5.,55.));
#528=CARTESIAN_POINT('Ctrl Pts',(2.,-5.,55.));
#529=CARTESIAN_POINT('Ctrl Pts',(2.,-5.,53.));
#530=CARTESIAN_POINT('Ctrl Pts',(-5.,-5.,53.));
#531=CARTESIAN_POINT('Ctrl Pts',(-5.,-5.,58.));
#532=CARTESIAN_POINT('Ctrl Pts',(-1.33226762955019E-15,-5.,58.));
#533=CARTESIAN_POINT('Ctrl Pts',(5.,-5.,58.));
#534=CARTESIAN_POINT('Ctrl Pts',(5.,-5.,53.));
#535=CARTESIAN_POINT('Ctrl Pts',(-5.,-1.99999999999999,53.));
#536=CARTESIAN_POINT('Ctrl Pts',(-5.,-1.99999999999999,58.));
#537=CARTESIAN_POINT('Ctrl Pts',(1.66533453693774E-16,-2.,58.));
#538=CARTESIAN_POINT('Ctrl Pts',(5.,-2.,58.));
#539=CARTESIAN_POINT('Ctrl Pts',(5.,-2.,53.));
#540=CARTESIAN_POINT('',(2.,-5.,53.));
#541=CARTESIAN_POINT('',(5.,-2.,53.));
#542=CARTESIAN_POINT('Origin',(2.,-2.,53.));
#543=CARTESIAN_POINT('Origin',(1.66533453693774E-16,-2.,53.));
#544=CARTESIAN_POINT('Origin',(-1.33226762955019E-15,-5.,53.));
#545=CARTESIAN_POINT('Origin',(2.,-2.,4.));
#546=CARTESIAN_POINT('',(5.,-2.,4.));
#547=CARTESIAN_POINT('',(2.,-5.,4.));
#548=CARTESIAN_POINT('Origin',(-5.,-5.,4.));
#549=CARTESIAN_POINT('Origin',(5.,-5.,4.));
#550=CARTESIAN_POINT('',(5.,2.,53.));
#551=CARTESIAN_POINT('',(5.,2.,31.));
#552=CARTESIAN_POINT('',(5.,-2.5,53.));
#553=CARTESIAN_POINT('Origin',(4.16333634234434E-16,2.5,53.));
#554=CARTESIAN_POINT('Origin',(3.88578058618805E-16,2.,53.));
#555=CARTESIAN_POINT('Origin',(5.,2.,58.));
#556=CARTESIAN_POINT('',(-1.5,2.,53.));
#557=CARTESIAN_POINT('Origin',(0.,2.,53.));
#558=CARTESIAN_POINT('Origin',(0.,2.,53.));
#559=CARTESIAN_POINT('',(-1.5,-5.55111512312578E-16,53.));
#560=CARTESIAN_POINT('',(-1.5,2.,53.));
#561=CARTESIAN_POINT('Origin',(0.,-5.55111512312578E-16,53.));
#562=CARTESIAN_POINT('Origin',(0.,-5.55111512312578E-16,53.));
#563=CARTESIAN_POINT('Origin',(0.,0.,3.));
#564=CARTESIAN_POINT('',(-10.,-1.22464679914735E-15,3.));
#565=CARTESIAN_POINT('Origin',(0.,0.,3.));
#566=CARTESIAN_POINT('Origin',(0.,0.,0.));
#567=CARTESIAN_POINT('',(-10.,-1.22464679914735E-15,0.));
#568=CARTESIAN_POINT('',(-10.,-1.22464679914735E-15,0.));
#569=CARTESIAN_POINT('Origin',(0.,0.,0.));
#570=CARTESIAN_POINT('Origin',(0.,0.,0.));
#571=UNCERTAINTY_MEASURE_WITH_UNIT(LENGTH_MEASURE(0.01),#575,
'DISTANCE_ACCURACY_VALUE',
'Maximum model space distance between geometric entities at asserted c
onnectivities');
#572=UNCERTAINTY_MEASURE_WITH_UNIT(LENGTH_MEASURE(0.01),#575,
'DISTANCE_ACCURACY_VALUE',
'Maximum model space distance between geometric entities at asserted c
onnectivities');
#573=(
GEOMETRIC_REPRESENTATION_CONTEXT(3)
GLOBAL_UNCERTAINTY_ASSIGNED_CONTEXT((#571))
GLOBAL_UNIT_ASSIGNED_CONTEXT((#575,#577,#578))
REPRESENTATION_CONTEXT('','3D')
);
#574=(
GEOMETRIC_REPRESENTATION_CONTEXT(3)
GLOBAL_UNCERTAINTY_ASSIGNED_CONTEXT((#572))
GLOBAL_UNIT_ASSIGNED_CONTEXT((#575,#577,#578))
REPRESENTATION_CONTEXT('','3D')
);
#575=(
LENGTH_UNIT()
NAMED_UNIT(*)
SI_UNIT(.MILLI.,.METRE.)
);
#576=(
LENGTH_UNIT()
NAMED_UNIT(*)
SI_UNIT(.CENTI.,.METRE.)
);
#577=(
NAMED_UNIT(*)
PLANE_ANGLE_UNIT()
SI_UNIT($,.RADIAN.)
);
#578=(
NAMED_UNIT(*)
SI_UNIT($,.STERADIAN.)
SOLID_ANGLE_UNIT()
);
#579=SHAPE_DEFINITION_REPRESENTATION(#580,#581);
#580=PRODUCT_DEFINITION_SHAPE('',$,#583);
#581=SHAPE_REPRESENTATION('',(#329),#573);
#582=PRODUCT_DEFINITION_CONTEXT('part definition',#587,'design');
#583=PRODUCT_DEFINITION('link1','link1',#584,#582);
#584=PRODUCT_DEFINITION_FORMATION('',$,#589);
#585=PRODUCT_RELATED_PRODUCT_CATEGORY('link1','link1',(#589));
#586=APPLICATION_PROTOCOL_DEFINITION('international standard',
'automotive_design',2009,#587);
#587=APPLICATION_CONTEXT(
'Core Data for Automotive Mechanical Design Process');
#588=PRODUCT_CONTEXT('part definition',#587,'mechanical');
#589=PRODUCT('link1','link1',$,(#588));
#590=PRESENTATION_STYLE_ASSIGNMENT((#592));
#591=PRESENTATION_STYLE_ASSIGNMENT((#593));
#592=SURFACE_STYLE_USAGE(.BOTH.,#598);
#593=SURFACE_STYLE_USAGE(.BOTH.,#599);
#594=SURFACE_STYLE_RENDERING_WITH_PROPERTIES($,#606,(#596));
#595=SURFACE_STYLE_RENDERING_WITH_PROPERTIES($,#607,(#597));
#596=SURFACE_STYLE_TRANSPARENT(0.);
#597=SURFACE_STYLE_TRANSPARENT(0.);
#598=SURFACE_SIDE_STYLE('',(#600,#594));
#599=SURFACE_SIDE_STYLE('',(#601,#595));
#600=SURFACE_STYLE_FILL_AREA(#602);
#601=SURFACE_STYLE_FILL_AREA(#603);
#602=FILL_AREA_STYLE('',(#604));
#603=FILL_AREA_STYLE('',(#605));
#604=FILL_AREA_STYLE_COLOUR('',#606);
#605=FILL_AREA_STYLE_COLOUR('',#607);
#606=COLOUR_RGB('',0.92156862745098,0.92156862745098,0.92156862745098);
#607=COLOUR_RGB('',0.772549019607843,0.76078431372549,0.580392156862745);
ENDSEC;
END-ISO-10303-21;
