ISO-10303-21;
HEADER;
/* Generated by software containing ST-Developer
 * from STEP Tools, Inc. (www.steptools.com) 
 */

FILE_DESCRIPTION(
/* description */ (''),
/* implementation_level */ '2;1');

FILE_NAME(
/* name */ 
'C:\\Users\\eyome\\OneDrive\\Documents\\Inventor\\6DOFArmV3\\\\link3_i
pt_56ce549b.STEP',
/* time_stamp */ '2025-09-17T16:20:03+03:00',
/* author */ ('eyome'),
/* organization */ (''),
/* preprocessor_version */ 'ST-DEVELOPER v18.1',
/* originating_system */ 'Autodesk Inventor 2021',
/* authorisation */ '');

FILE_SCHEMA (('AUTOMOTIVE_DESIGN { 1 0 10303 214 3 1 1 }'));
ENDSEC;

DATA;
#10=MECHANICAL_DESIGN_GEOMETRIC_PRESENTATION_REPRESENTATION('',(#249,#250,
#251,#252,#253,#254,#255,#256,#257,#258,#259,#260,#261,#262,#263,#264,#265,
#266),#526);
#11=SHAPE_REPRESENTATION_RELATIONSHIP('SRR','None',#533,#12);
#12=ADVANCED_BREP_SHAPE_REPRESENTATION('',(#13),#525);
#13=MANIFOLD_SOLID_BREP('Solid1',#284);
#14=FACE_BOUND('',#48,.T.);
#15=FACE_BOUND('',#57,.T.);
#16=PLANE('',#312);
#17=PLANE('',#313);
#18=PLANE('',#323);
#19=PLANE('',#326);
#20=PLANE('',#327);
#21=PLANE('',#328);
#22=PLANE('',#332);
#23=PLANE('',#335);
#24=(
BOUNDED_SURFACE()
B_SPLINE_SURFACE(2,2,((#432,#433,#434,#435,#436),(#437,#438,#439,#440,#441),
(#442,#443,#444,#445,#446)),.UNSPECIFIED.,.F.,.F.,.F.)
B_SPLINE_SURFACE_WITH_KNOTS((3,3),(3,2,3),(-1.5707963267949,2.77555756156289E-16),
(-1.5707963267949,0.,1.5707963267949),.UNSPECIFIED.)
GEOMETRIC_REPRESENTATION_ITEM()
RATIONAL_B_SPLINE_SURFACE(((1.,0.707106781186548,1.,0.707106781186548,1.),
(0.707106781186548,0.5,0.707106781186548,0.5,0.707106781186548),(1.,0.707106781186548,
1.,0.707106781186548,1.)))
REPRESENTATION_ITEM('')
SURFACE()
);
#25=(
BOUNDED_SURFACE()
B_SPLINE_SURFACE(2,2,((#480,#481,#482,#483,#484),(#485,#486,#487,#488,#489),
(#490,#491,#492,#493,#494)),.UNSPECIFIED.,.F.,.F.,.F.)
B_SPLINE_SURFACE_WITH_KNOTS((3,3),(3,2,3),(-1.5707963267949,0.),(-1.5707963267949,
0.,1.5707963267949),.UNSPECIFIED.)
GEOMETRIC_REPRESENTATION_ITEM()
RATIONAL_B_SPLINE_SURFACE(((1.,0.707106781186548,1.,0.707106781186548,1.),
(0.707106781186548,0.5,0.707106781186548,0.5,0.707106781186548),(1.,0.707106781186548,
1.,0.707106781186548,1.)))
REPRESENTATION_ITEM('')
SURFACE()
);
#26=FACE_OUTER_BOUND('',#43,.T.);
#27=FACE_OUTER_BOUND('',#44,.T.);
#28=FACE_OUTER_BOUND('',#45,.T.);
#29=FACE_OUTER_BOUND('',#46,.T.);
#30=FACE_OUTER_BOUND('',#47,.T.);
#31=FACE_OUTER_BOUND('',#49,.T.);
#32=FACE_OUTER_BOUND('',#50,.T.);
#33=FACE_OUTER_BOUND('',#51,.T.);
#34=FACE_OUTER_BOUND('',#52,.T.);
#35=FACE_OUTER_BOUND('',#53,.T.);
#36=FACE_OUTER_BOUND('',#54,.T.);
#37=FACE_OUTER_BOUND('',#55,.T.);
#38=FACE_OUTER_BOUND('',#56,.T.);
#39=FACE_OUTER_BOUND('',#58,.T.);
#40=FACE_OUTER_BOUND('',#59,.T.);
#41=FACE_OUTER_BOUND('',#60,.T.);
#42=FACE_OUTER_BOUND('',#61,.T.);
#43=EDGE_LOOP('',(#172,#173,#174,#175,#176));
#44=EDGE_LOOP('',(#177,#178,#179,#180));
#45=EDGE_LOOP('',(#181,#182,#183,#184,#185));
#46=EDGE_LOOP('',(#186,#187,#188,#189));
#47=EDGE_LOOP('',(#190,#191,#192,#193,#194,#195,#196,#197));
#48=EDGE_LOOP('',(#198));
#49=EDGE_LOOP('',(#199,#200,#201,#202));
#50=EDGE_LOOP('',(#203,#204,#205,#206));
#51=EDGE_LOOP('',(#207,#208,#209,#210));
#52=EDGE_LOOP('',(#211,#212,#213,#214));
#53=EDGE_LOOP('',(#215,#216,#217,#218));
#54=EDGE_LOOP('',(#219,#220,#221,#222));
#55=EDGE_LOOP('',(#223,#224,#225,#226));
#56=EDGE_LOOP('',(#227,#228,#229,#230));
#57=EDGE_LOOP('',(#231));
#58=EDGE_LOOP('',(#232,#233,#234,#235));
#59=EDGE_LOOP('',(#236));
#60=EDGE_LOOP('',(#237,#238,#239,#240));
#61=EDGE_LOOP('',(#241));
#62=LINE('',#426,#80);
#63=LINE('',#428,#81);
#64=LINE('',#431,#82);
#65=LINE('',#456,#83);
#66=LINE('',#458,#84);
#67=LINE('',#459,#85);
#68=LINE('',#461,#86);
#69=LINE('',#464,#87);
#70=LINE('',#468,#88);
#71=LINE('',#471,#89);
#72=LINE('',#476,#90);
#73=LINE('',#479,#91);
#74=LINE('',#501,#92);
#75=LINE('',#502,#93);
#76=LINE('',#504,#94);
#77=LINE('',#506,#95);
#78=LINE('',#516,#96);
#79=LINE('',#520,#97);
#80=VECTOR('',#342,10.);
#81=VECTOR('',#343,10.);
#82=VECTOR('',#346,10.);
#83=VECTOR('',#357,10.);
#84=VECTOR('',#358,10.);
#85=VECTOR('',#359,10.);
#86=VECTOR('',#362,10.);
#87=VECTOR('',#365,10.);
#88=VECTOR('',#368,10.);
#89=VECTOR('',#371,10.);
#90=VECTOR('',#376,10.);
#91=VECTOR('',#379,10.);
#92=VECTOR('',#388,10.);
#93=VECTOR('',#389,10.);
#94=VECTOR('',#392,10.);
#95=VECTOR('',#395,10.);
#96=VECTOR('',#410,1.5);
#97=VECTOR('',#415,1.5);
#98=CIRCLE('',#305,3.);
#99=CIRCLE('',#306,3.);
#100=CIRCLE('',#307,3.);
#101=CIRCLE('',#308,2.);
#102=CIRCLE('',#309,5.);
#103=CIRCLE('',#311,3.);
#104=CIRCLE('',#314,3.);
#105=CIRCLE('',#315,3.);
#106=CIRCLE('',#316,1.5);
#107=CIRCLE('',#318,3.);
#108=CIRCLE('',#319,3.);
#109=CIRCLE('',#320,2.);
#110=CIRCLE('',#321,5.);
#111=CIRCLE('',#325,5.);
#112=CIRCLE('',#329,1.5);
#113=CIRCLE('',#331,1.5);
#114=CIRCLE('',#334,1.5);
#115=VERTEX_POINT('',#422);
#116=VERTEX_POINT('',#423);
#117=VERTEX_POINT('',#425);
#118=VERTEX_POINT('',#427);
#119=VERTEX_POINT('',#429);
#120=VERTEX_POINT('',#447);
#121=VERTEX_POINT('',#448);
#122=VERTEX_POINT('',#453);
#123=VERTEX_POINT('',#454);
#124=VERTEX_POINT('',#457);
#125=VERTEX_POINT('',#463);
#126=VERTEX_POINT('',#465);
#127=VERTEX_POINT('',#467);
#128=VERTEX_POINT('',#469);
#129=VERTEX_POINT('',#472);
#130=VERTEX_POINT('',#475);
#131=VERTEX_POINT('',#477);
#132=VERTEX_POINT('',#495);
#133=VERTEX_POINT('',#496);
#134=VERTEX_POINT('',#511);
#135=VERTEX_POINT('',#514);
#136=VERTEX_POINT('',#519);
#137=EDGE_CURVE('',#115,#116,#98,.T.);
#138=EDGE_CURVE('',#116,#117,#62,.T.);
#139=EDGE_CURVE('',#117,#118,#63,.T.);
#140=EDGE_CURVE('',#118,#119,#99,.T.);
#141=EDGE_CURVE('',#119,#115,#64,.T.);
#142=EDGE_CURVE('',#120,#121,#100,.T.);
#143=EDGE_CURVE('',#121,#119,#101,.T.);
#144=EDGE_CURVE('',#118,#120,#102,.T.);
#145=EDGE_CURVE('',#122,#123,#103,.T.);
#146=EDGE_CURVE('',#123,#121,#65,.T.);
#147=EDGE_CURVE('',#120,#124,#66,.T.);
#148=EDGE_CURVE('',#124,#122,#67,.T.);
#149=EDGE_CURVE('',#115,#123,#68,.T.);
#150=EDGE_CURVE('',#122,#125,#69,.T.);
#151=EDGE_CURVE('',#126,#125,#104,.T.);
#152=EDGE_CURVE('',#126,#127,#70,.T.);
#153=EDGE_CURVE('',#128,#127,#105,.T.);
#154=EDGE_CURVE('',#128,#116,#71,.T.);
#155=EDGE_CURVE('',#129,#129,#106,.T.);
#156=EDGE_CURVE('',#125,#130,#72,.T.);
#157=EDGE_CURVE('',#130,#131,#107,.T.);
#158=EDGE_CURVE('',#131,#126,#73,.T.);
#159=EDGE_CURVE('',#132,#133,#108,.T.);
#160=EDGE_CURVE('',#133,#131,#109,.T.);
#161=EDGE_CURVE('',#130,#132,#110,.T.);
#162=EDGE_CURVE('',#127,#133,#74,.T.);
#163=EDGE_CURVE('',#132,#128,#75,.T.);
#164=EDGE_CURVE('',#117,#132,#76,.T.);
#165=EDGE_CURVE('',#130,#124,#77,.T.);
#166=EDGE_CURVE('',#124,#117,#111,.F.);
#167=EDGE_CURVE('',#134,#134,#112,.T.);
#168=EDGE_CURVE('',#135,#135,#113,.T.);
#169=EDGE_CURVE('',#135,#134,#78,.T.);
#170=EDGE_CURVE('',#129,#136,#79,.T.);
#171=EDGE_CURVE('',#136,#136,#114,.T.);
#172=ORIENTED_EDGE('',*,*,#137,.T.);
#173=ORIENTED_EDGE('',*,*,#138,.T.);
#174=ORIENTED_EDGE('',*,*,#139,.T.);
#175=ORIENTED_EDGE('',*,*,#140,.T.);
#176=ORIENTED_EDGE('',*,*,#141,.T.);
#177=ORIENTED_EDGE('',*,*,#142,.T.);
#178=ORIENTED_EDGE('',*,*,#143,.T.);
#179=ORIENTED_EDGE('',*,*,#140,.F.);
#180=ORIENTED_EDGE('',*,*,#144,.T.);
#181=ORIENTED_EDGE('',*,*,#145,.T.);
#182=ORIENTED_EDGE('',*,*,#146,.T.);
#183=ORIENTED_EDGE('',*,*,#142,.F.);
#184=ORIENTED_EDGE('',*,*,#147,.T.);
#185=ORIENTED_EDGE('',*,*,#148,.T.);
#186=ORIENTED_EDGE('',*,*,#141,.F.);
#187=ORIENTED_EDGE('',*,*,#143,.F.);
#188=ORIENTED_EDGE('',*,*,#146,.F.);
#189=ORIENTED_EDGE('',*,*,#149,.F.);
#190=ORIENTED_EDGE('',*,*,#137,.F.);
#191=ORIENTED_EDGE('',*,*,#149,.T.);
#192=ORIENTED_EDGE('',*,*,#145,.F.);
#193=ORIENTED_EDGE('',*,*,#150,.T.);
#194=ORIENTED_EDGE('',*,*,#151,.F.);
#195=ORIENTED_EDGE('',*,*,#152,.T.);
#196=ORIENTED_EDGE('',*,*,#153,.F.);
#197=ORIENTED_EDGE('',*,*,#154,.T.);
#198=ORIENTED_EDGE('',*,*,#155,.T.);
#199=ORIENTED_EDGE('',*,*,#151,.T.);
#200=ORIENTED_EDGE('',*,*,#156,.T.);
#201=ORIENTED_EDGE('',*,*,#157,.T.);
#202=ORIENTED_EDGE('',*,*,#158,.T.);
#203=ORIENTED_EDGE('',*,*,#159,.T.);
#204=ORIENTED_EDGE('',*,*,#160,.T.);
#205=ORIENTED_EDGE('',*,*,#157,.F.);
#206=ORIENTED_EDGE('',*,*,#161,.T.);
#207=ORIENTED_EDGE('',*,*,#153,.T.);
#208=ORIENTED_EDGE('',*,*,#162,.T.);
#209=ORIENTED_EDGE('',*,*,#159,.F.);
#210=ORIENTED_EDGE('',*,*,#163,.T.);
#211=ORIENTED_EDGE('',*,*,#138,.F.);
#212=ORIENTED_EDGE('',*,*,#154,.F.);
#213=ORIENTED_EDGE('',*,*,#163,.F.);
#214=ORIENTED_EDGE('',*,*,#164,.F.);
#215=ORIENTED_EDGE('',*,*,#161,.F.);
#216=ORIENTED_EDGE('',*,*,#165,.T.);
#217=ORIENTED_EDGE('',*,*,#166,.T.);
#218=ORIENTED_EDGE('',*,*,#164,.T.);
#219=ORIENTED_EDGE('',*,*,#148,.F.);
#220=ORIENTED_EDGE('',*,*,#165,.F.);
#221=ORIENTED_EDGE('',*,*,#156,.F.);
#222=ORIENTED_EDGE('',*,*,#150,.F.);
#223=ORIENTED_EDGE('',*,*,#162,.F.);
#224=ORIENTED_EDGE('',*,*,#152,.F.);
#225=ORIENTED_EDGE('',*,*,#158,.F.);
#226=ORIENTED_EDGE('',*,*,#160,.F.);
#227=ORIENTED_EDGE('',*,*,#144,.F.);
#228=ORIENTED_EDGE('',*,*,#139,.F.);
#229=ORIENTED_EDGE('',*,*,#166,.F.);
#230=ORIENTED_EDGE('',*,*,#147,.F.);
#231=ORIENTED_EDGE('',*,*,#167,.T.);
#232=ORIENTED_EDGE('',*,*,#168,.F.);
#233=ORIENTED_EDGE('',*,*,#169,.T.);
#234=ORIENTED_EDGE('',*,*,#167,.F.);
#235=ORIENTED_EDGE('',*,*,#169,.F.);
#236=ORIENTED_EDGE('',*,*,#168,.T.);
#237=ORIENTED_EDGE('',*,*,#155,.F.);
#238=ORIENTED_EDGE('',*,*,#170,.T.);
#239=ORIENTED_EDGE('',*,*,#171,.T.);
#240=ORIENTED_EDGE('',*,*,#170,.F.);
#241=ORIENTED_EDGE('',*,*,#171,.F.);
#242=CYLINDRICAL_SURFACE('',#304,3.);
#243=CYLINDRICAL_SURFACE('',#310,3.);
#244=CYLINDRICAL_SURFACE('',#317,3.);
#245=CYLINDRICAL_SURFACE('',#322,3.);
#246=CYLINDRICAL_SURFACE('',#324,5.);
#247=CYLINDRICAL_SURFACE('',#330,1.5);
#248=CYLINDRICAL_SURFACE('',#333,1.5);
#249=STYLED_ITEM('',(#543),#267);
#250=STYLED_ITEM('',(#543),#268);
#251=STYLED_ITEM('',(#543),#269);
#252=STYLED_ITEM('',(#543),#270);
#253=STYLED_ITEM('',(#543),#271);
#254=STYLED_ITEM('',(#543),#272);
#255=STYLED_ITEM('',(#543),#273);
#256=STYLED_ITEM('',(#543),#274);
#257=STYLED_ITEM('',(#543),#275);
#258=STYLED_ITEM('',(#543),#276);
#259=STYLED_ITEM('',(#543),#277);
#260=STYLED_ITEM('',(#543),#278);
#261=STYLED_ITEM('',(#543),#279);
#262=STYLED_ITEM('',(#543),#280);
#263=STYLED_ITEM('',(#543),#281);
#264=STYLED_ITEM('',(#543),#282);
#265=STYLED_ITEM('',(#543),#283);
#266=STYLED_ITEM('',(#542),#13);
#267=ADVANCED_FACE('',(#26),#242,.T.);
#268=ADVANCED_FACE('',(#27),#24,.F.);
#269=ADVANCED_FACE('',(#28),#243,.T.);
#270=ADVANCED_FACE('',(#29),#16,.T.);
#271=ADVANCED_FACE('',(#30,#14),#17,.T.);
#272=ADVANCED_FACE('',(#31),#244,.T.);
#273=ADVANCED_FACE('',(#32),#25,.F.);
#274=ADVANCED_FACE('',(#33),#245,.T.);
#275=ADVANCED_FACE('',(#34),#18,.T.);
#276=ADVANCED_FACE('',(#35),#246,.T.);
#277=ADVANCED_FACE('',(#36),#19,.T.);
#278=ADVANCED_FACE('',(#37),#20,.T.);
#279=ADVANCED_FACE('',(#38,#15),#21,.F.);
#280=ADVANCED_FACE('',(#39),#247,.T.);
#281=ADVANCED_FACE('',(#40),#22,.T.);
#282=ADVANCED_FACE('',(#41),#248,.F.);
#283=ADVANCED_FACE('',(#42),#23,.T.);
#284=CLOSED_SHELL('',(#267,#268,#269,#270,#271,#272,#273,#274,#275,#276,
#277,#278,#279,#280,#281,#282,#283));
#285=DERIVED_UNIT_ELEMENT(#287,1.);
#286=DERIVED_UNIT_ELEMENT(#528,3.);
#287=(
MASS_UNIT()
NAMED_UNIT(*)
SI_UNIT($,.GRAM.)
);
#288=DERIVED_UNIT((#285,#286));
#289=MEASURE_REPRESENTATION_ITEM('density measure',
POSITIVE_RATIO_MEASURE(1.06),#288);
#290=PROPERTY_DEFINITION_REPRESENTATION(#295,#292);
#291=PROPERTY_DEFINITION_REPRESENTATION(#296,#293);
#292=REPRESENTATION('material name',(#294),#525);
#293=REPRESENTATION('density',(#289),#525);
#294=DESCRIPTIVE_REPRESENTATION_ITEM('ABS Plastic','ABS Plastic');
#295=PROPERTY_DEFINITION('material property','material name',#535);
#296=PROPERTY_DEFINITION('material property','density of part',#535);
#297=DATE_TIME_ROLE('creation_date');
#298=APPLIED_DATE_AND_TIME_ASSIGNMENT(#299,#297,(#535));
#299=DATE_AND_TIME(#300,#301);
#300=CALENDAR_DATE(2025,16,9);
#301=LOCAL_TIME(0,0,0.,#302);
#302=COORDINATED_UNIVERSAL_TIME_OFFSET(0,0,.BEHIND.);
#303=AXIS2_PLACEMENT_3D('placement',#420,#336,#337);
#304=AXIS2_PLACEMENT_3D('',#421,#338,#339);
#305=AXIS2_PLACEMENT_3D('',#424,#340,#341);
#306=AXIS2_PLACEMENT_3D('',#430,#344,#345);
#307=AXIS2_PLACEMENT_3D('',#449,#347,#348);
#308=AXIS2_PLACEMENT_3D('',#450,#349,#350);
#309=AXIS2_PLACEMENT_3D('',#451,#351,#352);
#310=AXIS2_PLACEMENT_3D('',#452,#353,#354);
#311=AXIS2_PLACEMENT_3D('',#455,#355,#356);
#312=AXIS2_PLACEMENT_3D('',#460,#360,#361);
#313=AXIS2_PLACEMENT_3D('',#462,#363,#364);
#314=AXIS2_PLACEMENT_3D('',#466,#366,#367);
#315=AXIS2_PLACEMENT_3D('',#470,#369,#370);
#316=AXIS2_PLACEMENT_3D('',#473,#372,#373);
#317=AXIS2_PLACEMENT_3D('',#474,#374,#375);
#318=AXIS2_PLACEMENT_3D('',#478,#377,#378);
#319=AXIS2_PLACEMENT_3D('',#497,#380,#381);
#320=AXIS2_PLACEMENT_3D('',#498,#382,#383);
#321=AXIS2_PLACEMENT_3D('',#499,#384,#385);
#322=AXIS2_PLACEMENT_3D('',#500,#386,#387);
#323=AXIS2_PLACEMENT_3D('',#503,#390,#391);
#324=AXIS2_PLACEMENT_3D('',#505,#393,#394);
#325=AXIS2_PLACEMENT_3D('',#507,#396,#397);
#326=AXIS2_PLACEMENT_3D('',#508,#398,#399);
#327=AXIS2_PLACEMENT_3D('',#509,#400,#401);
#328=AXIS2_PLACEMENT_3D('',#510,#402,#403);
#329=AXIS2_PLACEMENT_3D('',#512,#404,#405);
#330=AXIS2_PLACEMENT_3D('',#513,#406,#407);
#331=AXIS2_PLACEMENT_3D('',#515,#408,#409);
#332=AXIS2_PLACEMENT_3D('',#517,#411,#412);
#333=AXIS2_PLACEMENT_3D('',#518,#413,#414);
#334=AXIS2_PLACEMENT_3D('',#521,#416,#417);
#335=AXIS2_PLACEMENT_3D('',#522,#418,#419);
#336=DIRECTION('axis',(0.,0.,1.));
#337=DIRECTION('refdir',(1.,0.,0.));
#338=DIRECTION('center_axis',(0.,0.,1.));
#339=DIRECTION('ref_axis',(0.707106781186547,0.707106781186548,0.));
#340=DIRECTION('center_axis',(0.,0.,-1.));
#341=DIRECTION('ref_axis',(0.707106781186547,0.707106781186548,0.));
#342=DIRECTION('',(0.,0.,-1.));
#343=DIRECTION('',(0.,0.,-1.));
#344=DIRECTION('center_axis',(0.,0.,1.));
#345=DIRECTION('ref_axis',(1.,3.70074341541719E-16,0.));
#346=DIRECTION('',(0.,0.,1.));
#347=DIRECTION('center_axis',(0.,0.,-1.));
#348=DIRECTION('ref_axis',(-1.,3.70074341541719E-16,0.));
#349=DIRECTION('center_axis',(0.,-1.,0.));
#350=DIRECTION('ref_axis',(-3.33066907387547E-17,0.,-1.));
#351=DIRECTION('center_axis',(0.,1.,0.));
#352=DIRECTION('ref_axis',(-0.707106781186547,-1.57009245868378E-16,-0.707106781186548));
#353=DIRECTION('center_axis',(0.,0.,1.));
#354=DIRECTION('ref_axis',(-0.707106781186547,0.707106781186548,0.));
#355=DIRECTION('center_axis',(0.,0.,-1.));
#356=DIRECTION('ref_axis',(-0.707106781186547,0.707106781186548,0.));
#357=DIRECTION('',(0.,0.,-1.));
#358=DIRECTION('',(0.,0.,1.));
#359=DIRECTION('',(0.,0.,1.));
#360=DIRECTION('center_axis',(0.,1.,0.));
#361=DIRECTION('ref_axis',(-1.,0.,0.));
#362=DIRECTION('',(-1.,0.,0.));
#363=DIRECTION('center_axis',(0.,0.,1.));
#364=DIRECTION('ref_axis',(1.,0.,0.));
#365=DIRECTION('',(2.22044604925031E-16,-1.,0.));
#366=DIRECTION('center_axis',(0.,0.,-1.));
#367=DIRECTION('ref_axis',(-0.707106781186547,-0.707106781186548,0.));
#368=DIRECTION('',(1.,0.,0.));
#369=DIRECTION('center_axis',(0.,0.,-1.));
#370=DIRECTION('ref_axis',(0.707106781186548,-0.707106781186548,0.));
#371=DIRECTION('',(-5.55111512312578E-17,1.,0.));
#372=DIRECTION('center_axis',(0.,0.,-1.));
#373=DIRECTION('ref_axis',(1.,0.,0.));
#374=DIRECTION('center_axis',(0.,0.,1.));
#375=DIRECTION('ref_axis',(-0.707106781186547,-0.707106781186548,0.));
#376=DIRECTION('',(0.,0.,-1.));
#377=DIRECTION('center_axis',(0.,0.,1.));
#378=DIRECTION('ref_axis',(-1.,-1.85037170770859E-16,0.));
#379=DIRECTION('',(0.,0.,1.));
#380=DIRECTION('center_axis',(0.,0.,-1.));
#381=DIRECTION('ref_axis',(1.,0.,0.));
#382=DIRECTION('center_axis',(0.,1.,0.));
#383=DIRECTION('ref_axis',(1.33226762955019E-16,0.,-1.));
#384=DIRECTION('center_axis',(0.,-1.,0.));
#385=DIRECTION('ref_axis',(1.33226762955019E-16,0.,-1.));
#386=DIRECTION('center_axis',(0.,0.,1.));
#387=DIRECTION('ref_axis',(0.707106781186548,-0.707106781186548,0.));
#388=DIRECTION('',(0.,0.,-1.));
#389=DIRECTION('',(0.,0.,1.));
#390=DIRECTION('center_axis',(1.,5.55111512312578E-17,0.));
#391=DIRECTION('ref_axis',(-5.55111512312578E-17,1.,0.));
#392=DIRECTION('',(5.55111512312578E-17,-1.,0.));
#393=DIRECTION('center_axis',(2.22044604925031E-16,-1.,0.));
#394=DIRECTION('ref_axis',(-0.707106781186547,-1.57009245868378E-16,-0.707106781186548));
#395=DIRECTION('',(-2.22044604925031E-16,1.,0.));
#396=DIRECTION('center_axis',(0.,1.,0.));
#397=DIRECTION('ref_axis',(-0.707106781186547,-1.57009245868378E-16,-0.707106781186548));
#398=DIRECTION('center_axis',(-1.,-2.22044604925031E-16,0.));
#399=DIRECTION('ref_axis',(2.22044604925031E-16,-1.,0.));
#400=DIRECTION('center_axis',(0.,-1.,0.));
#401=DIRECTION('ref_axis',(1.,0.,0.));
#402=DIRECTION('center_axis',(0.,1.,0.));
#403=DIRECTION('ref_axis',(-1.,0.,0.));
#404=DIRECTION('center_axis',(0.,1.,0.));
#405=DIRECTION('ref_axis',(1.,0.,0.));
#406=DIRECTION('center_axis',(0.,-1.,0.));
#407=DIRECTION('ref_axis',(1.,0.,0.));
#408=DIRECTION('center_axis',(0.,-1.,0.));
#409=DIRECTION('ref_axis',(1.,0.,0.));
#410=DIRECTION('',(0.,1.,0.));
#411=DIRECTION('center_axis',(0.,-1.,0.));
#412=DIRECTION('ref_axis',(0.,0.,-1.));
#413=DIRECTION('center_axis',(0.,0.,-1.));
#414=DIRECTION('ref_axis',(1.,0.,0.));
#415=DIRECTION('',(0.,0.,-1.));
#416=DIRECTION('center_axis',(0.,0.,-1.));
#417=DIRECTION('ref_axis',(1.,0.,0.));
#418=DIRECTION('center_axis',(0.,0.,1.));
#419=DIRECTION('ref_axis',(1.,0.,0.));
#420=CARTESIAN_POINT('',(0.,0.,0.));
#421=CARTESIAN_POINT('Origin',(2.,2.,0.));
#422=CARTESIAN_POINT('',(2.,5.,55.));
#423=CARTESIAN_POINT('',(5.,2.,55.));
#424=CARTESIAN_POINT('Origin',(2.,2.,55.));
#425=CARTESIAN_POINT('',(5.,2.,16.));
#426=CARTESIAN_POINT('',(5.,2.,0.));
#427=CARTESIAN_POINT('',(5.,2.,5.));
#428=CARTESIAN_POINT('',(5.,2.,0.));
#429=CARTESIAN_POINT('',(2.,5.,5.));
#430=CARTESIAN_POINT('Origin',(2.,2.,5.));
#431=CARTESIAN_POINT('',(2.,5.,0.));
#432=CARTESIAN_POINT('Ctrl Pts',(-2.,5.,5.));
#433=CARTESIAN_POINT('Ctrl Pts',(-2.,5.,3.));
#434=CARTESIAN_POINT('Ctrl Pts',(-3.88578058618805E-16,5.,3.));
#435=CARTESIAN_POINT('Ctrl Pts',(2.,5.,3.));
#436=CARTESIAN_POINT('Ctrl Pts',(2.,5.,5.));
#437=CARTESIAN_POINT('Ctrl Pts',(-5.,5.,5.));
#438=CARTESIAN_POINT('Ctrl Pts',(-5.,5.,0.));
#439=CARTESIAN_POINT('Ctrl Pts',(-3.88578058618805E-16,5.,-1.11022302462516E-15));
#440=CARTESIAN_POINT('Ctrl Pts',(5.,5.,0.));
#441=CARTESIAN_POINT('Ctrl Pts',(5.,5.,5.));
#442=CARTESIAN_POINT('Ctrl Pts',(-5.,2.,5.));
#443=CARTESIAN_POINT('Ctrl Pts',(-5.,2.,1.11022302462516E-15));
#444=CARTESIAN_POINT('Ctrl Pts',(-3.88578058618805E-16,2.,0.));
#445=CARTESIAN_POINT('Ctrl Pts',(5.,2.,1.11022302462516E-15));
#446=CARTESIAN_POINT('Ctrl Pts',(5.,2.,5.));
#447=CARTESIAN_POINT('',(-5.,2.,5.));
#448=CARTESIAN_POINT('',(-2.,5.,5.));
#449=CARTESIAN_POINT('Origin',(-2.,2.,5.));
#450=CARTESIAN_POINT('Origin',(-3.88578058618805E-16,5.,5.));
#451=CARTESIAN_POINT('Origin',(-1.55431223447522E-15,2.,5.));
#452=CARTESIAN_POINT('Origin',(-2.,2.,0.));
#453=CARTESIAN_POINT('',(-5.,2.,55.));
#454=CARTESIAN_POINT('',(-2.,5.,55.));
#455=CARTESIAN_POINT('Origin',(-2.,2.,55.));
#456=CARTESIAN_POINT('',(-2.,5.,0.));
#457=CARTESIAN_POINT('',(-5.,2.,16.));
#458=CARTESIAN_POINT('',(-5.,2.,0.));
#459=CARTESIAN_POINT('',(-5.,2.,0.));
#460=CARTESIAN_POINT('Origin',(5.,5.,0.));
#461=CARTESIAN_POINT('',(5.,5.,55.));
#462=CARTESIAN_POINT('Origin',(-1.11022302462516E-15,0.,55.));
#463=CARTESIAN_POINT('',(-5.,-2.,55.));
#464=CARTESIAN_POINT('',(-5.,5.,55.));
#465=CARTESIAN_POINT('',(-2.,-5.,55.));
#466=CARTESIAN_POINT('Origin',(-2.,-2.,55.));
#467=CARTESIAN_POINT('',(2.,-5.,55.));
#468=CARTESIAN_POINT('',(-5.,-5.,55.));
#469=CARTESIAN_POINT('',(5.,-2.,55.));
#470=CARTESIAN_POINT('Origin',(2.,-2.,55.));
#471=CARTESIAN_POINT('',(5.,-5.,55.));
#472=CARTESIAN_POINT('',(-1.5,1.83697019872103E-16,55.));
#473=CARTESIAN_POINT('Origin',(0.,0.,55.));
#474=CARTESIAN_POINT('Origin',(-2.,-2.,0.));
#475=CARTESIAN_POINT('',(-5.,-2.,16.));
#476=CARTESIAN_POINT('',(-5.,-2.,0.));
#477=CARTESIAN_POINT('',(-2.,-5.,16.));
#478=CARTESIAN_POINT('Origin',(-2.,-2.,16.));
#479=CARTESIAN_POINT('',(-2.,-5.,0.));
#480=CARTESIAN_POINT('Ctrl Pts',(2.,-5.,16.));
#481=CARTESIAN_POINT('Ctrl Pts',(2.,-5.,14.));
#482=CARTESIAN_POINT('Ctrl Pts',(-4.21204454945623E-16,-5.,14.));
#483=CARTESIAN_POINT('Ctrl Pts',(-2.,-5.,14.));
#484=CARTESIAN_POINT('Ctrl Pts',(-2.,-5.,16.));
#485=CARTESIAN_POINT('Ctrl Pts',(5.,-5.,16.));
#486=CARTESIAN_POINT('Ctrl Pts',(5.,-5.,11.));
#487=CARTESIAN_POINT('Ctrl Pts',(-5.38104152014174E-17,-5.,11.));
#488=CARTESIAN_POINT('Ctrl Pts',(-5.,-5.,11.));
#489=CARTESIAN_POINT('Ctrl Pts',(-5.,-5.,16.));
#490=CARTESIAN_POINT('Ctrl Pts',(5.,-2.,16.));
#491=CARTESIAN_POINT('Ctrl Pts',(5.,-2.,11.));
#492=CARTESIAN_POINT('Ctrl Pts',(-5.38104152014174E-17,-2.,11.));
#493=CARTESIAN_POINT('Ctrl Pts',(-5.,-2.,11.));
#494=CARTESIAN_POINT('Ctrl Pts',(-5.,-2.,16.));
#495=CARTESIAN_POINT('',(5.,-2.,16.));
#496=CARTESIAN_POINT('',(2.,-5.,16.));
#497=CARTESIAN_POINT('Origin',(2.,-2.,16.));
#498=CARTESIAN_POINT('Origin',(-6.66133814775094E-16,-5.,16.));
#499=CARTESIAN_POINT('Origin',(-6.66133814775094E-16,-2.,16.));
#500=CARTESIAN_POINT('Origin',(2.,-2.,0.));
#501=CARTESIAN_POINT('',(2.,-5.,0.));
#502=CARTESIAN_POINT('',(5.,-2.,0.));
#503=CARTESIAN_POINT('Origin',(5.,-5.,0.));
#504=CARTESIAN_POINT('',(5.,-3.25,16.));
#505=CARTESIAN_POINT('Origin',(-1.49880108324396E-15,1.75,16.));
#506=CARTESIAN_POINT('',(-5.,1.75,16.));
#507=CARTESIAN_POINT('Origin',(-1.55431223447522E-15,2.,16.));
#508=CARTESIAN_POINT('Origin',(-5.,5.,0.));
#509=CARTESIAN_POINT('Origin',(-5.,-5.,0.));
#510=CARTESIAN_POINT('Origin',(5.,2.,0.));
#511=CARTESIAN_POINT('',(-1.5,2.,5.));
#512=CARTESIAN_POINT('Origin',(-2.22044604925031E-15,2.,5.));
#513=CARTESIAN_POINT('Origin',(-2.22044604925031E-15,2.,5.));
#514=CARTESIAN_POINT('',(-1.5,5.55111512312578E-16,5.));
#515=CARTESIAN_POINT('Origin',(-2.22044604925031E-15,5.55111512312578E-16,
5.));
#516=CARTESIAN_POINT('',(-1.5,2.,5.));
#517=CARTESIAN_POINT('Origin',(-2.22044604925031E-15,5.55111512312578E-16,
5.));
#518=CARTESIAN_POINT('Origin',(0.,0.,55.));
#519=CARTESIAN_POINT('',(-1.5,1.83697019872103E-16,53.));
#520=CARTESIAN_POINT('',(-1.5,1.83697019872103E-16,55.));
#521=CARTESIAN_POINT('Origin',(0.,0.,53.));
#522=CARTESIAN_POINT('Origin',(0.,0.,53.));
#523=UNCERTAINTY_MEASURE_WITH_UNIT(LENGTH_MEASURE(0.01),#527,
'DISTANCE_ACCURACY_VALUE',
'Maximum model space distance between geometric entities at asserted c
onnectivities');
#524=UNCERTAINTY_MEASURE_WITH_UNIT(LENGTH_MEASURE(0.01),#527,
'DISTANCE_ACCURACY_VALUE',
'Maximum model space distance between geometric entities at asserted c
onnectivities');
#525=(
GEOMETRIC_REPRESENTATION_CONTEXT(3)
GLOBAL_UNCERTAINTY_ASSIGNED_CONTEXT((#523))
GLOBAL_UNIT_ASSIGNED_CONTEXT((#527,#529,#530))
REPRESENTATION_CONTEXT('','3D')
);
#526=(
GEOMETRIC_REPRESENTATION_CONTEXT(3)
GLOBAL_UNCERTAINTY_ASSIGNED_CONTEXT((#524))
GLOBAL_UNIT_ASSIGNED_CONTEXT((#527,#529,#530))
REPRESENTATION_CONTEXT('','3D')
);
#527=(
LENGTH_UNIT()
NAMED_UNIT(*)
SI_UNIT(.MILLI.,.METRE.)
);
#528=(
LENGTH_UNIT()
NAMED_UNIT(*)
SI_UNIT(.CENTI.,.METRE.)
);
#529=(
NAMED_UNIT(*)
PLANE_ANGLE_UNIT()
SI_UNIT($,.RADIAN.)
);
#530=(
NAMED_UNIT(*)
SI_UNIT($,.STERADIAN.)
SOLID_ANGLE_UNIT()
);
#531=SHAPE_DEFINITION_REPRESENTATION(#532,#533);
#532=PRODUCT_DEFINITION_SHAPE('',$,#535);
#533=SHAPE_REPRESENTATION('',(#303),#525);
#534=PRODUCT_DEFINITION_CONTEXT('part definition',#539,'design');
#535=PRODUCT_DEFINITION('link3','link3',#536,#534);
#536=PRODUCT_DEFINITION_FORMATION('',$,#541);
#537=PRODUCT_RELATED_PRODUCT_CATEGORY('link3','link3',(#541));
#538=APPLICATION_PROTOCOL_DEFINITION('international standard',
'automotive_design',2009,#539);
#539=APPLICATION_CONTEXT(
'Core Data for Automotive Mechanical Design Process');
#540=PRODUCT_CONTEXT('part definition',#539,'mechanical');
#541=PRODUCT('link3','link3',$,(#540));
#542=PRESENTATION_STYLE_ASSIGNMENT((#544));
#543=PRESENTATION_STYLE_ASSIGNMENT((#545));
#544=SURFACE_STYLE_USAGE(.BOTH.,#550);
#545=SURFACE_STYLE_USAGE(.BOTH.,#551);
#546=SURFACE_STYLE_RENDERING_WITH_PROPERTIES($,#558,(#548));
#547=SURFACE_STYLE_RENDERING_WITH_PROPERTIES($,#559,(#549));
#548=SURFACE_STYLE_TRANSPARENT(0.);
#549=SURFACE_STYLE_TRANSPARENT(0.);
#550=SURFACE_SIDE_STYLE('',(#552,#546));
#551=SURFACE_SIDE_STYLE('',(#553,#547));
#552=SURFACE_STYLE_FILL_AREA(#554);
#553=SURFACE_STYLE_FILL_AREA(#555);
#554=FILL_AREA_STYLE('',(#556));
#555=FILL_AREA_STYLE('',(#557));
#556=FILL_AREA_STYLE_COLOUR('',#558);
#557=FILL_AREA_STYLE_COLOUR('',#559);
#558=COLOUR_RGB('',0.92156862745098,0.92156862745098,0.92156862745098);
#559=COLOUR_RGB('',0.811764705882353,0.309803921568627,0.);
ENDSEC;
END-ISO-10303-21;
